%TF.GenerationSoftware,KiCad,Pcbnew,7.0.1*%
%TF.CreationDate,2023-09-27T13:20:47+00:00*%
%TF.ProjectId,SI4735,53493437-3335-42e6-9b69-6361645f7063,rev?*%
%TF.SameCoordinates,Original*%
%TF.FileFunction,Drillmap*%
%TF.FilePolarity,Positive*%
%FSLAX45Y45*%
G04 Gerber Fmt 4.5, Leading zero omitted, Abs format (unit mm)*
G04 Created by KiCad (PCBNEW 7.0.1) date 2023-09-27 13:20:47*
%MOMM*%
%LPD*%
G01*
G04 APERTURE LIST*
%ADD10C,0.050000*%
%ADD11C,0.200000*%
%ADD12C,0.170000*%
G04 APERTURE END LIST*
D10*
X16904814Y-8370000D02*
G75*
G03*
X16904814Y-8370000I-184814J0D01*
G01*
X13132314Y-8365000D02*
G75*
G03*
X13132314Y-8365000I-184814J0D01*
G01*
X13137500Y-15880000D02*
G75*
G03*
X13137500Y-15880000I-184814J0D01*
G01*
X16905000Y-8787500D02*
X17070000Y-8787500D01*
X17070000Y-11907500D01*
X16905000Y-11907500D01*
X16905000Y-8787500D01*
X16907314Y-15875000D02*
G75*
G03*
X16907314Y-15875000I-184814J0D01*
G01*
X12496500Y-7931500D02*
X17192500Y-7931500D01*
X17192500Y-16320000D01*
X12496500Y-16320000D01*
X12496500Y-7931500D01*
D11*
D12*
X12735000Y-12352500D02*
X12905000Y-12522500D01*
X12905000Y-12352500D02*
X12735000Y-12522500D01*
X13435000Y-12352500D02*
X13605000Y-12522500D01*
X13605000Y-12352500D02*
X13435000Y-12522500D01*
D11*
X12741119Y-16635024D02*
X12741119Y-16435024D01*
X12741119Y-16435024D02*
X12788738Y-16435024D01*
X12788738Y-16435024D02*
X12817309Y-16444548D01*
X12817309Y-16444548D02*
X12836357Y-16463595D01*
X12836357Y-16463595D02*
X12845881Y-16482643D01*
X12845881Y-16482643D02*
X12855405Y-16520738D01*
X12855405Y-16520738D02*
X12855405Y-16549309D01*
X12855405Y-16549309D02*
X12845881Y-16587405D01*
X12845881Y-16587405D02*
X12836357Y-16606452D01*
X12836357Y-16606452D02*
X12817309Y-16625500D01*
X12817309Y-16625500D02*
X12788738Y-16635024D01*
X12788738Y-16635024D02*
X12741119Y-16635024D01*
X12941119Y-16635024D02*
X12941119Y-16501690D01*
X12941119Y-16539786D02*
X12950643Y-16520738D01*
X12950643Y-16520738D02*
X12960167Y-16511214D01*
X12960167Y-16511214D02*
X12979214Y-16501690D01*
X12979214Y-16501690D02*
X12998262Y-16501690D01*
X13064928Y-16635024D02*
X13064928Y-16501690D01*
X13064928Y-16435024D02*
X13055405Y-16444548D01*
X13055405Y-16444548D02*
X13064928Y-16454071D01*
X13064928Y-16454071D02*
X13074452Y-16444548D01*
X13074452Y-16444548D02*
X13064928Y-16435024D01*
X13064928Y-16435024D02*
X13064928Y-16454071D01*
X13188738Y-16635024D02*
X13169690Y-16625500D01*
X13169690Y-16625500D02*
X13160167Y-16606452D01*
X13160167Y-16606452D02*
X13160167Y-16435024D01*
X13293500Y-16635024D02*
X13274452Y-16625500D01*
X13274452Y-16625500D02*
X13264928Y-16606452D01*
X13264928Y-16606452D02*
X13264928Y-16435024D01*
X13522071Y-16635024D02*
X13522071Y-16435024D01*
X13522071Y-16435024D02*
X13588738Y-16577881D01*
X13588738Y-16577881D02*
X13655405Y-16435024D01*
X13655405Y-16435024D02*
X13655405Y-16635024D01*
X13836357Y-16635024D02*
X13836357Y-16530262D01*
X13836357Y-16530262D02*
X13826833Y-16511214D01*
X13826833Y-16511214D02*
X13807786Y-16501690D01*
X13807786Y-16501690D02*
X13769690Y-16501690D01*
X13769690Y-16501690D02*
X13750643Y-16511214D01*
X13836357Y-16625500D02*
X13817309Y-16635024D01*
X13817309Y-16635024D02*
X13769690Y-16635024D01*
X13769690Y-16635024D02*
X13750643Y-16625500D01*
X13750643Y-16625500D02*
X13741119Y-16606452D01*
X13741119Y-16606452D02*
X13741119Y-16587405D01*
X13741119Y-16587405D02*
X13750643Y-16568357D01*
X13750643Y-16568357D02*
X13769690Y-16558833D01*
X13769690Y-16558833D02*
X13817309Y-16558833D01*
X13817309Y-16558833D02*
X13836357Y-16549309D01*
X13931595Y-16501690D02*
X13931595Y-16701690D01*
X13931595Y-16511214D02*
X13950643Y-16501690D01*
X13950643Y-16501690D02*
X13988738Y-16501690D01*
X13988738Y-16501690D02*
X14007786Y-16511214D01*
X14007786Y-16511214D02*
X14017309Y-16520738D01*
X14017309Y-16520738D02*
X14026833Y-16539786D01*
X14026833Y-16539786D02*
X14026833Y-16596928D01*
X14026833Y-16596928D02*
X14017309Y-16615976D01*
X14017309Y-16615976D02*
X14007786Y-16625500D01*
X14007786Y-16625500D02*
X13988738Y-16635024D01*
X13988738Y-16635024D02*
X13950643Y-16635024D01*
X13950643Y-16635024D02*
X13931595Y-16625500D01*
X14112548Y-16615976D02*
X14122071Y-16625500D01*
X14122071Y-16625500D02*
X14112548Y-16635024D01*
X14112548Y-16635024D02*
X14103024Y-16625500D01*
X14103024Y-16625500D02*
X14112548Y-16615976D01*
X14112548Y-16615976D02*
X14112548Y-16635024D01*
X14112548Y-16511214D02*
X14122071Y-16520738D01*
X14122071Y-16520738D02*
X14112548Y-16530262D01*
X14112548Y-16530262D02*
X14103024Y-16520738D01*
X14103024Y-16520738D02*
X14112548Y-16511214D01*
X14112548Y-16511214D02*
X14112548Y-16530262D01*
D12*
X12323500Y-16877500D02*
X12493500Y-17047500D01*
X12493500Y-16877500D02*
X12323500Y-17047500D01*
D11*
X12845881Y-17055024D02*
X12731595Y-17055024D01*
X12788738Y-17055024D02*
X12788738Y-16855024D01*
X12788738Y-16855024D02*
X12769690Y-16883595D01*
X12769690Y-16883595D02*
X12750643Y-16902643D01*
X12750643Y-16902643D02*
X12731595Y-16912167D01*
X12931595Y-17035976D02*
X12941119Y-17045500D01*
X12941119Y-17045500D02*
X12931595Y-17055024D01*
X12931595Y-17055024D02*
X12922071Y-17045500D01*
X12922071Y-17045500D02*
X12931595Y-17035976D01*
X12931595Y-17035976D02*
X12931595Y-17055024D01*
X13007786Y-16855024D02*
X13141119Y-16855024D01*
X13141119Y-16855024D02*
X13055405Y-17055024D01*
X13255405Y-16855024D02*
X13274452Y-16855024D01*
X13274452Y-16855024D02*
X13293500Y-16864548D01*
X13293500Y-16864548D02*
X13303024Y-16874071D01*
X13303024Y-16874071D02*
X13312548Y-16893119D01*
X13312548Y-16893119D02*
X13322071Y-16931214D01*
X13322071Y-16931214D02*
X13322071Y-16978833D01*
X13322071Y-16978833D02*
X13312548Y-17016929D01*
X13312548Y-17016929D02*
X13303024Y-17035976D01*
X13303024Y-17035976D02*
X13293500Y-17045500D01*
X13293500Y-17045500D02*
X13274452Y-17055024D01*
X13274452Y-17055024D02*
X13255405Y-17055024D01*
X13255405Y-17055024D02*
X13236357Y-17045500D01*
X13236357Y-17045500D02*
X13226833Y-17035976D01*
X13226833Y-17035976D02*
X13217309Y-17016929D01*
X13217309Y-17016929D02*
X13207786Y-16978833D01*
X13207786Y-16978833D02*
X13207786Y-16931214D01*
X13207786Y-16931214D02*
X13217309Y-16893119D01*
X13217309Y-16893119D02*
X13226833Y-16874071D01*
X13226833Y-16874071D02*
X13236357Y-16864548D01*
X13236357Y-16864548D02*
X13255405Y-16855024D01*
X13445881Y-16855024D02*
X13464929Y-16855024D01*
X13464929Y-16855024D02*
X13483976Y-16864548D01*
X13483976Y-16864548D02*
X13493500Y-16874071D01*
X13493500Y-16874071D02*
X13503024Y-16893119D01*
X13503024Y-16893119D02*
X13512548Y-16931214D01*
X13512548Y-16931214D02*
X13512548Y-16978833D01*
X13512548Y-16978833D02*
X13503024Y-17016929D01*
X13503024Y-17016929D02*
X13493500Y-17035976D01*
X13493500Y-17035976D02*
X13483976Y-17045500D01*
X13483976Y-17045500D02*
X13464929Y-17055024D01*
X13464929Y-17055024D02*
X13445881Y-17055024D01*
X13445881Y-17055024D02*
X13426833Y-17045500D01*
X13426833Y-17045500D02*
X13417309Y-17035976D01*
X13417309Y-17035976D02*
X13407786Y-17016929D01*
X13407786Y-17016929D02*
X13398262Y-16978833D01*
X13398262Y-16978833D02*
X13398262Y-16931214D01*
X13398262Y-16931214D02*
X13407786Y-16893119D01*
X13407786Y-16893119D02*
X13417309Y-16874071D01*
X13417309Y-16874071D02*
X13426833Y-16864548D01*
X13426833Y-16864548D02*
X13445881Y-16855024D01*
X13598262Y-17055024D02*
X13598262Y-16921690D01*
X13598262Y-16940738D02*
X13607786Y-16931214D01*
X13607786Y-16931214D02*
X13626833Y-16921690D01*
X13626833Y-16921690D02*
X13655405Y-16921690D01*
X13655405Y-16921690D02*
X13674452Y-16931214D01*
X13674452Y-16931214D02*
X13683976Y-16950262D01*
X13683976Y-16950262D02*
X13683976Y-17055024D01*
X13683976Y-16950262D02*
X13693500Y-16931214D01*
X13693500Y-16931214D02*
X13712548Y-16921690D01*
X13712548Y-16921690D02*
X13741119Y-16921690D01*
X13741119Y-16921690D02*
X13760167Y-16931214D01*
X13760167Y-16931214D02*
X13769690Y-16950262D01*
X13769690Y-16950262D02*
X13769690Y-17055024D01*
X13864929Y-17055024D02*
X13864929Y-16921690D01*
X13864929Y-16940738D02*
X13874452Y-16931214D01*
X13874452Y-16931214D02*
X13893500Y-16921690D01*
X13893500Y-16921690D02*
X13922071Y-16921690D01*
X13922071Y-16921690D02*
X13941119Y-16931214D01*
X13941119Y-16931214D02*
X13950643Y-16950262D01*
X13950643Y-16950262D02*
X13950643Y-17055024D01*
X13950643Y-16950262D02*
X13960167Y-16931214D01*
X13960167Y-16931214D02*
X13979214Y-16921690D01*
X13979214Y-16921690D02*
X14007786Y-16921690D01*
X14007786Y-16921690D02*
X14026833Y-16931214D01*
X14026833Y-16931214D02*
X14036357Y-16950262D01*
X14036357Y-16950262D02*
X14036357Y-17055024D01*
X14426833Y-16845500D02*
X14255405Y-17102643D01*
X14683976Y-16855024D02*
X14703024Y-16855024D01*
X14703024Y-16855024D02*
X14722072Y-16864548D01*
X14722072Y-16864548D02*
X14731595Y-16874071D01*
X14731595Y-16874071D02*
X14741119Y-16893119D01*
X14741119Y-16893119D02*
X14750643Y-16931214D01*
X14750643Y-16931214D02*
X14750643Y-16978833D01*
X14750643Y-16978833D02*
X14741119Y-17016929D01*
X14741119Y-17016929D02*
X14731595Y-17035976D01*
X14731595Y-17035976D02*
X14722072Y-17045500D01*
X14722072Y-17045500D02*
X14703024Y-17055024D01*
X14703024Y-17055024D02*
X14683976Y-17055024D01*
X14683976Y-17055024D02*
X14664929Y-17045500D01*
X14664929Y-17045500D02*
X14655405Y-17035976D01*
X14655405Y-17035976D02*
X14645881Y-17016929D01*
X14645881Y-17016929D02*
X14636357Y-16978833D01*
X14636357Y-16978833D02*
X14636357Y-16931214D01*
X14636357Y-16931214D02*
X14645881Y-16893119D01*
X14645881Y-16893119D02*
X14655405Y-16874071D01*
X14655405Y-16874071D02*
X14664929Y-16864548D01*
X14664929Y-16864548D02*
X14683976Y-16855024D01*
X14836357Y-17035976D02*
X14845881Y-17045500D01*
X14845881Y-17045500D02*
X14836357Y-17055024D01*
X14836357Y-17055024D02*
X14826833Y-17045500D01*
X14826833Y-17045500D02*
X14836357Y-17035976D01*
X14836357Y-17035976D02*
X14836357Y-17055024D01*
X14969691Y-16855024D02*
X14988738Y-16855024D01*
X14988738Y-16855024D02*
X15007786Y-16864548D01*
X15007786Y-16864548D02*
X15017310Y-16874071D01*
X15017310Y-16874071D02*
X15026833Y-16893119D01*
X15026833Y-16893119D02*
X15036357Y-16931214D01*
X15036357Y-16931214D02*
X15036357Y-16978833D01*
X15036357Y-16978833D02*
X15026833Y-17016929D01*
X15026833Y-17016929D02*
X15017310Y-17035976D01*
X15017310Y-17035976D02*
X15007786Y-17045500D01*
X15007786Y-17045500D02*
X14988738Y-17055024D01*
X14988738Y-17055024D02*
X14969691Y-17055024D01*
X14969691Y-17055024D02*
X14950643Y-17045500D01*
X14950643Y-17045500D02*
X14941119Y-17035976D01*
X14941119Y-17035976D02*
X14931595Y-17016929D01*
X14931595Y-17016929D02*
X14922072Y-16978833D01*
X14922072Y-16978833D02*
X14922072Y-16931214D01*
X14922072Y-16931214D02*
X14931595Y-16893119D01*
X14931595Y-16893119D02*
X14941119Y-16874071D01*
X14941119Y-16874071D02*
X14950643Y-16864548D01*
X14950643Y-16864548D02*
X14969691Y-16855024D01*
X15207786Y-16855024D02*
X15169691Y-16855024D01*
X15169691Y-16855024D02*
X15150643Y-16864548D01*
X15150643Y-16864548D02*
X15141119Y-16874071D01*
X15141119Y-16874071D02*
X15122072Y-16902643D01*
X15122072Y-16902643D02*
X15112548Y-16940738D01*
X15112548Y-16940738D02*
X15112548Y-17016929D01*
X15112548Y-17016929D02*
X15122072Y-17035976D01*
X15122072Y-17035976D02*
X15131595Y-17045500D01*
X15131595Y-17045500D02*
X15150643Y-17055024D01*
X15150643Y-17055024D02*
X15188738Y-17055024D01*
X15188738Y-17055024D02*
X15207786Y-17045500D01*
X15207786Y-17045500D02*
X15217310Y-17035976D01*
X15217310Y-17035976D02*
X15226833Y-17016929D01*
X15226833Y-17016929D02*
X15226833Y-16969310D01*
X15226833Y-16969310D02*
X15217310Y-16950262D01*
X15217310Y-16950262D02*
X15207786Y-16940738D01*
X15207786Y-16940738D02*
X15188738Y-16931214D01*
X15188738Y-16931214D02*
X15150643Y-16931214D01*
X15150643Y-16931214D02*
X15131595Y-16940738D01*
X15131595Y-16940738D02*
X15122072Y-16950262D01*
X15122072Y-16950262D02*
X15112548Y-16969310D01*
X15398262Y-16855024D02*
X15360167Y-16855024D01*
X15360167Y-16855024D02*
X15341119Y-16864548D01*
X15341119Y-16864548D02*
X15331595Y-16874071D01*
X15331595Y-16874071D02*
X15312548Y-16902643D01*
X15312548Y-16902643D02*
X15303024Y-16940738D01*
X15303024Y-16940738D02*
X15303024Y-17016929D01*
X15303024Y-17016929D02*
X15312548Y-17035976D01*
X15312548Y-17035976D02*
X15322072Y-17045500D01*
X15322072Y-17045500D02*
X15341119Y-17055024D01*
X15341119Y-17055024D02*
X15379214Y-17055024D01*
X15379214Y-17055024D02*
X15398262Y-17045500D01*
X15398262Y-17045500D02*
X15407786Y-17035976D01*
X15407786Y-17035976D02*
X15417310Y-17016929D01*
X15417310Y-17016929D02*
X15417310Y-16969310D01*
X15417310Y-16969310D02*
X15407786Y-16950262D01*
X15407786Y-16950262D02*
X15398262Y-16940738D01*
X15398262Y-16940738D02*
X15379214Y-16931214D01*
X15379214Y-16931214D02*
X15341119Y-16931214D01*
X15341119Y-16931214D02*
X15322072Y-16940738D01*
X15322072Y-16940738D02*
X15312548Y-16950262D01*
X15312548Y-16950262D02*
X15303024Y-16969310D01*
X15512548Y-17055024D02*
X15550643Y-17055024D01*
X15550643Y-17055024D02*
X15569691Y-17045500D01*
X15569691Y-17045500D02*
X15579214Y-17035976D01*
X15579214Y-17035976D02*
X15598262Y-17007405D01*
X15598262Y-17007405D02*
X15607786Y-16969310D01*
X15607786Y-16969310D02*
X15607786Y-16893119D01*
X15607786Y-16893119D02*
X15598262Y-16874071D01*
X15598262Y-16874071D02*
X15588738Y-16864548D01*
X15588738Y-16864548D02*
X15569691Y-16855024D01*
X15569691Y-16855024D02*
X15531595Y-16855024D01*
X15531595Y-16855024D02*
X15512548Y-16864548D01*
X15512548Y-16864548D02*
X15503024Y-16874071D01*
X15503024Y-16874071D02*
X15493500Y-16893119D01*
X15493500Y-16893119D02*
X15493500Y-16940738D01*
X15493500Y-16940738D02*
X15503024Y-16959786D01*
X15503024Y-16959786D02*
X15512548Y-16969310D01*
X15512548Y-16969310D02*
X15531595Y-16978833D01*
X15531595Y-16978833D02*
X15569691Y-16978833D01*
X15569691Y-16978833D02*
X15588738Y-16969310D01*
X15588738Y-16969310D02*
X15598262Y-16959786D01*
X15598262Y-16959786D02*
X15607786Y-16940738D01*
X15683976Y-16855024D02*
X15683976Y-16893119D01*
X15760167Y-16855024D02*
X15760167Y-16893119D01*
X16055405Y-17131214D02*
X16045881Y-17121690D01*
X16045881Y-17121690D02*
X16026834Y-17093119D01*
X16026834Y-17093119D02*
X16017310Y-17074071D01*
X16017310Y-17074071D02*
X16007786Y-17045500D01*
X16007786Y-17045500D02*
X15998262Y-16997881D01*
X15998262Y-16997881D02*
X15998262Y-16959786D01*
X15998262Y-16959786D02*
X16007786Y-16912167D01*
X16007786Y-16912167D02*
X16017310Y-16883595D01*
X16017310Y-16883595D02*
X16026834Y-16864548D01*
X16026834Y-16864548D02*
X16045881Y-16835976D01*
X16045881Y-16835976D02*
X16055405Y-16826452D01*
X16122072Y-16874071D02*
X16131595Y-16864548D01*
X16131595Y-16864548D02*
X16150643Y-16855024D01*
X16150643Y-16855024D02*
X16198262Y-16855024D01*
X16198262Y-16855024D02*
X16217310Y-16864548D01*
X16217310Y-16864548D02*
X16226834Y-16874071D01*
X16226834Y-16874071D02*
X16236357Y-16893119D01*
X16236357Y-16893119D02*
X16236357Y-16912167D01*
X16236357Y-16912167D02*
X16226834Y-16940738D01*
X16226834Y-16940738D02*
X16112548Y-17055024D01*
X16112548Y-17055024D02*
X16236357Y-17055024D01*
X16474453Y-17055024D02*
X16474453Y-16855024D01*
X16560167Y-17055024D02*
X16560167Y-16950262D01*
X16560167Y-16950262D02*
X16550643Y-16931214D01*
X16550643Y-16931214D02*
X16531596Y-16921690D01*
X16531596Y-16921690D02*
X16503024Y-16921690D01*
X16503024Y-16921690D02*
X16483976Y-16931214D01*
X16483976Y-16931214D02*
X16474453Y-16940738D01*
X16683976Y-17055024D02*
X16664929Y-17045500D01*
X16664929Y-17045500D02*
X16655405Y-17035976D01*
X16655405Y-17035976D02*
X16645881Y-17016929D01*
X16645881Y-17016929D02*
X16645881Y-16959786D01*
X16645881Y-16959786D02*
X16655405Y-16940738D01*
X16655405Y-16940738D02*
X16664929Y-16931214D01*
X16664929Y-16931214D02*
X16683976Y-16921690D01*
X16683976Y-16921690D02*
X16712548Y-16921690D01*
X16712548Y-16921690D02*
X16731596Y-16931214D01*
X16731596Y-16931214D02*
X16741119Y-16940738D01*
X16741119Y-16940738D02*
X16750643Y-16959786D01*
X16750643Y-16959786D02*
X16750643Y-17016929D01*
X16750643Y-17016929D02*
X16741119Y-17035976D01*
X16741119Y-17035976D02*
X16731596Y-17045500D01*
X16731596Y-17045500D02*
X16712548Y-17055024D01*
X16712548Y-17055024D02*
X16683976Y-17055024D01*
X16864929Y-17055024D02*
X16845881Y-17045500D01*
X16845881Y-17045500D02*
X16836358Y-17026452D01*
X16836358Y-17026452D02*
X16836358Y-16855024D01*
X17017310Y-17045500D02*
X16998262Y-17055024D01*
X16998262Y-17055024D02*
X16960167Y-17055024D01*
X16960167Y-17055024D02*
X16941119Y-17045500D01*
X16941119Y-17045500D02*
X16931596Y-17026452D01*
X16931596Y-17026452D02*
X16931596Y-16950262D01*
X16931596Y-16950262D02*
X16941119Y-16931214D01*
X16941119Y-16931214D02*
X16960167Y-16921690D01*
X16960167Y-16921690D02*
X16998262Y-16921690D01*
X16998262Y-16921690D02*
X17017310Y-16931214D01*
X17017310Y-16931214D02*
X17026834Y-16950262D01*
X17026834Y-16950262D02*
X17026834Y-16969310D01*
X17026834Y-16969310D02*
X16931596Y-16988357D01*
X17103024Y-17045500D02*
X17122072Y-17055024D01*
X17122072Y-17055024D02*
X17160167Y-17055024D01*
X17160167Y-17055024D02*
X17179215Y-17045500D01*
X17179215Y-17045500D02*
X17188739Y-17026452D01*
X17188739Y-17026452D02*
X17188739Y-17016929D01*
X17188739Y-17016929D02*
X17179215Y-16997881D01*
X17179215Y-16997881D02*
X17160167Y-16988357D01*
X17160167Y-16988357D02*
X17131596Y-16988357D01*
X17131596Y-16988357D02*
X17112548Y-16978833D01*
X17112548Y-16978833D02*
X17103024Y-16959786D01*
X17103024Y-16959786D02*
X17103024Y-16950262D01*
X17103024Y-16950262D02*
X17112548Y-16931214D01*
X17112548Y-16931214D02*
X17131596Y-16921690D01*
X17131596Y-16921690D02*
X17160167Y-16921690D01*
X17160167Y-16921690D02*
X17179215Y-16931214D01*
X17255405Y-17131214D02*
X17264929Y-17121690D01*
X17264929Y-17121690D02*
X17283977Y-17093119D01*
X17283977Y-17093119D02*
X17293500Y-17074071D01*
X17293500Y-17074071D02*
X17303024Y-17045500D01*
X17303024Y-17045500D02*
X17312548Y-16997881D01*
X17312548Y-16997881D02*
X17312548Y-16959786D01*
X17312548Y-16959786D02*
X17303024Y-16912167D01*
X17303024Y-16912167D02*
X17293500Y-16883595D01*
X17293500Y-16883595D02*
X17283977Y-16864548D01*
X17283977Y-16864548D02*
X17264929Y-16835976D01*
X17264929Y-16835976D02*
X17255405Y-16826452D01*
X17617310Y-17131214D02*
X17607786Y-17121690D01*
X17607786Y-17121690D02*
X17588739Y-17093119D01*
X17588739Y-17093119D02*
X17579215Y-17074071D01*
X17579215Y-17074071D02*
X17569691Y-17045500D01*
X17569691Y-17045500D02*
X17560167Y-16997881D01*
X17560167Y-16997881D02*
X17560167Y-16959786D01*
X17560167Y-16959786D02*
X17569691Y-16912167D01*
X17569691Y-16912167D02*
X17579215Y-16883595D01*
X17579215Y-16883595D02*
X17588739Y-16864548D01*
X17588739Y-16864548D02*
X17607786Y-16835976D01*
X17607786Y-16835976D02*
X17617310Y-16826452D01*
X17693500Y-16921690D02*
X17693500Y-17055024D01*
X17693500Y-16940738D02*
X17703024Y-16931214D01*
X17703024Y-16931214D02*
X17722072Y-16921690D01*
X17722072Y-16921690D02*
X17750643Y-16921690D01*
X17750643Y-16921690D02*
X17769691Y-16931214D01*
X17769691Y-16931214D02*
X17779215Y-16950262D01*
X17779215Y-16950262D02*
X17779215Y-17055024D01*
X17903024Y-17055024D02*
X17883977Y-17045500D01*
X17883977Y-17045500D02*
X17874453Y-17035976D01*
X17874453Y-17035976D02*
X17864929Y-17016929D01*
X17864929Y-17016929D02*
X17864929Y-16959786D01*
X17864929Y-16959786D02*
X17874453Y-16940738D01*
X17874453Y-16940738D02*
X17883977Y-16931214D01*
X17883977Y-16931214D02*
X17903024Y-16921690D01*
X17903024Y-16921690D02*
X17931596Y-16921690D01*
X17931596Y-16921690D02*
X17950643Y-16931214D01*
X17950643Y-16931214D02*
X17960167Y-16940738D01*
X17960167Y-16940738D02*
X17969691Y-16959786D01*
X17969691Y-16959786D02*
X17969691Y-17016929D01*
X17969691Y-17016929D02*
X17960167Y-17035976D01*
X17960167Y-17035976D02*
X17950643Y-17045500D01*
X17950643Y-17045500D02*
X17931596Y-17055024D01*
X17931596Y-17055024D02*
X17903024Y-17055024D01*
X18026834Y-16921690D02*
X18103024Y-16921690D01*
X18055405Y-16855024D02*
X18055405Y-17026452D01*
X18055405Y-17026452D02*
X18064929Y-17045500D01*
X18064929Y-17045500D02*
X18083977Y-17055024D01*
X18083977Y-17055024D02*
X18103024Y-17055024D01*
X18322072Y-16921690D02*
X18322072Y-17121690D01*
X18322072Y-16931214D02*
X18341120Y-16921690D01*
X18341120Y-16921690D02*
X18379215Y-16921690D01*
X18379215Y-16921690D02*
X18398262Y-16931214D01*
X18398262Y-16931214D02*
X18407786Y-16940738D01*
X18407786Y-16940738D02*
X18417310Y-16959786D01*
X18417310Y-16959786D02*
X18417310Y-17016929D01*
X18417310Y-17016929D02*
X18407786Y-17035976D01*
X18407786Y-17035976D02*
X18398262Y-17045500D01*
X18398262Y-17045500D02*
X18379215Y-17055024D01*
X18379215Y-17055024D02*
X18341120Y-17055024D01*
X18341120Y-17055024D02*
X18322072Y-17045500D01*
X18531596Y-17055024D02*
X18512548Y-17045500D01*
X18512548Y-17045500D02*
X18503024Y-17026452D01*
X18503024Y-17026452D02*
X18503024Y-16855024D01*
X18693501Y-17055024D02*
X18693501Y-16950262D01*
X18693501Y-16950262D02*
X18683977Y-16931214D01*
X18683977Y-16931214D02*
X18664929Y-16921690D01*
X18664929Y-16921690D02*
X18626834Y-16921690D01*
X18626834Y-16921690D02*
X18607786Y-16931214D01*
X18693501Y-17045500D02*
X18674453Y-17055024D01*
X18674453Y-17055024D02*
X18626834Y-17055024D01*
X18626834Y-17055024D02*
X18607786Y-17045500D01*
X18607786Y-17045500D02*
X18598262Y-17026452D01*
X18598262Y-17026452D02*
X18598262Y-17007405D01*
X18598262Y-17007405D02*
X18607786Y-16988357D01*
X18607786Y-16988357D02*
X18626834Y-16978833D01*
X18626834Y-16978833D02*
X18674453Y-16978833D01*
X18674453Y-16978833D02*
X18693501Y-16969310D01*
X18760167Y-16921690D02*
X18836358Y-16921690D01*
X18788739Y-16855024D02*
X18788739Y-17026452D01*
X18788739Y-17026452D02*
X18798262Y-17045500D01*
X18798262Y-17045500D02*
X18817310Y-17055024D01*
X18817310Y-17055024D02*
X18836358Y-17055024D01*
X18979215Y-17045500D02*
X18960167Y-17055024D01*
X18960167Y-17055024D02*
X18922072Y-17055024D01*
X18922072Y-17055024D02*
X18903024Y-17045500D01*
X18903024Y-17045500D02*
X18893501Y-17026452D01*
X18893501Y-17026452D02*
X18893501Y-16950262D01*
X18893501Y-16950262D02*
X18903024Y-16931214D01*
X18903024Y-16931214D02*
X18922072Y-16921690D01*
X18922072Y-16921690D02*
X18960167Y-16921690D01*
X18960167Y-16921690D02*
X18979215Y-16931214D01*
X18979215Y-16931214D02*
X18988739Y-16950262D01*
X18988739Y-16950262D02*
X18988739Y-16969310D01*
X18988739Y-16969310D02*
X18893501Y-16988357D01*
X19160167Y-17055024D02*
X19160167Y-16855024D01*
X19160167Y-17045500D02*
X19141120Y-17055024D01*
X19141120Y-17055024D02*
X19103024Y-17055024D01*
X19103024Y-17055024D02*
X19083977Y-17045500D01*
X19083977Y-17045500D02*
X19074453Y-17035976D01*
X19074453Y-17035976D02*
X19064929Y-17016929D01*
X19064929Y-17016929D02*
X19064929Y-16959786D01*
X19064929Y-16959786D02*
X19074453Y-16940738D01*
X19074453Y-16940738D02*
X19083977Y-16931214D01*
X19083977Y-16931214D02*
X19103024Y-16921690D01*
X19103024Y-16921690D02*
X19141120Y-16921690D01*
X19141120Y-16921690D02*
X19160167Y-16931214D01*
X19236358Y-17131214D02*
X19245882Y-17121690D01*
X19245882Y-17121690D02*
X19264929Y-17093119D01*
X19264929Y-17093119D02*
X19274453Y-17074071D01*
X19274453Y-17074071D02*
X19283977Y-17045500D01*
X19283977Y-17045500D02*
X19293501Y-16997881D01*
X19293501Y-16997881D02*
X19293501Y-16959786D01*
X19293501Y-16959786D02*
X19283977Y-16912167D01*
X19283977Y-16912167D02*
X19274453Y-16883595D01*
X19274453Y-16883595D02*
X19264929Y-16864548D01*
X19264929Y-16864548D02*
X19245882Y-16835976D01*
X19245882Y-16835976D02*
X19236358Y-16826452D01*
M02*
