%TF.GenerationSoftware,KiCad,Pcbnew,7.0.1*%
%TF.CreationDate,2023-09-27T13:21:00+00:00*%
%TF.ProjectId,SI4735,53493437-3335-42e6-9b69-6361645f7063,rev?*%
%TF.SameCoordinates,Original*%
%TF.FileFunction,Legend,Bot*%
%TF.FilePolarity,Positive*%
%FSLAX45Y45*%
G04 Gerber Fmt 4.5, Leading zero omitted, Abs format (unit mm)*
G04 Created by KiCad (PCBNEW 7.0.1) date 2023-09-27 13:21:00*
%MOMM*%
%LPD*%
G01*
G04 APERTURE LIST*
%ADD10C,0.466971*%
%ADD11C,0.120000*%
%ADD12C,0.200000*%
%ADD13C,0.180000*%
%ADD14C,0.150000*%
%ADD15C,0.127000*%
%TA.AperFunction,Profile*%
%ADD16C,0.050000*%
%TD*%
%TA.AperFunction,Profile*%
%ADD17C,0.100000*%
%TD*%
G04 APERTURE END LIST*
D10*
X14900848Y-9292500D02*
G75*
G03*
X14900848Y-9292500I-23349J0D01*
G01*
D11*
X14807500Y-9227460D02*
X14942500Y-9227460D01*
X14942500Y-9357500D01*
X14807500Y-9357500D01*
X14807500Y-9227460D01*
D10*
X14055848Y-10857500D02*
G75*
G03*
X14055848Y-10857500I-23349J0D01*
G01*
D11*
X13962500Y-10795000D02*
X14097500Y-10795000D01*
X14097500Y-10922500D01*
X13962500Y-10922500D01*
X13962500Y-10795000D01*
D12*
X13980700Y-9880714D02*
X13984509Y-9892143D01*
X13984509Y-9892143D02*
X13984509Y-9911190D01*
X13984509Y-9911190D02*
X13980700Y-9918810D01*
X13980700Y-9918810D02*
X13976890Y-9922619D01*
X13976890Y-9922619D02*
X13969271Y-9926429D01*
X13969271Y-9926429D02*
X13961652Y-9926429D01*
X13961652Y-9926429D02*
X13954033Y-9922619D01*
X13954033Y-9922619D02*
X13950224Y-9918810D01*
X13950224Y-9918810D02*
X13946414Y-9911190D01*
X13946414Y-9911190D02*
X13942605Y-9895952D01*
X13942605Y-9895952D02*
X13938795Y-9888333D01*
X13938795Y-9888333D02*
X13934986Y-9884524D01*
X13934986Y-9884524D02*
X13927367Y-9880714D01*
X13927367Y-9880714D02*
X13919748Y-9880714D01*
X13919748Y-9880714D02*
X13912128Y-9884524D01*
X13912128Y-9884524D02*
X13908319Y-9888333D01*
X13908319Y-9888333D02*
X13904509Y-9895952D01*
X13904509Y-9895952D02*
X13904509Y-9915000D01*
X13904509Y-9915000D02*
X13908319Y-9926429D01*
X13984509Y-9960714D02*
X13904509Y-9960714D01*
X13931176Y-10033095D02*
X13984509Y-10033095D01*
X13900700Y-10014048D02*
X13957843Y-9995000D01*
X13957843Y-9995000D02*
X13957843Y-10044524D01*
X13904509Y-10067381D02*
X13904509Y-10120714D01*
X13904509Y-10120714D02*
X13984509Y-10086429D01*
X13904509Y-10143571D02*
X13904509Y-10193095D01*
X13904509Y-10193095D02*
X13934986Y-10166429D01*
X13934986Y-10166429D02*
X13934986Y-10177857D01*
X13934986Y-10177857D02*
X13938795Y-10185476D01*
X13938795Y-10185476D02*
X13942605Y-10189286D01*
X13942605Y-10189286D02*
X13950224Y-10193095D01*
X13950224Y-10193095D02*
X13969271Y-10193095D01*
X13969271Y-10193095D02*
X13976890Y-10189286D01*
X13976890Y-10189286D02*
X13980700Y-10185476D01*
X13980700Y-10185476D02*
X13984509Y-10177857D01*
X13984509Y-10177857D02*
X13984509Y-10155000D01*
X13984509Y-10155000D02*
X13980700Y-10147381D01*
X13980700Y-10147381D02*
X13976890Y-10143571D01*
X13904509Y-10265476D02*
X13904509Y-10227381D01*
X13904509Y-10227381D02*
X13942605Y-10223571D01*
X13942605Y-10223571D02*
X13938795Y-10227381D01*
X13938795Y-10227381D02*
X13934986Y-10235000D01*
X13934986Y-10235000D02*
X13934986Y-10254048D01*
X13934986Y-10254048D02*
X13938795Y-10261667D01*
X13938795Y-10261667D02*
X13942605Y-10265476D01*
X13942605Y-10265476D02*
X13950224Y-10269286D01*
X13950224Y-10269286D02*
X13969271Y-10269286D01*
X13969271Y-10269286D02*
X13976890Y-10265476D01*
X13976890Y-10265476D02*
X13980700Y-10261667D01*
X13980700Y-10261667D02*
X13984509Y-10254048D01*
X13984509Y-10254048D02*
X13984509Y-10235000D01*
X13984509Y-10235000D02*
X13980700Y-10227381D01*
X13980700Y-10227381D02*
X13976890Y-10223571D01*
D13*
X16794050Y-12027143D02*
X16798336Y-12040000D01*
X16798336Y-12040000D02*
X16798336Y-12061428D01*
X16798336Y-12061428D02*
X16794050Y-12070000D01*
X16794050Y-12070000D02*
X16789764Y-12074286D01*
X16789764Y-12074286D02*
X16781193Y-12078571D01*
X16781193Y-12078571D02*
X16772621Y-12078571D01*
X16772621Y-12078571D02*
X16764050Y-12074286D01*
X16764050Y-12074286D02*
X16759764Y-12070000D01*
X16759764Y-12070000D02*
X16755478Y-12061428D01*
X16755478Y-12061428D02*
X16751193Y-12044286D01*
X16751193Y-12044286D02*
X16746907Y-12035714D01*
X16746907Y-12035714D02*
X16742621Y-12031428D01*
X16742621Y-12031428D02*
X16734050Y-12027143D01*
X16734050Y-12027143D02*
X16725478Y-12027143D01*
X16725478Y-12027143D02*
X16716907Y-12031428D01*
X16716907Y-12031428D02*
X16712621Y-12035714D01*
X16712621Y-12035714D02*
X16708336Y-12044286D01*
X16708336Y-12044286D02*
X16708336Y-12065714D01*
X16708336Y-12065714D02*
X16712621Y-12078571D01*
X16798336Y-12117143D02*
X16738336Y-12117143D01*
X16708336Y-12117143D02*
X16712621Y-12112857D01*
X16712621Y-12112857D02*
X16716907Y-12117143D01*
X16716907Y-12117143D02*
X16712621Y-12121428D01*
X16712621Y-12121428D02*
X16708336Y-12117143D01*
X16708336Y-12117143D02*
X16716907Y-12117143D01*
X16738336Y-12198571D02*
X16798336Y-12198571D01*
X16704050Y-12177143D02*
X16768336Y-12155714D01*
X16768336Y-12155714D02*
X16768336Y-12211428D01*
X16708336Y-12237143D02*
X16708336Y-12297143D01*
X16708336Y-12297143D02*
X16798336Y-12258571D01*
X16708336Y-12322857D02*
X16708336Y-12378571D01*
X16708336Y-12378571D02*
X16742621Y-12348571D01*
X16742621Y-12348571D02*
X16742621Y-12361428D01*
X16742621Y-12361428D02*
X16746907Y-12370000D01*
X16746907Y-12370000D02*
X16751193Y-12374286D01*
X16751193Y-12374286D02*
X16759764Y-12378571D01*
X16759764Y-12378571D02*
X16781193Y-12378571D01*
X16781193Y-12378571D02*
X16789764Y-12374286D01*
X16789764Y-12374286D02*
X16794050Y-12370000D01*
X16794050Y-12370000D02*
X16798336Y-12361428D01*
X16798336Y-12361428D02*
X16798336Y-12335714D01*
X16798336Y-12335714D02*
X16794050Y-12327143D01*
X16794050Y-12327143D02*
X16789764Y-12322857D01*
X16708336Y-12460000D02*
X16708336Y-12417143D01*
X16708336Y-12417143D02*
X16751193Y-12412857D01*
X16751193Y-12412857D02*
X16746907Y-12417143D01*
X16746907Y-12417143D02*
X16742621Y-12425714D01*
X16742621Y-12425714D02*
X16742621Y-12447143D01*
X16742621Y-12447143D02*
X16746907Y-12455714D01*
X16746907Y-12455714D02*
X16751193Y-12460000D01*
X16751193Y-12460000D02*
X16759764Y-12464286D01*
X16759764Y-12464286D02*
X16781193Y-12464286D01*
X16781193Y-12464286D02*
X16789764Y-12460000D01*
X16789764Y-12460000D02*
X16794050Y-12455714D01*
X16794050Y-12455714D02*
X16798336Y-12447143D01*
X16798336Y-12447143D02*
X16798336Y-12425714D01*
X16798336Y-12425714D02*
X16794050Y-12417143D01*
X16794050Y-12417143D02*
X16789764Y-12412857D01*
X16764050Y-12502857D02*
X16764050Y-12571429D01*
X16798336Y-12614286D02*
X16708336Y-12614286D01*
X16742621Y-12614286D02*
X16738336Y-12622857D01*
X16738336Y-12622857D02*
X16738336Y-12640000D01*
X16738336Y-12640000D02*
X16742621Y-12648571D01*
X16742621Y-12648571D02*
X16746907Y-12652857D01*
X16746907Y-12652857D02*
X16755478Y-12657143D01*
X16755478Y-12657143D02*
X16781193Y-12657143D01*
X16781193Y-12657143D02*
X16789764Y-12652857D01*
X16789764Y-12652857D02*
X16794050Y-12648571D01*
X16794050Y-12648571D02*
X16798336Y-12640000D01*
X16798336Y-12640000D02*
X16798336Y-12622857D01*
X16798336Y-12622857D02*
X16794050Y-12614286D01*
X16798336Y-12734286D02*
X16751193Y-12734286D01*
X16751193Y-12734286D02*
X16742621Y-12730000D01*
X16742621Y-12730000D02*
X16738336Y-12721429D01*
X16738336Y-12721429D02*
X16738336Y-12704286D01*
X16738336Y-12704286D02*
X16742621Y-12695714D01*
X16794050Y-12734286D02*
X16798336Y-12725714D01*
X16798336Y-12725714D02*
X16798336Y-12704286D01*
X16798336Y-12704286D02*
X16794050Y-12695714D01*
X16794050Y-12695714D02*
X16785479Y-12691429D01*
X16785479Y-12691429D02*
X16776907Y-12691429D01*
X16776907Y-12691429D02*
X16768336Y-12695714D01*
X16768336Y-12695714D02*
X16764050Y-12704286D01*
X16764050Y-12704286D02*
X16764050Y-12725714D01*
X16764050Y-12725714D02*
X16759764Y-12734286D01*
X16794050Y-12772857D02*
X16798336Y-12781429D01*
X16798336Y-12781429D02*
X16798336Y-12798571D01*
X16798336Y-12798571D02*
X16794050Y-12807143D01*
X16794050Y-12807143D02*
X16785479Y-12811429D01*
X16785479Y-12811429D02*
X16781193Y-12811429D01*
X16781193Y-12811429D02*
X16772621Y-12807143D01*
X16772621Y-12807143D02*
X16768336Y-12798571D01*
X16768336Y-12798571D02*
X16768336Y-12785714D01*
X16768336Y-12785714D02*
X16764050Y-12777143D01*
X16764050Y-12777143D02*
X16755478Y-12772857D01*
X16755478Y-12772857D02*
X16751193Y-12772857D01*
X16751193Y-12772857D02*
X16742621Y-12777143D01*
X16742621Y-12777143D02*
X16738336Y-12785714D01*
X16738336Y-12785714D02*
X16738336Y-12798571D01*
X16738336Y-12798571D02*
X16742621Y-12807143D01*
X16794050Y-12884286D02*
X16798336Y-12875714D01*
X16798336Y-12875714D02*
X16798336Y-12858571D01*
X16798336Y-12858571D02*
X16794050Y-12850000D01*
X16794050Y-12850000D02*
X16785479Y-12845714D01*
X16785479Y-12845714D02*
X16751193Y-12845714D01*
X16751193Y-12845714D02*
X16742621Y-12850000D01*
X16742621Y-12850000D02*
X16738336Y-12858571D01*
X16738336Y-12858571D02*
X16738336Y-12875714D01*
X16738336Y-12875714D02*
X16742621Y-12884286D01*
X16742621Y-12884286D02*
X16751193Y-12888571D01*
X16751193Y-12888571D02*
X16759764Y-12888571D01*
X16759764Y-12888571D02*
X16768336Y-12845714D01*
X16798336Y-12965714D02*
X16708336Y-12965714D01*
X16794050Y-12965714D02*
X16798336Y-12957143D01*
X16798336Y-12957143D02*
X16798336Y-12940000D01*
X16798336Y-12940000D02*
X16794050Y-12931429D01*
X16794050Y-12931429D02*
X16789764Y-12927143D01*
X16789764Y-12927143D02*
X16781193Y-12922857D01*
X16781193Y-12922857D02*
X16755478Y-12922857D01*
X16755478Y-12922857D02*
X16746907Y-12927143D01*
X16746907Y-12927143D02*
X16742621Y-12931429D01*
X16742621Y-12931429D02*
X16738336Y-12940000D01*
X16738336Y-12940000D02*
X16738336Y-12957143D01*
X16738336Y-12957143D02*
X16742621Y-12965714D01*
X16798336Y-13077143D02*
X16738336Y-13077143D01*
X16755478Y-13077143D02*
X16746907Y-13081429D01*
X16746907Y-13081429D02*
X16742621Y-13085714D01*
X16742621Y-13085714D02*
X16738336Y-13094286D01*
X16738336Y-13094286D02*
X16738336Y-13102857D01*
X16798336Y-13171429D02*
X16751193Y-13171429D01*
X16751193Y-13171429D02*
X16742621Y-13167143D01*
X16742621Y-13167143D02*
X16738336Y-13158571D01*
X16738336Y-13158571D02*
X16738336Y-13141429D01*
X16738336Y-13141429D02*
X16742621Y-13132857D01*
X16794050Y-13171429D02*
X16798336Y-13162857D01*
X16798336Y-13162857D02*
X16798336Y-13141429D01*
X16798336Y-13141429D02*
X16794050Y-13132857D01*
X16794050Y-13132857D02*
X16785479Y-13128571D01*
X16785479Y-13128571D02*
X16776907Y-13128571D01*
X16776907Y-13128571D02*
X16768336Y-13132857D01*
X16768336Y-13132857D02*
X16764050Y-13141429D01*
X16764050Y-13141429D02*
X16764050Y-13162857D01*
X16764050Y-13162857D02*
X16759764Y-13171429D01*
X16798336Y-13252857D02*
X16708336Y-13252857D01*
X16794050Y-13252857D02*
X16798336Y-13244286D01*
X16798336Y-13244286D02*
X16798336Y-13227143D01*
X16798336Y-13227143D02*
X16794050Y-13218571D01*
X16794050Y-13218571D02*
X16789764Y-13214286D01*
X16789764Y-13214286D02*
X16781193Y-13210000D01*
X16781193Y-13210000D02*
X16755478Y-13210000D01*
X16755478Y-13210000D02*
X16746907Y-13214286D01*
X16746907Y-13214286D02*
X16742621Y-13218571D01*
X16742621Y-13218571D02*
X16738336Y-13227143D01*
X16738336Y-13227143D02*
X16738336Y-13244286D01*
X16738336Y-13244286D02*
X16742621Y-13252857D01*
X16798336Y-13295714D02*
X16738336Y-13295714D01*
X16708336Y-13295714D02*
X16712621Y-13291429D01*
X16712621Y-13291429D02*
X16716907Y-13295714D01*
X16716907Y-13295714D02*
X16712621Y-13300000D01*
X16712621Y-13300000D02*
X16708336Y-13295714D01*
X16708336Y-13295714D02*
X16716907Y-13295714D01*
X16798336Y-13351429D02*
X16794050Y-13342857D01*
X16794050Y-13342857D02*
X16789764Y-13338571D01*
X16789764Y-13338571D02*
X16781193Y-13334286D01*
X16781193Y-13334286D02*
X16755478Y-13334286D01*
X16755478Y-13334286D02*
X16746907Y-13338571D01*
X16746907Y-13338571D02*
X16742621Y-13342857D01*
X16742621Y-13342857D02*
X16738336Y-13351429D01*
X16738336Y-13351429D02*
X16738336Y-13364286D01*
X16738336Y-13364286D02*
X16742621Y-13372857D01*
X16742621Y-13372857D02*
X16746907Y-13377143D01*
X16746907Y-13377143D02*
X16755478Y-13381429D01*
X16755478Y-13381429D02*
X16781193Y-13381429D01*
X16781193Y-13381429D02*
X16789764Y-13377143D01*
X16789764Y-13377143D02*
X16794050Y-13372857D01*
X16794050Y-13372857D02*
X16798336Y-13364286D01*
X16798336Y-13364286D02*
X16798336Y-13351429D01*
X16789764Y-13420000D02*
X16794050Y-13424286D01*
X16794050Y-13424286D02*
X16798336Y-13420000D01*
X16798336Y-13420000D02*
X16794050Y-13415714D01*
X16794050Y-13415714D02*
X16789764Y-13420000D01*
X16789764Y-13420000D02*
X16798336Y-13420000D01*
X16944136Y-12031428D02*
X16854136Y-12031428D01*
X16854136Y-12031428D02*
X16854136Y-12052857D01*
X16854136Y-12052857D02*
X16858421Y-12065714D01*
X16858421Y-12065714D02*
X16866993Y-12074286D01*
X16866993Y-12074286D02*
X16875564Y-12078571D01*
X16875564Y-12078571D02*
X16892707Y-12082857D01*
X16892707Y-12082857D02*
X16905564Y-12082857D01*
X16905564Y-12082857D02*
X16922707Y-12078571D01*
X16922707Y-12078571D02*
X16931279Y-12074286D01*
X16931279Y-12074286D02*
X16939850Y-12065714D01*
X16939850Y-12065714D02*
X16944136Y-12052857D01*
X16944136Y-12052857D02*
X16944136Y-12031428D01*
X16939850Y-12155714D02*
X16944136Y-12147143D01*
X16944136Y-12147143D02*
X16944136Y-12130000D01*
X16944136Y-12130000D02*
X16939850Y-12121428D01*
X16939850Y-12121428D02*
X16931279Y-12117143D01*
X16931279Y-12117143D02*
X16896993Y-12117143D01*
X16896993Y-12117143D02*
X16888421Y-12121428D01*
X16888421Y-12121428D02*
X16884136Y-12130000D01*
X16884136Y-12130000D02*
X16884136Y-12147143D01*
X16884136Y-12147143D02*
X16888421Y-12155714D01*
X16888421Y-12155714D02*
X16896993Y-12160000D01*
X16896993Y-12160000D02*
X16905564Y-12160000D01*
X16905564Y-12160000D02*
X16914136Y-12117143D01*
X16884136Y-12190000D02*
X16944136Y-12211429D01*
X16944136Y-12211429D02*
X16884136Y-12232857D01*
X16939850Y-12301428D02*
X16944136Y-12292857D01*
X16944136Y-12292857D02*
X16944136Y-12275714D01*
X16944136Y-12275714D02*
X16939850Y-12267143D01*
X16939850Y-12267143D02*
X16931279Y-12262857D01*
X16931279Y-12262857D02*
X16896993Y-12262857D01*
X16896993Y-12262857D02*
X16888421Y-12267143D01*
X16888421Y-12267143D02*
X16884136Y-12275714D01*
X16884136Y-12275714D02*
X16884136Y-12292857D01*
X16884136Y-12292857D02*
X16888421Y-12301428D01*
X16888421Y-12301428D02*
X16896993Y-12305714D01*
X16896993Y-12305714D02*
X16905564Y-12305714D01*
X16905564Y-12305714D02*
X16914136Y-12262857D01*
X16944136Y-12357143D02*
X16939850Y-12348571D01*
X16939850Y-12348571D02*
X16931279Y-12344286D01*
X16931279Y-12344286D02*
X16854136Y-12344286D01*
X16944136Y-12404286D02*
X16939850Y-12395714D01*
X16939850Y-12395714D02*
X16935564Y-12391429D01*
X16935564Y-12391429D02*
X16926993Y-12387143D01*
X16926993Y-12387143D02*
X16901279Y-12387143D01*
X16901279Y-12387143D02*
X16892707Y-12391429D01*
X16892707Y-12391429D02*
X16888421Y-12395714D01*
X16888421Y-12395714D02*
X16884136Y-12404286D01*
X16884136Y-12404286D02*
X16884136Y-12417143D01*
X16884136Y-12417143D02*
X16888421Y-12425714D01*
X16888421Y-12425714D02*
X16892707Y-12430000D01*
X16892707Y-12430000D02*
X16901279Y-12434286D01*
X16901279Y-12434286D02*
X16926993Y-12434286D01*
X16926993Y-12434286D02*
X16935564Y-12430000D01*
X16935564Y-12430000D02*
X16939850Y-12425714D01*
X16939850Y-12425714D02*
X16944136Y-12417143D01*
X16944136Y-12417143D02*
X16944136Y-12404286D01*
X16884136Y-12472857D02*
X16974136Y-12472857D01*
X16888421Y-12472857D02*
X16884136Y-12481429D01*
X16884136Y-12481429D02*
X16884136Y-12498571D01*
X16884136Y-12498571D02*
X16888421Y-12507143D01*
X16888421Y-12507143D02*
X16892707Y-12511429D01*
X16892707Y-12511429D02*
X16901279Y-12515714D01*
X16901279Y-12515714D02*
X16926993Y-12515714D01*
X16926993Y-12515714D02*
X16935564Y-12511429D01*
X16935564Y-12511429D02*
X16939850Y-12507143D01*
X16939850Y-12507143D02*
X16944136Y-12498571D01*
X16944136Y-12498571D02*
X16944136Y-12481429D01*
X16944136Y-12481429D02*
X16939850Y-12472857D01*
X16939850Y-12588571D02*
X16944136Y-12580000D01*
X16944136Y-12580000D02*
X16944136Y-12562857D01*
X16944136Y-12562857D02*
X16939850Y-12554286D01*
X16939850Y-12554286D02*
X16931279Y-12550000D01*
X16931279Y-12550000D02*
X16896993Y-12550000D01*
X16896993Y-12550000D02*
X16888421Y-12554286D01*
X16888421Y-12554286D02*
X16884136Y-12562857D01*
X16884136Y-12562857D02*
X16884136Y-12580000D01*
X16884136Y-12580000D02*
X16888421Y-12588571D01*
X16888421Y-12588571D02*
X16896993Y-12592857D01*
X16896993Y-12592857D02*
X16905564Y-12592857D01*
X16905564Y-12592857D02*
X16914136Y-12550000D01*
X16944136Y-12670000D02*
X16854136Y-12670000D01*
X16939850Y-12670000D02*
X16944136Y-12661429D01*
X16944136Y-12661429D02*
X16944136Y-12644286D01*
X16944136Y-12644286D02*
X16939850Y-12635714D01*
X16939850Y-12635714D02*
X16935564Y-12631429D01*
X16935564Y-12631429D02*
X16926993Y-12627143D01*
X16926993Y-12627143D02*
X16901279Y-12627143D01*
X16901279Y-12627143D02*
X16892707Y-12631429D01*
X16892707Y-12631429D02*
X16888421Y-12635714D01*
X16888421Y-12635714D02*
X16884136Y-12644286D01*
X16884136Y-12644286D02*
X16884136Y-12661429D01*
X16884136Y-12661429D02*
X16888421Y-12670000D01*
X16944136Y-12781429D02*
X16854136Y-12781429D01*
X16888421Y-12781429D02*
X16884136Y-12790000D01*
X16884136Y-12790000D02*
X16884136Y-12807143D01*
X16884136Y-12807143D02*
X16888421Y-12815714D01*
X16888421Y-12815714D02*
X16892707Y-12820000D01*
X16892707Y-12820000D02*
X16901279Y-12824286D01*
X16901279Y-12824286D02*
X16926993Y-12824286D01*
X16926993Y-12824286D02*
X16935564Y-12820000D01*
X16935564Y-12820000D02*
X16939850Y-12815714D01*
X16939850Y-12815714D02*
X16944136Y-12807143D01*
X16944136Y-12807143D02*
X16944136Y-12790000D01*
X16944136Y-12790000D02*
X16939850Y-12781429D01*
X16884136Y-12854286D02*
X16944136Y-12875714D01*
X16884136Y-12897143D02*
X16944136Y-12875714D01*
X16944136Y-12875714D02*
X16965564Y-12867143D01*
X16965564Y-12867143D02*
X16969850Y-12862857D01*
X16969850Y-12862857D02*
X16974136Y-12854286D01*
X16918421Y-12995714D02*
X16918421Y-13038572D01*
X16944136Y-12987143D02*
X16854136Y-13017143D01*
X16854136Y-13017143D02*
X16944136Y-13047143D01*
X16935564Y-13077143D02*
X16939850Y-13081429D01*
X16939850Y-13081429D02*
X16944136Y-13077143D01*
X16944136Y-13077143D02*
X16939850Y-13072857D01*
X16939850Y-13072857D02*
X16935564Y-13077143D01*
X16935564Y-13077143D02*
X16944136Y-13077143D01*
X16944136Y-13188571D02*
X16854136Y-13188571D01*
X16884136Y-13222857D02*
X16944136Y-13244286D01*
X16944136Y-13244286D02*
X16884136Y-13265714D01*
X16944136Y-13338571D02*
X16896993Y-13338571D01*
X16896993Y-13338571D02*
X16888421Y-13334286D01*
X16888421Y-13334286D02*
X16884136Y-13325714D01*
X16884136Y-13325714D02*
X16884136Y-13308571D01*
X16884136Y-13308571D02*
X16888421Y-13300000D01*
X16939850Y-13338571D02*
X16944136Y-13330000D01*
X16944136Y-13330000D02*
X16944136Y-13308571D01*
X16944136Y-13308571D02*
X16939850Y-13300000D01*
X16939850Y-13300000D02*
X16931279Y-13295714D01*
X16931279Y-13295714D02*
X16922707Y-13295714D01*
X16922707Y-13295714D02*
X16914136Y-13300000D01*
X16914136Y-13300000D02*
X16909850Y-13308571D01*
X16909850Y-13308571D02*
X16909850Y-13330000D01*
X16909850Y-13330000D02*
X16905564Y-13338571D01*
X16884136Y-13381429D02*
X16944136Y-13381429D01*
X16892707Y-13381429D02*
X16888421Y-13385714D01*
X16888421Y-13385714D02*
X16884136Y-13394286D01*
X16884136Y-13394286D02*
X16884136Y-13407143D01*
X16884136Y-13407143D02*
X16888421Y-13415714D01*
X16888421Y-13415714D02*
X16896993Y-13420000D01*
X16896993Y-13420000D02*
X16944136Y-13420000D01*
X16944136Y-13475714D02*
X16939850Y-13467143D01*
X16939850Y-13467143D02*
X16935564Y-13462857D01*
X16935564Y-13462857D02*
X16926993Y-13458571D01*
X16926993Y-13458571D02*
X16901279Y-13458571D01*
X16901279Y-13458571D02*
X16892707Y-13462857D01*
X16892707Y-13462857D02*
X16888421Y-13467143D01*
X16888421Y-13467143D02*
X16884136Y-13475714D01*
X16884136Y-13475714D02*
X16884136Y-13488571D01*
X16884136Y-13488571D02*
X16888421Y-13497143D01*
X16888421Y-13497143D02*
X16892707Y-13501429D01*
X16892707Y-13501429D02*
X16901279Y-13505714D01*
X16901279Y-13505714D02*
X16926993Y-13505714D01*
X16926993Y-13505714D02*
X16935564Y-13501429D01*
X16935564Y-13501429D02*
X16939850Y-13497143D01*
X16939850Y-13497143D02*
X16944136Y-13488571D01*
X16944136Y-13488571D02*
X16944136Y-13475714D01*
X16884136Y-13535714D02*
X16944136Y-13557143D01*
X16944136Y-13557143D02*
X16884136Y-13578571D01*
X16999936Y-12048571D02*
X16999936Y-12057143D01*
X16999936Y-12057143D02*
X17004221Y-12065714D01*
X17004221Y-12065714D02*
X17008507Y-12070000D01*
X17008507Y-12070000D02*
X17017079Y-12074286D01*
X17017079Y-12074286D02*
X17034221Y-12078571D01*
X17034221Y-12078571D02*
X17055650Y-12078571D01*
X17055650Y-12078571D02*
X17072793Y-12074286D01*
X17072793Y-12074286D02*
X17081364Y-12070000D01*
X17081364Y-12070000D02*
X17085650Y-12065714D01*
X17085650Y-12065714D02*
X17089936Y-12057143D01*
X17089936Y-12057143D02*
X17089936Y-12048571D01*
X17089936Y-12048571D02*
X17085650Y-12040000D01*
X17085650Y-12040000D02*
X17081364Y-12035714D01*
X17081364Y-12035714D02*
X17072793Y-12031428D01*
X17072793Y-12031428D02*
X17055650Y-12027143D01*
X17055650Y-12027143D02*
X17034221Y-12027143D01*
X17034221Y-12027143D02*
X17017079Y-12031428D01*
X17017079Y-12031428D02*
X17008507Y-12035714D01*
X17008507Y-12035714D02*
X17004221Y-12040000D01*
X17004221Y-12040000D02*
X16999936Y-12048571D01*
X17029936Y-12155714D02*
X17089936Y-12155714D01*
X16995650Y-12134286D02*
X17059936Y-12112857D01*
X17059936Y-12112857D02*
X17059936Y-12168571D01*
X17081364Y-12202857D02*
X17085650Y-12207143D01*
X17085650Y-12207143D02*
X17089936Y-12202857D01*
X17089936Y-12202857D02*
X17085650Y-12198571D01*
X17085650Y-12198571D02*
X17081364Y-12202857D01*
X17081364Y-12202857D02*
X17089936Y-12202857D01*
X16999936Y-12262857D02*
X16999936Y-12271428D01*
X16999936Y-12271428D02*
X17004221Y-12280000D01*
X17004221Y-12280000D02*
X17008507Y-12284286D01*
X17008507Y-12284286D02*
X17017079Y-12288571D01*
X17017079Y-12288571D02*
X17034221Y-12292857D01*
X17034221Y-12292857D02*
X17055650Y-12292857D01*
X17055650Y-12292857D02*
X17072793Y-12288571D01*
X17072793Y-12288571D02*
X17081364Y-12284286D01*
X17081364Y-12284286D02*
X17085650Y-12280000D01*
X17085650Y-12280000D02*
X17089936Y-12271428D01*
X17089936Y-12271428D02*
X17089936Y-12262857D01*
X17089936Y-12262857D02*
X17085650Y-12254286D01*
X17085650Y-12254286D02*
X17081364Y-12250000D01*
X17081364Y-12250000D02*
X17072793Y-12245714D01*
X17072793Y-12245714D02*
X17055650Y-12241428D01*
X17055650Y-12241428D02*
X17034221Y-12241428D01*
X17034221Y-12241428D02*
X17017079Y-12245714D01*
X17017079Y-12245714D02*
X17008507Y-12250000D01*
X17008507Y-12250000D02*
X17004221Y-12254286D01*
X17004221Y-12254286D02*
X16999936Y-12262857D01*
X16999936Y-12322857D02*
X16999936Y-12382857D01*
X16999936Y-12382857D02*
X17089936Y-12344286D01*
X17081364Y-12417143D02*
X17085650Y-12421428D01*
X17085650Y-12421428D02*
X17089936Y-12417143D01*
X17089936Y-12417143D02*
X17085650Y-12412857D01*
X17085650Y-12412857D02*
X17081364Y-12417143D01*
X17081364Y-12417143D02*
X17089936Y-12417143D01*
X17008507Y-12455714D02*
X17004221Y-12460000D01*
X17004221Y-12460000D02*
X16999936Y-12468571D01*
X16999936Y-12468571D02*
X16999936Y-12490000D01*
X16999936Y-12490000D02*
X17004221Y-12498571D01*
X17004221Y-12498571D02*
X17008507Y-12502857D01*
X17008507Y-12502857D02*
X17017079Y-12507143D01*
X17017079Y-12507143D02*
X17025650Y-12507143D01*
X17025650Y-12507143D02*
X17038507Y-12502857D01*
X17038507Y-12502857D02*
X17089936Y-12451428D01*
X17089936Y-12451428D02*
X17089936Y-12507143D01*
X16999936Y-12562857D02*
X16999936Y-12571428D01*
X16999936Y-12571428D02*
X17004221Y-12580000D01*
X17004221Y-12580000D02*
X17008507Y-12584286D01*
X17008507Y-12584286D02*
X17017079Y-12588571D01*
X17017079Y-12588571D02*
X17034221Y-12592857D01*
X17034221Y-12592857D02*
X17055650Y-12592857D01*
X17055650Y-12592857D02*
X17072793Y-12588571D01*
X17072793Y-12588571D02*
X17081364Y-12584286D01*
X17081364Y-12584286D02*
X17085650Y-12580000D01*
X17085650Y-12580000D02*
X17089936Y-12571428D01*
X17089936Y-12571428D02*
X17089936Y-12562857D01*
X17089936Y-12562857D02*
X17085650Y-12554286D01*
X17085650Y-12554286D02*
X17081364Y-12550000D01*
X17081364Y-12550000D02*
X17072793Y-12545714D01*
X17072793Y-12545714D02*
X17055650Y-12541428D01*
X17055650Y-12541428D02*
X17034221Y-12541428D01*
X17034221Y-12541428D02*
X17017079Y-12545714D01*
X17017079Y-12545714D02*
X17008507Y-12550000D01*
X17008507Y-12550000D02*
X17004221Y-12554286D01*
X17004221Y-12554286D02*
X16999936Y-12562857D01*
X17008507Y-12627143D02*
X17004221Y-12631428D01*
X17004221Y-12631428D02*
X16999936Y-12640000D01*
X16999936Y-12640000D02*
X16999936Y-12661428D01*
X16999936Y-12661428D02*
X17004221Y-12670000D01*
X17004221Y-12670000D02*
X17008507Y-12674286D01*
X17008507Y-12674286D02*
X17017079Y-12678571D01*
X17017079Y-12678571D02*
X17025650Y-12678571D01*
X17025650Y-12678571D02*
X17038507Y-12674286D01*
X17038507Y-12674286D02*
X17089936Y-12622857D01*
X17089936Y-12622857D02*
X17089936Y-12678571D01*
X16999936Y-12708571D02*
X16999936Y-12764286D01*
X16999936Y-12764286D02*
X17034221Y-12734286D01*
X17034221Y-12734286D02*
X17034221Y-12747143D01*
X17034221Y-12747143D02*
X17038507Y-12755714D01*
X17038507Y-12755714D02*
X17042793Y-12760000D01*
X17042793Y-12760000D02*
X17051364Y-12764286D01*
X17051364Y-12764286D02*
X17072793Y-12764286D01*
X17072793Y-12764286D02*
X17081364Y-12760000D01*
X17081364Y-12760000D02*
X17085650Y-12755714D01*
X17085650Y-12755714D02*
X17089936Y-12747143D01*
X17089936Y-12747143D02*
X17089936Y-12721428D01*
X17089936Y-12721428D02*
X17085650Y-12712857D01*
X17085650Y-12712857D02*
X17081364Y-12708571D01*
D14*
%TO.C,R13*%
X16701786Y-11186262D02*
X16735119Y-11138643D01*
X16758928Y-11186262D02*
X16758928Y-11086262D01*
X16758928Y-11086262D02*
X16720833Y-11086262D01*
X16720833Y-11086262D02*
X16711309Y-11091024D01*
X16711309Y-11091024D02*
X16706548Y-11095786D01*
X16706548Y-11095786D02*
X16701786Y-11105310D01*
X16701786Y-11105310D02*
X16701786Y-11119595D01*
X16701786Y-11119595D02*
X16706548Y-11129119D01*
X16706548Y-11129119D02*
X16711309Y-11133881D01*
X16711309Y-11133881D02*
X16720833Y-11138643D01*
X16720833Y-11138643D02*
X16758928Y-11138643D01*
X16606548Y-11186262D02*
X16663690Y-11186262D01*
X16635119Y-11186262D02*
X16635119Y-11086262D01*
X16635119Y-11086262D02*
X16644643Y-11100548D01*
X16644643Y-11100548D02*
X16654167Y-11110071D01*
X16654167Y-11110071D02*
X16663690Y-11114833D01*
X16573214Y-11086262D02*
X16511309Y-11086262D01*
X16511309Y-11086262D02*
X16544643Y-11124357D01*
X16544643Y-11124357D02*
X16530357Y-11124357D01*
X16530357Y-11124357D02*
X16520833Y-11129119D01*
X16520833Y-11129119D02*
X16516071Y-11133881D01*
X16516071Y-11133881D02*
X16511309Y-11143405D01*
X16511309Y-11143405D02*
X16511309Y-11167214D01*
X16511309Y-11167214D02*
X16516071Y-11176738D01*
X16516071Y-11176738D02*
X16520833Y-11181500D01*
X16520833Y-11181500D02*
X16530357Y-11186262D01*
X16530357Y-11186262D02*
X16558928Y-11186262D01*
X16558928Y-11186262D02*
X16568452Y-11181500D01*
X16568452Y-11181500D02*
X16573214Y-11176738D01*
%TO.C,C2*%
X13038738Y-15225833D02*
X13043500Y-15221071D01*
X13043500Y-15221071D02*
X13048262Y-15206786D01*
X13048262Y-15206786D02*
X13048262Y-15197262D01*
X13048262Y-15197262D02*
X13043500Y-15182976D01*
X13043500Y-15182976D02*
X13033976Y-15173452D01*
X13033976Y-15173452D02*
X13024452Y-15168690D01*
X13024452Y-15168690D02*
X13005405Y-15163929D01*
X13005405Y-15163929D02*
X12991119Y-15163929D01*
X12991119Y-15163929D02*
X12972071Y-15168690D01*
X12972071Y-15168690D02*
X12962548Y-15173452D01*
X12962548Y-15173452D02*
X12953024Y-15182976D01*
X12953024Y-15182976D02*
X12948262Y-15197262D01*
X12948262Y-15197262D02*
X12948262Y-15206786D01*
X12948262Y-15206786D02*
X12953024Y-15221071D01*
X12953024Y-15221071D02*
X12957786Y-15225833D01*
X12957786Y-15263929D02*
X12953024Y-15268690D01*
X12953024Y-15268690D02*
X12948262Y-15278214D01*
X12948262Y-15278214D02*
X12948262Y-15302024D01*
X12948262Y-15302024D02*
X12953024Y-15311548D01*
X12953024Y-15311548D02*
X12957786Y-15316309D01*
X12957786Y-15316309D02*
X12967309Y-15321071D01*
X12967309Y-15321071D02*
X12976833Y-15321071D01*
X12976833Y-15321071D02*
X12991119Y-15316309D01*
X12991119Y-15316309D02*
X13048262Y-15259167D01*
X13048262Y-15259167D02*
X13048262Y-15321071D01*
%TO.C,R6*%
X14259167Y-9531262D02*
X14292500Y-9483643D01*
X14316309Y-9531262D02*
X14316309Y-9431262D01*
X14316309Y-9431262D02*
X14278214Y-9431262D01*
X14278214Y-9431262D02*
X14268690Y-9436024D01*
X14268690Y-9436024D02*
X14263928Y-9440786D01*
X14263928Y-9440786D02*
X14259167Y-9450310D01*
X14259167Y-9450310D02*
X14259167Y-9464595D01*
X14259167Y-9464595D02*
X14263928Y-9474119D01*
X14263928Y-9474119D02*
X14268690Y-9478881D01*
X14268690Y-9478881D02*
X14278214Y-9483643D01*
X14278214Y-9483643D02*
X14316309Y-9483643D01*
X14173452Y-9431262D02*
X14192500Y-9431262D01*
X14192500Y-9431262D02*
X14202024Y-9436024D01*
X14202024Y-9436024D02*
X14206786Y-9440786D01*
X14206786Y-9440786D02*
X14216309Y-9455071D01*
X14216309Y-9455071D02*
X14221071Y-9474119D01*
X14221071Y-9474119D02*
X14221071Y-9512214D01*
X14221071Y-9512214D02*
X14216309Y-9521738D01*
X14216309Y-9521738D02*
X14211547Y-9526500D01*
X14211547Y-9526500D02*
X14202024Y-9531262D01*
X14202024Y-9531262D02*
X14182976Y-9531262D01*
X14182976Y-9531262D02*
X14173452Y-9526500D01*
X14173452Y-9526500D02*
X14168690Y-9521738D01*
X14168690Y-9521738D02*
X14163928Y-9512214D01*
X14163928Y-9512214D02*
X14163928Y-9488405D01*
X14163928Y-9488405D02*
X14168690Y-9478881D01*
X14168690Y-9478881D02*
X14173452Y-9474119D01*
X14173452Y-9474119D02*
X14182976Y-9469357D01*
X14182976Y-9469357D02*
X14202024Y-9469357D01*
X14202024Y-9469357D02*
X14211547Y-9474119D01*
X14211547Y-9474119D02*
X14216309Y-9478881D01*
X14216309Y-9478881D02*
X14221071Y-9488405D01*
%TO.C,C6*%
X15124238Y-9945833D02*
X15129000Y-9941071D01*
X15129000Y-9941071D02*
X15133762Y-9926786D01*
X15133762Y-9926786D02*
X15133762Y-9917262D01*
X15133762Y-9917262D02*
X15129000Y-9902976D01*
X15129000Y-9902976D02*
X15119476Y-9893452D01*
X15119476Y-9893452D02*
X15109952Y-9888691D01*
X15109952Y-9888691D02*
X15090905Y-9883929D01*
X15090905Y-9883929D02*
X15076619Y-9883929D01*
X15076619Y-9883929D02*
X15057571Y-9888691D01*
X15057571Y-9888691D02*
X15048048Y-9893452D01*
X15048048Y-9893452D02*
X15038524Y-9902976D01*
X15038524Y-9902976D02*
X15033762Y-9917262D01*
X15033762Y-9917262D02*
X15033762Y-9926786D01*
X15033762Y-9926786D02*
X15038524Y-9941071D01*
X15038524Y-9941071D02*
X15043286Y-9945833D01*
X15033762Y-10031548D02*
X15033762Y-10012500D01*
X15033762Y-10012500D02*
X15038524Y-10002976D01*
X15038524Y-10002976D02*
X15043286Y-9998214D01*
X15043286Y-9998214D02*
X15057571Y-9988691D01*
X15057571Y-9988691D02*
X15076619Y-9983929D01*
X15076619Y-9983929D02*
X15114714Y-9983929D01*
X15114714Y-9983929D02*
X15124238Y-9988691D01*
X15124238Y-9988691D02*
X15129000Y-9993452D01*
X15129000Y-9993452D02*
X15133762Y-10002976D01*
X15133762Y-10002976D02*
X15133762Y-10022024D01*
X15133762Y-10022024D02*
X15129000Y-10031548D01*
X15129000Y-10031548D02*
X15124238Y-10036310D01*
X15124238Y-10036310D02*
X15114714Y-10041071D01*
X15114714Y-10041071D02*
X15090905Y-10041071D01*
X15090905Y-10041071D02*
X15081381Y-10036310D01*
X15081381Y-10036310D02*
X15076619Y-10031548D01*
X15076619Y-10031548D02*
X15071857Y-10022024D01*
X15071857Y-10022024D02*
X15071857Y-10002976D01*
X15071857Y-10002976D02*
X15076619Y-9993452D01*
X15076619Y-9993452D02*
X15081381Y-9988691D01*
X15081381Y-9988691D02*
X15090905Y-9983929D01*
%TO.C,R19*%
X15386262Y-11403214D02*
X15338643Y-11369881D01*
X15386262Y-11346071D02*
X15286262Y-11346071D01*
X15286262Y-11346071D02*
X15286262Y-11384167D01*
X15286262Y-11384167D02*
X15291024Y-11393690D01*
X15291024Y-11393690D02*
X15295786Y-11398452D01*
X15295786Y-11398452D02*
X15305309Y-11403214D01*
X15305309Y-11403214D02*
X15319595Y-11403214D01*
X15319595Y-11403214D02*
X15329119Y-11398452D01*
X15329119Y-11398452D02*
X15333881Y-11393690D01*
X15333881Y-11393690D02*
X15338643Y-11384167D01*
X15338643Y-11384167D02*
X15338643Y-11346071D01*
X15386262Y-11498452D02*
X15386262Y-11441309D01*
X15386262Y-11469881D02*
X15286262Y-11469881D01*
X15286262Y-11469881D02*
X15300548Y-11460357D01*
X15300548Y-11460357D02*
X15310071Y-11450833D01*
X15310071Y-11450833D02*
X15314833Y-11441309D01*
X15386262Y-11546071D02*
X15386262Y-11565119D01*
X15386262Y-11565119D02*
X15381500Y-11574643D01*
X15381500Y-11574643D02*
X15376738Y-11579405D01*
X15376738Y-11579405D02*
X15362452Y-11588928D01*
X15362452Y-11588928D02*
X15343405Y-11593690D01*
X15343405Y-11593690D02*
X15305309Y-11593690D01*
X15305309Y-11593690D02*
X15295786Y-11588928D01*
X15295786Y-11588928D02*
X15291024Y-11584167D01*
X15291024Y-11584167D02*
X15286262Y-11574643D01*
X15286262Y-11574643D02*
X15286262Y-11555595D01*
X15286262Y-11555595D02*
X15291024Y-11546071D01*
X15291024Y-11546071D02*
X15295786Y-11541309D01*
X15295786Y-11541309D02*
X15305309Y-11536548D01*
X15305309Y-11536548D02*
X15329119Y-11536548D01*
X15329119Y-11536548D02*
X15338643Y-11541309D01*
X15338643Y-11541309D02*
X15343405Y-11546071D01*
X15343405Y-11546071D02*
X15348167Y-11555595D01*
X15348167Y-11555595D02*
X15348167Y-11574643D01*
X15348167Y-11574643D02*
X15343405Y-11584167D01*
X15343405Y-11584167D02*
X15338643Y-11588928D01*
X15338643Y-11588928D02*
X15329119Y-11593690D01*
%TO.C,R4*%
X15903762Y-10543333D02*
X15856143Y-10510000D01*
X15903762Y-10486191D02*
X15803762Y-10486191D01*
X15803762Y-10486191D02*
X15803762Y-10524286D01*
X15803762Y-10524286D02*
X15808524Y-10533810D01*
X15808524Y-10533810D02*
X15813286Y-10538571D01*
X15813286Y-10538571D02*
X15822809Y-10543333D01*
X15822809Y-10543333D02*
X15837095Y-10543333D01*
X15837095Y-10543333D02*
X15846619Y-10538571D01*
X15846619Y-10538571D02*
X15851381Y-10533810D01*
X15851381Y-10533810D02*
X15856143Y-10524286D01*
X15856143Y-10524286D02*
X15856143Y-10486191D01*
X15837095Y-10629048D02*
X15903762Y-10629048D01*
X15799000Y-10605238D02*
X15870428Y-10581429D01*
X15870428Y-10581429D02*
X15870428Y-10643333D01*
%TO.C,C9*%
X14921518Y-9102173D02*
X14926280Y-9097411D01*
X14926280Y-9097411D02*
X14931042Y-9083126D01*
X14931042Y-9083126D02*
X14931042Y-9073602D01*
X14931042Y-9073602D02*
X14926280Y-9059316D01*
X14926280Y-9059316D02*
X14916756Y-9049792D01*
X14916756Y-9049792D02*
X14907232Y-9045031D01*
X14907232Y-9045031D02*
X14888185Y-9040269D01*
X14888185Y-9040269D02*
X14873899Y-9040269D01*
X14873899Y-9040269D02*
X14854851Y-9045031D01*
X14854851Y-9045031D02*
X14845328Y-9049792D01*
X14845328Y-9049792D02*
X14835804Y-9059316D01*
X14835804Y-9059316D02*
X14831042Y-9073602D01*
X14831042Y-9073602D02*
X14831042Y-9083126D01*
X14831042Y-9083126D02*
X14835804Y-9097411D01*
X14835804Y-9097411D02*
X14840566Y-9102173D01*
X14931042Y-9149792D02*
X14931042Y-9168840D01*
X14931042Y-9168840D02*
X14926280Y-9178364D01*
X14926280Y-9178364D02*
X14921518Y-9183126D01*
X14921518Y-9183126D02*
X14907232Y-9192650D01*
X14907232Y-9192650D02*
X14888185Y-9197411D01*
X14888185Y-9197411D02*
X14850089Y-9197411D01*
X14850089Y-9197411D02*
X14840566Y-9192650D01*
X14840566Y-9192650D02*
X14835804Y-9187888D01*
X14835804Y-9187888D02*
X14831042Y-9178364D01*
X14831042Y-9178364D02*
X14831042Y-9159316D01*
X14831042Y-9159316D02*
X14835804Y-9149792D01*
X14835804Y-9149792D02*
X14840566Y-9145031D01*
X14840566Y-9145031D02*
X14850089Y-9140269D01*
X14850089Y-9140269D02*
X14873899Y-9140269D01*
X14873899Y-9140269D02*
X14883423Y-9145031D01*
X14883423Y-9145031D02*
X14888185Y-9149792D01*
X14888185Y-9149792D02*
X14892947Y-9159316D01*
X14892947Y-9159316D02*
X14892947Y-9178364D01*
X14892947Y-9178364D02*
X14888185Y-9187888D01*
X14888185Y-9187888D02*
X14883423Y-9192650D01*
X14883423Y-9192650D02*
X14873899Y-9197411D01*
%TO.C,R17*%
X13851262Y-11025714D02*
X13803643Y-10992381D01*
X13851262Y-10968571D02*
X13751262Y-10968571D01*
X13751262Y-10968571D02*
X13751262Y-11006667D01*
X13751262Y-11006667D02*
X13756024Y-11016190D01*
X13756024Y-11016190D02*
X13760786Y-11020952D01*
X13760786Y-11020952D02*
X13770309Y-11025714D01*
X13770309Y-11025714D02*
X13784595Y-11025714D01*
X13784595Y-11025714D02*
X13794119Y-11020952D01*
X13794119Y-11020952D02*
X13798881Y-11016190D01*
X13798881Y-11016190D02*
X13803643Y-11006667D01*
X13803643Y-11006667D02*
X13803643Y-10968571D01*
X13851262Y-11120952D02*
X13851262Y-11063810D01*
X13851262Y-11092381D02*
X13751262Y-11092381D01*
X13751262Y-11092381D02*
X13765548Y-11082857D01*
X13765548Y-11082857D02*
X13775071Y-11073333D01*
X13775071Y-11073333D02*
X13779833Y-11063810D01*
X13751262Y-11154286D02*
X13751262Y-11220952D01*
X13751262Y-11220952D02*
X13851262Y-11178095D01*
%TO.C,C10*%
X13269286Y-9804238D02*
X13274048Y-9809000D01*
X13274048Y-9809000D02*
X13288333Y-9813762D01*
X13288333Y-9813762D02*
X13297857Y-9813762D01*
X13297857Y-9813762D02*
X13312143Y-9809000D01*
X13312143Y-9809000D02*
X13321667Y-9799476D01*
X13321667Y-9799476D02*
X13326428Y-9789952D01*
X13326428Y-9789952D02*
X13331190Y-9770905D01*
X13331190Y-9770905D02*
X13331190Y-9756619D01*
X13331190Y-9756619D02*
X13326428Y-9737571D01*
X13326428Y-9737571D02*
X13321667Y-9728048D01*
X13321667Y-9728048D02*
X13312143Y-9718524D01*
X13312143Y-9718524D02*
X13297857Y-9713762D01*
X13297857Y-9713762D02*
X13288333Y-9713762D01*
X13288333Y-9713762D02*
X13274048Y-9718524D01*
X13274048Y-9718524D02*
X13269286Y-9723286D01*
X13174048Y-9813762D02*
X13231190Y-9813762D01*
X13202619Y-9813762D02*
X13202619Y-9713762D01*
X13202619Y-9713762D02*
X13212143Y-9728048D01*
X13212143Y-9728048D02*
X13221667Y-9737571D01*
X13221667Y-9737571D02*
X13231190Y-9742333D01*
X13112143Y-9713762D02*
X13102619Y-9713762D01*
X13102619Y-9713762D02*
X13093095Y-9718524D01*
X13093095Y-9718524D02*
X13088333Y-9723286D01*
X13088333Y-9723286D02*
X13083571Y-9732810D01*
X13083571Y-9732810D02*
X13078809Y-9751857D01*
X13078809Y-9751857D02*
X13078809Y-9775667D01*
X13078809Y-9775667D02*
X13083571Y-9794714D01*
X13083571Y-9794714D02*
X13088333Y-9804238D01*
X13088333Y-9804238D02*
X13093095Y-9809000D01*
X13093095Y-9809000D02*
X13102619Y-9813762D01*
X13102619Y-9813762D02*
X13112143Y-9813762D01*
X13112143Y-9813762D02*
X13121667Y-9809000D01*
X13121667Y-9809000D02*
X13126428Y-9804238D01*
X13126428Y-9804238D02*
X13131190Y-9794714D01*
X13131190Y-9794714D02*
X13135952Y-9775667D01*
X13135952Y-9775667D02*
X13135952Y-9751857D01*
X13135952Y-9751857D02*
X13131190Y-9732810D01*
X13131190Y-9732810D02*
X13126428Y-9723286D01*
X13126428Y-9723286D02*
X13121667Y-9718524D01*
X13121667Y-9718524D02*
X13112143Y-9713762D01*
%TO.C,R11*%
X16704286Y-10418762D02*
X16737619Y-10371143D01*
X16761428Y-10418762D02*
X16761428Y-10318762D01*
X16761428Y-10318762D02*
X16723333Y-10318762D01*
X16723333Y-10318762D02*
X16713809Y-10323524D01*
X16713809Y-10323524D02*
X16709048Y-10328286D01*
X16709048Y-10328286D02*
X16704286Y-10337810D01*
X16704286Y-10337810D02*
X16704286Y-10352095D01*
X16704286Y-10352095D02*
X16709048Y-10361619D01*
X16709048Y-10361619D02*
X16713809Y-10366381D01*
X16713809Y-10366381D02*
X16723333Y-10371143D01*
X16723333Y-10371143D02*
X16761428Y-10371143D01*
X16609048Y-10418762D02*
X16666190Y-10418762D01*
X16637619Y-10418762D02*
X16637619Y-10318762D01*
X16637619Y-10318762D02*
X16647143Y-10333048D01*
X16647143Y-10333048D02*
X16656667Y-10342571D01*
X16656667Y-10342571D02*
X16666190Y-10347333D01*
X16513809Y-10418762D02*
X16570952Y-10418762D01*
X16542381Y-10418762D02*
X16542381Y-10318762D01*
X16542381Y-10318762D02*
X16551905Y-10333048D01*
X16551905Y-10333048D02*
X16561428Y-10342571D01*
X16561428Y-10342571D02*
X16570952Y-10347333D01*
%TO.C,R21*%
X15183762Y-11405714D02*
X15136143Y-11372381D01*
X15183762Y-11348571D02*
X15083762Y-11348571D01*
X15083762Y-11348571D02*
X15083762Y-11386667D01*
X15083762Y-11386667D02*
X15088524Y-11396190D01*
X15088524Y-11396190D02*
X15093286Y-11400952D01*
X15093286Y-11400952D02*
X15102809Y-11405714D01*
X15102809Y-11405714D02*
X15117095Y-11405714D01*
X15117095Y-11405714D02*
X15126619Y-11400952D01*
X15126619Y-11400952D02*
X15131381Y-11396190D01*
X15131381Y-11396190D02*
X15136143Y-11386667D01*
X15136143Y-11386667D02*
X15136143Y-11348571D01*
X15093286Y-11443809D02*
X15088524Y-11448571D01*
X15088524Y-11448571D02*
X15083762Y-11458095D01*
X15083762Y-11458095D02*
X15083762Y-11481905D01*
X15083762Y-11481905D02*
X15088524Y-11491428D01*
X15088524Y-11491428D02*
X15093286Y-11496190D01*
X15093286Y-11496190D02*
X15102809Y-11500952D01*
X15102809Y-11500952D02*
X15112333Y-11500952D01*
X15112333Y-11500952D02*
X15126619Y-11496190D01*
X15126619Y-11496190D02*
X15183762Y-11439048D01*
X15183762Y-11439048D02*
X15183762Y-11500952D01*
X15183762Y-11596190D02*
X15183762Y-11539048D01*
X15183762Y-11567619D02*
X15083762Y-11567619D01*
X15083762Y-11567619D02*
X15098048Y-11558095D01*
X15098048Y-11558095D02*
X15107571Y-11548571D01*
X15107571Y-11548571D02*
X15112333Y-11539048D01*
%TO.C,R1*%
X15861667Y-9321262D02*
X15895000Y-9273643D01*
X15918809Y-9321262D02*
X15918809Y-9221262D01*
X15918809Y-9221262D02*
X15880714Y-9221262D01*
X15880714Y-9221262D02*
X15871190Y-9226024D01*
X15871190Y-9226024D02*
X15866428Y-9230786D01*
X15866428Y-9230786D02*
X15861667Y-9240310D01*
X15861667Y-9240310D02*
X15861667Y-9254595D01*
X15861667Y-9254595D02*
X15866428Y-9264119D01*
X15866428Y-9264119D02*
X15871190Y-9268881D01*
X15871190Y-9268881D02*
X15880714Y-9273643D01*
X15880714Y-9273643D02*
X15918809Y-9273643D01*
X15766428Y-9321262D02*
X15823571Y-9321262D01*
X15795000Y-9321262D02*
X15795000Y-9221262D01*
X15795000Y-9221262D02*
X15804524Y-9235548D01*
X15804524Y-9235548D02*
X15814047Y-9245071D01*
X15814047Y-9245071D02*
X15823571Y-9249833D01*
%TO.C,R20*%
X14978762Y-12743214D02*
X14931143Y-12709881D01*
X14978762Y-12686071D02*
X14878762Y-12686071D01*
X14878762Y-12686071D02*
X14878762Y-12724167D01*
X14878762Y-12724167D02*
X14883524Y-12733690D01*
X14883524Y-12733690D02*
X14888286Y-12738452D01*
X14888286Y-12738452D02*
X14897809Y-12743214D01*
X14897809Y-12743214D02*
X14912095Y-12743214D01*
X14912095Y-12743214D02*
X14921619Y-12738452D01*
X14921619Y-12738452D02*
X14926381Y-12733690D01*
X14926381Y-12733690D02*
X14931143Y-12724167D01*
X14931143Y-12724167D02*
X14931143Y-12686071D01*
X14888286Y-12781309D02*
X14883524Y-12786071D01*
X14883524Y-12786071D02*
X14878762Y-12795595D01*
X14878762Y-12795595D02*
X14878762Y-12819405D01*
X14878762Y-12819405D02*
X14883524Y-12828928D01*
X14883524Y-12828928D02*
X14888286Y-12833690D01*
X14888286Y-12833690D02*
X14897809Y-12838452D01*
X14897809Y-12838452D02*
X14907333Y-12838452D01*
X14907333Y-12838452D02*
X14921619Y-12833690D01*
X14921619Y-12833690D02*
X14978762Y-12776548D01*
X14978762Y-12776548D02*
X14978762Y-12838452D01*
X14878762Y-12900357D02*
X14878762Y-12909881D01*
X14878762Y-12909881D02*
X14883524Y-12919405D01*
X14883524Y-12919405D02*
X14888286Y-12924167D01*
X14888286Y-12924167D02*
X14897809Y-12928928D01*
X14897809Y-12928928D02*
X14916857Y-12933690D01*
X14916857Y-12933690D02*
X14940667Y-12933690D01*
X14940667Y-12933690D02*
X14959714Y-12928928D01*
X14959714Y-12928928D02*
X14969238Y-12924167D01*
X14969238Y-12924167D02*
X14974000Y-12919405D01*
X14974000Y-12919405D02*
X14978762Y-12909881D01*
X14978762Y-12909881D02*
X14978762Y-12900357D01*
X14978762Y-12900357D02*
X14974000Y-12890833D01*
X14974000Y-12890833D02*
X14969238Y-12886071D01*
X14969238Y-12886071D02*
X14959714Y-12881309D01*
X14959714Y-12881309D02*
X14940667Y-12876548D01*
X14940667Y-12876548D02*
X14916857Y-12876548D01*
X14916857Y-12876548D02*
X14897809Y-12881309D01*
X14897809Y-12881309D02*
X14888286Y-12886071D01*
X14888286Y-12886071D02*
X14883524Y-12890833D01*
X14883524Y-12890833D02*
X14878762Y-12900357D01*
%TO.C,C24*%
X14104238Y-11148214D02*
X14109000Y-11143452D01*
X14109000Y-11143452D02*
X14113762Y-11129167D01*
X14113762Y-11129167D02*
X14113762Y-11119643D01*
X14113762Y-11119643D02*
X14109000Y-11105357D01*
X14109000Y-11105357D02*
X14099476Y-11095833D01*
X14099476Y-11095833D02*
X14089952Y-11091071D01*
X14089952Y-11091071D02*
X14070905Y-11086310D01*
X14070905Y-11086310D02*
X14056619Y-11086310D01*
X14056619Y-11086310D02*
X14037571Y-11091071D01*
X14037571Y-11091071D02*
X14028048Y-11095833D01*
X14028048Y-11095833D02*
X14018524Y-11105357D01*
X14018524Y-11105357D02*
X14013762Y-11119643D01*
X14013762Y-11119643D02*
X14013762Y-11129167D01*
X14013762Y-11129167D02*
X14018524Y-11143452D01*
X14018524Y-11143452D02*
X14023286Y-11148214D01*
X14023286Y-11186309D02*
X14018524Y-11191071D01*
X14018524Y-11191071D02*
X14013762Y-11200595D01*
X14013762Y-11200595D02*
X14013762Y-11224405D01*
X14013762Y-11224405D02*
X14018524Y-11233928D01*
X14018524Y-11233928D02*
X14023286Y-11238690D01*
X14023286Y-11238690D02*
X14032809Y-11243452D01*
X14032809Y-11243452D02*
X14042333Y-11243452D01*
X14042333Y-11243452D02*
X14056619Y-11238690D01*
X14056619Y-11238690D02*
X14113762Y-11181548D01*
X14113762Y-11181548D02*
X14113762Y-11243452D01*
X14047095Y-11329167D02*
X14113762Y-11329167D01*
X14009000Y-11305357D02*
X14080428Y-11281548D01*
X14080428Y-11281548D02*
X14080428Y-11343452D01*
%TO.C,C13*%
X13289286Y-10446738D02*
X13294048Y-10451500D01*
X13294048Y-10451500D02*
X13308333Y-10456262D01*
X13308333Y-10456262D02*
X13317857Y-10456262D01*
X13317857Y-10456262D02*
X13332143Y-10451500D01*
X13332143Y-10451500D02*
X13341667Y-10441976D01*
X13341667Y-10441976D02*
X13346428Y-10432452D01*
X13346428Y-10432452D02*
X13351190Y-10413405D01*
X13351190Y-10413405D02*
X13351190Y-10399119D01*
X13351190Y-10399119D02*
X13346428Y-10380071D01*
X13346428Y-10380071D02*
X13341667Y-10370548D01*
X13341667Y-10370548D02*
X13332143Y-10361024D01*
X13332143Y-10361024D02*
X13317857Y-10356262D01*
X13317857Y-10356262D02*
X13308333Y-10356262D01*
X13308333Y-10356262D02*
X13294048Y-10361024D01*
X13294048Y-10361024D02*
X13289286Y-10365786D01*
X13194048Y-10456262D02*
X13251190Y-10456262D01*
X13222619Y-10456262D02*
X13222619Y-10356262D01*
X13222619Y-10356262D02*
X13232143Y-10370548D01*
X13232143Y-10370548D02*
X13241667Y-10380071D01*
X13241667Y-10380071D02*
X13251190Y-10384833D01*
X13160714Y-10356262D02*
X13098809Y-10356262D01*
X13098809Y-10356262D02*
X13132143Y-10394357D01*
X13132143Y-10394357D02*
X13117857Y-10394357D01*
X13117857Y-10394357D02*
X13108333Y-10399119D01*
X13108333Y-10399119D02*
X13103571Y-10403881D01*
X13103571Y-10403881D02*
X13098809Y-10413405D01*
X13098809Y-10413405D02*
X13098809Y-10437214D01*
X13098809Y-10437214D02*
X13103571Y-10446738D01*
X13103571Y-10446738D02*
X13108333Y-10451500D01*
X13108333Y-10451500D02*
X13117857Y-10456262D01*
X13117857Y-10456262D02*
X13146428Y-10456262D01*
X13146428Y-10456262D02*
X13155952Y-10451500D01*
X13155952Y-10451500D02*
X13160714Y-10446738D01*
%TO.C,R3*%
X15864167Y-9586262D02*
X15897500Y-9538643D01*
X15921309Y-9586262D02*
X15921309Y-9486262D01*
X15921309Y-9486262D02*
X15883214Y-9486262D01*
X15883214Y-9486262D02*
X15873690Y-9491024D01*
X15873690Y-9491024D02*
X15868928Y-9495786D01*
X15868928Y-9495786D02*
X15864167Y-9505310D01*
X15864167Y-9505310D02*
X15864167Y-9519595D01*
X15864167Y-9519595D02*
X15868928Y-9529119D01*
X15868928Y-9529119D02*
X15873690Y-9533881D01*
X15873690Y-9533881D02*
X15883214Y-9538643D01*
X15883214Y-9538643D02*
X15921309Y-9538643D01*
X15830833Y-9486262D02*
X15768928Y-9486262D01*
X15768928Y-9486262D02*
X15802262Y-9524357D01*
X15802262Y-9524357D02*
X15787976Y-9524357D01*
X15787976Y-9524357D02*
X15778452Y-9529119D01*
X15778452Y-9529119D02*
X15773690Y-9533881D01*
X15773690Y-9533881D02*
X15768928Y-9543405D01*
X15768928Y-9543405D02*
X15768928Y-9567214D01*
X15768928Y-9567214D02*
X15773690Y-9576738D01*
X15773690Y-9576738D02*
X15778452Y-9581500D01*
X15778452Y-9581500D02*
X15787976Y-9586262D01*
X15787976Y-9586262D02*
X15816547Y-9586262D01*
X15816547Y-9586262D02*
X15826071Y-9581500D01*
X15826071Y-9581500D02*
X15830833Y-9576738D01*
%TO.C,R22*%
X14639286Y-12523762D02*
X14672619Y-12476143D01*
X14696428Y-12523762D02*
X14696428Y-12423762D01*
X14696428Y-12423762D02*
X14658333Y-12423762D01*
X14658333Y-12423762D02*
X14648809Y-12428524D01*
X14648809Y-12428524D02*
X14644048Y-12433286D01*
X14644048Y-12433286D02*
X14639286Y-12442809D01*
X14639286Y-12442809D02*
X14639286Y-12457095D01*
X14639286Y-12457095D02*
X14644048Y-12466619D01*
X14644048Y-12466619D02*
X14648809Y-12471381D01*
X14648809Y-12471381D02*
X14658333Y-12476143D01*
X14658333Y-12476143D02*
X14696428Y-12476143D01*
X14601190Y-12433286D02*
X14596428Y-12428524D01*
X14596428Y-12428524D02*
X14586905Y-12423762D01*
X14586905Y-12423762D02*
X14563095Y-12423762D01*
X14563095Y-12423762D02*
X14553571Y-12428524D01*
X14553571Y-12428524D02*
X14548809Y-12433286D01*
X14548809Y-12433286D02*
X14544048Y-12442809D01*
X14544048Y-12442809D02*
X14544048Y-12452333D01*
X14544048Y-12452333D02*
X14548809Y-12466619D01*
X14548809Y-12466619D02*
X14605952Y-12523762D01*
X14605952Y-12523762D02*
X14544048Y-12523762D01*
X14505952Y-12433286D02*
X14501190Y-12428524D01*
X14501190Y-12428524D02*
X14491667Y-12423762D01*
X14491667Y-12423762D02*
X14467857Y-12423762D01*
X14467857Y-12423762D02*
X14458333Y-12428524D01*
X14458333Y-12428524D02*
X14453571Y-12433286D01*
X14453571Y-12433286D02*
X14448809Y-12442809D01*
X14448809Y-12442809D02*
X14448809Y-12452333D01*
X14448809Y-12452333D02*
X14453571Y-12466619D01*
X14453571Y-12466619D02*
X14510714Y-12523762D01*
X14510714Y-12523762D02*
X14448809Y-12523762D01*
%TO.C,R5*%
X14264167Y-9753762D02*
X14297500Y-9706143D01*
X14321309Y-9753762D02*
X14321309Y-9653762D01*
X14321309Y-9653762D02*
X14283214Y-9653762D01*
X14283214Y-9653762D02*
X14273690Y-9658524D01*
X14273690Y-9658524D02*
X14268928Y-9663286D01*
X14268928Y-9663286D02*
X14264167Y-9672810D01*
X14264167Y-9672810D02*
X14264167Y-9687095D01*
X14264167Y-9687095D02*
X14268928Y-9696619D01*
X14268928Y-9696619D02*
X14273690Y-9701381D01*
X14273690Y-9701381D02*
X14283214Y-9706143D01*
X14283214Y-9706143D02*
X14321309Y-9706143D01*
X14173690Y-9653762D02*
X14221309Y-9653762D01*
X14221309Y-9653762D02*
X14226071Y-9701381D01*
X14226071Y-9701381D02*
X14221309Y-9696619D01*
X14221309Y-9696619D02*
X14211786Y-9691857D01*
X14211786Y-9691857D02*
X14187976Y-9691857D01*
X14187976Y-9691857D02*
X14178452Y-9696619D01*
X14178452Y-9696619D02*
X14173690Y-9701381D01*
X14173690Y-9701381D02*
X14168928Y-9710905D01*
X14168928Y-9710905D02*
X14168928Y-9734714D01*
X14168928Y-9734714D02*
X14173690Y-9744238D01*
X14173690Y-9744238D02*
X14178452Y-9749000D01*
X14178452Y-9749000D02*
X14187976Y-9753762D01*
X14187976Y-9753762D02*
X14211786Y-9753762D01*
X14211786Y-9753762D02*
X14221309Y-9749000D01*
X14221309Y-9749000D02*
X14226071Y-9744238D01*
%TO.C,R10*%
X15199286Y-8538762D02*
X15232619Y-8491143D01*
X15256428Y-8538762D02*
X15256428Y-8438762D01*
X15256428Y-8438762D02*
X15218333Y-8438762D01*
X15218333Y-8438762D02*
X15208809Y-8443524D01*
X15208809Y-8443524D02*
X15204048Y-8448286D01*
X15204048Y-8448286D02*
X15199286Y-8457810D01*
X15199286Y-8457810D02*
X15199286Y-8472095D01*
X15199286Y-8472095D02*
X15204048Y-8481619D01*
X15204048Y-8481619D02*
X15208809Y-8486381D01*
X15208809Y-8486381D02*
X15218333Y-8491143D01*
X15218333Y-8491143D02*
X15256428Y-8491143D01*
X15104048Y-8538762D02*
X15161190Y-8538762D01*
X15132619Y-8538762D02*
X15132619Y-8438762D01*
X15132619Y-8438762D02*
X15142143Y-8453048D01*
X15142143Y-8453048D02*
X15151667Y-8462571D01*
X15151667Y-8462571D02*
X15161190Y-8467333D01*
X15042143Y-8438762D02*
X15032619Y-8438762D01*
X15032619Y-8438762D02*
X15023095Y-8443524D01*
X15023095Y-8443524D02*
X15018333Y-8448286D01*
X15018333Y-8448286D02*
X15013571Y-8457810D01*
X15013571Y-8457810D02*
X15008809Y-8476857D01*
X15008809Y-8476857D02*
X15008809Y-8500667D01*
X15008809Y-8500667D02*
X15013571Y-8519714D01*
X15013571Y-8519714D02*
X15018333Y-8529238D01*
X15018333Y-8529238D02*
X15023095Y-8534000D01*
X15023095Y-8534000D02*
X15032619Y-8538762D01*
X15032619Y-8538762D02*
X15042143Y-8538762D01*
X15042143Y-8538762D02*
X15051667Y-8534000D01*
X15051667Y-8534000D02*
X15056428Y-8529238D01*
X15056428Y-8529238D02*
X15061190Y-8519714D01*
X15061190Y-8519714D02*
X15065952Y-8500667D01*
X15065952Y-8500667D02*
X15065952Y-8476857D01*
X15065952Y-8476857D02*
X15061190Y-8457810D01*
X15061190Y-8457810D02*
X15056428Y-8448286D01*
X15056428Y-8448286D02*
X15051667Y-8443524D01*
X15051667Y-8443524D02*
X15042143Y-8438762D01*
%TO.C,U6*%
X13761262Y-9881310D02*
X13842214Y-9881310D01*
X13842214Y-9881310D02*
X13851738Y-9886071D01*
X13851738Y-9886071D02*
X13856500Y-9890833D01*
X13856500Y-9890833D02*
X13861262Y-9900357D01*
X13861262Y-9900357D02*
X13861262Y-9919405D01*
X13861262Y-9919405D02*
X13856500Y-9928929D01*
X13856500Y-9928929D02*
X13851738Y-9933690D01*
X13851738Y-9933690D02*
X13842214Y-9938452D01*
X13842214Y-9938452D02*
X13761262Y-9938452D01*
X13761262Y-10028929D02*
X13761262Y-10009881D01*
X13761262Y-10009881D02*
X13766024Y-10000357D01*
X13766024Y-10000357D02*
X13770786Y-9995595D01*
X13770786Y-9995595D02*
X13785071Y-9986071D01*
X13785071Y-9986071D02*
X13804119Y-9981310D01*
X13804119Y-9981310D02*
X13842214Y-9981310D01*
X13842214Y-9981310D02*
X13851738Y-9986071D01*
X13851738Y-9986071D02*
X13856500Y-9990833D01*
X13856500Y-9990833D02*
X13861262Y-10000357D01*
X13861262Y-10000357D02*
X13861262Y-10019405D01*
X13861262Y-10019405D02*
X13856500Y-10028929D01*
X13856500Y-10028929D02*
X13851738Y-10033690D01*
X13851738Y-10033690D02*
X13842214Y-10038452D01*
X13842214Y-10038452D02*
X13818405Y-10038452D01*
X13818405Y-10038452D02*
X13808881Y-10033690D01*
X13808881Y-10033690D02*
X13804119Y-10028929D01*
X13804119Y-10028929D02*
X13799357Y-10019405D01*
X13799357Y-10019405D02*
X13799357Y-10000357D01*
X13799357Y-10000357D02*
X13804119Y-9990833D01*
X13804119Y-9990833D02*
X13808881Y-9986071D01*
X13808881Y-9986071D02*
X13818405Y-9981310D01*
%TO.C,R2*%
X15861667Y-9451262D02*
X15895000Y-9403643D01*
X15918809Y-9451262D02*
X15918809Y-9351262D01*
X15918809Y-9351262D02*
X15880714Y-9351262D01*
X15880714Y-9351262D02*
X15871190Y-9356024D01*
X15871190Y-9356024D02*
X15866428Y-9360786D01*
X15866428Y-9360786D02*
X15861667Y-9370310D01*
X15861667Y-9370310D02*
X15861667Y-9384595D01*
X15861667Y-9384595D02*
X15866428Y-9394119D01*
X15866428Y-9394119D02*
X15871190Y-9398881D01*
X15871190Y-9398881D02*
X15880714Y-9403643D01*
X15880714Y-9403643D02*
X15918809Y-9403643D01*
X15823571Y-9360786D02*
X15818809Y-9356024D01*
X15818809Y-9356024D02*
X15809286Y-9351262D01*
X15809286Y-9351262D02*
X15785476Y-9351262D01*
X15785476Y-9351262D02*
X15775952Y-9356024D01*
X15775952Y-9356024D02*
X15771190Y-9360786D01*
X15771190Y-9360786D02*
X15766428Y-9370310D01*
X15766428Y-9370310D02*
X15766428Y-9379833D01*
X15766428Y-9379833D02*
X15771190Y-9394119D01*
X15771190Y-9394119D02*
X15828333Y-9451262D01*
X15828333Y-9451262D02*
X15766428Y-9451262D01*
%TO.C,R9*%
X15191667Y-8321262D02*
X15225000Y-8273643D01*
X15248809Y-8321262D02*
X15248809Y-8221262D01*
X15248809Y-8221262D02*
X15210714Y-8221262D01*
X15210714Y-8221262D02*
X15201190Y-8226024D01*
X15201190Y-8226024D02*
X15196428Y-8230786D01*
X15196428Y-8230786D02*
X15191667Y-8240309D01*
X15191667Y-8240309D02*
X15191667Y-8254595D01*
X15191667Y-8254595D02*
X15196428Y-8264119D01*
X15196428Y-8264119D02*
X15201190Y-8268881D01*
X15201190Y-8268881D02*
X15210714Y-8273643D01*
X15210714Y-8273643D02*
X15248809Y-8273643D01*
X15144047Y-8321262D02*
X15125000Y-8321262D01*
X15125000Y-8321262D02*
X15115476Y-8316500D01*
X15115476Y-8316500D02*
X15110714Y-8311738D01*
X15110714Y-8311738D02*
X15101190Y-8297452D01*
X15101190Y-8297452D02*
X15096428Y-8278405D01*
X15096428Y-8278405D02*
X15096428Y-8240309D01*
X15096428Y-8240309D02*
X15101190Y-8230786D01*
X15101190Y-8230786D02*
X15105952Y-8226024D01*
X15105952Y-8226024D02*
X15115476Y-8221262D01*
X15115476Y-8221262D02*
X15134524Y-8221262D01*
X15134524Y-8221262D02*
X15144047Y-8226024D01*
X15144047Y-8226024D02*
X15148809Y-8230786D01*
X15148809Y-8230786D02*
X15153571Y-8240309D01*
X15153571Y-8240309D02*
X15153571Y-8264119D01*
X15153571Y-8264119D02*
X15148809Y-8273643D01*
X15148809Y-8273643D02*
X15144047Y-8278405D01*
X15144047Y-8278405D02*
X15134524Y-8283167D01*
X15134524Y-8283167D02*
X15115476Y-8283167D01*
X15115476Y-8283167D02*
X15105952Y-8278405D01*
X15105952Y-8278405D02*
X15101190Y-8273643D01*
X15101190Y-8273643D02*
X15096428Y-8264119D01*
%TO.C,R12*%
X16701786Y-9816262D02*
X16735119Y-9768643D01*
X16758928Y-9816262D02*
X16758928Y-9716262D01*
X16758928Y-9716262D02*
X16720833Y-9716262D01*
X16720833Y-9716262D02*
X16711309Y-9721024D01*
X16711309Y-9721024D02*
X16706548Y-9725786D01*
X16706548Y-9725786D02*
X16701786Y-9735310D01*
X16701786Y-9735310D02*
X16701786Y-9749595D01*
X16701786Y-9749595D02*
X16706548Y-9759119D01*
X16706548Y-9759119D02*
X16711309Y-9763881D01*
X16711309Y-9763881D02*
X16720833Y-9768643D01*
X16720833Y-9768643D02*
X16758928Y-9768643D01*
X16606548Y-9816262D02*
X16663690Y-9816262D01*
X16635119Y-9816262D02*
X16635119Y-9716262D01*
X16635119Y-9716262D02*
X16644643Y-9730548D01*
X16644643Y-9730548D02*
X16654167Y-9740071D01*
X16654167Y-9740071D02*
X16663690Y-9744833D01*
X16568452Y-9725786D02*
X16563690Y-9721024D01*
X16563690Y-9721024D02*
X16554167Y-9716262D01*
X16554167Y-9716262D02*
X16530357Y-9716262D01*
X16530357Y-9716262D02*
X16520833Y-9721024D01*
X16520833Y-9721024D02*
X16516071Y-9725786D01*
X16516071Y-9725786D02*
X16511309Y-9735310D01*
X16511309Y-9735310D02*
X16511309Y-9744833D01*
X16511309Y-9744833D02*
X16516071Y-9759119D01*
X16516071Y-9759119D02*
X16573214Y-9816262D01*
X16573214Y-9816262D02*
X16511309Y-9816262D01*
%TO.C,C15*%
X15169286Y-10831738D02*
X15174048Y-10836500D01*
X15174048Y-10836500D02*
X15188333Y-10841262D01*
X15188333Y-10841262D02*
X15197857Y-10841262D01*
X15197857Y-10841262D02*
X15212143Y-10836500D01*
X15212143Y-10836500D02*
X15221667Y-10826976D01*
X15221667Y-10826976D02*
X15226428Y-10817452D01*
X15226428Y-10817452D02*
X15231190Y-10798405D01*
X15231190Y-10798405D02*
X15231190Y-10784119D01*
X15231190Y-10784119D02*
X15226428Y-10765071D01*
X15226428Y-10765071D02*
X15221667Y-10755548D01*
X15221667Y-10755548D02*
X15212143Y-10746024D01*
X15212143Y-10746024D02*
X15197857Y-10741262D01*
X15197857Y-10741262D02*
X15188333Y-10741262D01*
X15188333Y-10741262D02*
X15174048Y-10746024D01*
X15174048Y-10746024D02*
X15169286Y-10750786D01*
X15074048Y-10841262D02*
X15131190Y-10841262D01*
X15102619Y-10841262D02*
X15102619Y-10741262D01*
X15102619Y-10741262D02*
X15112143Y-10755548D01*
X15112143Y-10755548D02*
X15121667Y-10765071D01*
X15121667Y-10765071D02*
X15131190Y-10769833D01*
X14983571Y-10741262D02*
X15031190Y-10741262D01*
X15031190Y-10741262D02*
X15035952Y-10788881D01*
X15035952Y-10788881D02*
X15031190Y-10784119D01*
X15031190Y-10784119D02*
X15021667Y-10779357D01*
X15021667Y-10779357D02*
X14997857Y-10779357D01*
X14997857Y-10779357D02*
X14988333Y-10784119D01*
X14988333Y-10784119D02*
X14983571Y-10788881D01*
X14983571Y-10788881D02*
X14978809Y-10798405D01*
X14978809Y-10798405D02*
X14978809Y-10822214D01*
X14978809Y-10822214D02*
X14983571Y-10831738D01*
X14983571Y-10831738D02*
X14988333Y-10836500D01*
X14988333Y-10836500D02*
X14997857Y-10841262D01*
X14997857Y-10841262D02*
X15021667Y-10841262D01*
X15021667Y-10841262D02*
X15031190Y-10836500D01*
X15031190Y-10836500D02*
X15035952Y-10831738D01*
%TO.C,C23*%
X14666738Y-11130714D02*
X14671500Y-11125952D01*
X14671500Y-11125952D02*
X14676262Y-11111667D01*
X14676262Y-11111667D02*
X14676262Y-11102143D01*
X14676262Y-11102143D02*
X14671500Y-11087857D01*
X14671500Y-11087857D02*
X14661976Y-11078333D01*
X14661976Y-11078333D02*
X14652452Y-11073571D01*
X14652452Y-11073571D02*
X14633405Y-11068810D01*
X14633405Y-11068810D02*
X14619119Y-11068810D01*
X14619119Y-11068810D02*
X14600071Y-11073571D01*
X14600071Y-11073571D02*
X14590548Y-11078333D01*
X14590548Y-11078333D02*
X14581024Y-11087857D01*
X14581024Y-11087857D02*
X14576262Y-11102143D01*
X14576262Y-11102143D02*
X14576262Y-11111667D01*
X14576262Y-11111667D02*
X14581024Y-11125952D01*
X14581024Y-11125952D02*
X14585786Y-11130714D01*
X14585786Y-11168810D02*
X14581024Y-11173571D01*
X14581024Y-11173571D02*
X14576262Y-11183095D01*
X14576262Y-11183095D02*
X14576262Y-11206905D01*
X14576262Y-11206905D02*
X14581024Y-11216428D01*
X14581024Y-11216428D02*
X14585786Y-11221190D01*
X14585786Y-11221190D02*
X14595309Y-11225952D01*
X14595309Y-11225952D02*
X14604833Y-11225952D01*
X14604833Y-11225952D02*
X14619119Y-11221190D01*
X14619119Y-11221190D02*
X14676262Y-11164048D01*
X14676262Y-11164048D02*
X14676262Y-11225952D01*
X14576262Y-11259286D02*
X14576262Y-11321190D01*
X14576262Y-11321190D02*
X14614357Y-11287857D01*
X14614357Y-11287857D02*
X14614357Y-11302143D01*
X14614357Y-11302143D02*
X14619119Y-11311667D01*
X14619119Y-11311667D02*
X14623881Y-11316428D01*
X14623881Y-11316428D02*
X14633405Y-11321190D01*
X14633405Y-11321190D02*
X14657214Y-11321190D01*
X14657214Y-11321190D02*
X14666738Y-11316428D01*
X14666738Y-11316428D02*
X14671500Y-11311667D01*
X14671500Y-11311667D02*
X14676262Y-11302143D01*
X14676262Y-11302143D02*
X14676262Y-11273571D01*
X14676262Y-11273571D02*
X14671500Y-11264048D01*
X14671500Y-11264048D02*
X14666738Y-11259286D01*
%TO.C,C3*%
X13051738Y-13490833D02*
X13056500Y-13486071D01*
X13056500Y-13486071D02*
X13061262Y-13471786D01*
X13061262Y-13471786D02*
X13061262Y-13462262D01*
X13061262Y-13462262D02*
X13056500Y-13447976D01*
X13056500Y-13447976D02*
X13046976Y-13438452D01*
X13046976Y-13438452D02*
X13037452Y-13433690D01*
X13037452Y-13433690D02*
X13018405Y-13428929D01*
X13018405Y-13428929D02*
X13004119Y-13428929D01*
X13004119Y-13428929D02*
X12985071Y-13433690D01*
X12985071Y-13433690D02*
X12975548Y-13438452D01*
X12975548Y-13438452D02*
X12966024Y-13447976D01*
X12966024Y-13447976D02*
X12961262Y-13462262D01*
X12961262Y-13462262D02*
X12961262Y-13471786D01*
X12961262Y-13471786D02*
X12966024Y-13486071D01*
X12966024Y-13486071D02*
X12970786Y-13490833D01*
X12961262Y-13524167D02*
X12961262Y-13586071D01*
X12961262Y-13586071D02*
X12999357Y-13552738D01*
X12999357Y-13552738D02*
X12999357Y-13567024D01*
X12999357Y-13567024D02*
X13004119Y-13576548D01*
X13004119Y-13576548D02*
X13008881Y-13581309D01*
X13008881Y-13581309D02*
X13018405Y-13586071D01*
X13018405Y-13586071D02*
X13042214Y-13586071D01*
X13042214Y-13586071D02*
X13051738Y-13581309D01*
X13051738Y-13581309D02*
X13056500Y-13576548D01*
X13056500Y-13576548D02*
X13061262Y-13567024D01*
X13061262Y-13567024D02*
X13061262Y-13538452D01*
X13061262Y-13538452D02*
X13056500Y-13528929D01*
X13056500Y-13528929D02*
X13051738Y-13524167D01*
%TO.C,R16*%
X16166262Y-13063214D02*
X16118643Y-13029881D01*
X16166262Y-13006071D02*
X16066262Y-13006071D01*
X16066262Y-13006071D02*
X16066262Y-13044167D01*
X16066262Y-13044167D02*
X16071024Y-13053690D01*
X16071024Y-13053690D02*
X16075786Y-13058452D01*
X16075786Y-13058452D02*
X16085309Y-13063214D01*
X16085309Y-13063214D02*
X16099595Y-13063214D01*
X16099595Y-13063214D02*
X16109119Y-13058452D01*
X16109119Y-13058452D02*
X16113881Y-13053690D01*
X16113881Y-13053690D02*
X16118643Y-13044167D01*
X16118643Y-13044167D02*
X16118643Y-13006071D01*
X16166262Y-13158452D02*
X16166262Y-13101309D01*
X16166262Y-13129881D02*
X16066262Y-13129881D01*
X16066262Y-13129881D02*
X16080548Y-13120357D01*
X16080548Y-13120357D02*
X16090071Y-13110833D01*
X16090071Y-13110833D02*
X16094833Y-13101309D01*
X16066262Y-13244167D02*
X16066262Y-13225119D01*
X16066262Y-13225119D02*
X16071024Y-13215595D01*
X16071024Y-13215595D02*
X16075786Y-13210833D01*
X16075786Y-13210833D02*
X16090071Y-13201309D01*
X16090071Y-13201309D02*
X16109119Y-13196548D01*
X16109119Y-13196548D02*
X16147214Y-13196548D01*
X16147214Y-13196548D02*
X16156738Y-13201309D01*
X16156738Y-13201309D02*
X16161500Y-13206071D01*
X16161500Y-13206071D02*
X16166262Y-13215595D01*
X16166262Y-13215595D02*
X16166262Y-13234643D01*
X16166262Y-13234643D02*
X16161500Y-13244167D01*
X16161500Y-13244167D02*
X16156738Y-13248928D01*
X16156738Y-13248928D02*
X16147214Y-13253690D01*
X16147214Y-13253690D02*
X16123405Y-13253690D01*
X16123405Y-13253690D02*
X16113881Y-13248928D01*
X16113881Y-13248928D02*
X16109119Y-13244167D01*
X16109119Y-13244167D02*
X16104357Y-13234643D01*
X16104357Y-13234643D02*
X16104357Y-13215595D01*
X16104357Y-13215595D02*
X16109119Y-13206071D01*
X16109119Y-13206071D02*
X16113881Y-13201309D01*
X16113881Y-13201309D02*
X16123405Y-13196548D01*
%TO.C,R7*%
X13626262Y-11035833D02*
X13578643Y-11002500D01*
X13626262Y-10978691D02*
X13526262Y-10978691D01*
X13526262Y-10978691D02*
X13526262Y-11016786D01*
X13526262Y-11016786D02*
X13531024Y-11026310D01*
X13531024Y-11026310D02*
X13535786Y-11031071D01*
X13535786Y-11031071D02*
X13545309Y-11035833D01*
X13545309Y-11035833D02*
X13559595Y-11035833D01*
X13559595Y-11035833D02*
X13569119Y-11031071D01*
X13569119Y-11031071D02*
X13573881Y-11026310D01*
X13573881Y-11026310D02*
X13578643Y-11016786D01*
X13578643Y-11016786D02*
X13578643Y-10978691D01*
X13526262Y-11069167D02*
X13526262Y-11135833D01*
X13526262Y-11135833D02*
X13626262Y-11092976D01*
%TO.C,R18*%
X15909286Y-12548762D02*
X15942619Y-12501143D01*
X15966428Y-12548762D02*
X15966428Y-12448762D01*
X15966428Y-12448762D02*
X15928333Y-12448762D01*
X15928333Y-12448762D02*
X15918809Y-12453524D01*
X15918809Y-12453524D02*
X15914048Y-12458286D01*
X15914048Y-12458286D02*
X15909286Y-12467809D01*
X15909286Y-12467809D02*
X15909286Y-12482095D01*
X15909286Y-12482095D02*
X15914048Y-12491619D01*
X15914048Y-12491619D02*
X15918809Y-12496381D01*
X15918809Y-12496381D02*
X15928333Y-12501143D01*
X15928333Y-12501143D02*
X15966428Y-12501143D01*
X15814048Y-12548762D02*
X15871190Y-12548762D01*
X15842619Y-12548762D02*
X15842619Y-12448762D01*
X15842619Y-12448762D02*
X15852143Y-12463048D01*
X15852143Y-12463048D02*
X15861667Y-12472571D01*
X15861667Y-12472571D02*
X15871190Y-12477333D01*
X15756905Y-12491619D02*
X15766428Y-12486857D01*
X15766428Y-12486857D02*
X15771190Y-12482095D01*
X15771190Y-12482095D02*
X15775952Y-12472571D01*
X15775952Y-12472571D02*
X15775952Y-12467809D01*
X15775952Y-12467809D02*
X15771190Y-12458286D01*
X15771190Y-12458286D02*
X15766428Y-12453524D01*
X15766428Y-12453524D02*
X15756905Y-12448762D01*
X15756905Y-12448762D02*
X15737857Y-12448762D01*
X15737857Y-12448762D02*
X15728333Y-12453524D01*
X15728333Y-12453524D02*
X15723571Y-12458286D01*
X15723571Y-12458286D02*
X15718809Y-12467809D01*
X15718809Y-12467809D02*
X15718809Y-12472571D01*
X15718809Y-12472571D02*
X15723571Y-12482095D01*
X15723571Y-12482095D02*
X15728333Y-12486857D01*
X15728333Y-12486857D02*
X15737857Y-12491619D01*
X15737857Y-12491619D02*
X15756905Y-12491619D01*
X15756905Y-12491619D02*
X15766428Y-12496381D01*
X15766428Y-12496381D02*
X15771190Y-12501143D01*
X15771190Y-12501143D02*
X15775952Y-12510667D01*
X15775952Y-12510667D02*
X15775952Y-12529714D01*
X15775952Y-12529714D02*
X15771190Y-12539238D01*
X15771190Y-12539238D02*
X15766428Y-12544000D01*
X15766428Y-12544000D02*
X15756905Y-12548762D01*
X15756905Y-12548762D02*
X15737857Y-12548762D01*
X15737857Y-12548762D02*
X15728333Y-12544000D01*
X15728333Y-12544000D02*
X15723571Y-12539238D01*
X15723571Y-12539238D02*
X15718809Y-12529714D01*
X15718809Y-12529714D02*
X15718809Y-12510667D01*
X15718809Y-12510667D02*
X15723571Y-12501143D01*
X15723571Y-12501143D02*
X15728333Y-12496381D01*
X15728333Y-12496381D02*
X15737857Y-12491619D01*
%TO.C,U3*%
X14026262Y-8911310D02*
X14107214Y-8911310D01*
X14107214Y-8911310D02*
X14116738Y-8916071D01*
X14116738Y-8916071D02*
X14121500Y-8920833D01*
X14121500Y-8920833D02*
X14126262Y-8930357D01*
X14126262Y-8930357D02*
X14126262Y-8949405D01*
X14126262Y-8949405D02*
X14121500Y-8958929D01*
X14121500Y-8958929D02*
X14116738Y-8963690D01*
X14116738Y-8963690D02*
X14107214Y-8968452D01*
X14107214Y-8968452D02*
X14026262Y-8968452D01*
X14026262Y-9006548D02*
X14026262Y-9068452D01*
X14026262Y-9068452D02*
X14064357Y-9035119D01*
X14064357Y-9035119D02*
X14064357Y-9049405D01*
X14064357Y-9049405D02*
X14069119Y-9058929D01*
X14069119Y-9058929D02*
X14073881Y-9063690D01*
X14073881Y-9063690D02*
X14083405Y-9068452D01*
X14083405Y-9068452D02*
X14107214Y-9068452D01*
X14107214Y-9068452D02*
X14116738Y-9063690D01*
X14116738Y-9063690D02*
X14121500Y-9058929D01*
X14121500Y-9058929D02*
X14126262Y-9049405D01*
X14126262Y-9049405D02*
X14126262Y-9020833D01*
X14126262Y-9020833D02*
X14121500Y-9011310D01*
X14121500Y-9011310D02*
X14116738Y-9006548D01*
X14171262Y-8555595D02*
X14171262Y-8612738D01*
X14271262Y-8584167D02*
X14171262Y-8584167D01*
X14261738Y-8703214D02*
X14266500Y-8698452D01*
X14266500Y-8698452D02*
X14271262Y-8684167D01*
X14271262Y-8684167D02*
X14271262Y-8674643D01*
X14271262Y-8674643D02*
X14266500Y-8660357D01*
X14266500Y-8660357D02*
X14256976Y-8650833D01*
X14256976Y-8650833D02*
X14247452Y-8646071D01*
X14247452Y-8646071D02*
X14228405Y-8641310D01*
X14228405Y-8641310D02*
X14214119Y-8641310D01*
X14214119Y-8641310D02*
X14195071Y-8646071D01*
X14195071Y-8646071D02*
X14185548Y-8650833D01*
X14185548Y-8650833D02*
X14176024Y-8660357D01*
X14176024Y-8660357D02*
X14171262Y-8674643D01*
X14171262Y-8674643D02*
X14171262Y-8684167D01*
X14171262Y-8684167D02*
X14176024Y-8698452D01*
X14176024Y-8698452D02*
X14180786Y-8703214D01*
X14242690Y-8741310D02*
X14242690Y-8788929D01*
X14271262Y-8731786D02*
X14171262Y-8765119D01*
X14171262Y-8765119D02*
X14271262Y-8798452D01*
X14271262Y-8836548D02*
X14271262Y-8855595D01*
X14271262Y-8855595D02*
X14266500Y-8865119D01*
X14266500Y-8865119D02*
X14261738Y-8869881D01*
X14261738Y-8869881D02*
X14247452Y-8879405D01*
X14247452Y-8879405D02*
X14228405Y-8884167D01*
X14228405Y-8884167D02*
X14190309Y-8884167D01*
X14190309Y-8884167D02*
X14180786Y-8879405D01*
X14180786Y-8879405D02*
X14176024Y-8874643D01*
X14176024Y-8874643D02*
X14171262Y-8865119D01*
X14171262Y-8865119D02*
X14171262Y-8846071D01*
X14171262Y-8846071D02*
X14176024Y-8836548D01*
X14176024Y-8836548D02*
X14180786Y-8831786D01*
X14180786Y-8831786D02*
X14190309Y-8827024D01*
X14190309Y-8827024D02*
X14214119Y-8827024D01*
X14214119Y-8827024D02*
X14223643Y-8831786D01*
X14223643Y-8831786D02*
X14228405Y-8836548D01*
X14228405Y-8836548D02*
X14233167Y-8846071D01*
X14233167Y-8846071D02*
X14233167Y-8865119D01*
X14233167Y-8865119D02*
X14228405Y-8874643D01*
X14228405Y-8874643D02*
X14223643Y-8879405D01*
X14223643Y-8879405D02*
X14214119Y-8884167D01*
X14171262Y-8974643D02*
X14171262Y-8927024D01*
X14171262Y-8927024D02*
X14218881Y-8922262D01*
X14218881Y-8922262D02*
X14214119Y-8927024D01*
X14214119Y-8927024D02*
X14209357Y-8936548D01*
X14209357Y-8936548D02*
X14209357Y-8960357D01*
X14209357Y-8960357D02*
X14214119Y-8969881D01*
X14214119Y-8969881D02*
X14218881Y-8974643D01*
X14218881Y-8974643D02*
X14228405Y-8979405D01*
X14228405Y-8979405D02*
X14252214Y-8979405D01*
X14252214Y-8979405D02*
X14261738Y-8974643D01*
X14261738Y-8974643D02*
X14266500Y-8969881D01*
X14266500Y-8969881D02*
X14271262Y-8960357D01*
X14271262Y-8960357D02*
X14271262Y-8936548D01*
X14271262Y-8936548D02*
X14266500Y-8927024D01*
X14266500Y-8927024D02*
X14261738Y-8922262D01*
X14271262Y-9074643D02*
X14271262Y-9017500D01*
X14271262Y-9046071D02*
X14171262Y-9046071D01*
X14171262Y-9046071D02*
X14185548Y-9036548D01*
X14185548Y-9036548D02*
X14195071Y-9027024D01*
X14195071Y-9027024D02*
X14199833Y-9017500D01*
X14171262Y-9107976D02*
X14171262Y-9174643D01*
X14171262Y-9174643D02*
X14271262Y-9131786D01*
X14271262Y-9212738D02*
X14171262Y-9212738D01*
X14171262Y-9212738D02*
X14171262Y-9236548D01*
X14171262Y-9236548D02*
X14176024Y-9250833D01*
X14176024Y-9250833D02*
X14185548Y-9260357D01*
X14185548Y-9260357D02*
X14195071Y-9265119D01*
X14195071Y-9265119D02*
X14214119Y-9269881D01*
X14214119Y-9269881D02*
X14228405Y-9269881D01*
X14228405Y-9269881D02*
X14247452Y-9265119D01*
X14247452Y-9265119D02*
X14256976Y-9260357D01*
X14256976Y-9260357D02*
X14266500Y-9250833D01*
X14266500Y-9250833D02*
X14271262Y-9236548D01*
X14271262Y-9236548D02*
X14271262Y-9212738D01*
X14271262Y-9369881D02*
X14223643Y-9336548D01*
X14271262Y-9312738D02*
X14171262Y-9312738D01*
X14171262Y-9312738D02*
X14171262Y-9350833D01*
X14171262Y-9350833D02*
X14176024Y-9360357D01*
X14176024Y-9360357D02*
X14180786Y-9365119D01*
X14180786Y-9365119D02*
X14190309Y-9369881D01*
X14190309Y-9369881D02*
X14204595Y-9369881D01*
X14204595Y-9369881D02*
X14214119Y-9365119D01*
X14214119Y-9365119D02*
X14218881Y-9360357D01*
X14218881Y-9360357D02*
X14223643Y-9350833D01*
X14223643Y-9350833D02*
X14223643Y-9312738D01*
%TO.C,C4*%
X14967738Y-8757333D02*
X14972500Y-8752571D01*
X14972500Y-8752571D02*
X14977262Y-8738286D01*
X14977262Y-8738286D02*
X14977262Y-8728762D01*
X14977262Y-8728762D02*
X14972500Y-8714476D01*
X14972500Y-8714476D02*
X14962976Y-8704952D01*
X14962976Y-8704952D02*
X14953452Y-8700191D01*
X14953452Y-8700191D02*
X14934405Y-8695429D01*
X14934405Y-8695429D02*
X14920119Y-8695429D01*
X14920119Y-8695429D02*
X14901071Y-8700191D01*
X14901071Y-8700191D02*
X14891548Y-8704952D01*
X14891548Y-8704952D02*
X14882024Y-8714476D01*
X14882024Y-8714476D02*
X14877262Y-8728762D01*
X14877262Y-8728762D02*
X14877262Y-8738286D01*
X14877262Y-8738286D02*
X14882024Y-8752571D01*
X14882024Y-8752571D02*
X14886786Y-8757333D01*
X14910595Y-8843048D02*
X14977262Y-8843048D01*
X14872500Y-8819238D02*
X14943928Y-8795429D01*
X14943928Y-8795429D02*
X14943928Y-8857333D01*
D11*
%TO.C,R13*%
X16711976Y-11058160D02*
X16566564Y-11058160D01*
X16711976Y-10876160D02*
X16566564Y-10876160D01*
%TO.C,C2*%
X13101000Y-15313625D02*
X13101000Y-15171375D01*
X13283000Y-15313625D02*
X13283000Y-15171375D01*
%TO.C,R6*%
X14647706Y-9576000D02*
X14502294Y-9576000D01*
X14647706Y-9394000D02*
X14502294Y-9394000D01*
%TO.C,C6*%
X14829000Y-10011125D02*
X14829000Y-9868875D01*
X15011000Y-10011125D02*
X15011000Y-9868875D01*
%TO.C,R19*%
X15257750Y-11184966D02*
X15257750Y-11039554D01*
X15439750Y-11184966D02*
X15439750Y-11039554D01*
%TO.C,R4*%
X15772960Y-10479924D02*
X15772960Y-10625336D01*
X15590960Y-10479924D02*
X15590960Y-10625336D01*
%TO.C,C9*%
X15155000Y-9185375D02*
X15155000Y-9327625D01*
X14973000Y-9185375D02*
X14973000Y-9327625D01*
%TO.C,R17*%
X13901000Y-10543544D02*
X13901000Y-10688956D01*
X13719000Y-10543544D02*
X13719000Y-10688956D01*
%TO.C,C10*%
X13108875Y-9869000D02*
X13251125Y-9869000D01*
X13108875Y-10051000D02*
X13251125Y-10051000D01*
%TO.C,R11*%
X16711976Y-10290660D02*
X16566564Y-10290660D01*
X16711976Y-10108660D02*
X16566564Y-10108660D01*
%TO.C,R21*%
X15025250Y-11184966D02*
X15025250Y-11039554D01*
X15207250Y-11184966D02*
X15207250Y-11039554D01*
%TO.C,R1*%
X15763544Y-9604000D02*
X15908956Y-9604000D01*
X15763544Y-9786000D02*
X15908956Y-9786000D01*
%TO.C,R20*%
X14844250Y-13226456D02*
X14844250Y-13081044D01*
X15026250Y-13226456D02*
X15026250Y-13081044D01*
%TO.C,C24*%
X14323500Y-11121375D02*
X14323500Y-11263625D01*
X14141500Y-11121375D02*
X14141500Y-11263625D01*
%TO.C,C13*%
X13111375Y-10129000D02*
X13253625Y-10129000D01*
X13111375Y-10311000D02*
X13253625Y-10311000D01*
%TO.C,R3*%
X15900916Y-10294180D02*
X15755504Y-10294180D01*
X15900916Y-10112180D02*
X15755504Y-10112180D01*
%TO.C,R22*%
X14646456Y-12736000D02*
X14501044Y-12736000D01*
X14646456Y-12554000D02*
X14501044Y-12554000D01*
%TO.C,R5*%
X14646456Y-9801000D02*
X14501044Y-9801000D01*
X14646456Y-9619000D02*
X14501044Y-9619000D01*
%TO.C,R10*%
X14825206Y-8588500D02*
X14679794Y-8588500D01*
X14825206Y-8406500D02*
X14679794Y-8406500D01*
D14*
%TO.C,U6*%
X14140000Y-9861750D02*
X14140000Y-9917500D01*
X14140000Y-9861750D02*
X14555000Y-9861750D01*
X14140000Y-10709250D02*
X14027500Y-10709250D01*
X14140000Y-10756750D02*
X14140000Y-10709250D01*
X14140000Y-10756750D02*
X14555000Y-10756750D01*
X14555000Y-9861750D02*
X14555000Y-9917500D01*
X14555000Y-10756750D02*
X14555000Y-10701000D01*
D11*
%TO.C,R2*%
X15900516Y-10040180D02*
X15755104Y-10040180D01*
X15900516Y-9858180D02*
X15755104Y-9858180D01*
%TO.C,R9*%
X14823956Y-8361000D02*
X14678544Y-8361000D01*
X14823956Y-8179000D02*
X14678544Y-8179000D01*
%TO.C,R12*%
X16711976Y-10040660D02*
X16566564Y-10040660D01*
X16711976Y-9858660D02*
X16566564Y-9858660D01*
%TO.C,C15*%
X15181125Y-10716000D02*
X15038875Y-10716000D01*
X15181125Y-10534000D02*
X15038875Y-10534000D01*
%TO.C,G\u002A\u002A\u002A*%
G36*
X16725743Y-14267687D02*
G01*
X16723103Y-14270327D01*
X16720463Y-14267687D01*
X16723103Y-14265047D01*
X16725743Y-14267687D01*
G37*
G36*
X15859714Y-14526440D02*
G01*
X15857074Y-14529080D01*
X15854433Y-14526440D01*
X15857074Y-14523799D01*
X15859714Y-14526440D01*
G37*
G36*
X15843872Y-14531720D02*
G01*
X15841232Y-14534361D01*
X15838591Y-14531720D01*
X15841232Y-14529080D01*
X15843872Y-14531720D01*
G37*
G36*
X16028695Y-14558124D02*
G01*
X16026055Y-14560764D01*
X16023415Y-14558124D01*
X16026055Y-14555483D01*
X16028695Y-14558124D01*
G37*
G36*
X16192396Y-14764070D02*
G01*
X16189756Y-14766710D01*
X16187115Y-14764070D01*
X16189756Y-14761429D01*
X16192396Y-14764070D01*
G37*
G36*
X16176554Y-14779912D02*
G01*
X16173914Y-14782552D01*
X16171273Y-14779912D01*
X16173914Y-14777271D01*
X16176554Y-14779912D01*
G37*
G36*
X16102625Y-14779912D02*
G01*
X16099984Y-14782552D01*
X16097344Y-14779912D01*
X16099984Y-14777271D01*
X16102625Y-14779912D01*
G37*
G36*
X16150151Y-14801034D02*
G01*
X16147510Y-14803675D01*
X16144870Y-14801034D01*
X16147510Y-14798394D01*
X16150151Y-14801034D01*
G37*
G36*
X16055099Y-14832718D02*
G01*
X16052458Y-14835359D01*
X16049818Y-14832718D01*
X16052458Y-14830078D01*
X16055099Y-14832718D01*
G37*
G36*
X16113186Y-14837999D02*
G01*
X16110546Y-14840639D01*
X16107905Y-14837999D01*
X16110546Y-14835359D01*
X16113186Y-14837999D01*
G37*
G36*
X16218799Y-14848560D02*
G01*
X16216159Y-14851201D01*
X16213519Y-14848560D01*
X16216159Y-14845920D01*
X16218799Y-14848560D01*
G37*
G36*
X16023415Y-14859122D02*
G01*
X16020774Y-14861762D01*
X16018134Y-14859122D01*
X16020774Y-14856481D01*
X16023415Y-14859122D01*
G37*
G36*
X16208238Y-14869683D02*
G01*
X16205598Y-14872323D01*
X16202957Y-14869683D01*
X16205598Y-14867043D01*
X16208238Y-14869683D01*
G37*
G36*
X16192396Y-14906648D02*
G01*
X16189756Y-14909288D01*
X16187115Y-14906648D01*
X16189756Y-14904007D01*
X16192396Y-14906648D01*
G37*
G36*
X16197677Y-14917209D02*
G01*
X16195036Y-14919849D01*
X16192396Y-14917209D01*
X16195036Y-14914569D01*
X16197677Y-14917209D01*
G37*
G36*
X16176554Y-14938332D02*
G01*
X16173914Y-14940972D01*
X16171273Y-14938332D01*
X16173914Y-14935691D01*
X16176554Y-14938332D01*
G37*
G36*
X17026741Y-15123155D02*
G01*
X17024101Y-15125795D01*
X17021461Y-15123155D01*
X17024101Y-15120514D01*
X17026741Y-15123155D01*
G37*
G36*
X16492977Y-14188037D02*
G01*
X16492604Y-14193393D01*
X16490204Y-14194968D01*
X16489157Y-14193100D01*
X16489787Y-14184847D01*
X16491687Y-14182402D01*
X16492977Y-14188037D01*
G37*
G36*
X16681013Y-14312954D02*
G01*
X16681738Y-14316093D01*
X16680964Y-14316725D01*
X16674697Y-14316093D01*
X16673871Y-14314505D01*
X16678217Y-14312573D01*
X16681013Y-14312954D01*
G37*
G36*
X16665171Y-14318234D02*
G01*
X16665896Y-14321374D01*
X16665122Y-14322006D01*
X16658855Y-14321374D01*
X16658029Y-14319785D01*
X16662375Y-14317853D01*
X16665171Y-14318234D01*
G37*
G36*
X16049818Y-14550203D02*
G01*
X16049437Y-14552998D01*
X16046298Y-14553723D01*
X16045666Y-14552949D01*
X16046298Y-14546682D01*
X16047886Y-14545856D01*
X16049818Y-14550203D01*
G37*
G36*
X16007156Y-14557684D02*
G01*
X16006782Y-14563040D01*
X16004382Y-14564614D01*
X16003336Y-14562746D01*
X16003965Y-14554493D01*
X16005866Y-14552049D01*
X16007156Y-14557684D01*
G37*
G36*
X16208238Y-14766710D02*
G01*
X16207857Y-14769505D01*
X16204718Y-14770230D01*
X16204086Y-14769456D01*
X16204718Y-14763189D01*
X16206306Y-14762363D01*
X16208238Y-14766710D01*
G37*
G36*
X16221595Y-14856862D02*
G01*
X16222320Y-14860002D01*
X16221546Y-14860634D01*
X16215279Y-14860002D01*
X16214453Y-14858413D01*
X16218799Y-14856481D01*
X16221595Y-14856862D01*
G37*
G36*
X16997041Y-15042874D02*
G01*
X16996377Y-15044802D01*
X16993987Y-15045499D01*
X16983176Y-15044802D01*
X16982280Y-15042968D01*
X16989777Y-15042138D01*
X16997041Y-15042874D01*
G37*
G36*
X15873071Y-15332122D02*
G01*
X15873796Y-15335262D01*
X15873022Y-15335894D01*
X15866755Y-15335262D01*
X15865929Y-15333673D01*
X15870275Y-15331741D01*
X15873071Y-15332122D01*
G37*
G36*
X16721908Y-14173707D02*
G01*
X16725743Y-14180868D01*
X16725464Y-14183829D01*
X16722709Y-14185074D01*
X16718448Y-14177641D01*
X16717522Y-14173522D01*
X16720523Y-14172672D01*
X16721908Y-14173707D01*
G37*
G36*
X16592911Y-14272463D02*
G01*
X16595256Y-14274094D01*
X16599007Y-14278560D01*
X16598956Y-14279298D01*
X16595899Y-14280461D01*
X16590582Y-14274792D01*
X16589297Y-14271841D01*
X16592911Y-14272463D01*
G37*
G36*
X15933643Y-14019661D02*
G01*
X15932725Y-14023275D01*
X15925722Y-14027417D01*
X15922087Y-14026887D01*
X15917801Y-14022701D01*
X15918735Y-14020129D01*
X15925722Y-14014946D01*
X15930145Y-14014334D01*
X15933643Y-14019661D01*
G37*
G36*
X16239922Y-14098871D02*
G01*
X16239004Y-14102485D01*
X16232001Y-14106627D01*
X16228365Y-14106097D01*
X16224080Y-14101911D01*
X16225013Y-14099339D01*
X16232001Y-14094156D01*
X16236423Y-14093544D01*
X16239922Y-14098871D01*
G37*
G36*
X16705941Y-14153479D02*
G01*
X16707985Y-14155125D01*
X16714769Y-14162145D01*
X16713188Y-14164714D01*
X16710461Y-14162786D01*
X16703947Y-14155473D01*
X16700997Y-14151647D01*
X16699686Y-14148912D01*
X16705941Y-14153479D01*
G37*
G36*
X16486208Y-14213460D02*
G01*
X16486603Y-14225442D01*
X16486430Y-14235242D01*
X16485633Y-14242161D01*
X16484396Y-14240036D01*
X16483455Y-14229250D01*
X16484324Y-14213633D01*
X16485262Y-14209956D01*
X16486208Y-14213460D01*
G37*
G36*
X16019329Y-14481615D02*
G01*
X16023415Y-14483883D01*
X16023172Y-14484730D01*
X16018134Y-14489475D01*
X16016089Y-14490300D01*
X16012853Y-14487146D01*
X16013056Y-14485613D01*
X16018134Y-14481554D01*
X16019329Y-14481615D01*
G37*
G36*
X15862315Y-14540990D02*
G01*
X15864995Y-14547562D01*
X15864133Y-14551922D01*
X15859318Y-14554471D01*
X15857752Y-14553754D01*
X15853641Y-14547562D01*
X15853862Y-14546105D01*
X15859318Y-14540653D01*
X15862315Y-14540990D01*
G37*
G36*
X16019329Y-14608350D02*
G01*
X16023415Y-14610619D01*
X16023172Y-14611466D01*
X16018134Y-14616211D01*
X16016089Y-14617036D01*
X16012853Y-14613882D01*
X16013056Y-14612349D01*
X16018134Y-14608290D01*
X16019329Y-14608350D01*
G37*
G36*
X16034464Y-14637635D02*
G01*
X16038876Y-14641510D01*
X16035528Y-14644277D01*
X16022095Y-14644920D01*
X16011184Y-14644444D01*
X16009825Y-14642999D01*
X16017302Y-14639629D01*
X16026368Y-14637143D01*
X16034464Y-14637635D01*
G37*
G36*
X16425728Y-14762076D02*
G01*
X16430026Y-14766710D01*
X16429884Y-14767963D01*
X16425057Y-14771991D01*
X16423575Y-14771789D01*
X16416824Y-14766710D01*
X16416328Y-14763989D01*
X16421793Y-14761429D01*
X16425728Y-14762076D01*
G37*
G36*
X16548666Y-14756476D02*
G01*
X16551099Y-14759760D01*
X16548106Y-14769361D01*
X16544586Y-14774957D01*
X16540266Y-14771113D01*
X16537898Y-14766995D01*
X16536455Y-14758758D01*
X16543560Y-14756149D01*
X16548666Y-14756476D01*
G37*
G36*
X16563025Y-14846566D02*
G01*
X16567323Y-14851201D01*
X16567181Y-14852453D01*
X16562354Y-14856481D01*
X16560873Y-14856280D01*
X16554122Y-14851201D01*
X16553625Y-14848480D01*
X16559091Y-14845920D01*
X16563025Y-14846566D01*
G37*
G36*
X16425728Y-14946899D02*
G01*
X16430026Y-14951533D01*
X16429884Y-14952786D01*
X16425057Y-14956814D01*
X16423575Y-14956612D01*
X16416824Y-14951533D01*
X16416328Y-14948813D01*
X16421793Y-14946253D01*
X16425728Y-14946899D01*
G37*
G36*
X16685963Y-14967703D02*
G01*
X16688397Y-14970986D01*
X16685403Y-14980588D01*
X16681884Y-14986183D01*
X16677563Y-14982340D01*
X16675196Y-14978221D01*
X16673753Y-14969985D01*
X16680858Y-14967375D01*
X16685963Y-14967703D01*
G37*
G36*
X16410623Y-15258673D02*
G01*
X16413172Y-15263488D01*
X16412455Y-15265054D01*
X16406263Y-15269165D01*
X16404806Y-15268944D01*
X16399354Y-15263488D01*
X16399691Y-15260491D01*
X16406263Y-15257812D01*
X16410623Y-15258673D01*
G37*
G36*
X15918896Y-14544930D02*
G01*
X15923082Y-14550121D01*
X15921783Y-14553424D01*
X15915161Y-14560764D01*
X15912017Y-14563117D01*
X15908145Y-14562851D01*
X15907240Y-14553655D01*
X15907245Y-14552863D01*
X15909134Y-14543621D01*
X15915161Y-14543012D01*
X15918896Y-14544930D01*
G37*
G36*
X16998709Y-14949365D02*
G01*
X17000338Y-14959454D01*
X17000202Y-14963673D01*
X16997256Y-14971042D01*
X16988456Y-14971703D01*
X16980889Y-14968898D01*
X16976575Y-14959454D01*
X16978522Y-14952451D01*
X16988456Y-14947205D01*
X16992070Y-14946852D01*
X16998709Y-14949365D01*
G37*
G36*
X17015547Y-15025816D02*
G01*
X17020284Y-15027217D01*
X17014588Y-15029635D01*
X16998498Y-15033020D01*
X16994007Y-15033767D01*
X16983109Y-15034279D01*
X16981647Y-15031080D01*
X16982221Y-15030387D01*
X16990643Y-15026888D01*
X17004170Y-15025462D01*
X17015547Y-15025816D01*
G37*
G36*
X17023505Y-15180886D02*
G01*
X17026660Y-15187843D01*
X17025913Y-15192688D01*
X17022700Y-15191094D01*
X17018826Y-15187371D01*
X17008259Y-15182466D01*
X17004925Y-15181541D01*
X17003548Y-15180019D01*
X17012219Y-15179214D01*
X17012581Y-15179200D01*
X17023505Y-15180886D01*
G37*
G36*
X16990545Y-15141724D02*
G01*
X16982964Y-15146704D01*
X16981073Y-15154704D01*
X16981821Y-15158699D01*
X16978580Y-15165793D01*
X16975071Y-15164341D01*
X16974850Y-15154081D01*
X16975190Y-15151563D01*
X16979520Y-15141347D01*
X16989777Y-15137729D01*
X17002978Y-15136462D01*
X16990545Y-15141724D01*
G37*
G36*
X17026022Y-15153519D02*
G01*
X17026032Y-15160002D01*
X17022685Y-15166398D01*
X17012219Y-15167321D01*
X17006076Y-15166935D01*
X17002776Y-15166005D01*
X17009254Y-15164356D01*
X17016335Y-15161083D01*
X17023057Y-15150554D01*
X17024080Y-15145820D01*
X17025272Y-15144641D01*
X17026022Y-15153519D01*
G37*
G36*
X16492870Y-14263378D02*
G01*
X16498414Y-14275608D01*
X16501721Y-14283686D01*
X16506551Y-14295480D01*
X16508688Y-14300691D01*
X16506326Y-14302011D01*
X16504509Y-14300606D01*
X16499700Y-14292320D01*
X16494337Y-14279959D01*
X16490034Y-14267423D01*
X16488400Y-14258615D01*
X16489214Y-14257815D01*
X16492870Y-14263378D01*
G37*
G36*
X16702250Y-14873780D02*
G01*
X16711940Y-14880397D01*
X16716127Y-14886597D01*
X16717110Y-14896038D01*
X16709250Y-14904683D01*
X16696839Y-14907669D01*
X16684367Y-14904711D01*
X16676210Y-14895831D01*
X16675832Y-14894451D01*
X16678339Y-14884886D01*
X16686484Y-14876146D01*
X16696700Y-14872323D01*
X16702250Y-14873780D01*
G37*
G36*
X16566492Y-14925266D02*
G01*
X16578442Y-14926335D01*
X16583165Y-14928117D01*
X16581900Y-14935231D01*
X16574191Y-14945349D01*
X16562482Y-14950470D01*
X16550284Y-14949494D01*
X16541106Y-14941319D01*
X16537379Y-14933714D01*
X16537124Y-14927898D01*
X16543873Y-14925560D01*
X16559402Y-14925130D01*
X16566492Y-14925266D01*
G37*
G36*
X17018499Y-15068228D02*
G01*
X17018193Y-15068591D01*
X17010916Y-15071575D01*
X16998117Y-15073942D01*
X16995501Y-15074212D01*
X16985200Y-15074302D01*
X16982177Y-15072468D01*
X16982483Y-15072105D01*
X16989760Y-15069122D01*
X17002559Y-15066755D01*
X17005174Y-15066485D01*
X17015476Y-15066394D01*
X17018499Y-15068228D01*
G37*
G36*
X16564953Y-15069165D02*
G01*
X16574643Y-15075782D01*
X16578830Y-15081981D01*
X16579813Y-15091423D01*
X16571953Y-15100068D01*
X16559542Y-15103054D01*
X16547069Y-15100095D01*
X16538912Y-15091215D01*
X16538534Y-15089836D01*
X16541042Y-15080271D01*
X16549187Y-15071531D01*
X16559402Y-15067708D01*
X16564953Y-15069165D01*
G37*
G36*
X16982253Y-15185788D02*
G01*
X16984496Y-15194278D01*
X16986307Y-15201369D01*
X16993737Y-15201422D01*
X16994329Y-15201216D01*
X16999858Y-15200255D01*
X16996732Y-15204929D01*
X16992527Y-15207865D01*
X16982211Y-15208512D01*
X16977872Y-15204983D01*
X16974337Y-15196362D01*
X16974596Y-15187778D01*
X16979215Y-15183882D01*
X16982253Y-15185788D01*
G37*
G36*
X16891795Y-14176529D02*
G01*
X16889513Y-14182602D01*
X16883551Y-14190906D01*
X16876334Y-14198267D01*
X16870288Y-14201513D01*
X16865519Y-14200005D01*
X16857128Y-14192996D01*
X16854556Y-14189778D01*
X16853434Y-14186121D01*
X16861016Y-14187835D01*
X16868068Y-14188785D01*
X16878784Y-14183316D01*
X16883254Y-14178901D01*
X16890337Y-14175275D01*
X16891795Y-14176529D01*
G37*
G36*
X17024176Y-15082745D02*
G01*
X17025762Y-15086985D01*
X17026741Y-15097632D01*
X17026553Y-15101560D01*
X17022905Y-15108107D01*
X17012219Y-15109234D01*
X17005393Y-15108805D01*
X17002614Y-15107899D01*
X17009579Y-15106226D01*
X17016971Y-15103152D01*
X17021461Y-15096384D01*
X17017545Y-15091035D01*
X17007309Y-15088431D01*
X16994653Y-15088837D01*
X16983492Y-15092101D01*
X16977743Y-15098072D01*
X16977511Y-15099030D01*
X16976086Y-15103022D01*
X16976056Y-15096751D01*
X16977433Y-15091274D01*
X16984258Y-15086271D01*
X16999093Y-15083185D01*
X17004959Y-15082500D01*
X17017836Y-15081807D01*
X17024176Y-15082745D01*
G37*
G36*
X17024375Y-15214961D02*
G01*
X17025841Y-15219093D01*
X17026741Y-15229648D01*
X17026739Y-15230062D01*
X17024132Y-15239297D01*
X17014860Y-15241357D01*
X17012906Y-15241243D01*
X17007519Y-15240238D01*
X17012219Y-15238330D01*
X17017083Y-15235923D01*
X17021461Y-15228381D01*
X17021353Y-15227322D01*
X17015945Y-15222313D01*
X17005294Y-15220912D01*
X16993458Y-15223078D01*
X16984496Y-15228768D01*
X16982500Y-15231353D01*
X16981958Y-15235717D01*
X16990450Y-15236850D01*
X16996184Y-15237026D01*
X16999395Y-15238454D01*
X16993228Y-15242678D01*
X16993151Y-15242722D01*
X16982218Y-15245091D01*
X16975822Y-15239226D01*
X16976236Y-15227196D01*
X16977313Y-15224587D01*
X16985102Y-15217878D01*
X17000798Y-15214618D01*
X17005396Y-15214239D01*
X17018114Y-15213925D01*
X17024375Y-15214961D01*
G37*
G36*
X17042583Y-15292503D02*
G01*
X17043488Y-15292955D01*
X17050441Y-15304913D01*
X17053126Y-15322257D01*
X17051138Y-15340079D01*
X17044405Y-15353768D01*
X17034427Y-15360268D01*
X17015745Y-15363425D01*
X16998909Y-15360346D01*
X16984067Y-15349954D01*
X16977892Y-15338104D01*
X16986402Y-15338104D01*
X16992388Y-15347551D01*
X17004565Y-15356097D01*
X17020382Y-15356724D01*
X17036307Y-15347377D01*
X17037125Y-15346579D01*
X17043978Y-15336205D01*
X17047578Y-15324372D01*
X17047317Y-15314652D01*
X17042583Y-15310618D01*
X17039641Y-15312312D01*
X17037303Y-15320539D01*
X17037296Y-15320891D01*
X17032444Y-15330473D01*
X17021404Y-15337491D01*
X17008378Y-15340214D01*
X16997565Y-15336912D01*
X16993798Y-15334209D01*
X16987245Y-15332891D01*
X16986402Y-15338104D01*
X16977892Y-15338104D01*
X16976025Y-15334521D01*
X16975918Y-15316446D01*
X16984879Y-15298129D01*
X16992082Y-15291434D01*
X17009101Y-15284664D01*
X17027660Y-15285045D01*
X17042583Y-15292503D01*
G37*
G36*
X15996404Y-14464309D02*
G01*
X15998512Y-14463408D01*
X16015317Y-14457399D01*
X16025700Y-14455151D01*
X16028755Y-14455506D01*
X16041949Y-14459412D01*
X16060317Y-14466716D01*
X16080868Y-14476273D01*
X16089351Y-14480427D01*
X16108285Y-14489114D01*
X16118467Y-14493239D01*
X16123160Y-14495140D01*
X16131324Y-14497396D01*
X16132633Y-14497719D01*
X16136315Y-14498626D01*
X16149587Y-14503779D01*
X16168163Y-14512023D01*
X16176554Y-14516050D01*
X16189686Y-14522351D01*
X16205950Y-14530588D01*
X16223518Y-14539921D01*
X16235495Y-14546826D01*
X16239922Y-14550218D01*
X16239129Y-14551233D01*
X16231466Y-14556219D01*
X16217671Y-14563799D01*
X16200221Y-14572749D01*
X16181598Y-14581847D01*
X16164279Y-14589869D01*
X16150744Y-14595593D01*
X16143472Y-14597796D01*
X16141536Y-14598177D01*
X16131163Y-14602114D01*
X16115032Y-14609407D01*
X16095711Y-14618918D01*
X16087466Y-14623104D01*
X16070112Y-14631742D01*
X16057578Y-14637732D01*
X16052146Y-14639974D01*
X16050797Y-14638008D01*
X16049818Y-14629413D01*
X16048348Y-14623254D01*
X16041897Y-14618851D01*
X16038253Y-14618255D01*
X16033976Y-14613571D01*
X16034870Y-14611141D01*
X16041897Y-14608290D01*
X16045591Y-14607370D01*
X16049818Y-14600369D01*
X16047970Y-14596102D01*
X16039673Y-14593265D01*
X16022883Y-14592448D01*
X15995948Y-14592448D01*
X15997838Y-14616211D01*
X15998351Y-14623354D01*
X15998872Y-14635267D01*
X15998537Y-14639974D01*
X15997126Y-14639417D01*
X15988279Y-14635324D01*
X15973218Y-14628123D01*
X15954123Y-14618851D01*
X15944818Y-14614382D01*
X15926013Y-14605847D01*
X15911514Y-14599937D01*
X15903878Y-14597729D01*
X15901797Y-14597368D01*
X15891523Y-14593686D01*
X15876016Y-14586996D01*
X15857760Y-14578505D01*
X15839241Y-14569419D01*
X15822942Y-14560945D01*
X15811350Y-14554289D01*
X15806949Y-14550660D01*
X15810499Y-14546922D01*
X15820150Y-14541458D01*
X15827105Y-14538554D01*
X15832272Y-14539175D01*
X15833311Y-14547223D01*
X15833786Y-14551619D01*
X15839362Y-14559396D01*
X15853113Y-14565552D01*
X15856347Y-14566614D01*
X15870423Y-14571402D01*
X15879517Y-14574749D01*
X15883564Y-14574559D01*
X15886117Y-14567050D01*
X15884666Y-14560721D01*
X15877478Y-14553298D01*
X15873520Y-14551565D01*
X15871738Y-14547846D01*
X15877478Y-14540436D01*
X15879887Y-14537618D01*
X15885768Y-14527043D01*
X15883799Y-14520978D01*
X15874236Y-14520965D01*
X15871453Y-14521057D01*
X15875152Y-14517602D01*
X15883872Y-14512350D01*
X15896679Y-14512350D01*
X15896679Y-14549759D01*
X15896684Y-14551628D01*
X15897286Y-14569582D01*
X15898698Y-14582260D01*
X15900639Y-14587021D01*
X15901968Y-14586563D01*
X15909524Y-14581001D01*
X15920002Y-14571179D01*
X15924045Y-14567270D01*
X15938426Y-14558027D01*
X15955759Y-14555483D01*
X15965587Y-14555012D01*
X15975836Y-14551324D01*
X15982130Y-14542282D01*
X15988287Y-14533418D01*
X15996275Y-14529080D01*
X16001339Y-14530259D01*
X15998068Y-14535417D01*
X15995915Y-14538201D01*
X15992140Y-14551035D01*
X15993142Y-14565458D01*
X15998817Y-14575914D01*
X16001882Y-14578119D01*
X16008256Y-14578575D01*
X16011774Y-14570095D01*
X16012853Y-14551963D01*
X16013020Y-14545662D01*
X16014545Y-14533791D01*
X16017146Y-14529080D01*
X16018265Y-14529876D01*
X16020410Y-14537817D01*
X16021106Y-14551523D01*
X16021154Y-14557187D01*
X16023083Y-14570844D01*
X16026653Y-14574799D01*
X16030422Y-14568883D01*
X16032945Y-14552923D01*
X16033630Y-14545761D01*
X16035991Y-14533804D01*
X16038897Y-14529080D01*
X16040035Y-14530057D01*
X16041325Y-14538285D01*
X16040639Y-14552155D01*
X16040269Y-14556019D01*
X16040531Y-14571217D01*
X16043938Y-14578876D01*
X16049599Y-14578067D01*
X16054462Y-14569864D01*
X16057165Y-14557242D01*
X16056592Y-14543335D01*
X16055900Y-14536512D01*
X16058204Y-14529730D01*
X16063067Y-14531570D01*
X16067829Y-14542282D01*
X16072984Y-14552187D01*
X16084243Y-14555483D01*
X16086577Y-14555536D01*
X16095156Y-14558629D01*
X16097344Y-14568685D01*
X16098655Y-14577368D01*
X16102625Y-14581887D01*
X16105010Y-14578521D01*
X16107104Y-14567079D01*
X16107905Y-14550203D01*
X16113186Y-14550203D01*
X16113542Y-14559713D01*
X16115454Y-14571857D01*
X16118467Y-14576606D01*
X16120369Y-14574824D01*
X16122798Y-14565264D01*
X16123747Y-14550203D01*
X16129028Y-14550203D01*
X16129363Y-14559261D01*
X16131557Y-14563761D01*
X16136949Y-14560764D01*
X16141285Y-14556511D01*
X16144870Y-14550203D01*
X16143569Y-14546940D01*
X16136949Y-14539641D01*
X16155431Y-14539641D01*
X16155433Y-14539707D01*
X16160150Y-14543392D01*
X16171273Y-14544922D01*
X16174858Y-14545006D01*
X16184480Y-14547632D01*
X16187115Y-14555172D01*
X16187960Y-14561237D01*
X16192396Y-14568685D01*
X16193117Y-14568992D01*
X16196426Y-14565170D01*
X16197677Y-14553155D01*
X16197629Y-14547467D01*
X16196087Y-14538379D01*
X16190077Y-14534913D01*
X16176554Y-14534361D01*
X16171819Y-14534495D01*
X16160116Y-14536335D01*
X16155431Y-14539641D01*
X16136949Y-14539641D01*
X16132633Y-14536784D01*
X16129711Y-14539106D01*
X16129028Y-14550203D01*
X16123747Y-14550203D01*
X16123391Y-14540692D01*
X16121479Y-14528549D01*
X16118467Y-14523799D01*
X16116565Y-14525581D01*
X16114136Y-14535141D01*
X16113186Y-14550203D01*
X16107905Y-14550203D01*
X16107344Y-14535894D01*
X16105437Y-14523329D01*
X16102625Y-14518519D01*
X16099152Y-14521796D01*
X16097344Y-14531720D01*
X16095891Y-14539139D01*
X16089304Y-14544815D01*
X16080452Y-14543019D01*
X16072741Y-14533505D01*
X16072211Y-14532369D01*
X16068132Y-14526892D01*
X16060892Y-14523592D01*
X16048026Y-14521780D01*
X16027066Y-14520769D01*
X16018431Y-14520515D01*
X16000638Y-14520513D01*
X15989578Y-14522037D01*
X15982453Y-14525717D01*
X15976466Y-14532185D01*
X15971813Y-14537170D01*
X15956616Y-14544256D01*
X15938323Y-14541405D01*
X15917241Y-14528636D01*
X15896679Y-14512350D01*
X15883872Y-14512350D01*
X15886117Y-14510998D01*
X15894723Y-14506497D01*
X15896679Y-14505624D01*
X15908823Y-14500207D01*
X15917824Y-14497635D01*
X15920513Y-14497099D01*
X15932033Y-14492970D01*
X15949172Y-14485666D01*
X15969315Y-14476273D01*
X15978234Y-14472072D01*
X15993119Y-14465712D01*
X15996404Y-14465712D01*
X15998028Y-14488155D01*
X15998559Y-14494744D01*
X16000682Y-14505513D01*
X16005813Y-14509817D01*
X16016356Y-14510598D01*
X16016529Y-14510598D01*
X16029392Y-14511775D01*
X16037038Y-14514558D01*
X16040078Y-14517039D01*
X16047031Y-14517394D01*
X16049818Y-14508601D01*
X16046845Y-14499983D01*
X16037937Y-14490396D01*
X16026055Y-14482108D01*
X16037937Y-14481831D01*
X16045292Y-14480109D01*
X16049818Y-14473633D01*
X16048038Y-14469421D01*
X16039821Y-14466542D01*
X16023111Y-14465712D01*
X15996404Y-14465712D01*
X15993119Y-14465712D01*
X15996404Y-14464309D01*
G37*
G36*
X17024268Y-14741897D02*
G01*
X17042567Y-14742555D01*
X17062950Y-14750510D01*
X17076136Y-14765890D01*
X17082609Y-14789173D01*
X17082849Y-14820837D01*
X17082117Y-14838647D01*
X17082885Y-14851631D01*
X17085077Y-14856481D01*
X17085167Y-14856509D01*
X17086382Y-14862388D01*
X17087533Y-14877988D01*
X17088598Y-14902522D01*
X17089552Y-14935206D01*
X17090372Y-14975255D01*
X17091036Y-15021884D01*
X17091520Y-15074309D01*
X17091656Y-15094575D01*
X17091917Y-15140741D01*
X17092092Y-15183383D01*
X17092180Y-15221330D01*
X17092180Y-15253408D01*
X17092093Y-15278444D01*
X17091917Y-15295265D01*
X17091651Y-15302697D01*
X17091031Y-15310695D01*
X17090438Y-15326950D01*
X17090181Y-15346263D01*
X17090109Y-15379267D01*
X16940010Y-15379267D01*
X16917367Y-15357045D01*
X16913192Y-15352879D01*
X16901652Y-15339533D01*
X16896136Y-15328035D01*
X16895589Y-15322906D01*
X16963541Y-15322906D01*
X16967945Y-15343801D01*
X16980019Y-15360326D01*
X16997348Y-15370895D01*
X17017513Y-15374037D01*
X17038097Y-15368281D01*
X17039017Y-15367739D01*
X17048326Y-15358331D01*
X17056232Y-15344687D01*
X17057070Y-15342629D01*
X17061597Y-15329149D01*
X17063144Y-15320029D01*
X17061636Y-15311126D01*
X17052087Y-15292420D01*
X17036115Y-15279978D01*
X17015998Y-15275141D01*
X16994012Y-15279254D01*
X16992966Y-15279686D01*
X16975398Y-15289768D01*
X16966266Y-15303206D01*
X16963541Y-15322906D01*
X16895589Y-15322906D01*
X16894725Y-15314800D01*
X16894725Y-15294776D01*
X16850133Y-15294776D01*
X16840645Y-15294741D01*
X16821253Y-15294095D01*
X16808412Y-15292139D01*
X16799209Y-15288234D01*
X16790726Y-15281742D01*
X16775910Y-15268707D01*
X16790431Y-15268540D01*
X16800272Y-15266762D01*
X16804953Y-15261017D01*
X16804883Y-15260452D01*
X16810234Y-15260452D01*
X16813499Y-15266012D01*
X16826076Y-15268373D01*
X16837195Y-15266741D01*
X16841918Y-15260452D01*
X16838653Y-15254893D01*
X16826076Y-15252531D01*
X16814957Y-15254164D01*
X16810234Y-15260452D01*
X16804883Y-15260452D01*
X16804617Y-15258330D01*
X16798740Y-15251351D01*
X16789129Y-15249948D01*
X16780493Y-15255232D01*
X16777446Y-15257875D01*
X16774855Y-15254854D01*
X16773037Y-15245792D01*
X16907351Y-15245792D01*
X16907760Y-15250773D01*
X16911788Y-15248154D01*
X16912741Y-15246120D01*
X16914701Y-15234886D01*
X16916440Y-15215961D01*
X16917913Y-15191318D01*
X16919075Y-15162928D01*
X16919879Y-15132764D01*
X16920281Y-15102797D01*
X16920235Y-15074998D01*
X16919695Y-15051341D01*
X16918745Y-15035888D01*
X16962435Y-15035888D01*
X16962461Y-15063332D01*
X16962723Y-15094204D01*
X16963186Y-15126755D01*
X16963814Y-15159237D01*
X16964572Y-15189901D01*
X16965424Y-15216999D01*
X16966335Y-15238781D01*
X16967269Y-15253499D01*
X16968191Y-15259404D01*
X16974224Y-15261218D01*
X16988026Y-15262253D01*
X17006155Y-15262045D01*
X17015998Y-15261581D01*
X17039943Y-15260452D01*
X17040144Y-15241970D01*
X17053145Y-15241970D01*
X17053460Y-15248859D01*
X17056911Y-15256107D01*
X17066346Y-15257812D01*
X17067997Y-15257786D01*
X17077137Y-15254935D01*
X17079548Y-15245490D01*
X17079031Y-15237721D01*
X17074236Y-15228656D01*
X17062826Y-15226128D01*
X17061295Y-15226195D01*
X17054949Y-15230184D01*
X17053145Y-15241970D01*
X17040144Y-15241970D01*
X17040617Y-15198404D01*
X17054114Y-15198404D01*
X17057707Y-15209430D01*
X17062826Y-15211501D01*
X17066346Y-15212926D01*
X17074733Y-15209730D01*
X17078578Y-15198404D01*
X17079019Y-15191977D01*
X17076252Y-15185355D01*
X17066346Y-15183882D01*
X17060229Y-15184195D01*
X17054313Y-15187881D01*
X17054114Y-15198404D01*
X17040617Y-15198404D01*
X17041120Y-15152198D01*
X17053145Y-15152198D01*
X17053460Y-15159088D01*
X17056911Y-15166335D01*
X17066346Y-15168040D01*
X17072087Y-15167662D01*
X17078127Y-15163520D01*
X17079548Y-15152198D01*
X17079233Y-15145309D01*
X17075781Y-15138061D01*
X17066346Y-15136356D01*
X17060605Y-15136735D01*
X17054565Y-15140877D01*
X17053145Y-15152198D01*
X17041120Y-15152198D01*
X17041353Y-15130726D01*
X17041560Y-15104672D01*
X17053145Y-15104672D01*
X17053460Y-15111562D01*
X17056911Y-15118809D01*
X17066346Y-15120514D01*
X17072087Y-15120136D01*
X17078127Y-15115994D01*
X17079548Y-15104672D01*
X17079233Y-15097783D01*
X17075781Y-15090536D01*
X17066346Y-15088830D01*
X17060605Y-15089209D01*
X17054565Y-15093351D01*
X17053145Y-15104672D01*
X17041560Y-15104672D01*
X17041567Y-15103752D01*
X17041593Y-15070237D01*
X17041502Y-15059787D01*
X17053145Y-15059787D01*
X17053764Y-15070674D01*
X17057418Y-15076888D01*
X17066346Y-15078269D01*
X17074123Y-15077402D01*
X17078562Y-15072286D01*
X17079548Y-15059787D01*
X17078929Y-15048899D01*
X17075274Y-15042685D01*
X17066346Y-15041304D01*
X17058569Y-15042171D01*
X17054131Y-15047288D01*
X17053145Y-15059787D01*
X17041502Y-15059787D01*
X17041340Y-15041363D01*
X17040833Y-15018611D01*
X17040668Y-15015213D01*
X17053145Y-15015213D01*
X17053425Y-15021600D01*
X17056845Y-15028991D01*
X17066346Y-15030743D01*
X17072245Y-15030338D01*
X17078162Y-15026133D01*
X17079548Y-15014735D01*
X17076582Y-15001501D01*
X17068888Y-14994583D01*
X17058678Y-14996263D01*
X17054853Y-15002959D01*
X17053145Y-15015213D01*
X17040668Y-15015213D01*
X17040096Y-15003460D01*
X17039153Y-14997389D01*
X17039146Y-14997382D01*
X17032362Y-14995566D01*
X17018108Y-14994272D01*
X16999458Y-14993778D01*
X16983357Y-14994005D01*
X16970735Y-14995240D01*
X16964686Y-14998057D01*
X16962991Y-15003020D01*
X16962681Y-15013621D01*
X16962435Y-15035888D01*
X16918745Y-15035888D01*
X16918616Y-15033795D01*
X16916953Y-15024334D01*
X16916781Y-15024026D01*
X16915649Y-15027562D01*
X16914667Y-15040029D01*
X16913894Y-15059999D01*
X16913388Y-15086047D01*
X16913207Y-15116746D01*
X16913002Y-15149404D01*
X16912426Y-15179940D01*
X16911545Y-15205988D01*
X16910429Y-15225524D01*
X16909147Y-15236524D01*
X16907351Y-15245792D01*
X16773037Y-15245792D01*
X16772703Y-15244126D01*
X16770532Y-15224270D01*
X16770281Y-15221470D01*
X16769804Y-15213391D01*
X16774049Y-15213391D01*
X16774381Y-15222130D01*
X16778885Y-15227443D01*
X16789688Y-15230643D01*
X16808914Y-15233041D01*
X16819840Y-15233760D01*
X16826076Y-15232777D01*
X16828850Y-15232339D01*
X16831357Y-15227460D01*
X16828719Y-15222279D01*
X16818430Y-15222087D01*
X16814253Y-15222717D01*
X16806780Y-15220696D01*
X16803908Y-15210821D01*
X16803669Y-15209028D01*
X16799541Y-15199687D01*
X16807571Y-15199687D01*
X16810804Y-15202489D01*
X16820795Y-15205005D01*
X16822502Y-15204948D01*
X16831687Y-15201888D01*
X16834466Y-15196310D01*
X16829051Y-15191201D01*
X16826109Y-15190329D01*
X16815846Y-15190380D01*
X16808373Y-15194011D01*
X16807571Y-15199687D01*
X16799541Y-15199687D01*
X16799496Y-15199585D01*
X16789111Y-15197084D01*
X16786127Y-15197184D01*
X16777589Y-15200744D01*
X16774236Y-15211636D01*
X16774049Y-15213391D01*
X16769804Y-15213391D01*
X16769126Y-15201903D01*
X16769223Y-15186612D01*
X16770566Y-15178703D01*
X16771186Y-15176873D01*
X16772920Y-15165887D01*
X16773925Y-15156159D01*
X16779537Y-15156159D01*
X16782605Y-15161812D01*
X16789111Y-15165288D01*
X16792268Y-15166975D01*
X16797113Y-15166914D01*
X16806630Y-15163108D01*
X16812687Y-15156664D01*
X16811948Y-15150392D01*
X16805344Y-15148006D01*
X16793125Y-15146918D01*
X16789583Y-15146998D01*
X16780785Y-15149378D01*
X16779537Y-15156159D01*
X16773925Y-15156159D01*
X16774846Y-15147237D01*
X16776771Y-15122962D01*
X16777251Y-15115234D01*
X16783831Y-15115234D01*
X16785566Y-15122061D01*
X16793125Y-15125259D01*
X16794392Y-15125795D01*
X16801219Y-15124059D01*
X16804953Y-15115234D01*
X16820795Y-15115234D01*
X16823645Y-15123320D01*
X16826109Y-15123909D01*
X16833997Y-15125795D01*
X16844105Y-15123516D01*
X16847199Y-15115234D01*
X16844349Y-15107148D01*
X16833997Y-15104672D01*
X16823889Y-15106952D01*
X16820795Y-15115234D01*
X16804953Y-15115234D01*
X16803218Y-15108406D01*
X16794392Y-15104672D01*
X16787565Y-15106408D01*
X16783831Y-15115234D01*
X16777251Y-15115234D01*
X16778501Y-15095099D01*
X16779134Y-15084339D01*
X16779394Y-15080909D01*
X16783831Y-15080909D01*
X16785692Y-15085448D01*
X16794080Y-15088830D01*
X16794392Y-15088781D01*
X16801491Y-15087645D01*
X16807949Y-15082718D01*
X16807652Y-15081350D01*
X16820795Y-15081350D01*
X16823517Y-15086176D01*
X16833685Y-15088830D01*
X16833997Y-15088820D01*
X16836581Y-15088736D01*
X16847171Y-15085802D01*
X16849870Y-15080218D01*
X16843386Y-15073967D01*
X16834862Y-15071183D01*
X16824837Y-15073101D01*
X16820795Y-15081350D01*
X16807652Y-15081350D01*
X16806570Y-15076365D01*
X16805949Y-15075798D01*
X16797159Y-15072876D01*
X16788037Y-15074929D01*
X16783831Y-15080909D01*
X16779394Y-15080909D01*
X16781243Y-15056506D01*
X16782662Y-15042704D01*
X16783645Y-15042704D01*
X16788333Y-15048745D01*
X16793429Y-15048791D01*
X16797159Y-15046873D01*
X16802855Y-15043944D01*
X16806797Y-15040721D01*
X16820938Y-15040721D01*
X16824857Y-15044806D01*
X16834862Y-15046317D01*
X16836637Y-15046585D01*
X16836829Y-15046585D01*
X16847889Y-15045144D01*
X16852479Y-15041745D01*
X16851045Y-15038023D01*
X16842643Y-15034106D01*
X16830036Y-15034859D01*
X16825938Y-15036205D01*
X16820938Y-15040721D01*
X16806797Y-15040721D01*
X16808441Y-15039376D01*
X16808142Y-15036767D01*
X16798352Y-15036192D01*
X16787921Y-15037874D01*
X16783645Y-15042704D01*
X16782662Y-15042704D01*
X16783724Y-15032371D01*
X16786320Y-15014221D01*
X16788772Y-15004340D01*
X16794825Y-14991905D01*
X16798352Y-14985705D01*
X16805663Y-14972856D01*
X16814903Y-14960594D01*
X16817838Y-14956305D01*
X16963264Y-14956305D01*
X16967169Y-14967892D01*
X16976189Y-14976889D01*
X16987617Y-14980785D01*
X16998743Y-14977069D01*
X16999289Y-14976579D01*
X16999458Y-14976247D01*
X17004334Y-14966644D01*
X17005396Y-14954838D01*
X17029109Y-14954838D01*
X17031894Y-14967136D01*
X17039506Y-14976454D01*
X17051795Y-14980420D01*
X17064470Y-14974605D01*
X17068888Y-14969583D01*
X17070622Y-14967612D01*
X17073850Y-14959956D01*
X17073733Y-14958610D01*
X17069377Y-14945700D01*
X17060581Y-14940972D01*
X17058929Y-14941031D01*
X17055755Y-14943466D01*
X17059568Y-14951401D01*
X17063440Y-14961017D01*
X17059575Y-14968337D01*
X17059119Y-14968784D01*
X17052407Y-14971714D01*
X17044319Y-14966094D01*
X17042939Y-14964675D01*
X17038491Y-14956944D01*
X17042363Y-14949158D01*
X17043285Y-14948030D01*
X17046309Y-14942321D01*
X17041154Y-14940972D01*
X17032847Y-14944829D01*
X17029109Y-14954838D01*
X17005396Y-14954838D01*
X17005476Y-14953950D01*
X17002098Y-14944492D01*
X16997278Y-14942149D01*
X16985508Y-14941033D01*
X16973211Y-14942604D01*
X16965828Y-14946553D01*
X16963264Y-14956305D01*
X16817838Y-14956305D01*
X16817867Y-14956263D01*
X16820795Y-14944702D01*
X16822647Y-14938518D01*
X16831105Y-14932006D01*
X16835435Y-14929569D01*
X16842643Y-14919743D01*
X16844537Y-14917160D01*
X16865943Y-14917160D01*
X16867241Y-14927176D01*
X16875057Y-14930411D01*
X16881611Y-14934538D01*
X16887863Y-14944932D01*
X16890696Y-14951389D01*
X16892671Y-14952385D01*
X16893670Y-14945228D01*
X16894163Y-14928713D01*
X16894667Y-14915308D01*
X16896916Y-14901979D01*
X16902531Y-14891239D01*
X16913227Y-14880137D01*
X16914698Y-14878924D01*
X16956772Y-14878924D01*
X16957610Y-14884449D01*
X16958093Y-14896086D01*
X16960372Y-14906194D01*
X16968654Y-14909288D01*
X16973641Y-14908609D01*
X16978083Y-14903330D01*
X16979215Y-14890438D01*
X16979188Y-14889925D01*
X16995057Y-14889925D01*
X16996523Y-14905762D01*
X17001130Y-14911966D01*
X17009093Y-14908595D01*
X17014859Y-14898972D01*
X17015263Y-14886914D01*
X17012451Y-14880292D01*
X17032798Y-14880292D01*
X17033038Y-14894766D01*
X17033255Y-14897598D01*
X17035187Y-14910411D01*
X17039424Y-14915989D01*
X17047864Y-14917209D01*
X17052922Y-14916903D01*
X17059780Y-14912787D01*
X17060581Y-14909025D01*
X17062211Y-14901367D01*
X17063357Y-14885525D01*
X17056413Y-14900666D01*
X17051262Y-14908732D01*
X17046911Y-14909005D01*
X17044981Y-14901169D01*
X17046383Y-14886510D01*
X17046795Y-14884158D01*
X17046388Y-14874878D01*
X17040255Y-14872323D01*
X17035399Y-14873666D01*
X17032798Y-14880292D01*
X17012451Y-14880292D01*
X17010908Y-14876658D01*
X17002538Y-14872323D01*
X16997121Y-14876340D01*
X16995057Y-14889925D01*
X16979188Y-14889925D01*
X16978604Y-14879088D01*
X16975281Y-14873497D01*
X16967334Y-14873276D01*
X16960137Y-14875233D01*
X16956772Y-14878924D01*
X16914698Y-14878924D01*
X16916781Y-14877207D01*
X16930715Y-14865722D01*
X16930843Y-14865621D01*
X16940003Y-14858930D01*
X16948866Y-14854705D01*
X16960147Y-14852383D01*
X16967334Y-14851954D01*
X16976559Y-14851403D01*
X16985508Y-14851328D01*
X17000816Y-14851201D01*
X17002538Y-14851201D01*
X17040255Y-14851201D01*
X17052648Y-14851201D01*
X17058148Y-14831398D01*
X17061070Y-14820151D01*
X17063200Y-14805156D01*
X17061105Y-14792479D01*
X17054457Y-14777271D01*
X17049422Y-14768435D01*
X17040370Y-14760235D01*
X17026537Y-14757217D01*
X17024268Y-14757086D01*
X17001682Y-14760959D01*
X16976541Y-14773006D01*
X16950439Y-14791910D01*
X16924966Y-14816353D01*
X16901715Y-14845018D01*
X16882278Y-14876588D01*
X16871228Y-14899895D01*
X16865943Y-14917160D01*
X16844537Y-14917160D01*
X16844651Y-14917006D01*
X16854892Y-14894043D01*
X16872301Y-14857678D01*
X16903084Y-14814207D01*
X16943407Y-14773629D01*
X16959509Y-14760307D01*
X16973816Y-14750851D01*
X16987442Y-14745553D01*
X17003926Y-14742600D01*
X17014506Y-14741546D01*
X17024268Y-14741897D01*
G37*
G36*
X16195631Y-14779787D02*
G01*
X16197549Y-14778872D01*
X16205661Y-14784385D01*
X16210494Y-14790257D01*
X16215012Y-14791959D01*
X16217081Y-14784825D01*
X16217289Y-14768030D01*
X16216683Y-14742947D01*
X16289030Y-14741478D01*
X16361377Y-14740009D01*
X16361377Y-15394360D01*
X16313382Y-15396054D01*
X16309619Y-15396175D01*
X16285275Y-15396216D01*
X16268486Y-15394821D01*
X16260719Y-15392101D01*
X16258963Y-15387770D01*
X16256995Y-15374851D01*
X16256356Y-15357777D01*
X16256360Y-15356032D01*
X16255257Y-15335670D01*
X16252483Y-15310574D01*
X16248579Y-15285768D01*
X16247449Y-15279349D01*
X16243245Y-15241219D01*
X16243465Y-15206558D01*
X16244023Y-15182589D01*
X16242272Y-15150949D01*
X16238328Y-15117874D01*
X16233770Y-15087052D01*
X16229189Y-15051026D01*
X16226597Y-15021058D01*
X16225866Y-14994656D01*
X16226872Y-14969328D01*
X16229488Y-14942582D01*
X16231156Y-14927455D01*
X16232969Y-14900146D01*
X16232307Y-14876679D01*
X16229154Y-14852656D01*
X16228584Y-14849432D01*
X16224820Y-14832176D01*
X16221072Y-14820693D01*
X16218076Y-14817324D01*
X16216355Y-14818936D01*
X16213519Y-14827509D01*
X16213468Y-14828207D01*
X16209264Y-14837179D01*
X16200370Y-14848027D01*
X16191950Y-14859086D01*
X16190706Y-14870256D01*
X16191947Y-14875600D01*
X16188280Y-14875683D01*
X16187763Y-14875412D01*
X16182790Y-14878187D01*
X16178906Y-14890487D01*
X16172804Y-14907414D01*
X16162797Y-14922590D01*
X16157562Y-14929080D01*
X16151758Y-14942744D01*
X16150151Y-14962016D01*
X16150031Y-14972072D01*
X16148615Y-14982816D01*
X16144331Y-14987636D01*
X16135629Y-14989467D01*
X16131729Y-14989983D01*
X16125661Y-14992110D01*
X16122272Y-14997566D01*
X16120559Y-15008761D01*
X16119516Y-15028103D01*
X16119141Y-15036376D01*
X16117785Y-15051862D01*
X16114522Y-15063253D01*
X16107776Y-15073236D01*
X16095974Y-15084498D01*
X16077542Y-15099724D01*
X16077257Y-15099971D01*
X16072787Y-15109021D01*
X16070941Y-15122716D01*
X16069548Y-15135155D01*
X16063903Y-15146458D01*
X16055388Y-15149892D01*
X16045593Y-15144113D01*
X16040886Y-15138894D01*
X16039648Y-15136783D01*
X16045626Y-15141061D01*
X16052713Y-15144475D01*
X16061763Y-15143423D01*
X16065660Y-15136045D01*
X16062043Y-15132024D01*
X16052483Y-15131262D01*
X16041017Y-15133845D01*
X16031713Y-15139374D01*
X16027002Y-15145898D01*
X16023415Y-15157856D01*
X16022476Y-15163635D01*
X16018134Y-15168040D01*
X16015523Y-15172014D01*
X16013195Y-15183942D01*
X16011966Y-15201045D01*
X16011078Y-15234049D01*
X16007793Y-15202365D01*
X16006542Y-15192102D01*
X16003985Y-15180745D01*
X16001157Y-15179909D01*
X15998038Y-15189607D01*
X15994608Y-15209848D01*
X15994141Y-15213459D01*
X15993891Y-15229793D01*
X15998128Y-15238070D01*
X16001539Y-15241222D01*
X15996335Y-15240240D01*
X15991494Y-15239661D01*
X15981833Y-15243419D01*
X15975932Y-15245895D01*
X15968794Y-15239566D01*
X15966695Y-15236870D01*
X15962064Y-15233495D01*
X15958276Y-15236782D01*
X15954507Y-15247989D01*
X15949932Y-15268373D01*
X15947231Y-15280263D01*
X15942939Y-15295669D01*
X15939374Y-15304694D01*
X15938060Y-15306493D01*
X15931364Y-15309155D01*
X15925559Y-15303743D01*
X15923082Y-15292136D01*
X15928363Y-15292136D01*
X15928959Y-15295780D01*
X15933643Y-15300057D01*
X15936073Y-15299163D01*
X15938924Y-15292136D01*
X15938328Y-15288492D01*
X15933643Y-15284215D01*
X15931214Y-15285109D01*
X15928363Y-15292136D01*
X15923082Y-15292136D01*
X15922258Y-15282837D01*
X15918525Y-15277336D01*
X15912692Y-15281419D01*
X15905768Y-15294924D01*
X15903472Y-15300135D01*
X15896263Y-15311406D01*
X15889623Y-15315899D01*
X15886009Y-15316529D01*
X15879053Y-15322500D01*
X15877055Y-15323034D01*
X15875973Y-15315011D01*
X15874954Y-15304177D01*
X15872181Y-15292125D01*
X15869030Y-15287568D01*
X15864728Y-15289479D01*
X15861264Y-15298488D01*
X15859795Y-15312677D01*
X15857262Y-15324792D01*
X15847252Y-15337162D01*
X15832149Y-15342134D01*
X15830847Y-15342295D01*
X15821370Y-15347636D01*
X15811353Y-15358144D01*
X15806615Y-15363731D01*
X15794839Y-15372161D01*
X15784263Y-15373419D01*
X15777433Y-15366848D01*
X15771976Y-15362048D01*
X15762173Y-15361979D01*
X15752924Y-15366441D01*
X15748820Y-15374246D01*
X15748736Y-15375443D01*
X15743201Y-15382996D01*
X15731545Y-15387343D01*
X15717347Y-15388209D01*
X15704180Y-15385313D01*
X15695622Y-15378380D01*
X15695140Y-15376262D01*
X15694174Y-15364645D01*
X15693433Y-15348258D01*
X15776876Y-15348258D01*
X15780415Y-15359804D01*
X15787407Y-15366852D01*
X15795839Y-15366379D01*
X15799935Y-15362373D01*
X15800178Y-15352071D01*
X15791347Y-15337151D01*
X15781303Y-15324079D01*
X15777579Y-15338918D01*
X15776876Y-15348258D01*
X15693433Y-15348258D01*
X15693248Y-15344175D01*
X15692388Y-15315997D01*
X15692214Y-15308085D01*
X15728310Y-15308085D01*
X15729261Y-15322573D01*
X15730191Y-15325079D01*
X15731132Y-15320501D01*
X15731468Y-15307978D01*
X15731230Y-15298212D01*
X15730399Y-15292505D01*
X15729189Y-15296169D01*
X15728310Y-15308085D01*
X15692214Y-15308085D01*
X15691623Y-15281256D01*
X15691376Y-15265853D01*
X15754101Y-15265853D01*
X15754341Y-15288118D01*
X15755694Y-15314428D01*
X15758258Y-15330438D01*
X15762058Y-15336269D01*
X15767116Y-15332043D01*
X15768585Y-15328479D01*
X15771004Y-15314160D01*
X15772178Y-15293420D01*
X15772084Y-15269076D01*
X15771989Y-15267355D01*
X15791488Y-15267355D01*
X15791943Y-15276233D01*
X15794586Y-15292277D01*
X15798708Y-15308975D01*
X15803351Y-15322619D01*
X15807557Y-15329502D01*
X15807885Y-15329697D01*
X15810937Y-15329552D01*
X15810997Y-15323195D01*
X15808977Y-15314224D01*
X15829048Y-15314224D01*
X15829158Y-15323478D01*
X15831927Y-15323566D01*
X15836646Y-15315024D01*
X15842605Y-15298386D01*
X15844328Y-15291854D01*
X15847604Y-15272711D01*
X15849993Y-15249247D01*
X15851473Y-15223580D01*
X15851574Y-15218822D01*
X15878872Y-15218822D01*
X15879148Y-15231852D01*
X15879823Y-15236392D01*
X15880871Y-15231408D01*
X15882442Y-15219000D01*
X15883609Y-15212689D01*
X15884383Y-15214824D01*
X15884974Y-15226110D01*
X15885591Y-15247250D01*
X15885883Y-15256285D01*
X15887078Y-15274712D01*
X15888852Y-15282909D01*
X15891246Y-15281111D01*
X15896069Y-15261975D01*
X15898358Y-15234650D01*
X15897648Y-15203184D01*
X15897055Y-15198093D01*
X15923738Y-15198093D01*
X15923800Y-15219010D01*
X15924547Y-15239488D01*
X15925881Y-15253906D01*
X15927659Y-15260017D01*
X15930297Y-15258185D01*
X15933643Y-15250127D01*
X15934314Y-15248513D01*
X15938220Y-15233044D01*
X15941299Y-15213757D01*
X15943248Y-15169888D01*
X15942489Y-15163086D01*
X15966733Y-15163086D01*
X15968234Y-15183173D01*
X15969697Y-15195033D01*
X15971822Y-15206985D01*
X15973863Y-15209979D01*
X15976179Y-15205005D01*
X15979092Y-15188682D01*
X15980134Y-15168002D01*
X15979206Y-15148077D01*
X15978541Y-15144790D01*
X16003779Y-15144790D01*
X16004717Y-15151103D01*
X16005113Y-15151325D01*
X16006988Y-15147089D01*
X16007944Y-15135916D01*
X16008279Y-15128185D01*
X16009615Y-15123477D01*
X16012301Y-15128049D01*
X16013828Y-15131795D01*
X16016697Y-15135157D01*
X16019851Y-15128938D01*
X16019972Y-15128620D01*
X16022854Y-15109293D01*
X16016101Y-15089515D01*
X16015376Y-15088231D01*
X16042419Y-15088231D01*
X16044080Y-15103617D01*
X16048718Y-15112222D01*
X16055697Y-15112224D01*
X16059270Y-15105113D01*
X16059986Y-15091752D01*
X16057835Y-15076368D01*
X16053036Y-15063056D01*
X16049829Y-15057606D01*
X16046947Y-15055568D01*
X16045057Y-15061334D01*
X16043143Y-15076258D01*
X16042419Y-15088231D01*
X16015376Y-15088231D01*
X16015091Y-15087727D01*
X16011715Y-15083190D01*
X16009431Y-15084870D01*
X16007583Y-15094202D01*
X16005512Y-15112623D01*
X16005508Y-15112662D01*
X16004063Y-15130981D01*
X16003779Y-15144790D01*
X15978541Y-15144790D01*
X15976299Y-15133716D01*
X15973944Y-15128160D01*
X15971407Y-15127102D01*
X15968199Y-15135647D01*
X15966808Y-15145619D01*
X15966733Y-15163086D01*
X15942489Y-15163086D01*
X15938621Y-15128435D01*
X15938341Y-15127049D01*
X15935087Y-15106421D01*
X15933117Y-15086190D01*
X15933036Y-15084804D01*
X15932094Y-15077903D01*
X15930844Y-15079934D01*
X15929409Y-15089440D01*
X15927912Y-15104964D01*
X15926474Y-15125048D01*
X15925218Y-15148236D01*
X15924265Y-15173070D01*
X15923738Y-15198093D01*
X15897055Y-15198093D01*
X15893864Y-15170681D01*
X15893305Y-15167289D01*
X15889954Y-15144671D01*
X15887507Y-15124358D01*
X15886461Y-15110393D01*
X15886395Y-15108022D01*
X15885424Y-15097654D01*
X15883822Y-15094646D01*
X15883329Y-15096699D01*
X15882340Y-15107580D01*
X15881296Y-15126116D01*
X15880296Y-15150443D01*
X15879437Y-15178697D01*
X15879024Y-15198335D01*
X15878872Y-15218822D01*
X15851574Y-15218822D01*
X15852020Y-15197829D01*
X15851609Y-15174113D01*
X15850219Y-15154549D01*
X15847824Y-15141258D01*
X15844403Y-15136356D01*
X15843770Y-15137130D01*
X15841964Y-15145681D01*
X15840063Y-15162192D01*
X15838256Y-15184791D01*
X15836734Y-15211606D01*
X15836385Y-15218887D01*
X15834799Y-15247754D01*
X15833062Y-15273984D01*
X15831362Y-15294938D01*
X15829886Y-15307978D01*
X15829048Y-15314224D01*
X15808977Y-15314224D01*
X15807886Y-15309379D01*
X15801425Y-15286855D01*
X15801325Y-15286523D01*
X15796519Y-15272427D01*
X15792988Y-15265542D01*
X15791488Y-15267355D01*
X15771989Y-15267355D01*
X15770700Y-15243946D01*
X15768002Y-15220847D01*
X15766567Y-15212310D01*
X15762959Y-15195912D01*
X15759899Y-15189850D01*
X15757435Y-15193970D01*
X15755615Y-15208115D01*
X15754487Y-15232128D01*
X15754101Y-15265853D01*
X15691376Y-15265853D01*
X15690979Y-15241096D01*
X15690484Y-15196663D01*
X15690164Y-15149101D01*
X15689993Y-15098155D01*
X15690033Y-15044753D01*
X15690415Y-15000431D01*
X15690623Y-14991015D01*
X15707244Y-14991015D01*
X15707394Y-15019817D01*
X15708167Y-15051263D01*
X15709565Y-15083639D01*
X15711592Y-15115234D01*
X15712726Y-15128806D01*
X15713729Y-15136939D01*
X15714513Y-15137362D01*
X15715118Y-15129504D01*
X15715346Y-15121379D01*
X15775889Y-15121379D01*
X15776583Y-15148238D01*
X15776998Y-15154940D01*
X15777557Y-15156765D01*
X15777776Y-15153137D01*
X15807314Y-15153137D01*
X15807920Y-15181722D01*
X15809144Y-15207696D01*
X15810940Y-15229469D01*
X15813258Y-15245453D01*
X15816051Y-15254059D01*
X15819269Y-15253699D01*
X15820217Y-15249438D01*
X15821551Y-15235603D01*
X15822884Y-15213860D01*
X15824140Y-15185731D01*
X15825242Y-15152738D01*
X15826116Y-15116402D01*
X15826744Y-15075456D01*
X15826823Y-15042375D01*
X15860800Y-15042375D01*
X15861497Y-15053186D01*
X15863331Y-15054082D01*
X15864161Y-15046585D01*
X15863425Y-15039321D01*
X15861497Y-15039984D01*
X15860800Y-15042375D01*
X15826823Y-15042375D01*
X15826829Y-15039858D01*
X15826739Y-15035932D01*
X15899585Y-15035932D01*
X15900489Y-15060872D01*
X15902172Y-15086375D01*
X15904464Y-15109122D01*
X15907194Y-15125795D01*
X15907605Y-15127422D01*
X15909330Y-15129580D01*
X15910562Y-15121804D01*
X15911319Y-15103890D01*
X15911619Y-15075629D01*
X15911622Y-15071434D01*
X15911220Y-15042348D01*
X16074848Y-15042348D01*
X16075219Y-15054506D01*
X16075524Y-15056961D01*
X16077537Y-15068356D01*
X16079439Y-15072988D01*
X16079708Y-15072832D01*
X16080983Y-15066731D01*
X16081502Y-15054506D01*
X16081466Y-15052090D01*
X16081438Y-15051866D01*
X16102625Y-15051866D01*
X16102625Y-15052063D01*
X16104198Y-15063119D01*
X16107905Y-15067708D01*
X16107971Y-15067707D01*
X16111656Y-15062989D01*
X16113186Y-15051866D01*
X16113186Y-15051669D01*
X16111613Y-15040613D01*
X16107905Y-15036024D01*
X16107840Y-15036025D01*
X16104154Y-15040743D01*
X16102625Y-15051866D01*
X16081438Y-15051866D01*
X16080072Y-15040669D01*
X16077282Y-15036024D01*
X16076713Y-15036205D01*
X16074848Y-15042348D01*
X15911220Y-15042348D01*
X15911200Y-15040893D01*
X15910348Y-15022822D01*
X15923082Y-15022822D01*
X15925722Y-15025462D01*
X15928363Y-15022822D01*
X15925722Y-15020182D01*
X15923082Y-15022822D01*
X15910348Y-15022822D01*
X15910063Y-15016777D01*
X15908333Y-14999913D01*
X15906129Y-14991129D01*
X15903571Y-14991251D01*
X15900780Y-15001106D01*
X15899632Y-15014872D01*
X15899585Y-15035932D01*
X15826739Y-15035932D01*
X15826249Y-15014600D01*
X15824987Y-14999575D01*
X15823024Y-14994677D01*
X15820341Y-14999798D01*
X15816919Y-15014834D01*
X15812740Y-15039676D01*
X15812056Y-15044445D01*
X15809699Y-15067594D01*
X15808156Y-15094484D01*
X15807377Y-15123528D01*
X15807314Y-15153137D01*
X15777776Y-15153137D01*
X15778003Y-15149347D01*
X15778299Y-15133479D01*
X15778406Y-15109953D01*
X15778358Y-15093524D01*
X15778121Y-15074992D01*
X15777722Y-15064644D01*
X15777197Y-15063272D01*
X15776583Y-15071668D01*
X15775982Y-15091612D01*
X15775889Y-15121379D01*
X15715346Y-15121379D01*
X15715588Y-15112796D01*
X15715962Y-15086666D01*
X15716282Y-15050546D01*
X15716375Y-15015112D01*
X15715998Y-14981067D01*
X15715106Y-14956170D01*
X15713720Y-14940889D01*
X15711855Y-14935691D01*
X15710509Y-14937600D01*
X15708804Y-14948193D01*
X15707715Y-14966569D01*
X15707244Y-14991015D01*
X15690623Y-14991015D01*
X15691211Y-14964373D01*
X15692494Y-14935765D01*
X15694335Y-14913793D01*
X15696807Y-14897643D01*
X15699982Y-14886499D01*
X15703931Y-14879547D01*
X15708728Y-14875974D01*
X15711855Y-14875421D01*
X15714444Y-14874964D01*
X15721783Y-14877231D01*
X15727646Y-14888165D01*
X15730399Y-14894587D01*
X15731366Y-14896842D01*
X15738207Y-14901367D01*
X15739726Y-14901538D01*
X15745453Y-14906682D01*
X15749625Y-14919651D01*
X15752440Y-14941343D01*
X15754100Y-14972656D01*
X15755349Y-15012261D01*
X15759899Y-14987991D01*
X15760299Y-14985857D01*
X15761958Y-14977057D01*
X15765220Y-14959997D01*
X15767534Y-14948221D01*
X15769806Y-14943741D01*
X15788877Y-14943741D01*
X15791344Y-14962766D01*
X15792988Y-14971051D01*
X15796449Y-14988498D01*
X15798326Y-14996391D01*
X15799773Y-14999430D01*
X15800388Y-14993552D01*
X15800484Y-14977937D01*
X15800389Y-14969298D01*
X15800190Y-14966055D01*
X15838993Y-14966055D01*
X15839395Y-14991138D01*
X15844403Y-14978134D01*
X15846512Y-14972656D01*
X15849282Y-14965198D01*
X15853375Y-14950638D01*
X15852452Y-14943113D01*
X15846512Y-14940972D01*
X15842601Y-14942378D01*
X15839628Y-14950009D01*
X15838993Y-14966055D01*
X15800190Y-14966055D01*
X15799033Y-14947169D01*
X15795959Y-14934469D01*
X15791010Y-14930411D01*
X15789168Y-14932702D01*
X15788877Y-14943741D01*
X15769806Y-14943741D01*
X15772520Y-14938389D01*
X15777197Y-14933898D01*
X15781303Y-14929955D01*
X15782918Y-14928404D01*
X15791010Y-14923102D01*
X15796018Y-14919821D01*
X15803332Y-14944905D01*
X15803840Y-14946631D01*
X15808289Y-14959775D01*
X15811423Y-14963700D01*
X15813996Y-14959437D01*
X15814220Y-14958809D01*
X15821684Y-14949456D01*
X15823024Y-14948594D01*
X15834127Y-14941457D01*
X15835517Y-14940845D01*
X15846512Y-14937061D01*
X15846695Y-14936998D01*
X15854251Y-14939103D01*
X15863232Y-14948356D01*
X15863425Y-14948663D01*
X15871395Y-14961360D01*
X15876082Y-14984832D01*
X15876154Y-14987608D01*
X15876810Y-14998800D01*
X15878202Y-15000539D01*
X15880837Y-14993778D01*
X15880963Y-14993378D01*
X15881854Y-14989050D01*
X16015212Y-14989050D01*
X16015544Y-15004635D01*
X16016768Y-15020692D01*
X16018720Y-15033882D01*
X16021234Y-15040864D01*
X16021259Y-15040887D01*
X16022346Y-15037034D01*
X16023120Y-15025187D01*
X16023415Y-15007860D01*
X16022862Y-14991202D01*
X16020922Y-14977607D01*
X16017867Y-14972656D01*
X16045787Y-14972656D01*
X16046810Y-14985442D01*
X16046947Y-14986184D01*
X16049818Y-15001699D01*
X16052250Y-15010653D01*
X16053568Y-15012215D01*
X16053849Y-15004340D01*
X16052826Y-14991554D01*
X16052657Y-14990639D01*
X16095518Y-14990639D01*
X16095814Y-14999059D01*
X16097826Y-15005266D01*
X16100600Y-15009620D01*
X16101773Y-15007655D01*
X16102625Y-14999059D01*
X16101729Y-14992925D01*
X16097838Y-14988498D01*
X16095518Y-14990639D01*
X16052657Y-14990639D01*
X16050795Y-14980577D01*
X16139589Y-14980577D01*
X16142230Y-14983217D01*
X16144870Y-14980577D01*
X16142230Y-14977937D01*
X16139589Y-14980577D01*
X16050795Y-14980577D01*
X16049818Y-14975296D01*
X16047386Y-14966343D01*
X16046068Y-14964781D01*
X16045787Y-14972656D01*
X16017867Y-14972656D01*
X16015937Y-14977277D01*
X16015212Y-14989050D01*
X15881854Y-14989050D01*
X15883822Y-14979490D01*
X15884024Y-14978510D01*
X15885591Y-14961421D01*
X15886955Y-14949403D01*
X15889053Y-14944739D01*
X15891508Y-14944739D01*
X15894237Y-14951491D01*
X15904603Y-14954935D01*
X15906129Y-14954845D01*
X15913299Y-14954421D01*
X15917801Y-14951621D01*
X15917791Y-14951295D01*
X15913428Y-14943946D01*
X15904721Y-14938454D01*
X15896910Y-14938189D01*
X15891508Y-14944739D01*
X15889053Y-14944739D01*
X15892605Y-14936844D01*
X15896910Y-14934924D01*
X15901539Y-14932860D01*
X15912620Y-14938421D01*
X15919390Y-14948066D01*
X15923082Y-14962601D01*
X15924476Y-14973397D01*
X15925722Y-14975699D01*
X15928363Y-14980577D01*
X15931382Y-14980719D01*
X15932094Y-14978722D01*
X15933673Y-14974288D01*
X15935301Y-14959971D01*
X15939824Y-14943598D01*
X15941784Y-14939218D01*
X15950251Y-14939218D01*
X15958413Y-14950024D01*
X15970608Y-14961717D01*
X15970608Y-14949351D01*
X15969937Y-14943025D01*
X15968443Y-14939769D01*
X15994735Y-14939769D01*
X15995609Y-14943554D01*
X15999709Y-14939147D01*
X16004337Y-14934244D01*
X16011715Y-14930608D01*
X16012115Y-14930411D01*
X16017169Y-14926718D01*
X16017369Y-14922490D01*
X16082091Y-14922490D01*
X16083823Y-14932710D01*
X16089423Y-14946253D01*
X16094278Y-14953679D01*
X16096469Y-14953991D01*
X16094851Y-14945962D01*
X16089423Y-14930411D01*
X16087369Y-14925365D01*
X16084736Y-14920919D01*
X16114272Y-14920919D01*
X16114969Y-14931731D01*
X16116803Y-14932626D01*
X16117633Y-14925130D01*
X16116897Y-14917866D01*
X16114969Y-14918529D01*
X16114272Y-14920919D01*
X16084736Y-14920919D01*
X16083519Y-14918865D01*
X16082091Y-14922490D01*
X16017369Y-14922490D01*
X16017545Y-14918773D01*
X16012853Y-14911928D01*
X16007139Y-14910178D01*
X16000143Y-14915707D01*
X15995775Y-14931161D01*
X15994735Y-14939769D01*
X15968443Y-14939769D01*
X15965244Y-14932802D01*
X15958162Y-14928256D01*
X15951193Y-14931666D01*
X15950251Y-14939218D01*
X15941784Y-14939218D01*
X15945874Y-14930082D01*
X15952076Y-14923239D01*
X15957806Y-14922941D01*
X15958162Y-14923127D01*
X15967438Y-14927995D01*
X15968710Y-14929200D01*
X15971407Y-14930680D01*
X15979323Y-14935024D01*
X15988085Y-14933920D01*
X15991731Y-14926139D01*
X15993066Y-14918788D01*
X15998925Y-14906748D01*
X16003645Y-14900969D01*
X16007139Y-14900628D01*
X16008364Y-14900508D01*
X16015573Y-14907950D01*
X16017867Y-14910490D01*
X16018627Y-14911331D01*
X16025546Y-14915698D01*
X16031881Y-14912137D01*
X16037152Y-14904346D01*
X16037780Y-14902732D01*
X16044618Y-14902732D01*
X16044645Y-14903884D01*
X16046068Y-14905557D01*
X16047050Y-14906712D01*
X16055099Y-14902782D01*
X16060940Y-14898636D01*
X16062555Y-14895980D01*
X16145998Y-14895980D01*
X16146630Y-14902247D01*
X16148219Y-14903073D01*
X16150151Y-14898727D01*
X16149770Y-14895931D01*
X16146630Y-14895206D01*
X16145998Y-14895980D01*
X16062555Y-14895980D01*
X16065269Y-14891516D01*
X16059789Y-14885160D01*
X16053833Y-14885133D01*
X16047482Y-14891881D01*
X16044618Y-14902732D01*
X16037780Y-14902732D01*
X16042282Y-14891150D01*
X16047431Y-14880592D01*
X16053833Y-14878800D01*
X16057065Y-14877895D01*
X16061944Y-14878226D01*
X16074578Y-14877599D01*
X16077282Y-14875246D01*
X16080213Y-14872695D01*
X16081325Y-14863261D01*
X16087555Y-14863261D01*
X16088600Y-14873744D01*
X16088810Y-14874215D01*
X16090463Y-14873421D01*
X16091034Y-14864402D01*
X16090999Y-14862762D01*
X16090085Y-14855748D01*
X16088404Y-14857902D01*
X16087555Y-14863261D01*
X16081325Y-14863261D01*
X16081502Y-14861762D01*
X16081688Y-14858357D01*
X16083519Y-14853673D01*
X16085639Y-14848247D01*
X16090085Y-14846483D01*
X16092694Y-14845448D01*
X16097838Y-14849598D01*
X16100143Y-14851457D01*
X16105270Y-14854569D01*
X16107905Y-14852715D01*
X16111416Y-14850244D01*
X16116408Y-14840187D01*
X16116897Y-14837006D01*
X16118415Y-14827126D01*
X16123747Y-14827126D01*
X16124394Y-14831060D01*
X16129028Y-14835359D01*
X16130281Y-14835216D01*
X16134309Y-14830390D01*
X16134107Y-14828908D01*
X16129028Y-14822157D01*
X16126307Y-14821660D01*
X16123747Y-14827126D01*
X16118415Y-14827126D01*
X16118467Y-14826791D01*
X16118491Y-14824991D01*
X16120664Y-14812825D01*
X16125472Y-14808844D01*
X16126307Y-14809571D01*
X16131668Y-14814236D01*
X16133846Y-14816960D01*
X16142230Y-14819940D01*
X16142759Y-14820128D01*
X16146630Y-14818232D01*
X16151573Y-14815812D01*
X16156401Y-14805402D01*
X16159524Y-14795368D01*
X16165993Y-14788701D01*
X16167563Y-14788213D01*
X16171166Y-14788386D01*
X16167056Y-14794425D01*
X16163628Y-14799998D01*
X16165736Y-14806156D01*
X16167995Y-14807078D01*
X16171273Y-14804152D01*
X16172402Y-14801802D01*
X16179194Y-14801765D01*
X16184694Y-14801866D01*
X16187115Y-14793990D01*
X16187128Y-14793110D01*
X16188825Y-14787521D01*
X16192396Y-14787521D01*
X16192599Y-14789054D01*
X16197677Y-14793113D01*
X16198872Y-14793053D01*
X16202957Y-14790785D01*
X16202714Y-14789937D01*
X16197677Y-14785192D01*
X16195631Y-14784367D01*
X16192396Y-14787521D01*
X16188825Y-14787521D01*
X16190419Y-14782273D01*
X16195631Y-14779787D01*
G37*
G36*
X15968993Y-13837313D02*
G01*
X16023415Y-13837313D01*
X16123747Y-13837313D01*
X16232001Y-13837313D01*
X16381996Y-13837313D01*
X16422105Y-13837313D01*
X17148197Y-13837313D01*
X17148197Y-15537687D01*
X15616804Y-15537687D01*
X15616804Y-15404515D01*
X15680171Y-15404515D01*
X15697334Y-15406413D01*
X15697605Y-15406439D01*
X15706616Y-15406745D01*
X15725150Y-15406984D01*
X15752244Y-15407154D01*
X15786934Y-15407255D01*
X15828255Y-15407286D01*
X15875243Y-15407246D01*
X15926936Y-15407135D01*
X15982368Y-15406951D01*
X16040577Y-15406694D01*
X16366658Y-15405078D01*
X16366658Y-15400390D01*
X16757427Y-15400390D01*
X17105951Y-15400390D01*
X17105951Y-15065067D01*
X17105928Y-14996678D01*
X17105847Y-14938044D01*
X17105692Y-14888495D01*
X17105443Y-14847290D01*
X17105085Y-14813692D01*
X17104599Y-14786962D01*
X17103968Y-14766360D01*
X17103175Y-14751147D01*
X17102202Y-14740585D01*
X17101032Y-14733935D01*
X17099647Y-14730458D01*
X17098030Y-14729415D01*
X17092873Y-14729290D01*
X17078792Y-14729143D01*
X17061066Y-14729085D01*
X17051475Y-14729093D01*
X17031195Y-14729124D01*
X17003575Y-14729175D01*
X16970419Y-14729243D01*
X16933534Y-14729325D01*
X16894725Y-14729415D01*
X16757427Y-14729745D01*
X16757427Y-15400390D01*
X16366658Y-15400390D01*
X16366658Y-15231408D01*
X16381996Y-15231408D01*
X16383568Y-15264413D01*
X16383773Y-15268628D01*
X16384973Y-15284931D01*
X16387304Y-15293741D01*
X16392002Y-15297625D01*
X16400305Y-15299150D01*
X16412101Y-15298838D01*
X16421027Y-15295326D01*
X16421814Y-15294645D01*
X16430173Y-15293853D01*
X16444147Y-15300625D01*
X16461710Y-15311480D01*
X16461710Y-15296346D01*
X16461551Y-15292750D01*
X16457045Y-15280946D01*
X16444548Y-15270832D01*
X16427386Y-15260452D01*
X16444548Y-15258797D01*
X16452131Y-15257711D01*
X16459825Y-15253506D01*
X16461710Y-15244276D01*
X16461560Y-15239868D01*
X16459717Y-15235093D01*
X16453963Y-15232569D01*
X16442080Y-15231579D01*
X16421853Y-15231408D01*
X16381996Y-15231408D01*
X16366658Y-15231408D01*
X16366658Y-15207645D01*
X16382500Y-15207645D01*
X16382500Y-15207833D01*
X16383218Y-15215104D01*
X16387012Y-15218996D01*
X16396377Y-15220560D01*
X16413807Y-15220847D01*
X16421679Y-15220715D01*
X16441943Y-15218261D01*
X16453412Y-15212549D01*
X16454187Y-15211692D01*
X16459562Y-15199877D01*
X16460288Y-15194444D01*
X16657095Y-15194444D01*
X16657208Y-15196887D01*
X16659763Y-15202089D01*
X16667661Y-15204449D01*
X16683498Y-15205005D01*
X16689605Y-15204960D01*
X16702611Y-15203938D01*
X16708511Y-15200779D01*
X16709901Y-15194444D01*
X16720463Y-15194444D01*
X16721933Y-15200603D01*
X16728384Y-15205005D01*
X16733003Y-15203045D01*
X16736305Y-15194444D01*
X16734834Y-15188285D01*
X16728384Y-15183882D01*
X16723764Y-15185843D01*
X16720463Y-15194444D01*
X16709901Y-15194444D01*
X16709788Y-15192001D01*
X16707233Y-15186799D01*
X16699335Y-15184438D01*
X16683498Y-15183882D01*
X16677391Y-15183928D01*
X16664385Y-15184950D01*
X16658485Y-15188109D01*
X16657095Y-15194444D01*
X16460288Y-15194444D01*
X16461710Y-15183805D01*
X16459759Y-15169018D01*
X16451291Y-15156250D01*
X16435169Y-15149128D01*
X16410369Y-15146918D01*
X16397574Y-15147092D01*
X16387443Y-15148514D01*
X16383297Y-15152441D01*
X16382500Y-15160119D01*
X16382922Y-15166465D01*
X16386065Y-15171080D01*
X16394548Y-15172962D01*
X16410979Y-15173321D01*
X16419722Y-15173505D01*
X16435567Y-15175757D01*
X16442299Y-15180726D01*
X16443609Y-15186690D01*
X16440320Y-15191487D01*
X16429902Y-15193827D01*
X16410664Y-15194444D01*
X16397435Y-15194628D01*
X16387390Y-15196067D01*
X16383286Y-15199997D01*
X16382500Y-15207645D01*
X16366658Y-15207645D01*
X16366658Y-15142693D01*
X16657095Y-15142693D01*
X16657137Y-15148552D01*
X16658177Y-15161166D01*
X16661507Y-15166769D01*
X16668316Y-15168040D01*
X16673630Y-15167587D01*
X16677533Y-15163447D01*
X16676410Y-15152403D01*
X16675440Y-15141521D01*
X16677591Y-15134538D01*
X16681702Y-15135480D01*
X16683498Y-15139711D01*
X16685999Y-15145605D01*
X16688903Y-15154972D01*
X16697729Y-15168825D01*
X16710171Y-15173321D01*
X16712647Y-15173241D01*
X16723779Y-15169598D01*
X16728384Y-15163167D01*
X16730955Y-15159576D01*
X16734754Y-15141861D01*
X16735753Y-15115135D01*
X16735628Y-15103431D01*
X16734840Y-15086396D01*
X16732708Y-15075779D01*
X16728471Y-15068814D01*
X16721370Y-15062735D01*
X16707261Y-15052200D01*
X16721783Y-15052033D01*
X16726358Y-15051817D01*
X16734347Y-15048430D01*
X16736305Y-15038664D01*
X16736159Y-15034027D01*
X16734349Y-15029168D01*
X16728653Y-15026615D01*
X16716844Y-15025627D01*
X16696700Y-15025462D01*
X16682789Y-15025511D01*
X16668211Y-15026114D01*
X16660552Y-15028013D01*
X16657588Y-15031949D01*
X16657095Y-15038664D01*
X16657275Y-15042826D01*
X16660899Y-15050130D01*
X16671616Y-15052033D01*
X16686138Y-15052200D01*
X16671616Y-15063035D01*
X16661799Y-15073210D01*
X16657095Y-15086631D01*
X16657389Y-15092800D01*
X16660103Y-15098445D01*
X16666794Y-15096067D01*
X16678830Y-15085603D01*
X16693223Y-15071813D01*
X16713094Y-15086923D01*
X16719892Y-15092168D01*
X16727362Y-15098886D01*
X16727514Y-15102154D01*
X16721204Y-15103750D01*
X16715629Y-15105097D01*
X16712157Y-15109244D01*
X16713309Y-15118244D01*
X16718907Y-15134502D01*
X16719376Y-15136740D01*
X16716105Y-15143707D01*
X16711498Y-15141734D01*
X16707400Y-15132389D01*
X16703459Y-15120437D01*
X16694456Y-15108405D01*
X16681267Y-15104672D01*
X16677335Y-15104864D01*
X16665561Y-15109665D01*
X16659079Y-15121859D01*
X16657095Y-15142693D01*
X16366658Y-15142693D01*
X16366658Y-15104672D01*
X16382500Y-15104672D01*
X16382516Y-15108490D01*
X16383352Y-15125297D01*
X16385822Y-15133923D01*
X16390421Y-15136356D01*
X16391142Y-15136323D01*
X16396624Y-15131544D01*
X16398342Y-15117874D01*
X16398356Y-15116191D01*
X16400404Y-15103400D01*
X16406263Y-15099392D01*
X16410369Y-15101803D01*
X16411822Y-15102657D01*
X16414184Y-15115234D01*
X16415816Y-15126353D01*
X16422105Y-15131076D01*
X16427664Y-15127811D01*
X16430026Y-15115234D01*
X16431658Y-15104115D01*
X16437947Y-15099392D01*
X16438668Y-15099425D01*
X16444150Y-15104204D01*
X16445868Y-15117874D01*
X16445882Y-15119557D01*
X16447930Y-15132349D01*
X16453789Y-15136356D01*
X16454743Y-15136294D01*
X16458945Y-15132947D01*
X16461102Y-15123070D01*
X16461710Y-15104672D01*
X16461710Y-15087102D01*
X16519806Y-15087102D01*
X16522326Y-15104541D01*
X16529454Y-15117056D01*
X16542559Y-15123631D01*
X16560314Y-15125787D01*
X16577754Y-15123266D01*
X16590268Y-15116138D01*
X16596843Y-15103033D01*
X16598999Y-15085279D01*
X16596478Y-15067839D01*
X16589350Y-15055325D01*
X16576245Y-15048750D01*
X16558491Y-15046594D01*
X16541051Y-15049114D01*
X16528537Y-15056242D01*
X16521962Y-15069347D01*
X16519806Y-15087102D01*
X16461710Y-15087102D01*
X16461710Y-15072988D01*
X16382500Y-15072988D01*
X16382500Y-15104672D01*
X16366658Y-15104672D01*
X16366658Y-15030743D01*
X16382500Y-15030743D01*
X16382615Y-15042316D01*
X16383654Y-15057717D01*
X16386117Y-15065534D01*
X16390421Y-15067708D01*
X16395588Y-15065124D01*
X16398342Y-15054506D01*
X16398343Y-15054043D01*
X16399105Y-15046920D01*
X16402986Y-15043111D01*
X16412466Y-15041584D01*
X16430026Y-15041304D01*
X16431137Y-15041304D01*
X16448232Y-15040987D01*
X16457373Y-15039370D01*
X16461039Y-15035419D01*
X16461710Y-15028103D01*
X16461709Y-15027640D01*
X16460947Y-15020517D01*
X16457066Y-15016708D01*
X16447586Y-15015181D01*
X16430026Y-15014901D01*
X16415993Y-15014707D01*
X16404576Y-15013426D01*
X16402720Y-15012261D01*
X16519797Y-15012261D01*
X16520119Y-15022340D01*
X16522497Y-15032914D01*
X16527718Y-15036024D01*
X16531362Y-15035428D01*
X16535639Y-15030743D01*
X16536730Y-15029165D01*
X16545231Y-15026511D01*
X16558491Y-15025530D01*
X16559402Y-15025462D01*
X16566504Y-15025705D01*
X16578445Y-15027594D01*
X16583165Y-15030743D01*
X16584059Y-15033172D01*
X16591086Y-15036024D01*
X16594446Y-15035058D01*
X16597971Y-15027923D01*
X16599007Y-15012261D01*
X16598685Y-15002182D01*
X16596307Y-14991608D01*
X16591086Y-14988498D01*
X16587442Y-14989094D01*
X16583165Y-14993778D01*
X16582075Y-14995357D01*
X16573574Y-14998010D01*
X16559402Y-14999059D01*
X16552301Y-14998817D01*
X16540359Y-14996928D01*
X16535639Y-14993778D01*
X16534746Y-14991349D01*
X16527718Y-14988498D01*
X16524359Y-14989464D01*
X16520834Y-14996598D01*
X16519797Y-15012261D01*
X16402720Y-15012261D01*
X16399498Y-15010239D01*
X16398342Y-15004340D01*
X16396872Y-14998181D01*
X16390421Y-14993778D01*
X16387941Y-14994317D01*
X16384641Y-14999165D01*
X16382966Y-15010660D01*
X16382500Y-15030743D01*
X16366658Y-15030743D01*
X16366658Y-14950825D01*
X16382526Y-14950825D01*
X16382619Y-14953642D01*
X16384496Y-14960243D01*
X16390350Y-14965677D01*
X16390421Y-14965712D01*
X16402216Y-14971380D01*
X16422131Y-14978790D01*
X16461710Y-14992845D01*
X16461710Y-14979944D01*
X16459897Y-14971059D01*
X16453789Y-14964004D01*
X16448817Y-14959279D01*
X16445868Y-14948328D01*
X16447399Y-14940250D01*
X16453789Y-14935691D01*
X16458956Y-14933107D01*
X16460440Y-14927387D01*
X16519797Y-14927387D01*
X16519854Y-14933795D01*
X16521206Y-14949091D01*
X16525377Y-14958882D01*
X16533711Y-14966992D01*
X16533771Y-14967039D01*
X16547034Y-14974737D01*
X16559402Y-14977937D01*
X16559453Y-14977936D01*
X16571844Y-14974706D01*
X16585093Y-14966992D01*
X16588183Y-14964445D01*
X16591086Y-14960991D01*
X16595092Y-14956225D01*
X16598252Y-14945147D01*
X16598430Y-14940972D01*
X16656591Y-14940972D01*
X16658163Y-14973976D01*
X16658368Y-14978192D01*
X16659568Y-14994495D01*
X16661898Y-15003304D01*
X16666597Y-15007188D01*
X16674900Y-15008713D01*
X16686696Y-15008401D01*
X16695621Y-15004890D01*
X16696409Y-15004209D01*
X16696700Y-15004181D01*
X16704768Y-15003417D01*
X16718741Y-15010188D01*
X16736305Y-15021043D01*
X16736305Y-15005909D01*
X16736145Y-15002314D01*
X16731640Y-14990510D01*
X16719142Y-14980395D01*
X16701980Y-14970016D01*
X16719142Y-14968361D01*
X16726725Y-14967274D01*
X16734420Y-14963069D01*
X16736305Y-14953839D01*
X16736155Y-14949431D01*
X16734312Y-14944657D01*
X16728557Y-14942133D01*
X16716675Y-14941143D01*
X16696448Y-14940972D01*
X16656591Y-14940972D01*
X16598430Y-14940972D01*
X16599007Y-14927387D01*
X16599007Y-14898727D01*
X16519797Y-14898727D01*
X16519797Y-14927387D01*
X16460440Y-14927387D01*
X16461710Y-14922490D01*
X16461131Y-14913820D01*
X16459372Y-14909288D01*
X16459030Y-14909340D01*
X16451901Y-14911580D01*
X16437941Y-14916472D01*
X16419767Y-14923101D01*
X16415697Y-14924619D01*
X16398057Y-14931716D01*
X16388033Y-14937419D01*
X16383548Y-14943273D01*
X16382526Y-14950825D01*
X16366658Y-14950825D01*
X16366658Y-14904007D01*
X16382500Y-14904007D01*
X16422105Y-14904007D01*
X16436016Y-14903959D01*
X16450594Y-14903355D01*
X16458253Y-14901457D01*
X16459372Y-14899970D01*
X16461216Y-14897520D01*
X16461710Y-14890806D01*
X16460564Y-14882349D01*
X16454977Y-14878400D01*
X16441907Y-14877443D01*
X16431359Y-14877034D01*
X16427178Y-14875392D01*
X16431346Y-14871900D01*
X16436413Y-14867315D01*
X16440587Y-14856606D01*
X16439109Y-14850859D01*
X16431346Y-14844279D01*
X16429685Y-14843667D01*
X16431661Y-14842150D01*
X16441907Y-14841252D01*
X16454366Y-14840119D01*
X16460379Y-14836206D01*
X16461710Y-14827438D01*
X16461564Y-14822801D01*
X16459755Y-14817941D01*
X16454058Y-14815388D01*
X16442250Y-14814400D01*
X16422105Y-14814236D01*
X16382500Y-14814236D01*
X16382500Y-14829437D01*
X16382772Y-14834553D01*
X16387161Y-14844459D01*
X16399171Y-14851544D01*
X16415841Y-14858449D01*
X16399171Y-14866344D01*
X16394789Y-14868584D01*
X16385122Y-14877037D01*
X16382500Y-14889123D01*
X16382500Y-14904007D01*
X16366658Y-14904007D01*
X16366658Y-14766002D01*
X16382526Y-14766002D01*
X16382619Y-14768818D01*
X16384496Y-14775420D01*
X16390350Y-14780854D01*
X16402216Y-14786557D01*
X16422105Y-14793957D01*
X16422131Y-14793967D01*
X16461710Y-14808021D01*
X16461710Y-14795121D01*
X16459897Y-14786236D01*
X16453789Y-14779181D01*
X16448817Y-14774456D01*
X16445868Y-14763505D01*
X16447399Y-14755427D01*
X16453789Y-14750868D01*
X16458956Y-14748284D01*
X16461710Y-14737666D01*
X16461181Y-14729745D01*
X16519293Y-14729745D01*
X16520865Y-14762749D01*
X16521045Y-14766443D01*
X16522244Y-14782973D01*
X16524540Y-14791942D01*
X16529148Y-14795914D01*
X16537279Y-14797455D01*
X16548873Y-14797198D01*
X16558647Y-14793740D01*
X16558820Y-14793600D01*
X16567375Y-14791991D01*
X16580494Y-14798373D01*
X16595814Y-14808423D01*
X16580248Y-14814189D01*
X16575661Y-14815888D01*
X16551788Y-14824805D01*
X16535918Y-14831157D01*
X16526419Y-14835930D01*
X16521658Y-14840105D01*
X16520003Y-14844666D01*
X16519823Y-14850598D01*
X16519911Y-14853282D01*
X16521777Y-14859882D01*
X16527630Y-14865324D01*
X16539503Y-14871039D01*
X16559428Y-14878457D01*
X16599007Y-14892512D01*
X16599007Y-14891717D01*
X16657103Y-14891717D01*
X16659624Y-14909157D01*
X16666752Y-14921671D01*
X16679857Y-14928246D01*
X16697611Y-14930402D01*
X16715051Y-14927881D01*
X16727565Y-14920754D01*
X16734140Y-14907649D01*
X16736296Y-14889894D01*
X16733775Y-14872454D01*
X16726648Y-14859940D01*
X16713543Y-14853365D01*
X16695788Y-14851209D01*
X16678348Y-14853730D01*
X16665834Y-14860858D01*
X16659259Y-14873963D01*
X16657103Y-14891717D01*
X16599007Y-14891717D01*
X16599007Y-14879612D01*
X16597195Y-14870726D01*
X16591086Y-14863671D01*
X16586115Y-14858946D01*
X16583165Y-14847995D01*
X16584697Y-14839917D01*
X16591086Y-14835359D01*
X16595572Y-14833212D01*
X16598242Y-14824579D01*
X16599007Y-14807453D01*
X16598830Y-14796096D01*
X16597140Y-14784536D01*
X16657095Y-14784536D01*
X16657894Y-14791021D01*
X16663510Y-14797631D01*
X16676897Y-14802341D01*
X16696700Y-14807337D01*
X16678217Y-14812419D01*
X16675926Y-14813083D01*
X16662981Y-14819641D01*
X16657951Y-14829807D01*
X16657467Y-14834239D01*
X16659522Y-14839852D01*
X16668512Y-14838852D01*
X16674408Y-14837360D01*
X16690255Y-14833566D01*
X16695788Y-14832294D01*
X16708581Y-14829353D01*
X16719526Y-14826726D01*
X16730555Y-14822685D01*
X16735294Y-14817294D01*
X16736305Y-14808639D01*
X16735293Y-14800034D01*
X16729684Y-14793665D01*
X16716502Y-14789166D01*
X16696700Y-14784170D01*
X16715182Y-14779095D01*
X16721397Y-14777140D01*
X16731529Y-14770715D01*
X16735307Y-14760094D01*
X16735554Y-14757648D01*
X16734575Y-14749657D01*
X16728304Y-14744661D01*
X16714184Y-14740259D01*
X16710036Y-14739181D01*
X16690779Y-14734162D01*
X16674257Y-14729833D01*
X16663226Y-14727526D01*
X16658115Y-14729520D01*
X16657095Y-14737527D01*
X16658253Y-14744538D01*
X16666917Y-14753272D01*
X16684241Y-14756149D01*
X16690682Y-14757065D01*
X16691767Y-14760410D01*
X16685418Y-14764753D01*
X16673046Y-14768536D01*
X16668955Y-14769481D01*
X16659585Y-14774624D01*
X16657095Y-14784536D01*
X16597140Y-14784536D01*
X16597052Y-14783934D01*
X16591954Y-14776216D01*
X16581845Y-14769169D01*
X16564683Y-14758789D01*
X16581845Y-14757134D01*
X16589428Y-14756048D01*
X16597122Y-14751843D01*
X16599007Y-14742612D01*
X16598857Y-14738204D01*
X16597015Y-14733430D01*
X16591260Y-14730906D01*
X16579377Y-14729916D01*
X16559150Y-14729745D01*
X16519293Y-14729745D01*
X16461181Y-14729745D01*
X16461131Y-14728997D01*
X16459372Y-14724465D01*
X16459030Y-14724516D01*
X16451901Y-14726757D01*
X16437941Y-14731648D01*
X16419767Y-14738278D01*
X16415697Y-14739795D01*
X16398057Y-14746893D01*
X16388033Y-14752595D01*
X16383548Y-14758450D01*
X16382526Y-14766002D01*
X16366658Y-14766002D01*
X16366658Y-14730249D01*
X16333654Y-14728677D01*
X16325415Y-14728461D01*
X16306435Y-14728246D01*
X16278799Y-14728093D01*
X16243563Y-14728003D01*
X16201785Y-14727976D01*
X16154523Y-14728012D01*
X16102835Y-14728112D01*
X16047778Y-14728278D01*
X15990411Y-14728508D01*
X15680171Y-14729911D01*
X15680171Y-15404515D01*
X15616804Y-15404515D01*
X15616804Y-14657356D01*
X16424745Y-14657356D01*
X16425282Y-14659163D01*
X16427385Y-14660712D01*
X16431806Y-14662024D01*
X16439292Y-14663117D01*
X16450594Y-14664011D01*
X16459372Y-14664407D01*
X16466460Y-14664727D01*
X16487642Y-14665283D01*
X16514887Y-14665699D01*
X16519293Y-14665738D01*
X16548947Y-14665996D01*
X16590569Y-14666192D01*
X16640505Y-14666308D01*
X16656591Y-14666323D01*
X16663226Y-14666329D01*
X16699502Y-14666363D01*
X16768311Y-14666377D01*
X17061066Y-14666377D01*
X17111877Y-14666377D01*
X17110235Y-14556803D01*
X17109820Y-14528800D01*
X17109132Y-14481010D01*
X17108418Y-14430206D01*
X17107742Y-14380913D01*
X17107166Y-14337656D01*
X17105741Y-14228082D01*
X17031595Y-14228082D01*
X17033128Y-14271424D01*
X17033749Y-14286848D01*
X17034980Y-14302426D01*
X17037208Y-14311254D01*
X17041137Y-14315611D01*
X17047472Y-14317775D01*
X17056160Y-14321355D01*
X17062715Y-14328082D01*
X17063055Y-14331892D01*
X17057826Y-14332700D01*
X17051446Y-14330899D01*
X17036088Y-14326884D01*
X17013266Y-14321050D01*
X16984409Y-14313760D01*
X16950945Y-14305377D01*
X16914304Y-14296264D01*
X16888909Y-14289995D01*
X16931009Y-14289995D01*
X16966330Y-14298867D01*
X16967023Y-14299041D01*
X16984817Y-14303107D01*
X16998051Y-14305420D01*
X17003906Y-14305484D01*
X17003864Y-14304645D01*
X16999157Y-14298896D01*
X16989909Y-14290110D01*
X16978978Y-14280771D01*
X16969219Y-14273361D01*
X16963490Y-14270362D01*
X16963224Y-14270396D01*
X16956705Y-14273530D01*
X16945871Y-14280196D01*
X16931009Y-14289995D01*
X16888909Y-14289995D01*
X16887866Y-14289738D01*
X16852009Y-14281043D01*
X16824527Y-14274674D01*
X16804269Y-14270421D01*
X16790091Y-14268074D01*
X16780843Y-14267424D01*
X16775377Y-14268262D01*
X16772548Y-14270377D01*
X16771643Y-14271648D01*
X16768418Y-14275222D01*
X16769755Y-14269554D01*
X16770076Y-14266603D01*
X16849385Y-14266603D01*
X16854097Y-14269263D01*
X16867944Y-14273662D01*
X16882346Y-14277687D01*
X16891383Y-14278826D01*
X16891843Y-14275646D01*
X16884408Y-14267909D01*
X16873909Y-14261715D01*
X16859293Y-14262537D01*
X16852818Y-14264409D01*
X16849385Y-14266603D01*
X16770076Y-14266603D01*
X16770167Y-14265771D01*
X16765353Y-14260263D01*
X16756350Y-14257168D01*
X16801843Y-14257168D01*
X16807282Y-14259766D01*
X16809948Y-14259663D01*
X16815281Y-14257168D01*
X16810599Y-14252071D01*
X16808695Y-14251353D01*
X16802366Y-14254399D01*
X16801843Y-14257168D01*
X16756350Y-14257168D01*
X16751771Y-14255594D01*
X16744767Y-14253969D01*
X16734162Y-14253048D01*
X16730943Y-14256367D01*
X16729860Y-14258425D01*
X16725389Y-14254485D01*
X16723717Y-14252211D01*
X16719123Y-14249888D01*
X16713588Y-14256513D01*
X16713332Y-14256913D01*
X16705351Y-14268188D01*
X16695243Y-14281200D01*
X16693698Y-14283156D01*
X16687578Y-14294020D01*
X16688942Y-14298910D01*
X16696229Y-14297035D01*
X16707878Y-14287604D01*
X16711736Y-14283834D01*
X16716511Y-14280139D01*
X16715058Y-14283529D01*
X16709342Y-14290915D01*
X16699883Y-14300711D01*
X16695084Y-14306745D01*
X16698179Y-14313524D01*
X16703252Y-14315696D01*
X16713242Y-14311559D01*
X16724826Y-14299566D01*
X16736619Y-14280894D01*
X16739234Y-14276277D01*
X16744450Y-14269584D01*
X16746632Y-14270911D01*
X16746253Y-14273721D01*
X16741691Y-14285161D01*
X16733577Y-14298997D01*
X16733160Y-14299616D01*
X16724902Y-14315009D01*
X16724100Y-14324912D01*
X16730838Y-14328415D01*
X16734131Y-14326219D01*
X16741963Y-14317259D01*
X16751649Y-14303746D01*
X16758819Y-14293512D01*
X16765436Y-14285620D01*
X16767989Y-14284860D01*
X16766392Y-14289315D01*
X16759796Y-14300418D01*
X16749830Y-14314430D01*
X16746545Y-14318791D01*
X16738128Y-14331418D01*
X16735810Y-14339105D01*
X16738755Y-14344099D01*
X16743972Y-14347234D01*
X16747863Y-14343906D01*
X16748312Y-14343392D01*
X16753711Y-14345970D01*
X16763552Y-14354898D01*
X16776100Y-14368658D01*
X16780104Y-14373380D01*
X16790728Y-14386274D01*
X16794861Y-14392354D01*
X16792916Y-14392468D01*
X16785310Y-14387465D01*
X16782330Y-14385317D01*
X16771253Y-14376526D01*
X16765196Y-14370414D01*
X16762442Y-14367141D01*
X16755661Y-14366366D01*
X16750948Y-14374620D01*
X16749662Y-14378153D01*
X16746201Y-14377115D01*
X16740037Y-14367034D01*
X16738998Y-14365114D01*
X16731932Y-14353627D01*
X16726697Y-14347486D01*
X16722891Y-14347466D01*
X16711683Y-14350979D01*
X16696721Y-14357713D01*
X16686828Y-14362236D01*
X16669999Y-14368039D01*
X16657520Y-14370047D01*
X16653354Y-14369813D01*
X16648926Y-14368872D01*
X16654454Y-14367172D01*
X16660803Y-14365650D01*
X16677743Y-14360388D01*
X16693591Y-14354112D01*
X16705319Y-14348106D01*
X16709901Y-14343654D01*
X16705864Y-14337324D01*
X16695824Y-14335423D01*
X16683665Y-14338887D01*
X16681292Y-14340025D01*
X16667189Y-14344824D01*
X16650294Y-14348673D01*
X16650017Y-14348720D01*
X16633148Y-14353820D01*
X16626389Y-14361557D01*
X16626804Y-14367139D01*
X16634265Y-14371186D01*
X16635826Y-14371297D01*
X16638583Y-14372579D01*
X16631204Y-14375264D01*
X16630093Y-14375611D01*
X16623379Y-14379832D01*
X16616845Y-14388741D01*
X16609417Y-14404146D01*
X16600025Y-14427858D01*
X16595778Y-14438834D01*
X16587002Y-14458759D01*
X16580503Y-14468534D01*
X16576081Y-14468232D01*
X16573541Y-14457923D01*
X16572685Y-14437677D01*
X16572372Y-14428929D01*
X16570731Y-14418085D01*
X16568170Y-14415022D01*
X16565372Y-14419477D01*
X16559090Y-14432324D01*
X16550203Y-14451902D01*
X16539443Y-14476595D01*
X16527542Y-14504785D01*
X16516746Y-14530264D01*
X16506029Y-14554527D01*
X16497161Y-14573506D01*
X16490844Y-14585699D01*
X16487784Y-14589604D01*
X16487661Y-14589508D01*
X16485383Y-14582966D01*
X16482843Y-14568947D01*
X16480566Y-14550320D01*
X16480400Y-14548674D01*
X16478064Y-14530758D01*
X16475460Y-14518061D01*
X16473120Y-14513238D01*
X16470950Y-14516375D01*
X16466093Y-14527673D01*
X16459511Y-14545135D01*
X16451936Y-14566582D01*
X16444097Y-14589837D01*
X16436728Y-14612719D01*
X16430558Y-14633051D01*
X16426320Y-14648654D01*
X16424745Y-14657349D01*
X16424745Y-14657356D01*
X15616804Y-14657356D01*
X15616804Y-14550836D01*
X15775223Y-14550836D01*
X15775592Y-14551536D01*
X15782261Y-14556348D01*
X15795387Y-14563823D01*
X15812463Y-14572720D01*
X15830977Y-14581801D01*
X15848422Y-14589822D01*
X15862287Y-14595545D01*
X15870065Y-14597729D01*
X15872424Y-14598306D01*
X15883006Y-14602385D01*
X15899480Y-14609516D01*
X15919451Y-14618683D01*
X15921672Y-14619726D01*
X15956770Y-14635368D01*
X15986759Y-14647138D01*
X16010300Y-14654554D01*
X16026055Y-14657134D01*
X16027104Y-14657111D01*
X16042764Y-14654285D01*
X16064771Y-14647377D01*
X16090476Y-14637320D01*
X16117227Y-14625047D01*
X16130192Y-14618832D01*
X16155415Y-14607445D01*
X16178651Y-14597680D01*
X16191789Y-14592186D01*
X16201785Y-14587615D01*
X16216299Y-14580977D01*
X16237958Y-14570054D01*
X16250755Y-14562789D01*
X16263152Y-14554912D01*
X16269102Y-14549982D01*
X16267314Y-14547465D01*
X16258178Y-14541220D01*
X16243449Y-14532717D01*
X16225421Y-14523129D01*
X16206389Y-14513631D01*
X16188648Y-14505393D01*
X16174493Y-14499591D01*
X16166219Y-14497396D01*
X16161543Y-14496018D01*
X16148847Y-14490794D01*
X16145923Y-14489475D01*
X16255764Y-14489475D01*
X16258044Y-14499583D01*
X16266325Y-14502677D01*
X16274411Y-14499827D01*
X16276887Y-14489475D01*
X16274607Y-14479367D01*
X16266325Y-14476273D01*
X16258239Y-14479123D01*
X16255764Y-14489475D01*
X16145923Y-14489475D01*
X16130646Y-14482582D01*
X16109149Y-14472353D01*
X16087288Y-14461956D01*
X16068954Y-14454267D01*
X16054212Y-14449929D01*
X16040039Y-14448078D01*
X16023415Y-14447851D01*
X16008300Y-14448528D01*
X15990481Y-14451409D01*
X15972298Y-14457620D01*
X15949485Y-14468345D01*
X15946843Y-14469668D01*
X15923964Y-14480563D01*
X15901328Y-14490534D01*
X15883477Y-14497567D01*
X15873430Y-14501281D01*
X15852392Y-14509913D01*
X15830351Y-14519808D01*
X15809462Y-14529907D01*
X15791875Y-14539151D01*
X15779745Y-14546480D01*
X15775223Y-14550836D01*
X15616804Y-14550836D01*
X15616804Y-14447230D01*
X16255764Y-14447230D01*
X16258044Y-14457337D01*
X16266325Y-14460431D01*
X16274411Y-14457582D01*
X16276887Y-14447230D01*
X16274607Y-14437122D01*
X16266325Y-14434028D01*
X16258239Y-14436877D01*
X16255764Y-14447230D01*
X15616804Y-14447230D01*
X15616804Y-14404984D01*
X16255764Y-14404984D01*
X16258044Y-14415092D01*
X16266325Y-14418186D01*
X16274411Y-14415337D01*
X16276887Y-14404984D01*
X16274607Y-14394877D01*
X16266325Y-14391783D01*
X16258239Y-14394632D01*
X16255764Y-14404984D01*
X15616804Y-14404984D01*
X15616804Y-14378900D01*
X15727697Y-14378900D01*
X15728094Y-14384921D01*
X15730691Y-14388823D01*
X15737577Y-14390867D01*
X15750845Y-14391654D01*
X15772583Y-14391783D01*
X15817469Y-14391783D01*
X15817447Y-14377261D01*
X15817435Y-14376298D01*
X15815201Y-14366633D01*
X15807583Y-14358174D01*
X15792364Y-14348369D01*
X15791125Y-14347658D01*
X16188123Y-14347658D01*
X16188400Y-14351655D01*
X16190337Y-14365612D01*
X16194280Y-14372441D01*
X16201637Y-14374988D01*
X16205065Y-14375445D01*
X16211818Y-14375132D01*
X16212592Y-14370113D01*
X16208386Y-14357848D01*
X16206540Y-14351345D01*
X16205909Y-14339805D01*
X16208403Y-14331886D01*
X16213390Y-14330975D01*
X16213546Y-14331083D01*
X16217325Y-14337911D01*
X16220789Y-14350244D01*
X16224837Y-14364039D01*
X16230039Y-14374117D01*
X16230085Y-14374173D01*
X16241411Y-14380473D01*
X16255592Y-14379503D01*
X16266325Y-14372716D01*
X16268147Y-14371564D01*
X16274592Y-14357838D01*
X16276887Y-14335480D01*
X16276531Y-14320754D01*
X16274364Y-14308804D01*
X16269182Y-14303325D01*
X16259809Y-14302011D01*
X16253293Y-14303668D01*
X16252349Y-14311253D01*
X16254056Y-14317378D01*
X16257865Y-14331055D01*
X16258566Y-14338391D01*
X16256712Y-14347474D01*
X16253113Y-14352968D01*
X16249233Y-14351421D01*
X16246359Y-14343759D01*
X16242868Y-14331085D01*
X16238176Y-14316752D01*
X16229319Y-14305453D01*
X16216331Y-14302011D01*
X16211190Y-14302420D01*
X16197557Y-14309501D01*
X16189718Y-14324823D01*
X16188123Y-14347658D01*
X15791125Y-14347658D01*
X15767302Y-14333998D01*
X15792386Y-14333847D01*
X15800825Y-14333712D01*
X15811914Y-14332403D01*
X15816541Y-14328487D01*
X15817469Y-14320494D01*
X15817068Y-14314151D01*
X15814470Y-14310228D01*
X15807584Y-14308187D01*
X15794319Y-14307413D01*
X15772583Y-14307292D01*
X15727697Y-14307292D01*
X15727697Y-14322703D01*
X15728461Y-14330206D01*
X15734166Y-14340353D01*
X15747500Y-14350427D01*
X15767302Y-14362739D01*
X15747500Y-14364378D01*
X15735793Y-14366022D01*
X15729224Y-14370208D01*
X15727697Y-14378900D01*
X15616804Y-14378900D01*
X15616804Y-14257126D01*
X15727697Y-14257126D01*
X15727755Y-14264916D01*
X15728706Y-14280970D01*
X15731175Y-14289159D01*
X15735618Y-14291450D01*
X15737896Y-14291067D01*
X15742231Y-14285015D01*
X15743539Y-14270327D01*
X15743683Y-14264255D01*
X15745953Y-14252693D01*
X15751460Y-14249205D01*
X15752182Y-14249238D01*
X15757664Y-14254017D01*
X15759381Y-14267687D01*
X15759396Y-14269370D01*
X15761444Y-14282161D01*
X15767302Y-14286169D01*
X15768024Y-14286136D01*
X15772583Y-14282161D01*
X15773506Y-14281357D01*
X15775223Y-14267687D01*
X15775843Y-14256800D01*
X15779497Y-14250586D01*
X15788425Y-14249205D01*
X15789575Y-14249212D01*
X15797507Y-14250670D01*
X15800906Y-14256718D01*
X15801627Y-14270327D01*
X15801771Y-14276400D01*
X15804040Y-14287962D01*
X15809548Y-14291450D01*
X15811345Y-14291199D01*
X15815050Y-14287080D01*
X15816940Y-14276379D01*
X15817179Y-14267687D01*
X16033976Y-14267687D01*
X16034034Y-14275477D01*
X16034985Y-14291532D01*
X16037454Y-14299720D01*
X16041897Y-14302011D01*
X16044174Y-14301628D01*
X16048510Y-14295576D01*
X16049818Y-14280889D01*
X16049962Y-14274816D01*
X16052231Y-14263254D01*
X16057739Y-14259766D01*
X16058460Y-14259799D01*
X16063942Y-14264579D01*
X16065660Y-14278248D01*
X16065674Y-14279932D01*
X16067723Y-14292723D01*
X16073581Y-14296731D01*
X16074302Y-14296697D01*
X16079784Y-14291918D01*
X16081502Y-14278248D01*
X16082121Y-14267361D01*
X16085776Y-14261147D01*
X16094704Y-14259766D01*
X16095853Y-14259774D01*
X16103786Y-14261231D01*
X16107185Y-14267280D01*
X16107905Y-14280889D01*
X16108049Y-14286961D01*
X16110319Y-14298523D01*
X16115826Y-14302011D01*
X16117624Y-14301760D01*
X16121329Y-14297641D01*
X16123219Y-14286940D01*
X16123747Y-14267687D01*
X16123747Y-14241284D01*
X16187115Y-14241284D01*
X16187183Y-14244804D01*
X16188621Y-14250272D01*
X16193715Y-14253161D01*
X16204768Y-14254291D01*
X16224080Y-14254485D01*
X16259809Y-14254485D01*
X16261045Y-14254485D01*
X16261045Y-14275608D01*
X16261188Y-14281681D01*
X16263458Y-14293243D01*
X16268966Y-14296731D01*
X16270763Y-14296479D01*
X16274468Y-14292360D01*
X16276358Y-14281659D01*
X16276887Y-14262406D01*
X16276887Y-14228082D01*
X16232001Y-14228082D01*
X16210437Y-14228200D01*
X16197097Y-14228964D01*
X16190158Y-14230989D01*
X16187527Y-14234891D01*
X16187115Y-14241284D01*
X16123747Y-14241284D01*
X16123747Y-14233363D01*
X16033976Y-14233363D01*
X16033976Y-14267687D01*
X15817179Y-14267687D01*
X15817469Y-14257126D01*
X15817469Y-14222801D01*
X15727697Y-14222801D01*
X15727697Y-14257126D01*
X15616804Y-14257126D01*
X15616804Y-14206959D01*
X15727697Y-14206959D01*
X15817469Y-14206959D01*
X15817469Y-14191117D01*
X15817435Y-14187716D01*
X15815911Y-14179291D01*
X15809890Y-14175901D01*
X15796346Y-14175275D01*
X15794507Y-14175271D01*
X15781814Y-14174360D01*
X15779333Y-14172635D01*
X15880837Y-14172635D01*
X15880904Y-14176155D01*
X15882342Y-14181624D01*
X15887437Y-14184512D01*
X15898489Y-14185643D01*
X15917801Y-14185837D01*
X15954766Y-14185837D01*
X15954766Y-14206959D01*
X15954910Y-14213032D01*
X15957179Y-14224594D01*
X15962687Y-14228082D01*
X15964485Y-14227831D01*
X15968190Y-14223712D01*
X15970079Y-14213011D01*
X15970608Y-14193758D01*
X15970608Y-14189238D01*
X16034984Y-14189238D01*
X16035261Y-14193235D01*
X16037198Y-14207192D01*
X16041141Y-14214021D01*
X16048498Y-14216568D01*
X16051926Y-14217025D01*
X16058678Y-14216712D01*
X16059452Y-14211693D01*
X16055247Y-14199428D01*
X16053401Y-14192925D01*
X16052770Y-14181385D01*
X16055264Y-14173466D01*
X16060251Y-14172555D01*
X16060407Y-14172663D01*
X16064186Y-14179492D01*
X16067650Y-14191824D01*
X16071698Y-14205619D01*
X16076899Y-14215697D01*
X16076946Y-14215753D01*
X16088271Y-14222053D01*
X16102453Y-14221083D01*
X16115008Y-14213144D01*
X16121453Y-14199418D01*
X16123118Y-14183196D01*
X16187115Y-14183196D01*
X16187800Y-14200483D01*
X16190260Y-14209633D01*
X16195036Y-14212240D01*
X16198730Y-14211320D01*
X16202957Y-14204319D01*
X16205468Y-14199604D01*
X16214486Y-14197109D01*
X16232001Y-14196398D01*
X16249288Y-14197083D01*
X16258437Y-14199542D01*
X16261045Y-14204319D01*
X16261965Y-14208013D01*
X16268966Y-14212240D01*
X16273680Y-14209729D01*
X16276176Y-14200711D01*
X16276887Y-14183196D01*
X16276202Y-14165910D01*
X16273742Y-14156760D01*
X16268966Y-14154153D01*
X16265272Y-14155073D01*
X16261045Y-14162074D01*
X16258534Y-14166788D01*
X16249516Y-14169284D01*
X16232001Y-14169995D01*
X16214714Y-14169310D01*
X16205565Y-14166851D01*
X16202957Y-14162074D01*
X16202037Y-14158380D01*
X16195036Y-14154153D01*
X16190322Y-14156664D01*
X16187826Y-14165681D01*
X16187115Y-14183196D01*
X16123118Y-14183196D01*
X16123747Y-14177060D01*
X16123392Y-14162334D01*
X16121224Y-14150384D01*
X16116042Y-14144905D01*
X16106669Y-14143591D01*
X16100154Y-14145248D01*
X16099210Y-14152833D01*
X16100917Y-14158958D01*
X16104725Y-14172635D01*
X16105427Y-14179971D01*
X16103573Y-14189054D01*
X16099974Y-14194548D01*
X16096094Y-14193001D01*
X16093220Y-14185339D01*
X16089729Y-14172665D01*
X16085036Y-14158332D01*
X16076179Y-14147033D01*
X16063192Y-14143591D01*
X16058050Y-14144000D01*
X16044418Y-14151081D01*
X16036579Y-14166403D01*
X16034984Y-14189238D01*
X15970608Y-14189238D01*
X15970608Y-14159433D01*
X15925722Y-14159433D01*
X15904159Y-14159551D01*
X15890819Y-14160315D01*
X15883879Y-14162341D01*
X15881249Y-14166242D01*
X15880837Y-14172635D01*
X15779333Y-14172635D01*
X15776376Y-14170579D01*
X15775223Y-14162074D01*
X15775231Y-14160924D01*
X15776688Y-14152991D01*
X15782737Y-14149593D01*
X15796346Y-14148872D01*
X15798186Y-14148867D01*
X15810878Y-14147956D01*
X15816316Y-14144176D01*
X15817469Y-14135670D01*
X15817068Y-14129328D01*
X15814470Y-14125405D01*
X15807584Y-14123364D01*
X15794319Y-14122590D01*
X15772583Y-14122469D01*
X15751019Y-14122587D01*
X15737679Y-14123351D01*
X15730740Y-14125376D01*
X15728110Y-14129278D01*
X15727697Y-14135670D01*
X15728076Y-14141411D01*
X15732218Y-14147451D01*
X15743539Y-14148872D01*
X15750429Y-14149187D01*
X15757676Y-14152639D01*
X15759381Y-14162074D01*
X15759003Y-14167815D01*
X15754861Y-14173855D01*
X15743539Y-14175275D01*
X15735178Y-14175761D01*
X15729006Y-14179896D01*
X15727697Y-14191117D01*
X15727697Y-14206959D01*
X15616804Y-14206959D01*
X15616804Y-13975424D01*
X15727697Y-13975424D01*
X15727697Y-13990395D01*
X15727701Y-13991323D01*
X15729141Y-14000763D01*
X15735202Y-14005771D01*
X15748843Y-14008938D01*
X15761303Y-14012052D01*
X15766478Y-14016409D01*
X15761343Y-14020964D01*
X15745995Y-14025160D01*
X15735856Y-14027695D01*
X15729218Y-14033078D01*
X15727697Y-14043607D01*
X15728522Y-14052267D01*
X15733654Y-14058531D01*
X15746238Y-14062100D01*
X15759781Y-14065482D01*
X15766548Y-14069765D01*
X15762924Y-14073928D01*
X15748843Y-14077579D01*
X15748147Y-14077698D01*
X15734825Y-14080917D01*
X15728989Y-14086069D01*
X15727697Y-14095670D01*
X15727697Y-14110188D01*
X15771263Y-14098692D01*
X15772583Y-14098335D01*
X15789350Y-14093793D01*
X15790478Y-14093425D01*
X15880837Y-14093425D01*
X15880904Y-14096945D01*
X15882342Y-14102414D01*
X15887437Y-14105302D01*
X15898489Y-14106433D01*
X15917801Y-14106627D01*
X15954766Y-14106627D01*
X15954766Y-14127749D01*
X15954910Y-14133822D01*
X15957179Y-14145384D01*
X15962687Y-14148872D01*
X15964485Y-14148621D01*
X15968190Y-14144502D01*
X15970079Y-14133801D01*
X15970608Y-14114548D01*
X15970608Y-14082864D01*
X16033976Y-14082864D01*
X16034043Y-14086384D01*
X16035481Y-14091852D01*
X16040576Y-14094741D01*
X16051629Y-14095871D01*
X16070941Y-14096065D01*
X16106669Y-14096065D01*
X16107905Y-14096065D01*
X16107905Y-14117188D01*
X16108049Y-14123261D01*
X16110319Y-14134823D01*
X16115826Y-14138311D01*
X16117624Y-14138059D01*
X16121329Y-14133940D01*
X16123219Y-14123239D01*
X16123682Y-14106357D01*
X16187761Y-14106357D01*
X16189684Y-14113824D01*
X16196937Y-14119334D01*
X16211905Y-14125416D01*
X16219481Y-14128220D01*
X16239024Y-14135587D01*
X16255089Y-14141807D01*
X16266547Y-14146286D01*
X16268966Y-14146829D01*
X16274106Y-14147984D01*
X16276645Y-14144557D01*
X16276887Y-14135176D01*
X16275067Y-14125584D01*
X16266325Y-14118718D01*
X16258689Y-14113743D01*
X16255764Y-14101086D01*
X16257737Y-14090118D01*
X16266325Y-14082864D01*
X16272827Y-14078749D01*
X16276887Y-14066666D01*
X16276499Y-14058344D01*
X16275272Y-14053820D01*
X16274340Y-14054056D01*
X16265967Y-14056854D01*
X16250955Y-14062142D01*
X16231706Y-14069078D01*
X16218246Y-14074061D01*
X16202707Y-14080549D01*
X16193886Y-14086087D01*
X16189719Y-14092149D01*
X16188142Y-14100213D01*
X16187761Y-14106357D01*
X16123682Y-14106357D01*
X16123747Y-14103986D01*
X16123747Y-14069662D01*
X16078862Y-14069662D01*
X16057298Y-14069780D01*
X16043958Y-14070544D01*
X16037019Y-14072569D01*
X16034388Y-14076471D01*
X16033976Y-14082864D01*
X15970608Y-14082864D01*
X15970608Y-14080223D01*
X15925722Y-14080223D01*
X15904159Y-14080341D01*
X15890819Y-14081105D01*
X15883879Y-14083131D01*
X15881249Y-14087032D01*
X15880837Y-14093425D01*
X15790478Y-14093425D01*
X15803639Y-14089126D01*
X15811513Y-14084652D01*
X15815077Y-14079088D01*
X15816435Y-14071150D01*
X15816489Y-14060489D01*
X15811802Y-14054892D01*
X15799458Y-14051617D01*
X15785539Y-14048035D01*
X15778814Y-14043503D01*
X15782375Y-14039092D01*
X15796324Y-14035342D01*
X15798335Y-14034995D01*
X15810945Y-14031786D01*
X15815607Y-14027147D01*
X15881483Y-14027147D01*
X15883405Y-14034614D01*
X15890659Y-14040124D01*
X15905626Y-14046206D01*
X15913202Y-14049010D01*
X15932745Y-14056377D01*
X15948810Y-14062597D01*
X15960268Y-14067076D01*
X15967828Y-14068774D01*
X15970367Y-14065347D01*
X15970608Y-14055966D01*
X15968788Y-14046374D01*
X15960047Y-14039508D01*
X15952538Y-14034711D01*
X15949485Y-14022136D01*
X15949980Y-14019496D01*
X16033976Y-14019496D01*
X16034034Y-14027286D01*
X16034985Y-14043341D01*
X16037454Y-14051529D01*
X16041897Y-14053820D01*
X16044174Y-14053437D01*
X16048510Y-14047385D01*
X16049818Y-14032697D01*
X16049962Y-14026625D01*
X16052231Y-14015063D01*
X16057739Y-14011575D01*
X16058460Y-14011608D01*
X16063942Y-14016387D01*
X16065660Y-14030057D01*
X16065674Y-14031740D01*
X16067723Y-14044532D01*
X16073581Y-14048539D01*
X16074302Y-14048506D01*
X16079784Y-14043727D01*
X16081502Y-14030057D01*
X16082121Y-14019170D01*
X16085776Y-14012956D01*
X16094704Y-14011575D01*
X16095853Y-14011582D01*
X16103786Y-14013040D01*
X16107185Y-14019088D01*
X16107905Y-14032697D01*
X16108049Y-14038770D01*
X16110319Y-14050332D01*
X16115826Y-14053820D01*
X16117624Y-14053569D01*
X16121329Y-14049450D01*
X16123219Y-14038749D01*
X16123747Y-14019496D01*
X16187115Y-14019496D01*
X16187173Y-14027286D01*
X16188124Y-14043341D01*
X16190593Y-14051529D01*
X16195036Y-14053820D01*
X16197314Y-14053437D01*
X16201649Y-14047385D01*
X16202957Y-14032697D01*
X16203101Y-14026625D01*
X16205371Y-14015063D01*
X16210878Y-14011575D01*
X16211600Y-14011608D01*
X16217082Y-14016387D01*
X16218799Y-14030057D01*
X16218814Y-14031740D01*
X16220862Y-14044532D01*
X16226720Y-14048539D01*
X16227442Y-14048506D01*
X16232924Y-14043727D01*
X16234641Y-14030057D01*
X16234689Y-14024603D01*
X16236230Y-14015589D01*
X16242240Y-14012134D01*
X16255764Y-14011575D01*
X16257603Y-14011570D01*
X16270296Y-14010659D01*
X16275272Y-14007200D01*
X16275734Y-14006879D01*
X16276887Y-13998373D01*
X16276720Y-13995727D01*
X16422105Y-13995727D01*
X16423465Y-14200356D01*
X16423465Y-14200404D01*
X16423810Y-14248710D01*
X16424192Y-14296102D01*
X16424596Y-14340972D01*
X16425006Y-14381711D01*
X16425404Y-14416713D01*
X16425776Y-14444369D01*
X16426105Y-14463072D01*
X16427386Y-14521159D01*
X16455214Y-14467279D01*
X16465591Y-14447609D01*
X16475809Y-14429144D01*
X16483579Y-14416102D01*
X16487751Y-14410489D01*
X16489034Y-14410432D01*
X16492821Y-14416318D01*
X16496034Y-14428747D01*
X16497049Y-14433896D01*
X16500457Y-14444374D01*
X16503828Y-14447308D01*
X16504372Y-14446841D01*
X16509569Y-14439685D01*
X16517946Y-14426285D01*
X16528052Y-14409183D01*
X16538437Y-14390919D01*
X16547651Y-14374034D01*
X16554242Y-14361070D01*
X16556762Y-14354567D01*
X16556757Y-14354353D01*
X16552801Y-14348203D01*
X16551724Y-14347396D01*
X16555273Y-14347532D01*
X16559828Y-14347955D01*
X16564788Y-14343979D01*
X16563139Y-14335264D01*
X16554917Y-14324169D01*
X16541208Y-14310461D01*
X16527862Y-14322999D01*
X16526702Y-14324110D01*
X16518028Y-14334045D01*
X16514421Y-14341217D01*
X16512594Y-14344887D01*
X16504440Y-14353945D01*
X16491979Y-14364990D01*
X16469631Y-14383082D01*
X16485141Y-14366310D01*
X16489478Y-14361397D01*
X16495670Y-14352899D01*
X16495986Y-14349537D01*
X16495517Y-14348284D01*
X16499862Y-14341591D01*
X16509236Y-14331055D01*
X16515349Y-14324239D01*
X16520957Y-14315849D01*
X16520187Y-14312573D01*
X16519793Y-14312570D01*
X16515901Y-14310906D01*
X16519822Y-14304652D01*
X16530359Y-14304652D01*
X16532999Y-14307292D01*
X16535639Y-14304652D01*
X16532999Y-14302011D01*
X16530359Y-14304652D01*
X16519822Y-14304652D01*
X16519898Y-14304530D01*
X16523149Y-14298457D01*
X16522813Y-14294106D01*
X16542823Y-14294106D01*
X16543879Y-14303728D01*
X16554680Y-14315537D01*
X16557090Y-14317477D01*
X16567421Y-14325057D01*
X16573359Y-14328225D01*
X16577574Y-14327191D01*
X16578825Y-14320928D01*
X16573972Y-14311117D01*
X16563840Y-14300193D01*
X16561321Y-14298057D01*
X16551293Y-14290470D01*
X16545947Y-14289390D01*
X16542823Y-14294106D01*
X16522813Y-14294106D01*
X16522442Y-14289285D01*
X16516649Y-14274481D01*
X16511193Y-14257510D01*
X16507639Y-14230130D01*
X16508540Y-14202115D01*
X16514034Y-14178504D01*
X16519377Y-14168241D01*
X16523026Y-14166668D01*
X16523712Y-14173128D01*
X16520408Y-14186355D01*
X16515369Y-14210768D01*
X16515923Y-14241592D01*
X16523062Y-14270349D01*
X16528457Y-14282230D01*
X16532999Y-14287080D01*
X16533490Y-14287605D01*
X16538619Y-14285780D01*
X16556762Y-14285780D01*
X16556771Y-14286020D01*
X16561368Y-14293374D01*
X16572098Y-14302508D01*
X16585607Y-14310974D01*
X16598545Y-14316321D01*
X16606624Y-14318563D01*
X16608245Y-14320467D01*
X16600486Y-14322807D01*
X16599657Y-14323023D01*
X16592263Y-14326984D01*
X16593985Y-14333695D01*
X16595936Y-14336383D01*
X16600559Y-14338122D01*
X16602542Y-14336052D01*
X16631579Y-14336052D01*
X16632760Y-14341643D01*
X16642573Y-14344118D01*
X16644893Y-14343961D01*
X16658679Y-14340795D01*
X16674427Y-14334877D01*
X16681242Y-14331717D01*
X16689660Y-14326605D01*
X16690641Y-14321490D01*
X16685713Y-14313470D01*
X16684557Y-14311884D01*
X16675345Y-14304199D01*
X16663100Y-14304602D01*
X16661659Y-14304970D01*
X16647719Y-14310424D01*
X16642033Y-14316689D01*
X16645704Y-14322621D01*
X16645962Y-14322783D01*
X16648742Y-14326689D01*
X16641699Y-14329828D01*
X16639226Y-14330586D01*
X16631579Y-14336052D01*
X16602542Y-14336052D01*
X16607029Y-14331366D01*
X16611849Y-14323736D01*
X16614570Y-14315524D01*
X16614335Y-14314725D01*
X16608677Y-14309299D01*
X16597625Y-14302148D01*
X16584043Y-14294748D01*
X16570796Y-14288570D01*
X16560748Y-14285090D01*
X16556762Y-14285780D01*
X16538619Y-14285780D01*
X16538846Y-14285699D01*
X16542218Y-14281794D01*
X16542247Y-14281572D01*
X16577885Y-14281572D01*
X16577976Y-14282147D01*
X16583394Y-14287746D01*
X16594356Y-14294297D01*
X16606906Y-14299739D01*
X16617092Y-14302011D01*
X16617159Y-14302011D01*
X16625051Y-14297653D01*
X16625612Y-14296899D01*
X16646533Y-14296899D01*
X16646604Y-14297993D01*
X16650829Y-14301755D01*
X16659735Y-14297970D01*
X16667566Y-14291167D01*
X16674206Y-14280138D01*
X16671755Y-14271258D01*
X16667247Y-14267449D01*
X16659897Y-14265743D01*
X16657095Y-14272802D01*
X16658513Y-14277054D01*
X16666336Y-14277746D01*
X16667526Y-14277427D01*
X16668299Y-14278529D01*
X16661055Y-14283362D01*
X16660608Y-14283623D01*
X16650652Y-14290951D01*
X16646533Y-14296899D01*
X16625612Y-14296899D01*
X16632740Y-14287313D01*
X16635625Y-14281547D01*
X16637154Y-14274735D01*
X16632227Y-14270483D01*
X16619023Y-14265961D01*
X16618887Y-14265919D01*
X16604517Y-14262227D01*
X16595581Y-14262907D01*
X16587795Y-14268276D01*
X16581402Y-14275089D01*
X16577885Y-14281572D01*
X16542247Y-14281572D01*
X16543110Y-14274879D01*
X16542532Y-14272816D01*
X16545947Y-14271851D01*
X16547128Y-14271517D01*
X16551208Y-14270596D01*
X16552026Y-14262406D01*
X16551792Y-14261163D01*
X16549952Y-14242858D01*
X16549737Y-14225126D01*
X16553083Y-14225126D01*
X16559380Y-14252521D01*
X16560748Y-14255854D01*
X16562222Y-14259446D01*
X16568673Y-14270415D01*
X16573701Y-14271342D01*
X16575925Y-14267004D01*
X16573093Y-14255399D01*
X16568321Y-14239255D01*
X16568178Y-14216628D01*
X16573458Y-14193383D01*
X16575946Y-14188155D01*
X16588679Y-14173937D01*
X16606216Y-14163491D01*
X16624270Y-14159665D01*
X16624191Y-14161247D01*
X16617469Y-14165033D01*
X16607228Y-14169580D01*
X16596721Y-14173448D01*
X16589201Y-14175196D01*
X16588682Y-14176388D01*
X16590461Y-14183471D01*
X16591368Y-14187476D01*
X16588650Y-14188603D01*
X16584389Y-14188474D01*
X16578636Y-14195444D01*
X16574310Y-14208399D01*
X16572604Y-14224663D01*
X16573456Y-14240085D01*
X16577892Y-14254847D01*
X16586122Y-14259766D01*
X16589730Y-14258027D01*
X16591346Y-14250058D01*
X16590154Y-14233806D01*
X16589459Y-14227432D01*
X16589324Y-14219525D01*
X16594651Y-14219525D01*
X16596319Y-14236001D01*
X16604517Y-14248717D01*
X16606688Y-14252085D01*
X16614978Y-14259093D01*
X16630481Y-14264954D01*
X16644451Y-14260485D01*
X16654481Y-14247932D01*
X16670521Y-14247932D01*
X16671567Y-14257816D01*
X16675345Y-14262810D01*
X16678416Y-14266870D01*
X16687781Y-14272121D01*
X16696379Y-14270593D01*
X16700500Y-14266088D01*
X16705412Y-14256423D01*
X16706723Y-14247711D01*
X16706488Y-14247444D01*
X16753907Y-14247444D01*
X16754681Y-14248076D01*
X16760948Y-14247444D01*
X16761774Y-14245856D01*
X16757427Y-14243924D01*
X16754632Y-14244305D01*
X16753907Y-14247444D01*
X16706488Y-14247444D01*
X16703388Y-14243924D01*
X16698796Y-14245710D01*
X16690944Y-14253165D01*
X16687854Y-14257159D01*
X16685410Y-14258543D01*
X16687017Y-14250525D01*
X16687529Y-14245251D01*
X16684848Y-14240707D01*
X16779380Y-14240707D01*
X16780640Y-14247775D01*
X16782443Y-14247693D01*
X16783246Y-14242024D01*
X16823935Y-14242024D01*
X16825285Y-14250319D01*
X16829281Y-14254485D01*
X16830506Y-14252376D01*
X16830926Y-14248050D01*
X16836827Y-14248050D01*
X16837017Y-14262406D01*
X16841844Y-14256512D01*
X16848993Y-14256512D01*
X16851856Y-14259766D01*
X16853405Y-14259569D01*
X16860400Y-14254485D01*
X16860800Y-14253527D01*
X16878883Y-14253527D01*
X16879161Y-14255440D01*
X16884515Y-14262623D01*
X16890668Y-14264772D01*
X16892332Y-14261467D01*
X16886931Y-14254591D01*
X16881900Y-14251398D01*
X16878883Y-14253527D01*
X16860800Y-14253527D01*
X16861246Y-14252458D01*
X16858383Y-14249205D01*
X16856834Y-14249402D01*
X16849839Y-14254485D01*
X16848993Y-14256512D01*
X16841844Y-14256512D01*
X16848811Y-14248005D01*
X16856584Y-14239346D01*
X16858383Y-14238680D01*
X16861694Y-14237455D01*
X16866166Y-14242417D01*
X16870604Y-14247382D01*
X16872501Y-14246530D01*
X16892461Y-14246530D01*
X16894439Y-14253156D01*
X16902471Y-14264810D01*
X16915847Y-14282941D01*
X16915847Y-14258401D01*
X16921163Y-14258401D01*
X16921198Y-14283529D01*
X16925834Y-14276528D01*
X16933589Y-14276528D01*
X16933793Y-14279383D01*
X16941319Y-14276106D01*
X16949096Y-14271244D01*
X16955208Y-14264228D01*
X16973935Y-14264228D01*
X16974798Y-14266829D01*
X16981072Y-14274820D01*
X16989838Y-14282644D01*
X16996793Y-14286169D01*
X16998851Y-14285670D01*
X16999404Y-14279896D01*
X16992987Y-14269007D01*
X16992934Y-14268938D01*
X16984767Y-14261751D01*
X16977240Y-14259881D01*
X16973935Y-14264228D01*
X16955208Y-14264228D01*
X16955893Y-14263442D01*
X16953496Y-14257549D01*
X16951275Y-14256817D01*
X16943998Y-14261023D01*
X16934515Y-14274815D01*
X16933589Y-14276528D01*
X16925834Y-14276528D01*
X16931689Y-14267687D01*
X16937309Y-14259037D01*
X16941305Y-14250568D01*
X16939432Y-14245311D01*
X16931689Y-14239869D01*
X16927420Y-14237412D01*
X16923167Y-14237191D01*
X16921460Y-14243519D01*
X16921163Y-14258401D01*
X16915847Y-14258401D01*
X16915847Y-14258152D01*
X16915533Y-14246430D01*
X16913284Y-14236132D01*
X16907888Y-14234387D01*
X16898199Y-14240021D01*
X16895982Y-14241717D01*
X16892461Y-14246530D01*
X16872501Y-14246530D01*
X16873909Y-14245896D01*
X16875452Y-14245203D01*
X16875588Y-14240284D01*
X16868816Y-14233628D01*
X16868685Y-14233557D01*
X16859034Y-14229690D01*
X16880508Y-14229690D01*
X16881900Y-14232222D01*
X16883107Y-14234419D01*
X16888595Y-14238037D01*
X16895781Y-14234419D01*
X16896994Y-14233129D01*
X16897627Y-14230141D01*
X16933669Y-14230141D01*
X16937024Y-14236068D01*
X16943777Y-14241177D01*
X16951275Y-14237601D01*
X16951634Y-14237430D01*
X16954200Y-14235390D01*
X16957732Y-14234429D01*
X16956057Y-14242020D01*
X16956025Y-14242122D01*
X16956973Y-14252408D01*
X16963490Y-14257629D01*
X16964370Y-14258334D01*
X16974411Y-14256831D01*
X16977240Y-14253603D01*
X16977844Y-14252914D01*
X16976504Y-14245071D01*
X16968798Y-14236975D01*
X16958684Y-14231581D01*
X16976503Y-14231581D01*
X16979215Y-14238643D01*
X16983198Y-14244912D01*
X16988427Y-14246051D01*
X16998048Y-14240568D01*
X17008267Y-14235402D01*
X17014387Y-14235090D01*
X17012541Y-14239176D01*
X17003661Y-14244574D01*
X16998126Y-14247194D01*
X16991319Y-14252315D01*
X16992197Y-14258935D01*
X17000338Y-14270327D01*
X17002916Y-14273736D01*
X17009411Y-14284320D01*
X17010169Y-14289694D01*
X17004803Y-14288305D01*
X17001816Y-14287017D01*
X17002527Y-14290720D01*
X17004551Y-14293046D01*
X17010940Y-14294065D01*
X17014716Y-14294210D01*
X17020975Y-14300580D01*
X17022577Y-14302730D01*
X17024871Y-14301346D01*
X17026136Y-14291524D01*
X17026581Y-14272212D01*
X17026411Y-14255864D01*
X17024527Y-14240572D01*
X17019229Y-14232239D01*
X17008869Y-14228773D01*
X16991799Y-14228082D01*
X16980178Y-14228652D01*
X16976503Y-14231581D01*
X16958684Y-14231581D01*
X16956921Y-14230641D01*
X16943069Y-14228082D01*
X16938787Y-14228187D01*
X16933669Y-14230141D01*
X16897627Y-14230141D01*
X16897837Y-14229147D01*
X16889444Y-14228082D01*
X16886902Y-14228121D01*
X16880508Y-14229690D01*
X16859034Y-14229690D01*
X16856805Y-14228796D01*
X16849990Y-14229055D01*
X16850394Y-14234260D01*
X16851385Y-14237810D01*
X16845425Y-14237066D01*
X16843143Y-14236334D01*
X16838051Y-14238027D01*
X16836827Y-14248050D01*
X16830926Y-14248050D01*
X16831357Y-14243612D01*
X16830286Y-14237599D01*
X16826307Y-14235860D01*
X16826239Y-14235904D01*
X16823935Y-14242024D01*
X16783246Y-14242024D01*
X16783332Y-14241423D01*
X16790131Y-14241423D01*
X16792509Y-14241377D01*
X16795986Y-14236003D01*
X16804953Y-14236003D01*
X16807594Y-14238643D01*
X16808695Y-14237542D01*
X16810234Y-14236003D01*
X16807594Y-14233363D01*
X16804953Y-14236003D01*
X16795986Y-14236003D01*
X16796693Y-14234911D01*
X16797069Y-14233909D01*
X16797736Y-14230722D01*
X16815515Y-14230722D01*
X16818155Y-14233363D01*
X16820795Y-14230722D01*
X16818155Y-14228082D01*
X16815515Y-14230722D01*
X16797736Y-14230722D01*
X16798177Y-14228617D01*
X16793737Y-14231955D01*
X16790723Y-14235837D01*
X16790131Y-14241423D01*
X16783332Y-14241423D01*
X16783414Y-14240844D01*
X16782568Y-14235653D01*
X16780223Y-14237653D01*
X16779380Y-14240707D01*
X16684848Y-14240707D01*
X16683824Y-14238972D01*
X16676931Y-14239425D01*
X16670721Y-14247361D01*
X16670521Y-14247932D01*
X16654481Y-14247932D01*
X16656207Y-14245772D01*
X16657400Y-14243409D01*
X16659037Y-14236083D01*
X16717325Y-14236083D01*
X16722791Y-14238643D01*
X16726726Y-14237997D01*
X16728575Y-14236003D01*
X16741585Y-14236003D01*
X16744226Y-14238643D01*
X16746866Y-14236003D01*
X16744226Y-14233363D01*
X16741585Y-14236003D01*
X16728575Y-14236003D01*
X16731024Y-14233363D01*
X16730882Y-14232110D01*
X16726055Y-14228082D01*
X16724573Y-14228283D01*
X16717822Y-14233363D01*
X16717325Y-14236083D01*
X16659037Y-14236083D01*
X16659190Y-14235397D01*
X16653460Y-14231071D01*
X16651394Y-14230722D01*
X16688779Y-14230722D01*
X16691419Y-14233363D01*
X16693179Y-14231602D01*
X16701100Y-14231602D01*
X16701874Y-14232234D01*
X16708141Y-14231602D01*
X16708967Y-14230014D01*
X16704621Y-14228082D01*
X16701825Y-14228463D01*
X16701100Y-14231602D01*
X16693179Y-14231602D01*
X16694059Y-14230722D01*
X16691419Y-14228082D01*
X16688779Y-14230722D01*
X16651394Y-14230722D01*
X16648358Y-14230209D01*
X16641042Y-14233703D01*
X16639490Y-14235587D01*
X16630787Y-14238155D01*
X16621273Y-14234482D01*
X16615710Y-14226014D01*
X16617171Y-14215868D01*
X16617336Y-14215760D01*
X16701100Y-14215760D01*
X16701874Y-14216392D01*
X16704621Y-14216115D01*
X16708141Y-14215760D01*
X16708599Y-14214880D01*
X16717259Y-14214880D01*
X16722480Y-14217521D01*
X16726046Y-14217046D01*
X16726055Y-14217041D01*
X16729479Y-14214880D01*
X16741585Y-14214880D01*
X16744226Y-14217521D01*
X16746866Y-14214880D01*
X16744226Y-14212240D01*
X16741585Y-14214880D01*
X16729479Y-14214880D01*
X16733664Y-14212240D01*
X16734228Y-14209600D01*
X16733086Y-14209023D01*
X16779380Y-14209023D01*
X16780640Y-14216091D01*
X16782443Y-14216009D01*
X16782568Y-14215125D01*
X16783414Y-14209160D01*
X16783391Y-14209023D01*
X16789941Y-14209023D01*
X16791202Y-14216091D01*
X16793004Y-14216009D01*
X16793928Y-14209494D01*
X16806082Y-14209494D01*
X16806714Y-14215760D01*
X16807594Y-14216218D01*
X16808302Y-14216587D01*
X16810234Y-14212240D01*
X16809853Y-14209444D01*
X16806714Y-14208720D01*
X16806082Y-14209494D01*
X16793928Y-14209494D01*
X16793975Y-14209160D01*
X16793376Y-14205485D01*
X16822473Y-14205485D01*
X16825529Y-14213805D01*
X16826307Y-14214491D01*
X16826827Y-14214950D01*
X16830276Y-14214206D01*
X16831196Y-14204055D01*
X16831102Y-14201488D01*
X16836637Y-14201488D01*
X16836639Y-14203837D01*
X16837190Y-14214054D01*
X16840138Y-14215390D01*
X16840756Y-14214880D01*
X16852479Y-14214880D01*
X16855120Y-14217521D01*
X16856805Y-14215836D01*
X16857760Y-14214880D01*
X16855120Y-14212240D01*
X16852479Y-14214880D01*
X16840756Y-14214880D01*
X16847521Y-14209308D01*
X16851489Y-14205900D01*
X16855120Y-14204175D01*
X16858278Y-14202675D01*
X16862973Y-14206850D01*
X16869380Y-14212132D01*
X16881594Y-14216124D01*
X16889444Y-14216129D01*
X16890817Y-14216130D01*
X16892181Y-14212396D01*
X16890550Y-14210540D01*
X16883798Y-14209825D01*
X16879544Y-14211103D01*
X16880492Y-14205564D01*
X16884423Y-14198809D01*
X16891757Y-14198809D01*
X16892079Y-14204306D01*
X16898103Y-14209744D01*
X16904969Y-14214345D01*
X16907888Y-14215614D01*
X16911887Y-14217353D01*
X16913073Y-14216308D01*
X16913143Y-14216012D01*
X16921128Y-14216012D01*
X16923167Y-14216012D01*
X16943069Y-14216012D01*
X16944092Y-14216012D01*
X16950119Y-14215875D01*
X16964970Y-14213112D01*
X16965343Y-14212796D01*
X16976815Y-14212796D01*
X16976897Y-14216075D01*
X16983823Y-14217125D01*
X16991799Y-14216817D01*
X16999423Y-14216523D01*
X17026739Y-14214880D01*
X17026740Y-14178180D01*
X17026592Y-14162431D01*
X17025357Y-14150625D01*
X17021888Y-14148566D01*
X17015045Y-14155980D01*
X17003686Y-14172588D01*
X16989712Y-14193664D01*
X17001626Y-14202834D01*
X17004138Y-14204849D01*
X17009411Y-14210812D01*
X17006149Y-14211755D01*
X16995265Y-14207070D01*
X16987468Y-14204769D01*
X16978856Y-14210033D01*
X16976815Y-14212796D01*
X16965343Y-14212796D01*
X16973255Y-14206085D01*
X16973731Y-14205313D01*
X16976632Y-14197355D01*
X16971667Y-14193170D01*
X16964560Y-14191938D01*
X16956752Y-14195343D01*
X16955737Y-14203168D01*
X16954377Y-14207704D01*
X16944752Y-14210373D01*
X16941141Y-14210508D01*
X16934881Y-14209163D01*
X16937130Y-14204126D01*
X16937584Y-14203554D01*
X16939653Y-14195308D01*
X16934076Y-14183550D01*
X16933930Y-14183328D01*
X16929830Y-14177632D01*
X16937701Y-14177632D01*
X16944421Y-14185447D01*
X16949016Y-14188117D01*
X16954641Y-14187150D01*
X16954098Y-14182912D01*
X16947190Y-14176288D01*
X16945616Y-14175359D01*
X16938343Y-14173464D01*
X16937701Y-14177632D01*
X16929830Y-14177632D01*
X16927147Y-14173903D01*
X16923161Y-14169995D01*
X16922595Y-14170907D01*
X16921545Y-14179089D01*
X16921128Y-14193003D01*
X16921128Y-14216012D01*
X16913143Y-14216012D01*
X16915061Y-14207890D01*
X16915847Y-14193758D01*
X16915743Y-14186670D01*
X16914927Y-14174719D01*
X16913567Y-14169995D01*
X16913012Y-14170229D01*
X16907768Y-14175700D01*
X16899783Y-14186149D01*
X16897403Y-14189512D01*
X16891757Y-14198809D01*
X16884423Y-14198809D01*
X16887931Y-14192779D01*
X16890927Y-14187968D01*
X16897006Y-14175081D01*
X16897469Y-14167408D01*
X16892052Y-14166636D01*
X16891510Y-14166835D01*
X16881005Y-14169729D01*
X16866497Y-14172830D01*
X16855293Y-14175656D01*
X16850075Y-14180640D01*
X16850314Y-14190302D01*
X16851433Y-14198456D01*
X16850194Y-14200639D01*
X16844592Y-14194069D01*
X16844225Y-14193597D01*
X16839062Y-14187878D01*
X16837007Y-14190066D01*
X16836637Y-14201488D01*
X16831102Y-14201488D01*
X16830899Y-14195905D01*
X16829314Y-14192736D01*
X16825368Y-14198227D01*
X16822473Y-14205485D01*
X16793376Y-14205485D01*
X16793129Y-14203969D01*
X16790785Y-14205969D01*
X16789941Y-14209023D01*
X16783391Y-14209023D01*
X16782568Y-14203969D01*
X16780223Y-14205969D01*
X16779380Y-14209023D01*
X16733086Y-14209023D01*
X16729007Y-14206959D01*
X16725440Y-14207434D01*
X16717822Y-14212240D01*
X16717259Y-14214880D01*
X16708599Y-14214880D01*
X16708967Y-14214172D01*
X16704621Y-14212240D01*
X16701825Y-14212621D01*
X16701100Y-14215760D01*
X16617336Y-14215760D01*
X16625306Y-14210549D01*
X16637207Y-14212901D01*
X16644058Y-14215177D01*
X16657294Y-14214817D01*
X16659897Y-14213422D01*
X16665770Y-14210275D01*
X16665926Y-14203325D01*
X16655920Y-14194057D01*
X16653934Y-14193085D01*
X16668524Y-14193085D01*
X16672017Y-14202690D01*
X16680692Y-14206959D01*
X16683824Y-14206423D01*
X16686080Y-14206036D01*
X16688120Y-14200249D01*
X16681664Y-14188686D01*
X16675527Y-14182720D01*
X16670634Y-14185290D01*
X16668524Y-14193085D01*
X16653934Y-14193085D01*
X16642812Y-14187639D01*
X16625765Y-14186715D01*
X16610983Y-14192985D01*
X16600075Y-14204554D01*
X16594651Y-14219525D01*
X16589324Y-14219525D01*
X16589218Y-14213299D01*
X16592768Y-14203513D01*
X16601366Y-14193559D01*
X16603216Y-14191737D01*
X16613250Y-14183868D01*
X16624029Y-14181124D01*
X16625765Y-14181228D01*
X16640334Y-14182099D01*
X16646701Y-14182705D01*
X16663401Y-14182068D01*
X16668132Y-14179745D01*
X16685586Y-14179745D01*
X16689660Y-14192961D01*
X16691419Y-14195258D01*
X16696188Y-14201486D01*
X16702849Y-14202774D01*
X16703663Y-14202200D01*
X16703731Y-14201990D01*
X16757427Y-14201990D01*
X16757842Y-14203900D01*
X16762708Y-14204319D01*
X16764288Y-14203235D01*
X16767989Y-14198727D01*
X16767851Y-14198200D01*
X16762708Y-14196398D01*
X16761260Y-14196613D01*
X16757427Y-14201990D01*
X16703731Y-14201990D01*
X16704621Y-14199240D01*
X16705711Y-14195868D01*
X16701020Y-14183923D01*
X16693861Y-14173993D01*
X16687831Y-14174111D01*
X16685586Y-14179745D01*
X16668132Y-14179745D01*
X16674025Y-14176851D01*
X16675527Y-14175454D01*
X16676113Y-14174910D01*
X16680105Y-14168254D01*
X16675743Y-14161485D01*
X16666905Y-14155011D01*
X16658725Y-14150883D01*
X16693063Y-14150883D01*
X16693861Y-14153374D01*
X16694111Y-14154153D01*
X16696476Y-14155001D01*
X16699340Y-14161946D01*
X16701424Y-14172094D01*
X16708727Y-14184975D01*
X16718645Y-14194541D01*
X16728384Y-14197382D01*
X16729007Y-14197218D01*
X16734812Y-14195689D01*
X16742767Y-14191800D01*
X16743180Y-14191300D01*
X16742962Y-14183552D01*
X16737660Y-14171272D01*
X16728894Y-14157531D01*
X16718286Y-14145399D01*
X16718072Y-14145199D01*
X16709404Y-14137848D01*
X16703974Y-14137565D01*
X16697507Y-14144079D01*
X16693063Y-14150883D01*
X16658725Y-14150883D01*
X16653532Y-14148263D01*
X16652426Y-14147810D01*
X16644641Y-14143177D01*
X16644920Y-14139979D01*
X16650731Y-14139688D01*
X16661735Y-14143249D01*
X16669002Y-14146558D01*
X16677870Y-14148872D01*
X16679165Y-14148821D01*
X16683528Y-14145939D01*
X16680105Y-14140221D01*
X16670048Y-14133878D01*
X16660255Y-14130713D01*
X16638622Y-14128076D01*
X16615266Y-14128954D01*
X16595391Y-14133382D01*
X16581864Y-14140262D01*
X16569470Y-14149644D01*
X16561357Y-14158951D01*
X16560089Y-14165826D01*
X16564731Y-14166712D01*
X16573161Y-14161570D01*
X16574891Y-14160040D01*
X16583122Y-14154426D01*
X16585458Y-14155986D01*
X16581950Y-14163369D01*
X16572647Y-14175227D01*
X16570457Y-14177755D01*
X16556702Y-14200633D01*
X16553083Y-14225126D01*
X16549737Y-14225126D01*
X16549685Y-14220824D01*
X16550902Y-14199798D01*
X16553513Y-14184517D01*
X16555392Y-14174338D01*
X16552266Y-14169995D01*
X16552251Y-14169995D01*
X16547359Y-14174821D01*
X16542065Y-14187450D01*
X16537258Y-14205214D01*
X16533827Y-14225442D01*
X16533730Y-14226246D01*
X16532527Y-14234344D01*
X16531773Y-14232863D01*
X16531150Y-14221312D01*
X16531133Y-14220817D01*
X16532878Y-14201556D01*
X16537956Y-14183156D01*
X16539492Y-14179440D01*
X16542724Y-14168768D01*
X16540139Y-14161935D01*
X16530540Y-14154282D01*
X16521867Y-14148229D01*
X16513928Y-14144640D01*
X16509053Y-14148207D01*
X16503885Y-14159603D01*
X16503251Y-14161099D01*
X16498249Y-14170653D01*
X16494955Y-14173316D01*
X16494747Y-14171776D01*
X16497384Y-14163130D01*
X16503350Y-14150059D01*
X16507939Y-14141064D01*
X16531979Y-14141064D01*
X16540285Y-14152094D01*
X16546465Y-14154257D01*
X16556002Y-14151265D01*
X16570804Y-14141874D01*
X16571170Y-14141617D01*
X16595128Y-14129601D01*
X16622278Y-14123295D01*
X16638622Y-14123204D01*
X16648936Y-14123146D01*
X16671420Y-14129606D01*
X16680938Y-14133735D01*
X16690825Y-14134105D01*
X16694059Y-14126600D01*
X16692626Y-14123515D01*
X16683452Y-14117553D01*
X16668334Y-14112132D01*
X16650250Y-14108210D01*
X16632181Y-14106743D01*
X16626554Y-14106987D01*
X16604194Y-14110688D01*
X16583699Y-14117398D01*
X16575796Y-14120789D01*
X16563863Y-14124991D01*
X16558158Y-14125625D01*
X16557806Y-14123418D01*
X16563752Y-14117898D01*
X16576147Y-14111428D01*
X16592572Y-14105178D01*
X16610610Y-14100312D01*
X16613503Y-14099717D01*
X16632213Y-14097009D01*
X16647573Y-14098113D01*
X16665475Y-14103356D01*
X16674976Y-14106596D01*
X16689780Y-14111237D01*
X16698772Y-14113507D01*
X16702016Y-14113338D01*
X16703974Y-14111682D01*
X16708478Y-14107872D01*
X16707887Y-14104123D01*
X16699836Y-14097408D01*
X16684936Y-14090827D01*
X16665447Y-14085293D01*
X16643628Y-14081716D01*
X16620079Y-14081649D01*
X16596013Y-14085952D01*
X16573823Y-14093773D01*
X16554917Y-14104154D01*
X16540702Y-14116135D01*
X16532587Y-14128758D01*
X16531979Y-14141064D01*
X16507939Y-14141064D01*
X16514043Y-14129099D01*
X16495496Y-14115903D01*
X16494981Y-14115536D01*
X16484324Y-14107183D01*
X16481688Y-14102348D01*
X16486044Y-14099217D01*
X16487941Y-14098396D01*
X16490811Y-14094898D01*
X16487580Y-14088625D01*
X16477388Y-14077414D01*
X16474102Y-14073965D01*
X16465525Y-14063814D01*
X16464226Y-14059902D01*
X16469394Y-14061978D01*
X16480219Y-14069794D01*
X16495890Y-14083100D01*
X16501741Y-14088424D01*
X16512433Y-14099190D01*
X16515604Y-14104931D01*
X16511920Y-14106627D01*
X16508149Y-14106714D01*
X16504691Y-14108565D01*
X16509855Y-14114789D01*
X16514571Y-14118424D01*
X16520714Y-14118753D01*
X16530190Y-14114330D01*
X16545585Y-14104401D01*
X16573811Y-14088122D01*
X16603700Y-14078082D01*
X16620079Y-14076586D01*
X16635972Y-14075134D01*
X16648032Y-14076209D01*
X16666361Y-14080179D01*
X16685050Y-14086119D01*
X16701423Y-14093016D01*
X16712800Y-14099855D01*
X16716502Y-14105623D01*
X16716237Y-14106998D01*
X16716885Y-14111639D01*
X16721974Y-14106886D01*
X16731381Y-14092848D01*
X16731932Y-14091959D01*
X16739449Y-14081070D01*
X16744183Y-14078326D01*
X16748056Y-14082537D01*
X16749787Y-14085152D01*
X16754150Y-14086990D01*
X16761355Y-14083087D01*
X16773687Y-14072553D01*
X16780453Y-14066584D01*
X16792153Y-14057290D01*
X16797892Y-14054360D01*
X16797000Y-14057982D01*
X16788804Y-14068342D01*
X16784275Y-14073511D01*
X16768824Y-14090917D01*
X16758625Y-14101723D01*
X16752382Y-14107089D01*
X16748797Y-14108179D01*
X16746572Y-14106152D01*
X16745913Y-14105396D01*
X16740125Y-14106855D01*
X16731415Y-14116639D01*
X16719831Y-14132907D01*
X16732736Y-14150131D01*
X16734685Y-14152810D01*
X16743713Y-14167221D01*
X16744226Y-14168333D01*
X16749249Y-14179236D01*
X16752659Y-14186709D01*
X16757949Y-14191117D01*
X16799673Y-14191117D01*
X16800457Y-14193446D01*
X16806714Y-14196152D01*
X16807282Y-14196398D01*
X16810514Y-14195976D01*
X16818155Y-14191117D01*
X16817847Y-14187870D01*
X16810546Y-14185837D01*
X16804109Y-14186868D01*
X16799673Y-14191117D01*
X16757949Y-14191117D01*
X16759173Y-14191033D01*
X16762708Y-14187890D01*
X16765055Y-14185803D01*
X16765451Y-14174183D01*
X16760194Y-14158590D01*
X16759526Y-14157212D01*
X16754941Y-14147291D01*
X16755120Y-14145717D01*
X16760041Y-14151512D01*
X16765647Y-14160189D01*
X16771471Y-14174117D01*
X16774976Y-14181614D01*
X16782568Y-14183550D01*
X16783123Y-14183692D01*
X16787639Y-14182487D01*
X16793129Y-14181062D01*
X16798177Y-14179753D01*
X16801576Y-14178872D01*
X16810546Y-14176565D01*
X16823134Y-14173328D01*
X16829314Y-14171745D01*
X16850808Y-14166242D01*
X16883094Y-14157999D01*
X16884299Y-14157692D01*
X16929049Y-14157692D01*
X16938343Y-14163417D01*
X16947406Y-14169001D01*
X16965764Y-14180311D01*
X16981982Y-14164591D01*
X16988419Y-14158619D01*
X16998668Y-14150713D01*
X17003015Y-14149592D01*
X17000547Y-14155020D01*
X16990354Y-14166759D01*
X16984974Y-14172768D01*
X16978445Y-14182612D01*
X16978305Y-14187915D01*
X16980319Y-14188025D01*
X16987376Y-14182663D01*
X16995797Y-14171438D01*
X16996609Y-14170116D01*
X17005810Y-14153129D01*
X17009219Y-14142191D01*
X17006471Y-14138431D01*
X17006254Y-14138449D01*
X16998957Y-14139961D01*
X16984587Y-14143415D01*
X16966014Y-14148122D01*
X16929049Y-14157692D01*
X16884299Y-14157692D01*
X16892052Y-14155717D01*
X16913567Y-14150238D01*
X16918488Y-14148984D01*
X16923161Y-14147794D01*
X16944667Y-14142315D01*
X16978083Y-14133772D01*
X17006471Y-14126480D01*
X17007357Y-14126253D01*
X17021888Y-14122498D01*
X17030966Y-14120152D01*
X17047384Y-14115860D01*
X17055089Y-14113772D01*
X17061374Y-14113018D01*
X17062619Y-14117808D01*
X17058196Y-14122953D01*
X17047472Y-14127828D01*
X17042910Y-14129153D01*
X17038271Y-14132543D01*
X17035565Y-14139658D01*
X17034085Y-14152778D01*
X17033128Y-14174179D01*
X17031595Y-14217521D01*
X17052271Y-14217521D01*
X17053708Y-14217528D01*
X17072555Y-14218566D01*
X17089449Y-14220821D01*
X17105741Y-14224080D01*
X17105951Y-14224122D01*
X17105951Y-13995733D01*
X16764028Y-13995730D01*
X16422105Y-13995727D01*
X16276720Y-13995727D01*
X16276486Y-13992031D01*
X16273888Y-13988107D01*
X16267002Y-13986066D01*
X16253737Y-13985293D01*
X16232001Y-13985171D01*
X16187115Y-13985171D01*
X16187115Y-14019496D01*
X16123747Y-14019496D01*
X16123747Y-13985171D01*
X16033976Y-13985171D01*
X16033976Y-14019496D01*
X15949980Y-14019496D01*
X15951533Y-14011213D01*
X15960047Y-14004764D01*
X15967076Y-14000566D01*
X15970608Y-13988306D01*
X15970192Y-13979158D01*
X15968993Y-13974610D01*
X15968062Y-13974846D01*
X15959688Y-13977644D01*
X15944677Y-13982932D01*
X15925428Y-13989868D01*
X15911968Y-13994851D01*
X15896428Y-14001339D01*
X15887607Y-14006877D01*
X15883441Y-14012939D01*
X15881863Y-14021003D01*
X15881483Y-14027147D01*
X15815607Y-14027147D01*
X15816333Y-14026424D01*
X15817469Y-14016226D01*
X15815589Y-14004777D01*
X15810868Y-13998529D01*
X15810363Y-13998369D01*
X15801255Y-13995712D01*
X15785430Y-13991266D01*
X15765982Y-13985900D01*
X15727697Y-13975424D01*
X15616804Y-13975424D01*
X15616804Y-13837313D01*
X15727697Y-13837313D01*
X15968993Y-13837313D01*
G37*
%TO.C,C23*%
X14553500Y-11121375D02*
X14553500Y-11263625D01*
X14371500Y-11121375D02*
X14371500Y-11263625D01*
%TO.C,C3*%
X13291000Y-13436375D02*
X13291000Y-13578625D01*
X13109000Y-13436375D02*
X13109000Y-13578625D01*
%TO.C,R16*%
X15866500Y-13216456D02*
X15866500Y-13071044D01*
X16048500Y-13216456D02*
X16048500Y-13071044D01*
%TO.C,R7*%
X13668500Y-10546044D02*
X13668500Y-10691456D01*
X13486500Y-10546044D02*
X13486500Y-10691456D01*
%TO.C,R18*%
X15761044Y-12566260D02*
X15906456Y-12566260D01*
X15761044Y-12748260D02*
X15906456Y-12748260D01*
D15*
%TO.C,U3*%
X14278750Y-9184500D02*
X14278750Y-8794500D01*
X14783750Y-9184500D02*
X14783750Y-8794500D01*
D12*
X14771750Y-9393500D02*
G75*
G03*
X14771750Y-9393500I-10000J0D01*
G01*
D11*
%TO.C,C4*%
X15004000Y-8843625D02*
X15004000Y-8701375D01*
X15186000Y-8843625D02*
X15186000Y-8701375D01*
%TD*%
D16*
X16904814Y-8370000D02*
G75*
G03*
X16904814Y-8370000I-184814J0D01*
G01*
X13132314Y-8365000D02*
G75*
G03*
X13132314Y-8365000I-184814J0D01*
G01*
X13137500Y-15880000D02*
G75*
G03*
X13137500Y-15880000I-184814J0D01*
G01*
X16905000Y-8787500D02*
X17070000Y-8787500D01*
X17070000Y-11907500D01*
X16905000Y-11907500D01*
X16905000Y-8787500D01*
X16907314Y-15875000D02*
G75*
G03*
X16907314Y-15875000I-184814J0D01*
G01*
X12496500Y-7931500D02*
X17192500Y-7931500D01*
X17192500Y-16320000D01*
X12496500Y-16320000D01*
X12496500Y-7931500D01*
D17*
%TO.C,J3*%
X12499000Y-8804000D02*
X12499000Y-9664000D01*
%TO.C,J5*%
X12498500Y-10481000D02*
X12498500Y-11341000D01*
%TD*%
M02*
