%TF.GenerationSoftware,KiCad,Pcbnew,7.0.1*%
%TF.CreationDate,2023-09-27T13:21:00+00:00*%
%TF.ProjectId,SI4735,53493437-3335-42e6-9b69-6361645f7063,rev?*%
%TF.SameCoordinates,Original*%
%TF.FileFunction,Copper,L1,Top*%
%TF.FilePolarity,Positive*%
%FSLAX45Y45*%
G04 Gerber Fmt 4.5, Leading zero omitted, Abs format (unit mm)*
G04 Created by KiCad (PCBNEW 7.0.1) date 2023-09-27 13:21:00*
%MOMM*%
%LPD*%
G01*
G04 APERTURE LIST*
G04 Aperture macros list*
%AMRoundRect*
0 Rectangle with rounded corners*
0 $1 Rounding radius*
0 $2 $3 $4 $5 $6 $7 $8 $9 X,Y pos of 4 corners*
0 Add a 4 corners polygon primitive as box body*
4,1,4,$2,$3,$4,$5,$6,$7,$8,$9,$2,$3,0*
0 Add four circle primitives for the rounded corners*
1,1,$1+$1,$2,$3*
1,1,$1+$1,$4,$5*
1,1,$1+$1,$6,$7*
1,1,$1+$1,$8,$9*
0 Add four rect primitives between the rounded corners*
20,1,$1+$1,$2,$3,$4,$5,0*
20,1,$1+$1,$4,$5,$6,$7,0*
20,1,$1+$1,$6,$7,$8,$9,0*
20,1,$1+$1,$8,$9,$2,$3,0*%
G04 Aperture macros list end*
%TA.AperFunction,ComponentPad*%
%ADD10C,1.600000*%
%TD*%
%TA.AperFunction,ComponentPad*%
%ADD11O,1.600000X1.600000*%
%TD*%
%TA.AperFunction,ComponentPad*%
%ADD12R,1.600000X1.600000*%
%TD*%
%TA.AperFunction,ComponentPad*%
%ADD13R,1.500000X1.050000*%
%TD*%
%TA.AperFunction,ComponentPad*%
%ADD14O,1.500000X1.050000*%
%TD*%
%TA.AperFunction,ComponentPad*%
%ADD15R,1.700000X1.700000*%
%TD*%
%TA.AperFunction,ComponentPad*%
%ADD16O,1.700000X1.700000*%
%TD*%
%TA.AperFunction,ComponentPad*%
%ADD17RoundRect,0.200100X0.949900X-0.949900X0.949900X0.949900X-0.949900X0.949900X-0.949900X-0.949900X0*%
%TD*%
%TA.AperFunction,ComponentPad*%
%ADD18C,2.500000*%
%TD*%
%TA.AperFunction,SMDPad,CuDef*%
%ADD19R,2.200000X2.800000*%
%TD*%
%TA.AperFunction,SMDPad,CuDef*%
%ADD20R,2.800000X2.800000*%
%TD*%
%TA.AperFunction,ComponentPad*%
%ADD21R,1.200000X1.200000*%
%TD*%
%TA.AperFunction,ComponentPad*%
%ADD22C,1.200000*%
%TD*%
%TA.AperFunction,SMDPad,CuDef*%
%ADD23RoundRect,0.250000X0.312500X0.625000X-0.312500X0.625000X-0.312500X-0.625000X0.312500X-0.625000X0*%
%TD*%
%TA.AperFunction,SMDPad,CuDef*%
%ADD24R,2.000000X1.500000*%
%TD*%
%TA.AperFunction,SMDPad,CuDef*%
%ADD25R,2.000000X3.800000*%
%TD*%
%TA.AperFunction,ComponentPad*%
%ADD26R,1.050000X1.500000*%
%TD*%
%TA.AperFunction,ComponentPad*%
%ADD27O,1.050000X1.500000*%
%TD*%
%TA.AperFunction,ComponentPad*%
%ADD28C,2.000000*%
%TD*%
%TA.AperFunction,ComponentPad*%
%ADD29C,1.000000*%
%TD*%
%TA.AperFunction,ComponentPad*%
%ADD30R,1.000000X1.000000*%
%TD*%
%TA.AperFunction,SMDPad,CuDef*%
%ADD31RoundRect,0.250000X-0.625000X0.312500X-0.625000X-0.312500X0.625000X-0.312500X0.625000X0.312500X0*%
%TD*%
%TA.AperFunction,ComponentPad*%
%ADD32R,1.676400X1.676400*%
%TD*%
%TA.AperFunction,ComponentPad*%
%ADD33C,1.676400*%
%TD*%
%TA.AperFunction,SMDPad,CuDef*%
%ADD34RoundRect,0.250000X0.625000X-0.312500X0.625000X0.312500X-0.625000X0.312500X-0.625000X-0.312500X0*%
%TD*%
%TA.AperFunction,ViaPad*%
%ADD35C,0.800000*%
%TD*%
%TA.AperFunction,Conductor*%
%ADD36C,2.000000*%
%TD*%
%TA.AperFunction,Conductor*%
%ADD37C,1.200000*%
%TD*%
%TA.AperFunction,Conductor*%
%ADD38C,0.500000*%
%TD*%
%TA.AperFunction,Conductor*%
%ADD39C,1.500000*%
%TD*%
%TA.AperFunction,Profile*%
%ADD40C,0.050000*%
%TD*%
%TA.AperFunction,Profile*%
%ADD41C,0.100000*%
%TD*%
G04 APERTURE END LIST*
D10*
%TO.P,L1,1,1*%
%TO.N,Net-(D1-A)*%
X13782500Y-9232500D03*
D11*
%TO.P,L1,2,2*%
%TO.N,GND*%
X13782500Y-9740500D03*
%TD*%
D12*
%TO.P,C7,1*%
%TO.N,+5V*%
X15266989Y-10400000D03*
D10*
%TO.P,C7,2*%
%TO.N,GND*%
X15466989Y-10400000D03*
%TD*%
D13*
%TO.P,Q3,1,E*%
%TO.N,GND*%
X14721250Y-13134000D03*
D14*
%TO.P,Q3,2,B*%
%TO.N,Net-(Q3-B)*%
X14721250Y-13007000D03*
%TO.P,Q3,3,C*%
%TO.N,Left_Pre*%
X14721250Y-12880000D03*
%TD*%
D15*
%TO.P,J4,1,Pin_1*%
%TO.N,Net-(J2-Pin_3)*%
X14829800Y-15636210D03*
D16*
%TO.P,J4,2,Pin_2*%
%TO.N,GND*%
X15083800Y-15636210D03*
%TO.P,J4,3,Pin_3*%
%TO.N,Net-(J2-Pin_1)*%
X15337800Y-15636210D03*
%TD*%
D12*
%TO.P,D4,1,K*%
%TO.N,GND*%
X13807500Y-11751500D03*
D11*
%TO.P,D4,2,A*%
%TO.N,Net-(D3-K)*%
X13045500Y-11751500D03*
%TD*%
D13*
%TO.P,Q2,1,E*%
%TO.N,GND*%
X15695000Y-13116260D03*
D14*
%TO.P,Q2,2,B*%
%TO.N,Net-(Q2-B)*%
X15695000Y-12989260D03*
%TO.P,Q2,3,C*%
%TO.N,Right_Pre*%
X15695000Y-12862260D03*
%TD*%
D17*
%TO.P,J3,1,Pin_1*%
%TO.N,N/C*%
X12949000Y-9234000D03*
D18*
%TO.P,J3,2,Pin_2*%
%TO.N,GND*%
X12695000Y-9488000D03*
X13203000Y-9488000D03*
X12695000Y-8980000D03*
X13203000Y-8980000D03*
%TD*%
D15*
%TO.P,J2,1,Pin_1*%
%TO.N,Net-(J2-Pin_1)*%
X15337300Y-15993710D03*
D16*
%TO.P,J2,2,Pin_2*%
%TO.N,GND*%
X15083300Y-15993710D03*
%TO.P,J2,3,Pin_3*%
%TO.N,Net-(J2-Pin_3)*%
X14829300Y-15993710D03*
%TD*%
D12*
%TO.P,U4,1,A0*%
%TO.N,GND*%
X14705480Y-14397100D03*
D11*
%TO.P,U4,2,A1*%
X14959480Y-14397100D03*
%TO.P,U4,3,A2*%
X15213480Y-14397100D03*
%TO.P,U4,4,GND*%
X15467480Y-14397100D03*
%TO.P,U4,5,SDA*%
%TO.N,A_SDA*%
X15467480Y-13635100D03*
%TO.P,U4,6,SCL*%
%TO.N,A_SCL*%
X15213480Y-13635100D03*
%TO.P,U4,7,WP*%
%TO.N,Wp*%
X14959480Y-13635100D03*
%TO.P,U4,8,VCC*%
%TO.N,5VA*%
X14705480Y-13635100D03*
%TD*%
D10*
%TO.P,C21,1*%
%TO.N,GND*%
X14865000Y-10995000D03*
%TO.P,C21,2*%
%TO.N,Net-(C21-Pad2)*%
X14865000Y-11245000D03*
%TD*%
D15*
%TO.P,J1,1,Pin_1*%
%TO.N,12V*%
X16250920Y-8933180D03*
D16*
%TO.P,J1,2,Pin_2*%
%TO.N,5VA*%
X16250920Y-9187180D03*
%TO.P,J1,3,Pin_3*%
%TO.N,3.3V*%
X16250920Y-9441180D03*
%TO.P,J1,4,Pin_4*%
%TO.N,GND*%
X16250920Y-9695180D03*
%TO.P,J1,5,Pin_5*%
%TO.N,A_RST*%
X16250920Y-9949180D03*
%TO.P,J1,6,Pin_6*%
%TO.N,A_SEN*%
X16250920Y-10203180D03*
%TO.P,J1,7,Pin_7*%
%TO.N,A_SCL*%
X16250920Y-10457180D03*
%TO.P,J1,8,Pin_8*%
%TO.N,A_SDA*%
X16250920Y-10711180D03*
%TO.P,J1,9,Pin_9*%
%TO.N,D28*%
X16250920Y-10965180D03*
%TO.P,J1,10,Pin_10*%
%TO.N,Wp*%
X16250920Y-11219180D03*
%TO.P,J1,11,Pin_11*%
%TO.N,Mute*%
X16250920Y-11473180D03*
%TO.P,J1,12,Pin_12*%
%TO.N,Sleep*%
X16250920Y-11727180D03*
%TD*%
D12*
%TO.P,C16,1*%
%TO.N,Net-(U5-SVRR)*%
X13495000Y-15715000D03*
D10*
%TO.P,C16,2*%
%TO.N,GND*%
X13495000Y-15915000D03*
%TD*%
D19*
%TO.P,J10,R*%
%TO.N,Right_Pre*%
X12910000Y-12067500D03*
%TO.P,J10,S*%
%TO.N,GND*%
X12710000Y-12807500D03*
D20*
%TO.P,J10,T*%
%TO.N,Left_Pre*%
X13650000Y-12807500D03*
%TD*%
D12*
%TO.P,C1,1*%
%TO.N,12V*%
X15377500Y-8375000D03*
D10*
%TO.P,C1,2*%
%TO.N,GND*%
X15377500Y-8175000D03*
%TD*%
D21*
%TO.P,C20,1*%
%TO.N,Net-(U5--INV1)*%
X14212500Y-13080000D03*
D22*
%TO.P,C20,2*%
%TO.N,Left_Pre*%
X14212500Y-12880000D03*
%TD*%
D21*
%TO.P,C18,1*%
%TO.N,Right_Pre*%
X15487500Y-11680000D03*
D22*
%TO.P,C18,2*%
%TO.N,Net-(C17-Pad2)*%
X15487500Y-11480000D03*
%TD*%
D12*
%TO.P,C11,1*%
%TO.N,Net-(U5-OUT2)*%
X16132500Y-15820000D03*
D10*
%TO.P,C11,2*%
%TO.N,Net-(J2-Pin_1)*%
X15752500Y-15820000D03*
%TD*%
D12*
%TO.P,C12,1*%
%TO.N,Net-(U5-OUT1)*%
X14025000Y-15819700D03*
D10*
%TO.P,C12,2*%
%TO.N,Net-(J2-Pin_3)*%
X14405000Y-15819700D03*
%TD*%
D23*
%TO.P,R8,1*%
%TO.N,12V*%
X14438680Y-14298320D03*
%TO.P,R8,2*%
%TO.N,Net-(Q1-C)*%
X14146180Y-14298320D03*
%TD*%
D21*
%TO.P,C19,1*%
%TO.N,Net-(U5--INV2)*%
X15182500Y-13064760D03*
D22*
%TO.P,C19,2*%
%TO.N,Right_Pre*%
X15182500Y-12864760D03*
%TD*%
D21*
%TO.P,C14,1*%
%TO.N,Net-(U5-M{slash}SS)*%
X13887500Y-13612120D03*
D22*
%TO.P,C14,2*%
%TO.N,GND*%
X13887500Y-13412120D03*
%TD*%
D12*
%TO.P,C8,1*%
%TO.N,3.3V*%
X15290000Y-9727000D03*
D10*
%TO.P,C8,2*%
%TO.N,GND*%
X15290000Y-9527000D03*
%TD*%
D15*
%TO.P,J7,1,Pin_1*%
%TO.N,Left_Pre*%
X14992000Y-12120000D03*
D16*
%TO.P,J7,2,Pin_2*%
%TO.N,GND*%
X15246000Y-12120000D03*
%TO.P,J7,3,Pin_3*%
%TO.N,Right_Pre*%
X15500000Y-12120000D03*
%TD*%
D24*
%TO.P,U1,1,GND*%
%TO.N,GND*%
X14857500Y-10620000D03*
%TO.P,U1,2,VO*%
%TO.N,+5V*%
X14857500Y-10390000D03*
D25*
X14227500Y-10390000D03*
D24*
%TO.P,U1,3,VI*%
%TO.N,5VA*%
X14857500Y-10160000D03*
%TD*%
D12*
%TO.P,D3,1,K*%
%TO.N,Net-(D3-K)*%
X13044500Y-11499000D03*
D11*
%TO.P,D3,2,A*%
%TO.N,GND*%
X13806500Y-11499000D03*
%TD*%
D26*
%TO.P,Q1,1,E*%
%TO.N,GND*%
X14400580Y-13937240D03*
D27*
%TO.P,Q1,2,B*%
%TO.N,Net-(Q1-B)*%
X14273580Y-13937240D03*
%TO.P,Q1,3,C*%
%TO.N,Net-(Q1-C)*%
X14146580Y-13937240D03*
%TD*%
D28*
%TO.P,L2,1,1*%
%TO.N,Net-(D3-K)*%
X12847500Y-10280000D03*
%TO.P,L2,2,2*%
%TO.N,Net-(D1-A)*%
X12847500Y-9880000D03*
%TD*%
D10*
%TO.P,C17,1*%
%TO.N,GND*%
X15582500Y-11007500D03*
%TO.P,C17,2*%
%TO.N,Net-(C17-Pad2)*%
X15582500Y-11257500D03*
%TD*%
D12*
%TO.P,C5,1*%
%TO.N,5VA*%
X15287000Y-9179511D03*
D10*
%TO.P,C5,2*%
%TO.N,GND*%
X15287000Y-8979511D03*
%TD*%
D29*
%TO.P,Y1,1,1*%
%TO.N,Net-(U6-GPO3{slash}[DCLK])*%
X14250000Y-10896000D03*
%TO.P,Y1,2,2*%
%TO.N,Net-(U6-RCLK)*%
X14440000Y-10896000D03*
%TD*%
D12*
%TO.P,D1,1,K*%
%TO.N,GND*%
X14064500Y-8660000D03*
D11*
%TO.P,D1,2,A*%
%TO.N,Net-(D1-A)*%
X13302500Y-8660000D03*
%TD*%
D30*
%TO.P,J8,1,Pin_1*%
%TO.N,GND*%
X14050000Y-11652500D03*
%TD*%
%TO.P,J9,1,Pin_1*%
%TO.N,GND*%
X14690000Y-11650000D03*
%TD*%
D31*
%TO.P,R14,1*%
%TO.N,Sleep*%
X14273580Y-13380580D03*
%TO.P,R14,2*%
%TO.N,Net-(Q1-B)*%
X14273580Y-13673080D03*
%TD*%
D12*
%TO.P,D2,1,K*%
%TO.N,Net-(D1-A)*%
X13304000Y-8410000D03*
D11*
%TO.P,D2,2,A*%
%TO.N,GND*%
X14066000Y-8410000D03*
%TD*%
D17*
%TO.P,J5,1,Pin_1*%
%TO.N,Net-(D3-K)*%
X12948500Y-10911000D03*
D18*
%TO.P,J5,2,Pin_2*%
%TO.N,GND*%
X12694500Y-11165000D03*
X13202500Y-11165000D03*
X12694500Y-10657000D03*
X13202500Y-10657000D03*
%TD*%
D32*
%TO.P,U5,1,-INV1*%
%TO.N,Net-(U5--INV1)*%
X13474500Y-15392000D03*
D33*
%TO.P,U5,2,SGND*%
%TO.N,GND*%
X13474500Y-15138000D03*
%TO.P,U5,3,SVRR*%
%TO.N,Net-(U5-SVRR)*%
X13474500Y-14884000D03*
%TO.P,U5,4,OUT1*%
%TO.N,Net-(U5-OUT1)*%
X13474500Y-14630000D03*
%TO.P,U5,5,PGND*%
%TO.N,GND*%
X13474500Y-14376000D03*
%TO.P,U5,6,OUT2*%
%TO.N,Net-(U5-OUT2)*%
X13474500Y-14122000D03*
%TO.P,U5,7,VP*%
%TO.N,12V*%
X13474500Y-13868000D03*
%TO.P,U5,8,M/SS*%
%TO.N,Net-(U5-M{slash}SS)*%
X13474500Y-13614000D03*
%TO.P,U5,9,-INV2*%
%TO.N,Net-(U5--INV2)*%
X13474500Y-13360000D03*
%TO.P,U5,10,GND_2*%
%TO.N,GND*%
X12712500Y-13360000D03*
%TO.P,U5,11,GND_9*%
X12712500Y-13614000D03*
%TO.P,U5,12,GND_7*%
X12712500Y-13868000D03*
%TO.P,U5,13,GND*%
X12712500Y-14122000D03*
%TO.P,U5,14,GND_8*%
X12712500Y-14376000D03*
%TO.P,U5,15,GND_4*%
X12712500Y-14630000D03*
%TO.P,U5,16,GND_5*%
X12712500Y-14884000D03*
%TO.P,U5,17,GND_6*%
X12712500Y-15138000D03*
%TO.P,U5,18,GND_3*%
X12712500Y-15392000D03*
%TD*%
D24*
%TO.P,U2,1,GND*%
%TO.N,GND*%
X14857500Y-9867500D03*
%TO.P,U2,2,VO*%
%TO.N,3.3V*%
X14857500Y-9637500D03*
D25*
X14227500Y-9637500D03*
D24*
%TO.P,U2,3,VI*%
%TO.N,5VA*%
X14857500Y-9407500D03*
%TD*%
D21*
%TO.P,C22,1*%
%TO.N,Left_Pre*%
X15007500Y-11689760D03*
D22*
%TO.P,C22,2*%
%TO.N,Net-(C21-Pad2)*%
X15007500Y-11489760D03*
%TD*%
D34*
%TO.P,R15,1*%
%TO.N,Net-(Q1-C)*%
X13915000Y-14110000D03*
%TO.P,R15,2*%
%TO.N,Net-(U5-M{slash}SS)*%
X13915000Y-13817500D03*
%TD*%
D35*
%TO.N,GND*%
X13862500Y-10150000D03*
X15073000Y-9925000D03*
X15191000Y-9926000D03*
%TO.N,3.3V*%
X13577500Y-10935000D03*
X14462500Y-10725000D03*
%TO.N,A_SDA*%
X15977500Y-10707500D03*
X14467750Y-8500000D03*
%TO.N,A_SCL*%
X16070000Y-10460000D03*
X14727500Y-8495000D03*
%TO.N,D28*%
X14335000Y-8500000D03*
%TO.N,Mute*%
X16200000Y-13287500D03*
%TO.N,Wp*%
X15875000Y-11220000D03*
%TD*%
D36*
%TO.N,Net-(D1-A)*%
X13304000Y-8502500D02*
X13304000Y-8643500D01*
X13304000Y-8410000D02*
X13304000Y-8502500D01*
D37*
%TO.N,Net-(U5-OUT2)*%
X14765000Y-15395000D02*
X13492000Y-14122000D01*
X15942020Y-15395000D02*
X14765000Y-15395000D01*
X13492000Y-14122000D02*
X13474500Y-14122000D01*
X16132500Y-15820000D02*
X16132500Y-15585480D01*
D38*
X16132500Y-15835420D02*
X16132500Y-15585480D01*
D37*
X16132500Y-15585480D02*
X15942020Y-15395000D01*
D38*
X13617500Y-14265000D02*
X13474500Y-14122000D01*
D37*
%TO.N,GND*%
X16052000Y-9669000D02*
X16118000Y-9603000D01*
X12688000Y-11158500D02*
X12694500Y-11165000D01*
D36*
X13325000Y-9015000D02*
X13325000Y-9470500D01*
D37*
X15466989Y-10321917D02*
X15494000Y-10348928D01*
X13806500Y-11647500D02*
X13806500Y-11750500D01*
X15198820Y-9503000D02*
X15450000Y-9503000D01*
X14852500Y-13142500D02*
X14592500Y-13142500D01*
D36*
X15467480Y-14397100D02*
X15462080Y-14402500D01*
X13447500Y-9860000D02*
X13340000Y-9860000D01*
D37*
X14577500Y-13132500D02*
X14577500Y-13037500D01*
X12617500Y-13402500D02*
X12777500Y-13242500D01*
D36*
X13807500Y-11751500D02*
X14021500Y-11751500D01*
D37*
X13329000Y-14992500D02*
X13390750Y-15054250D01*
D36*
X13437500Y-11285000D02*
X12816500Y-11285000D01*
D37*
X15377500Y-8092500D02*
X15334000Y-8049000D01*
X15570000Y-10995000D02*
X15582500Y-11007500D01*
X14712500Y-14280000D02*
X15485000Y-14280000D01*
X15532500Y-14500000D02*
X15532500Y-14327500D01*
D36*
X13350000Y-9075000D02*
X13325000Y-9100000D01*
D37*
X14635000Y-14275000D02*
X14680000Y-14230000D01*
D36*
X13340000Y-9860000D02*
X13332500Y-9867500D01*
D37*
X15250000Y-11885000D02*
X15155000Y-11885000D01*
X12880000Y-12660000D02*
X12892500Y-12660000D01*
D36*
X15102500Y-10620000D02*
X15107500Y-10625000D01*
D37*
X12892500Y-12660000D02*
X12882500Y-12650000D01*
X12875000Y-15560000D02*
X12632500Y-15560000D01*
X16438090Y-9671910D02*
X16400090Y-9633910D01*
X13375000Y-15165000D02*
X13402000Y-15138000D01*
D36*
X15462080Y-14402500D02*
X14666500Y-14402500D01*
X13320000Y-9015000D02*
X13325000Y-9015000D01*
D37*
X12782500Y-12652500D02*
X12782500Y-12735000D01*
D36*
X14137500Y-11340000D02*
X14082500Y-11285000D01*
D37*
X16118000Y-9603000D02*
X16369180Y-9603000D01*
X15494000Y-10348928D02*
X15494000Y-10590189D01*
D36*
X13782500Y-9575000D02*
X13782500Y-9807500D01*
D37*
X14968000Y-10620000D02*
X15446000Y-10620000D01*
X14968000Y-10620000D02*
X15035500Y-10687500D01*
D36*
X13325000Y-9015000D02*
X13240000Y-9015000D01*
D37*
X13972000Y-13459000D02*
X13774000Y-13459000D01*
X14405000Y-13807500D02*
X14412500Y-13800000D01*
X13277500Y-14482500D02*
X13277500Y-14992500D01*
X12694500Y-10657000D02*
X12688000Y-10663500D01*
X15250000Y-12116000D02*
X15250000Y-11885000D01*
D36*
X13350000Y-8870000D02*
X13350000Y-9075000D01*
D37*
X16264000Y-9789180D02*
X16263820Y-9789000D01*
X16250920Y-9695180D02*
X16264000Y-9708260D01*
X13610000Y-15915000D02*
X13580000Y-15885000D01*
X14705480Y-14397100D02*
X14705480Y-14287020D01*
X15807500Y-13115000D02*
X15712500Y-13115000D01*
X15175000Y-12250000D02*
X15327500Y-12250000D01*
D36*
X13693000Y-9485500D02*
X13700000Y-9492500D01*
D37*
X15230250Y-8134000D02*
X15475750Y-8134000D01*
D36*
X13175000Y-8870000D02*
X13350000Y-8870000D01*
X13708750Y-11838750D02*
X13702500Y-11845000D01*
D37*
X15143820Y-9024000D02*
X15395000Y-9024000D01*
D36*
X13815000Y-9775000D02*
X13782500Y-9807500D01*
X12710000Y-12807500D02*
X12710000Y-13467500D01*
D37*
X14405000Y-14025000D02*
X14405000Y-13807500D01*
X14760000Y-11662500D02*
X14760000Y-11575000D01*
X12582500Y-12940000D02*
X12582500Y-12670000D01*
D36*
X13140500Y-9500000D02*
X12742500Y-9500000D01*
X13325000Y-9470500D02*
X13340000Y-9485500D01*
D37*
X12712500Y-12992500D02*
X12635000Y-12992500D01*
X14705480Y-14287020D02*
X14712500Y-14280000D01*
X12875000Y-15560000D02*
X12997500Y-15560000D01*
X15827500Y-13047500D02*
X15827500Y-13135000D01*
X15466989Y-10321917D02*
X15399536Y-10254464D01*
X14865000Y-13130000D02*
X14865000Y-13035000D01*
X13205000Y-11162500D02*
X13205000Y-10659500D01*
D36*
X13730000Y-9860000D02*
X13815000Y-9775000D01*
X14137500Y-11775000D02*
X14137500Y-11340000D01*
D37*
X14695000Y-11575000D02*
X14655000Y-11615000D01*
X15193820Y-9559000D02*
X15445000Y-9559000D01*
X13559250Y-15054250D02*
X13390750Y-15054250D01*
X13202500Y-11165000D02*
X13205000Y-11162500D01*
X12782500Y-12735000D02*
X12710000Y-12807500D01*
X15420478Y-10687500D02*
X15466989Y-10640989D01*
X14162000Y-8375000D02*
X14162000Y-8718000D01*
X12835000Y-12930000D02*
X12835000Y-12705000D01*
D36*
X13700000Y-9492500D02*
X13815000Y-9492500D01*
X14040000Y-11649000D02*
X13927500Y-11536500D01*
X13782500Y-9575000D02*
X13782500Y-9740500D01*
X13332500Y-9592500D02*
X13332500Y-9493000D01*
X12710000Y-13467500D02*
X12712500Y-13470000D01*
X13202500Y-10657000D02*
X12694500Y-10657000D01*
D37*
X15162500Y-12237500D02*
X15175000Y-12250000D01*
X16078180Y-9695180D02*
X16250920Y-9695180D01*
D36*
X13447500Y-9860000D02*
X13730000Y-9860000D01*
D37*
X13887500Y-13412120D02*
X13953880Y-13412120D01*
D36*
X12631000Y-8815000D02*
X12598500Y-8847500D01*
D37*
X15194000Y-8049000D02*
X15194000Y-8291000D01*
D36*
X13760000Y-9740500D02*
X13505000Y-9485500D01*
D37*
X13402000Y-15138000D02*
X13474500Y-15138000D01*
D36*
X13927500Y-11285000D02*
X13927500Y-11536500D01*
D37*
X15805000Y-13220000D02*
X15805000Y-13125000D01*
D36*
X13207500Y-10527500D02*
X13062500Y-10527500D01*
D37*
X14865000Y-13130000D02*
X14587500Y-13130000D01*
X15180000Y-15545000D02*
X15180000Y-16157500D01*
X13345000Y-14415000D02*
X13277500Y-14482500D01*
X13393500Y-14295000D02*
X13345000Y-14295000D01*
X15847500Y-13027500D02*
X15827500Y-13047500D01*
X15288000Y-8048000D02*
X15530000Y-8048000D01*
X16052000Y-9669000D02*
X16078180Y-9695180D01*
X15399536Y-10254464D02*
X15424000Y-10278928D01*
D36*
X12598500Y-9635000D02*
X12598500Y-10512500D01*
X13202500Y-9485500D02*
X13202500Y-10657000D01*
X13227500Y-8986000D02*
X13227500Y-9494000D01*
X13332500Y-9867500D02*
X13332500Y-9717500D01*
X13815000Y-9890000D02*
X13425000Y-9890000D01*
D37*
X12632500Y-15560000D02*
X12556500Y-15484000D01*
X13277500Y-15117500D02*
X13390000Y-15230000D01*
X13205000Y-10659500D02*
X13202500Y-10657000D01*
X15215000Y-8062000D02*
X15205000Y-8072000D01*
X15597500Y-13220000D02*
X15597500Y-13125000D01*
X14690000Y-11650000D02*
X14747500Y-11650000D01*
X15377500Y-8175000D02*
X15377500Y-8092500D01*
X16369180Y-9603000D02*
X16400090Y-9633910D01*
X15755000Y-11705000D02*
X15755000Y-11072500D01*
X14765000Y-11885000D02*
X14707500Y-11885000D01*
X15327500Y-11887500D02*
X15330000Y-11885000D01*
X13352500Y-15915000D02*
X13495000Y-15915000D01*
X16052000Y-9777360D02*
X16052000Y-9669000D01*
D36*
X12598500Y-11266000D02*
X12632500Y-11300000D01*
X12845000Y-8815000D02*
X13120000Y-8815000D01*
X13240000Y-9015000D02*
X13325000Y-9100000D01*
X13332500Y-10885000D02*
X13332500Y-9982500D01*
D37*
X12617500Y-15417500D02*
X12617500Y-13402500D01*
X15170000Y-15535000D02*
X15180000Y-15545000D01*
X13602500Y-14470000D02*
X13602500Y-14428848D01*
X15532500Y-14327500D02*
X15485000Y-14280000D01*
X12712500Y-13470000D02*
X12712500Y-15392000D01*
D36*
X13332500Y-9717500D02*
X13332500Y-9592500D01*
D37*
X15334000Y-8049000D02*
X14229000Y-8049000D01*
X13806500Y-11499000D02*
X13806500Y-11647500D01*
D36*
X13806500Y-11499000D02*
X13708750Y-11401250D01*
X14857500Y-9867500D02*
X15050000Y-9867500D01*
D37*
X15197820Y-9440000D02*
X15449000Y-9440000D01*
X12712500Y-15392000D02*
X12715000Y-15394500D01*
X12905000Y-12860000D02*
X12772500Y-12992500D01*
D36*
X13807500Y-11751500D02*
X13906500Y-11652500D01*
D37*
X13340750Y-15054250D02*
X13277500Y-15117500D01*
D36*
X13202500Y-8977500D02*
X13202500Y-8945000D01*
D37*
X15470656Y-10644656D02*
X15446000Y-10620000D01*
X13468652Y-14295000D02*
X13345000Y-14295000D01*
X12582500Y-12670000D02*
X12585000Y-12667500D01*
X12688000Y-10663500D02*
X12688000Y-11158500D01*
X12715000Y-15394500D02*
X12715000Y-15515000D01*
X16263820Y-9789000D02*
X16064000Y-9789000D01*
D36*
X13332500Y-10672500D02*
X13337500Y-10667500D01*
X12598500Y-8847500D02*
X12598500Y-9635000D01*
D37*
X13390750Y-15054250D02*
X13474500Y-15138000D01*
X14760000Y-11662500D02*
X14760000Y-11712500D01*
X14690000Y-10995000D02*
X14655000Y-11030000D01*
D36*
X13337500Y-10667500D02*
X13207500Y-10537500D01*
D37*
X12795000Y-13260000D02*
X12795000Y-15547500D01*
D36*
X14066000Y-8667500D02*
X14066000Y-8410000D01*
X14040000Y-11872500D02*
X14137500Y-11775000D01*
X12679000Y-9007000D02*
X13187000Y-9007000D01*
X13207500Y-10537500D02*
X13207500Y-10527500D01*
D37*
X12635000Y-12992500D02*
X12582500Y-12940000D01*
X15145663Y-8971164D02*
X15396843Y-8971164D01*
X14865000Y-10995000D02*
X14690000Y-10995000D01*
X13811500Y-11652500D02*
X13806500Y-11647500D01*
X14690000Y-11650000D02*
X14655000Y-11615000D01*
X15540000Y-8055000D02*
X15540000Y-8297000D01*
X13390000Y-15180000D02*
X13375000Y-15165000D01*
D36*
X13906500Y-11652500D02*
X14050000Y-11652500D01*
X12694500Y-11238000D02*
X12694500Y-11165000D01*
D37*
X15155000Y-11885000D02*
X14765000Y-11885000D01*
X15151820Y-8924000D02*
X15403000Y-8924000D01*
D36*
X13505000Y-9485500D02*
X13693000Y-9485500D01*
D37*
X14017000Y-8797000D02*
X13952000Y-8732000D01*
X14635000Y-14500000D02*
X14635000Y-14275000D01*
D36*
X13782500Y-9740500D02*
X13760000Y-9740500D01*
X13708750Y-11401250D02*
X13708750Y-11838750D01*
D37*
X13390000Y-15230000D02*
X13390000Y-15180000D01*
X12997500Y-15560000D02*
X13352500Y-15915000D01*
D36*
X12694500Y-11165000D02*
X13202500Y-11165000D01*
D37*
X13277500Y-14992500D02*
X13277500Y-15117500D01*
D36*
X13332500Y-9982500D02*
X13332500Y-9867500D01*
D37*
X14655000Y-11615000D02*
X14655000Y-11505000D01*
X13277500Y-14992500D02*
X13329000Y-14992500D01*
X14532500Y-14082500D02*
X14543750Y-14093750D01*
X14066000Y-8212000D02*
X14066000Y-8410000D01*
X15552500Y-13012500D02*
X15552500Y-13107500D01*
X12777500Y-13242500D02*
X12611500Y-13242500D01*
D36*
X13325000Y-9100000D02*
X13325000Y-9470500D01*
D37*
X12835000Y-12705000D02*
X12782500Y-12652500D01*
X14968000Y-10620000D02*
X15364000Y-10620000D01*
X12777500Y-13242500D02*
X12795000Y-13260000D01*
X14760000Y-11712500D02*
X14760000Y-11880000D01*
D36*
X13815000Y-9492500D02*
X13815000Y-9890000D01*
D37*
X12882500Y-12650000D02*
X12577500Y-12650000D01*
D36*
X13332500Y-10885000D02*
X13332500Y-10672500D01*
D37*
X14480000Y-14055000D02*
X14480000Y-13790000D01*
X14590000Y-11575000D02*
X14582500Y-11567500D01*
D36*
X14021500Y-11751500D02*
X14040000Y-11770000D01*
D37*
X16320820Y-9789180D02*
X16063820Y-9789180D01*
X13385000Y-14415000D02*
X13345000Y-14415000D01*
X12712500Y-13360000D02*
X12712500Y-12992500D01*
X15002500Y-15557500D02*
X15002500Y-16140000D01*
X16320820Y-9789180D02*
X16438090Y-9671910D01*
X14865000Y-13130000D02*
X14852500Y-13142500D01*
D36*
X13297500Y-11300000D02*
X13332500Y-11265000D01*
X14857500Y-10620000D02*
X14910000Y-10620000D01*
X14124000Y-11340000D02*
X13927500Y-11536500D01*
D37*
X15575000Y-11885000D02*
X15755000Y-11705000D01*
X15246000Y-12120000D02*
X15250000Y-12116000D01*
D36*
X13202500Y-9485500D02*
X13340000Y-9485500D01*
D37*
X15087500Y-15545000D02*
X15087500Y-16140000D01*
X15697500Y-13217500D02*
X15697500Y-13122500D01*
D36*
X14082500Y-11285000D02*
X13927500Y-11285000D01*
X12647000Y-8859250D02*
X12647000Y-9646750D01*
D37*
X12795000Y-15547500D02*
X12782500Y-15560000D01*
D36*
X13765000Y-9592500D02*
X13782500Y-9575000D01*
D37*
X14480000Y-13790000D02*
X14477500Y-13787500D01*
X15466989Y-10414000D02*
X15466989Y-10640989D01*
X14050000Y-11652500D02*
X13811500Y-11652500D01*
D36*
X13425000Y-9890000D02*
X13332500Y-9982500D01*
D37*
X16338820Y-9695180D02*
X16400090Y-9633910D01*
X14083000Y-8797000D02*
X14017000Y-8797000D01*
X14602500Y-11712500D02*
X14760000Y-11712500D01*
X14114000Y-8327000D02*
X14162000Y-8375000D01*
X15364000Y-10620000D02*
X15424000Y-10560000D01*
X15805000Y-13220000D02*
X15800000Y-13225000D01*
X12715000Y-15515000D02*
X12617500Y-15417500D01*
X13345000Y-14295000D02*
X13345000Y-14415000D01*
D36*
X13693000Y-9485500D02*
X13782500Y-9575000D01*
X12845000Y-8815000D02*
X12631000Y-8815000D01*
D37*
X13430000Y-15992500D02*
X13352500Y-15915000D01*
X16264000Y-9789180D02*
X16320820Y-9789180D01*
D36*
X13782500Y-9740500D02*
X13355500Y-9740500D01*
D37*
X14707500Y-11885000D02*
X14655000Y-11832500D01*
X13687500Y-15992500D02*
X13430000Y-15992500D01*
X12905000Y-12647500D02*
X12905000Y-12860000D01*
D36*
X13730000Y-11872500D02*
X14040000Y-11872500D01*
D37*
X13687500Y-15992500D02*
X13610000Y-15915000D01*
D36*
X13927500Y-11285000D02*
X13437500Y-11285000D01*
D37*
X15330000Y-11885000D02*
X15575000Y-11885000D01*
X14307500Y-14082500D02*
X14532500Y-14082500D01*
D36*
X12632500Y-11300000D02*
X12694500Y-11238000D01*
D37*
X12556500Y-13297500D02*
X12650000Y-13297500D01*
X14695000Y-11575000D02*
X14590000Y-11575000D01*
X12772500Y-12992500D02*
X12835000Y-12930000D01*
X15035500Y-10687500D02*
X15420478Y-10687500D01*
D36*
X14910000Y-10620000D02*
X14968000Y-10620000D01*
D37*
X14655000Y-11832500D02*
X14655000Y-11505000D01*
X15250000Y-11885000D02*
X15330000Y-11885000D01*
X15532500Y-14500000D02*
X14635000Y-14500000D01*
D36*
X13782500Y-9807500D02*
X13730000Y-9860000D01*
D37*
X14865000Y-10995000D02*
X15570000Y-10995000D01*
X13952000Y-8732000D02*
X13952000Y-8329000D01*
X16063820Y-9789180D02*
X16052000Y-9777360D01*
D36*
X13082500Y-9635000D02*
X13085000Y-9632500D01*
D37*
X15424000Y-10278928D02*
X15424000Y-10501683D01*
D36*
X14137500Y-11340000D02*
X14124000Y-11340000D01*
D37*
X13474500Y-14376000D02*
X13508500Y-14376000D01*
X15017500Y-15542500D02*
X15002500Y-15557500D01*
X12556500Y-15484000D02*
X12556500Y-13297500D01*
D36*
X13332500Y-9592500D02*
X13765000Y-9592500D01*
D37*
X13806500Y-11750500D02*
X13807500Y-11751500D01*
D36*
X13332500Y-9493000D02*
X13340000Y-9485500D01*
D37*
X15466989Y-10640989D02*
X15470656Y-10644656D01*
X14229000Y-8049000D02*
X14066000Y-8212000D01*
D36*
X12816500Y-11285000D02*
X12801500Y-11300000D01*
D37*
X13440000Y-14470000D02*
X13385000Y-14415000D01*
X15155000Y-11885000D02*
X15162500Y-11892500D01*
D36*
X13062500Y-10527500D02*
X13085000Y-10505000D01*
X12632500Y-11300000D02*
X13297500Y-11300000D01*
D37*
X13953880Y-13412120D02*
X13977000Y-13389000D01*
X14680000Y-14230000D02*
X14403580Y-13953580D01*
D38*
X14857500Y-9867500D02*
X14881250Y-9843750D01*
D36*
X13927500Y-11536500D02*
X13811500Y-11652500D01*
D37*
X15690000Y-11007500D02*
X15582500Y-11007500D01*
D36*
X13340000Y-9485500D02*
X13505000Y-9485500D01*
X13120000Y-8815000D02*
X13175000Y-8870000D01*
X13007500Y-8977500D02*
X12845000Y-8815000D01*
X13202500Y-8977500D02*
X13007500Y-8977500D01*
X13332500Y-11265000D02*
X13332500Y-10885000D01*
D37*
X13605000Y-15100000D02*
X13559250Y-15054250D01*
X15485000Y-8061000D02*
X15223000Y-8061000D01*
X12650000Y-13297500D02*
X12712500Y-13360000D01*
D36*
X13062500Y-10527500D02*
X12613500Y-10527500D01*
X12801500Y-11300000D02*
X12632500Y-11300000D01*
X13702500Y-11845000D02*
X13730000Y-11872500D01*
D37*
X15755000Y-11072500D02*
X15690000Y-11007500D01*
X12712500Y-13360000D02*
X12712500Y-13470000D01*
X15800000Y-13225000D02*
X15600000Y-13225000D01*
X15466989Y-10400000D02*
X15466989Y-10321917D01*
D36*
X12613500Y-10527500D02*
X12598500Y-10512500D01*
D37*
X14747500Y-11650000D02*
X14760000Y-11662500D01*
X16264000Y-9708260D02*
X16264000Y-9789180D01*
X15090000Y-15542500D02*
X15087500Y-15545000D01*
D36*
X13085000Y-10505000D02*
X13085000Y-9632500D01*
D37*
X13977000Y-13389000D02*
X13779000Y-13389000D01*
D36*
X13355500Y-9740500D02*
X13332500Y-9717500D01*
D37*
X13974000Y-13356000D02*
X13776000Y-13356000D01*
X13951000Y-8327000D02*
X14114000Y-8327000D01*
X12782500Y-15560000D02*
X12875000Y-15560000D01*
X13602500Y-14470000D02*
X13440000Y-14470000D01*
X14582500Y-11692500D02*
X14602500Y-11712500D01*
X14403580Y-13953580D02*
X14403580Y-13937240D01*
X14582500Y-11567500D02*
X14582500Y-11692500D01*
D36*
X12598500Y-10512500D02*
X12598500Y-11266000D01*
D37*
X15327500Y-12155000D02*
X15327500Y-12190000D01*
X13474500Y-14376000D02*
X13393500Y-14295000D01*
X15290000Y-11925000D02*
X15330000Y-11885000D01*
X12835000Y-12705000D02*
X12880000Y-12660000D01*
D36*
X14040000Y-11872500D02*
X14040000Y-11770000D01*
X13350000Y-9075000D02*
X13350000Y-11197500D01*
D37*
X13390000Y-15230000D02*
X13582500Y-15230000D01*
D36*
X13815000Y-9492500D02*
X13815000Y-9775000D01*
D37*
X14760000Y-11880000D02*
X14765000Y-11885000D01*
D36*
X13120000Y-8815000D02*
X13320000Y-9015000D01*
D37*
X12611500Y-13242500D02*
X12556500Y-13297500D01*
X15162500Y-11892500D02*
X15162500Y-12237500D01*
X13605000Y-15207500D02*
X13605000Y-15100000D01*
X13602500Y-14428848D02*
X13468652Y-14295000D01*
X13580000Y-15885000D02*
X13340000Y-15885000D01*
X15228000Y-8213000D02*
X15512500Y-8213000D01*
X15327500Y-12250000D02*
X15327500Y-11887500D01*
D36*
X14968000Y-10620000D02*
X15102500Y-10620000D01*
D37*
X13582500Y-15230000D02*
X13605000Y-15207500D01*
X15446000Y-10620000D02*
X14910000Y-10620000D01*
X12712500Y-12992500D02*
X12772500Y-12992500D01*
X16250920Y-9695180D02*
X16338820Y-9695180D01*
D36*
X13782500Y-9740500D02*
X13782500Y-9807500D01*
D37*
X14760000Y-11575000D02*
X14695000Y-11575000D01*
X13390750Y-15054250D02*
X13340750Y-15054250D01*
X15697500Y-13115000D02*
X15602500Y-13115000D01*
X15424000Y-10560000D02*
X15424000Y-10501683D01*
X13610000Y-15915000D02*
X13470000Y-15915000D01*
D36*
X12598500Y-9635000D02*
X13082500Y-9635000D01*
X14040000Y-11770000D02*
X14040000Y-11649000D01*
D37*
X13508500Y-14376000D02*
X13602500Y-14470000D01*
X14162000Y-8718000D02*
X14083000Y-8797000D01*
X14655000Y-11505000D02*
X14655000Y-11030000D01*
D36*
X13350000Y-11197500D02*
X13437500Y-11285000D01*
D38*
%TO.N,Net-(J2-Pin_1)*%
X15352620Y-15810000D02*
X15352620Y-15875570D01*
X15352620Y-16050070D02*
X15352120Y-16050570D01*
D39*
X15337800Y-15636210D02*
X15337800Y-15993210D01*
D38*
X15352620Y-15875570D02*
X15352620Y-16050070D01*
D39*
X15337800Y-15993210D02*
X15337300Y-15993710D01*
D38*
X15352620Y-15693070D02*
X15352620Y-15875570D01*
D39*
X15352620Y-15810000D02*
X15362620Y-15820000D01*
X15362620Y-15820000D02*
X15752500Y-15820000D01*
D37*
%TO.N,Net-(U5-OUT1)*%
X14022500Y-15067500D02*
X14022500Y-15817200D01*
D38*
X14022500Y-15072500D02*
X14025000Y-15070000D01*
X14025000Y-15819700D02*
X14024260Y-15820440D01*
D37*
X14022500Y-14967500D02*
X13685000Y-14630000D01*
D38*
X14022500Y-15100000D02*
X14022500Y-15072500D01*
D37*
X13685000Y-14630000D02*
X13474500Y-14630000D01*
X14022500Y-15817200D02*
X14025000Y-15819700D01*
X14022500Y-15100000D02*
X14022500Y-14967500D01*
D38*
%TO.N,Net-(J2-Pin_3)*%
X14823810Y-15819700D02*
X14829800Y-15813710D01*
X14829800Y-15636210D02*
X14829800Y-15739720D01*
X14829800Y-15739720D02*
X14829800Y-15813710D01*
D39*
X14829800Y-15636210D02*
X14829800Y-15993210D01*
X14829800Y-15993210D02*
X14829300Y-15993710D01*
D38*
X14405000Y-15819700D02*
X14406510Y-15821210D01*
D39*
X14823810Y-15819700D02*
X14405000Y-15819700D01*
D38*
X14829800Y-15813710D02*
X14829800Y-15993210D01*
D36*
%TO.N,Net-(D3-K)*%
X13045500Y-11751500D02*
X13045500Y-11511000D01*
X13045500Y-11511000D02*
X13044500Y-11510000D01*
D39*
%TO.N,Net-(U5-M{slash}SS)*%
X13915000Y-13639620D02*
X13887500Y-13612120D01*
X13476380Y-13612120D02*
X13887500Y-13612120D01*
X13915000Y-13817500D02*
X13915000Y-13639620D01*
D38*
X13885480Y-13610100D02*
X13887500Y-13612120D01*
D39*
X13474500Y-13614000D02*
X13476380Y-13612120D01*
D38*
X13474500Y-13614000D02*
X13480500Y-13620000D01*
%TO.N,3.3V*%
X13577500Y-10935000D02*
X13577500Y-10932500D01*
D37*
X15429464Y-10119464D02*
X15306000Y-9996000D01*
X15483731Y-10822500D02*
X15629000Y-10677231D01*
X14857500Y-9637500D02*
X14227500Y-9637500D01*
D38*
X16221960Y-9440160D02*
X16215360Y-9433560D01*
D37*
X15629000Y-10677231D02*
X15629000Y-10293009D01*
X14974581Y-10817500D02*
X14979581Y-10822500D01*
X15290000Y-9727000D02*
X15185081Y-9727000D01*
X14737500Y-10817500D02*
X14974581Y-10817500D01*
X14645000Y-10725000D02*
X14737500Y-10817500D01*
X15185081Y-9727000D02*
X15095581Y-9637500D01*
X15306000Y-9996000D02*
X15306000Y-9743000D01*
X13917500Y-10935000D02*
X14127500Y-10725000D01*
X14127500Y-10725000D02*
X14645000Y-10725000D01*
X15095581Y-9637500D02*
X14857500Y-9637500D01*
X14979581Y-10822500D02*
X15483731Y-10822500D01*
X13577500Y-10935000D02*
X13917500Y-10935000D01*
X15306000Y-9743000D02*
X15290000Y-9727000D01*
X15455455Y-10119464D02*
X15429464Y-10119464D01*
X15629000Y-10293009D02*
X15455455Y-10119464D01*
%TO.N,Net-(U5-SVRR)*%
X13602500Y-15715000D02*
X13495000Y-15715000D01*
X13787500Y-15530000D02*
X13602500Y-15715000D01*
X13474500Y-14884000D02*
X13624000Y-14884000D01*
X13624000Y-14884000D02*
X13787500Y-15047500D01*
X13787500Y-15047500D02*
X13787500Y-15530000D01*
%TO.N,Net-(U5--INV2)*%
X13502000Y-13223000D02*
X14453000Y-13223000D01*
X13474500Y-13250500D02*
X13502000Y-13223000D01*
X14453000Y-13223000D02*
X14510000Y-13280000D01*
X15115000Y-13280000D02*
X15182500Y-13212500D01*
X14510000Y-13280000D02*
X15115000Y-13280000D01*
X15182500Y-13212500D02*
X15182500Y-13064760D01*
X13474500Y-13360000D02*
X13474500Y-13250500D01*
%TO.N,Net-(U5--INV1)*%
X13474500Y-15392000D02*
X13279500Y-15392000D01*
X13267500Y-13080000D02*
X14212500Y-13080000D01*
X13105000Y-15222500D02*
X13105000Y-13252500D01*
X13105000Y-13252500D02*
X13267500Y-13090000D01*
X13267500Y-13090000D02*
X13267500Y-13080000D01*
X13279500Y-15392000D02*
X13110000Y-15222500D01*
X13110000Y-15222500D02*
X13105000Y-15222500D01*
%TO.N,Net-(Q1-B)*%
X14273580Y-13937240D02*
X14273580Y-13673080D01*
D38*
%TO.N,Net-(Q1-C)*%
X14120420Y-14110000D02*
X14146180Y-14135760D01*
X14146180Y-14135760D02*
X14146180Y-13937640D01*
X14146180Y-13937640D02*
X14146580Y-13937240D01*
D37*
X14120420Y-14110000D02*
X14143580Y-14086840D01*
X14143580Y-14086840D02*
X14143580Y-13937240D01*
X13915000Y-14110000D02*
X14120420Y-14110000D01*
X14146180Y-14021460D02*
X14146580Y-14021060D01*
D38*
X13907420Y-14117580D02*
X13915000Y-14110000D01*
X14146580Y-13937240D02*
X14146580Y-14021060D01*
X14146180Y-14298320D02*
X14146180Y-14135760D01*
D37*
X14146180Y-14298320D02*
X14146180Y-14021460D01*
D38*
%TO.N,+5V*%
X14857500Y-10407500D02*
X14227500Y-10407500D01*
D37*
X15256989Y-10390000D02*
X15266989Y-10400000D01*
X14227500Y-10390000D02*
X14857500Y-10390000D01*
X14857500Y-10390000D02*
X15256989Y-10390000D01*
%TO.N,Right_Pre*%
X13580000Y-12085000D02*
X12927500Y-12085000D01*
D38*
X12907500Y-12115000D02*
X12987500Y-12115000D01*
D37*
X14057500Y-12565000D02*
X14057500Y-12562500D01*
X14172500Y-12680000D02*
X14057500Y-12565000D01*
D38*
X15448730Y-11680000D02*
X15487500Y-11680000D01*
X12987500Y-12115000D02*
X12992500Y-12120000D01*
X12910000Y-12085000D02*
X13580000Y-12085000D01*
X12907500Y-12115000D02*
X12912500Y-12120000D01*
D37*
X15692500Y-12864760D02*
X15182500Y-12864760D01*
X14987260Y-12864760D02*
X14802500Y-12680000D01*
X14057500Y-12562500D02*
X13580000Y-12085000D01*
X15695000Y-12862260D02*
X15692500Y-12864760D01*
X14802500Y-12680000D02*
X14172500Y-12680000D01*
X15182500Y-12864760D02*
X14987260Y-12864760D01*
X12927500Y-12085000D02*
X12910000Y-12067500D01*
%TO.N,Left_Pre*%
X14721250Y-12880000D02*
X14212500Y-12880000D01*
X14212500Y-12880000D02*
X13722500Y-12880000D01*
D38*
X13707500Y-12865000D02*
X13650000Y-12807500D01*
D37*
X13722500Y-12880000D02*
X13650000Y-12807500D01*
D38*
X13671120Y-12803880D02*
X13650000Y-12825000D01*
D37*
%TO.N,A_SDA*%
X16248420Y-10712500D02*
X16167500Y-10712500D01*
D38*
X16247240Y-10707500D02*
X16250920Y-10711180D01*
X15887000Y-8768000D02*
X15879000Y-8760000D01*
X14467750Y-8500250D02*
X14467750Y-8500000D01*
X15977500Y-10707500D02*
X16247240Y-10707500D01*
X15977500Y-10707500D02*
X15887000Y-10617000D01*
X15879000Y-8760000D02*
X14727500Y-8760000D01*
X14727500Y-8760000D02*
X14467750Y-8500250D01*
X15887000Y-10617000D02*
X15887000Y-8768000D01*
%TO.N,A_SCL*%
X16070000Y-10460000D02*
X15952000Y-10342000D01*
X15952000Y-8715500D02*
X15905500Y-8669000D01*
X15905500Y-8669000D02*
X14901500Y-8669000D01*
X14901500Y-8669000D02*
X14727500Y-8495000D01*
X16072820Y-10457180D02*
X16250920Y-10457180D01*
D37*
X16260920Y-10457500D02*
X16180000Y-10457500D01*
D38*
X16070000Y-10460000D02*
X16072820Y-10457180D01*
X15952000Y-10342000D02*
X15952000Y-8715500D01*
%TO.N,D28*%
X15817500Y-8825000D02*
X14660000Y-8825000D01*
X15820000Y-8827500D02*
X15817500Y-8825000D01*
X16250920Y-10965180D02*
X15970180Y-10965180D01*
X15970180Y-10965180D02*
X15820000Y-10815000D01*
X15820000Y-10815000D02*
X15820000Y-8827500D01*
X14660000Y-8825000D02*
X14335000Y-8500000D01*
D37*
X16250920Y-10965000D02*
X16255920Y-10960000D01*
X16250920Y-10965180D02*
X16250920Y-10965000D01*
X16260920Y-10967500D02*
X16180000Y-10967500D01*
D38*
%TO.N,Sleep*%
X16327500Y-11803760D02*
X16327500Y-13285000D01*
D37*
X16250920Y-11727180D02*
X16306870Y-11783130D01*
D38*
X16327500Y-13285000D02*
X16231920Y-13380580D01*
X16231920Y-13380580D02*
X14273580Y-13380580D01*
D37*
%TO.N,12V*%
X14438680Y-14389400D02*
X14438680Y-14543680D01*
X13628000Y-13868000D02*
X13692500Y-13932500D01*
D38*
X14402980Y-14490100D02*
X14277980Y-14490100D01*
D37*
X14605000Y-14710000D02*
X16037500Y-14710000D01*
D38*
X13553000Y-13868000D02*
X13474500Y-13868000D01*
X14617880Y-14672500D02*
X14607980Y-14662600D01*
D37*
X13692500Y-13932500D02*
X13692500Y-14127500D01*
D38*
X14438680Y-14298320D02*
X14438680Y-14389400D01*
D37*
X16660000Y-14087500D02*
X16660000Y-9145000D01*
X14438680Y-14454400D02*
X14402980Y-14490100D01*
X16448180Y-8933180D02*
X16250920Y-8933180D01*
X14438680Y-14298320D02*
X14438680Y-14454400D01*
X16660000Y-9145000D02*
X16448180Y-8933180D01*
X16037500Y-14710000D02*
X16660000Y-14087500D01*
X13692500Y-14127500D02*
X14055100Y-14490100D01*
X14438680Y-14543680D02*
X14605000Y-14710000D01*
X13474500Y-13868000D02*
X13628000Y-13868000D01*
X14055100Y-14490100D02*
X14402980Y-14490100D01*
D38*
X14435480Y-14490100D02*
X14277980Y-14490100D01*
D37*
%TO.N,Mute*%
X16250920Y-11473180D02*
X16177500Y-11473180D01*
D38*
X16082500Y-11525000D02*
X16082500Y-11832500D01*
X16082500Y-11832500D02*
X16200000Y-11950000D01*
X16134320Y-11473180D02*
X16082500Y-11525000D01*
X16200000Y-11950000D02*
X16200000Y-13287500D01*
D37*
%TO.N,5VA*%
X13985000Y-9910000D02*
X13985000Y-9360000D01*
X14857500Y-10160000D02*
X14792500Y-10160000D01*
X14857500Y-9407500D02*
X14857500Y-9179560D01*
D38*
X14870000Y-9395000D02*
X14857500Y-9407500D01*
D37*
X14852420Y-9184640D02*
X14857500Y-9179560D01*
X15299411Y-9182100D02*
X14162900Y-9182100D01*
X14672500Y-10040000D02*
X14115000Y-10040000D01*
X14115000Y-10040000D02*
X13985000Y-9910000D01*
X13985000Y-9360000D02*
X14160360Y-9184640D01*
X14160360Y-9184640D02*
X14852420Y-9184640D01*
X15301000Y-9180511D02*
X15299411Y-9182100D01*
X14792500Y-10160000D02*
X14672500Y-10040000D01*
X14162900Y-9182100D02*
X14160360Y-9184640D01*
D38*
%TO.N,Wp*%
X15875000Y-11220000D02*
X15875820Y-11219180D01*
D37*
X16250920Y-11219180D02*
X16170000Y-11219180D01*
D38*
X15875820Y-11219180D02*
X16170000Y-11219180D01*
%TD*%
%TA.AperFunction,Conductor*%
%TO.N,GND*%
G36*
X15066175Y-9708494D02*
G01*
X15070197Y-9711182D01*
X15133787Y-9774772D01*
X15134299Y-9775315D01*
X15138288Y-9779818D01*
X15143239Y-9783235D01*
X15143841Y-9783679D01*
X15145697Y-9785133D01*
X15148575Y-9787388D01*
X15149500Y-9787804D01*
X15151454Y-9788906D01*
X15152288Y-9789482D01*
X15157915Y-9791616D01*
X15158601Y-9791900D01*
X15164088Y-9794369D01*
X15165085Y-9794552D01*
X15167246Y-9795155D01*
X15168194Y-9795514D01*
X15174167Y-9796239D01*
X15174901Y-9796351D01*
X15180821Y-9797436D01*
X15186823Y-9797073D01*
X15187572Y-9797050D01*
X15187598Y-9797050D01*
X15193082Y-9798329D01*
X15197435Y-9801902D01*
X15199759Y-9807031D01*
X15200533Y-9810921D01*
X15202754Y-9814246D01*
X15206079Y-9816467D01*
X15209010Y-9817050D01*
X15209010Y-9817050D01*
X15223550Y-9817050D01*
X15229750Y-9818711D01*
X15234289Y-9823250D01*
X15235950Y-9829450D01*
X15235950Y-9993508D01*
X15235927Y-9994257D01*
X15235564Y-10000261D01*
X15236648Y-10006177D01*
X15236761Y-10006917D01*
X15237486Y-10012887D01*
X15237845Y-10013834D01*
X15238447Y-10015995D01*
X15238630Y-10016993D01*
X15241099Y-10022478D01*
X15241386Y-10023170D01*
X15243518Y-10028793D01*
X15243518Y-10028793D01*
X15244094Y-10029627D01*
X15245196Y-10031581D01*
X15245612Y-10032505D01*
X15249322Y-10037241D01*
X15249765Y-10037843D01*
X15253182Y-10042793D01*
X15257685Y-10046782D01*
X15258228Y-10047294D01*
X15378170Y-10167235D01*
X15378682Y-10167779D01*
X15382671Y-10172282D01*
X15387622Y-10175699D01*
X15388223Y-10176142D01*
X15392582Y-10179557D01*
X15392958Y-10179852D01*
X15393883Y-10180268D01*
X15395836Y-10181370D01*
X15396671Y-10181946D01*
X15402297Y-10184079D01*
X15402983Y-10184364D01*
X15408471Y-10186833D01*
X15409467Y-10187016D01*
X15411629Y-10187619D01*
X15412577Y-10187978D01*
X15418549Y-10188703D01*
X15419284Y-10188815D01*
X15423389Y-10189567D01*
X15426915Y-10190784D01*
X15429921Y-10192996D01*
X15486120Y-10249195D01*
X15489210Y-10254337D01*
X15489524Y-10260329D01*
X15486988Y-10265766D01*
X15482197Y-10269377D01*
X15476271Y-10270315D01*
X15466989Y-10269503D01*
X15444328Y-10271486D01*
X15422356Y-10277373D01*
X15401740Y-10286987D01*
X15394441Y-10292097D01*
X15493576Y-10391232D01*
X15496785Y-10396791D01*
X15496785Y-10403209D01*
X15493576Y-10408768D01*
X15394441Y-10507903D01*
X15394441Y-10507903D01*
X15401740Y-10513013D01*
X15422356Y-10522627D01*
X15444328Y-10528514D01*
X15466989Y-10530497D01*
X15489649Y-10528514D01*
X15511621Y-10522627D01*
X15532237Y-10513013D01*
X15539438Y-10507972D01*
X15545739Y-10505756D01*
X15552276Y-10507130D01*
X15557151Y-10511696D01*
X15558950Y-10518129D01*
X15558950Y-10643079D01*
X15558006Y-10647824D01*
X15555318Y-10651847D01*
X15458347Y-10748818D01*
X15454324Y-10751506D01*
X15449579Y-10752450D01*
X15003390Y-10752450D01*
X14998301Y-10751358D01*
X14997054Y-10750796D01*
X14992661Y-10747480D01*
X14990137Y-10742588D01*
X14989978Y-10737086D01*
X14992216Y-10732058D01*
X15001835Y-10719209D01*
X15006860Y-10705738D01*
X15007500Y-10699782D01*
X15007500Y-10645000D01*
X15007333Y-10644833D01*
X15004656Y-10640836D01*
X15003701Y-10636121D01*
X15003681Y-10631604D01*
X15003559Y-10604133D01*
X15004492Y-10599358D01*
X15007190Y-10595309D01*
X15007500Y-10595000D01*
X15007500Y-10540218D01*
X15006860Y-10534262D01*
X15003975Y-10526527D01*
X15003193Y-10522250D01*
X15002971Y-10472505D01*
X15004614Y-10466282D01*
X15009155Y-10461721D01*
X15015371Y-10460050D01*
X15164539Y-10460050D01*
X15170739Y-10461711D01*
X15175278Y-10466250D01*
X15176939Y-10472450D01*
X15176939Y-10480990D01*
X15177522Y-10483921D01*
X15177522Y-10483921D01*
X15179743Y-10487246D01*
X15183067Y-10489467D01*
X15185999Y-10490050D01*
X15347979Y-10490050D01*
X15347979Y-10490050D01*
X15349444Y-10489758D01*
X15350910Y-10489467D01*
X15354234Y-10487246D01*
X15356456Y-10483921D01*
X15357039Y-10480990D01*
X15357039Y-10479731D01*
X15357982Y-10474986D01*
X15360671Y-10470963D01*
X15431633Y-10400000D01*
X15431633Y-10400000D01*
X15360671Y-10329037D01*
X15357983Y-10325014D01*
X15357039Y-10320269D01*
X15357039Y-10319010D01*
X15356456Y-10316079D01*
X15354234Y-10312754D01*
X15350910Y-10310533D01*
X15347979Y-10309950D01*
X15185999Y-10309950D01*
X15183067Y-10310533D01*
X15179743Y-10312754D01*
X15178617Y-10314439D01*
X15174153Y-10318486D01*
X15168307Y-10319950D01*
X15014635Y-10319950D01*
X15008451Y-10318298D01*
X15003915Y-10313782D01*
X15002235Y-10307605D01*
X15001708Y-10189567D01*
X15001000Y-10031047D01*
X15001000Y-10030941D01*
X15001039Y-10023170D01*
X15001304Y-9970309D01*
X15002085Y-9966038D01*
X15006860Y-9953238D01*
X15007500Y-9947282D01*
X15007500Y-9892500D01*
X15005380Y-9890380D01*
X15002680Y-9886329D01*
X15001748Y-9881550D01*
X15001890Y-9853184D01*
X15002846Y-9848472D01*
X15005522Y-9844478D01*
X15007500Y-9842500D01*
X15007500Y-9787718D01*
X15006860Y-9781762D01*
X15003102Y-9771687D01*
X15002320Y-9767293D01*
X15002558Y-9719888D01*
X15004240Y-9713714D01*
X15008775Y-9709201D01*
X15014958Y-9707550D01*
X15061429Y-9707550D01*
X15066175Y-9708494D01*
G37*
%TD.AperFunction*%
%TA.AperFunction,Conductor*%
G36*
X14463946Y-7932419D02*
G01*
X17180053Y-7932997D01*
X17186252Y-7934659D01*
X17190789Y-7939198D01*
X17192450Y-7945397D01*
X17192450Y-16306600D01*
X17190789Y-16312800D01*
X17186250Y-16317339D01*
X17180050Y-16319000D01*
X12509400Y-16319000D01*
X12503200Y-16317339D01*
X12498661Y-16312800D01*
X12497000Y-16306600D01*
X12497000Y-15880000D01*
X12767350Y-15880000D01*
X12769236Y-15906376D01*
X12774857Y-15932215D01*
X12778065Y-15940816D01*
X12784009Y-15956754D01*
X12784098Y-15956992D01*
X12796771Y-15980200D01*
X12800007Y-15984522D01*
X12812618Y-16001369D01*
X12831316Y-16020068D01*
X12845806Y-16030915D01*
X12852486Y-16035915D01*
X12855620Y-16037627D01*
X12875694Y-16048588D01*
X12900471Y-16057829D01*
X12900471Y-16057829D01*
X12900471Y-16057829D01*
X12905300Y-16058879D01*
X12926310Y-16063450D01*
X12952686Y-16065336D01*
X12979062Y-16063450D01*
X13004901Y-16057829D01*
X13029677Y-16048588D01*
X13052886Y-16035915D01*
X13070269Y-16022903D01*
X13422453Y-16022903D01*
X13429751Y-16028013D01*
X13450367Y-16037627D01*
X13472340Y-16043514D01*
X13495000Y-16045497D01*
X13517660Y-16043514D01*
X13539633Y-16037627D01*
X13560248Y-16028013D01*
X13567547Y-16022902D01*
X13495000Y-15950355D01*
X13495000Y-15950355D01*
X13422453Y-16022902D01*
X13422453Y-16022903D01*
X13070269Y-16022903D01*
X13074055Y-16020068D01*
X13092754Y-16001369D01*
X13108601Y-15980200D01*
X13121274Y-15956991D01*
X13130515Y-15932215D01*
X13134260Y-15915000D01*
X13364503Y-15915000D01*
X13366486Y-15937660D01*
X13372373Y-15959633D01*
X13381987Y-15980248D01*
X13387097Y-15987547D01*
X13387097Y-15987547D01*
X13459645Y-15915000D01*
X13530355Y-15915000D01*
X13602902Y-15987547D01*
X13608013Y-15980248D01*
X13617627Y-15959633D01*
X13623514Y-15937660D01*
X13625497Y-15915000D01*
X13623514Y-15892340D01*
X13617627Y-15870367D01*
X13608013Y-15849751D01*
X13602902Y-15842453D01*
X13530355Y-15915000D01*
X13530355Y-15915000D01*
X13459645Y-15915000D01*
X13459645Y-15915000D01*
X13387097Y-15842453D01*
X13387097Y-15842453D01*
X13381986Y-15849752D01*
X13372373Y-15870367D01*
X13366486Y-15892340D01*
X13364503Y-15915000D01*
X13134260Y-15915000D01*
X13136136Y-15906376D01*
X13138022Y-15880000D01*
X13136136Y-15853624D01*
X13130515Y-15827785D01*
X13121274Y-15803008D01*
X13111678Y-15785436D01*
X13108601Y-15779800D01*
X13100721Y-15769274D01*
X13092754Y-15758630D01*
X13074055Y-15739932D01*
X13061500Y-15730533D01*
X13052886Y-15724085D01*
X13029678Y-15711412D01*
X13029678Y-15711412D01*
X13029677Y-15711412D01*
X13004901Y-15702171D01*
X13004901Y-15702171D01*
X12979062Y-15696550D01*
X12952686Y-15694664D01*
X12926310Y-15696550D01*
X12900471Y-15702171D01*
X12875694Y-15711412D01*
X12852486Y-15724085D01*
X12831316Y-15739932D01*
X12812618Y-15758630D01*
X12796771Y-15779800D01*
X12784098Y-15803008D01*
X12774857Y-15827785D01*
X12769236Y-15853624D01*
X12767350Y-15880000D01*
X12497000Y-15880000D01*
X12497000Y-15502645D01*
X12637210Y-15502645D01*
X12645335Y-15508334D01*
X12666556Y-15518230D01*
X12689174Y-15524290D01*
X12712500Y-15526331D01*
X12735826Y-15524290D01*
X12758444Y-15518230D01*
X12779665Y-15508334D01*
X12787790Y-15502645D01*
X12712500Y-15427355D01*
X12637210Y-15502645D01*
X12497000Y-15502645D01*
X12497000Y-15392000D01*
X12578169Y-15392000D01*
X12580209Y-15415326D01*
X12586270Y-15437944D01*
X12596166Y-15459165D01*
X12601855Y-15467290D01*
X12677145Y-15392000D01*
X12747855Y-15392000D01*
X12823145Y-15467290D01*
X12828834Y-15459165D01*
X12838730Y-15437944D01*
X12844790Y-15415326D01*
X12846831Y-15392000D01*
X12844790Y-15368674D01*
X12838730Y-15346056D01*
X12828834Y-15324835D01*
X12823145Y-15316710D01*
X12747855Y-15392000D01*
X12747855Y-15392000D01*
X12677145Y-15392000D01*
X12677145Y-15392000D01*
X12601855Y-15316710D01*
X12601854Y-15316710D01*
X12596166Y-15324834D01*
X12586270Y-15346056D01*
X12580209Y-15368674D01*
X12578169Y-15392000D01*
X12497000Y-15392000D01*
X12497000Y-15281355D01*
X12637210Y-15281355D01*
X12712500Y-15356645D01*
X12712500Y-15356645D01*
X12787790Y-15281355D01*
X12778939Y-15275157D01*
X12775053Y-15270726D01*
X12773652Y-15265000D01*
X12775053Y-15259274D01*
X12778939Y-15254842D01*
X12787790Y-15248645D01*
X12712500Y-15173355D01*
X12637210Y-15248645D01*
X12646060Y-15254842D01*
X12649947Y-15259274D01*
X12651348Y-15265000D01*
X12649947Y-15270726D01*
X12646060Y-15275157D01*
X12637210Y-15281355D01*
X12637210Y-15281355D01*
X12497000Y-15281355D01*
X12497000Y-15138000D01*
X12578169Y-15138000D01*
X12580209Y-15161326D01*
X12586270Y-15183944D01*
X12596166Y-15205165D01*
X12601855Y-15213290D01*
X12677145Y-15138000D01*
X12747855Y-15138000D01*
X12823145Y-15213290D01*
X12828834Y-15205165D01*
X12838730Y-15183944D01*
X12844790Y-15161326D01*
X12846831Y-15138000D01*
X12844790Y-15114674D01*
X12838730Y-15092056D01*
X12828834Y-15070835D01*
X12823145Y-15062710D01*
X12747855Y-15138000D01*
X12747855Y-15138000D01*
X12677145Y-15138000D01*
X12677145Y-15138000D01*
X12601855Y-15062710D01*
X12601854Y-15062710D01*
X12596166Y-15070834D01*
X12586270Y-15092056D01*
X12580209Y-15114674D01*
X12578169Y-15138000D01*
X12497000Y-15138000D01*
X12497000Y-15027355D01*
X12637210Y-15027355D01*
X12712500Y-15102645D01*
X12712500Y-15102645D01*
X12787790Y-15027355D01*
X12778939Y-15021157D01*
X12775053Y-15016726D01*
X12773652Y-15011000D01*
X12775053Y-15005274D01*
X12778939Y-15000842D01*
X12787790Y-14994645D01*
X12712500Y-14919355D01*
X12637210Y-14994645D01*
X12646060Y-15000842D01*
X12649947Y-15005274D01*
X12651348Y-15011000D01*
X12649947Y-15016726D01*
X12646060Y-15021157D01*
X12637210Y-15027355D01*
X12637210Y-15027355D01*
X12497000Y-15027355D01*
X12497000Y-14884000D01*
X12578169Y-14884000D01*
X12580209Y-14907326D01*
X12586270Y-14929944D01*
X12596166Y-14951165D01*
X12601855Y-14959290D01*
X12677145Y-14884000D01*
X12747855Y-14884000D01*
X12823145Y-14959290D01*
X12828834Y-14951165D01*
X12838730Y-14929944D01*
X12844790Y-14907326D01*
X12846831Y-14884000D01*
X12844790Y-14860674D01*
X12838730Y-14838056D01*
X12828834Y-14816835D01*
X12823145Y-14808710D01*
X12747855Y-14884000D01*
X12747855Y-14884000D01*
X12677145Y-14884000D01*
X12677145Y-14884000D01*
X12601855Y-14808710D01*
X12601854Y-14808710D01*
X12596166Y-14816834D01*
X12586270Y-14838056D01*
X12580209Y-14860674D01*
X12578169Y-14884000D01*
X12497000Y-14884000D01*
X12497000Y-14773355D01*
X12637210Y-14773355D01*
X12712500Y-14848645D01*
X12712500Y-14848645D01*
X12787790Y-14773355D01*
X12778939Y-14767157D01*
X12775053Y-14762726D01*
X12773652Y-14757000D01*
X12775053Y-14751274D01*
X12778939Y-14746842D01*
X12787790Y-14740645D01*
X12712500Y-14665355D01*
X12637210Y-14740645D01*
X12646060Y-14746842D01*
X12649947Y-14751274D01*
X12651348Y-14757000D01*
X12649947Y-14762726D01*
X12646060Y-14767157D01*
X12637210Y-14773355D01*
X12637210Y-14773355D01*
X12497000Y-14773355D01*
X12497000Y-14630000D01*
X12578169Y-14630000D01*
X12580209Y-14653326D01*
X12586270Y-14675944D01*
X12596166Y-14697165D01*
X12601855Y-14705290D01*
X12677145Y-14630000D01*
X12747855Y-14630000D01*
X12823145Y-14705290D01*
X12828834Y-14697165D01*
X12838730Y-14675944D01*
X12844790Y-14653326D01*
X12846831Y-14630000D01*
X12844790Y-14606674D01*
X12838730Y-14584056D01*
X12828834Y-14562835D01*
X12823145Y-14554710D01*
X12747855Y-14630000D01*
X12747855Y-14630000D01*
X12677145Y-14630000D01*
X12677145Y-14630000D01*
X12601855Y-14554710D01*
X12601854Y-14554710D01*
X12596166Y-14562834D01*
X12586270Y-14584056D01*
X12580209Y-14606674D01*
X12578169Y-14630000D01*
X12497000Y-14630000D01*
X12497000Y-14519355D01*
X12637210Y-14519355D01*
X12712500Y-14594645D01*
X12712500Y-14594645D01*
X12787790Y-14519355D01*
X12778939Y-14513157D01*
X12775053Y-14508726D01*
X12773652Y-14503000D01*
X12775053Y-14497274D01*
X12778939Y-14492842D01*
X12787790Y-14486645D01*
X12712500Y-14411355D01*
X12637210Y-14486645D01*
X12646060Y-14492842D01*
X12649947Y-14497274D01*
X12651348Y-14503000D01*
X12649947Y-14508726D01*
X12646060Y-14513157D01*
X12637210Y-14519355D01*
X12637210Y-14519355D01*
X12497000Y-14519355D01*
X12497000Y-14376000D01*
X12578169Y-14376000D01*
X12580209Y-14399326D01*
X12586270Y-14421944D01*
X12596166Y-14443165D01*
X12601855Y-14451290D01*
X12677145Y-14376000D01*
X12747855Y-14376000D01*
X12823145Y-14451290D01*
X12828834Y-14443165D01*
X12838730Y-14421944D01*
X12844790Y-14399326D01*
X12846831Y-14376000D01*
X12844790Y-14352674D01*
X12838730Y-14330056D01*
X12828834Y-14308835D01*
X12823145Y-14300710D01*
X12747855Y-14376000D01*
X12747855Y-14376000D01*
X12677145Y-14376000D01*
X12677145Y-14376000D01*
X12601855Y-14300710D01*
X12601854Y-14300710D01*
X12596166Y-14308834D01*
X12586270Y-14330056D01*
X12580209Y-14352674D01*
X12578169Y-14376000D01*
X12497000Y-14376000D01*
X12497000Y-14265355D01*
X12637210Y-14265355D01*
X12712500Y-14340645D01*
X12712500Y-14340645D01*
X12787790Y-14265355D01*
X12778939Y-14259157D01*
X12775053Y-14254726D01*
X12773652Y-14249000D01*
X12775053Y-14243274D01*
X12778939Y-14238842D01*
X12787790Y-14232645D01*
X12712500Y-14157355D01*
X12637210Y-14232645D01*
X12646060Y-14238842D01*
X12649947Y-14243274D01*
X12651348Y-14249000D01*
X12649947Y-14254726D01*
X12646060Y-14259157D01*
X12637210Y-14265355D01*
X12637210Y-14265355D01*
X12497000Y-14265355D01*
X12497000Y-14122000D01*
X12578169Y-14122000D01*
X12580209Y-14145326D01*
X12586270Y-14167944D01*
X12596166Y-14189165D01*
X12601855Y-14197290D01*
X12677145Y-14122000D01*
X12747855Y-14122000D01*
X12823145Y-14197290D01*
X12828834Y-14189165D01*
X12838730Y-14167944D01*
X12844790Y-14145326D01*
X12846831Y-14122000D01*
X12844790Y-14098674D01*
X12838730Y-14076056D01*
X12828834Y-14054835D01*
X12823145Y-14046710D01*
X12747855Y-14122000D01*
X12747855Y-14122000D01*
X12677145Y-14122000D01*
X12677145Y-14122000D01*
X12601855Y-14046710D01*
X12601854Y-14046710D01*
X12596166Y-14054834D01*
X12586270Y-14076056D01*
X12580209Y-14098674D01*
X12578169Y-14122000D01*
X12497000Y-14122000D01*
X12497000Y-14011355D01*
X12637210Y-14011355D01*
X12712500Y-14086645D01*
X12712500Y-14086645D01*
X12787790Y-14011355D01*
X12778939Y-14005157D01*
X12775053Y-14000726D01*
X12773652Y-13995000D01*
X12775053Y-13989274D01*
X12778939Y-13984842D01*
X12787790Y-13978645D01*
X12712500Y-13903355D01*
X12637210Y-13978645D01*
X12646060Y-13984842D01*
X12649947Y-13989274D01*
X12651348Y-13995000D01*
X12649947Y-14000726D01*
X12646060Y-14005157D01*
X12637210Y-14011355D01*
X12637210Y-14011355D01*
X12497000Y-14011355D01*
X12497000Y-13868000D01*
X12578169Y-13868000D01*
X12580209Y-13891326D01*
X12586270Y-13913944D01*
X12596166Y-13935165D01*
X12601855Y-13943290D01*
X12677145Y-13868000D01*
X12747855Y-13868000D01*
X12823145Y-13943290D01*
X12828834Y-13935165D01*
X12838730Y-13913944D01*
X12844790Y-13891326D01*
X12846831Y-13868000D01*
X12844790Y-13844674D01*
X12838730Y-13822056D01*
X12828834Y-13800835D01*
X12823145Y-13792710D01*
X12747855Y-13868000D01*
X12747855Y-13868000D01*
X12677145Y-13868000D01*
X12677145Y-13868000D01*
X12601855Y-13792710D01*
X12601854Y-13792710D01*
X12596166Y-13800834D01*
X12586270Y-13822056D01*
X12580209Y-13844674D01*
X12578169Y-13868000D01*
X12497000Y-13868000D01*
X12497000Y-13757355D01*
X12637210Y-13757355D01*
X12712500Y-13832645D01*
X12712500Y-13832645D01*
X12787790Y-13757355D01*
X12778939Y-13751157D01*
X12775053Y-13746726D01*
X12773652Y-13741000D01*
X12775053Y-13735274D01*
X12778939Y-13730842D01*
X12787790Y-13724645D01*
X12712500Y-13649355D01*
X12637210Y-13724645D01*
X12646060Y-13730842D01*
X12649947Y-13735274D01*
X12651348Y-13741000D01*
X12649947Y-13746726D01*
X12646060Y-13751157D01*
X12637210Y-13757355D01*
X12637210Y-13757355D01*
X12497000Y-13757355D01*
X12497000Y-13614000D01*
X12578169Y-13614000D01*
X12580209Y-13637326D01*
X12586270Y-13659944D01*
X12596166Y-13681165D01*
X12601855Y-13689290D01*
X12677145Y-13614000D01*
X12747855Y-13614000D01*
X12823145Y-13689290D01*
X12828834Y-13681165D01*
X12838730Y-13659944D01*
X12844790Y-13637326D01*
X12846831Y-13614000D01*
X12844790Y-13590674D01*
X12838730Y-13568056D01*
X12828834Y-13546835D01*
X12823145Y-13538710D01*
X12747855Y-13614000D01*
X12747855Y-13614000D01*
X12677145Y-13614000D01*
X12677145Y-13614000D01*
X12601855Y-13538710D01*
X12601854Y-13538710D01*
X12596166Y-13546834D01*
X12586270Y-13568056D01*
X12580209Y-13590674D01*
X12578169Y-13614000D01*
X12497000Y-13614000D01*
X12497000Y-13503355D01*
X12637210Y-13503355D01*
X12712500Y-13578645D01*
X12712500Y-13578645D01*
X12787790Y-13503355D01*
X12778939Y-13497157D01*
X12775053Y-13492726D01*
X12773652Y-13487000D01*
X12775053Y-13481274D01*
X12778939Y-13476842D01*
X12787790Y-13470645D01*
X12712500Y-13395355D01*
X12637210Y-13470645D01*
X12646060Y-13476842D01*
X12649947Y-13481274D01*
X12651348Y-13487000D01*
X12649947Y-13492726D01*
X12646060Y-13497157D01*
X12637210Y-13503355D01*
X12637210Y-13503355D01*
X12497000Y-13503355D01*
X12497000Y-13360000D01*
X12578169Y-13360000D01*
X12580209Y-13383326D01*
X12586270Y-13405944D01*
X12596166Y-13427165D01*
X12601855Y-13435290D01*
X12677145Y-13360000D01*
X12747855Y-13360000D01*
X12823145Y-13435290D01*
X12828834Y-13427165D01*
X12838730Y-13405944D01*
X12844790Y-13383326D01*
X12846831Y-13360000D01*
X12844790Y-13336674D01*
X12838730Y-13314056D01*
X12828834Y-13292835D01*
X12823145Y-13284710D01*
X12747855Y-13360000D01*
X12747855Y-13360000D01*
X12677145Y-13360000D01*
X12677145Y-13360000D01*
X12601855Y-13284710D01*
X12601854Y-13284710D01*
X12596166Y-13292834D01*
X12586270Y-13314056D01*
X12580209Y-13336674D01*
X12578169Y-13360000D01*
X12497000Y-13360000D01*
X12497000Y-13249355D01*
X12637210Y-13249355D01*
X12712500Y-13324645D01*
X12712500Y-13324645D01*
X12787790Y-13249355D01*
X12786197Y-13248239D01*
X13034564Y-13248239D01*
X13034927Y-13254243D01*
X13034950Y-13254992D01*
X13034950Y-15231006D01*
X13035792Y-15234422D01*
X13036062Y-15235894D01*
X13036486Y-15239387D01*
X13037734Y-15242677D01*
X13038178Y-15244105D01*
X13039021Y-15247522D01*
X13039021Y-15247523D01*
X13039021Y-15247523D01*
X13040656Y-15250638D01*
X13041270Y-15252003D01*
X13042518Y-15255293D01*
X13044517Y-15258189D01*
X13045292Y-15259470D01*
X13046926Y-15262585D01*
X13049259Y-15265218D01*
X13050182Y-15266396D01*
X13052181Y-15269292D01*
X13052182Y-15269293D01*
X13054816Y-15271626D01*
X13055874Y-15272685D01*
X13058207Y-15275318D01*
X13058207Y-15275318D01*
X13061104Y-15277318D01*
X13062280Y-15278239D01*
X13064915Y-15280573D01*
X13064915Y-15280573D01*
X13064915Y-15280574D01*
X13068030Y-15282208D01*
X13069311Y-15282983D01*
X13073446Y-15285837D01*
X13073403Y-15285900D01*
X13076037Y-15287603D01*
X13228206Y-15439771D01*
X13228718Y-15440315D01*
X13232707Y-15444818D01*
X13237658Y-15448235D01*
X13238260Y-15448678D01*
X13242994Y-15452388D01*
X13242994Y-15452388D01*
X13242994Y-15452388D01*
X13243918Y-15452804D01*
X13245873Y-15453906D01*
X13246707Y-15454482D01*
X13252332Y-15456615D01*
X13253022Y-15456901D01*
X13258507Y-15459369D01*
X13259503Y-15459552D01*
X13261665Y-15460155D01*
X13262613Y-15460514D01*
X13268584Y-15461239D01*
X13269318Y-15461351D01*
X13275239Y-15462436D01*
X13280910Y-15462093D01*
X13281243Y-15462073D01*
X13281992Y-15462050D01*
X13368230Y-15462050D01*
X13374430Y-15463711D01*
X13378969Y-15468250D01*
X13380630Y-15474450D01*
X13380630Y-15476810D01*
X13381213Y-15479741D01*
X13381213Y-15479741D01*
X13383434Y-15483066D01*
X13386759Y-15485287D01*
X13389690Y-15485870D01*
X13559310Y-15485870D01*
X13559310Y-15485870D01*
X13560775Y-15485578D01*
X13562241Y-15485287D01*
X13565566Y-15483066D01*
X13567787Y-15479741D01*
X13568370Y-15476810D01*
X13568370Y-15307190D01*
X13568370Y-15307190D01*
X13567787Y-15304259D01*
X13565566Y-15300934D01*
X13562241Y-15298713D01*
X13559310Y-15298130D01*
X13389690Y-15298130D01*
X13386759Y-15298713D01*
X13383434Y-15300934D01*
X13381213Y-15304259D01*
X13380630Y-15307190D01*
X13380630Y-15309550D01*
X13378969Y-15315750D01*
X13374430Y-15320289D01*
X13368230Y-15321950D01*
X13313652Y-15321950D01*
X13308907Y-15321006D01*
X13304884Y-15318318D01*
X13235211Y-15248645D01*
X13399210Y-15248645D01*
X13407335Y-15254334D01*
X13428556Y-15264230D01*
X13451174Y-15270290D01*
X13474500Y-15272331D01*
X13497826Y-15270290D01*
X13520444Y-15264230D01*
X13541665Y-15254334D01*
X13549790Y-15248645D01*
X13474500Y-15173355D01*
X13399210Y-15248645D01*
X13235211Y-15248645D01*
X13178682Y-15192116D01*
X13175994Y-15188093D01*
X13175050Y-15183348D01*
X13175050Y-15138000D01*
X13340169Y-15138000D01*
X13342209Y-15161326D01*
X13348270Y-15183944D01*
X13358166Y-15205165D01*
X13363855Y-15213290D01*
X13439145Y-15138000D01*
X13509855Y-15138000D01*
X13585145Y-15213290D01*
X13590834Y-15205165D01*
X13600730Y-15183944D01*
X13606790Y-15161326D01*
X13608831Y-15138000D01*
X13606790Y-15114674D01*
X13600730Y-15092056D01*
X13590834Y-15070835D01*
X13585145Y-15062710D01*
X13509855Y-15138000D01*
X13509855Y-15138000D01*
X13439145Y-15138000D01*
X13439145Y-15138000D01*
X13363855Y-15062710D01*
X13363854Y-15062710D01*
X13358166Y-15070834D01*
X13348270Y-15092056D01*
X13342209Y-15114674D01*
X13340169Y-15138000D01*
X13175050Y-15138000D01*
X13175050Y-15027355D01*
X13399210Y-15027355D01*
X13474500Y-15102645D01*
X13474500Y-15102645D01*
X13549790Y-15027355D01*
X13541665Y-15021666D01*
X13520444Y-15011770D01*
X13497826Y-15005709D01*
X13474500Y-15003669D01*
X13451174Y-15005709D01*
X13428556Y-15011770D01*
X13407334Y-15021666D01*
X13399210Y-15027354D01*
X13399210Y-15027355D01*
X13175050Y-15027355D01*
X13175050Y-14884000D01*
X13380113Y-14884000D01*
X13382175Y-14903624D01*
X13388273Y-14922391D01*
X13398139Y-14939479D01*
X13411343Y-14954143D01*
X13427306Y-14965741D01*
X13435171Y-14969243D01*
X13445333Y-14973767D01*
X13445333Y-14973767D01*
X13445333Y-14973768D01*
X13464634Y-14977870D01*
X13464634Y-14977870D01*
X13484366Y-14977870D01*
X13484366Y-14977870D01*
X13503667Y-14973768D01*
X13503667Y-14973767D01*
X13503667Y-14973767D01*
X13521694Y-14965742D01*
X13521694Y-14965741D01*
X13521694Y-14965741D01*
X13534526Y-14956418D01*
X13537983Y-14954657D01*
X13541815Y-14954050D01*
X13589848Y-14954050D01*
X13594593Y-14954994D01*
X13598616Y-14957682D01*
X13713818Y-15072884D01*
X13716506Y-15076907D01*
X13717450Y-15081652D01*
X13717450Y-15495848D01*
X13716506Y-15500593D01*
X13713818Y-15504616D01*
X13594497Y-15623937D01*
X13589715Y-15626911D01*
X13584111Y-15627463D01*
X13579054Y-15625559D01*
X13575990Y-15624950D01*
X13414010Y-15624950D01*
X13411079Y-15625533D01*
X13407754Y-15627754D01*
X13405533Y-15631079D01*
X13404950Y-15634010D01*
X13404950Y-15795990D01*
X13405533Y-15798921D01*
X13405533Y-15798921D01*
X13407754Y-15802246D01*
X13411079Y-15804467D01*
X13414010Y-15805050D01*
X13415269Y-15805050D01*
X13420014Y-15805994D01*
X13424037Y-15808682D01*
X13495000Y-15879645D01*
X13495000Y-15879645D01*
X13565963Y-15808682D01*
X13569985Y-15805994D01*
X13574731Y-15805050D01*
X13575990Y-15805050D01*
X13575990Y-15805050D01*
X13577455Y-15804758D01*
X13578921Y-15804467D01*
X13582246Y-15802246D01*
X13584467Y-15798921D01*
X13585050Y-15795990D01*
X13585050Y-15795990D01*
X13585241Y-15795031D01*
X13587565Y-15789901D01*
X13591918Y-15786329D01*
X13597402Y-15785050D01*
X13600008Y-15785050D01*
X13600757Y-15785073D01*
X13601071Y-15785091D01*
X13606761Y-15785436D01*
X13612678Y-15784351D01*
X13613418Y-15784239D01*
X13619387Y-15783514D01*
X13620333Y-15783155D01*
X13622496Y-15782552D01*
X13623493Y-15782369D01*
X13628981Y-15779900D01*
X13629667Y-15779615D01*
X13635293Y-15777482D01*
X13636127Y-15776906D01*
X13638082Y-15775803D01*
X13639006Y-15775388D01*
X13643741Y-15771677D01*
X13644342Y-15771235D01*
X13649293Y-15767818D01*
X13653282Y-15763315D01*
X13653792Y-15762773D01*
X13835273Y-15581292D01*
X13835815Y-15580782D01*
X13840318Y-15576793D01*
X13843735Y-15571842D01*
X13844177Y-15571241D01*
X13847888Y-15566506D01*
X13848303Y-15565582D01*
X13849406Y-15563627D01*
X13849982Y-15562793D01*
X13852115Y-15557167D01*
X13852400Y-15556481D01*
X13854869Y-15550993D01*
X13855052Y-15549996D01*
X13855655Y-15547833D01*
X13856014Y-15546887D01*
X13856335Y-15544240D01*
X13856739Y-15540916D01*
X13856851Y-15540180D01*
X13857936Y-15534261D01*
X13857573Y-15528258D01*
X13857550Y-15527509D01*
X13857550Y-15049991D01*
X13857573Y-15049242D01*
X13857579Y-15049130D01*
X13857936Y-15043239D01*
X13856851Y-15037320D01*
X13856739Y-15036586D01*
X13856014Y-15030613D01*
X13855655Y-15029665D01*
X13855052Y-15027504D01*
X13854869Y-15026507D01*
X13852400Y-15021019D01*
X13852115Y-15020333D01*
X13849982Y-15014707D01*
X13849406Y-15013873D01*
X13848304Y-15011919D01*
X13847888Y-15010994D01*
X13847593Y-15010618D01*
X13844178Y-15006260D01*
X13843735Y-15005658D01*
X13840318Y-15000707D01*
X13835815Y-14996718D01*
X13835271Y-14996206D01*
X13675294Y-14836228D01*
X13674782Y-14835685D01*
X13670793Y-14831182D01*
X13665843Y-14827765D01*
X13665240Y-14827322D01*
X13660505Y-14823612D01*
X13659581Y-14823196D01*
X13657627Y-14822094D01*
X13656793Y-14821518D01*
X13656793Y-14821518D01*
X13656793Y-14821518D01*
X13651170Y-14819386D01*
X13650478Y-14819099D01*
X13644993Y-14816630D01*
X13643995Y-14816447D01*
X13641834Y-14815845D01*
X13640887Y-14815486D01*
X13634917Y-14814761D01*
X13634177Y-14814648D01*
X13628261Y-14813564D01*
X13622257Y-14813927D01*
X13621508Y-14813950D01*
X13541815Y-14813950D01*
X13537983Y-14813343D01*
X13534526Y-14811582D01*
X13521694Y-14802258D01*
X13503667Y-14794232D01*
X13484366Y-14790130D01*
X13484366Y-14790130D01*
X13464634Y-14790130D01*
X13464634Y-14790130D01*
X13445333Y-14794232D01*
X13445333Y-14794232D01*
X13445333Y-14794232D01*
X13442526Y-14795482D01*
X13427306Y-14802258D01*
X13411343Y-14813856D01*
X13398139Y-14828521D01*
X13388273Y-14845609D01*
X13382175Y-14864376D01*
X13380113Y-14884000D01*
X13175050Y-14884000D01*
X13175050Y-14630000D01*
X13380113Y-14630000D01*
X13382175Y-14649624D01*
X13388273Y-14668391D01*
X13398139Y-14685479D01*
X13411343Y-14700143D01*
X13427306Y-14711741D01*
X13436319Y-14715754D01*
X13445333Y-14719767D01*
X13445333Y-14719767D01*
X13445333Y-14719768D01*
X13464634Y-14723870D01*
X13464634Y-14723870D01*
X13484366Y-14723870D01*
X13484366Y-14723870D01*
X13503667Y-14719768D01*
X13503667Y-14719767D01*
X13503667Y-14719767D01*
X13521694Y-14711742D01*
X13521694Y-14711741D01*
X13521694Y-14711741D01*
X13534526Y-14702418D01*
X13537983Y-14700657D01*
X13541815Y-14700050D01*
X13650848Y-14700050D01*
X13655593Y-14700994D01*
X13659616Y-14703682D01*
X13948818Y-14992884D01*
X13951506Y-14996907D01*
X13952450Y-15001652D01*
X13952450Y-15717795D01*
X13951171Y-15723279D01*
X13947598Y-15727632D01*
X13942469Y-15729957D01*
X13941079Y-15730233D01*
X13937754Y-15732454D01*
X13935533Y-15735779D01*
X13934950Y-15738710D01*
X13934950Y-15900690D01*
X13935533Y-15903621D01*
X13936817Y-15905543D01*
X13937754Y-15906946D01*
X13941079Y-15909167D01*
X13944010Y-15909750D01*
X14105990Y-15909750D01*
X14105990Y-15909750D01*
X14107455Y-15909458D01*
X14108921Y-15909167D01*
X14112246Y-15906946D01*
X14114467Y-15903621D01*
X14115050Y-15900690D01*
X14115050Y-15819700D01*
X14314454Y-15819700D01*
X14316433Y-15838526D01*
X14322282Y-15856528D01*
X14331747Y-15872922D01*
X14344413Y-15886989D01*
X14359727Y-15898115D01*
X14377020Y-15905814D01*
X14395535Y-15909750D01*
X14395535Y-15909750D01*
X14414465Y-15909750D01*
X14414465Y-15909750D01*
X14434255Y-15905543D01*
X14434256Y-15905547D01*
X14438007Y-15904750D01*
X14732350Y-15904750D01*
X14738550Y-15906411D01*
X14743089Y-15910950D01*
X14744750Y-15917150D01*
X14744750Y-15947151D01*
X14743286Y-15952996D01*
X14741060Y-15957160D01*
X14735625Y-15975077D01*
X14733790Y-15993710D01*
X14735625Y-16012343D01*
X14741060Y-16030260D01*
X14748184Y-16043588D01*
X14749886Y-16046772D01*
X14761764Y-16061246D01*
X14776237Y-16073124D01*
X14792750Y-16081950D01*
X14810667Y-16087385D01*
X14829300Y-16089220D01*
X14847933Y-16087385D01*
X14865850Y-16081950D01*
X14882362Y-16073124D01*
X14896836Y-16061246D01*
X14908714Y-16046772D01*
X14917540Y-16030260D01*
X14921043Y-16018710D01*
X14950236Y-16018710D01*
X14955957Y-16040059D01*
X14965940Y-16061468D01*
X14979489Y-16080818D01*
X14996192Y-16097521D01*
X15015542Y-16111070D01*
X15036951Y-16121053D01*
X15058300Y-16126773D01*
X15058300Y-16126774D01*
X15058300Y-16126773D01*
X15108300Y-16126773D01*
X15129649Y-16121053D01*
X15151058Y-16111070D01*
X15170408Y-16097521D01*
X15187111Y-16080818D01*
X15200660Y-16061468D01*
X15210643Y-16040059D01*
X15216757Y-16017242D01*
X15217497Y-16008780D01*
X15219590Y-16002897D01*
X15224285Y-15998780D01*
X15230391Y-15997473D01*
X15236360Y-15999307D01*
X15240678Y-16003818D01*
X15242250Y-16009861D01*
X15242250Y-16079700D01*
X15242833Y-16082631D01*
X15242833Y-16082631D01*
X15245054Y-16085956D01*
X15248379Y-16088177D01*
X15251310Y-16088760D01*
X15423290Y-16088760D01*
X15423290Y-16088760D01*
X15424755Y-16088468D01*
X15426221Y-16088177D01*
X15429546Y-16085956D01*
X15431767Y-16082631D01*
X15432350Y-16079700D01*
X15432350Y-15917450D01*
X15434011Y-15911250D01*
X15438550Y-15906711D01*
X15444750Y-15905050D01*
X15719493Y-15905050D01*
X15723244Y-15905847D01*
X15723245Y-15905843D01*
X15743035Y-15910050D01*
X15743035Y-15910050D01*
X15761965Y-15910050D01*
X15761965Y-15910050D01*
X15776569Y-15906946D01*
X15780480Y-15906114D01*
X15797773Y-15898415D01*
X15806135Y-15892340D01*
X15813087Y-15887289D01*
X15825753Y-15873222D01*
X15835218Y-15856828D01*
X15837570Y-15849590D01*
X15841067Y-15838826D01*
X15843046Y-15820000D01*
X15841067Y-15801174D01*
X15837405Y-15789901D01*
X15835218Y-15783171D01*
X15825753Y-15766778D01*
X15813087Y-15752711D01*
X15797773Y-15741585D01*
X15780480Y-15733885D01*
X15761965Y-15729950D01*
X15761965Y-15729950D01*
X15743035Y-15729950D01*
X15743035Y-15729950D01*
X15723245Y-15734156D01*
X15723244Y-15734153D01*
X15719493Y-15734950D01*
X15435250Y-15734950D01*
X15429050Y-15733289D01*
X15424511Y-15728750D01*
X15422850Y-15722550D01*
X15422850Y-15681833D01*
X15424314Y-15675988D01*
X15426040Y-15672760D01*
X15431475Y-15654843D01*
X15433310Y-15636210D01*
X15431475Y-15617577D01*
X15426040Y-15599660D01*
X15417214Y-15583147D01*
X15405336Y-15568674D01*
X15390862Y-15556796D01*
X15390862Y-15556796D01*
X15374350Y-15547970D01*
X15356433Y-15542535D01*
X15337800Y-15540700D01*
X15319167Y-15542535D01*
X15301250Y-15547970D01*
X15284737Y-15556796D01*
X15270264Y-15568674D01*
X15258386Y-15583147D01*
X15249560Y-15599660D01*
X15244125Y-15617577D01*
X15242290Y-15636210D01*
X15244125Y-15654843D01*
X15249560Y-15672760D01*
X15251286Y-15675988D01*
X15252750Y-15681833D01*
X15252750Y-15889694D01*
X15251286Y-15895540D01*
X15247239Y-15900005D01*
X15245186Y-15901376D01*
X15245054Y-15901464D01*
X15242833Y-15904789D01*
X15242250Y-15907720D01*
X15242250Y-15977559D01*
X15240678Y-15983602D01*
X15236360Y-15988112D01*
X15230391Y-15989947D01*
X15224285Y-15988640D01*
X15219590Y-15984522D01*
X15217497Y-15978639D01*
X15216757Y-15970178D01*
X15210643Y-15947361D01*
X15200660Y-15925952D01*
X15187111Y-15906602D01*
X15170408Y-15889899D01*
X15151058Y-15876350D01*
X15129649Y-15866367D01*
X15108300Y-15860646D01*
X15108300Y-16126773D01*
X15058300Y-16126773D01*
X15058300Y-16018710D01*
X14950236Y-16018710D01*
X14921043Y-16018710D01*
X14922975Y-16012343D01*
X14924810Y-15993710D01*
X14922975Y-15975077D01*
X14921043Y-15968710D01*
X14950236Y-15968710D01*
X15058300Y-15968710D01*
X15058300Y-15860646D01*
X15058300Y-15860646D01*
X15036951Y-15866367D01*
X15015542Y-15876350D01*
X14996192Y-15889899D01*
X14979489Y-15906602D01*
X14965940Y-15925952D01*
X14955957Y-15947361D01*
X14950236Y-15968710D01*
X14950236Y-15968710D01*
X14921043Y-15968710D01*
X14917540Y-15957160D01*
X14916314Y-15954867D01*
X14914850Y-15949022D01*
X14914850Y-15739892D01*
X14916314Y-15734046D01*
X14920361Y-15729581D01*
X14922046Y-15728456D01*
X14924267Y-15725131D01*
X14924850Y-15722200D01*
X14924850Y-15652361D01*
X14926422Y-15646318D01*
X14930740Y-15641807D01*
X14936709Y-15639973D01*
X14942815Y-15641280D01*
X14947510Y-15645397D01*
X14949603Y-15651280D01*
X14950343Y-15659742D01*
X14956457Y-15682559D01*
X14966440Y-15703968D01*
X14979989Y-15723318D01*
X14996692Y-15740021D01*
X15016042Y-15753570D01*
X15037451Y-15763553D01*
X15058800Y-15769273D01*
X15058800Y-15769274D01*
X15058800Y-15661210D01*
X15108800Y-15661210D01*
X15108800Y-15769273D01*
X15130149Y-15763553D01*
X15151558Y-15753570D01*
X15170908Y-15740021D01*
X15187611Y-15723318D01*
X15201160Y-15703968D01*
X15211143Y-15682559D01*
X15216864Y-15661210D01*
X15108800Y-15661210D01*
X15058800Y-15661210D01*
X15058800Y-15503146D01*
X15108800Y-15503146D01*
X15108800Y-15611210D01*
X15216864Y-15611210D01*
X15216863Y-15611210D01*
X15211143Y-15589861D01*
X15201160Y-15568452D01*
X15187611Y-15549102D01*
X15170908Y-15532399D01*
X15151558Y-15518850D01*
X15130149Y-15508867D01*
X15108800Y-15503146D01*
X15058800Y-15503146D01*
X15058800Y-15503146D01*
X15037451Y-15508867D01*
X15016042Y-15518850D01*
X14996692Y-15532399D01*
X14979989Y-15549102D01*
X14966440Y-15568452D01*
X14956457Y-15589861D01*
X14950343Y-15612678D01*
X14949603Y-15621140D01*
X14947510Y-15627023D01*
X14942815Y-15631140D01*
X14936709Y-15632447D01*
X14930740Y-15630613D01*
X14926422Y-15626102D01*
X14924850Y-15620059D01*
X14924850Y-15550220D01*
X14924267Y-15547289D01*
X14922046Y-15543964D01*
X14918721Y-15541743D01*
X14915790Y-15541160D01*
X14743810Y-15541160D01*
X14740879Y-15541743D01*
X14737554Y-15543964D01*
X14735333Y-15547289D01*
X14734750Y-15550220D01*
X14734750Y-15722250D01*
X14733089Y-15728450D01*
X14728550Y-15732989D01*
X14722350Y-15734650D01*
X14438007Y-15734650D01*
X14434256Y-15733853D01*
X14434255Y-15733856D01*
X14414465Y-15729650D01*
X14414465Y-15729650D01*
X14395535Y-15729650D01*
X14395535Y-15729650D01*
X14377020Y-15733585D01*
X14359727Y-15741285D01*
X14344413Y-15752411D01*
X14331747Y-15766478D01*
X14322282Y-15782871D01*
X14316433Y-15800874D01*
X14314454Y-15819700D01*
X14115050Y-15819700D01*
X14115050Y-15738710D01*
X14115050Y-15738710D01*
X14114467Y-15735779D01*
X14113835Y-15734833D01*
X14112246Y-15732454D01*
X14110458Y-15731260D01*
X14108921Y-15730233D01*
X14105990Y-15729650D01*
X14105990Y-15729650D01*
X14104950Y-15729650D01*
X14098750Y-15727989D01*
X14094211Y-15723450D01*
X14092550Y-15717250D01*
X14092550Y-14969992D01*
X14092573Y-14969243D01*
X14092784Y-14965741D01*
X14092936Y-14963239D01*
X14091851Y-14957318D01*
X14091739Y-14956584D01*
X14091014Y-14950613D01*
X14090655Y-14949666D01*
X14090052Y-14947504D01*
X14089869Y-14946507D01*
X14087401Y-14941022D01*
X14087115Y-14940333D01*
X14084982Y-14934707D01*
X14084982Y-14934707D01*
X14084982Y-14934707D01*
X14084406Y-14933873D01*
X14083303Y-14931918D01*
X14082888Y-14930994D01*
X14079178Y-14926259D01*
X14078735Y-14925657D01*
X14075318Y-14920707D01*
X14073792Y-14919355D01*
X14070815Y-14916718D01*
X14070271Y-14916206D01*
X13736294Y-14582228D01*
X13735782Y-14581685D01*
X13731793Y-14577182D01*
X13726843Y-14573765D01*
X13726240Y-14573322D01*
X13723086Y-14570850D01*
X13721506Y-14569612D01*
X13721505Y-14569612D01*
X13721505Y-14569612D01*
X13720581Y-14569196D01*
X13718627Y-14568094D01*
X13717793Y-14567518D01*
X13717793Y-14567518D01*
X13717793Y-14567518D01*
X13712170Y-14565386D01*
X13711478Y-14565099D01*
X13705993Y-14562630D01*
X13704995Y-14562447D01*
X13702834Y-14561845D01*
X13701887Y-14561486D01*
X13695917Y-14560761D01*
X13695177Y-14560648D01*
X13689261Y-14559564D01*
X13683257Y-14559927D01*
X13682508Y-14559950D01*
X13541815Y-14559950D01*
X13537983Y-14559343D01*
X13534526Y-14557582D01*
X13521694Y-14548258D01*
X13503667Y-14540232D01*
X13484366Y-14536130D01*
X13484366Y-14536130D01*
X13464634Y-14536130D01*
X13464634Y-14536130D01*
X13445333Y-14540232D01*
X13445333Y-14540232D01*
X13445333Y-14540232D01*
X13442526Y-14541482D01*
X13427306Y-14548258D01*
X13411343Y-14559856D01*
X13398139Y-14574521D01*
X13388273Y-14591609D01*
X13382175Y-14610376D01*
X13380113Y-14630000D01*
X13175050Y-14630000D01*
X13175050Y-14486645D01*
X13399210Y-14486645D01*
X13407335Y-14492334D01*
X13428556Y-14502230D01*
X13451174Y-14508290D01*
X13474500Y-14510331D01*
X13497826Y-14508290D01*
X13520444Y-14502230D01*
X13541665Y-14492334D01*
X13549790Y-14486645D01*
X13474500Y-14411355D01*
X13399210Y-14486645D01*
X13175050Y-14486645D01*
X13175050Y-14376000D01*
X13340169Y-14376000D01*
X13342209Y-14399326D01*
X13348270Y-14421944D01*
X13358166Y-14443165D01*
X13363855Y-14451290D01*
X13439145Y-14376000D01*
X13439145Y-14376000D01*
X13363855Y-14300710D01*
X13363854Y-14300710D01*
X13358166Y-14308834D01*
X13348270Y-14330056D01*
X13342209Y-14352674D01*
X13340169Y-14376000D01*
X13175050Y-14376000D01*
X13175050Y-14122000D01*
X13380113Y-14122000D01*
X13382175Y-14141624D01*
X13388273Y-14160391D01*
X13398139Y-14177479D01*
X13411343Y-14192143D01*
X13427306Y-14203741D01*
X13433422Y-14206464D01*
X13445333Y-14211767D01*
X13445333Y-14211767D01*
X13445333Y-14211768D01*
X13464634Y-14215870D01*
X13481668Y-14215870D01*
X13486413Y-14216814D01*
X13490436Y-14219502D01*
X13492166Y-14221232D01*
X13495256Y-14226374D01*
X13495570Y-14232366D01*
X13493034Y-14237803D01*
X13488243Y-14241414D01*
X13482317Y-14242353D01*
X13474500Y-14241669D01*
X13451174Y-14243709D01*
X13428556Y-14249770D01*
X13407334Y-14259666D01*
X13399210Y-14265354D01*
X13399210Y-14265355D01*
X13474500Y-14340645D01*
X13585145Y-14451290D01*
X13590834Y-14443165D01*
X13600730Y-14421944D01*
X13606790Y-14399326D01*
X13608831Y-14376000D01*
X13608147Y-14368183D01*
X13609086Y-14362257D01*
X13612696Y-14357465D01*
X13618134Y-14354930D01*
X13624125Y-14355244D01*
X13629268Y-14358334D01*
X14713706Y-15442771D01*
X14714218Y-15443315D01*
X14718207Y-15447818D01*
X14718207Y-15447818D01*
X14723157Y-15451235D01*
X14723759Y-15451678D01*
X14728494Y-15455388D01*
X14729418Y-15455803D01*
X14731373Y-15456906D01*
X14732207Y-15457482D01*
X14732207Y-15457482D01*
X14732207Y-15457482D01*
X14737833Y-15459615D01*
X14738522Y-15459901D01*
X14744007Y-15462369D01*
X14745004Y-15462552D01*
X14747166Y-15463155D01*
X14748113Y-15463514D01*
X14754084Y-15464239D01*
X14754818Y-15464351D01*
X14760739Y-15465436D01*
X14766410Y-15465093D01*
X14766743Y-15465073D01*
X14767492Y-15465050D01*
X15907868Y-15465050D01*
X15912613Y-15465994D01*
X15916636Y-15468682D01*
X16058818Y-15610864D01*
X16061506Y-15614887D01*
X16062450Y-15619632D01*
X16062450Y-15717598D01*
X16061171Y-15723082D01*
X16057598Y-15727435D01*
X16052469Y-15729759D01*
X16048579Y-15730533D01*
X16045254Y-15732754D01*
X16043033Y-15736079D01*
X16042450Y-15739010D01*
X16042450Y-15900990D01*
X16043033Y-15903921D01*
X16043787Y-15905050D01*
X16045254Y-15907246D01*
X16048579Y-15909467D01*
X16051510Y-15910050D01*
X16213490Y-15910050D01*
X16213490Y-15910050D01*
X16214998Y-15909750D01*
X16216421Y-15909467D01*
X16219746Y-15907246D01*
X16221967Y-15903921D01*
X16222550Y-15900990D01*
X16222550Y-15875000D01*
X16537164Y-15875000D01*
X16539050Y-15901376D01*
X16544671Y-15927215D01*
X16547879Y-15935816D01*
X16553823Y-15951754D01*
X16553912Y-15951992D01*
X16566585Y-15975200D01*
X16570364Y-15980248D01*
X16582432Y-15996369D01*
X16601130Y-16015068D01*
X16611597Y-16022903D01*
X16622300Y-16030915D01*
X16629601Y-16034902D01*
X16645508Y-16043588D01*
X16670285Y-16052829D01*
X16670285Y-16052829D01*
X16670285Y-16052829D01*
X16675114Y-16053879D01*
X16696124Y-16058450D01*
X16722500Y-16060336D01*
X16748876Y-16058450D01*
X16774715Y-16052829D01*
X16799492Y-16043588D01*
X16822700Y-16030915D01*
X16843870Y-16015068D01*
X16862568Y-15996369D01*
X16878415Y-15975200D01*
X16891088Y-15951991D01*
X16900329Y-15927215D01*
X16905950Y-15901376D01*
X16907836Y-15875000D01*
X16905950Y-15848624D01*
X16900329Y-15822785D01*
X16891088Y-15798008D01*
X16882977Y-15783155D01*
X16878415Y-15774800D01*
X16869411Y-15762771D01*
X16862568Y-15753630D01*
X16843870Y-15734932D01*
X16833285Y-15727009D01*
X16822700Y-15719085D01*
X16799492Y-15706412D01*
X16799492Y-15706412D01*
X16799492Y-15706412D01*
X16774715Y-15697171D01*
X16774715Y-15697171D01*
X16748876Y-15691550D01*
X16722500Y-15689664D01*
X16696124Y-15691550D01*
X16670285Y-15697171D01*
X16645508Y-15706412D01*
X16622300Y-15719085D01*
X16601130Y-15734932D01*
X16582432Y-15753630D01*
X16566585Y-15774800D01*
X16553912Y-15798008D01*
X16544671Y-15822785D01*
X16539050Y-15848624D01*
X16537164Y-15875000D01*
X16222550Y-15875000D01*
X16222550Y-15739010D01*
X16222550Y-15739010D01*
X16221967Y-15736079D01*
X16221490Y-15735365D01*
X16219746Y-15732754D01*
X16219296Y-15732454D01*
X16216421Y-15730533D01*
X16212531Y-15729759D01*
X16207401Y-15727435D01*
X16203829Y-15723082D01*
X16202550Y-15717597D01*
X16202550Y-15587972D01*
X16202573Y-15587223D01*
X16202593Y-15586890D01*
X16202936Y-15581219D01*
X16201851Y-15575298D01*
X16201739Y-15574564D01*
X16201014Y-15568593D01*
X16200655Y-15567645D01*
X16200052Y-15565483D01*
X16199882Y-15564554D01*
X16199869Y-15564487D01*
X16197401Y-15559002D01*
X16197115Y-15558312D01*
X16194982Y-15552687D01*
X16194406Y-15551853D01*
X16193303Y-15549898D01*
X16192888Y-15548974D01*
X16189178Y-15544240D01*
X16188735Y-15543638D01*
X16185318Y-15538687D01*
X16180815Y-15534698D01*
X16180271Y-15534186D01*
X15993314Y-15347228D01*
X15992802Y-15346685D01*
X15988813Y-15342182D01*
X15983863Y-15338765D01*
X15983260Y-15338322D01*
X15978525Y-15334612D01*
X15977601Y-15334196D01*
X15975647Y-15333094D01*
X15974813Y-15332518D01*
X15974813Y-15332518D01*
X15974813Y-15332518D01*
X15969190Y-15330386D01*
X15968498Y-15330099D01*
X15963013Y-15327630D01*
X15962015Y-15327447D01*
X15959854Y-15326845D01*
X15958907Y-15326486D01*
X15952937Y-15325761D01*
X15952197Y-15325648D01*
X15946281Y-15324564D01*
X15940277Y-15324927D01*
X15939528Y-15324950D01*
X14799152Y-15324950D01*
X14794407Y-15324006D01*
X14790384Y-15321318D01*
X14050384Y-14581318D01*
X14047359Y-14576382D01*
X14046905Y-14570610D01*
X14049120Y-14565261D01*
X14053522Y-14561501D01*
X14059152Y-14560150D01*
X14361257Y-14560150D01*
X14365887Y-14561047D01*
X14369847Y-14563607D01*
X14372565Y-14567461D01*
X14373779Y-14570158D01*
X14374066Y-14570850D01*
X14376164Y-14576382D01*
X14376198Y-14576473D01*
X14376774Y-14577307D01*
X14377876Y-14579261D01*
X14378292Y-14580185D01*
X14382002Y-14584920D01*
X14382445Y-14585523D01*
X14385862Y-14590473D01*
X14390365Y-14594462D01*
X14390908Y-14594974D01*
X14553706Y-14757771D01*
X14554218Y-14758315D01*
X14558207Y-14762818D01*
X14563158Y-14766235D01*
X14563760Y-14766678D01*
X14568494Y-14770388D01*
X14568494Y-14770388D01*
X14568494Y-14770388D01*
X14569418Y-14770804D01*
X14571373Y-14771906D01*
X14572207Y-14772482D01*
X14577832Y-14774615D01*
X14578522Y-14774901D01*
X14584007Y-14777369D01*
X14585003Y-14777552D01*
X14587165Y-14778155D01*
X14588113Y-14778514D01*
X14594084Y-14779239D01*
X14594818Y-14779351D01*
X14600739Y-14780436D01*
X14606410Y-14780093D01*
X14606743Y-14780073D01*
X14607492Y-14780050D01*
X16035008Y-14780050D01*
X16035757Y-14780073D01*
X16036071Y-14780091D01*
X16041761Y-14780436D01*
X16047678Y-14779351D01*
X16048418Y-14779239D01*
X16054387Y-14778514D01*
X16055333Y-14778155D01*
X16057496Y-14777552D01*
X16058493Y-14777369D01*
X16063981Y-14774900D01*
X16064667Y-14774615D01*
X16070293Y-14772482D01*
X16071127Y-14771906D01*
X16073082Y-14770803D01*
X16074006Y-14770388D01*
X16078741Y-14766677D01*
X16079342Y-14766235D01*
X16084293Y-14762818D01*
X16088282Y-14758315D01*
X16088792Y-14757773D01*
X16707773Y-14138792D01*
X16708315Y-14138282D01*
X16712818Y-14134293D01*
X16716236Y-14129342D01*
X16716678Y-14128741D01*
X16720388Y-14124006D01*
X16720803Y-14123082D01*
X16721906Y-14121127D01*
X16722482Y-14120293D01*
X16724615Y-14114667D01*
X16724901Y-14113977D01*
X16727369Y-14108493D01*
X16727552Y-14107497D01*
X16728154Y-14105335D01*
X16728514Y-14104387D01*
X16729239Y-14098416D01*
X16729352Y-14097676D01*
X16730436Y-14091761D01*
X16730073Y-14085758D01*
X16730050Y-14085009D01*
X16730050Y-11907500D01*
X16904946Y-11907500D01*
X16904950Y-11907510D01*
X16904962Y-11907538D01*
X16904962Y-11907538D01*
X16904981Y-11907546D01*
X16905000Y-11907554D01*
X16905000Y-11907554D01*
X16907462Y-11907552D01*
X16907462Y-11907553D01*
X16907476Y-11907550D01*
X17067524Y-11907550D01*
X17067538Y-11907553D01*
X17067538Y-11907552D01*
X17070000Y-11907554D01*
X17070000Y-11907554D01*
X17070038Y-11907538D01*
X17070050Y-11907510D01*
X17070054Y-11907500D01*
X17070054Y-11905045D01*
X17070050Y-11905024D01*
X17070050Y-8789976D01*
X17070053Y-8789962D01*
X17070052Y-8789962D01*
X17070054Y-8787500D01*
X17070054Y-8787500D01*
X17070046Y-8787481D01*
X17070038Y-8787462D01*
X17070038Y-8787461D01*
X17070019Y-8787454D01*
X17070000Y-8787446D01*
X17067545Y-8787446D01*
X17067524Y-8787450D01*
X16907476Y-8787450D01*
X16907455Y-8787446D01*
X16905000Y-8787446D01*
X16904981Y-8787454D01*
X16904962Y-8787462D01*
X16904962Y-8787462D01*
X16904946Y-8787500D01*
X16904948Y-8789962D01*
X16904947Y-8789962D01*
X16904950Y-8789976D01*
X16904950Y-11905024D01*
X16904946Y-11905045D01*
X16904946Y-11907500D01*
X16730050Y-11907500D01*
X16730050Y-9147491D01*
X16730073Y-9146742D01*
X16730094Y-9146386D01*
X16730436Y-9140739D01*
X16729351Y-9134820D01*
X16729239Y-9134086D01*
X16728514Y-9128113D01*
X16728155Y-9127165D01*
X16727552Y-9125004D01*
X16727369Y-9124007D01*
X16724900Y-9118520D01*
X16724615Y-9117833D01*
X16722482Y-9112207D01*
X16721906Y-9111373D01*
X16720804Y-9109419D01*
X16720388Y-9108494D01*
X16719817Y-9107766D01*
X16716678Y-9103760D01*
X16716235Y-9103158D01*
X16712818Y-9098207D01*
X16708315Y-9094218D01*
X16707771Y-9093706D01*
X16499474Y-8885408D01*
X16498962Y-8884865D01*
X16494973Y-8880362D01*
X16490023Y-8876945D01*
X16489420Y-8876502D01*
X16484685Y-8872792D01*
X16483761Y-8872376D01*
X16481807Y-8871274D01*
X16480973Y-8870698D01*
X16480973Y-8870698D01*
X16480973Y-8870698D01*
X16475350Y-8868566D01*
X16474658Y-8868279D01*
X16469173Y-8865810D01*
X16468175Y-8865628D01*
X16466014Y-8865025D01*
X16465067Y-8864666D01*
X16459097Y-8863941D01*
X16458357Y-8863828D01*
X16452441Y-8862744D01*
X16446437Y-8863107D01*
X16445688Y-8863130D01*
X16358370Y-8863130D01*
X16352170Y-8861469D01*
X16347631Y-8856930D01*
X16345970Y-8850730D01*
X16345970Y-8847190D01*
X16345387Y-8844259D01*
X16343166Y-8840934D01*
X16339841Y-8838713D01*
X16336910Y-8838130D01*
X16164930Y-8838130D01*
X16161999Y-8838713D01*
X16158674Y-8840934D01*
X16156453Y-8844259D01*
X16155870Y-8847190D01*
X16155870Y-9019170D01*
X16156453Y-9022101D01*
X16156453Y-9022101D01*
X16158674Y-9025426D01*
X16161999Y-9027647D01*
X16164930Y-9028230D01*
X16336910Y-9028230D01*
X16336910Y-9028230D01*
X16338375Y-9027938D01*
X16339841Y-9027647D01*
X16343166Y-9025426D01*
X16345387Y-9022101D01*
X16345970Y-9019170D01*
X16345970Y-9015630D01*
X16347631Y-9009430D01*
X16352170Y-9004891D01*
X16358370Y-9003230D01*
X16414028Y-9003230D01*
X16418773Y-9004174D01*
X16422796Y-9006862D01*
X16586318Y-9170384D01*
X16589006Y-9174407D01*
X16589950Y-9179152D01*
X16589950Y-14053348D01*
X16589006Y-14058093D01*
X16586318Y-14062116D01*
X16012116Y-14636318D01*
X16008093Y-14639006D01*
X16003348Y-14639950D01*
X14640034Y-14639950D01*
X14635289Y-14639006D01*
X14631266Y-14636318D01*
X14630711Y-14635762D01*
X14628461Y-14634156D01*
X14626898Y-14632833D01*
X14512362Y-14518296D01*
X14509674Y-14514273D01*
X14508730Y-14509528D01*
X14508730Y-14461892D01*
X14508933Y-14459657D01*
X14509116Y-14458661D01*
X14508753Y-14452658D01*
X14508730Y-14451909D01*
X14508730Y-14422100D01*
X14575480Y-14422100D01*
X14575480Y-14481882D01*
X14576120Y-14487837D01*
X14581145Y-14501309D01*
X14589761Y-14512819D01*
X14601271Y-14521435D01*
X14614742Y-14526460D01*
X14620698Y-14527100D01*
X14680480Y-14527100D01*
X14680480Y-14422100D01*
X14730480Y-14422100D01*
X14730480Y-14527100D01*
X14790262Y-14527100D01*
X14796217Y-14526460D01*
X14809689Y-14521435D01*
X14821199Y-14512819D01*
X14829815Y-14501309D01*
X14834840Y-14487837D01*
X14835230Y-14484203D01*
X14837268Y-14478610D01*
X14841677Y-14474612D01*
X14847441Y-14473128D01*
X14853233Y-14474502D01*
X14857717Y-14478415D01*
X14859514Y-14480982D01*
X14875598Y-14497066D01*
X14894232Y-14510113D01*
X14914847Y-14519727D01*
X14934480Y-14524987D01*
X14934480Y-14524987D01*
X14934480Y-14422100D01*
X14984480Y-14422100D01*
X14984480Y-14524987D01*
X15004113Y-14519727D01*
X15024728Y-14510113D01*
X15043362Y-14497066D01*
X15059446Y-14480982D01*
X15072493Y-14462348D01*
X15075242Y-14456454D01*
X15079817Y-14451237D01*
X15086480Y-14449295D01*
X15093142Y-14451237D01*
X15097718Y-14456454D01*
X15100466Y-14462348D01*
X15113514Y-14480982D01*
X15129598Y-14497066D01*
X15148232Y-14510113D01*
X15168847Y-14519727D01*
X15188480Y-14524987D01*
X15188480Y-14422100D01*
X15238480Y-14422100D01*
X15238480Y-14524987D01*
X15258113Y-14519727D01*
X15278728Y-14510113D01*
X15297362Y-14497066D01*
X15313446Y-14480982D01*
X15326493Y-14462348D01*
X15329242Y-14456454D01*
X15333817Y-14451237D01*
X15340480Y-14449295D01*
X15347142Y-14451237D01*
X15351718Y-14456454D01*
X15354466Y-14462348D01*
X15367514Y-14480982D01*
X15383598Y-14497066D01*
X15402232Y-14510113D01*
X15422847Y-14519727D01*
X15442480Y-14524987D01*
X15442480Y-14524987D01*
X15442480Y-14422100D01*
X15492480Y-14422100D01*
X15492480Y-14524987D01*
X15512113Y-14519727D01*
X15532728Y-14510113D01*
X15551362Y-14497066D01*
X15567446Y-14480982D01*
X15580493Y-14462348D01*
X15590107Y-14441733D01*
X15595367Y-14422100D01*
X15492480Y-14422100D01*
X15442480Y-14422100D01*
X15238480Y-14422100D01*
X15188480Y-14422100D01*
X14984480Y-14422100D01*
X14934480Y-14422100D01*
X14730480Y-14422100D01*
X14680480Y-14422100D01*
X14575480Y-14422100D01*
X14508730Y-14422100D01*
X14508730Y-14417395D01*
X14510387Y-14411203D01*
X14514914Y-14406666D01*
X14518231Y-14405770D01*
X14519000Y-14405000D01*
X14519000Y-14372100D01*
X14575480Y-14372100D01*
X14680480Y-14372100D01*
X14680480Y-14267100D01*
X14730480Y-14267100D01*
X14730480Y-14372100D01*
X14934480Y-14372100D01*
X14984480Y-14372100D01*
X15188480Y-14372100D01*
X15238480Y-14372100D01*
X15442480Y-14372100D01*
X15442480Y-14269213D01*
X15492480Y-14269213D01*
X15492480Y-14372100D01*
X15595367Y-14372100D01*
X15595367Y-14372100D01*
X15590107Y-14352467D01*
X15580493Y-14331852D01*
X15567446Y-14313218D01*
X15551362Y-14297134D01*
X15532728Y-14284086D01*
X15512113Y-14274473D01*
X15492480Y-14269213D01*
X15442480Y-14269213D01*
X15442480Y-14269213D01*
X15422847Y-14274473D01*
X15402232Y-14284086D01*
X15383598Y-14297134D01*
X15367514Y-14313218D01*
X15354466Y-14331852D01*
X15351718Y-14337746D01*
X15347142Y-14342963D01*
X15340480Y-14344905D01*
X15333817Y-14342963D01*
X15329242Y-14337746D01*
X15326493Y-14331852D01*
X15313446Y-14313218D01*
X15297362Y-14297134D01*
X15278728Y-14284086D01*
X15258113Y-14274473D01*
X15238480Y-14269213D01*
X15238480Y-14372100D01*
X15188480Y-14372100D01*
X15188480Y-14269213D01*
X15168847Y-14274473D01*
X15148232Y-14284086D01*
X15129598Y-14297134D01*
X15113514Y-14313218D01*
X15100466Y-14331852D01*
X15097718Y-14337746D01*
X15093142Y-14342963D01*
X15086480Y-14344905D01*
X15079817Y-14342963D01*
X15075242Y-14337746D01*
X15072493Y-14331852D01*
X15059446Y-14313218D01*
X15043362Y-14297134D01*
X15024728Y-14284086D01*
X15004113Y-14274473D01*
X14984480Y-14269213D01*
X14984480Y-14372100D01*
X14934480Y-14372100D01*
X14934480Y-14269213D01*
X14934480Y-14269213D01*
X14914847Y-14274473D01*
X14894232Y-14284086D01*
X14875598Y-14297134D01*
X14859514Y-14313218D01*
X14857717Y-14315785D01*
X14853233Y-14319698D01*
X14847441Y-14321071D01*
X14841677Y-14319588D01*
X14837268Y-14315590D01*
X14835230Y-14309997D01*
X14834840Y-14306362D01*
X14829815Y-14292891D01*
X14821199Y-14281381D01*
X14809689Y-14272765D01*
X14796217Y-14267740D01*
X14790262Y-14267100D01*
X14730480Y-14267100D01*
X14680480Y-14267100D01*
X14620698Y-14267100D01*
X14614742Y-14267740D01*
X14601271Y-14272765D01*
X14589761Y-14281381D01*
X14581145Y-14292891D01*
X14576120Y-14306362D01*
X14575480Y-14312318D01*
X14575480Y-14372100D01*
X14519000Y-14372100D01*
X14519000Y-14187000D01*
X14228657Y-14187642D01*
X14222446Y-14185990D01*
X14217896Y-14181450D01*
X14216230Y-14175242D01*
X14216230Y-14030735D01*
X14216433Y-14028500D01*
X14217016Y-14025321D01*
X14216754Y-14020990D01*
X14217730Y-14015366D01*
X14221121Y-14010776D01*
X14226210Y-14008190D01*
X14231918Y-14008159D01*
X14237035Y-14010687D01*
X14239797Y-14012972D01*
X14239797Y-14012972D01*
X14239798Y-14012972D01*
X14254097Y-14019701D01*
X14269621Y-14022663D01*
X14269621Y-14022663D01*
X14269621Y-14022663D01*
X14274879Y-14022332D01*
X14285394Y-14021670D01*
X14285546Y-14021621D01*
X14291782Y-14021249D01*
X14297409Y-14023965D01*
X14300996Y-14029080D01*
X14303745Y-14036449D01*
X14312361Y-14047959D01*
X14323871Y-14056575D01*
X14337342Y-14061600D01*
X14343298Y-14062240D01*
X14375580Y-14062240D01*
X14375580Y-13962240D01*
X14425580Y-13962240D01*
X14425580Y-14062240D01*
X14457862Y-14062240D01*
X14463817Y-14061600D01*
X14477289Y-14056575D01*
X14488799Y-14047959D01*
X14497415Y-14036449D01*
X14502440Y-14022977D01*
X14503080Y-14017022D01*
X14503080Y-13962240D01*
X14425580Y-13962240D01*
X14375580Y-13962240D01*
X14375580Y-13812240D01*
X14425580Y-13812240D01*
X14425580Y-13912240D01*
X14503080Y-13912240D01*
X14503080Y-13857458D01*
X14502440Y-13851502D01*
X14497415Y-13838031D01*
X14488799Y-13826521D01*
X14477289Y-13817905D01*
X14463817Y-13812880D01*
X14457862Y-13812240D01*
X14425580Y-13812240D01*
X14375580Y-13812240D01*
X14356030Y-13812240D01*
X14349830Y-13810579D01*
X14345291Y-13806040D01*
X14343630Y-13799840D01*
X14343630Y-13747394D01*
X14345511Y-13740827D01*
X14350584Y-13736253D01*
X14356728Y-13733250D01*
X14365000Y-13724978D01*
X14370137Y-13714469D01*
X14370851Y-13709570D01*
X14371130Y-13707656D01*
X14371130Y-13638504D01*
X14370634Y-13635100D01*
X14614934Y-13635100D01*
X14616913Y-13653926D01*
X14622762Y-13671928D01*
X14632227Y-13688322D01*
X14644893Y-13702389D01*
X14660207Y-13713515D01*
X14677500Y-13721214D01*
X14696015Y-13725150D01*
X14696015Y-13725150D01*
X14714945Y-13725150D01*
X14714945Y-13725150D01*
X14727288Y-13722526D01*
X14733460Y-13721214D01*
X14750753Y-13713515D01*
X14756183Y-13709570D01*
X14766067Y-13702389D01*
X14769705Y-13698349D01*
X14778733Y-13688322D01*
X14788198Y-13671928D01*
X14794047Y-13653926D01*
X14796026Y-13635100D01*
X14868934Y-13635100D01*
X14870913Y-13653926D01*
X14876762Y-13671928D01*
X14886227Y-13688322D01*
X14898893Y-13702389D01*
X14914207Y-13713515D01*
X14931500Y-13721214D01*
X14950015Y-13725150D01*
X14950015Y-13725150D01*
X14968945Y-13725150D01*
X14968945Y-13725150D01*
X14981288Y-13722526D01*
X14987460Y-13721214D01*
X15004753Y-13713515D01*
X15010183Y-13709570D01*
X15020067Y-13702389D01*
X15023705Y-13698349D01*
X15032733Y-13688322D01*
X15042198Y-13671928D01*
X15048047Y-13653926D01*
X15050026Y-13635100D01*
X15122934Y-13635100D01*
X15124913Y-13653926D01*
X15130762Y-13671928D01*
X15140227Y-13688322D01*
X15152893Y-13702389D01*
X15168207Y-13713515D01*
X15185500Y-13721214D01*
X15204015Y-13725150D01*
X15204015Y-13725150D01*
X15222945Y-13725150D01*
X15222945Y-13725150D01*
X15235288Y-13722526D01*
X15241460Y-13721214D01*
X15258753Y-13713515D01*
X15264183Y-13709570D01*
X15274067Y-13702389D01*
X15277705Y-13698349D01*
X15286733Y-13688322D01*
X15296198Y-13671928D01*
X15302047Y-13653926D01*
X15304026Y-13635100D01*
X15376934Y-13635100D01*
X15378913Y-13653926D01*
X15384762Y-13671928D01*
X15394227Y-13688322D01*
X15406893Y-13702389D01*
X15422207Y-13713515D01*
X15439500Y-13721214D01*
X15458015Y-13725150D01*
X15458015Y-13725150D01*
X15476945Y-13725150D01*
X15476945Y-13725150D01*
X15489288Y-13722526D01*
X15495460Y-13721214D01*
X15512753Y-13713515D01*
X15518183Y-13709570D01*
X15528067Y-13702389D01*
X15531705Y-13698349D01*
X15540733Y-13688322D01*
X15550198Y-13671928D01*
X15556047Y-13653926D01*
X15558026Y-13635100D01*
X15556047Y-13616274D01*
X15551744Y-13603030D01*
X15550198Y-13598271D01*
X15540733Y-13581878D01*
X15528067Y-13567811D01*
X15512753Y-13556685D01*
X15495460Y-13548985D01*
X15476945Y-13545050D01*
X15476945Y-13545050D01*
X15458015Y-13545050D01*
X15458015Y-13545050D01*
X15439500Y-13548985D01*
X15422207Y-13556685D01*
X15406893Y-13567811D01*
X15394227Y-13581878D01*
X15384762Y-13598271D01*
X15378913Y-13616274D01*
X15376934Y-13635100D01*
X15304026Y-13635100D01*
X15302047Y-13616274D01*
X15297744Y-13603030D01*
X15296198Y-13598271D01*
X15286733Y-13581878D01*
X15274067Y-13567811D01*
X15258753Y-13556685D01*
X15241460Y-13548985D01*
X15222945Y-13545050D01*
X15222945Y-13545050D01*
X15204015Y-13545050D01*
X15204015Y-13545050D01*
X15185500Y-13548985D01*
X15168207Y-13556685D01*
X15152893Y-13567811D01*
X15140227Y-13581878D01*
X15130762Y-13598271D01*
X15124913Y-13616274D01*
X15122934Y-13635100D01*
X15050026Y-13635100D01*
X15048047Y-13616274D01*
X15043744Y-13603030D01*
X15042198Y-13598271D01*
X15032733Y-13581878D01*
X15020067Y-13567811D01*
X15004753Y-13556685D01*
X14987460Y-13548985D01*
X14968945Y-13545050D01*
X14968945Y-13545050D01*
X14950015Y-13545050D01*
X14950015Y-13545050D01*
X14931500Y-13548985D01*
X14914207Y-13556685D01*
X14898893Y-13567811D01*
X14886227Y-13581878D01*
X14876762Y-13598271D01*
X14870913Y-13616274D01*
X14868934Y-13635100D01*
X14796026Y-13635100D01*
X14794047Y-13616274D01*
X14789744Y-13603030D01*
X14788198Y-13598271D01*
X14778733Y-13581878D01*
X14766067Y-13567811D01*
X14750753Y-13556685D01*
X14733460Y-13548985D01*
X14714945Y-13545050D01*
X14714945Y-13545050D01*
X14696015Y-13545050D01*
X14696015Y-13545050D01*
X14677500Y-13548985D01*
X14660207Y-13556685D01*
X14644893Y-13567811D01*
X14632227Y-13581878D01*
X14622762Y-13598271D01*
X14616913Y-13616274D01*
X14614934Y-13635100D01*
X14370634Y-13635100D01*
X14370137Y-13631691D01*
X14370137Y-13631691D01*
X14365000Y-13621182D01*
X14365000Y-13621182D01*
X14365000Y-13621181D01*
X14356728Y-13612910D01*
X14351351Y-13610281D01*
X14346219Y-13607773D01*
X14346219Y-13607773D01*
X14346219Y-13607773D01*
X14339406Y-13606780D01*
X14339406Y-13606780D01*
X14298806Y-13606780D01*
X14295838Y-13606420D01*
X14294684Y-13606135D01*
X14282086Y-13603030D01*
X14265074Y-13603030D01*
X14252476Y-13606135D01*
X14251322Y-13606420D01*
X14248354Y-13606780D01*
X14207754Y-13606780D01*
X14200941Y-13607773D01*
X14190431Y-13612910D01*
X14182160Y-13621181D01*
X14177023Y-13631691D01*
X14176030Y-13638504D01*
X14176030Y-13707656D01*
X14177023Y-13714469D01*
X14182160Y-13724978D01*
X14190431Y-13733250D01*
X14190431Y-13733250D01*
X14190432Y-13733250D01*
X14196576Y-13736253D01*
X14201649Y-13740827D01*
X14203530Y-13747394D01*
X14203530Y-13854322D01*
X14201600Y-13860966D01*
X14196410Y-13865542D01*
X14189576Y-13866624D01*
X14183226Y-13863877D01*
X14180362Y-13861508D01*
X14175752Y-13859338D01*
X14166063Y-13854779D01*
X14161274Y-13853865D01*
X14150538Y-13851817D01*
X14134766Y-13852809D01*
X14119736Y-13857693D01*
X14117144Y-13859338D01*
X14106392Y-13866161D01*
X14106392Y-13866161D01*
X14106392Y-13866162D01*
X14104780Y-13867878D01*
X14099859Y-13871086D01*
X14094012Y-13871668D01*
X14088554Y-13869494D01*
X14084710Y-13865052D01*
X14083341Y-13859338D01*
X14083360Y-13854779D01*
X14084000Y-13700000D01*
X14084000Y-13700000D01*
X14012452Y-13700010D01*
X14006251Y-13698349D01*
X14001712Y-13693810D01*
X14000050Y-13687610D01*
X14000050Y-13643581D01*
X14000091Y-13642574D01*
X14000422Y-13638504D01*
X14000520Y-13637303D01*
X13999449Y-13629442D01*
X13999409Y-13629112D01*
X13998550Y-13621217D01*
X13998027Y-13618985D01*
X13995287Y-13611526D01*
X13995175Y-13611209D01*
X13992640Y-13603686D01*
X13991649Y-13601618D01*
X13991643Y-13601609D01*
X13991643Y-13601608D01*
X13987370Y-13594923D01*
X13987194Y-13594639D01*
X13983101Y-13587836D01*
X13981689Y-13586030D01*
X13976073Y-13580414D01*
X13975839Y-13580174D01*
X13974391Y-13578645D01*
X13970385Y-13574416D01*
X13970385Y-13574416D01*
X13970377Y-13574407D01*
X13968588Y-13572929D01*
X13961182Y-13565523D01*
X13958494Y-13561500D01*
X13957550Y-13556755D01*
X13957550Y-13551130D01*
X13956967Y-13548199D01*
X13954746Y-13544874D01*
X13951421Y-13542653D01*
X13948490Y-13542070D01*
X13948490Y-13542070D01*
X13940472Y-13542070D01*
X13936354Y-13541366D01*
X13934839Y-13540523D01*
X13934784Y-13540635D01*
X13933589Y-13540042D01*
X13931617Y-13538819D01*
X13927747Y-13537029D01*
X13923232Y-13533473D01*
X13920806Y-13528263D01*
X13920989Y-13522519D01*
X13923742Y-13517474D01*
X13928474Y-13514212D01*
X13936741Y-13511010D01*
X13945569Y-13505544D01*
X13887500Y-13447475D01*
X13887500Y-13447475D01*
X13829431Y-13505544D01*
X13829563Y-13506686D01*
X13831503Y-13508736D01*
X13833013Y-13514899D01*
X13831277Y-13521002D01*
X13826749Y-13525447D01*
X13820615Y-13527070D01*
X13512676Y-13527070D01*
X13507633Y-13525998D01*
X13503667Y-13524232D01*
X13484366Y-13520130D01*
X13484366Y-13520130D01*
X13464634Y-13520130D01*
X13464634Y-13520130D01*
X13445333Y-13524232D01*
X13445333Y-13524232D01*
X13445333Y-13524232D01*
X13442606Y-13525447D01*
X13427306Y-13532258D01*
X13411343Y-13543856D01*
X13398139Y-13558521D01*
X13388273Y-13575609D01*
X13382175Y-13594376D01*
X13380113Y-13614000D01*
X13382175Y-13633624D01*
X13388273Y-13652391D01*
X13398139Y-13669479D01*
X13411343Y-13684143D01*
X13427306Y-13695741D01*
X13436319Y-13699754D01*
X13445333Y-13703767D01*
X13445333Y-13703767D01*
X13445333Y-13703768D01*
X13464634Y-13707870D01*
X13464634Y-13707870D01*
X13484366Y-13707870D01*
X13484366Y-13707870D01*
X13503667Y-13703768D01*
X13503667Y-13703767D01*
X13503667Y-13703767D01*
X13516078Y-13698242D01*
X13521121Y-13697170D01*
X13750118Y-13697170D01*
X13756318Y-13698831D01*
X13760856Y-13703370D01*
X13762518Y-13709570D01*
X13762518Y-13873393D01*
X13761233Y-13878888D01*
X13757647Y-13883246D01*
X13752500Y-13885562D01*
X13746860Y-13885357D01*
X13741895Y-13882674D01*
X13740817Y-13881719D01*
X13740271Y-13881206D01*
X13679294Y-13820228D01*
X13678782Y-13819685D01*
X13674793Y-13815182D01*
X13669843Y-13811765D01*
X13669240Y-13811322D01*
X13664505Y-13807612D01*
X13663581Y-13807196D01*
X13661627Y-13806094D01*
X13660793Y-13805518D01*
X13660793Y-13805518D01*
X13660793Y-13805518D01*
X13655170Y-13803386D01*
X13654478Y-13803099D01*
X13648993Y-13800630D01*
X13647995Y-13800447D01*
X13645834Y-13799845D01*
X13644887Y-13799486D01*
X13638917Y-13798761D01*
X13638177Y-13798648D01*
X13632261Y-13797564D01*
X13626257Y-13797927D01*
X13625508Y-13797950D01*
X13541815Y-13797950D01*
X13537983Y-13797343D01*
X13534526Y-13795582D01*
X13521694Y-13786258D01*
X13503667Y-13778232D01*
X13484366Y-13774130D01*
X13484366Y-13774130D01*
X13464634Y-13774130D01*
X13464634Y-13774130D01*
X13445333Y-13778232D01*
X13445333Y-13778232D01*
X13445333Y-13778232D01*
X13442526Y-13779482D01*
X13427306Y-13786258D01*
X13411343Y-13797856D01*
X13398139Y-13812521D01*
X13388273Y-13829609D01*
X13382175Y-13848376D01*
X13380795Y-13861508D01*
X13380113Y-13868000D01*
X13380680Y-13873393D01*
X13382175Y-13887624D01*
X13388273Y-13906391D01*
X13398139Y-13923479D01*
X13411343Y-13938143D01*
X13427306Y-13949741D01*
X13436320Y-13953754D01*
X13445333Y-13957767D01*
X13445333Y-13957767D01*
X13445333Y-13957768D01*
X13464634Y-13961870D01*
X13464634Y-13961870D01*
X13484366Y-13961870D01*
X13484366Y-13961870D01*
X13503667Y-13957768D01*
X13503667Y-13957767D01*
X13503667Y-13957767D01*
X13521694Y-13949742D01*
X13521694Y-13949741D01*
X13521694Y-13949741D01*
X13534526Y-13940418D01*
X13537983Y-13938657D01*
X13541815Y-13938050D01*
X13593848Y-13938050D01*
X13598593Y-13938994D01*
X13602616Y-13941682D01*
X13618818Y-13957884D01*
X13621506Y-13961907D01*
X13622450Y-13966652D01*
X13622450Y-14123448D01*
X13621098Y-14129078D01*
X13617338Y-14133480D01*
X13611990Y-14135695D01*
X13606218Y-14135241D01*
X13601282Y-14132216D01*
X13566707Y-14097642D01*
X13563682Y-14092705D01*
X13561713Y-14086645D01*
X13560727Y-14083609D01*
X13556366Y-14076056D01*
X13550861Y-14066521D01*
X13537657Y-14051856D01*
X13521694Y-14040258D01*
X13503667Y-14032232D01*
X13484366Y-14028130D01*
X13484366Y-14028130D01*
X13464634Y-14028130D01*
X13464634Y-14028130D01*
X13445333Y-14032232D01*
X13445333Y-14032232D01*
X13445333Y-14032232D01*
X13442526Y-14033482D01*
X13427306Y-14040258D01*
X13411343Y-14051856D01*
X13398139Y-14066521D01*
X13388273Y-14083609D01*
X13382175Y-14102376D01*
X13380113Y-14122000D01*
X13175050Y-14122000D01*
X13175050Y-13286652D01*
X13175994Y-13281907D01*
X13178682Y-13277884D01*
X13302884Y-13153682D01*
X13306907Y-13150994D01*
X13311652Y-13150050D01*
X13445491Y-13150050D01*
X13450986Y-13151334D01*
X13455343Y-13154921D01*
X13457660Y-13160068D01*
X13457455Y-13165708D01*
X13454772Y-13170673D01*
X13453477Y-13172134D01*
X13451218Y-13174684D01*
X13450705Y-13175229D01*
X13426729Y-13199205D01*
X13426184Y-13199718D01*
X13421682Y-13203707D01*
X13418265Y-13208657D01*
X13417821Y-13209260D01*
X13414112Y-13213994D01*
X13413696Y-13214919D01*
X13412594Y-13216872D01*
X13412018Y-13217707D01*
X13409885Y-13223330D01*
X13409599Y-13224022D01*
X13407130Y-13229507D01*
X13406947Y-13230505D01*
X13406345Y-13232665D01*
X13405986Y-13233613D01*
X13405261Y-13239583D01*
X13405148Y-13240323D01*
X13404064Y-13246239D01*
X13404427Y-13252243D01*
X13404450Y-13252992D01*
X13404450Y-13292752D01*
X13403626Y-13297196D01*
X13401265Y-13301049D01*
X13398139Y-13304521D01*
X13388273Y-13321609D01*
X13382175Y-13340376D01*
X13380113Y-13360000D01*
X13382175Y-13379624D01*
X13388273Y-13398391D01*
X13398139Y-13415479D01*
X13411343Y-13430143D01*
X13427306Y-13441741D01*
X13436319Y-13445754D01*
X13445333Y-13449767D01*
X13445333Y-13449767D01*
X13445333Y-13449768D01*
X13464634Y-13453870D01*
X13464634Y-13453870D01*
X13484366Y-13453870D01*
X13484366Y-13453870D01*
X13503667Y-13449768D01*
X13503667Y-13449767D01*
X13503667Y-13449767D01*
X13521694Y-13441742D01*
X13521694Y-13441741D01*
X13521694Y-13441741D01*
X13537657Y-13430143D01*
X13550861Y-13415479D01*
X13552800Y-13412120D01*
X13777029Y-13412120D01*
X13778910Y-13432419D01*
X13784488Y-13452027D01*
X13793575Y-13470275D01*
X13793753Y-13470511D01*
X13793753Y-13470511D01*
X13852145Y-13412120D01*
X13922855Y-13412120D01*
X13981246Y-13470511D01*
X13981425Y-13470275D01*
X13990511Y-13452027D01*
X13996090Y-13432419D01*
X13997971Y-13412120D01*
X13996090Y-13391821D01*
X13990511Y-13372213D01*
X13981425Y-13353965D01*
X13981246Y-13353729D01*
X13981246Y-13353728D01*
X13922855Y-13412120D01*
X13922855Y-13412120D01*
X13852145Y-13412120D01*
X13852145Y-13412120D01*
X13793753Y-13353728D01*
X13793575Y-13353964D01*
X13784488Y-13372213D01*
X13778910Y-13391821D01*
X13777029Y-13412120D01*
X13552800Y-13412120D01*
X13560727Y-13398391D01*
X13560727Y-13398391D01*
X13566824Y-13379624D01*
X13568887Y-13360000D01*
X13566824Y-13340376D01*
X13560727Y-13321609D01*
X13560727Y-13321609D01*
X13554977Y-13311650D01*
X13553316Y-13305450D01*
X13554977Y-13299250D01*
X13559516Y-13294711D01*
X13565716Y-13293050D01*
X13827269Y-13293050D01*
X13833403Y-13294673D01*
X13837931Y-13299118D01*
X13839667Y-13305221D01*
X13838157Y-13311384D01*
X13833797Y-13315993D01*
X13829431Y-13318696D01*
X13887500Y-13376765D01*
X13887500Y-13376765D01*
X13945569Y-13318696D01*
X13945569Y-13318696D01*
X13941203Y-13315993D01*
X13936843Y-13311384D01*
X13935333Y-13305221D01*
X13937069Y-13299118D01*
X13941597Y-13294673D01*
X13947731Y-13293050D01*
X14192800Y-13293050D01*
X14199147Y-13294798D01*
X14203705Y-13299548D01*
X14205189Y-13305962D01*
X14203181Y-13312232D01*
X14198246Y-13316590D01*
X14190431Y-13320410D01*
X14182160Y-13328681D01*
X14177023Y-13339191D01*
X14176030Y-13346004D01*
X14176030Y-13415156D01*
X14177023Y-13421969D01*
X14182160Y-13432478D01*
X14190431Y-13440750D01*
X14190432Y-13440750D01*
X14190432Y-13440750D01*
X14200941Y-13445887D01*
X14203666Y-13446284D01*
X14207754Y-13446880D01*
X14207754Y-13446880D01*
X14339406Y-13446880D01*
X14339406Y-13446880D01*
X14342813Y-13446384D01*
X14346219Y-13445887D01*
X14356728Y-13440750D01*
X14365000Y-13432478D01*
X14369837Y-13422584D01*
X14374411Y-13417511D01*
X14380977Y-13415630D01*
X16226999Y-13415630D01*
X16229543Y-13415894D01*
X16229676Y-13415922D01*
X16230451Y-13416084D01*
X16233056Y-13415759D01*
X16233332Y-13415725D01*
X16234799Y-13415634D01*
X16236721Y-13415313D01*
X16237227Y-13415240D01*
X16242059Y-13414637D01*
X16242059Y-13414637D01*
X16242801Y-13414545D01*
X16243458Y-13414189D01*
X16243458Y-13414189D01*
X16247740Y-13411872D01*
X16248195Y-13411638D01*
X16252568Y-13409500D01*
X16252569Y-13409499D01*
X16253239Y-13409172D01*
X16253745Y-13408622D01*
X16253746Y-13408622D01*
X16257045Y-13405037D01*
X16257396Y-13404672D01*
X16348805Y-13313263D01*
X16350790Y-13311651D01*
X16351567Y-13311144D01*
X16353350Y-13308853D01*
X16354323Y-13307751D01*
X16354337Y-13307731D01*
X16355456Y-13306164D01*
X16355761Y-13305755D01*
X16358752Y-13301913D01*
X16358752Y-13301912D01*
X16359210Y-13301323D01*
X16359424Y-13300607D01*
X16359424Y-13300607D01*
X16360814Y-13295936D01*
X16360967Y-13295458D01*
X16362550Y-13290849D01*
X16362550Y-13290849D01*
X16362792Y-13290142D01*
X16362762Y-13289396D01*
X16362762Y-13289395D01*
X16362560Y-13284533D01*
X16362550Y-13284021D01*
X16362550Y-11829885D01*
X16364338Y-11823470D01*
X16365045Y-11822301D01*
X16371218Y-11812091D01*
X16376279Y-11795849D01*
X16377306Y-11778869D01*
X16374239Y-11762137D01*
X16367258Y-11746624D01*
X16359399Y-11736593D01*
X16349178Y-11726373D01*
X16346737Y-11722907D01*
X16345606Y-11718820D01*
X16344595Y-11708547D01*
X16339160Y-11690630D01*
X16330334Y-11674117D01*
X16318456Y-11659644D01*
X16303982Y-11647766D01*
X16303982Y-11647766D01*
X16287470Y-11638940D01*
X16269553Y-11633505D01*
X16250920Y-11631670D01*
X16232287Y-11633505D01*
X16214370Y-11638940D01*
X16197857Y-11647766D01*
X16183384Y-11659644D01*
X16171506Y-11674117D01*
X16162680Y-11690630D01*
X16157245Y-11708547D01*
X16155410Y-11727180D01*
X16157245Y-11745813D01*
X16162680Y-11763730D01*
X16170772Y-11778869D01*
X16171506Y-11780242D01*
X16183384Y-11794716D01*
X16197857Y-11806594D01*
X16214370Y-11815420D01*
X16232287Y-11820855D01*
X16242560Y-11821866D01*
X16246647Y-11822997D01*
X16250113Y-11825438D01*
X16260333Y-11835659D01*
X16270364Y-11843518D01*
X16271521Y-11844038D01*
X16285139Y-11850167D01*
X16288993Y-11852885D01*
X16291553Y-11856845D01*
X16292450Y-11861475D01*
X16292450Y-13265346D01*
X16291506Y-13270091D01*
X16288818Y-13274114D01*
X16271207Y-13291725D01*
X16265290Y-13295024D01*
X16258523Y-13294722D01*
X16252924Y-13290908D01*
X16250165Y-13284721D01*
X16248516Y-13273254D01*
X16247250Y-13270482D01*
X16242538Y-13260162D01*
X16238079Y-13255017D01*
X16235832Y-13251230D01*
X16235050Y-13246896D01*
X16235050Y-11954921D01*
X16235314Y-11952377D01*
X16235336Y-11952269D01*
X16235504Y-11951468D01*
X16235145Y-11948588D01*
X16235054Y-11947121D01*
X16235050Y-11947097D01*
X16235050Y-11947096D01*
X16234733Y-11945196D01*
X16234659Y-11944692D01*
X16234057Y-11939861D01*
X16234057Y-11939860D01*
X16233965Y-11939119D01*
X16233609Y-11938462D01*
X16233609Y-11938462D01*
X16231292Y-11934181D01*
X16231058Y-11933726D01*
X16228592Y-11928680D01*
X16226234Y-11926510D01*
X16224459Y-11924876D01*
X16224091Y-11924523D01*
X16121182Y-11821614D01*
X16118494Y-11817591D01*
X16117550Y-11812846D01*
X16117550Y-11544654D01*
X16118494Y-11539909D01*
X16121182Y-11535887D01*
X16123614Y-11533454D01*
X16128456Y-11530460D01*
X16134125Y-11529945D01*
X16139426Y-11532017D01*
X16144707Y-11535662D01*
X16160613Y-11541694D01*
X16173263Y-11543230D01*
X16182011Y-11543230D01*
X16186189Y-11543955D01*
X16189878Y-11546045D01*
X16197857Y-11552594D01*
X16214370Y-11561420D01*
X16232287Y-11566855D01*
X16250920Y-11568690D01*
X16269553Y-11566855D01*
X16287470Y-11561420D01*
X16303982Y-11552594D01*
X16318456Y-11540716D01*
X16330334Y-11526242D01*
X16339160Y-11509730D01*
X16344595Y-11491813D01*
X16346430Y-11473180D01*
X16344595Y-11454547D01*
X16339160Y-11436630D01*
X16330334Y-11420117D01*
X16318456Y-11405644D01*
X16303982Y-11393766D01*
X16303982Y-11393766D01*
X16287470Y-11384940D01*
X16269553Y-11379505D01*
X16250920Y-11377670D01*
X16232287Y-11379505D01*
X16214370Y-11384940D01*
X16197857Y-11393766D01*
X16189878Y-11400315D01*
X16186189Y-11402405D01*
X16182011Y-11403130D01*
X16173263Y-11403130D01*
X16166938Y-11403898D01*
X16160613Y-11404666D01*
X16144707Y-11410698D01*
X16130707Y-11420362D01*
X16119427Y-11433094D01*
X16114327Y-11442811D01*
X16112116Y-11445816D01*
X16061195Y-11496736D01*
X16059210Y-11498348D01*
X16058433Y-11498856D01*
X16056650Y-11501147D01*
X16055676Y-11502250D01*
X16054544Y-11503836D01*
X16054239Y-11504244D01*
X16053062Y-11505757D01*
X16050789Y-11508677D01*
X16049187Y-11514058D01*
X16049031Y-11514546D01*
X16047207Y-11519858D01*
X16047439Y-11525467D01*
X16047450Y-11525979D01*
X16047450Y-11827579D01*
X16047186Y-11830123D01*
X16046996Y-11831031D01*
X16047355Y-11833912D01*
X16047446Y-11835379D01*
X16047766Y-11837301D01*
X16047840Y-11837808D01*
X16048535Y-11843381D01*
X16051208Y-11848320D01*
X16051442Y-11848775D01*
X16053580Y-11853148D01*
X16053580Y-11853148D01*
X16053908Y-11853820D01*
X16054458Y-11854326D01*
X16054458Y-11854326D01*
X16056244Y-11855970D01*
X16058040Y-11857623D01*
X16058410Y-11857978D01*
X16161318Y-11960886D01*
X16164006Y-11964909D01*
X16164950Y-11969654D01*
X16164950Y-13246896D01*
X16164168Y-13251230D01*
X16161921Y-13255017D01*
X16157462Y-13260162D01*
X16151483Y-13273254D01*
X16149435Y-13287500D01*
X16151483Y-13301746D01*
X16157462Y-13314837D01*
X16166277Y-13325010D01*
X16169179Y-13331365D01*
X16168185Y-13338281D01*
X16163609Y-13343561D01*
X16156905Y-13345530D01*
X15178472Y-13345530D01*
X15172842Y-13344178D01*
X15168440Y-13340418D01*
X15166224Y-13335070D01*
X15166679Y-13329298D01*
X15169704Y-13324362D01*
X15199392Y-13294673D01*
X15230273Y-13263792D01*
X15230815Y-13263282D01*
X15235318Y-13259293D01*
X15238735Y-13254343D01*
X15239176Y-13253743D01*
X15242888Y-13249006D01*
X15243303Y-13248082D01*
X15244406Y-13246127D01*
X15244982Y-13245293D01*
X15247115Y-13239667D01*
X15247400Y-13238980D01*
X15249869Y-13233493D01*
X15250052Y-13232497D01*
X15250654Y-13230335D01*
X15251014Y-13229387D01*
X15251739Y-13223416D01*
X15251852Y-13222676D01*
X15252396Y-13219707D01*
X15252936Y-13216761D01*
X15252573Y-13210758D01*
X15252550Y-13210009D01*
X15252550Y-13141260D01*
X15570000Y-13141260D01*
X15570000Y-13173542D01*
X15570640Y-13179497D01*
X15575665Y-13192969D01*
X15584281Y-13204479D01*
X15595791Y-13213095D01*
X15609262Y-13218120D01*
X15615218Y-13218760D01*
X15670000Y-13218760D01*
X15670000Y-13141260D01*
X15720000Y-13141260D01*
X15720000Y-13218760D01*
X15774782Y-13218760D01*
X15780737Y-13218120D01*
X15794209Y-13213095D01*
X15805719Y-13204479D01*
X15814335Y-13192969D01*
X15819360Y-13179497D01*
X15820000Y-13173542D01*
X15820000Y-13141260D01*
X15720000Y-13141260D01*
X15670000Y-13141260D01*
X15570000Y-13141260D01*
X15252550Y-13141260D01*
X15252550Y-13059295D01*
X15252550Y-13059294D01*
X15252550Y-13003770D01*
X15251967Y-13000839D01*
X15249746Y-12997514D01*
X15246421Y-12995293D01*
X15243490Y-12994710D01*
X15243490Y-12994710D01*
X15191006Y-12994710D01*
X15191006Y-12994710D01*
X15173994Y-12994710D01*
X15173994Y-12994710D01*
X15121510Y-12994710D01*
X15118579Y-12995293D01*
X15115254Y-12997514D01*
X15113033Y-13000839D01*
X15112450Y-13003770D01*
X15112450Y-13178348D01*
X15111506Y-13183093D01*
X15108818Y-13187116D01*
X15089616Y-13206318D01*
X15085593Y-13209006D01*
X15080848Y-13209950D01*
X14858048Y-13209950D01*
X14851468Y-13208061D01*
X14846894Y-13202968D01*
X14845719Y-13196225D01*
X14846250Y-13191282D01*
X14846250Y-13159000D01*
X14596250Y-13159000D01*
X14596250Y-13191282D01*
X14596781Y-13196225D01*
X14595606Y-13202968D01*
X14591032Y-13208061D01*
X14584452Y-13209950D01*
X14544152Y-13209950D01*
X14539407Y-13209006D01*
X14535384Y-13206318D01*
X14504294Y-13175228D01*
X14503782Y-13174685D01*
X14499793Y-13170182D01*
X14494843Y-13166765D01*
X14494240Y-13166322D01*
X14489505Y-13162612D01*
X14488581Y-13162196D01*
X14486627Y-13161094D01*
X14485793Y-13160518D01*
X14485793Y-13160518D01*
X14485793Y-13160518D01*
X14480170Y-13158386D01*
X14479478Y-13158099D01*
X14473993Y-13155630D01*
X14472995Y-13155447D01*
X14470834Y-13154845D01*
X14469887Y-13154486D01*
X14463917Y-13153761D01*
X14463177Y-13153648D01*
X14457261Y-13152564D01*
X14451257Y-13152927D01*
X14450508Y-13152950D01*
X14294950Y-13152950D01*
X14288750Y-13151289D01*
X14284211Y-13146750D01*
X14282550Y-13140550D01*
X14282550Y-13069482D01*
X14282550Y-13069482D01*
X14282550Y-13019010D01*
X14281967Y-13016079D01*
X14279969Y-13013089D01*
X14279746Y-13012754D01*
X14279715Y-13012734D01*
X14276421Y-13010533D01*
X14273490Y-13009950D01*
X14273490Y-13009950D01*
X14216737Y-13009950D01*
X14216737Y-13009950D01*
X13276006Y-13009950D01*
X13258994Y-13009950D01*
X13255578Y-13010792D01*
X13254106Y-13011062D01*
X13250613Y-13011486D01*
X13247323Y-13012734D01*
X13245894Y-13013179D01*
X13242477Y-13014021D01*
X13239361Y-13015656D01*
X13237997Y-13016270D01*
X13234707Y-13017518D01*
X13231811Y-13019517D01*
X13230530Y-13020291D01*
X13227415Y-13021926D01*
X13224781Y-13024260D01*
X13223603Y-13025183D01*
X13220707Y-13027182D01*
X13218374Y-13029815D01*
X13217315Y-13030874D01*
X13214682Y-13033207D01*
X13212683Y-13036103D01*
X13211760Y-13037281D01*
X13209426Y-13039915D01*
X13207791Y-13043030D01*
X13207017Y-13044311D01*
X13205018Y-13047207D01*
X13203770Y-13050497D01*
X13203156Y-13051861D01*
X13200821Y-13056310D01*
X13200588Y-13056188D01*
X13198443Y-13059991D01*
X13057229Y-13201205D01*
X13056684Y-13201718D01*
X13052182Y-13205707D01*
X13048765Y-13210657D01*
X13048321Y-13211260D01*
X13044612Y-13215994D01*
X13044196Y-13216919D01*
X13043094Y-13218872D01*
X13042518Y-13219707D01*
X13040385Y-13225330D01*
X13040099Y-13226022D01*
X13037630Y-13231507D01*
X13037447Y-13232505D01*
X13036845Y-13234665D01*
X13036486Y-13235613D01*
X13035761Y-13241583D01*
X13035648Y-13242323D01*
X13034564Y-13248239D01*
X12786197Y-13248239D01*
X12779665Y-13243666D01*
X12758444Y-13233770D01*
X12735826Y-13227709D01*
X12712500Y-13225669D01*
X12689174Y-13227709D01*
X12666556Y-13233770D01*
X12645334Y-13243666D01*
X12637210Y-13249354D01*
X12637210Y-13249355D01*
X12497000Y-13249355D01*
X12497000Y-12832500D01*
X12550000Y-12832500D01*
X12550000Y-12952282D01*
X12550640Y-12958237D01*
X12555665Y-12971709D01*
X12564281Y-12983219D01*
X12575791Y-12991835D01*
X12589262Y-12996860D01*
X12595218Y-12997500D01*
X12685000Y-12997500D01*
X12685000Y-12832500D01*
X12735000Y-12832500D01*
X12735000Y-12997500D01*
X12824782Y-12997500D01*
X12830737Y-12996860D01*
X12844209Y-12991835D01*
X12855719Y-12983219D01*
X12864335Y-12971709D01*
X12869360Y-12958237D01*
X12870000Y-12952282D01*
X12870000Y-12948490D01*
X13499950Y-12948490D01*
X13500533Y-12951421D01*
X13500907Y-12951980D01*
X13502754Y-12954746D01*
X13506079Y-12956967D01*
X13509010Y-12957550D01*
X13790990Y-12957550D01*
X13790990Y-12957550D01*
X13792898Y-12957170D01*
X13793921Y-12956967D01*
X13797246Y-12954746D01*
X13797246Y-12954745D01*
X13798596Y-12953844D01*
X13801166Y-12951514D01*
X13807011Y-12950050D01*
X14203994Y-12950050D01*
X14208263Y-12950050D01*
X14216737Y-12950050D01*
X14221006Y-12950050D01*
X14638332Y-12950050D01*
X14644976Y-12951980D01*
X14649552Y-12957170D01*
X14650634Y-12964004D01*
X14647887Y-12970354D01*
X14645518Y-12973218D01*
X14638789Y-12987517D01*
X14635827Y-13003041D01*
X14636819Y-13018814D01*
X14636869Y-13018967D01*
X14637240Y-13025203D01*
X14634524Y-13030829D01*
X14629409Y-13034416D01*
X14622041Y-13037165D01*
X14610531Y-13045781D01*
X14601915Y-13057291D01*
X14596890Y-13070762D01*
X14596250Y-13076718D01*
X14596250Y-13109000D01*
X14846250Y-13109000D01*
X14846250Y-13076718D01*
X14845610Y-13070762D01*
X14840585Y-13057291D01*
X14831969Y-13045781D01*
X14820459Y-13037165D01*
X14812730Y-13034282D01*
X14807960Y-13031083D01*
X14805143Y-13026078D01*
X14804883Y-13020340D01*
X14805058Y-13019425D01*
X14806673Y-13010959D01*
X14805680Y-12995186D01*
X14800797Y-12980156D01*
X14792329Y-12966812D01*
X14780808Y-12955994D01*
X14777871Y-12954379D01*
X14773375Y-12950157D01*
X14771469Y-12944291D01*
X14772625Y-12938233D01*
X14776556Y-12933481D01*
X14786909Y-12925959D01*
X14793842Y-12917578D01*
X14796982Y-12913782D01*
X14803711Y-12899483D01*
X14806673Y-12883959D01*
X14805680Y-12868186D01*
X14800797Y-12853156D01*
X14792329Y-12839812D01*
X14780808Y-12828994D01*
X14780808Y-12828994D01*
X14766959Y-12821380D01*
X14757443Y-12818937D01*
X14755458Y-12818032D01*
X14755451Y-12818052D01*
X14738137Y-12811486D01*
X14729704Y-12810462D01*
X14725487Y-12809950D01*
X14725487Y-12809950D01*
X13812450Y-12809950D01*
X13806250Y-12808289D01*
X13801711Y-12803750D01*
X13800050Y-12797550D01*
X13800050Y-12666510D01*
X13799467Y-12663579D01*
X13799467Y-12663579D01*
X13797246Y-12660254D01*
X13793921Y-12658033D01*
X13793921Y-12658033D01*
X13790990Y-12657450D01*
X13509010Y-12657450D01*
X13506079Y-12658033D01*
X13502754Y-12660254D01*
X13500533Y-12663579D01*
X13499950Y-12666510D01*
X13499950Y-12948490D01*
X12870000Y-12948490D01*
X12870000Y-12832500D01*
X12735000Y-12832500D01*
X12685000Y-12832500D01*
X12550000Y-12832500D01*
X12497000Y-12832500D01*
X12497000Y-12782500D01*
X12550000Y-12782500D01*
X12685000Y-12782500D01*
X12685000Y-12617500D01*
X12735000Y-12617500D01*
X12735000Y-12782500D01*
X12870000Y-12782500D01*
X12870000Y-12662718D01*
X12869360Y-12656762D01*
X12864335Y-12643291D01*
X12855719Y-12631781D01*
X12844209Y-12623165D01*
X12830737Y-12618140D01*
X12824782Y-12617500D01*
X12735000Y-12617500D01*
X12685000Y-12617500D01*
X12595218Y-12617500D01*
X12589262Y-12618140D01*
X12575791Y-12623165D01*
X12564281Y-12631781D01*
X12555665Y-12643291D01*
X12550640Y-12656762D01*
X12550000Y-12662718D01*
X12550000Y-12782500D01*
X12497000Y-12782500D01*
X12497000Y-12432240D01*
X12709575Y-12432240D01*
X12710575Y-12453233D01*
X12715530Y-12473658D01*
X12724260Y-12492775D01*
X12735284Y-12508257D01*
X12736451Y-12509895D01*
X12751662Y-12524399D01*
X12758896Y-12529048D01*
X12769342Y-12535761D01*
X12773258Y-12537329D01*
X12788854Y-12543572D01*
X12801723Y-12546053D01*
X12809491Y-12547550D01*
X12809491Y-12547550D01*
X12825242Y-12547550D01*
X12825242Y-12547550D01*
X12840922Y-12546053D01*
X12861087Y-12540132D01*
X12879768Y-12530501D01*
X12896289Y-12517509D01*
X12910052Y-12501626D01*
X12920560Y-12483424D01*
X12927434Y-12463563D01*
X12930425Y-12442760D01*
X12929924Y-12432240D01*
X13409575Y-12432240D01*
X13410575Y-12453233D01*
X13415530Y-12473658D01*
X13424260Y-12492775D01*
X13435284Y-12508257D01*
X13436451Y-12509895D01*
X13451662Y-12524399D01*
X13458896Y-12529048D01*
X13469342Y-12535761D01*
X13473258Y-12537329D01*
X13488854Y-12543572D01*
X13501723Y-12546053D01*
X13509491Y-12547550D01*
X13509491Y-12547550D01*
X13525242Y-12547550D01*
X13525242Y-12547550D01*
X13540922Y-12546053D01*
X13561087Y-12540132D01*
X13579768Y-12530501D01*
X13596289Y-12517509D01*
X13610052Y-12501626D01*
X13620560Y-12483424D01*
X13627434Y-12463563D01*
X13630425Y-12442760D01*
X13629425Y-12421767D01*
X13624470Y-12401342D01*
X13624470Y-12401342D01*
X13615740Y-12382225D01*
X13603549Y-12365105D01*
X13603549Y-12365105D01*
X13588338Y-12350601D01*
X13585126Y-12348537D01*
X13570657Y-12339239D01*
X13555061Y-12332995D01*
X13551146Y-12331427D01*
X13551146Y-12331427D01*
X13551145Y-12331427D01*
X13530509Y-12327450D01*
X13530508Y-12327450D01*
X13514757Y-12327450D01*
X13504958Y-12328386D01*
X13499078Y-12328947D01*
X13478913Y-12334868D01*
X13460231Y-12344499D01*
X13443711Y-12357491D01*
X13429948Y-12373374D01*
X13419440Y-12391575D01*
X13412565Y-12411437D01*
X13409575Y-12432240D01*
X12929924Y-12432240D01*
X12929425Y-12421767D01*
X12924470Y-12401342D01*
X12924470Y-12401342D01*
X12915740Y-12382225D01*
X12903549Y-12365105D01*
X12903549Y-12365105D01*
X12888338Y-12350601D01*
X12885126Y-12348537D01*
X12870657Y-12339239D01*
X12855061Y-12332995D01*
X12851146Y-12331427D01*
X12851146Y-12331427D01*
X12851145Y-12331427D01*
X12830509Y-12327450D01*
X12830508Y-12327450D01*
X12814757Y-12327450D01*
X12804958Y-12328386D01*
X12799078Y-12328947D01*
X12778913Y-12334868D01*
X12760231Y-12344499D01*
X12743711Y-12357491D01*
X12729948Y-12373374D01*
X12719440Y-12391575D01*
X12712565Y-12411437D01*
X12709575Y-12432240D01*
X12497000Y-12432240D01*
X12497000Y-12208490D01*
X12789950Y-12208490D01*
X12790533Y-12211421D01*
X12791084Y-12212246D01*
X12792754Y-12214746D01*
X12796079Y-12216967D01*
X12799010Y-12217550D01*
X13020990Y-12217550D01*
X13020990Y-12217550D01*
X13022455Y-12217258D01*
X13023921Y-12216967D01*
X13027246Y-12214746D01*
X13029467Y-12211421D01*
X13030050Y-12208490D01*
X13030050Y-12167450D01*
X13031711Y-12161250D01*
X13036250Y-12156711D01*
X13042450Y-12155050D01*
X13545848Y-12155050D01*
X13550593Y-12155994D01*
X13554616Y-12158682D01*
X13995396Y-12599462D01*
X13996389Y-12600583D01*
X14000822Y-12606241D01*
X14001265Y-12606844D01*
X14004470Y-12611486D01*
X14004682Y-12611793D01*
X14009185Y-12615782D01*
X14009728Y-12616294D01*
X14121205Y-12727771D01*
X14121717Y-12728314D01*
X14125707Y-12732818D01*
X14130657Y-12736235D01*
X14131260Y-12736679D01*
X14135994Y-12740388D01*
X14136918Y-12740804D01*
X14138872Y-12741905D01*
X14139707Y-12742482D01*
X14145333Y-12744615D01*
X14146022Y-12744901D01*
X14151507Y-12747369D01*
X14152504Y-12747552D01*
X14154666Y-12748155D01*
X14155613Y-12748514D01*
X14161584Y-12749239D01*
X14162318Y-12749351D01*
X14168239Y-12750436D01*
X14173910Y-12750093D01*
X14174243Y-12750073D01*
X14174992Y-12750050D01*
X14768348Y-12750050D01*
X14773093Y-12750994D01*
X14777116Y-12753682D01*
X14935966Y-12912531D01*
X14936478Y-12913075D01*
X14940467Y-12917578D01*
X14945418Y-12920995D01*
X14946020Y-12921438D01*
X14950754Y-12925148D01*
X14950754Y-12925148D01*
X14950754Y-12925148D01*
X14951678Y-12925564D01*
X14953633Y-12926666D01*
X14954467Y-12927242D01*
X14960092Y-12929375D01*
X14960782Y-12929661D01*
X14966267Y-12932129D01*
X14967263Y-12932312D01*
X14969425Y-12932915D01*
X14970373Y-12933274D01*
X14976344Y-12933999D01*
X14977078Y-12934111D01*
X14982999Y-12935196D01*
X14988670Y-12934853D01*
X14989003Y-12934833D01*
X14989752Y-12934810D01*
X15173994Y-12934810D01*
X15178263Y-12934810D01*
X15186737Y-12934810D01*
X15191006Y-12934810D01*
X15610014Y-12934810D01*
X15616658Y-12936740D01*
X15621234Y-12941930D01*
X15622316Y-12948764D01*
X15619568Y-12955114D01*
X15619268Y-12955477D01*
X15612539Y-12969777D01*
X15609577Y-12985301D01*
X15610569Y-13001074D01*
X15610619Y-13001227D01*
X15610990Y-13007463D01*
X15608274Y-13013089D01*
X15603159Y-13016676D01*
X15595791Y-13019425D01*
X15584281Y-13028041D01*
X15575665Y-13039551D01*
X15570640Y-13053022D01*
X15570000Y-13058978D01*
X15570000Y-13091260D01*
X15820000Y-13091260D01*
X15820000Y-13058978D01*
X15819360Y-13053022D01*
X15814335Y-13039551D01*
X15805719Y-13028041D01*
X15794209Y-13019425D01*
X15786480Y-13016542D01*
X15781710Y-13013343D01*
X15778893Y-13008338D01*
X15778633Y-13002600D01*
X15780423Y-12993219D01*
X15779430Y-12977446D01*
X15779430Y-12977446D01*
X15774547Y-12962416D01*
X15766079Y-12949072D01*
X15754558Y-12938254D01*
X15751621Y-12936639D01*
X15747125Y-12932417D01*
X15745219Y-12926551D01*
X15746375Y-12920493D01*
X15750306Y-12915741D01*
X15760659Y-12908219D01*
X15760659Y-12908219D01*
X15770732Y-12896042D01*
X15777461Y-12881743D01*
X15780423Y-12866219D01*
X15779430Y-12850446D01*
X15774547Y-12835416D01*
X15766079Y-12822072D01*
X15754558Y-12811254D01*
X15754558Y-12811254D01*
X15740709Y-12803640D01*
X15729834Y-12800848D01*
X15726503Y-12799449D01*
X15723961Y-12797912D01*
X15713032Y-12794507D01*
X15707719Y-12792851D01*
X15692793Y-12791948D01*
X15690739Y-12791824D01*
X15690739Y-12791824D01*
X15676101Y-12794507D01*
X15673865Y-12794710D01*
X15191006Y-12794710D01*
X15186737Y-12794710D01*
X15021412Y-12794710D01*
X15016667Y-12793766D01*
X15012644Y-12791078D01*
X14853794Y-12632228D01*
X14853282Y-12631685D01*
X14849293Y-12627182D01*
X14844343Y-12623765D01*
X14843740Y-12623322D01*
X14839005Y-12619612D01*
X14838081Y-12619196D01*
X14836127Y-12618094D01*
X14835293Y-12617518D01*
X14835293Y-12617518D01*
X14835293Y-12617518D01*
X14829670Y-12615386D01*
X14828978Y-12615099D01*
X14823493Y-12612630D01*
X14822495Y-12612447D01*
X14820334Y-12611845D01*
X14819387Y-12611486D01*
X14813417Y-12610761D01*
X14812677Y-12610648D01*
X14806761Y-12609564D01*
X14800757Y-12609927D01*
X14800008Y-12609950D01*
X14206652Y-12609950D01*
X14201906Y-12609006D01*
X14197884Y-12606318D01*
X14119604Y-12528038D01*
X14118611Y-12526917D01*
X14117888Y-12525994D01*
X14114178Y-12521259D01*
X14113735Y-12520657D01*
X14110318Y-12515707D01*
X14110318Y-12515707D01*
X14105815Y-12511718D01*
X14105271Y-12511206D01*
X13800056Y-12205990D01*
X14896950Y-12205990D01*
X14897533Y-12208921D01*
X14897533Y-12208921D01*
X14899754Y-12212246D01*
X14903079Y-12214467D01*
X14906010Y-12215050D01*
X15077990Y-12215050D01*
X15077990Y-12215050D01*
X15079520Y-12214746D01*
X15080921Y-12214467D01*
X15084246Y-12212246D01*
X15086467Y-12208921D01*
X15087050Y-12205990D01*
X15087050Y-12136151D01*
X15088622Y-12130108D01*
X15092940Y-12125597D01*
X15098909Y-12123763D01*
X15105015Y-12125070D01*
X15109710Y-12129187D01*
X15111803Y-12135070D01*
X15112543Y-12143532D01*
X15118657Y-12166349D01*
X15128640Y-12187758D01*
X15142189Y-12207108D01*
X15158892Y-12223811D01*
X15178242Y-12237360D01*
X15199651Y-12247343D01*
X15221000Y-12253063D01*
X15221000Y-12253064D01*
X15221000Y-12145000D01*
X15271000Y-12145000D01*
X15271000Y-12253063D01*
X15292349Y-12247343D01*
X15313758Y-12237360D01*
X15333108Y-12223811D01*
X15349811Y-12207108D01*
X15363360Y-12187758D01*
X15373343Y-12166349D01*
X15379064Y-12145000D01*
X15271000Y-12145000D01*
X15221000Y-12145000D01*
X15221000Y-12120000D01*
X15404490Y-12120000D01*
X15406325Y-12138633D01*
X15411760Y-12156550D01*
X15417586Y-12167450D01*
X15420586Y-12173062D01*
X15432464Y-12187536D01*
X15446937Y-12199414D01*
X15463450Y-12208240D01*
X15481367Y-12213675D01*
X15500000Y-12215510D01*
X15518633Y-12213675D01*
X15536550Y-12208240D01*
X15553062Y-12199414D01*
X15567536Y-12187536D01*
X15579414Y-12173062D01*
X15588240Y-12156550D01*
X15593675Y-12138633D01*
X15595510Y-12120000D01*
X15593675Y-12101367D01*
X15588240Y-12083450D01*
X15579414Y-12066937D01*
X15567536Y-12052464D01*
X15553062Y-12040586D01*
X15553062Y-12040586D01*
X15536550Y-12031760D01*
X15518633Y-12026325D01*
X15500000Y-12024490D01*
X15481367Y-12026325D01*
X15463450Y-12031760D01*
X15446937Y-12040586D01*
X15432464Y-12052464D01*
X15420586Y-12066937D01*
X15411760Y-12083450D01*
X15406325Y-12101367D01*
X15404490Y-12120000D01*
X15221000Y-12120000D01*
X15221000Y-11986936D01*
X15271000Y-11986936D01*
X15271000Y-12095000D01*
X15379064Y-12095000D01*
X15379063Y-12095000D01*
X15373343Y-12073651D01*
X15363360Y-12052242D01*
X15349811Y-12032892D01*
X15333108Y-12016189D01*
X15313758Y-12002640D01*
X15292349Y-11992657D01*
X15271000Y-11986936D01*
X15221000Y-11986936D01*
X15221000Y-11986936D01*
X15199651Y-11992657D01*
X15178242Y-12002640D01*
X15158892Y-12016189D01*
X15142189Y-12032892D01*
X15128640Y-12052242D01*
X15118657Y-12073651D01*
X15112543Y-12096468D01*
X15111803Y-12104930D01*
X15109710Y-12110813D01*
X15105015Y-12114930D01*
X15098909Y-12116237D01*
X15092940Y-12114403D01*
X15088622Y-12109892D01*
X15087050Y-12103849D01*
X15087050Y-12034010D01*
X15086467Y-12031079D01*
X15084246Y-12027754D01*
X15080921Y-12025533D01*
X15080921Y-12025533D01*
X15077990Y-12024950D01*
X14906010Y-12024950D01*
X14903079Y-12025533D01*
X14899754Y-12027754D01*
X14897533Y-12031079D01*
X14896950Y-12034010D01*
X14896950Y-12205990D01*
X13800056Y-12205990D01*
X13631294Y-12037228D01*
X13630782Y-12036685D01*
X13626793Y-12032182D01*
X13621843Y-12028765D01*
X13621240Y-12028322D01*
X13616937Y-12024950D01*
X13616506Y-12024612D01*
X13616505Y-12024612D01*
X13616505Y-12024612D01*
X13615581Y-12024196D01*
X13613627Y-12023094D01*
X13612793Y-12022518D01*
X13612793Y-12022518D01*
X13612793Y-12022518D01*
X13607170Y-12020386D01*
X13606478Y-12020099D01*
X13600993Y-12017630D01*
X13599995Y-12017447D01*
X13597834Y-12016845D01*
X13596887Y-12016486D01*
X13590917Y-12015761D01*
X13590177Y-12015648D01*
X13584261Y-12014564D01*
X13578257Y-12014927D01*
X13577508Y-12014950D01*
X13042450Y-12014950D01*
X13036250Y-12013289D01*
X13031711Y-12008750D01*
X13030050Y-12002550D01*
X13030050Y-11926510D01*
X13029467Y-11923579D01*
X13027246Y-11920254D01*
X13023921Y-11918033D01*
X13020990Y-11917450D01*
X12799010Y-11917450D01*
X12796079Y-11918033D01*
X12792754Y-11920254D01*
X12790533Y-11923579D01*
X12789950Y-11926510D01*
X12789950Y-12208490D01*
X12497000Y-12208490D01*
X12497000Y-11502113D01*
X12934231Y-11502113D01*
X12934630Y-11518886D01*
X12934731Y-11523124D01*
X12934922Y-11524000D01*
X12935167Y-11525125D01*
X12935450Y-11527761D01*
X12935450Y-11756742D01*
X12936519Y-11767942D01*
X12936947Y-11772422D01*
X12942868Y-11792587D01*
X12952499Y-11811268D01*
X12965326Y-11827579D01*
X12965491Y-11827789D01*
X12968185Y-11830123D01*
X12981374Y-11841552D01*
X12998958Y-11851704D01*
X12999576Y-11852060D01*
X13008924Y-11855296D01*
X13019437Y-11858934D01*
X13022930Y-11859437D01*
X13040240Y-11861925D01*
X13061233Y-11860925D01*
X13081658Y-11855970D01*
X13093637Y-11850499D01*
X13100775Y-11847240D01*
X13107235Y-11842639D01*
X13117895Y-11835049D01*
X13132399Y-11819838D01*
X13143761Y-11802157D01*
X13151572Y-11782646D01*
X13152757Y-11776500D01*
X13677500Y-11776500D01*
X13677500Y-11836282D01*
X13678140Y-11842237D01*
X13683165Y-11855709D01*
X13691781Y-11867219D01*
X13703291Y-11875835D01*
X13716762Y-11880860D01*
X13722718Y-11881500D01*
X13782500Y-11881500D01*
X13782500Y-11776500D01*
X13832500Y-11776500D01*
X13832500Y-11881500D01*
X13892282Y-11881500D01*
X13898237Y-11880860D01*
X13911709Y-11875835D01*
X13923219Y-11867219D01*
X13931835Y-11855709D01*
X13936860Y-11842237D01*
X13937500Y-11836282D01*
X13937500Y-11776500D01*
X13832500Y-11776500D01*
X13782500Y-11776500D01*
X13677500Y-11776500D01*
X13152757Y-11776500D01*
X13155550Y-11762008D01*
X13155550Y-11726500D01*
X13677500Y-11726500D01*
X13782500Y-11726500D01*
X13782500Y-11631693D01*
X13782444Y-11631609D01*
X13781500Y-11626864D01*
X13781500Y-11524000D01*
X13831500Y-11524000D01*
X13831500Y-11618807D01*
X13831556Y-11618891D01*
X13832500Y-11623636D01*
X13832500Y-11726500D01*
X13937500Y-11726500D01*
X13937680Y-11726320D01*
X13942114Y-11723470D01*
X13947332Y-11722720D01*
X13952390Y-11724205D01*
X13956375Y-11727657D01*
X13964281Y-11738219D01*
X13975791Y-11746835D01*
X13989262Y-11751860D01*
X13995218Y-11752500D01*
X14025000Y-11752500D01*
X14025000Y-11677500D01*
X14075000Y-11677500D01*
X14075000Y-11752500D01*
X14104782Y-11752500D01*
X14110737Y-11751860D01*
X14113713Y-11750750D01*
X14937450Y-11750750D01*
X14938033Y-11753681D01*
X14938033Y-11753681D01*
X14940254Y-11757006D01*
X14943579Y-11759227D01*
X14946510Y-11759810D01*
X15068490Y-11759810D01*
X15068490Y-11759810D01*
X15069955Y-11759518D01*
X15071421Y-11759227D01*
X15074746Y-11757006D01*
X15076967Y-11753681D01*
X15077550Y-11750750D01*
X15077550Y-11682934D01*
X15413317Y-11682934D01*
X15416188Y-11694274D01*
X15416188Y-11694274D01*
X15416453Y-11695321D01*
X15416935Y-11696359D01*
X15417450Y-11699897D01*
X15417450Y-11740990D01*
X15418033Y-11743921D01*
X15418033Y-11743921D01*
X15420254Y-11747246D01*
X15423579Y-11749467D01*
X15426510Y-11750050D01*
X15548490Y-11750050D01*
X15548490Y-11750050D01*
X15549955Y-11749758D01*
X15551421Y-11749467D01*
X15554746Y-11747246D01*
X15556967Y-11743921D01*
X15557550Y-11740990D01*
X15557550Y-11619010D01*
X15557550Y-11619010D01*
X15556967Y-11616079D01*
X15554746Y-11612754D01*
X15551421Y-11610533D01*
X15548490Y-11609950D01*
X15426510Y-11609950D01*
X15423579Y-11610533D01*
X15420254Y-11612754D01*
X15418033Y-11616079D01*
X15417450Y-11619010D01*
X15417450Y-11661456D01*
X15416406Y-11666437D01*
X15414283Y-11671276D01*
X15414283Y-11671277D01*
X15414283Y-11671277D01*
X15413317Y-11682934D01*
X15077550Y-11682934D01*
X15077550Y-11628770D01*
X15077550Y-11628770D01*
X15076967Y-11625839D01*
X15074746Y-11622514D01*
X15071421Y-11620293D01*
X15068490Y-11619710D01*
X14946510Y-11619710D01*
X14943579Y-11620293D01*
X14940254Y-11622514D01*
X14938033Y-11625839D01*
X14937450Y-11628770D01*
X14937450Y-11750750D01*
X14113713Y-11750750D01*
X14124209Y-11746835D01*
X14135719Y-11738219D01*
X14144335Y-11726709D01*
X14149360Y-11713237D01*
X14150000Y-11707282D01*
X14150000Y-11677500D01*
X14075000Y-11677500D01*
X14025000Y-11677500D01*
X14025000Y-11675000D01*
X14590000Y-11675000D01*
X14590000Y-11704782D01*
X14590640Y-11710737D01*
X14595665Y-11724209D01*
X14604281Y-11735719D01*
X14615791Y-11744335D01*
X14629262Y-11749360D01*
X14635218Y-11750000D01*
X14665000Y-11750000D01*
X14665000Y-11675000D01*
X14715000Y-11675000D01*
X14715000Y-11750000D01*
X14744782Y-11750000D01*
X14750737Y-11749360D01*
X14764209Y-11744335D01*
X14775719Y-11735719D01*
X14784335Y-11724209D01*
X14789360Y-11710737D01*
X14790000Y-11704782D01*
X14790000Y-11675000D01*
X14715000Y-11675000D01*
X14665000Y-11675000D01*
X14590000Y-11675000D01*
X14025000Y-11675000D01*
X14025000Y-11552500D01*
X14075000Y-11552500D01*
X14075000Y-11627500D01*
X14150000Y-11627500D01*
X14150000Y-11625000D01*
X14590000Y-11625000D01*
X14665000Y-11625000D01*
X14665000Y-11550000D01*
X14715000Y-11550000D01*
X14715000Y-11625000D01*
X14790000Y-11625000D01*
X14790000Y-11595218D01*
X14789360Y-11589262D01*
X14784335Y-11575791D01*
X14775719Y-11564281D01*
X14764209Y-11555665D01*
X14750737Y-11550640D01*
X14744782Y-11550000D01*
X14715000Y-11550000D01*
X14665000Y-11550000D01*
X14635218Y-11550000D01*
X14629262Y-11550640D01*
X14615791Y-11555665D01*
X14604281Y-11564281D01*
X14595665Y-11575791D01*
X14590640Y-11589262D01*
X14590000Y-11595218D01*
X14590000Y-11625000D01*
X14150000Y-11625000D01*
X14150000Y-11597718D01*
X14149360Y-11591762D01*
X14144335Y-11578291D01*
X14135719Y-11566781D01*
X14124209Y-11558165D01*
X14110737Y-11553140D01*
X14104782Y-11552500D01*
X14075000Y-11552500D01*
X14025000Y-11552500D01*
X13995218Y-11552500D01*
X13989262Y-11553140D01*
X13975791Y-11558165D01*
X13964281Y-11566781D01*
X13955665Y-11578291D01*
X13950640Y-11591762D01*
X13950000Y-11597718D01*
X13950000Y-11634300D01*
X13948483Y-11640243D01*
X13944304Y-11644732D01*
X13938485Y-11646669D01*
X13932449Y-11645580D01*
X13927673Y-11641731D01*
X13923219Y-11635781D01*
X13911709Y-11627165D01*
X13898237Y-11622140D01*
X13895592Y-11621856D01*
X13890000Y-11619818D01*
X13886002Y-11615409D01*
X13884519Y-11609644D01*
X13885892Y-11603853D01*
X13889806Y-11599369D01*
X13890382Y-11598966D01*
X13906466Y-11582882D01*
X13919513Y-11564248D01*
X13929127Y-11543633D01*
X13934387Y-11524000D01*
X13831500Y-11524000D01*
X13781500Y-11524000D01*
X13678613Y-11524000D01*
X13683873Y-11543633D01*
X13693486Y-11564248D01*
X13706534Y-11582882D01*
X13722618Y-11598966D01*
X13723460Y-11599556D01*
X13727374Y-11604040D01*
X13728747Y-11609831D01*
X13727264Y-11615595D01*
X13723266Y-11620004D01*
X13717674Y-11622042D01*
X13716763Y-11622140D01*
X13703291Y-11627165D01*
X13691781Y-11635781D01*
X13683165Y-11647291D01*
X13678140Y-11660762D01*
X13677500Y-11666718D01*
X13677500Y-11726500D01*
X13155550Y-11726500D01*
X13155550Y-11521224D01*
X13155722Y-11519167D01*
X13155769Y-11518886D01*
X13155553Y-11509839D01*
X13155550Y-11509543D01*
X13155550Y-11505758D01*
X13155550Y-11505757D01*
X13155467Y-11504890D01*
X13155415Y-11504010D01*
X13155269Y-11497875D01*
X13154585Y-11494734D01*
X13154358Y-11493279D01*
X13154053Y-11490078D01*
X13153959Y-11489760D01*
X14936935Y-11489760D01*
X14938986Y-11506647D01*
X14945018Y-11522553D01*
X14954681Y-11536553D01*
X14954682Y-11536553D01*
X14954682Y-11536553D01*
X14967415Y-11547833D01*
X14982477Y-11555739D01*
X14998994Y-11559810D01*
X15016005Y-11559810D01*
X15016006Y-11559810D01*
X15032522Y-11555739D01*
X15047585Y-11547833D01*
X15060318Y-11536553D01*
X15069982Y-11522553D01*
X15076014Y-11506647D01*
X15078064Y-11489760D01*
X15076879Y-11480000D01*
X15416935Y-11480000D01*
X15418986Y-11496887D01*
X15425018Y-11512793D01*
X15434681Y-11526793D01*
X15434682Y-11526793D01*
X15434682Y-11526793D01*
X15447415Y-11538073D01*
X15462477Y-11545979D01*
X15478994Y-11550050D01*
X15496005Y-11550050D01*
X15496006Y-11550050D01*
X15512522Y-11545979D01*
X15527585Y-11538073D01*
X15540318Y-11526793D01*
X15549982Y-11512793D01*
X15556014Y-11496887D01*
X15558064Y-11480000D01*
X15556014Y-11463113D01*
X15549982Y-11447207D01*
X15540318Y-11433207D01*
X15527585Y-11421927D01*
X15520123Y-11418010D01*
X15512522Y-11414021D01*
X15499041Y-11410698D01*
X15496006Y-11409950D01*
X15478994Y-11409950D01*
X15475959Y-11410698D01*
X15462477Y-11414021D01*
X15447415Y-11421926D01*
X15434681Y-11433207D01*
X15425018Y-11447207D01*
X15418986Y-11463113D01*
X15416935Y-11480000D01*
X15076879Y-11480000D01*
X15076014Y-11472873D01*
X15069982Y-11456967D01*
X15063245Y-11447207D01*
X15060318Y-11442967D01*
X15059132Y-11441916D01*
X15047585Y-11431687D01*
X15046159Y-11430938D01*
X15032522Y-11423781D01*
X15020076Y-11420713D01*
X15016006Y-11419710D01*
X14998994Y-11419710D01*
X14997341Y-11420117D01*
X14982477Y-11423781D01*
X14967415Y-11431686D01*
X14954681Y-11442967D01*
X14945018Y-11456967D01*
X14938986Y-11472873D01*
X14936935Y-11489760D01*
X13153959Y-11489760D01*
X13152324Y-11484190D01*
X13152105Y-11483334D01*
X13151682Y-11481387D01*
X13150801Y-11477339D01*
X13149535Y-11474383D01*
X13149398Y-11474000D01*
X13678613Y-11474000D01*
X13781500Y-11474000D01*
X13781500Y-11371113D01*
X13831500Y-11371113D01*
X13831500Y-11474000D01*
X13934387Y-11474000D01*
X13934387Y-11474000D01*
X13929127Y-11454367D01*
X13919513Y-11433752D01*
X13906466Y-11415118D01*
X13890382Y-11399034D01*
X13871748Y-11385986D01*
X13851133Y-11376373D01*
X13831500Y-11371113D01*
X13781500Y-11371113D01*
X13781500Y-11371113D01*
X13761867Y-11376373D01*
X13741252Y-11385986D01*
X13722618Y-11399034D01*
X13706534Y-11415118D01*
X13693486Y-11433752D01*
X13683873Y-11454367D01*
X13678613Y-11474000D01*
X13678613Y-11474000D01*
X13149398Y-11474000D01*
X13149037Y-11472997D01*
X13148132Y-11469912D01*
X13145320Y-11464459D01*
X13144943Y-11463658D01*
X13144709Y-11463113D01*
X13142528Y-11458019D01*
X13140726Y-11455357D01*
X13139974Y-11454089D01*
X13138501Y-11451232D01*
X13137203Y-11449581D01*
X13135232Y-11445972D01*
X13134550Y-11441916D01*
X13134550Y-11418010D01*
X13133967Y-11415079D01*
X13131746Y-11411754D01*
X13128421Y-11409533D01*
X13125490Y-11408950D01*
X13125490Y-11408950D01*
X13091750Y-11408950D01*
X13087975Y-11408361D01*
X13067999Y-11401976D01*
X13047131Y-11399481D01*
X13026167Y-11400980D01*
X13005866Y-11406419D01*
X13003222Y-11407704D01*
X12997805Y-11408950D01*
X12963510Y-11408950D01*
X12960579Y-11409533D01*
X12957254Y-11411754D01*
X12955033Y-11415079D01*
X12954450Y-11418010D01*
X12954450Y-11442810D01*
X12952638Y-11449264D01*
X12945061Y-11461695D01*
X12937716Y-11481388D01*
X12934231Y-11502113D01*
X12497000Y-11502113D01*
X12497000Y-11347226D01*
X12497935Y-11342503D01*
X12498550Y-11341010D01*
X12498550Y-11305272D01*
X12589583Y-11305272D01*
X12606755Y-11316979D01*
X12630386Y-11328360D01*
X12655450Y-11336091D01*
X12681386Y-11340000D01*
X12707614Y-11340000D01*
X12733550Y-11336091D01*
X12758614Y-11328360D01*
X12782246Y-11316979D01*
X12799417Y-11305272D01*
X13097583Y-11305272D01*
X13114755Y-11316979D01*
X13138386Y-11328360D01*
X13163450Y-11336091D01*
X13189386Y-11340000D01*
X13215614Y-11340000D01*
X13241550Y-11336091D01*
X13266614Y-11328360D01*
X13290246Y-11316979D01*
X13307417Y-11305272D01*
X13202500Y-11200355D01*
X13202500Y-11200355D01*
X13097583Y-11305272D01*
X12799417Y-11305272D01*
X12694500Y-11200355D01*
X12694500Y-11200355D01*
X12589583Y-11305272D01*
X12498550Y-11305272D01*
X12498550Y-11202983D01*
X12499987Y-11197189D01*
X12503965Y-11192737D01*
X12509562Y-11190661D01*
X12515480Y-11191440D01*
X12520349Y-11194894D01*
X12523039Y-11200223D01*
X12526806Y-11216727D01*
X12536388Y-11241142D01*
X12549503Y-11263857D01*
X12554287Y-11269857D01*
X12659145Y-11165000D01*
X12659145Y-11165000D01*
X12554287Y-11060143D01*
X12549503Y-11066143D01*
X12536388Y-11088858D01*
X12526806Y-11113273D01*
X12523039Y-11129777D01*
X12520349Y-11135106D01*
X12515480Y-11138560D01*
X12509562Y-11139339D01*
X12503965Y-11137263D01*
X12499987Y-11132811D01*
X12498550Y-11127017D01*
X12498550Y-11024728D01*
X12589583Y-11024728D01*
X12834712Y-11269857D01*
X12839497Y-11263857D01*
X12852612Y-11241142D01*
X12862194Y-11216727D01*
X12868031Y-11191155D01*
X12869991Y-11165000D01*
X12868031Y-11138845D01*
X12862194Y-11113273D01*
X12852612Y-11088858D01*
X12847338Y-11079723D01*
X12845677Y-11073493D01*
X12847368Y-11067272D01*
X12851954Y-11062740D01*
X12858195Y-11061124D01*
X13038049Y-11062845D01*
X13044206Y-11064550D01*
X13048698Y-11069096D01*
X13050330Y-11075274D01*
X13048668Y-11081444D01*
X13044388Y-11088858D01*
X13034806Y-11113273D01*
X13028969Y-11138845D01*
X13027009Y-11165000D01*
X13028969Y-11191155D01*
X13034806Y-11216727D01*
X13044388Y-11241142D01*
X13057503Y-11263857D01*
X13062287Y-11269857D01*
X13167144Y-11165000D01*
X13237855Y-11165000D01*
X13342712Y-11269857D01*
X13347497Y-11263857D01*
X13358384Y-11245000D01*
X14774454Y-11245000D01*
X14776433Y-11263826D01*
X14782282Y-11281828D01*
X14791747Y-11298222D01*
X14804413Y-11312289D01*
X14819727Y-11323415D01*
X14837020Y-11331114D01*
X14855535Y-11335050D01*
X14855535Y-11335050D01*
X14874465Y-11335050D01*
X14874465Y-11335050D01*
X14886808Y-11332426D01*
X14892980Y-11331114D01*
X14910273Y-11323415D01*
X14924808Y-11312855D01*
X14925587Y-11312289D01*
X14938253Y-11298222D01*
X14947718Y-11281828D01*
X14949506Y-11276326D01*
X14953567Y-11263826D01*
X14954232Y-11257500D01*
X15491954Y-11257500D01*
X15493933Y-11276326D01*
X15499782Y-11294328D01*
X15509247Y-11310722D01*
X15521913Y-11324789D01*
X15537227Y-11335915D01*
X15554520Y-11343614D01*
X15573035Y-11347550D01*
X15573035Y-11347550D01*
X15591965Y-11347550D01*
X15591965Y-11347550D01*
X15604308Y-11344926D01*
X15610480Y-11343614D01*
X15627773Y-11335915D01*
X15643087Y-11324789D01*
X15655753Y-11310722D01*
X15665218Y-11294328D01*
X15671067Y-11276326D01*
X15673046Y-11257500D01*
X15671067Y-11238674D01*
X15665218Y-11220672D01*
X15665218Y-11220671D01*
X15664830Y-11220000D01*
X15824435Y-11220000D01*
X15826483Y-11234246D01*
X15832462Y-11247337D01*
X15841887Y-11258214D01*
X15841887Y-11258214D01*
X15853995Y-11265995D01*
X15867804Y-11270050D01*
X15882196Y-11270050D01*
X15896005Y-11265995D01*
X15908113Y-11258214D01*
X15908113Y-11258214D01*
X15909093Y-11257584D01*
X15912077Y-11255350D01*
X15917228Y-11254230D01*
X16101885Y-11254230D01*
X16106974Y-11255322D01*
X16111167Y-11258407D01*
X16111926Y-11259265D01*
X16111927Y-11259265D01*
X16121310Y-11269857D01*
X16123207Y-11271998D01*
X16129476Y-11276326D01*
X16137207Y-11281662D01*
X16153113Y-11287694D01*
X16165763Y-11289230D01*
X16182011Y-11289230D01*
X16186189Y-11289955D01*
X16189878Y-11292045D01*
X16197857Y-11298594D01*
X16214370Y-11307420D01*
X16232287Y-11312855D01*
X16250920Y-11314690D01*
X16269553Y-11312855D01*
X16287470Y-11307420D01*
X16303982Y-11298594D01*
X16318456Y-11286716D01*
X16330334Y-11272242D01*
X16339160Y-11255730D01*
X16344595Y-11237813D01*
X16346430Y-11219180D01*
X16344595Y-11200547D01*
X16339160Y-11182630D01*
X16330334Y-11166118D01*
X16318456Y-11151644D01*
X16303982Y-11139766D01*
X16303982Y-11139766D01*
X16287470Y-11130940D01*
X16269553Y-11125505D01*
X16250920Y-11123670D01*
X16232287Y-11125505D01*
X16214370Y-11130940D01*
X16197857Y-11139766D01*
X16189878Y-11146315D01*
X16186189Y-11148405D01*
X16182011Y-11149130D01*
X16165763Y-11149130D01*
X16159438Y-11149898D01*
X16153113Y-11150666D01*
X16137207Y-11156698D01*
X16123207Y-11166362D01*
X16118756Y-11171386D01*
X16111927Y-11179095D01*
X16111926Y-11179095D01*
X16111167Y-11179953D01*
X16106974Y-11183038D01*
X16101885Y-11184130D01*
X15915401Y-11184130D01*
X15908698Y-11182162D01*
X15896005Y-11174005D01*
X15882196Y-11169950D01*
X15867804Y-11169950D01*
X15853995Y-11174005D01*
X15841887Y-11181786D01*
X15832462Y-11192662D01*
X15826483Y-11205754D01*
X15824435Y-11220000D01*
X15664830Y-11220000D01*
X15655753Y-11204278D01*
X15643087Y-11190211D01*
X15627773Y-11179085D01*
X15610480Y-11171386D01*
X15591965Y-11167450D01*
X15591965Y-11167450D01*
X15573035Y-11167450D01*
X15573035Y-11167450D01*
X15554520Y-11171386D01*
X15537227Y-11179085D01*
X15521913Y-11190211D01*
X15509247Y-11204278D01*
X15499782Y-11220671D01*
X15493933Y-11238674D01*
X15491954Y-11257500D01*
X14954232Y-11257500D01*
X14955546Y-11245000D01*
X14953567Y-11226174D01*
X14947718Y-11208172D01*
X14947718Y-11208171D01*
X14938253Y-11191778D01*
X14925587Y-11177711D01*
X14910273Y-11166585D01*
X14892980Y-11158886D01*
X14874465Y-11154950D01*
X14874465Y-11154950D01*
X14855535Y-11154950D01*
X14855535Y-11154950D01*
X14837020Y-11158886D01*
X14819727Y-11166585D01*
X14804413Y-11177711D01*
X14791747Y-11191778D01*
X14782282Y-11208171D01*
X14776433Y-11226174D01*
X14774454Y-11245000D01*
X13358384Y-11245000D01*
X13360612Y-11241142D01*
X13370194Y-11216727D01*
X13376031Y-11191155D01*
X13377991Y-11165000D01*
X13376031Y-11138845D01*
X13370194Y-11113273D01*
X13366124Y-11102903D01*
X14792453Y-11102903D01*
X14799751Y-11108013D01*
X14820367Y-11117627D01*
X14842340Y-11123514D01*
X14865000Y-11125497D01*
X14887660Y-11123514D01*
X14909633Y-11117627D01*
X14914402Y-11115403D01*
X15509953Y-11115403D01*
X15517251Y-11120513D01*
X15537867Y-11130127D01*
X15559840Y-11136014D01*
X15582500Y-11137997D01*
X15605160Y-11136014D01*
X15627133Y-11130127D01*
X15647748Y-11120513D01*
X15655047Y-11115403D01*
X15582500Y-11042855D01*
X15582500Y-11042855D01*
X15509953Y-11115403D01*
X15509953Y-11115403D01*
X14914402Y-11115403D01*
X14930248Y-11108013D01*
X14937547Y-11102903D01*
X14865000Y-11030355D01*
X14865000Y-11030355D01*
X14792453Y-11102903D01*
X14792453Y-11102903D01*
X13366124Y-11102903D01*
X13360612Y-11088858D01*
X13347497Y-11066143D01*
X13342712Y-11060143D01*
X13237855Y-11165000D01*
X13237855Y-11165000D01*
X13167144Y-11165000D01*
X13202500Y-11129645D01*
X13307417Y-11024728D01*
X13290245Y-11013021D01*
X13266614Y-11001640D01*
X13241550Y-10993909D01*
X13215614Y-10990000D01*
X13189386Y-10990000D01*
X13163450Y-10993909D01*
X13138386Y-11001640D01*
X13124494Y-11008330D01*
X13118409Y-11009538D01*
X13112500Y-11007647D01*
X13108247Y-11003130D01*
X13106714Y-10997118D01*
X13106887Y-10943506D01*
X13507450Y-10943506D01*
X13511521Y-10960022D01*
X13514228Y-10965180D01*
X13519427Y-10975085D01*
X13526236Y-10982771D01*
X13530707Y-10987818D01*
X13536791Y-10992018D01*
X13544707Y-10997482D01*
X13560613Y-11003514D01*
X13573263Y-11005050D01*
X13915008Y-11005050D01*
X13915757Y-11005073D01*
X13916071Y-11005092D01*
X13921761Y-11005436D01*
X13927678Y-11004351D01*
X13928418Y-11004239D01*
X13934387Y-11003514D01*
X13935333Y-11003155D01*
X13937496Y-11002552D01*
X13938493Y-11002370D01*
X13943981Y-10999900D01*
X13944667Y-10999615D01*
X13950293Y-10997482D01*
X13951127Y-10996906D01*
X13953082Y-10995804D01*
X13954006Y-10995388D01*
X13954501Y-10995000D01*
X14734503Y-10995000D01*
X14736486Y-11017660D01*
X14742373Y-11039633D01*
X14751987Y-11060248D01*
X14757097Y-11067547D01*
X14757097Y-11067547D01*
X14829645Y-10995000D01*
X14829645Y-10995000D01*
X14757097Y-10922453D01*
X14757097Y-10922453D01*
X14751986Y-10929752D01*
X14742373Y-10950367D01*
X14736486Y-10972340D01*
X14734503Y-10995000D01*
X13954501Y-10995000D01*
X13958741Y-10991678D01*
X13959342Y-10991236D01*
X13964293Y-10987818D01*
X13968282Y-10983315D01*
X13968792Y-10982773D01*
X14055566Y-10896000D01*
X14189432Y-10896000D01*
X14191496Y-10911676D01*
X14197546Y-10926284D01*
X14207172Y-10938828D01*
X14213267Y-10943506D01*
X14219716Y-10948454D01*
X14234324Y-10954504D01*
X14250000Y-10956568D01*
X14265676Y-10954504D01*
X14280284Y-10948454D01*
X14292828Y-10938828D01*
X14302454Y-10926284D01*
X14308504Y-10911676D01*
X14310568Y-10896000D01*
X14310568Y-10896000D01*
X14379432Y-10896000D01*
X14381496Y-10911676D01*
X14387546Y-10926284D01*
X14397172Y-10938828D01*
X14403267Y-10943506D01*
X14409716Y-10948454D01*
X14424324Y-10954504D01*
X14440000Y-10956568D01*
X14455676Y-10954504D01*
X14470284Y-10948454D01*
X14482828Y-10938828D01*
X14492454Y-10926284D01*
X14498504Y-10911676D01*
X14500568Y-10896000D01*
X14498504Y-10880324D01*
X14492454Y-10865716D01*
X14486944Y-10858535D01*
X14482828Y-10853172D01*
X14470284Y-10843546D01*
X14455676Y-10837496D01*
X14440000Y-10835432D01*
X14424324Y-10837496D01*
X14409716Y-10843546D01*
X14397172Y-10853172D01*
X14387546Y-10865716D01*
X14381496Y-10880324D01*
X14379432Y-10896000D01*
X14310568Y-10896000D01*
X14308504Y-10880324D01*
X14302454Y-10865716D01*
X14296944Y-10858535D01*
X14292828Y-10853172D01*
X14280284Y-10843546D01*
X14265676Y-10837496D01*
X14250000Y-10835432D01*
X14234324Y-10837496D01*
X14219716Y-10843546D01*
X14207172Y-10853172D01*
X14197546Y-10865716D01*
X14191496Y-10880324D01*
X14189432Y-10896000D01*
X14055566Y-10896000D01*
X14152884Y-10798682D01*
X14156906Y-10795994D01*
X14161652Y-10795050D01*
X14610848Y-10795050D01*
X14615593Y-10795994D01*
X14619616Y-10798682D01*
X14686205Y-10865271D01*
X14686717Y-10865815D01*
X14690707Y-10870318D01*
X14695657Y-10873735D01*
X14696260Y-10874179D01*
X14700994Y-10877888D01*
X14701918Y-10878304D01*
X14703872Y-10879405D01*
X14704707Y-10879982D01*
X14710333Y-10882115D01*
X14711022Y-10882401D01*
X14716507Y-10884870D01*
X14717504Y-10885052D01*
X14719666Y-10885655D01*
X14720613Y-10886014D01*
X14726584Y-10886739D01*
X14727318Y-10886851D01*
X14733239Y-10887936D01*
X14738910Y-10887593D01*
X14739243Y-10887573D01*
X14739992Y-10887550D01*
X14787769Y-10887550D01*
X14792514Y-10888494D01*
X14796537Y-10891182D01*
X14865000Y-10959645D01*
X14972902Y-11067547D01*
X14978013Y-11060248D01*
X14987627Y-11039633D01*
X14993514Y-11017660D01*
X14994403Y-11007500D01*
X15452003Y-11007500D01*
X15453986Y-11030160D01*
X15459873Y-11052133D01*
X15469487Y-11072748D01*
X15474597Y-11080047D01*
X15474597Y-11080047D01*
X15547145Y-11007500D01*
X15547145Y-11007500D01*
X15617855Y-11007500D01*
X15690402Y-11080047D01*
X15695513Y-11072748D01*
X15705127Y-11052133D01*
X15711014Y-11030160D01*
X15712997Y-11007500D01*
X15711014Y-10984840D01*
X15705127Y-10962867D01*
X15695513Y-10942252D01*
X15690402Y-10934953D01*
X15617855Y-11007500D01*
X15547145Y-11007500D01*
X15547145Y-11007500D01*
X15474597Y-10934953D01*
X15469486Y-10942252D01*
X15459873Y-10962867D01*
X15453986Y-10984840D01*
X15452003Y-11007500D01*
X14994403Y-11007500D01*
X14995497Y-10995000D01*
X14993514Y-10972340D01*
X14987627Y-10950367D01*
X14978013Y-10929752D01*
X14965883Y-10912427D01*
X14963680Y-10906313D01*
X14964873Y-10899924D01*
X14969134Y-10895016D01*
X14975291Y-10892938D01*
X14975320Y-10892936D01*
X14975321Y-10892936D01*
X14980354Y-10892631D01*
X14981325Y-10892573D01*
X14982073Y-10892550D01*
X15481239Y-10892550D01*
X15481988Y-10892573D01*
X15482302Y-10892592D01*
X15487992Y-10892936D01*
X15493909Y-10891851D01*
X15494649Y-10891739D01*
X15495631Y-10891620D01*
X15501072Y-10892174D01*
X15505746Y-10895015D01*
X15506459Y-10896104D01*
X15582500Y-10972145D01*
X15582500Y-10972145D01*
X15655047Y-10899597D01*
X15655047Y-10899597D01*
X15647748Y-10894487D01*
X15627133Y-10884873D01*
X15605160Y-10878986D01*
X15582500Y-10877003D01*
X15559839Y-10878986D01*
X15558738Y-10879281D01*
X15552320Y-10879281D01*
X15546761Y-10876071D01*
X15543552Y-10870512D01*
X15543552Y-10864094D01*
X15546761Y-10858535D01*
X15676773Y-10728523D01*
X15677315Y-10728013D01*
X15681818Y-10724024D01*
X15685235Y-10719073D01*
X15685677Y-10718472D01*
X15689388Y-10713737D01*
X15689803Y-10712813D01*
X15690906Y-10710858D01*
X15691482Y-10710024D01*
X15693615Y-10704399D01*
X15693900Y-10703711D01*
X15696369Y-10698224D01*
X15696552Y-10697227D01*
X15697155Y-10695065D01*
X15697514Y-10694118D01*
X15698239Y-10688149D01*
X15698351Y-10687409D01*
X15698446Y-10686894D01*
X15699436Y-10681492D01*
X15699073Y-10675488D01*
X15699050Y-10674739D01*
X15699050Y-10295500D01*
X15699073Y-10294751D01*
X15699274Y-10291420D01*
X15699436Y-10288748D01*
X15698351Y-10282829D01*
X15698239Y-10282095D01*
X15697514Y-10276122D01*
X15697514Y-10276122D01*
X15697155Y-10275174D01*
X15696552Y-10273012D01*
X15696369Y-10272016D01*
X15693901Y-10266532D01*
X15693615Y-10265841D01*
X15691482Y-10260216D01*
X15690906Y-10259382D01*
X15689803Y-10257426D01*
X15689388Y-10256503D01*
X15685679Y-10251769D01*
X15685235Y-10251166D01*
X15681818Y-10246216D01*
X15681818Y-10246216D01*
X15677315Y-10242227D01*
X15676771Y-10241715D01*
X15506749Y-10071692D01*
X15506237Y-10071149D01*
X15502248Y-10066646D01*
X15497298Y-10063229D01*
X15496695Y-10062786D01*
X15491960Y-10059076D01*
X15491036Y-10058660D01*
X15489082Y-10057558D01*
X15488248Y-10056982D01*
X15488248Y-10056982D01*
X15488247Y-10056982D01*
X15482625Y-10054850D01*
X15481933Y-10054563D01*
X15476448Y-10052094D01*
X15475450Y-10051911D01*
X15473289Y-10051309D01*
X15472342Y-10050950D01*
X15466372Y-10050225D01*
X15465632Y-10050112D01*
X15461531Y-10049361D01*
X15458003Y-10048144D01*
X15454998Y-10045932D01*
X15379682Y-9970616D01*
X15376994Y-9966593D01*
X15376050Y-9961848D01*
X15376050Y-9819797D01*
X15376584Y-9816197D01*
X15378140Y-9812908D01*
X15379210Y-9811306D01*
X15379467Y-9810921D01*
X15380050Y-9807990D01*
X15380050Y-9646010D01*
X15379467Y-9643079D01*
X15377246Y-9639754D01*
X15373921Y-9637533D01*
X15373921Y-9637533D01*
X15370990Y-9636950D01*
X15369731Y-9636950D01*
X15364986Y-9636006D01*
X15360963Y-9633318D01*
X15290000Y-9562355D01*
X15254645Y-9527000D01*
X15325355Y-9527000D01*
X15397902Y-9599547D01*
X15403013Y-9592248D01*
X15412627Y-9571633D01*
X15418514Y-9549660D01*
X15420497Y-9527000D01*
X15418514Y-9504340D01*
X15412627Y-9482367D01*
X15403013Y-9461752D01*
X15397902Y-9454453D01*
X15325355Y-9527000D01*
X15325355Y-9527000D01*
X15254645Y-9527000D01*
X15182097Y-9454453D01*
X15176986Y-9461752D01*
X15167373Y-9482367D01*
X15161486Y-9504340D01*
X15159503Y-9527000D01*
X15161486Y-9549660D01*
X15167373Y-9571633D01*
X15171374Y-9580212D01*
X15172443Y-9586964D01*
X15169772Y-9593256D01*
X15164173Y-9597177D01*
X15157346Y-9597535D01*
X15151368Y-9594221D01*
X15146875Y-9589728D01*
X15146363Y-9589185D01*
X15142374Y-9584682D01*
X15137424Y-9581265D01*
X15136822Y-9580822D01*
X15132087Y-9577112D01*
X15131162Y-9576696D01*
X15129208Y-9575594D01*
X15128374Y-9575018D01*
X15128374Y-9575018D01*
X15128374Y-9575018D01*
X15122751Y-9572886D01*
X15122059Y-9572599D01*
X15116574Y-9570130D01*
X15115576Y-9569948D01*
X15113415Y-9569345D01*
X15112468Y-9568986D01*
X15106498Y-9568261D01*
X15105758Y-9568148D01*
X15099842Y-9567064D01*
X15093838Y-9567427D01*
X15093089Y-9567450D01*
X15015783Y-9567450D01*
X15009565Y-9565778D01*
X15005024Y-9561214D01*
X15003383Y-9554988D01*
X15004064Y-9419097D01*
X15217453Y-9419097D01*
X15290000Y-9491645D01*
X15290000Y-9491645D01*
X15362547Y-9419097D01*
X15362547Y-9419097D01*
X15355248Y-9413987D01*
X15334633Y-9404373D01*
X15312660Y-9398486D01*
X15290000Y-9396503D01*
X15267340Y-9398486D01*
X15245367Y-9404373D01*
X15224752Y-9413987D01*
X15217453Y-9419097D01*
X15217453Y-9419097D01*
X15004064Y-9419097D01*
X15004681Y-9295926D01*
X14940005Y-9296214D01*
X14933782Y-9294572D01*
X14929220Y-9290030D01*
X14927550Y-9283814D01*
X14927550Y-9264550D01*
X14929211Y-9258350D01*
X14933750Y-9253811D01*
X14939950Y-9252150D01*
X15185112Y-9252150D01*
X15190597Y-9253429D01*
X15194950Y-9257002D01*
X15197274Y-9262131D01*
X15197533Y-9263433D01*
X15197533Y-9263433D01*
X15199754Y-9266757D01*
X15203079Y-9268978D01*
X15206010Y-9269561D01*
X15367990Y-9269561D01*
X15367990Y-9269561D01*
X15369455Y-9269270D01*
X15370921Y-9268978D01*
X15374246Y-9266757D01*
X15376467Y-9263433D01*
X15377050Y-9260501D01*
X15377050Y-9098522D01*
X15377050Y-9098521D01*
X15376467Y-9095590D01*
X15375074Y-9093505D01*
X15374246Y-9092266D01*
X15373354Y-9091670D01*
X15370921Y-9090044D01*
X15367990Y-9089461D01*
X15366731Y-9089461D01*
X15361986Y-9088517D01*
X15357963Y-9085829D01*
X15287000Y-9014867D01*
X15287000Y-9014867D01*
X15216037Y-9085829D01*
X15212014Y-9088517D01*
X15207269Y-9089461D01*
X15206010Y-9089461D01*
X15203079Y-9090044D01*
X15199754Y-9092266D01*
X15197533Y-9095590D01*
X15196950Y-9098521D01*
X15196950Y-9099650D01*
X15195289Y-9105850D01*
X15190750Y-9110389D01*
X15184550Y-9112050D01*
X14878200Y-9112050D01*
X14874511Y-9111489D01*
X14870220Y-9110151D01*
X14870219Y-9110151D01*
X14870219Y-9110151D01*
X14869208Y-9110090D01*
X14866990Y-9109753D01*
X14866006Y-9109510D01*
X14859992Y-9109510D01*
X14859243Y-9109487D01*
X14856259Y-9109307D01*
X14853239Y-9109124D01*
X14853239Y-9109124D01*
X14852242Y-9109307D01*
X14850007Y-9109510D01*
X14848994Y-9109510D01*
X14843157Y-9110949D01*
X14842425Y-9111106D01*
X14838382Y-9111847D01*
X14836146Y-9112050D01*
X14165392Y-9112050D01*
X14164643Y-9112027D01*
X14158639Y-9111664D01*
X14152723Y-9112748D01*
X14151983Y-9112861D01*
X14146013Y-9113586D01*
X14145065Y-9113945D01*
X14142905Y-9114548D01*
X14141907Y-9114730D01*
X14136422Y-9117199D01*
X14135730Y-9117485D01*
X14130107Y-9119618D01*
X14129272Y-9120194D01*
X14127319Y-9121296D01*
X14126394Y-9121712D01*
X14121660Y-9125421D01*
X14121057Y-9125865D01*
X14116107Y-9129282D01*
X14115311Y-9130181D01*
X14113964Y-9131374D01*
X14109578Y-9136324D01*
X14109065Y-9136869D01*
X13937229Y-9308705D01*
X13936684Y-9309218D01*
X13932182Y-9313207D01*
X13928765Y-9318157D01*
X13928321Y-9318760D01*
X13924612Y-9323494D01*
X13924196Y-9324419D01*
X13923094Y-9326373D01*
X13922518Y-9327207D01*
X13920385Y-9332831D01*
X13920099Y-9333522D01*
X13917630Y-9339007D01*
X13917447Y-9340005D01*
X13916845Y-9342165D01*
X13916486Y-9343113D01*
X13915761Y-9349083D01*
X13915648Y-9349823D01*
X13914564Y-9355739D01*
X13914927Y-9361743D01*
X13914950Y-9362492D01*
X13914950Y-9663682D01*
X13913395Y-9669694D01*
X13909121Y-9674198D01*
X13903199Y-9676065D01*
X13897114Y-9674827D01*
X13892392Y-9670795D01*
X13882466Y-9656618D01*
X13866382Y-9640534D01*
X13847748Y-9627487D01*
X13827133Y-9617873D01*
X13807500Y-9612613D01*
X13807500Y-9868387D01*
X13827133Y-9863127D01*
X13847748Y-9853513D01*
X13866382Y-9840466D01*
X13882466Y-9824382D01*
X13892392Y-9810205D01*
X13897114Y-9806173D01*
X13903199Y-9804935D01*
X13909121Y-9806802D01*
X13913395Y-9811306D01*
X13914950Y-9817318D01*
X13914950Y-9907508D01*
X13914927Y-9908257D01*
X13914564Y-9914261D01*
X13915648Y-9920177D01*
X13915761Y-9920917D01*
X13916486Y-9926887D01*
X13916845Y-9927834D01*
X13917447Y-9929995D01*
X13917630Y-9930993D01*
X13920099Y-9936478D01*
X13920386Y-9937170D01*
X13922518Y-9942793D01*
X13922518Y-9942793D01*
X13923094Y-9943627D01*
X13924196Y-9945581D01*
X13924612Y-9946505D01*
X13928322Y-9951241D01*
X13928765Y-9951843D01*
X13932182Y-9956793D01*
X13936685Y-9960782D01*
X13937228Y-9961294D01*
X14063706Y-10087772D01*
X14064218Y-10088315D01*
X14068207Y-10092818D01*
X14068207Y-10092818D01*
X14073157Y-10096235D01*
X14073759Y-10096678D01*
X14078494Y-10100388D01*
X14079418Y-10100803D01*
X14081373Y-10101906D01*
X14082207Y-10102482D01*
X14082207Y-10102482D01*
X14082207Y-10102482D01*
X14087833Y-10104615D01*
X14088522Y-10104901D01*
X14094007Y-10107370D01*
X14095004Y-10107552D01*
X14097166Y-10108155D01*
X14098113Y-10108514D01*
X14102393Y-10109034D01*
X14107891Y-10111103D01*
X14111820Y-10115472D01*
X14113297Y-10121159D01*
X14117449Y-10400149D01*
X14117450Y-10400334D01*
X14117450Y-10580990D01*
X14118033Y-10583921D01*
X14118198Y-10584169D01*
X14119727Y-10587370D01*
X14120287Y-10590873D01*
X14121078Y-10644045D01*
X14119716Y-10649883D01*
X14115775Y-10654399D01*
X14111981Y-10655849D01*
X14112020Y-10655952D01*
X14109664Y-10656846D01*
X14107504Y-10657448D01*
X14106507Y-10657631D01*
X14101023Y-10660098D01*
X14100332Y-10660385D01*
X14094707Y-10662518D01*
X14093872Y-10663094D01*
X14091918Y-10664196D01*
X14090995Y-10664612D01*
X14086260Y-10668321D01*
X14085657Y-10668765D01*
X14080707Y-10672182D01*
X14076718Y-10676685D01*
X14076204Y-10677230D01*
X13892116Y-10861318D01*
X13888093Y-10864006D01*
X13883348Y-10864950D01*
X13573263Y-10864950D01*
X13568439Y-10865536D01*
X13560613Y-10866486D01*
X13544707Y-10872518D01*
X13530707Y-10882182D01*
X13519426Y-10894915D01*
X13511521Y-10909978D01*
X13510361Y-10914682D01*
X13507502Y-10926284D01*
X13507450Y-10926495D01*
X13507450Y-10943506D01*
X13106887Y-10943506D01*
X13107269Y-10825068D01*
X13108831Y-10819085D01*
X13113089Y-10814599D01*
X13118984Y-10812728D01*
X13125049Y-10813937D01*
X13138386Y-10820360D01*
X13163450Y-10828091D01*
X13189386Y-10832000D01*
X13215614Y-10832000D01*
X13241550Y-10828091D01*
X13266614Y-10820360D01*
X13290246Y-10808979D01*
X13307417Y-10797272D01*
X13202500Y-10692355D01*
X13167145Y-10657000D01*
X13237855Y-10657000D01*
X13342712Y-10761857D01*
X13347497Y-10755857D01*
X13360612Y-10733142D01*
X13370194Y-10708727D01*
X13376031Y-10683155D01*
X13377991Y-10657000D01*
X13376031Y-10630845D01*
X13370194Y-10605273D01*
X13360612Y-10580858D01*
X13347497Y-10558143D01*
X13342712Y-10552143D01*
X13237855Y-10657000D01*
X13237855Y-10657000D01*
X13167145Y-10657000D01*
X13062287Y-10552143D01*
X13057503Y-10558143D01*
X13044388Y-10580858D01*
X13034806Y-10605273D01*
X13028969Y-10630845D01*
X13027009Y-10657000D01*
X13028969Y-10683155D01*
X13034806Y-10708727D01*
X13044388Y-10733143D01*
X13045602Y-10735246D01*
X13047264Y-10741431D01*
X13045617Y-10747620D01*
X13041102Y-10752162D01*
X13034923Y-10753846D01*
X12861719Y-10754670D01*
X12855498Y-10753031D01*
X12850936Y-10748496D01*
X12849260Y-10742285D01*
X12850921Y-10736070D01*
X12852611Y-10733143D01*
X12862194Y-10708726D01*
X12868031Y-10683155D01*
X12869991Y-10657000D01*
X12868031Y-10630845D01*
X12862194Y-10605273D01*
X12852612Y-10580858D01*
X12839497Y-10558143D01*
X12834712Y-10552143D01*
X12694500Y-10692355D01*
X12589583Y-10797272D01*
X12606755Y-10808979D01*
X12630386Y-10820360D01*
X12655450Y-10828091D01*
X12681386Y-10832000D01*
X12707614Y-10832000D01*
X12733550Y-10828091D01*
X12758614Y-10820360D01*
X12774832Y-10812549D01*
X12780903Y-10811341D01*
X12786801Y-10813217D01*
X12791058Y-10817710D01*
X12792612Y-10823701D01*
X12792898Y-10998396D01*
X12791358Y-11004401D01*
X12787104Y-11008910D01*
X12781199Y-11010797D01*
X12775118Y-11009588D01*
X12758614Y-11001640D01*
X12733550Y-10993909D01*
X12707614Y-10990000D01*
X12681386Y-10990000D01*
X12655450Y-10993909D01*
X12630386Y-11001640D01*
X12606754Y-11013021D01*
X12589583Y-11024728D01*
X12498550Y-11024728D01*
X12498550Y-10694983D01*
X12499987Y-10689189D01*
X12503965Y-10684737D01*
X12509562Y-10682661D01*
X12515480Y-10683440D01*
X12520349Y-10686894D01*
X12523039Y-10692223D01*
X12526806Y-10708727D01*
X12536388Y-10733142D01*
X12549503Y-10755857D01*
X12554287Y-10761857D01*
X12554287Y-10761857D01*
X12659145Y-10657000D01*
X12659145Y-10657000D01*
X12554287Y-10552143D01*
X12549503Y-10558142D01*
X12536388Y-10580858D01*
X12526806Y-10605273D01*
X12523039Y-10621777D01*
X12520349Y-10627106D01*
X12515480Y-10630560D01*
X12509562Y-10631339D01*
X12503965Y-10629263D01*
X12499987Y-10624811D01*
X12498550Y-10619017D01*
X12498550Y-10516728D01*
X12589583Y-10516728D01*
X12694500Y-10621645D01*
X12694500Y-10621645D01*
X12799417Y-10516728D01*
X13097583Y-10516728D01*
X13202500Y-10621645D01*
X13202500Y-10621645D01*
X13307417Y-10516728D01*
X13290245Y-10505021D01*
X13266614Y-10493640D01*
X13241550Y-10485909D01*
X13215614Y-10482000D01*
X13189386Y-10482000D01*
X13163450Y-10485909D01*
X13138386Y-10493640D01*
X13114754Y-10505021D01*
X13097583Y-10516728D01*
X12799417Y-10516728D01*
X12782245Y-10505021D01*
X12758614Y-10493640D01*
X12733550Y-10485909D01*
X12707614Y-10482000D01*
X12681386Y-10482000D01*
X12655450Y-10485909D01*
X12630386Y-10493640D01*
X12606754Y-10505021D01*
X12589583Y-10516728D01*
X12498550Y-10516728D01*
X12498550Y-10480990D01*
X12497935Y-10479497D01*
X12497000Y-10474774D01*
X12497000Y-10280000D01*
X12736978Y-10280000D01*
X12738860Y-10300308D01*
X12744442Y-10319925D01*
X12753532Y-10338182D01*
X12765824Y-10354458D01*
X12780896Y-10368198D01*
X12798236Y-10378935D01*
X12798236Y-10378935D01*
X12817254Y-10386302D01*
X12837302Y-10390050D01*
X12857697Y-10390050D01*
X12857698Y-10390050D01*
X12877746Y-10386302D01*
X12896764Y-10378935D01*
X12914104Y-10368198D01*
X12929176Y-10354458D01*
X12941467Y-10338182D01*
X12941467Y-10338182D01*
X12941467Y-10338182D01*
X12949353Y-10322346D01*
X12950558Y-10319925D01*
X12956140Y-10300308D01*
X12958021Y-10280000D01*
X12956140Y-10259692D01*
X12950558Y-10240075D01*
X12950386Y-10239730D01*
X12941467Y-10221818D01*
X12929176Y-10205542D01*
X12914104Y-10191802D01*
X12896764Y-10181065D01*
X12877746Y-10173698D01*
X12870173Y-10172282D01*
X12857698Y-10169950D01*
X12837302Y-10169950D01*
X12827278Y-10171824D01*
X12817254Y-10173698D01*
X12798236Y-10181065D01*
X12780896Y-10191802D01*
X12765824Y-10205542D01*
X12753532Y-10221818D01*
X12744442Y-10240075D01*
X12738860Y-10259692D01*
X12736978Y-10280000D01*
X12497000Y-10280000D01*
X12497000Y-9880000D01*
X12736978Y-9880000D01*
X12738860Y-9900308D01*
X12744442Y-9919925D01*
X12753532Y-9938182D01*
X12765824Y-9954458D01*
X12780896Y-9968198D01*
X12798236Y-9978935D01*
X12798236Y-9978935D01*
X12817254Y-9986302D01*
X12837302Y-9990050D01*
X12857697Y-9990050D01*
X12857698Y-9990050D01*
X12877746Y-9986302D01*
X12896764Y-9978935D01*
X12914104Y-9968198D01*
X12921070Y-9961848D01*
X12929176Y-9954458D01*
X12931384Y-9951535D01*
X12941467Y-9938182D01*
X12941467Y-9938182D01*
X12941467Y-9938182D01*
X12947091Y-9926887D01*
X12950558Y-9919925D01*
X12956140Y-9900308D01*
X12958021Y-9880000D01*
X12956140Y-9859692D01*
X12954288Y-9853184D01*
X12951811Y-9844478D01*
X12950558Y-9840075D01*
X12950521Y-9840000D01*
X12941467Y-9821818D01*
X12929176Y-9805542D01*
X12914104Y-9791802D01*
X12896764Y-9781065D01*
X12877746Y-9773698D01*
X12871063Y-9772448D01*
X12857698Y-9769950D01*
X12837302Y-9769950D01*
X12828009Y-9771687D01*
X12817254Y-9773698D01*
X12798236Y-9781065D01*
X12780896Y-9791802D01*
X12765824Y-9805542D01*
X12753532Y-9821818D01*
X12744442Y-9840075D01*
X12738860Y-9859692D01*
X12736978Y-9880000D01*
X12497000Y-9880000D01*
X12497000Y-9765500D01*
X13654613Y-9765500D01*
X13659873Y-9785133D01*
X13669486Y-9805748D01*
X13682534Y-9824382D01*
X13698618Y-9840466D01*
X13717252Y-9853513D01*
X13737867Y-9863127D01*
X13757500Y-9868387D01*
X13757500Y-9868387D01*
X13757500Y-9765500D01*
X13654613Y-9765500D01*
X12497000Y-9765500D01*
X12497000Y-9715500D01*
X13654613Y-9715500D01*
X13757500Y-9715500D01*
X13757500Y-9612613D01*
X13757500Y-9612613D01*
X13737867Y-9617873D01*
X13717252Y-9627487D01*
X13698618Y-9640534D01*
X13682534Y-9656618D01*
X13669486Y-9675252D01*
X13659873Y-9695867D01*
X13654613Y-9715500D01*
X13654613Y-9715500D01*
X12497000Y-9715500D01*
X12497000Y-9671212D01*
X12497943Y-9666469D01*
X12498188Y-9666102D01*
X12499050Y-9664010D01*
X12499050Y-9628272D01*
X12590083Y-9628272D01*
X12607255Y-9639979D01*
X12630886Y-9651360D01*
X12655950Y-9659091D01*
X12681886Y-9663000D01*
X12708114Y-9663000D01*
X12734050Y-9659091D01*
X12759114Y-9651360D01*
X12782746Y-9639979D01*
X12799917Y-9628272D01*
X13098083Y-9628272D01*
X13115255Y-9639979D01*
X13138886Y-9651360D01*
X13163950Y-9659091D01*
X13189886Y-9663000D01*
X13216114Y-9663000D01*
X13242050Y-9659091D01*
X13267114Y-9651360D01*
X13290746Y-9639979D01*
X13307917Y-9628272D01*
X13203000Y-9523355D01*
X13203000Y-9523355D01*
X13098083Y-9628272D01*
X12799917Y-9628272D01*
X12695000Y-9523355D01*
X12695000Y-9523355D01*
X12590083Y-9628272D01*
X12499050Y-9628272D01*
X12499050Y-9525983D01*
X12500487Y-9520189D01*
X12504465Y-9515737D01*
X12510062Y-9513661D01*
X12515980Y-9514440D01*
X12520849Y-9517894D01*
X12523539Y-9523223D01*
X12527306Y-9539727D01*
X12536888Y-9564142D01*
X12550003Y-9586857D01*
X12554787Y-9592857D01*
X12554787Y-9592857D01*
X12659645Y-9488000D01*
X12659645Y-9488000D01*
X12554787Y-9383143D01*
X12550003Y-9389142D01*
X12536888Y-9411858D01*
X12527306Y-9436273D01*
X12523539Y-9452777D01*
X12520849Y-9458106D01*
X12515980Y-9461560D01*
X12510062Y-9462339D01*
X12504465Y-9460263D01*
X12500487Y-9455811D01*
X12499050Y-9450017D01*
X12499050Y-9347728D01*
X12590083Y-9347728D01*
X12835212Y-9592857D01*
X12839997Y-9586857D01*
X12853112Y-9564142D01*
X12862694Y-9539727D01*
X12868531Y-9514155D01*
X12870491Y-9488000D01*
X12868531Y-9461845D01*
X12862694Y-9436273D01*
X12854042Y-9414228D01*
X12853266Y-9408282D01*
X12855371Y-9402667D01*
X12859864Y-9398696D01*
X12865695Y-9397298D01*
X13031945Y-9398778D01*
X13037701Y-9400254D01*
X13042110Y-9404238D01*
X13044159Y-9409817D01*
X13043377Y-9415708D01*
X13035306Y-9436274D01*
X13029469Y-9461845D01*
X13027509Y-9488000D01*
X13029469Y-9514155D01*
X13035306Y-9539727D01*
X13044888Y-9564142D01*
X13058003Y-9586857D01*
X13062787Y-9592857D01*
X13167644Y-9488000D01*
X13238355Y-9488000D01*
X13343212Y-9592857D01*
X13347997Y-9586857D01*
X13361112Y-9564142D01*
X13370694Y-9539727D01*
X13376531Y-9514155D01*
X13378491Y-9488000D01*
X13376531Y-9461845D01*
X13370694Y-9436273D01*
X13361112Y-9411858D01*
X13347997Y-9389143D01*
X13343212Y-9383143D01*
X13238355Y-9488000D01*
X13238355Y-9488000D01*
X13167644Y-9488000D01*
X13203000Y-9452645D01*
X13307917Y-9347728D01*
X13290745Y-9336021D01*
X13267114Y-9324640D01*
X13242050Y-9316909D01*
X13216114Y-9313000D01*
X13189886Y-9313000D01*
X13163950Y-9316909D01*
X13138886Y-9324640D01*
X13132280Y-9327822D01*
X13126205Y-9329030D01*
X13120303Y-9327149D01*
X13116047Y-9322648D01*
X13114500Y-9316650D01*
X13114500Y-9232500D01*
X13691954Y-9232500D01*
X13692943Y-9241913D01*
X13693933Y-9251326D01*
X13699782Y-9269328D01*
X13709247Y-9285722D01*
X13721913Y-9299789D01*
X13737227Y-9310915D01*
X13754520Y-9318614D01*
X13773035Y-9322550D01*
X13773035Y-9322550D01*
X13791965Y-9322550D01*
X13791965Y-9322550D01*
X13804322Y-9319923D01*
X13810480Y-9318614D01*
X13827773Y-9310915D01*
X13843087Y-9299789D01*
X13855753Y-9285722D01*
X13865218Y-9269328D01*
X13871067Y-9251326D01*
X13873046Y-9232500D01*
X13871067Y-9213674D01*
X13865218Y-9195672D01*
X13865218Y-9195672D01*
X13855753Y-9179278D01*
X13843087Y-9165211D01*
X13827773Y-9154085D01*
X13810480Y-9146386D01*
X13791965Y-9142450D01*
X13791965Y-9142450D01*
X13773035Y-9142450D01*
X13773035Y-9142450D01*
X13754520Y-9146386D01*
X13737227Y-9154085D01*
X13721913Y-9165211D01*
X13709247Y-9179278D01*
X13699782Y-9195672D01*
X13693933Y-9213674D01*
X13693932Y-9213674D01*
X13693933Y-9213674D01*
X13691954Y-9232500D01*
X13114500Y-9232500D01*
X13114500Y-9151351D01*
X13116047Y-9145352D01*
X13120303Y-9140851D01*
X13126205Y-9138970D01*
X13132280Y-9140179D01*
X13138886Y-9143360D01*
X13163950Y-9151091D01*
X13189886Y-9155000D01*
X13216114Y-9155000D01*
X13242050Y-9151091D01*
X13267114Y-9143360D01*
X13290746Y-9131979D01*
X13307917Y-9120272D01*
X13203000Y-9015355D01*
X13167645Y-8980000D01*
X13238355Y-8980000D01*
X13343212Y-9084857D01*
X13347997Y-9078857D01*
X13361112Y-9056142D01*
X13370694Y-9031727D01*
X13376531Y-9006155D01*
X13378491Y-8980000D01*
X13378454Y-8979511D01*
X15156503Y-8979511D01*
X15158486Y-9002172D01*
X15164373Y-9024144D01*
X15173987Y-9044760D01*
X15179097Y-9052058D01*
X15179097Y-9052059D01*
X15251645Y-8979511D01*
X15251645Y-8979511D01*
X15251644Y-8979511D01*
X15322355Y-8979511D01*
X15394902Y-9052059D01*
X15400013Y-9044759D01*
X15409627Y-9024144D01*
X15415514Y-9002172D01*
X15417497Y-8979511D01*
X15415514Y-8956851D01*
X15409627Y-8934879D01*
X15400013Y-8914263D01*
X15394902Y-8906964D01*
X15322355Y-8979511D01*
X15322355Y-8979511D01*
X15251644Y-8979511D01*
X15179097Y-8906964D01*
X15179097Y-8906964D01*
X15173986Y-8914263D01*
X15164373Y-8934879D01*
X15158486Y-8956851D01*
X15156503Y-8979511D01*
X13378454Y-8979511D01*
X13376531Y-8953845D01*
X13370694Y-8928273D01*
X13361112Y-8903858D01*
X13347997Y-8881143D01*
X13343212Y-8875143D01*
X13238355Y-8980000D01*
X13238355Y-8980000D01*
X13167645Y-8980000D01*
X13062787Y-8875143D01*
X13058003Y-8881143D01*
X13044888Y-8903858D01*
X13035306Y-8928273D01*
X13029469Y-8953845D01*
X13027509Y-8980000D01*
X13029469Y-9006155D01*
X13035306Y-9031727D01*
X13044888Y-9056142D01*
X13058003Y-9078857D01*
X13064659Y-9087205D01*
X13067288Y-9093557D01*
X13066129Y-9100333D01*
X13061538Y-9105450D01*
X13054928Y-9107336D01*
X12843500Y-9106707D01*
X12836916Y-9104791D01*
X12832357Y-9099670D01*
X12831216Y-9092909D01*
X12833842Y-9086575D01*
X12839997Y-9078857D01*
X12853112Y-9056142D01*
X12862694Y-9031727D01*
X12868531Y-9006155D01*
X12870491Y-8980000D01*
X12868531Y-8953845D01*
X12862694Y-8928273D01*
X12853112Y-8903858D01*
X12839997Y-8881143D01*
X12835212Y-8875143D01*
X12695000Y-9015355D01*
X12590083Y-9120272D01*
X12607255Y-9131979D01*
X12630886Y-9143360D01*
X12655950Y-9151091D01*
X12681886Y-9155000D01*
X12708114Y-9155000D01*
X12734050Y-9151091D01*
X12759114Y-9143360D01*
X12760556Y-9142665D01*
X12766642Y-9141457D01*
X12772552Y-9143349D01*
X12776805Y-9147867D01*
X12778336Y-9153880D01*
X12777785Y-9313940D01*
X12776222Y-9319923D01*
X12771964Y-9324408D01*
X12766069Y-9326278D01*
X12760004Y-9325069D01*
X12759114Y-9324640D01*
X12734050Y-9316909D01*
X12708114Y-9313000D01*
X12681886Y-9313000D01*
X12655950Y-9316909D01*
X12630886Y-9324640D01*
X12607254Y-9336021D01*
X12590083Y-9347728D01*
X12499050Y-9347728D01*
X12499050Y-9017983D01*
X12500487Y-9012189D01*
X12504465Y-9007737D01*
X12510062Y-9005661D01*
X12515980Y-9006440D01*
X12520849Y-9009894D01*
X12523539Y-9015223D01*
X12527306Y-9031727D01*
X12536888Y-9056142D01*
X12550003Y-9078857D01*
X12554787Y-9084857D01*
X12554787Y-9084857D01*
X12659645Y-8980000D01*
X12659645Y-8980000D01*
X12554787Y-8875143D01*
X12550003Y-8881142D01*
X12536888Y-8903858D01*
X12527306Y-8928273D01*
X12523539Y-8944777D01*
X12520849Y-8950106D01*
X12515980Y-8953560D01*
X12510062Y-8954339D01*
X12504465Y-8952263D01*
X12500487Y-8947811D01*
X12499050Y-8942017D01*
X12499050Y-8839728D01*
X12590083Y-8839728D01*
X12695000Y-8944645D01*
X12695000Y-8944645D01*
X12799917Y-8839728D01*
X13098083Y-8839728D01*
X13203000Y-8944645D01*
X13203000Y-8944645D01*
X13307917Y-8839728D01*
X13290745Y-8828021D01*
X13267114Y-8816640D01*
X13242050Y-8808909D01*
X13216114Y-8805000D01*
X13189886Y-8805000D01*
X13163950Y-8808909D01*
X13138886Y-8816640D01*
X13115254Y-8828021D01*
X13098083Y-8839728D01*
X12799917Y-8839728D01*
X12782745Y-8828021D01*
X12759114Y-8816640D01*
X12734050Y-8808909D01*
X12708114Y-8805000D01*
X12681886Y-8805000D01*
X12655950Y-8808909D01*
X12630886Y-8816640D01*
X12607254Y-8828021D01*
X12590083Y-8839728D01*
X12499050Y-8839728D01*
X12499050Y-8803990D01*
X12498188Y-8801898D01*
X12497943Y-8801531D01*
X12497000Y-8796788D01*
X12497000Y-8648743D01*
X13193950Y-8648743D01*
X13194453Y-8654009D01*
X13195447Y-8664422D01*
X13201368Y-8684587D01*
X13210999Y-8703268D01*
X13223991Y-8719788D01*
X13223991Y-8719789D01*
X13231867Y-8726614D01*
X13239874Y-8733552D01*
X13249726Y-8739240D01*
X13258076Y-8744060D01*
X13260162Y-8744782D01*
X13277937Y-8750934D01*
X13281430Y-8751437D01*
X13298740Y-8753925D01*
X13319733Y-8752925D01*
X13340158Y-8747970D01*
X13348719Y-8744060D01*
X13359275Y-8739240D01*
X13363919Y-8735933D01*
X13376395Y-8727049D01*
X13390899Y-8711838D01*
X13401512Y-8695322D01*
X13402261Y-8694157D01*
X13402261Y-8694157D01*
X13405927Y-8685000D01*
X13934500Y-8685000D01*
X13934500Y-8744782D01*
X13935140Y-8750738D01*
X13940165Y-8764209D01*
X13948781Y-8775719D01*
X13960291Y-8784335D01*
X13973762Y-8789360D01*
X13979718Y-8790000D01*
X14039500Y-8790000D01*
X14039500Y-8685000D01*
X14089500Y-8685000D01*
X14089500Y-8790000D01*
X14149282Y-8790000D01*
X14155237Y-8789360D01*
X14168709Y-8784335D01*
X14180219Y-8775719D01*
X14188835Y-8764209D01*
X14193860Y-8750738D01*
X14194500Y-8744782D01*
X14194500Y-8685000D01*
X14089500Y-8685000D01*
X14039500Y-8685000D01*
X13934500Y-8685000D01*
X13405927Y-8685000D01*
X13410072Y-8674646D01*
X13414050Y-8654009D01*
X13414050Y-8635000D01*
X13934500Y-8635000D01*
X14039500Y-8635000D01*
X14089500Y-8635000D01*
X14194500Y-8635000D01*
X14194500Y-8575218D01*
X14193860Y-8569262D01*
X14188835Y-8555791D01*
X14180219Y-8544281D01*
X14168709Y-8535665D01*
X14154357Y-8530312D01*
X14149319Y-8526814D01*
X14146574Y-8521329D01*
X14146793Y-8515200D01*
X14149922Y-8509925D01*
X14159848Y-8500000D01*
X14284435Y-8500000D01*
X14286483Y-8514246D01*
X14292462Y-8527337D01*
X14301150Y-8537364D01*
X14301887Y-8538214D01*
X14313995Y-8545995D01*
X14327804Y-8550050D01*
X14330346Y-8550050D01*
X14335091Y-8550994D01*
X14339114Y-8553682D01*
X14631736Y-8846304D01*
X14633349Y-8848290D01*
X14633856Y-8849067D01*
X14636147Y-8850850D01*
X14637249Y-8851823D01*
X14638112Y-8852439D01*
X14638836Y-8852956D01*
X14639242Y-8853259D01*
X14643087Y-8856252D01*
X14643088Y-8856252D01*
X14643677Y-8856711D01*
X14649059Y-8858313D01*
X14649544Y-8858468D01*
X14654151Y-8860050D01*
X14654151Y-8860050D01*
X14654858Y-8860293D01*
X14655604Y-8860262D01*
X14655605Y-8860262D01*
X14660467Y-8860061D01*
X14660979Y-8860050D01*
X15201932Y-8860050D01*
X15208441Y-8861896D01*
X15213013Y-8866885D01*
X15213790Y-8870946D01*
X15287000Y-8944156D01*
X15287000Y-8944156D01*
X15360210Y-8870946D01*
X15360987Y-8866885D01*
X15365558Y-8861896D01*
X15372068Y-8860050D01*
X15772550Y-8860050D01*
X15778750Y-8861711D01*
X15783289Y-8866250D01*
X15784950Y-8872450D01*
X15784950Y-10810079D01*
X15784686Y-10812623D01*
X15784496Y-10813531D01*
X15784855Y-10816412D01*
X15784946Y-10817880D01*
X15785266Y-10819801D01*
X15785340Y-10820308D01*
X15786035Y-10825881D01*
X15788708Y-10830820D01*
X15788942Y-10831275D01*
X15791080Y-10835648D01*
X15791080Y-10835649D01*
X15791408Y-10836320D01*
X15791958Y-10836826D01*
X15791958Y-10836826D01*
X15792686Y-10837496D01*
X15795540Y-10840123D01*
X15795910Y-10840478D01*
X15941916Y-10986484D01*
X15943529Y-10988470D01*
X15944036Y-10989247D01*
X15946327Y-10991030D01*
X15947429Y-10992003D01*
X15949015Y-10993135D01*
X15949426Y-10993442D01*
X15953857Y-10996891D01*
X15959239Y-10998493D01*
X15959724Y-10998648D01*
X15964331Y-11000230D01*
X15964331Y-11000230D01*
X15965038Y-11000473D01*
X15965784Y-11000442D01*
X15965785Y-11000442D01*
X15970647Y-11000241D01*
X15971159Y-11000230D01*
X16110570Y-11000230D01*
X16116985Y-11002018D01*
X16121550Y-11006867D01*
X16121926Y-11007585D01*
X16124771Y-11010797D01*
X16133207Y-11020318D01*
X16147207Y-11029982D01*
X16163113Y-11036014D01*
X16175763Y-11037550D01*
X16184838Y-11037550D01*
X16189015Y-11038275D01*
X16192705Y-11040365D01*
X16197857Y-11044594D01*
X16214370Y-11053420D01*
X16232287Y-11058855D01*
X16250920Y-11060690D01*
X16269553Y-11058855D01*
X16287470Y-11053420D01*
X16303982Y-11044594D01*
X16318456Y-11032716D01*
X16330334Y-11018243D01*
X16339160Y-11001730D01*
X16344595Y-10983813D01*
X16346430Y-10965180D01*
X16344595Y-10946547D01*
X16339160Y-10928630D01*
X16330334Y-10912118D01*
X16318456Y-10897644D01*
X16305787Y-10887247D01*
X16303982Y-10885766D01*
X16287470Y-10876940D01*
X16269553Y-10871505D01*
X16250920Y-10869670D01*
X16232287Y-10871505D01*
X16214370Y-10876940D01*
X16197857Y-10885766D01*
X16187051Y-10894635D01*
X16183362Y-10896725D01*
X16179184Y-10897450D01*
X16175763Y-10897450D01*
X16169438Y-10898218D01*
X16163113Y-10898986D01*
X16147207Y-10905018D01*
X16133207Y-10914682D01*
X16123222Y-10925953D01*
X16119029Y-10929038D01*
X16113940Y-10930130D01*
X15989834Y-10930130D01*
X15985089Y-10929186D01*
X15981066Y-10926498D01*
X15858682Y-10804114D01*
X15855994Y-10800091D01*
X15855050Y-10795346D01*
X15855050Y-10664554D01*
X15856401Y-10658925D01*
X15860161Y-10654523D01*
X15865510Y-10652307D01*
X15871282Y-10652761D01*
X15876218Y-10655786D01*
X15923850Y-10703418D01*
X15926170Y-10706636D01*
X15927355Y-10710421D01*
X15928983Y-10721746D01*
X15934962Y-10734837D01*
X15936911Y-10737086D01*
X15944387Y-10745714D01*
X15956495Y-10753495D01*
X15970304Y-10757550D01*
X15984696Y-10757550D01*
X15998505Y-10753495D01*
X16010613Y-10745714D01*
X16010613Y-10745714D01*
X16012113Y-10744750D01*
X16012214Y-10744908D01*
X16013866Y-10743671D01*
X16019018Y-10742550D01*
X16096664Y-10742550D01*
X16103079Y-10744338D01*
X16107643Y-10749188D01*
X16109426Y-10752585D01*
X16119754Y-10764242D01*
X16120707Y-10765318D01*
X16134707Y-10774982D01*
X16150613Y-10781014D01*
X16163263Y-10782550D01*
X16183620Y-10782550D01*
X16187797Y-10783275D01*
X16191486Y-10785365D01*
X16197857Y-10790594D01*
X16214370Y-10799420D01*
X16232287Y-10804855D01*
X16250920Y-10806690D01*
X16269553Y-10804855D01*
X16287470Y-10799420D01*
X16303982Y-10790594D01*
X16318456Y-10778716D01*
X16330334Y-10764243D01*
X16339160Y-10747730D01*
X16344595Y-10729813D01*
X16346430Y-10711180D01*
X16344595Y-10692547D01*
X16339160Y-10674630D01*
X16330334Y-10658118D01*
X16318456Y-10643644D01*
X16303982Y-10631766D01*
X16303982Y-10631766D01*
X16287470Y-10622940D01*
X16269553Y-10617505D01*
X16250920Y-10615670D01*
X16232287Y-10617505D01*
X16214370Y-10622940D01*
X16197857Y-10631766D01*
X16188269Y-10639635D01*
X16184580Y-10641725D01*
X16180403Y-10642450D01*
X16163263Y-10642450D01*
X16156938Y-10643218D01*
X16150613Y-10643986D01*
X16134707Y-10650018D01*
X16120707Y-10659682D01*
X16113096Y-10668273D01*
X16108904Y-10671358D01*
X16103815Y-10672450D01*
X16019018Y-10672450D01*
X16013866Y-10671329D01*
X16012214Y-10670092D01*
X16012113Y-10670250D01*
X16003341Y-10664612D01*
X15998505Y-10661505D01*
X15984696Y-10657450D01*
X15982154Y-10657450D01*
X15977409Y-10656506D01*
X15973386Y-10653818D01*
X15925682Y-10606114D01*
X15922994Y-10602091D01*
X15922050Y-10597346D01*
X15922050Y-10391554D01*
X15923401Y-10385925D01*
X15927161Y-10381523D01*
X15932510Y-10379307D01*
X15938282Y-10379761D01*
X15943218Y-10382786D01*
X16016350Y-10455918D01*
X16018670Y-10459136D01*
X16019855Y-10462921D01*
X16021483Y-10474246D01*
X16027462Y-10487337D01*
X16036577Y-10497856D01*
X16036887Y-10498214D01*
X16048995Y-10505995D01*
X16062804Y-10510050D01*
X16077196Y-10510050D01*
X16091005Y-10505995D01*
X16103113Y-10498214D01*
X16103423Y-10497856D01*
X16109257Y-10494092D01*
X16116201Y-10494054D01*
X16122076Y-10497754D01*
X16133140Y-10510243D01*
X16133207Y-10510318D01*
X16147207Y-10519982D01*
X16163113Y-10526014D01*
X16175763Y-10527550D01*
X16182401Y-10527550D01*
X16186578Y-10528275D01*
X16190268Y-10530365D01*
X16197857Y-10536594D01*
X16214370Y-10545420D01*
X16232287Y-10550855D01*
X16250920Y-10552690D01*
X16269553Y-10550855D01*
X16287470Y-10545420D01*
X16303982Y-10536594D01*
X16318456Y-10524716D01*
X16330334Y-10510243D01*
X16339160Y-10493730D01*
X16344595Y-10475813D01*
X16346430Y-10457180D01*
X16344595Y-10438547D01*
X16339160Y-10420630D01*
X16330334Y-10404118D01*
X16318456Y-10389644D01*
X16303982Y-10377766D01*
X16303982Y-10377766D01*
X16287470Y-10368940D01*
X16269553Y-10363505D01*
X16250920Y-10361670D01*
X16232287Y-10363505D01*
X16214370Y-10368940D01*
X16197857Y-10377766D01*
X16189488Y-10384635D01*
X16185799Y-10386725D01*
X16181621Y-10387450D01*
X16175763Y-10387450D01*
X16169438Y-10388218D01*
X16163113Y-10388986D01*
X16147207Y-10395018D01*
X16133207Y-10404682D01*
X16121450Y-10417953D01*
X16117258Y-10421038D01*
X16112168Y-10422130D01*
X16107289Y-10422130D01*
X16100586Y-10420162D01*
X16091005Y-10414005D01*
X16077196Y-10409950D01*
X16074654Y-10409950D01*
X16069909Y-10409006D01*
X16065886Y-10406318D01*
X15990682Y-10331114D01*
X15987994Y-10327091D01*
X15987050Y-10322346D01*
X15987050Y-10203180D01*
X16155410Y-10203180D01*
X16157245Y-10221813D01*
X16162680Y-10239730D01*
X16171506Y-10256242D01*
X16171720Y-10256503D01*
X16183384Y-10270716D01*
X16197857Y-10282594D01*
X16214370Y-10291420D01*
X16232287Y-10296855D01*
X16250920Y-10298690D01*
X16269553Y-10296855D01*
X16287470Y-10291420D01*
X16303982Y-10282594D01*
X16318456Y-10270716D01*
X16330334Y-10256243D01*
X16339160Y-10239730D01*
X16344595Y-10221813D01*
X16346430Y-10203180D01*
X16344595Y-10184547D01*
X16339160Y-10166630D01*
X16330334Y-10150118D01*
X16318456Y-10135644D01*
X16303982Y-10123766D01*
X16303982Y-10123766D01*
X16287470Y-10114940D01*
X16269553Y-10109505D01*
X16250920Y-10107670D01*
X16232287Y-10109505D01*
X16214370Y-10114940D01*
X16197857Y-10123766D01*
X16183384Y-10135644D01*
X16171506Y-10150118D01*
X16162680Y-10166630D01*
X16157245Y-10184547D01*
X16155410Y-10203180D01*
X15987050Y-10203180D01*
X15987050Y-9949180D01*
X16155410Y-9949180D01*
X16157245Y-9967813D01*
X16162680Y-9985730D01*
X16170447Y-10000261D01*
X16171506Y-10002243D01*
X16183384Y-10016716D01*
X16197857Y-10028594D01*
X16214370Y-10037420D01*
X16232287Y-10042855D01*
X16250920Y-10044690D01*
X16269553Y-10042855D01*
X16287470Y-10037420D01*
X16303982Y-10028594D01*
X16318456Y-10016716D01*
X16330334Y-10002243D01*
X16339160Y-9985730D01*
X16344595Y-9967813D01*
X16346430Y-9949180D01*
X16344595Y-9930547D01*
X16339160Y-9912630D01*
X16330334Y-9896118D01*
X16318456Y-9881644D01*
X16303982Y-9869766D01*
X16303982Y-9869766D01*
X16287470Y-9860940D01*
X16269553Y-9855505D01*
X16250920Y-9853670D01*
X16232287Y-9855505D01*
X16214370Y-9860940D01*
X16197857Y-9869766D01*
X16183384Y-9881644D01*
X16171506Y-9896118D01*
X16162680Y-9912630D01*
X16157245Y-9930547D01*
X16155410Y-9949180D01*
X15987050Y-9949180D01*
X15987050Y-9720180D01*
X16117856Y-9720180D01*
X16123577Y-9741529D01*
X16133560Y-9762938D01*
X16147109Y-9782288D01*
X16163812Y-9798991D01*
X16183162Y-9812540D01*
X16204571Y-9822523D01*
X16225920Y-9828244D01*
X16225920Y-9828244D01*
X16225920Y-9720180D01*
X16275920Y-9720180D01*
X16275920Y-9828244D01*
X16297269Y-9822523D01*
X16318678Y-9812540D01*
X16338028Y-9798991D01*
X16354731Y-9782288D01*
X16368280Y-9762938D01*
X16378263Y-9741529D01*
X16383984Y-9720180D01*
X16275920Y-9720180D01*
X16225920Y-9720180D01*
X16117856Y-9720180D01*
X15987050Y-9720180D01*
X15987050Y-9670180D01*
X16117856Y-9670180D01*
X16225920Y-9670180D01*
X16225920Y-9562116D01*
X16275920Y-9562116D01*
X16275920Y-9670180D01*
X16383984Y-9670180D01*
X16383983Y-9670180D01*
X16378263Y-9648831D01*
X16368280Y-9627422D01*
X16354731Y-9608072D01*
X16338028Y-9591369D01*
X16318678Y-9577820D01*
X16297269Y-9567837D01*
X16275920Y-9562116D01*
X16225920Y-9562116D01*
X16225920Y-9562116D01*
X16204571Y-9567837D01*
X16183162Y-9577820D01*
X16163812Y-9591369D01*
X16147109Y-9608072D01*
X16133560Y-9627422D01*
X16123577Y-9648831D01*
X16117856Y-9670180D01*
X16117856Y-9670180D01*
X15987050Y-9670180D01*
X15987050Y-9441180D01*
X16155410Y-9441180D01*
X16157245Y-9459813D01*
X16162680Y-9477730D01*
X16168170Y-9488000D01*
X16171506Y-9494243D01*
X16183384Y-9508716D01*
X16197857Y-9520594D01*
X16214370Y-9529420D01*
X16232287Y-9534855D01*
X16250920Y-9536690D01*
X16269553Y-9534855D01*
X16287470Y-9529420D01*
X16303982Y-9520594D01*
X16318456Y-9508716D01*
X16330334Y-9494243D01*
X16339160Y-9477730D01*
X16344595Y-9459813D01*
X16346430Y-9441180D01*
X16344595Y-9422547D01*
X16339160Y-9404630D01*
X16330334Y-9388118D01*
X16318456Y-9373644D01*
X16303982Y-9361766D01*
X16303982Y-9361766D01*
X16287470Y-9352940D01*
X16269553Y-9347505D01*
X16260236Y-9346588D01*
X16250920Y-9345670D01*
X16250920Y-9345670D01*
X16232287Y-9347505D01*
X16214370Y-9352940D01*
X16197857Y-9361766D01*
X16183384Y-9373644D01*
X16171506Y-9388118D01*
X16162680Y-9404630D01*
X16157245Y-9422547D01*
X16155410Y-9441180D01*
X15987050Y-9441180D01*
X15987050Y-9187180D01*
X16155410Y-9187180D01*
X16156328Y-9196497D01*
X16157245Y-9205813D01*
X16162680Y-9223730D01*
X16167368Y-9232500D01*
X16171506Y-9240243D01*
X16183384Y-9254716D01*
X16197857Y-9266594D01*
X16214370Y-9275420D01*
X16232287Y-9280855D01*
X16250920Y-9282690D01*
X16269553Y-9280855D01*
X16287470Y-9275420D01*
X16303982Y-9266594D01*
X16318456Y-9254716D01*
X16330334Y-9240243D01*
X16339160Y-9223730D01*
X16344595Y-9205813D01*
X16346430Y-9187180D01*
X16344595Y-9168547D01*
X16339160Y-9150630D01*
X16330334Y-9134118D01*
X16318456Y-9119644D01*
X16305637Y-9109124D01*
X16303982Y-9107766D01*
X16287470Y-9098940D01*
X16269553Y-9093505D01*
X16250920Y-9091670D01*
X16232287Y-9093505D01*
X16214370Y-9098940D01*
X16197857Y-9107766D01*
X16183384Y-9119644D01*
X16171506Y-9134118D01*
X16162680Y-9150630D01*
X16157245Y-9168547D01*
X16157245Y-9168547D01*
X16157245Y-9168547D01*
X16155410Y-9187180D01*
X15987050Y-9187180D01*
X15987050Y-8720421D01*
X15987314Y-8717876D01*
X15987347Y-8717718D01*
X15987504Y-8716969D01*
X15987145Y-8714088D01*
X15987054Y-8712621D01*
X15987050Y-8712597D01*
X15987050Y-8712596D01*
X15986733Y-8710697D01*
X15986659Y-8710192D01*
X15986057Y-8705361D01*
X15986057Y-8705361D01*
X15985965Y-8704619D01*
X15985609Y-8703962D01*
X15985609Y-8703962D01*
X15983292Y-8699681D01*
X15983058Y-8699226D01*
X15980592Y-8694181D01*
X15979382Y-8693067D01*
X15976459Y-8690376D01*
X15976091Y-8690023D01*
X15933764Y-8647696D01*
X15932151Y-8645709D01*
X15931644Y-8644933D01*
X15929353Y-8643150D01*
X15928251Y-8642177D01*
X15926665Y-8641045D01*
X15926254Y-8640738D01*
X15921823Y-8637289D01*
X15916441Y-8635687D01*
X15915953Y-8635531D01*
X15910642Y-8633707D01*
X15905033Y-8633939D01*
X15904521Y-8633950D01*
X14921154Y-8633950D01*
X14916409Y-8633006D01*
X14912386Y-8630318D01*
X14781150Y-8499082D01*
X14778830Y-8495865D01*
X14777645Y-8492079D01*
X14776016Y-8480754D01*
X14770038Y-8467663D01*
X14760613Y-8456786D01*
X14760613Y-8456786D01*
X14759374Y-8455990D01*
X15287450Y-8455990D01*
X15288033Y-8458921D01*
X15289947Y-8461786D01*
X15290254Y-8462246D01*
X15293579Y-8464467D01*
X15296510Y-8465050D01*
X15458490Y-8465050D01*
X15458490Y-8465050D01*
X15459955Y-8464758D01*
X15461421Y-8464467D01*
X15464746Y-8462246D01*
X15466967Y-8458921D01*
X15467550Y-8455990D01*
X15467550Y-8370000D01*
X16534664Y-8370000D01*
X16536550Y-8396376D01*
X16542171Y-8422215D01*
X16542171Y-8422215D01*
X16551323Y-8446754D01*
X16551412Y-8446992D01*
X16564085Y-8470200D01*
X16567864Y-8475248D01*
X16579932Y-8491370D01*
X16598630Y-8510068D01*
X16613120Y-8520915D01*
X16619800Y-8525915D01*
X16632109Y-8532636D01*
X16643008Y-8538588D01*
X16667785Y-8547829D01*
X16667785Y-8547829D01*
X16667785Y-8547829D01*
X16671706Y-8548682D01*
X16693624Y-8553450D01*
X16720000Y-8555336D01*
X16746376Y-8553450D01*
X16772215Y-8547829D01*
X16796992Y-8538588D01*
X16820200Y-8525915D01*
X16841370Y-8510068D01*
X16860068Y-8491370D01*
X16875915Y-8470200D01*
X16888588Y-8446992D01*
X16897829Y-8422215D01*
X16903450Y-8396376D01*
X16905336Y-8370000D01*
X16903450Y-8343624D01*
X16898427Y-8320533D01*
X16897829Y-8317785D01*
X16897829Y-8317785D01*
X16888588Y-8293008D01*
X16876509Y-8270887D01*
X16875915Y-8269800D01*
X16860880Y-8249715D01*
X16860068Y-8248630D01*
X16841370Y-8229932D01*
X16827611Y-8219633D01*
X16820200Y-8214085D01*
X16796992Y-8201412D01*
X16796992Y-8201412D01*
X16796992Y-8201412D01*
X16772215Y-8192171D01*
X16772215Y-8192171D01*
X16746376Y-8186550D01*
X16720000Y-8184664D01*
X16693624Y-8186550D01*
X16667785Y-8192171D01*
X16643008Y-8201412D01*
X16619800Y-8214085D01*
X16598630Y-8229932D01*
X16579932Y-8248630D01*
X16564085Y-8269800D01*
X16551412Y-8293008D01*
X16542171Y-8317785D01*
X16536550Y-8343624D01*
X16534664Y-8370000D01*
X15467550Y-8370000D01*
X15467550Y-8294010D01*
X15467550Y-8294010D01*
X15466967Y-8291079D01*
X15465629Y-8289077D01*
X15464746Y-8287754D01*
X15461421Y-8285533D01*
X15461421Y-8285533D01*
X15458490Y-8284950D01*
X15457231Y-8284950D01*
X15452486Y-8284006D01*
X15448463Y-8281318D01*
X15377500Y-8210355D01*
X15377500Y-8210355D01*
X15306537Y-8281318D01*
X15302514Y-8284006D01*
X15297769Y-8284950D01*
X15296510Y-8284950D01*
X15293579Y-8285533D01*
X15290254Y-8287754D01*
X15288033Y-8291079D01*
X15287450Y-8294010D01*
X15287450Y-8455990D01*
X14759374Y-8455990D01*
X14748505Y-8449005D01*
X14734696Y-8444950D01*
X14720304Y-8444950D01*
X14706495Y-8449005D01*
X14694387Y-8456786D01*
X14684962Y-8467663D01*
X14678983Y-8480754D01*
X14676935Y-8495000D01*
X14678983Y-8509246D01*
X14684962Y-8522337D01*
X14693891Y-8532642D01*
X14694387Y-8533214D01*
X14706495Y-8540995D01*
X14720304Y-8545050D01*
X14722846Y-8545050D01*
X14727591Y-8545994D01*
X14731614Y-8548682D01*
X14873236Y-8690304D01*
X14874849Y-8692290D01*
X14875356Y-8693067D01*
X14877647Y-8694850D01*
X14878750Y-8695824D01*
X14880335Y-8696956D01*
X14880746Y-8697262D01*
X14885242Y-8700762D01*
X14886760Y-8701543D01*
X14887577Y-8702126D01*
X14887484Y-8702257D01*
X14890882Y-8704458D01*
X14893765Y-8710813D01*
X14892759Y-8717718D01*
X14888183Y-8722987D01*
X14881487Y-8724950D01*
X14747154Y-8724950D01*
X14742409Y-8724006D01*
X14738386Y-8721318D01*
X14521442Y-8504374D01*
X14519122Y-8501156D01*
X14517937Y-8497371D01*
X14516266Y-8485754D01*
X14510288Y-8472663D01*
X14510288Y-8472663D01*
X14510288Y-8472663D01*
X14500863Y-8461786D01*
X14500863Y-8461786D01*
X14488755Y-8454005D01*
X14474946Y-8449950D01*
X14460554Y-8449950D01*
X14446745Y-8454005D01*
X14434637Y-8461786D01*
X14425212Y-8472663D01*
X14419233Y-8485754D01*
X14417185Y-8500000D01*
X14417360Y-8501218D01*
X14416705Y-8507316D01*
X14413207Y-8512354D01*
X14407722Y-8515099D01*
X14401593Y-8514880D01*
X14396318Y-8511750D01*
X14388650Y-8504082D01*
X14386330Y-8500865D01*
X14385145Y-8497079D01*
X14383516Y-8485754D01*
X14377538Y-8472663D01*
X14368113Y-8461786D01*
X14368113Y-8461786D01*
X14356005Y-8454005D01*
X14342196Y-8449950D01*
X14327804Y-8449950D01*
X14313995Y-8454005D01*
X14301887Y-8461786D01*
X14292462Y-8472663D01*
X14286483Y-8485754D01*
X14284435Y-8500000D01*
X14159848Y-8500000D01*
X14165966Y-8493882D01*
X14179013Y-8475248D01*
X14188627Y-8454633D01*
X14193887Y-8435000D01*
X14091000Y-8435000D01*
X14091000Y-8537364D01*
X14090056Y-8542109D01*
X14089500Y-8542941D01*
X14089500Y-8635000D01*
X14039500Y-8635000D01*
X14039500Y-8532636D01*
X14040444Y-8527891D01*
X14041000Y-8527059D01*
X14041000Y-8435000D01*
X13938113Y-8435000D01*
X13943373Y-8454633D01*
X13952986Y-8475248D01*
X13966034Y-8493882D01*
X13981648Y-8509496D01*
X13984972Y-8515520D01*
X13984573Y-8522389D01*
X13980574Y-8527988D01*
X13974205Y-8530593D01*
X13973763Y-8530640D01*
X13960291Y-8535665D01*
X13948781Y-8544281D01*
X13940165Y-8555791D01*
X13935140Y-8569262D01*
X13934500Y-8575218D01*
X13934500Y-8635000D01*
X13414050Y-8635000D01*
X13414050Y-8497258D01*
X13414050Y-8404758D01*
X13412553Y-8389078D01*
X13411355Y-8385000D01*
X13938113Y-8385000D01*
X14041000Y-8385000D01*
X14041000Y-8282113D01*
X14091000Y-8282113D01*
X14091000Y-8385000D01*
X14193887Y-8385000D01*
X14193887Y-8385000D01*
X14188627Y-8365367D01*
X14179013Y-8344752D01*
X14165966Y-8326118D01*
X14149882Y-8310034D01*
X14131248Y-8296986D01*
X14110633Y-8287373D01*
X14091000Y-8282113D01*
X14041000Y-8282113D01*
X14041000Y-8282113D01*
X14021367Y-8287373D01*
X14000752Y-8296986D01*
X13982118Y-8310034D01*
X13966034Y-8326118D01*
X13952986Y-8344752D01*
X13943373Y-8365367D01*
X13938113Y-8385000D01*
X13938113Y-8385000D01*
X13411355Y-8385000D01*
X13406632Y-8368912D01*
X13397001Y-8350232D01*
X13396703Y-8349853D01*
X13394732Y-8346243D01*
X13394050Y-8342187D01*
X13394050Y-8329010D01*
X13393467Y-8326079D01*
X13391246Y-8322754D01*
X13387921Y-8320533D01*
X13384990Y-8319950D01*
X13384990Y-8319950D01*
X13371451Y-8319950D01*
X13365251Y-8318289D01*
X13364146Y-8317651D01*
X13360589Y-8315597D01*
X13349924Y-8309440D01*
X13330063Y-8302565D01*
X13309260Y-8299575D01*
X13309260Y-8299575D01*
X13298763Y-8300075D01*
X13288267Y-8300575D01*
X13267842Y-8305530D01*
X13248725Y-8314260D01*
X13243963Y-8317651D01*
X13240546Y-8319361D01*
X13236771Y-8319950D01*
X13223010Y-8319950D01*
X13220079Y-8320533D01*
X13216754Y-8322754D01*
X13214533Y-8326079D01*
X13213950Y-8329010D01*
X13213950Y-8342925D01*
X13213448Y-8346418D01*
X13211981Y-8349629D01*
X13205739Y-8359342D01*
X13197927Y-8378854D01*
X13194737Y-8395410D01*
X13193950Y-8399492D01*
X13193950Y-8491992D01*
X13193950Y-8648743D01*
X12497000Y-8648743D01*
X12497000Y-8365000D01*
X12762164Y-8365000D01*
X12764050Y-8391376D01*
X12769671Y-8417215D01*
X12772879Y-8425816D01*
X12778823Y-8441754D01*
X12778912Y-8441992D01*
X12791585Y-8465200D01*
X12797171Y-8472663D01*
X12807432Y-8486370D01*
X12826130Y-8505068D01*
X12839238Y-8514880D01*
X12847300Y-8520915D01*
X12849999Y-8522389D01*
X12870508Y-8533588D01*
X12895285Y-8542829D01*
X12895285Y-8542829D01*
X12895285Y-8542829D01*
X12900114Y-8543880D01*
X12921124Y-8548450D01*
X12947500Y-8550336D01*
X12973876Y-8548450D01*
X12999715Y-8542829D01*
X13024491Y-8533588D01*
X13047700Y-8520915D01*
X13068869Y-8505068D01*
X13087568Y-8486370D01*
X13103415Y-8465200D01*
X13116088Y-8441992D01*
X13125329Y-8417215D01*
X13130950Y-8391376D01*
X13132836Y-8365000D01*
X13130950Y-8338624D01*
X13125329Y-8312785D01*
X13116088Y-8288008D01*
X13106739Y-8270887D01*
X13103415Y-8264800D01*
X13099453Y-8259507D01*
X13087568Y-8243630D01*
X13068869Y-8224932D01*
X13054380Y-8214085D01*
X13047700Y-8209085D01*
X13024492Y-8196412D01*
X13024492Y-8196412D01*
X13024491Y-8196412D01*
X12999715Y-8187171D01*
X12999715Y-8187171D01*
X12973876Y-8181550D01*
X12947500Y-8179664D01*
X12921124Y-8181550D01*
X12895285Y-8187171D01*
X12870508Y-8196412D01*
X12847300Y-8209085D01*
X12826130Y-8224932D01*
X12807432Y-8243630D01*
X12791585Y-8264800D01*
X12778912Y-8288008D01*
X12769671Y-8312785D01*
X12764050Y-8338624D01*
X12762164Y-8365000D01*
X12497000Y-8365000D01*
X12497000Y-8175000D01*
X15247003Y-8175000D01*
X15248986Y-8197660D01*
X15254873Y-8219633D01*
X15264487Y-8240248D01*
X15269597Y-8247547D01*
X15269597Y-8247547D01*
X15342145Y-8175000D01*
X15342145Y-8175000D01*
X15342144Y-8175000D01*
X15412855Y-8175000D01*
X15485402Y-8247547D01*
X15490513Y-8240248D01*
X15500127Y-8219633D01*
X15506014Y-8197660D01*
X15507997Y-8175000D01*
X15506014Y-8152340D01*
X15500127Y-8130367D01*
X15490513Y-8109751D01*
X15485402Y-8102453D01*
X15412855Y-8175000D01*
X15412855Y-8175000D01*
X15342144Y-8175000D01*
X15269597Y-8102453D01*
X15269597Y-8102453D01*
X15264486Y-8109752D01*
X15254873Y-8130367D01*
X15248986Y-8152340D01*
X15247003Y-8175000D01*
X12497000Y-8175000D01*
X12497000Y-8067097D01*
X15304953Y-8067097D01*
X15377500Y-8139645D01*
X15377500Y-8139645D01*
X15450047Y-8067097D01*
X15450047Y-8067097D01*
X15442748Y-8061987D01*
X15422133Y-8052373D01*
X15400160Y-8046486D01*
X15377500Y-8044503D01*
X15354840Y-8046486D01*
X15332867Y-8052373D01*
X15312252Y-8061986D01*
X15304953Y-8067097D01*
X15304953Y-8067097D01*
X12497000Y-8067097D01*
X12497000Y-7944403D01*
X12498662Y-7938202D01*
X12503201Y-7933663D01*
X12509402Y-7932003D01*
X14463946Y-7932419D01*
G37*
%TD.AperFunction*%
%TD*%
D40*
X16904814Y-8370000D02*
G75*
G03*
X16904814Y-8370000I-184814J0D01*
G01*
X13132314Y-8365000D02*
G75*
G03*
X13132314Y-8365000I-184814J0D01*
G01*
X13137500Y-15880000D02*
G75*
G03*
X13137500Y-15880000I-184814J0D01*
G01*
X16905000Y-8787500D02*
X17070000Y-8787500D01*
X17070000Y-11907500D01*
X16905000Y-11907500D01*
X16905000Y-8787500D01*
X16907314Y-15875000D02*
G75*
G03*
X16907314Y-15875000I-184814J0D01*
G01*
X12496500Y-7931500D02*
X17192500Y-7931500D01*
X17192500Y-16320000D01*
X12496500Y-16320000D01*
X12496500Y-7931500D01*
D41*
%TO.C,J3*%
X12499000Y-8804000D02*
X12499000Y-9664000D01*
%TO.C,J5*%
X12498500Y-10481000D02*
X12498500Y-11341000D01*
%TD*%
M02*
