%TF.GenerationSoftware,KiCad,Pcbnew,7.0.1*%
%TF.CreationDate,2023-09-27T13:21:00+00:00*%
%TF.ProjectId,SI4735,53493437-3335-42e6-9b69-6361645f7063,rev?*%
%TF.SameCoordinates,Original*%
%TF.FileFunction,Soldermask,Top*%
%TF.FilePolarity,Negative*%
%FSLAX45Y45*%
G04 Gerber Fmt 4.5, Leading zero omitted, Abs format (unit mm)*
G04 Created by KiCad (PCBNEW 7.0.1) date 2023-09-27 13:21:00*
%MOMM*%
%LPD*%
G01*
G04 APERTURE LIST*
G04 Aperture macros list*
%AMRoundRect*
0 Rectangle with rounded corners*
0 $1 Rounding radius*
0 $2 $3 $4 $5 $6 $7 $8 $9 X,Y pos of 4 corners*
0 Add a 4 corners polygon primitive as box body*
4,1,4,$2,$3,$4,$5,$6,$7,$8,$9,$2,$3,0*
0 Add four circle primitives for the rounded corners*
1,1,$1+$1,$2,$3*
1,1,$1+$1,$4,$5*
1,1,$1+$1,$6,$7*
1,1,$1+$1,$8,$9*
0 Add four rect primitives between the rounded corners*
20,1,$1+$1,$2,$3,$4,$5,0*
20,1,$1+$1,$4,$5,$6,$7,0*
20,1,$1+$1,$6,$7,$8,$9,0*
20,1,$1+$1,$8,$9,$2,$3,0*%
G04 Aperture macros list end*
%ADD10C,1.600000*%
%ADD11O,1.600000X1.600000*%
%ADD12R,1.600000X1.600000*%
%ADD13R,1.500000X1.050000*%
%ADD14O,1.500000X1.050000*%
%ADD15R,1.700000X1.700000*%
%ADD16O,1.700000X1.700000*%
%ADD17RoundRect,0.200100X0.949900X-0.949900X0.949900X0.949900X-0.949900X0.949900X-0.949900X-0.949900X0*%
%ADD18C,2.500000*%
%ADD19C,1.700000*%
%ADD20R,2.200000X2.800000*%
%ADD21R,2.800000X2.800000*%
%ADD22R,1.200000X1.200000*%
%ADD23C,1.200000*%
%ADD24RoundRect,0.250000X0.312500X0.625000X-0.312500X0.625000X-0.312500X-0.625000X0.312500X-0.625000X0*%
%ADD25R,2.000000X1.500000*%
%ADD26R,2.000000X3.800000*%
%ADD27R,1.050000X1.500000*%
%ADD28O,1.050000X1.500000*%
%ADD29C,2.000000*%
%ADD30C,1.000000*%
%ADD31R,1.000000X1.000000*%
%ADD32RoundRect,0.250000X-0.625000X0.312500X-0.625000X-0.312500X0.625000X-0.312500X0.625000X0.312500X0*%
%ADD33R,1.676400X1.676400*%
%ADD34C,1.676400*%
%ADD35RoundRect,0.250000X0.625000X-0.312500X0.625000X0.312500X-0.625000X0.312500X-0.625000X-0.312500X0*%
%TA.AperFunction,Profile*%
%ADD36C,0.050000*%
%TD*%
%TA.AperFunction,Profile*%
%ADD37C,0.100000*%
%TD*%
G04 APERTURE END LIST*
D10*
%TO.C,L1*%
X13782500Y-9232500D03*
D11*
X13782500Y-9740500D03*
%TD*%
D12*
%TO.C,C7*%
X15266989Y-10400000D03*
D10*
X15466989Y-10400000D03*
%TD*%
D13*
%TO.C,Q3*%
X14721250Y-13134000D03*
D14*
X14721250Y-13007000D03*
X14721250Y-12880000D03*
%TD*%
D15*
%TO.C,J4*%
X14829800Y-15636210D03*
D16*
X15083800Y-15636210D03*
X15337800Y-15636210D03*
%TD*%
D12*
%TO.C,D4*%
X13807500Y-11751500D03*
D11*
X13045500Y-11751500D03*
%TD*%
D13*
%TO.C,Q2*%
X15695000Y-13116260D03*
D14*
X15695000Y-12989260D03*
X15695000Y-12862260D03*
%TD*%
D17*
%TO.C,J3*%
X12949000Y-9234000D03*
D18*
X12695000Y-9488000D03*
X13203000Y-9488000D03*
X12695000Y-8980000D03*
X13203000Y-8980000D03*
%TD*%
D15*
%TO.C,J2*%
X15337300Y-15993710D03*
D16*
X15083300Y-15993710D03*
X14829300Y-15993710D03*
%TD*%
D12*
%TO.C,U4*%
X14705480Y-14397100D03*
D11*
X14959480Y-14397100D03*
X15213480Y-14397100D03*
X15467480Y-14397100D03*
X15467480Y-13635100D03*
X15213480Y-13635100D03*
X14959480Y-13635100D03*
X14705480Y-13635100D03*
%TD*%
D10*
%TO.C,C21*%
X14865000Y-10995000D03*
X14865000Y-11245000D03*
%TD*%
D15*
%TO.C,J1*%
X16250920Y-8933180D03*
D16*
X16250920Y-9187180D03*
X16250920Y-9441180D03*
X16250920Y-9695180D03*
X16250920Y-9949180D03*
X16250920Y-10203180D03*
X16250920Y-10457180D03*
X16250920Y-10711180D03*
X16250920Y-10965180D03*
X16250920Y-11219180D03*
X16250920Y-11473180D03*
X16250920Y-11727180D03*
%TD*%
D12*
%TO.C,C16*%
X13495000Y-15715000D03*
D10*
X13495000Y-15915000D03*
%TD*%
D19*
%TO.C,J10*%
X12820000Y-12437500D03*
X13520000Y-12437500D03*
D20*
X12910000Y-12067500D03*
X12710000Y-12807500D03*
D21*
X13650000Y-12807500D03*
%TD*%
D12*
%TO.C,C1*%
X15377500Y-8375000D03*
D10*
X15377500Y-8175000D03*
%TD*%
D22*
%TO.C,C20*%
X14212500Y-13080000D03*
D23*
X14212500Y-12880000D03*
%TD*%
D22*
%TO.C,C18*%
X15487500Y-11680000D03*
D23*
X15487500Y-11480000D03*
%TD*%
D12*
%TO.C,C11*%
X16132500Y-15820000D03*
D10*
X15752500Y-15820000D03*
%TD*%
D12*
%TO.C,C12*%
X14025000Y-15819700D03*
D10*
X14405000Y-15819700D03*
%TD*%
D24*
%TO.C,R8*%
X14438680Y-14298320D03*
X14146180Y-14298320D03*
%TD*%
D22*
%TO.C,C19*%
X15182500Y-13064760D03*
D23*
X15182500Y-12864760D03*
%TD*%
D22*
%TO.C,C14*%
X13887500Y-13612120D03*
D23*
X13887500Y-13412120D03*
%TD*%
D12*
%TO.C,C8*%
X15290000Y-9727000D03*
D10*
X15290000Y-9527000D03*
%TD*%
D15*
%TO.C,J7*%
X14992000Y-12120000D03*
D16*
X15246000Y-12120000D03*
X15500000Y-12120000D03*
%TD*%
D25*
%TO.C,U1*%
X14857500Y-10620000D03*
X14857500Y-10390000D03*
D26*
X14227500Y-10390000D03*
D25*
X14857500Y-10160000D03*
%TD*%
D12*
%TO.C,D3*%
X13044500Y-11499000D03*
D11*
X13806500Y-11499000D03*
%TD*%
D27*
%TO.C,Q1*%
X14400580Y-13937240D03*
D28*
X14273580Y-13937240D03*
X14146580Y-13937240D03*
%TD*%
D29*
%TO.C,L2*%
X12847500Y-10280000D03*
X12847500Y-9880000D03*
%TD*%
D10*
%TO.C,C17*%
X15582500Y-11007500D03*
X15582500Y-11257500D03*
%TD*%
D12*
%TO.C,C5*%
X15287000Y-9179511D03*
D10*
X15287000Y-8979511D03*
%TD*%
D30*
%TO.C,Y1*%
X14250000Y-10896000D03*
X14440000Y-10896000D03*
%TD*%
D12*
%TO.C,D1*%
X14064500Y-8660000D03*
D11*
X13302500Y-8660000D03*
%TD*%
D31*
%TO.C,J8*%
X14050000Y-11652500D03*
%TD*%
%TO.C,J9*%
X14690000Y-11650000D03*
%TD*%
D32*
%TO.C,R14*%
X14273580Y-13380580D03*
X14273580Y-13673080D03*
%TD*%
D12*
%TO.C,D2*%
X13304000Y-8410000D03*
D11*
X14066000Y-8410000D03*
%TD*%
D17*
%TO.C,J5*%
X12948500Y-10911000D03*
D18*
X12694500Y-11165000D03*
X13202500Y-11165000D03*
X12694500Y-10657000D03*
X13202500Y-10657000D03*
%TD*%
D33*
%TO.C,U5*%
X13474500Y-15392000D03*
D34*
X13474500Y-15138000D03*
X13474500Y-14884000D03*
X13474500Y-14630000D03*
X13474500Y-14376000D03*
X13474500Y-14122000D03*
X13474500Y-13868000D03*
X13474500Y-13614000D03*
X13474500Y-13360000D03*
X12712500Y-13360000D03*
X12712500Y-13614000D03*
X12712500Y-13868000D03*
X12712500Y-14122000D03*
X12712500Y-14376000D03*
X12712500Y-14630000D03*
X12712500Y-14884000D03*
X12712500Y-15138000D03*
X12712500Y-15392000D03*
%TD*%
D25*
%TO.C,U2*%
X14857500Y-9867500D03*
X14857500Y-9637500D03*
D26*
X14227500Y-9637500D03*
D25*
X14857500Y-9407500D03*
%TD*%
D22*
%TO.C,C22*%
X15007500Y-11689760D03*
D23*
X15007500Y-11489760D03*
%TD*%
D35*
%TO.C,R15*%
X13915000Y-14110000D03*
X13915000Y-13817500D03*
%TD*%
G36*
X14522683Y-10997418D02*
G01*
X14528848Y-10999107D01*
X14533352Y-11003642D01*
X14535000Y-11009818D01*
X14535000Y-11987600D01*
X14533339Y-11993800D01*
X14528800Y-11998339D01*
X14522600Y-12000000D01*
X14177338Y-12000000D01*
X14171156Y-11998349D01*
X14166620Y-11993836D01*
X14164939Y-11987662D01*
X14160062Y-11007545D01*
X14161717Y-11001295D01*
X14166292Y-10996727D01*
X14172545Y-10995084D01*
X14522683Y-10997418D01*
G37*
D36*
X16904814Y-8370000D02*
G75*
G03*
X16904814Y-8370000I-184814J0D01*
G01*
X13132314Y-8365000D02*
G75*
G03*
X13132314Y-8365000I-184814J0D01*
G01*
X13137500Y-15880000D02*
G75*
G03*
X13137500Y-15880000I-184814J0D01*
G01*
X16905000Y-8787500D02*
X17070000Y-8787500D01*
X17070000Y-11907500D01*
X16905000Y-11907500D01*
X16905000Y-8787500D01*
X16907314Y-15875000D02*
G75*
G03*
X16907314Y-15875000I-184814J0D01*
G01*
X12496500Y-7931500D02*
X17192500Y-7931500D01*
X17192500Y-16320000D01*
X12496500Y-16320000D01*
X12496500Y-7931500D01*
D37*
%TO.C,J3*%
X12499000Y-8804000D02*
X12499000Y-9664000D01*
%TO.C,J5*%
X12498500Y-10481000D02*
X12498500Y-11341000D01*
%TD*%
M02*
