%TF.GenerationSoftware,KiCad,Pcbnew,7.0.1*%
%TF.CreationDate,2023-09-27T13:21:00+00:00*%
%TF.ProjectId,SI4735,53493437-3335-42e6-9b69-6361645f7063,rev?*%
%TF.SameCoordinates,Original*%
%TF.FileFunction,Legend,Top*%
%TF.FilePolarity,Positive*%
%FSLAX45Y45*%
G04 Gerber Fmt 4.5, Leading zero omitted, Abs format (unit mm)*
G04 Created by KiCad (PCBNEW 7.0.1) date 2023-09-27 13:21:00*
%MOMM*%
%LPD*%
G01*
G04 APERTURE LIST*
%ADD10C,0.120000*%
%ADD11C,0.180000*%
%ADD12C,0.150000*%
%ADD13C,0.152400*%
%TA.AperFunction,Profile*%
%ADD14C,0.050000*%
%TD*%
%TA.AperFunction,Profile*%
%ADD15C,0.100000*%
%TD*%
G04 APERTURE END LIST*
D10*
X16432500Y-9050000D02*
X16650000Y-9050000D01*
X16430000Y-9835000D02*
X16650000Y-9835000D01*
X16430000Y-11090000D02*
X16650000Y-11090000D01*
X16432500Y-11592500D02*
X16652500Y-11592500D01*
X16430000Y-8750000D02*
X16652500Y-8750000D01*
X16652500Y-11902500D01*
X16430000Y-11902500D01*
X16430000Y-8750000D01*
X16432500Y-11310000D02*
X16652500Y-11310000D01*
X16432500Y-10830000D02*
X16652500Y-10830000D01*
X16432500Y-9580000D02*
X16652500Y-9580000D01*
X16432500Y-10326250D02*
X16652500Y-10326250D01*
X16432500Y-9290000D02*
X16652500Y-9290000D01*
X16432500Y-10580000D02*
X16652500Y-10580000D01*
X16430000Y-10075000D02*
X16650000Y-10075000D01*
D11*
X16799050Y-15410357D02*
X16803336Y-15397500D01*
X16803336Y-15397500D02*
X16803336Y-15376071D01*
X16803336Y-15376071D02*
X16799050Y-15367500D01*
X16799050Y-15367500D02*
X16794764Y-15363214D01*
X16794764Y-15363214D02*
X16786193Y-15358928D01*
X16786193Y-15358928D02*
X16777621Y-15358928D01*
X16777621Y-15358928D02*
X16769050Y-15363214D01*
X16769050Y-15363214D02*
X16764764Y-15367500D01*
X16764764Y-15367500D02*
X16760478Y-15376071D01*
X16760478Y-15376071D02*
X16756193Y-15393214D01*
X16756193Y-15393214D02*
X16751907Y-15401786D01*
X16751907Y-15401786D02*
X16747621Y-15406071D01*
X16747621Y-15406071D02*
X16739050Y-15410357D01*
X16739050Y-15410357D02*
X16730478Y-15410357D01*
X16730478Y-15410357D02*
X16721907Y-15406071D01*
X16721907Y-15406071D02*
X16717621Y-15401786D01*
X16717621Y-15401786D02*
X16713336Y-15393214D01*
X16713336Y-15393214D02*
X16713336Y-15371786D01*
X16713336Y-15371786D02*
X16717621Y-15358928D01*
X16803336Y-15320357D02*
X16743336Y-15320357D01*
X16713336Y-15320357D02*
X16717621Y-15324643D01*
X16717621Y-15324643D02*
X16721907Y-15320357D01*
X16721907Y-15320357D02*
X16717621Y-15316071D01*
X16717621Y-15316071D02*
X16713336Y-15320357D01*
X16713336Y-15320357D02*
X16721907Y-15320357D01*
X16743336Y-15238929D02*
X16803336Y-15238929D01*
X16709050Y-15260357D02*
X16773336Y-15281786D01*
X16773336Y-15281786D02*
X16773336Y-15226071D01*
X16713336Y-15200357D02*
X16713336Y-15140357D01*
X16713336Y-15140357D02*
X16803336Y-15178928D01*
X16713336Y-15114643D02*
X16713336Y-15058928D01*
X16713336Y-15058928D02*
X16747621Y-15088928D01*
X16747621Y-15088928D02*
X16747621Y-15076071D01*
X16747621Y-15076071D02*
X16751907Y-15067500D01*
X16751907Y-15067500D02*
X16756193Y-15063214D01*
X16756193Y-15063214D02*
X16764764Y-15058928D01*
X16764764Y-15058928D02*
X16786193Y-15058928D01*
X16786193Y-15058928D02*
X16794764Y-15063214D01*
X16794764Y-15063214D02*
X16799050Y-15067500D01*
X16799050Y-15067500D02*
X16803336Y-15076071D01*
X16803336Y-15076071D02*
X16803336Y-15101786D01*
X16803336Y-15101786D02*
X16799050Y-15110357D01*
X16799050Y-15110357D02*
X16794764Y-15114643D01*
X16713336Y-14977500D02*
X16713336Y-15020357D01*
X16713336Y-15020357D02*
X16756193Y-15024643D01*
X16756193Y-15024643D02*
X16751907Y-15020357D01*
X16751907Y-15020357D02*
X16747621Y-15011786D01*
X16747621Y-15011786D02*
X16747621Y-14990357D01*
X16747621Y-14990357D02*
X16751907Y-14981786D01*
X16751907Y-14981786D02*
X16756193Y-14977500D01*
X16756193Y-14977500D02*
X16764764Y-14973214D01*
X16764764Y-14973214D02*
X16786193Y-14973214D01*
X16786193Y-14973214D02*
X16794764Y-14977500D01*
X16794764Y-14977500D02*
X16799050Y-14981786D01*
X16799050Y-14981786D02*
X16803336Y-14990357D01*
X16803336Y-14990357D02*
X16803336Y-15011786D01*
X16803336Y-15011786D02*
X16799050Y-15020357D01*
X16799050Y-15020357D02*
X16794764Y-15024643D01*
X16769050Y-14934643D02*
X16769050Y-14866071D01*
X16803336Y-14823214D02*
X16713336Y-14823214D01*
X16747621Y-14823214D02*
X16743336Y-14814643D01*
X16743336Y-14814643D02*
X16743336Y-14797500D01*
X16743336Y-14797500D02*
X16747621Y-14788928D01*
X16747621Y-14788928D02*
X16751907Y-14784643D01*
X16751907Y-14784643D02*
X16760478Y-14780357D01*
X16760478Y-14780357D02*
X16786193Y-14780357D01*
X16786193Y-14780357D02*
X16794764Y-14784643D01*
X16794764Y-14784643D02*
X16799050Y-14788928D01*
X16799050Y-14788928D02*
X16803336Y-14797500D01*
X16803336Y-14797500D02*
X16803336Y-14814643D01*
X16803336Y-14814643D02*
X16799050Y-14823214D01*
X16803336Y-14703214D02*
X16756193Y-14703214D01*
X16756193Y-14703214D02*
X16747621Y-14707500D01*
X16747621Y-14707500D02*
X16743336Y-14716071D01*
X16743336Y-14716071D02*
X16743336Y-14733214D01*
X16743336Y-14733214D02*
X16747621Y-14741786D01*
X16799050Y-14703214D02*
X16803336Y-14711786D01*
X16803336Y-14711786D02*
X16803336Y-14733214D01*
X16803336Y-14733214D02*
X16799050Y-14741786D01*
X16799050Y-14741786D02*
X16790479Y-14746071D01*
X16790479Y-14746071D02*
X16781907Y-14746071D01*
X16781907Y-14746071D02*
X16773336Y-14741786D01*
X16773336Y-14741786D02*
X16769050Y-14733214D01*
X16769050Y-14733214D02*
X16769050Y-14711786D01*
X16769050Y-14711786D02*
X16764764Y-14703214D01*
X16799050Y-14664643D02*
X16803336Y-14656071D01*
X16803336Y-14656071D02*
X16803336Y-14638928D01*
X16803336Y-14638928D02*
X16799050Y-14630357D01*
X16799050Y-14630357D02*
X16790479Y-14626071D01*
X16790479Y-14626071D02*
X16786193Y-14626071D01*
X16786193Y-14626071D02*
X16777621Y-14630357D01*
X16777621Y-14630357D02*
X16773336Y-14638928D01*
X16773336Y-14638928D02*
X16773336Y-14651786D01*
X16773336Y-14651786D02*
X16769050Y-14660357D01*
X16769050Y-14660357D02*
X16760478Y-14664643D01*
X16760478Y-14664643D02*
X16756193Y-14664643D01*
X16756193Y-14664643D02*
X16747621Y-14660357D01*
X16747621Y-14660357D02*
X16743336Y-14651786D01*
X16743336Y-14651786D02*
X16743336Y-14638928D01*
X16743336Y-14638928D02*
X16747621Y-14630357D01*
X16799050Y-14553214D02*
X16803336Y-14561786D01*
X16803336Y-14561786D02*
X16803336Y-14578928D01*
X16803336Y-14578928D02*
X16799050Y-14587500D01*
X16799050Y-14587500D02*
X16790479Y-14591786D01*
X16790479Y-14591786D02*
X16756193Y-14591786D01*
X16756193Y-14591786D02*
X16747621Y-14587500D01*
X16747621Y-14587500D02*
X16743336Y-14578928D01*
X16743336Y-14578928D02*
X16743336Y-14561786D01*
X16743336Y-14561786D02*
X16747621Y-14553214D01*
X16747621Y-14553214D02*
X16756193Y-14548928D01*
X16756193Y-14548928D02*
X16764764Y-14548928D01*
X16764764Y-14548928D02*
X16773336Y-14591786D01*
X16803336Y-14471786D02*
X16713336Y-14471786D01*
X16799050Y-14471786D02*
X16803336Y-14480357D01*
X16803336Y-14480357D02*
X16803336Y-14497500D01*
X16803336Y-14497500D02*
X16799050Y-14506071D01*
X16799050Y-14506071D02*
X16794764Y-14510357D01*
X16794764Y-14510357D02*
X16786193Y-14514643D01*
X16786193Y-14514643D02*
X16760478Y-14514643D01*
X16760478Y-14514643D02*
X16751907Y-14510357D01*
X16751907Y-14510357D02*
X16747621Y-14506071D01*
X16747621Y-14506071D02*
X16743336Y-14497500D01*
X16743336Y-14497500D02*
X16743336Y-14480357D01*
X16743336Y-14480357D02*
X16747621Y-14471786D01*
X16803336Y-14360357D02*
X16743336Y-14360357D01*
X16760478Y-14360357D02*
X16751907Y-14356071D01*
X16751907Y-14356071D02*
X16747621Y-14351786D01*
X16747621Y-14351786D02*
X16743336Y-14343214D01*
X16743336Y-14343214D02*
X16743336Y-14334643D01*
X16803336Y-14266071D02*
X16756193Y-14266071D01*
X16756193Y-14266071D02*
X16747621Y-14270357D01*
X16747621Y-14270357D02*
X16743336Y-14278928D01*
X16743336Y-14278928D02*
X16743336Y-14296071D01*
X16743336Y-14296071D02*
X16747621Y-14304643D01*
X16799050Y-14266071D02*
X16803336Y-14274643D01*
X16803336Y-14274643D02*
X16803336Y-14296071D01*
X16803336Y-14296071D02*
X16799050Y-14304643D01*
X16799050Y-14304643D02*
X16790479Y-14308928D01*
X16790479Y-14308928D02*
X16781907Y-14308928D01*
X16781907Y-14308928D02*
X16773336Y-14304643D01*
X16773336Y-14304643D02*
X16769050Y-14296071D01*
X16769050Y-14296071D02*
X16769050Y-14274643D01*
X16769050Y-14274643D02*
X16764764Y-14266071D01*
X16803336Y-14184643D02*
X16713336Y-14184643D01*
X16799050Y-14184643D02*
X16803336Y-14193214D01*
X16803336Y-14193214D02*
X16803336Y-14210357D01*
X16803336Y-14210357D02*
X16799050Y-14218928D01*
X16799050Y-14218928D02*
X16794764Y-14223214D01*
X16794764Y-14223214D02*
X16786193Y-14227500D01*
X16786193Y-14227500D02*
X16760478Y-14227500D01*
X16760478Y-14227500D02*
X16751907Y-14223214D01*
X16751907Y-14223214D02*
X16747621Y-14218928D01*
X16747621Y-14218928D02*
X16743336Y-14210357D01*
X16743336Y-14210357D02*
X16743336Y-14193214D01*
X16743336Y-14193214D02*
X16747621Y-14184643D01*
X16803336Y-14141785D02*
X16743336Y-14141785D01*
X16713336Y-14141785D02*
X16717621Y-14146071D01*
X16717621Y-14146071D02*
X16721907Y-14141785D01*
X16721907Y-14141785D02*
X16717621Y-14137500D01*
X16717621Y-14137500D02*
X16713336Y-14141785D01*
X16713336Y-14141785D02*
X16721907Y-14141785D01*
X16803336Y-14086071D02*
X16799050Y-14094643D01*
X16799050Y-14094643D02*
X16794764Y-14098928D01*
X16794764Y-14098928D02*
X16786193Y-14103214D01*
X16786193Y-14103214D02*
X16760478Y-14103214D01*
X16760478Y-14103214D02*
X16751907Y-14098928D01*
X16751907Y-14098928D02*
X16747621Y-14094643D01*
X16747621Y-14094643D02*
X16743336Y-14086071D01*
X16743336Y-14086071D02*
X16743336Y-14073214D01*
X16743336Y-14073214D02*
X16747621Y-14064643D01*
X16747621Y-14064643D02*
X16751907Y-14060357D01*
X16751907Y-14060357D02*
X16760478Y-14056071D01*
X16760478Y-14056071D02*
X16786193Y-14056071D01*
X16786193Y-14056071D02*
X16794764Y-14060357D01*
X16794764Y-14060357D02*
X16799050Y-14064643D01*
X16799050Y-14064643D02*
X16803336Y-14073214D01*
X16803336Y-14073214D02*
X16803336Y-14086071D01*
X16794764Y-14017500D02*
X16799050Y-14013214D01*
X16799050Y-14013214D02*
X16803336Y-14017500D01*
X16803336Y-14017500D02*
X16799050Y-14021785D01*
X16799050Y-14021785D02*
X16794764Y-14017500D01*
X16794764Y-14017500D02*
X16803336Y-14017500D01*
X16949136Y-15406071D02*
X16859136Y-15406071D01*
X16859136Y-15406071D02*
X16859136Y-15384643D01*
X16859136Y-15384643D02*
X16863421Y-15371786D01*
X16863421Y-15371786D02*
X16871993Y-15363214D01*
X16871993Y-15363214D02*
X16880564Y-15358928D01*
X16880564Y-15358928D02*
X16897707Y-15354643D01*
X16897707Y-15354643D02*
X16910564Y-15354643D01*
X16910564Y-15354643D02*
X16927707Y-15358928D01*
X16927707Y-15358928D02*
X16936279Y-15363214D01*
X16936279Y-15363214D02*
X16944850Y-15371786D01*
X16944850Y-15371786D02*
X16949136Y-15384643D01*
X16949136Y-15384643D02*
X16949136Y-15406071D01*
X16944850Y-15281786D02*
X16949136Y-15290357D01*
X16949136Y-15290357D02*
X16949136Y-15307500D01*
X16949136Y-15307500D02*
X16944850Y-15316071D01*
X16944850Y-15316071D02*
X16936279Y-15320357D01*
X16936279Y-15320357D02*
X16901993Y-15320357D01*
X16901993Y-15320357D02*
X16893421Y-15316071D01*
X16893421Y-15316071D02*
X16889136Y-15307500D01*
X16889136Y-15307500D02*
X16889136Y-15290357D01*
X16889136Y-15290357D02*
X16893421Y-15281786D01*
X16893421Y-15281786D02*
X16901993Y-15277500D01*
X16901993Y-15277500D02*
X16910564Y-15277500D01*
X16910564Y-15277500D02*
X16919136Y-15320357D01*
X16889136Y-15247500D02*
X16949136Y-15226071D01*
X16949136Y-15226071D02*
X16889136Y-15204643D01*
X16944850Y-15136071D02*
X16949136Y-15144643D01*
X16949136Y-15144643D02*
X16949136Y-15161786D01*
X16949136Y-15161786D02*
X16944850Y-15170357D01*
X16944850Y-15170357D02*
X16936279Y-15174643D01*
X16936279Y-15174643D02*
X16901993Y-15174643D01*
X16901993Y-15174643D02*
X16893421Y-15170357D01*
X16893421Y-15170357D02*
X16889136Y-15161786D01*
X16889136Y-15161786D02*
X16889136Y-15144643D01*
X16889136Y-15144643D02*
X16893421Y-15136071D01*
X16893421Y-15136071D02*
X16901993Y-15131786D01*
X16901993Y-15131786D02*
X16910564Y-15131786D01*
X16910564Y-15131786D02*
X16919136Y-15174643D01*
X16949136Y-15080357D02*
X16944850Y-15088928D01*
X16944850Y-15088928D02*
X16936279Y-15093214D01*
X16936279Y-15093214D02*
X16859136Y-15093214D01*
X16949136Y-15033214D02*
X16944850Y-15041786D01*
X16944850Y-15041786D02*
X16940564Y-15046071D01*
X16940564Y-15046071D02*
X16931993Y-15050357D01*
X16931993Y-15050357D02*
X16906279Y-15050357D01*
X16906279Y-15050357D02*
X16897707Y-15046071D01*
X16897707Y-15046071D02*
X16893421Y-15041786D01*
X16893421Y-15041786D02*
X16889136Y-15033214D01*
X16889136Y-15033214D02*
X16889136Y-15020357D01*
X16889136Y-15020357D02*
X16893421Y-15011786D01*
X16893421Y-15011786D02*
X16897707Y-15007500D01*
X16897707Y-15007500D02*
X16906279Y-15003214D01*
X16906279Y-15003214D02*
X16931993Y-15003214D01*
X16931993Y-15003214D02*
X16940564Y-15007500D01*
X16940564Y-15007500D02*
X16944850Y-15011786D01*
X16944850Y-15011786D02*
X16949136Y-15020357D01*
X16949136Y-15020357D02*
X16949136Y-15033214D01*
X16889136Y-14964643D02*
X16979136Y-14964643D01*
X16893421Y-14964643D02*
X16889136Y-14956071D01*
X16889136Y-14956071D02*
X16889136Y-14938928D01*
X16889136Y-14938928D02*
X16893421Y-14930357D01*
X16893421Y-14930357D02*
X16897707Y-14926071D01*
X16897707Y-14926071D02*
X16906279Y-14921785D01*
X16906279Y-14921785D02*
X16931993Y-14921785D01*
X16931993Y-14921785D02*
X16940564Y-14926071D01*
X16940564Y-14926071D02*
X16944850Y-14930357D01*
X16944850Y-14930357D02*
X16949136Y-14938928D01*
X16949136Y-14938928D02*
X16949136Y-14956071D01*
X16949136Y-14956071D02*
X16944850Y-14964643D01*
X16944850Y-14848928D02*
X16949136Y-14857500D01*
X16949136Y-14857500D02*
X16949136Y-14874643D01*
X16949136Y-14874643D02*
X16944850Y-14883214D01*
X16944850Y-14883214D02*
X16936279Y-14887500D01*
X16936279Y-14887500D02*
X16901993Y-14887500D01*
X16901993Y-14887500D02*
X16893421Y-14883214D01*
X16893421Y-14883214D02*
X16889136Y-14874643D01*
X16889136Y-14874643D02*
X16889136Y-14857500D01*
X16889136Y-14857500D02*
X16893421Y-14848928D01*
X16893421Y-14848928D02*
X16901993Y-14844643D01*
X16901993Y-14844643D02*
X16910564Y-14844643D01*
X16910564Y-14844643D02*
X16919136Y-14887500D01*
X16949136Y-14767500D02*
X16859136Y-14767500D01*
X16944850Y-14767500D02*
X16949136Y-14776071D01*
X16949136Y-14776071D02*
X16949136Y-14793214D01*
X16949136Y-14793214D02*
X16944850Y-14801785D01*
X16944850Y-14801785D02*
X16940564Y-14806071D01*
X16940564Y-14806071D02*
X16931993Y-14810357D01*
X16931993Y-14810357D02*
X16906279Y-14810357D01*
X16906279Y-14810357D02*
X16897707Y-14806071D01*
X16897707Y-14806071D02*
X16893421Y-14801785D01*
X16893421Y-14801785D02*
X16889136Y-14793214D01*
X16889136Y-14793214D02*
X16889136Y-14776071D01*
X16889136Y-14776071D02*
X16893421Y-14767500D01*
X16949136Y-14656071D02*
X16859136Y-14656071D01*
X16893421Y-14656071D02*
X16889136Y-14647500D01*
X16889136Y-14647500D02*
X16889136Y-14630357D01*
X16889136Y-14630357D02*
X16893421Y-14621785D01*
X16893421Y-14621785D02*
X16897707Y-14617500D01*
X16897707Y-14617500D02*
X16906279Y-14613214D01*
X16906279Y-14613214D02*
X16931993Y-14613214D01*
X16931993Y-14613214D02*
X16940564Y-14617500D01*
X16940564Y-14617500D02*
X16944850Y-14621785D01*
X16944850Y-14621785D02*
X16949136Y-14630357D01*
X16949136Y-14630357D02*
X16949136Y-14647500D01*
X16949136Y-14647500D02*
X16944850Y-14656071D01*
X16889136Y-14583214D02*
X16949136Y-14561785D01*
X16889136Y-14540357D02*
X16949136Y-14561785D01*
X16949136Y-14561785D02*
X16970564Y-14570357D01*
X16970564Y-14570357D02*
X16974850Y-14574643D01*
X16974850Y-14574643D02*
X16979136Y-14583214D01*
X16923421Y-14441785D02*
X16923421Y-14398928D01*
X16949136Y-14450357D02*
X16859136Y-14420357D01*
X16859136Y-14420357D02*
X16949136Y-14390357D01*
X16940564Y-14360357D02*
X16944850Y-14356071D01*
X16944850Y-14356071D02*
X16949136Y-14360357D01*
X16949136Y-14360357D02*
X16944850Y-14364643D01*
X16944850Y-14364643D02*
X16940564Y-14360357D01*
X16940564Y-14360357D02*
X16949136Y-14360357D01*
X16949136Y-14248928D02*
X16859136Y-14248928D01*
X16889136Y-14214643D02*
X16949136Y-14193214D01*
X16949136Y-14193214D02*
X16889136Y-14171786D01*
X16949136Y-14098928D02*
X16901993Y-14098928D01*
X16901993Y-14098928D02*
X16893421Y-14103214D01*
X16893421Y-14103214D02*
X16889136Y-14111786D01*
X16889136Y-14111786D02*
X16889136Y-14128928D01*
X16889136Y-14128928D02*
X16893421Y-14137500D01*
X16944850Y-14098928D02*
X16949136Y-14107500D01*
X16949136Y-14107500D02*
X16949136Y-14128928D01*
X16949136Y-14128928D02*
X16944850Y-14137500D01*
X16944850Y-14137500D02*
X16936279Y-14141786D01*
X16936279Y-14141786D02*
X16927707Y-14141786D01*
X16927707Y-14141786D02*
X16919136Y-14137500D01*
X16919136Y-14137500D02*
X16914850Y-14128928D01*
X16914850Y-14128928D02*
X16914850Y-14107500D01*
X16914850Y-14107500D02*
X16910564Y-14098928D01*
X16889136Y-14056071D02*
X16949136Y-14056071D01*
X16897707Y-14056071D02*
X16893421Y-14051786D01*
X16893421Y-14051786D02*
X16889136Y-14043214D01*
X16889136Y-14043214D02*
X16889136Y-14030357D01*
X16889136Y-14030357D02*
X16893421Y-14021786D01*
X16893421Y-14021786D02*
X16901993Y-14017500D01*
X16901993Y-14017500D02*
X16949136Y-14017500D01*
X16949136Y-13961785D02*
X16944850Y-13970357D01*
X16944850Y-13970357D02*
X16940564Y-13974643D01*
X16940564Y-13974643D02*
X16931993Y-13978928D01*
X16931993Y-13978928D02*
X16906279Y-13978928D01*
X16906279Y-13978928D02*
X16897707Y-13974643D01*
X16897707Y-13974643D02*
X16893421Y-13970357D01*
X16893421Y-13970357D02*
X16889136Y-13961785D01*
X16889136Y-13961785D02*
X16889136Y-13948928D01*
X16889136Y-13948928D02*
X16893421Y-13940357D01*
X16893421Y-13940357D02*
X16897707Y-13936071D01*
X16897707Y-13936071D02*
X16906279Y-13931785D01*
X16906279Y-13931785D02*
X16931993Y-13931785D01*
X16931993Y-13931785D02*
X16940564Y-13936071D01*
X16940564Y-13936071D02*
X16944850Y-13940357D01*
X16944850Y-13940357D02*
X16949136Y-13948928D01*
X16949136Y-13948928D02*
X16949136Y-13961785D01*
X16889136Y-13901785D02*
X16949136Y-13880357D01*
X16949136Y-13880357D02*
X16889136Y-13858928D01*
X17004936Y-15388928D02*
X17004936Y-15380357D01*
X17004936Y-15380357D02*
X17009221Y-15371786D01*
X17009221Y-15371786D02*
X17013507Y-15367500D01*
X17013507Y-15367500D02*
X17022079Y-15363214D01*
X17022079Y-15363214D02*
X17039221Y-15358928D01*
X17039221Y-15358928D02*
X17060650Y-15358928D01*
X17060650Y-15358928D02*
X17077793Y-15363214D01*
X17077793Y-15363214D02*
X17086364Y-15367500D01*
X17086364Y-15367500D02*
X17090650Y-15371786D01*
X17090650Y-15371786D02*
X17094936Y-15380357D01*
X17094936Y-15380357D02*
X17094936Y-15388928D01*
X17094936Y-15388928D02*
X17090650Y-15397500D01*
X17090650Y-15397500D02*
X17086364Y-15401786D01*
X17086364Y-15401786D02*
X17077793Y-15406071D01*
X17077793Y-15406071D02*
X17060650Y-15410357D01*
X17060650Y-15410357D02*
X17039221Y-15410357D01*
X17039221Y-15410357D02*
X17022079Y-15406071D01*
X17022079Y-15406071D02*
X17013507Y-15401786D01*
X17013507Y-15401786D02*
X17009221Y-15397500D01*
X17009221Y-15397500D02*
X17004936Y-15388928D01*
X17034936Y-15281786D02*
X17094936Y-15281786D01*
X17000650Y-15303214D02*
X17064936Y-15324643D01*
X17064936Y-15324643D02*
X17064936Y-15268928D01*
X17086364Y-15234643D02*
X17090650Y-15230357D01*
X17090650Y-15230357D02*
X17094936Y-15234643D01*
X17094936Y-15234643D02*
X17090650Y-15238928D01*
X17090650Y-15238928D02*
X17086364Y-15234643D01*
X17086364Y-15234643D02*
X17094936Y-15234643D01*
X17004936Y-15174643D02*
X17004936Y-15166071D01*
X17004936Y-15166071D02*
X17009221Y-15157500D01*
X17009221Y-15157500D02*
X17013507Y-15153214D01*
X17013507Y-15153214D02*
X17022079Y-15148928D01*
X17022079Y-15148928D02*
X17039221Y-15144643D01*
X17039221Y-15144643D02*
X17060650Y-15144643D01*
X17060650Y-15144643D02*
X17077793Y-15148928D01*
X17077793Y-15148928D02*
X17086364Y-15153214D01*
X17086364Y-15153214D02*
X17090650Y-15157500D01*
X17090650Y-15157500D02*
X17094936Y-15166071D01*
X17094936Y-15166071D02*
X17094936Y-15174643D01*
X17094936Y-15174643D02*
X17090650Y-15183214D01*
X17090650Y-15183214D02*
X17086364Y-15187500D01*
X17086364Y-15187500D02*
X17077793Y-15191786D01*
X17077793Y-15191786D02*
X17060650Y-15196071D01*
X17060650Y-15196071D02*
X17039221Y-15196071D01*
X17039221Y-15196071D02*
X17022079Y-15191786D01*
X17022079Y-15191786D02*
X17013507Y-15187500D01*
X17013507Y-15187500D02*
X17009221Y-15183214D01*
X17009221Y-15183214D02*
X17004936Y-15174643D01*
X17004936Y-15114643D02*
X17004936Y-15054643D01*
X17004936Y-15054643D02*
X17094936Y-15093214D01*
X17086364Y-15020357D02*
X17090650Y-15016071D01*
X17090650Y-15016071D02*
X17094936Y-15020357D01*
X17094936Y-15020357D02*
X17090650Y-15024643D01*
X17090650Y-15024643D02*
X17086364Y-15020357D01*
X17086364Y-15020357D02*
X17094936Y-15020357D01*
X17013507Y-14981786D02*
X17009221Y-14977500D01*
X17009221Y-14977500D02*
X17004936Y-14968929D01*
X17004936Y-14968929D02*
X17004936Y-14947500D01*
X17004936Y-14947500D02*
X17009221Y-14938929D01*
X17009221Y-14938929D02*
X17013507Y-14934643D01*
X17013507Y-14934643D02*
X17022079Y-14930357D01*
X17022079Y-14930357D02*
X17030650Y-14930357D01*
X17030650Y-14930357D02*
X17043507Y-14934643D01*
X17043507Y-14934643D02*
X17094936Y-14986071D01*
X17094936Y-14986071D02*
X17094936Y-14930357D01*
X17004936Y-14874643D02*
X17004936Y-14866071D01*
X17004936Y-14866071D02*
X17009221Y-14857500D01*
X17009221Y-14857500D02*
X17013507Y-14853214D01*
X17013507Y-14853214D02*
X17022079Y-14848928D01*
X17022079Y-14848928D02*
X17039221Y-14844643D01*
X17039221Y-14844643D02*
X17060650Y-14844643D01*
X17060650Y-14844643D02*
X17077793Y-14848928D01*
X17077793Y-14848928D02*
X17086364Y-14853214D01*
X17086364Y-14853214D02*
X17090650Y-14857500D01*
X17090650Y-14857500D02*
X17094936Y-14866071D01*
X17094936Y-14866071D02*
X17094936Y-14874643D01*
X17094936Y-14874643D02*
X17090650Y-14883214D01*
X17090650Y-14883214D02*
X17086364Y-14887500D01*
X17086364Y-14887500D02*
X17077793Y-14891786D01*
X17077793Y-14891786D02*
X17060650Y-14896071D01*
X17060650Y-14896071D02*
X17039221Y-14896071D01*
X17039221Y-14896071D02*
X17022079Y-14891786D01*
X17022079Y-14891786D02*
X17013507Y-14887500D01*
X17013507Y-14887500D02*
X17009221Y-14883214D01*
X17009221Y-14883214D02*
X17004936Y-14874643D01*
X17013507Y-14810357D02*
X17009221Y-14806071D01*
X17009221Y-14806071D02*
X17004936Y-14797500D01*
X17004936Y-14797500D02*
X17004936Y-14776071D01*
X17004936Y-14776071D02*
X17009221Y-14767500D01*
X17009221Y-14767500D02*
X17013507Y-14763214D01*
X17013507Y-14763214D02*
X17022079Y-14758928D01*
X17022079Y-14758928D02*
X17030650Y-14758928D01*
X17030650Y-14758928D02*
X17043507Y-14763214D01*
X17043507Y-14763214D02*
X17094936Y-14814643D01*
X17094936Y-14814643D02*
X17094936Y-14758928D01*
X17004936Y-14728928D02*
X17004936Y-14673214D01*
X17004936Y-14673214D02*
X17039221Y-14703214D01*
X17039221Y-14703214D02*
X17039221Y-14690357D01*
X17039221Y-14690357D02*
X17043507Y-14681786D01*
X17043507Y-14681786D02*
X17047793Y-14677500D01*
X17047793Y-14677500D02*
X17056364Y-14673214D01*
X17056364Y-14673214D02*
X17077793Y-14673214D01*
X17077793Y-14673214D02*
X17086364Y-14677500D01*
X17086364Y-14677500D02*
X17090650Y-14681786D01*
X17090650Y-14681786D02*
X17094936Y-14690357D01*
X17094936Y-14690357D02*
X17094936Y-14716071D01*
X17094936Y-14716071D02*
X17090650Y-14724643D01*
X17090650Y-14724643D02*
X17086364Y-14728928D01*
D12*
X16456238Y-9908691D02*
X16503857Y-9882024D01*
X16456238Y-9862976D02*
X16556238Y-9862976D01*
X16556238Y-9862976D02*
X16556238Y-9893452D01*
X16556238Y-9893452D02*
X16551476Y-9901071D01*
X16551476Y-9901071D02*
X16546714Y-9904881D01*
X16546714Y-9904881D02*
X16537190Y-9908691D01*
X16537190Y-9908691D02*
X16522905Y-9908691D01*
X16522905Y-9908691D02*
X16513381Y-9904881D01*
X16513381Y-9904881D02*
X16508619Y-9901071D01*
X16508619Y-9901071D02*
X16503857Y-9893452D01*
X16503857Y-9893452D02*
X16503857Y-9862976D01*
X16461000Y-9939167D02*
X16456238Y-9950595D01*
X16456238Y-9950595D02*
X16456238Y-9969643D01*
X16456238Y-9969643D02*
X16461000Y-9977262D01*
X16461000Y-9977262D02*
X16465762Y-9981071D01*
X16465762Y-9981071D02*
X16475286Y-9984881D01*
X16475286Y-9984881D02*
X16484809Y-9984881D01*
X16484809Y-9984881D02*
X16494333Y-9981071D01*
X16494333Y-9981071D02*
X16499095Y-9977262D01*
X16499095Y-9977262D02*
X16503857Y-9969643D01*
X16503857Y-9969643D02*
X16508619Y-9954405D01*
X16508619Y-9954405D02*
X16513381Y-9946786D01*
X16513381Y-9946786D02*
X16518143Y-9942976D01*
X16518143Y-9942976D02*
X16527667Y-9939167D01*
X16527667Y-9939167D02*
X16537190Y-9939167D01*
X16537190Y-9939167D02*
X16546714Y-9942976D01*
X16546714Y-9942976D02*
X16551476Y-9946786D01*
X16551476Y-9946786D02*
X16556238Y-9954405D01*
X16556238Y-9954405D02*
X16556238Y-9973452D01*
X16556238Y-9973452D02*
X16551476Y-9984881D01*
X16556238Y-10007738D02*
X16556238Y-10053452D01*
X16456238Y-10030595D02*
X16556238Y-10030595D01*
X16461000Y-10605357D02*
X16456238Y-10616786D01*
X16456238Y-10616786D02*
X16456238Y-10635833D01*
X16456238Y-10635833D02*
X16461000Y-10643452D01*
X16461000Y-10643452D02*
X16465762Y-10647262D01*
X16465762Y-10647262D02*
X16475286Y-10651071D01*
X16475286Y-10651071D02*
X16484809Y-10651071D01*
X16484809Y-10651071D02*
X16494333Y-10647262D01*
X16494333Y-10647262D02*
X16499095Y-10643452D01*
X16499095Y-10643452D02*
X16503857Y-10635833D01*
X16503857Y-10635833D02*
X16508619Y-10620595D01*
X16508619Y-10620595D02*
X16513381Y-10612976D01*
X16513381Y-10612976D02*
X16518143Y-10609167D01*
X16518143Y-10609167D02*
X16527667Y-10605357D01*
X16527667Y-10605357D02*
X16537190Y-10605357D01*
X16537190Y-10605357D02*
X16546714Y-10609167D01*
X16546714Y-10609167D02*
X16551476Y-10612976D01*
X16551476Y-10612976D02*
X16556238Y-10620595D01*
X16556238Y-10620595D02*
X16556238Y-10639643D01*
X16556238Y-10639643D02*
X16551476Y-10651071D01*
X16456238Y-10685357D02*
X16556238Y-10685357D01*
X16556238Y-10685357D02*
X16556238Y-10704405D01*
X16556238Y-10704405D02*
X16551476Y-10715833D01*
X16551476Y-10715833D02*
X16541952Y-10723452D01*
X16541952Y-10723452D02*
X16532428Y-10727262D01*
X16532428Y-10727262D02*
X16513381Y-10731072D01*
X16513381Y-10731072D02*
X16499095Y-10731072D01*
X16499095Y-10731072D02*
X16480048Y-10727262D01*
X16480048Y-10727262D02*
X16470524Y-10723452D01*
X16470524Y-10723452D02*
X16461000Y-10715833D01*
X16461000Y-10715833D02*
X16456238Y-10704405D01*
X16456238Y-10704405D02*
X16456238Y-10685357D01*
X16484809Y-10761548D02*
X16484809Y-10799643D01*
X16456238Y-10753929D02*
X16556238Y-10780595D01*
X16556238Y-10780595D02*
X16456238Y-10807262D01*
X16503619Y-10873452D02*
X16503619Y-10900119D01*
X16451238Y-10911548D02*
X16451238Y-10873452D01*
X16451238Y-10873452D02*
X16551238Y-10873452D01*
X16551238Y-10873452D02*
X16551238Y-10911548D01*
X16451238Y-10945833D02*
X16551238Y-10945833D01*
X16551238Y-10945833D02*
X16451238Y-10991548D01*
X16451238Y-10991548D02*
X16551238Y-10991548D01*
X16558738Y-9159762D02*
X16558738Y-9121667D01*
X16558738Y-9121667D02*
X16511119Y-9117857D01*
X16511119Y-9117857D02*
X16515881Y-9121667D01*
X16515881Y-9121667D02*
X16520643Y-9129286D01*
X16520643Y-9129286D02*
X16520643Y-9148333D01*
X16520643Y-9148333D02*
X16515881Y-9155952D01*
X16515881Y-9155952D02*
X16511119Y-9159762D01*
X16511119Y-9159762D02*
X16501595Y-9163571D01*
X16501595Y-9163571D02*
X16477786Y-9163571D01*
X16477786Y-9163571D02*
X16468262Y-9159762D01*
X16468262Y-9159762D02*
X16463500Y-9155952D01*
X16463500Y-9155952D02*
X16458738Y-9148333D01*
X16458738Y-9148333D02*
X16458738Y-9129286D01*
X16458738Y-9129286D02*
X16463500Y-9121667D01*
X16463500Y-9121667D02*
X16468262Y-9117857D01*
X16558738Y-9186429D02*
X16458738Y-9213095D01*
X16458738Y-9213095D02*
X16558738Y-9239762D01*
X16456000Y-11622500D02*
X16451238Y-11632500D01*
X16451238Y-11632500D02*
X16451238Y-11649167D01*
X16451238Y-11649167D02*
X16456000Y-11655833D01*
X16456000Y-11655833D02*
X16460762Y-11659167D01*
X16460762Y-11659167D02*
X16470286Y-11662500D01*
X16470286Y-11662500D02*
X16479809Y-11662500D01*
X16479809Y-11662500D02*
X16489333Y-11659167D01*
X16489333Y-11659167D02*
X16494095Y-11655833D01*
X16494095Y-11655833D02*
X16498857Y-11649167D01*
X16498857Y-11649167D02*
X16503619Y-11635833D01*
X16503619Y-11635833D02*
X16508381Y-11629167D01*
X16508381Y-11629167D02*
X16513143Y-11625833D01*
X16513143Y-11625833D02*
X16522667Y-11622500D01*
X16522667Y-11622500D02*
X16532190Y-11622500D01*
X16532190Y-11622500D02*
X16541714Y-11625833D01*
X16541714Y-11625833D02*
X16546476Y-11629167D01*
X16546476Y-11629167D02*
X16551238Y-11635833D01*
X16551238Y-11635833D02*
X16551238Y-11652500D01*
X16551238Y-11652500D02*
X16546476Y-11662500D01*
X16451238Y-11702500D02*
X16456000Y-11695833D01*
X16456000Y-11695833D02*
X16465524Y-11692500D01*
X16465524Y-11692500D02*
X16551238Y-11692500D01*
X16456000Y-11755833D02*
X16451238Y-11749167D01*
X16451238Y-11749167D02*
X16451238Y-11735833D01*
X16451238Y-11735833D02*
X16456000Y-11729167D01*
X16456000Y-11729167D02*
X16465524Y-11725833D01*
X16465524Y-11725833D02*
X16503619Y-11725833D01*
X16503619Y-11725833D02*
X16513143Y-11729167D01*
X16513143Y-11729167D02*
X16517905Y-11735833D01*
X16517905Y-11735833D02*
X16517905Y-11749167D01*
X16517905Y-11749167D02*
X16513143Y-11755833D01*
X16513143Y-11755833D02*
X16503619Y-11759167D01*
X16503619Y-11759167D02*
X16494095Y-11759167D01*
X16494095Y-11759167D02*
X16484571Y-11725833D01*
X16456000Y-11815833D02*
X16451238Y-11809167D01*
X16451238Y-11809167D02*
X16451238Y-11795833D01*
X16451238Y-11795833D02*
X16456000Y-11789167D01*
X16456000Y-11789167D02*
X16465524Y-11785833D01*
X16465524Y-11785833D02*
X16503619Y-11785833D01*
X16503619Y-11785833D02*
X16513143Y-11789167D01*
X16513143Y-11789167D02*
X16517905Y-11795833D01*
X16517905Y-11795833D02*
X16517905Y-11809167D01*
X16517905Y-11809167D02*
X16513143Y-11815833D01*
X16513143Y-11815833D02*
X16503619Y-11819167D01*
X16503619Y-11819167D02*
X16494095Y-11819167D01*
X16494095Y-11819167D02*
X16484571Y-11785833D01*
X16517905Y-11849167D02*
X16417905Y-11849167D01*
X16513143Y-11849167D02*
X16517905Y-11855833D01*
X16517905Y-11855833D02*
X16517905Y-11869167D01*
X16517905Y-11869167D02*
X16513143Y-11875833D01*
X16513143Y-11875833D02*
X16508381Y-11879167D01*
X16508381Y-11879167D02*
X16498857Y-11882500D01*
X16498857Y-11882500D02*
X16470286Y-11882500D01*
X16470286Y-11882500D02*
X16460762Y-11879167D01*
X16460762Y-11879167D02*
X16456000Y-11875833D01*
X16456000Y-11875833D02*
X16451238Y-11869167D01*
X16451238Y-11869167D02*
X16451238Y-11855833D01*
X16451238Y-11855833D02*
X16456000Y-11849167D01*
X13470190Y-9277738D02*
X13470190Y-9230119D01*
X13498762Y-9287262D02*
X13398762Y-9253929D01*
X13398762Y-9253929D02*
X13498762Y-9220595D01*
X13498762Y-9187262D02*
X13398762Y-9187262D01*
X13398762Y-9187262D02*
X13470190Y-9153929D01*
X13470190Y-9153929D02*
X13398762Y-9120595D01*
X13398762Y-9120595D02*
X13498762Y-9120595D01*
X13498762Y-8996786D02*
X13398762Y-8996786D01*
X13498762Y-8949167D02*
X13398762Y-8949167D01*
X13398762Y-8949167D02*
X13498762Y-8892024D01*
X13498762Y-8892024D02*
X13398762Y-8892024D01*
X16551476Y-9644048D02*
X16556238Y-9636429D01*
X16556238Y-9636429D02*
X16556238Y-9625000D01*
X16556238Y-9625000D02*
X16551476Y-9613571D01*
X16551476Y-9613571D02*
X16541952Y-9605952D01*
X16541952Y-9605952D02*
X16532428Y-9602143D01*
X16532428Y-9602143D02*
X16513381Y-9598333D01*
X16513381Y-9598333D02*
X16499095Y-9598333D01*
X16499095Y-9598333D02*
X16480048Y-9602143D01*
X16480048Y-9602143D02*
X16470524Y-9605952D01*
X16470524Y-9605952D02*
X16461000Y-9613571D01*
X16461000Y-9613571D02*
X16456238Y-9625000D01*
X16456238Y-9625000D02*
X16456238Y-9632619D01*
X16456238Y-9632619D02*
X16461000Y-9644048D01*
X16461000Y-9644048D02*
X16465762Y-9647857D01*
X16465762Y-9647857D02*
X16499095Y-9647857D01*
X16499095Y-9647857D02*
X16499095Y-9632619D01*
X16456238Y-9682143D02*
X16556238Y-9682143D01*
X16556238Y-9682143D02*
X16456238Y-9727857D01*
X16456238Y-9727857D02*
X16556238Y-9727857D01*
X16456238Y-9765952D02*
X16556238Y-9765952D01*
X16556238Y-9765952D02*
X16556238Y-9785000D01*
X16556238Y-9785000D02*
X16551476Y-9796429D01*
X16551476Y-9796429D02*
X16541952Y-9804048D01*
X16541952Y-9804048D02*
X16532428Y-9807857D01*
X16532428Y-9807857D02*
X16513381Y-9811667D01*
X16513381Y-9811667D02*
X16499095Y-9811667D01*
X16499095Y-9811667D02*
X16480048Y-9807857D01*
X16480048Y-9807857D02*
X16470524Y-9804048D01*
X16470524Y-9804048D02*
X16461000Y-9796429D01*
X16461000Y-9796429D02*
X16456238Y-9785000D01*
X16456238Y-9785000D02*
X16456238Y-9765952D01*
X16574743Y-10950714D02*
X16614743Y-10950714D01*
X16634743Y-10950714D02*
X16631886Y-10947857D01*
X16631886Y-10947857D02*
X16629028Y-10950714D01*
X16629028Y-10950714D02*
X16631886Y-10953571D01*
X16631886Y-10953571D02*
X16634743Y-10950714D01*
X16634743Y-10950714D02*
X16629028Y-10950714D01*
X16629028Y-10976429D02*
X16631886Y-10979286D01*
X16631886Y-10979286D02*
X16634743Y-10985000D01*
X16634743Y-10985000D02*
X16634743Y-10999286D01*
X16634743Y-10999286D02*
X16631886Y-11005000D01*
X16631886Y-11005000D02*
X16629028Y-11007857D01*
X16629028Y-11007857D02*
X16623314Y-11010714D01*
X16623314Y-11010714D02*
X16617600Y-11010714D01*
X16617600Y-11010714D02*
X16609028Y-11007857D01*
X16609028Y-11007857D02*
X16574743Y-10973571D01*
X16574743Y-10973571D02*
X16574743Y-11010714D01*
X16577600Y-11062143D02*
X16574743Y-11056429D01*
X16574743Y-11056429D02*
X16574743Y-11045000D01*
X16574743Y-11045000D02*
X16577600Y-11039286D01*
X16577600Y-11039286D02*
X16580457Y-11036429D01*
X16580457Y-11036429D02*
X16586171Y-11033571D01*
X16586171Y-11033571D02*
X16603314Y-11033571D01*
X16603314Y-11033571D02*
X16609028Y-11036429D01*
X16609028Y-11036429D02*
X16611886Y-11039286D01*
X16611886Y-11039286D02*
X16614743Y-11045000D01*
X16614743Y-11045000D02*
X16614743Y-11056429D01*
X16614743Y-11056429D02*
X16611886Y-11062143D01*
X16461000Y-10364762D02*
X16456238Y-10376190D01*
X16456238Y-10376190D02*
X16456238Y-10395238D01*
X16456238Y-10395238D02*
X16461000Y-10402857D01*
X16461000Y-10402857D02*
X16465762Y-10406667D01*
X16465762Y-10406667D02*
X16475286Y-10410476D01*
X16475286Y-10410476D02*
X16484809Y-10410476D01*
X16484809Y-10410476D02*
X16494333Y-10406667D01*
X16494333Y-10406667D02*
X16499095Y-10402857D01*
X16499095Y-10402857D02*
X16503857Y-10395238D01*
X16503857Y-10395238D02*
X16508619Y-10380000D01*
X16508619Y-10380000D02*
X16513381Y-10372381D01*
X16513381Y-10372381D02*
X16518143Y-10368571D01*
X16518143Y-10368571D02*
X16527667Y-10364762D01*
X16527667Y-10364762D02*
X16537190Y-10364762D01*
X16537190Y-10364762D02*
X16546714Y-10368571D01*
X16546714Y-10368571D02*
X16551476Y-10372381D01*
X16551476Y-10372381D02*
X16556238Y-10380000D01*
X16556238Y-10380000D02*
X16556238Y-10399048D01*
X16556238Y-10399048D02*
X16551476Y-10410476D01*
X16465762Y-10490476D02*
X16461000Y-10486667D01*
X16461000Y-10486667D02*
X16456238Y-10475238D01*
X16456238Y-10475238D02*
X16456238Y-10467619D01*
X16456238Y-10467619D02*
X16461000Y-10456190D01*
X16461000Y-10456190D02*
X16470524Y-10448571D01*
X16470524Y-10448571D02*
X16480048Y-10444762D01*
X16480048Y-10444762D02*
X16499095Y-10440952D01*
X16499095Y-10440952D02*
X16513381Y-10440952D01*
X16513381Y-10440952D02*
X16532428Y-10444762D01*
X16532428Y-10444762D02*
X16541952Y-10448571D01*
X16541952Y-10448571D02*
X16551476Y-10456190D01*
X16551476Y-10456190D02*
X16556238Y-10467619D01*
X16556238Y-10467619D02*
X16556238Y-10475238D01*
X16556238Y-10475238D02*
X16551476Y-10486667D01*
X16551476Y-10486667D02*
X16546714Y-10490476D01*
X16456238Y-10562857D02*
X16456238Y-10524762D01*
X16456238Y-10524762D02*
X16556238Y-10524762D01*
X16458738Y-8852976D02*
X16458738Y-8807262D01*
X16458738Y-8830119D02*
X16558738Y-8830119D01*
X16558738Y-8830119D02*
X16544452Y-8822500D01*
X16544452Y-8822500D02*
X16534928Y-8814881D01*
X16534928Y-8814881D02*
X16530167Y-8807262D01*
X16549214Y-8883452D02*
X16553976Y-8887262D01*
X16553976Y-8887262D02*
X16558738Y-8894881D01*
X16558738Y-8894881D02*
X16558738Y-8913929D01*
X16558738Y-8913929D02*
X16553976Y-8921548D01*
X16553976Y-8921548D02*
X16549214Y-8925357D01*
X16549214Y-8925357D02*
X16539690Y-8929167D01*
X16539690Y-8929167D02*
X16530167Y-8929167D01*
X16530167Y-8929167D02*
X16515881Y-8925357D01*
X16515881Y-8925357D02*
X16458738Y-8879643D01*
X16458738Y-8879643D02*
X16458738Y-8929167D01*
X16558738Y-8952024D02*
X16458738Y-8978691D01*
X16458738Y-8978691D02*
X16558738Y-9005357D01*
X16548738Y-11138214D02*
X16448738Y-11157262D01*
X16448738Y-11157262D02*
X16520167Y-11172500D01*
X16520167Y-11172500D02*
X16448738Y-11187738D01*
X16448738Y-11187738D02*
X16548738Y-11206786D01*
X16448738Y-11237262D02*
X16548738Y-11237262D01*
X16548738Y-11237262D02*
X16548738Y-11267738D01*
X16548738Y-11267738D02*
X16543976Y-11275357D01*
X16543976Y-11275357D02*
X16539214Y-11279167D01*
X16539214Y-11279167D02*
X16529690Y-11282976D01*
X16529690Y-11282976D02*
X16515405Y-11282976D01*
X16515405Y-11282976D02*
X16505881Y-11279167D01*
X16505881Y-11279167D02*
X16501119Y-11275357D01*
X16501119Y-11275357D02*
X16496357Y-11267738D01*
X16496357Y-11267738D02*
X16496357Y-11237262D01*
X16461000Y-10104048D02*
X16456238Y-10115476D01*
X16456238Y-10115476D02*
X16456238Y-10134524D01*
X16456238Y-10134524D02*
X16461000Y-10142143D01*
X16461000Y-10142143D02*
X16465762Y-10145952D01*
X16465762Y-10145952D02*
X16475286Y-10149762D01*
X16475286Y-10149762D02*
X16484809Y-10149762D01*
X16484809Y-10149762D02*
X16494333Y-10145952D01*
X16494333Y-10145952D02*
X16499095Y-10142143D01*
X16499095Y-10142143D02*
X16503857Y-10134524D01*
X16503857Y-10134524D02*
X16508619Y-10119286D01*
X16508619Y-10119286D02*
X16513381Y-10111667D01*
X16513381Y-10111667D02*
X16518143Y-10107857D01*
X16518143Y-10107857D02*
X16527667Y-10104048D01*
X16527667Y-10104048D02*
X16537190Y-10104048D01*
X16537190Y-10104048D02*
X16546714Y-10107857D01*
X16546714Y-10107857D02*
X16551476Y-10111667D01*
X16551476Y-10111667D02*
X16556238Y-10119286D01*
X16556238Y-10119286D02*
X16556238Y-10138333D01*
X16556238Y-10138333D02*
X16551476Y-10149762D01*
X16508619Y-10184048D02*
X16508619Y-10210714D01*
X16456238Y-10222143D02*
X16456238Y-10184048D01*
X16456238Y-10184048D02*
X16556238Y-10184048D01*
X16556238Y-10184048D02*
X16556238Y-10222143D01*
X16456238Y-10256429D02*
X16556238Y-10256429D01*
X16556238Y-10256429D02*
X16456238Y-10302143D01*
X16456238Y-10302143D02*
X16556238Y-10302143D01*
X16553738Y-9321905D02*
X16553738Y-9371429D01*
X16553738Y-9371429D02*
X16515643Y-9344762D01*
X16515643Y-9344762D02*
X16515643Y-9356190D01*
X16515643Y-9356190D02*
X16510881Y-9363810D01*
X16510881Y-9363810D02*
X16506119Y-9367619D01*
X16506119Y-9367619D02*
X16496595Y-9371429D01*
X16496595Y-9371429D02*
X16472786Y-9371429D01*
X16472786Y-9371429D02*
X16463262Y-9367619D01*
X16463262Y-9367619D02*
X16458500Y-9363810D01*
X16458500Y-9363810D02*
X16453738Y-9356190D01*
X16453738Y-9356190D02*
X16453738Y-9333333D01*
X16453738Y-9333333D02*
X16458500Y-9325714D01*
X16458500Y-9325714D02*
X16463262Y-9321905D01*
X16463262Y-9405714D02*
X16458500Y-9409524D01*
X16458500Y-9409524D02*
X16453738Y-9405714D01*
X16453738Y-9405714D02*
X16458500Y-9401905D01*
X16458500Y-9401905D02*
X16463262Y-9405714D01*
X16463262Y-9405714D02*
X16453738Y-9405714D01*
X16553738Y-9436190D02*
X16553738Y-9485714D01*
X16553738Y-9485714D02*
X16515643Y-9459048D01*
X16515643Y-9459048D02*
X16515643Y-9470476D01*
X16515643Y-9470476D02*
X16510881Y-9478095D01*
X16510881Y-9478095D02*
X16506119Y-9481905D01*
X16506119Y-9481905D02*
X16496595Y-9485714D01*
X16496595Y-9485714D02*
X16472786Y-9485714D01*
X16472786Y-9485714D02*
X16463262Y-9481905D01*
X16463262Y-9481905D02*
X16458500Y-9478095D01*
X16458500Y-9478095D02*
X16453738Y-9470476D01*
X16453738Y-9470476D02*
X16453738Y-9447619D01*
X16453738Y-9447619D02*
X16458500Y-9440000D01*
X16458500Y-9440000D02*
X16463262Y-9436190D01*
X16553738Y-9508571D02*
X16453738Y-9535238D01*
X16453738Y-9535238D02*
X16553738Y-9561905D01*
X16451238Y-11357500D02*
X16551238Y-11357500D01*
X16551238Y-11357500D02*
X16479809Y-11380833D01*
X16479809Y-11380833D02*
X16551238Y-11404167D01*
X16551238Y-11404167D02*
X16451238Y-11404167D01*
X16517905Y-11467500D02*
X16451238Y-11467500D01*
X16517905Y-11437500D02*
X16465524Y-11437500D01*
X16465524Y-11437500D02*
X16456000Y-11440833D01*
X16456000Y-11440833D02*
X16451238Y-11447500D01*
X16451238Y-11447500D02*
X16451238Y-11457500D01*
X16451238Y-11457500D02*
X16456000Y-11464167D01*
X16456000Y-11464167D02*
X16460762Y-11467500D01*
X16517905Y-11490833D02*
X16517905Y-11517500D01*
X16551238Y-11500833D02*
X16465524Y-11500833D01*
X16465524Y-11500833D02*
X16456000Y-11504167D01*
X16456000Y-11504167D02*
X16451238Y-11510833D01*
X16451238Y-11510833D02*
X16451238Y-11517500D01*
X16456000Y-11567500D02*
X16451238Y-11560833D01*
X16451238Y-11560833D02*
X16451238Y-11547500D01*
X16451238Y-11547500D02*
X16456000Y-11540833D01*
X16456000Y-11540833D02*
X16465524Y-11537500D01*
X16465524Y-11537500D02*
X16503619Y-11537500D01*
X16503619Y-11537500D02*
X16513143Y-11540833D01*
X16513143Y-11540833D02*
X16517905Y-11547500D01*
X16517905Y-11547500D02*
X16517905Y-11560833D01*
X16517905Y-11560833D02*
X16513143Y-11567500D01*
X16513143Y-11567500D02*
X16503619Y-11570833D01*
X16503619Y-11570833D02*
X16494095Y-11570833D01*
X16494095Y-11570833D02*
X16484571Y-11537500D01*
%TO.C,L1*%
X13748762Y-9544167D02*
X13748762Y-9591786D01*
X13748762Y-9591786D02*
X13648762Y-9591786D01*
X13748762Y-9458452D02*
X13748762Y-9515595D01*
X13748762Y-9487024D02*
X13648762Y-9487024D01*
X13648762Y-9487024D02*
X13663048Y-9496548D01*
X13663048Y-9496548D02*
X13672571Y-9506071D01*
X13672571Y-9506071D02*
X13677333Y-9515595D01*
%TO.C,C7*%
X15781738Y-10419167D02*
X15786500Y-10423929D01*
X15786500Y-10423929D02*
X15791262Y-10438214D01*
X15791262Y-10438214D02*
X15791262Y-10447738D01*
X15791262Y-10447738D02*
X15786500Y-10462024D01*
X15786500Y-10462024D02*
X15776976Y-10471548D01*
X15776976Y-10471548D02*
X15767452Y-10476309D01*
X15767452Y-10476309D02*
X15748405Y-10481071D01*
X15748405Y-10481071D02*
X15734119Y-10481071D01*
X15734119Y-10481071D02*
X15715071Y-10476309D01*
X15715071Y-10476309D02*
X15705548Y-10471548D01*
X15705548Y-10471548D02*
X15696024Y-10462024D01*
X15696024Y-10462024D02*
X15691262Y-10447738D01*
X15691262Y-10447738D02*
X15691262Y-10438214D01*
X15691262Y-10438214D02*
X15696024Y-10423929D01*
X15696024Y-10423929D02*
X15700786Y-10419167D01*
X15691262Y-10385833D02*
X15691262Y-10319167D01*
X15691262Y-10319167D02*
X15791262Y-10362024D01*
%TO.C,Q3*%
X14770786Y-12644524D02*
X14766024Y-12654048D01*
X14766024Y-12654048D02*
X14756500Y-12663571D01*
X14756500Y-12663571D02*
X14742214Y-12677857D01*
X14742214Y-12677857D02*
X14737452Y-12687381D01*
X14737452Y-12687381D02*
X14737452Y-12696905D01*
X14761262Y-12692143D02*
X14756500Y-12701667D01*
X14756500Y-12701667D02*
X14746976Y-12711190D01*
X14746976Y-12711190D02*
X14727928Y-12715952D01*
X14727928Y-12715952D02*
X14694595Y-12715952D01*
X14694595Y-12715952D02*
X14675548Y-12711190D01*
X14675548Y-12711190D02*
X14666024Y-12701667D01*
X14666024Y-12701667D02*
X14661262Y-12692143D01*
X14661262Y-12692143D02*
X14661262Y-12673095D01*
X14661262Y-12673095D02*
X14666024Y-12663571D01*
X14666024Y-12663571D02*
X14675548Y-12654048D01*
X14675548Y-12654048D02*
X14694595Y-12649286D01*
X14694595Y-12649286D02*
X14727928Y-12649286D01*
X14727928Y-12649286D02*
X14746976Y-12654048D01*
X14746976Y-12654048D02*
X14756500Y-12663571D01*
X14756500Y-12663571D02*
X14761262Y-12673095D01*
X14761262Y-12673095D02*
X14761262Y-12692143D01*
X14661262Y-12615952D02*
X14661262Y-12554048D01*
X14661262Y-12554048D02*
X14699357Y-12587381D01*
X14699357Y-12587381D02*
X14699357Y-12573095D01*
X14699357Y-12573095D02*
X14704119Y-12563571D01*
X14704119Y-12563571D02*
X14708881Y-12558809D01*
X14708881Y-12558809D02*
X14718405Y-12554048D01*
X14718405Y-12554048D02*
X14742214Y-12554048D01*
X14742214Y-12554048D02*
X14751738Y-12558809D01*
X14751738Y-12558809D02*
X14756500Y-12563571D01*
X14756500Y-12563571D02*
X14761262Y-12573095D01*
X14761262Y-12573095D02*
X14761262Y-12601667D01*
X14761262Y-12601667D02*
X14756500Y-12611190D01*
X14756500Y-12611190D02*
X14751738Y-12615952D01*
%TO.C,J4*%
X14724167Y-15373762D02*
X14724167Y-15445190D01*
X14724167Y-15445190D02*
X14719405Y-15459476D01*
X14719405Y-15459476D02*
X14709881Y-15469000D01*
X14709881Y-15469000D02*
X14695595Y-15473762D01*
X14695595Y-15473762D02*
X14686071Y-15473762D01*
X14814643Y-15407095D02*
X14814643Y-15473762D01*
X14790833Y-15369000D02*
X14767024Y-15440428D01*
X14767024Y-15440428D02*
X14828928Y-15440428D01*
%TO.C,D4*%
X13341690Y-11790262D02*
X13341690Y-11690262D01*
X13341690Y-11690262D02*
X13365500Y-11690262D01*
X13365500Y-11690262D02*
X13379786Y-11695024D01*
X13379786Y-11695024D02*
X13389309Y-11704548D01*
X13389309Y-11704548D02*
X13394071Y-11714071D01*
X13394071Y-11714071D02*
X13398833Y-11733119D01*
X13398833Y-11733119D02*
X13398833Y-11747405D01*
X13398833Y-11747405D02*
X13394071Y-11766452D01*
X13394071Y-11766452D02*
X13389309Y-11775976D01*
X13389309Y-11775976D02*
X13379786Y-11785500D01*
X13379786Y-11785500D02*
X13365500Y-11790262D01*
X13365500Y-11790262D02*
X13341690Y-11790262D01*
X13484548Y-11723595D02*
X13484548Y-11790262D01*
X13460738Y-11685500D02*
X13436929Y-11756928D01*
X13436929Y-11756928D02*
X13498833Y-11756928D01*
X13668809Y-11888762D02*
X13668809Y-11788762D01*
X13725952Y-11888762D02*
X13683095Y-11831619D01*
X13725952Y-11788762D02*
X13668809Y-11845905D01*
%TO.C,Q2*%
X15753286Y-12617024D02*
X15748524Y-12626548D01*
X15748524Y-12626548D02*
X15739000Y-12636071D01*
X15739000Y-12636071D02*
X15724714Y-12650357D01*
X15724714Y-12650357D02*
X15719952Y-12659881D01*
X15719952Y-12659881D02*
X15719952Y-12669405D01*
X15743762Y-12664643D02*
X15739000Y-12674167D01*
X15739000Y-12674167D02*
X15729476Y-12683690D01*
X15729476Y-12683690D02*
X15710428Y-12688452D01*
X15710428Y-12688452D02*
X15677095Y-12688452D01*
X15677095Y-12688452D02*
X15658048Y-12683690D01*
X15658048Y-12683690D02*
X15648524Y-12674167D01*
X15648524Y-12674167D02*
X15643762Y-12664643D01*
X15643762Y-12664643D02*
X15643762Y-12645595D01*
X15643762Y-12645595D02*
X15648524Y-12636071D01*
X15648524Y-12636071D02*
X15658048Y-12626548D01*
X15658048Y-12626548D02*
X15677095Y-12621786D01*
X15677095Y-12621786D02*
X15710428Y-12621786D01*
X15710428Y-12621786D02*
X15729476Y-12626548D01*
X15729476Y-12626548D02*
X15739000Y-12636071D01*
X15739000Y-12636071D02*
X15743762Y-12645595D01*
X15743762Y-12645595D02*
X15743762Y-12664643D01*
X15653286Y-12583690D02*
X15648524Y-12578928D01*
X15648524Y-12578928D02*
X15643762Y-12569405D01*
X15643762Y-12569405D02*
X15643762Y-12545595D01*
X15643762Y-12545595D02*
X15648524Y-12536071D01*
X15648524Y-12536071D02*
X15653286Y-12531309D01*
X15653286Y-12531309D02*
X15662809Y-12526548D01*
X15662809Y-12526548D02*
X15672333Y-12526548D01*
X15672333Y-12526548D02*
X15686619Y-12531309D01*
X15686619Y-12531309D02*
X15743762Y-12588452D01*
X15743762Y-12588452D02*
X15743762Y-12526548D01*
%TO.C,J3*%
X13401762Y-9490833D02*
X13473190Y-9490833D01*
X13473190Y-9490833D02*
X13487476Y-9495595D01*
X13487476Y-9495595D02*
X13497000Y-9505119D01*
X13497000Y-9505119D02*
X13501762Y-9519405D01*
X13501762Y-9519405D02*
X13501762Y-9528929D01*
X13401762Y-9452738D02*
X13401762Y-9390833D01*
X13401762Y-9390833D02*
X13439857Y-9424167D01*
X13439857Y-9424167D02*
X13439857Y-9409881D01*
X13439857Y-9409881D02*
X13444619Y-9400357D01*
X13444619Y-9400357D02*
X13449381Y-9395595D01*
X13449381Y-9395595D02*
X13458905Y-9390833D01*
X13458905Y-9390833D02*
X13482714Y-9390833D01*
X13482714Y-9390833D02*
X13492238Y-9395595D01*
X13492238Y-9395595D02*
X13497000Y-9400357D01*
X13497000Y-9400357D02*
X13501762Y-9409881D01*
X13501762Y-9409881D02*
X13501762Y-9438452D01*
X13501762Y-9438452D02*
X13497000Y-9447976D01*
X13497000Y-9447976D02*
X13492238Y-9452738D01*
%TO.C,J2*%
X14741667Y-16161262D02*
X14741667Y-16232690D01*
X14741667Y-16232690D02*
X14736905Y-16246976D01*
X14736905Y-16246976D02*
X14727381Y-16256500D01*
X14727381Y-16256500D02*
X14713095Y-16261262D01*
X14713095Y-16261262D02*
X14703571Y-16261262D01*
X14784524Y-16170786D02*
X14789286Y-16166024D01*
X14789286Y-16166024D02*
X14798809Y-16161262D01*
X14798809Y-16161262D02*
X14822619Y-16161262D01*
X14822619Y-16161262D02*
X14832143Y-16166024D01*
X14832143Y-16166024D02*
X14836905Y-16170786D01*
X14836905Y-16170786D02*
X14841667Y-16180309D01*
X14841667Y-16180309D02*
X14841667Y-16189833D01*
X14841667Y-16189833D02*
X14836905Y-16204119D01*
X14836905Y-16204119D02*
X14779762Y-16261262D01*
X14779762Y-16261262D02*
X14841667Y-16261262D01*
%TO.C,U4*%
X14721262Y-14076190D02*
X14802214Y-14076190D01*
X14802214Y-14076190D02*
X14811738Y-14071428D01*
X14811738Y-14071428D02*
X14816500Y-14066667D01*
X14816500Y-14066667D02*
X14821262Y-14057143D01*
X14821262Y-14057143D02*
X14821262Y-14038095D01*
X14821262Y-14038095D02*
X14816500Y-14028571D01*
X14816500Y-14028571D02*
X14811738Y-14023809D01*
X14811738Y-14023809D02*
X14802214Y-14019048D01*
X14802214Y-14019048D02*
X14721262Y-14019048D01*
X14754595Y-13928571D02*
X14821262Y-13928571D01*
X14716500Y-13952381D02*
X14787928Y-13976190D01*
X14787928Y-13976190D02*
X14787928Y-13914286D01*
X15630786Y-14306726D02*
X15626024Y-14301369D01*
X15626024Y-14301369D02*
X15621262Y-14291250D01*
X15621262Y-14291250D02*
X15621262Y-14267440D01*
X15621262Y-14267440D02*
X15626024Y-14258512D01*
X15626024Y-14258512D02*
X15630786Y-14254345D01*
X15630786Y-14254345D02*
X15640309Y-14250774D01*
X15640309Y-14250774D02*
X15649833Y-14251964D01*
X15649833Y-14251964D02*
X15664119Y-14258512D01*
X15664119Y-14258512D02*
X15721262Y-14322798D01*
X15721262Y-14322798D02*
X15721262Y-14260893D01*
X15654595Y-14167440D02*
X15721262Y-14175774D01*
X15616500Y-14186488D02*
X15687928Y-14219226D01*
X15687928Y-14219226D02*
X15687928Y-14157321D01*
X15721262Y-14076369D02*
X15721262Y-14123988D01*
X15721262Y-14123988D02*
X15621262Y-14111488D01*
X15711738Y-13985298D02*
X15716500Y-13990655D01*
X15716500Y-13990655D02*
X15721262Y-14005536D01*
X15721262Y-14005536D02*
X15721262Y-14015059D01*
X15721262Y-14015059D02*
X15716500Y-14028750D01*
X15716500Y-14028750D02*
X15706976Y-14037083D01*
X15706976Y-14037083D02*
X15697452Y-14040655D01*
X15697452Y-14040655D02*
X15678405Y-14043036D01*
X15678405Y-14043036D02*
X15664119Y-14041250D01*
X15664119Y-14041250D02*
X15645071Y-14034107D01*
X15645071Y-14034107D02*
X15635548Y-14028155D01*
X15635548Y-14028155D02*
X15626024Y-14017440D01*
X15626024Y-14017440D02*
X15621262Y-14002559D01*
X15621262Y-14002559D02*
X15621262Y-13993036D01*
X15621262Y-13993036D02*
X15626024Y-13979345D01*
X15626024Y-13979345D02*
X15630786Y-13975179D01*
X15630786Y-13937678D02*
X15626024Y-13932321D01*
X15626024Y-13932321D02*
X15621262Y-13922202D01*
X15621262Y-13922202D02*
X15621262Y-13898393D01*
X15621262Y-13898393D02*
X15626024Y-13889464D01*
X15626024Y-13889464D02*
X15630786Y-13885298D01*
X15630786Y-13885298D02*
X15640309Y-13881726D01*
X15640309Y-13881726D02*
X15649833Y-13882917D01*
X15649833Y-13882917D02*
X15664119Y-13889464D01*
X15664119Y-13889464D02*
X15721262Y-13953750D01*
X15721262Y-13953750D02*
X15721262Y-13891845D01*
X15621262Y-13789464D02*
X15621262Y-13837083D01*
X15621262Y-13837083D02*
X15668881Y-13847798D01*
X15668881Y-13847798D02*
X15664119Y-13842440D01*
X15664119Y-13842440D02*
X15659357Y-13832321D01*
X15659357Y-13832321D02*
X15659357Y-13808512D01*
X15659357Y-13808512D02*
X15664119Y-13799583D01*
X15664119Y-13799583D02*
X15668881Y-13795417D01*
X15668881Y-13795417D02*
X15678405Y-13791845D01*
X15678405Y-13791845D02*
X15702214Y-13794821D01*
X15702214Y-13794821D02*
X15711738Y-13800774D01*
X15711738Y-13800774D02*
X15716500Y-13806131D01*
X15716500Y-13806131D02*
X15721262Y-13816250D01*
X15721262Y-13816250D02*
X15721262Y-13840059D01*
X15721262Y-13840059D02*
X15716500Y-13848988D01*
X15716500Y-13848988D02*
X15711738Y-13853155D01*
X15621262Y-13699583D02*
X15621262Y-13718631D01*
X15621262Y-13718631D02*
X15626024Y-13728750D01*
X15626024Y-13728750D02*
X15630786Y-13734107D01*
X15630786Y-13734107D02*
X15645071Y-13745417D01*
X15645071Y-13745417D02*
X15664119Y-13752559D01*
X15664119Y-13752559D02*
X15702214Y-13757321D01*
X15702214Y-13757321D02*
X15711738Y-13753750D01*
X15711738Y-13753750D02*
X15716500Y-13749583D01*
X15716500Y-13749583D02*
X15721262Y-13740655D01*
X15721262Y-13740655D02*
X15721262Y-13721607D01*
X15721262Y-13721607D02*
X15716500Y-13711488D01*
X15716500Y-13711488D02*
X15711738Y-13706131D01*
X15711738Y-13706131D02*
X15702214Y-13700178D01*
X15702214Y-13700178D02*
X15678405Y-13697202D01*
X15678405Y-13697202D02*
X15668881Y-13700774D01*
X15668881Y-13700774D02*
X15664119Y-13704940D01*
X15664119Y-13704940D02*
X15659357Y-13713869D01*
X15659357Y-13713869D02*
X15659357Y-13732917D01*
X15659357Y-13732917D02*
X15664119Y-13743036D01*
X15664119Y-13743036D02*
X15668881Y-13748393D01*
X15668881Y-13748393D02*
X15678405Y-13754345D01*
%TO.C,C21*%
X14798214Y-10881738D02*
X14793452Y-10886500D01*
X14793452Y-10886500D02*
X14779167Y-10891262D01*
X14779167Y-10891262D02*
X14769643Y-10891262D01*
X14769643Y-10891262D02*
X14755357Y-10886500D01*
X14755357Y-10886500D02*
X14745833Y-10876976D01*
X14745833Y-10876976D02*
X14741071Y-10867452D01*
X14741071Y-10867452D02*
X14736309Y-10848405D01*
X14736309Y-10848405D02*
X14736309Y-10834119D01*
X14736309Y-10834119D02*
X14741071Y-10815071D01*
X14741071Y-10815071D02*
X14745833Y-10805548D01*
X14745833Y-10805548D02*
X14755357Y-10796024D01*
X14755357Y-10796024D02*
X14769643Y-10791262D01*
X14769643Y-10791262D02*
X14779167Y-10791262D01*
X14779167Y-10791262D02*
X14793452Y-10796024D01*
X14793452Y-10796024D02*
X14798214Y-10800786D01*
X14836309Y-10800786D02*
X14841071Y-10796024D01*
X14841071Y-10796024D02*
X14850595Y-10791262D01*
X14850595Y-10791262D02*
X14874405Y-10791262D01*
X14874405Y-10791262D02*
X14883928Y-10796024D01*
X14883928Y-10796024D02*
X14888690Y-10800786D01*
X14888690Y-10800786D02*
X14893452Y-10810310D01*
X14893452Y-10810310D02*
X14893452Y-10819833D01*
X14893452Y-10819833D02*
X14888690Y-10834119D01*
X14888690Y-10834119D02*
X14831548Y-10891262D01*
X14831548Y-10891262D02*
X14893452Y-10891262D01*
X14988690Y-10891262D02*
X14931548Y-10891262D01*
X14960119Y-10891262D02*
X14960119Y-10791262D01*
X14960119Y-10791262D02*
X14950595Y-10805548D01*
X14950595Y-10805548D02*
X14941071Y-10815071D01*
X14941071Y-10815071D02*
X14931548Y-10819833D01*
%TO.C,J1*%
X16264167Y-8633762D02*
X16264167Y-8705190D01*
X16264167Y-8705190D02*
X16259405Y-8719476D01*
X16259405Y-8719476D02*
X16249881Y-8729000D01*
X16249881Y-8729000D02*
X16235595Y-8733762D01*
X16235595Y-8733762D02*
X16226071Y-8733762D01*
X16364167Y-8733762D02*
X16307024Y-8733762D01*
X16335595Y-8733762D02*
X16335595Y-8633762D01*
X16335595Y-8633762D02*
X16326071Y-8648048D01*
X16326071Y-8648048D02*
X16316548Y-8657571D01*
X16316548Y-8657571D02*
X16307024Y-8662333D01*
%TO.C,C16*%
X13438214Y-16209238D02*
X13433452Y-16214000D01*
X13433452Y-16214000D02*
X13419167Y-16218762D01*
X13419167Y-16218762D02*
X13409643Y-16218762D01*
X13409643Y-16218762D02*
X13395357Y-16214000D01*
X13395357Y-16214000D02*
X13385833Y-16204476D01*
X13385833Y-16204476D02*
X13381071Y-16194952D01*
X13381071Y-16194952D02*
X13376309Y-16175905D01*
X13376309Y-16175905D02*
X13376309Y-16161619D01*
X13376309Y-16161619D02*
X13381071Y-16142571D01*
X13381071Y-16142571D02*
X13385833Y-16133048D01*
X13385833Y-16133048D02*
X13395357Y-16123524D01*
X13395357Y-16123524D02*
X13409643Y-16118762D01*
X13409643Y-16118762D02*
X13419167Y-16118762D01*
X13419167Y-16118762D02*
X13433452Y-16123524D01*
X13433452Y-16123524D02*
X13438214Y-16128286D01*
X13533452Y-16218762D02*
X13476309Y-16218762D01*
X13504881Y-16218762D02*
X13504881Y-16118762D01*
X13504881Y-16118762D02*
X13495357Y-16133048D01*
X13495357Y-16133048D02*
X13485833Y-16142571D01*
X13485833Y-16142571D02*
X13476309Y-16147333D01*
X13619167Y-16118762D02*
X13600119Y-16118762D01*
X13600119Y-16118762D02*
X13590595Y-16123524D01*
X13590595Y-16123524D02*
X13585833Y-16128286D01*
X13585833Y-16128286D02*
X13576309Y-16142571D01*
X13576309Y-16142571D02*
X13571548Y-16161619D01*
X13571548Y-16161619D02*
X13571548Y-16199714D01*
X13571548Y-16199714D02*
X13576309Y-16209238D01*
X13576309Y-16209238D02*
X13581071Y-16214000D01*
X13581071Y-16214000D02*
X13590595Y-16218762D01*
X13590595Y-16218762D02*
X13609643Y-16218762D01*
X13609643Y-16218762D02*
X13619167Y-16214000D01*
X13619167Y-16214000D02*
X13623928Y-16209238D01*
X13623928Y-16209238D02*
X13628690Y-16199714D01*
X13628690Y-16199714D02*
X13628690Y-16175905D01*
X13628690Y-16175905D02*
X13623928Y-16166381D01*
X13623928Y-16166381D02*
X13619167Y-16161619D01*
X13619167Y-16161619D02*
X13609643Y-16156857D01*
X13609643Y-16156857D02*
X13590595Y-16156857D01*
X13590595Y-16156857D02*
X13581071Y-16161619D01*
X13581071Y-16161619D02*
X13576309Y-16166381D01*
X13576309Y-16166381D02*
X13571548Y-16175905D01*
%TO.C,J10*%
X13289048Y-11993762D02*
X13289048Y-12065190D01*
X13289048Y-12065190D02*
X13284286Y-12079476D01*
X13284286Y-12079476D02*
X13274762Y-12089000D01*
X13274762Y-12089000D02*
X13260476Y-12093762D01*
X13260476Y-12093762D02*
X13250952Y-12093762D01*
X13389048Y-12093762D02*
X13331905Y-12093762D01*
X13360476Y-12093762D02*
X13360476Y-11993762D01*
X13360476Y-11993762D02*
X13350952Y-12008048D01*
X13350952Y-12008048D02*
X13341429Y-12017571D01*
X13341429Y-12017571D02*
X13331905Y-12022333D01*
X13450952Y-11993762D02*
X13460476Y-11993762D01*
X13460476Y-11993762D02*
X13470000Y-11998524D01*
X13470000Y-11998524D02*
X13474762Y-12003286D01*
X13474762Y-12003286D02*
X13479524Y-12012809D01*
X13479524Y-12012809D02*
X13484286Y-12031857D01*
X13484286Y-12031857D02*
X13484286Y-12055667D01*
X13484286Y-12055667D02*
X13479524Y-12074714D01*
X13479524Y-12074714D02*
X13474762Y-12084238D01*
X13474762Y-12084238D02*
X13470000Y-12089000D01*
X13470000Y-12089000D02*
X13460476Y-12093762D01*
X13460476Y-12093762D02*
X13450952Y-12093762D01*
X13450952Y-12093762D02*
X13441429Y-12089000D01*
X13441429Y-12089000D02*
X13436667Y-12084238D01*
X13436667Y-12084238D02*
X13431905Y-12074714D01*
X13431905Y-12074714D02*
X13427143Y-12055667D01*
X13427143Y-12055667D02*
X13427143Y-12031857D01*
X13427143Y-12031857D02*
X13431905Y-12012809D01*
X13431905Y-12012809D02*
X13436667Y-12003286D01*
X13436667Y-12003286D02*
X13441429Y-11998524D01*
X13441429Y-11998524D02*
X13450952Y-11993762D01*
%TO.C,C1*%
X15756738Y-8299167D02*
X15761500Y-8303928D01*
X15761500Y-8303928D02*
X15766262Y-8318214D01*
X15766262Y-8318214D02*
X15766262Y-8327738D01*
X15766262Y-8327738D02*
X15761500Y-8342024D01*
X15761500Y-8342024D02*
X15751976Y-8351547D01*
X15751976Y-8351547D02*
X15742452Y-8356309D01*
X15742452Y-8356309D02*
X15723405Y-8361071D01*
X15723405Y-8361071D02*
X15709119Y-8361071D01*
X15709119Y-8361071D02*
X15690071Y-8356309D01*
X15690071Y-8356309D02*
X15680548Y-8351547D01*
X15680548Y-8351547D02*
X15671024Y-8342024D01*
X15671024Y-8342024D02*
X15666262Y-8327738D01*
X15666262Y-8327738D02*
X15666262Y-8318214D01*
X15666262Y-8318214D02*
X15671024Y-8303928D01*
X15671024Y-8303928D02*
X15675786Y-8299167D01*
X15766262Y-8203928D02*
X15766262Y-8261071D01*
X15766262Y-8232500D02*
X15666262Y-8232500D01*
X15666262Y-8232500D02*
X15680548Y-8242024D01*
X15680548Y-8242024D02*
X15690071Y-8251547D01*
X15690071Y-8251547D02*
X15694833Y-8261071D01*
%TO.C,C20*%
X14251738Y-12671786D02*
X14256500Y-12676548D01*
X14256500Y-12676548D02*
X14261262Y-12690833D01*
X14261262Y-12690833D02*
X14261262Y-12700357D01*
X14261262Y-12700357D02*
X14256500Y-12714643D01*
X14256500Y-12714643D02*
X14246976Y-12724167D01*
X14246976Y-12724167D02*
X14237452Y-12728928D01*
X14237452Y-12728928D02*
X14218405Y-12733690D01*
X14218405Y-12733690D02*
X14204119Y-12733690D01*
X14204119Y-12733690D02*
X14185071Y-12728928D01*
X14185071Y-12728928D02*
X14175548Y-12724167D01*
X14175548Y-12724167D02*
X14166024Y-12714643D01*
X14166024Y-12714643D02*
X14161262Y-12700357D01*
X14161262Y-12700357D02*
X14161262Y-12690833D01*
X14161262Y-12690833D02*
X14166024Y-12676548D01*
X14166024Y-12676548D02*
X14170786Y-12671786D01*
X14170786Y-12633690D02*
X14166024Y-12628928D01*
X14166024Y-12628928D02*
X14161262Y-12619405D01*
X14161262Y-12619405D02*
X14161262Y-12595595D01*
X14161262Y-12595595D02*
X14166024Y-12586071D01*
X14166024Y-12586071D02*
X14170786Y-12581309D01*
X14170786Y-12581309D02*
X14180309Y-12576548D01*
X14180309Y-12576548D02*
X14189833Y-12576548D01*
X14189833Y-12576548D02*
X14204119Y-12581309D01*
X14204119Y-12581309D02*
X14261262Y-12638452D01*
X14261262Y-12638452D02*
X14261262Y-12576548D01*
X14161262Y-12514643D02*
X14161262Y-12505119D01*
X14161262Y-12505119D02*
X14166024Y-12495595D01*
X14166024Y-12495595D02*
X14170786Y-12490833D01*
X14170786Y-12490833D02*
X14180309Y-12486071D01*
X14180309Y-12486071D02*
X14199357Y-12481309D01*
X14199357Y-12481309D02*
X14223167Y-12481309D01*
X14223167Y-12481309D02*
X14242214Y-12486071D01*
X14242214Y-12486071D02*
X14251738Y-12490833D01*
X14251738Y-12490833D02*
X14256500Y-12495595D01*
X14256500Y-12495595D02*
X14261262Y-12505119D01*
X14261262Y-12505119D02*
X14261262Y-12514643D01*
X14261262Y-12514643D02*
X14256500Y-12524167D01*
X14256500Y-12524167D02*
X14251738Y-12528928D01*
X14251738Y-12528928D02*
X14242214Y-12533690D01*
X14242214Y-12533690D02*
X14223167Y-12538452D01*
X14223167Y-12538452D02*
X14199357Y-12538452D01*
X14199357Y-12538452D02*
X14180309Y-12533690D01*
X14180309Y-12533690D02*
X14170786Y-12528928D01*
X14170786Y-12528928D02*
X14166024Y-12524167D01*
X14166024Y-12524167D02*
X14161262Y-12514643D01*
%TO.C,C18*%
X15423214Y-11919238D02*
X15418452Y-11924000D01*
X15418452Y-11924000D02*
X15404167Y-11928762D01*
X15404167Y-11928762D02*
X15394643Y-11928762D01*
X15394643Y-11928762D02*
X15380357Y-11924000D01*
X15380357Y-11924000D02*
X15370833Y-11914476D01*
X15370833Y-11914476D02*
X15366071Y-11904952D01*
X15366071Y-11904952D02*
X15361309Y-11885905D01*
X15361309Y-11885905D02*
X15361309Y-11871619D01*
X15361309Y-11871619D02*
X15366071Y-11852571D01*
X15366071Y-11852571D02*
X15370833Y-11843048D01*
X15370833Y-11843048D02*
X15380357Y-11833524D01*
X15380357Y-11833524D02*
X15394643Y-11828762D01*
X15394643Y-11828762D02*
X15404167Y-11828762D01*
X15404167Y-11828762D02*
X15418452Y-11833524D01*
X15418452Y-11833524D02*
X15423214Y-11838286D01*
X15518452Y-11928762D02*
X15461309Y-11928762D01*
X15489881Y-11928762D02*
X15489881Y-11828762D01*
X15489881Y-11828762D02*
X15480357Y-11843048D01*
X15480357Y-11843048D02*
X15470833Y-11852571D01*
X15470833Y-11852571D02*
X15461309Y-11857333D01*
X15575595Y-11871619D02*
X15566071Y-11866857D01*
X15566071Y-11866857D02*
X15561309Y-11862095D01*
X15561309Y-11862095D02*
X15556548Y-11852571D01*
X15556548Y-11852571D02*
X15556548Y-11847809D01*
X15556548Y-11847809D02*
X15561309Y-11838286D01*
X15561309Y-11838286D02*
X15566071Y-11833524D01*
X15566071Y-11833524D02*
X15575595Y-11828762D01*
X15575595Y-11828762D02*
X15594643Y-11828762D01*
X15594643Y-11828762D02*
X15604167Y-11833524D01*
X15604167Y-11833524D02*
X15608928Y-11838286D01*
X15608928Y-11838286D02*
X15613690Y-11847809D01*
X15613690Y-11847809D02*
X15613690Y-11852571D01*
X15613690Y-11852571D02*
X15608928Y-11862095D01*
X15608928Y-11862095D02*
X15604167Y-11866857D01*
X15604167Y-11866857D02*
X15594643Y-11871619D01*
X15594643Y-11871619D02*
X15575595Y-11871619D01*
X15575595Y-11871619D02*
X15566071Y-11876381D01*
X15566071Y-11876381D02*
X15561309Y-11881143D01*
X15561309Y-11881143D02*
X15556548Y-11890667D01*
X15556548Y-11890667D02*
X15556548Y-11909714D01*
X15556548Y-11909714D02*
X15561309Y-11919238D01*
X15561309Y-11919238D02*
X15566071Y-11924000D01*
X15566071Y-11924000D02*
X15575595Y-11928762D01*
X15575595Y-11928762D02*
X15594643Y-11928762D01*
X15594643Y-11928762D02*
X15604167Y-11924000D01*
X15604167Y-11924000D02*
X15608928Y-11919238D01*
X15608928Y-11919238D02*
X15613690Y-11909714D01*
X15613690Y-11909714D02*
X15613690Y-11890667D01*
X15613690Y-11890667D02*
X15608928Y-11881143D01*
X15608928Y-11881143D02*
X15604167Y-11876381D01*
X15604167Y-11876381D02*
X15594643Y-11871619D01*
%TO.C,C11*%
X15880714Y-15356738D02*
X15875952Y-15361500D01*
X15875952Y-15361500D02*
X15861667Y-15366262D01*
X15861667Y-15366262D02*
X15852143Y-15366262D01*
X15852143Y-15366262D02*
X15837857Y-15361500D01*
X15837857Y-15361500D02*
X15828333Y-15351976D01*
X15828333Y-15351976D02*
X15823571Y-15342452D01*
X15823571Y-15342452D02*
X15818809Y-15323405D01*
X15818809Y-15323405D02*
X15818809Y-15309119D01*
X15818809Y-15309119D02*
X15823571Y-15290071D01*
X15823571Y-15290071D02*
X15828333Y-15280548D01*
X15828333Y-15280548D02*
X15837857Y-15271024D01*
X15837857Y-15271024D02*
X15852143Y-15266262D01*
X15852143Y-15266262D02*
X15861667Y-15266262D01*
X15861667Y-15266262D02*
X15875952Y-15271024D01*
X15875952Y-15271024D02*
X15880714Y-15275786D01*
X15975952Y-15366262D02*
X15918809Y-15366262D01*
X15947381Y-15366262D02*
X15947381Y-15266262D01*
X15947381Y-15266262D02*
X15937857Y-15280548D01*
X15937857Y-15280548D02*
X15928333Y-15290071D01*
X15928333Y-15290071D02*
X15918809Y-15294833D01*
X16071190Y-15366262D02*
X16014048Y-15366262D01*
X16042619Y-15366262D02*
X16042619Y-15266262D01*
X16042619Y-15266262D02*
X16033095Y-15280548D01*
X16033095Y-15280548D02*
X16023571Y-15290071D01*
X16023571Y-15290071D02*
X16014048Y-15294833D01*
%TO.C,C12*%
X14120714Y-15356738D02*
X14115952Y-15361500D01*
X14115952Y-15361500D02*
X14101667Y-15366262D01*
X14101667Y-15366262D02*
X14092143Y-15366262D01*
X14092143Y-15366262D02*
X14077857Y-15361500D01*
X14077857Y-15361500D02*
X14068333Y-15351976D01*
X14068333Y-15351976D02*
X14063571Y-15342452D01*
X14063571Y-15342452D02*
X14058809Y-15323405D01*
X14058809Y-15323405D02*
X14058809Y-15309119D01*
X14058809Y-15309119D02*
X14063571Y-15290071D01*
X14063571Y-15290071D02*
X14068333Y-15280548D01*
X14068333Y-15280548D02*
X14077857Y-15271024D01*
X14077857Y-15271024D02*
X14092143Y-15266262D01*
X14092143Y-15266262D02*
X14101667Y-15266262D01*
X14101667Y-15266262D02*
X14115952Y-15271024D01*
X14115952Y-15271024D02*
X14120714Y-15275786D01*
X14215952Y-15366262D02*
X14158809Y-15366262D01*
X14187381Y-15366262D02*
X14187381Y-15266262D01*
X14187381Y-15266262D02*
X14177857Y-15280548D01*
X14177857Y-15280548D02*
X14168333Y-15290071D01*
X14168333Y-15290071D02*
X14158809Y-15294833D01*
X14254048Y-15275786D02*
X14258809Y-15271024D01*
X14258809Y-15271024D02*
X14268333Y-15266262D01*
X14268333Y-15266262D02*
X14292143Y-15266262D01*
X14292143Y-15266262D02*
X14301667Y-15271024D01*
X14301667Y-15271024D02*
X14306428Y-15275786D01*
X14306428Y-15275786D02*
X14311190Y-15285309D01*
X14311190Y-15285309D02*
X14311190Y-15294833D01*
X14311190Y-15294833D02*
X14306428Y-15309119D01*
X14306428Y-15309119D02*
X14249286Y-15366262D01*
X14249286Y-15366262D02*
X14311190Y-15366262D01*
%TO.C,R8*%
X14273333Y-14538762D02*
X14240000Y-14491143D01*
X14216190Y-14538762D02*
X14216190Y-14438762D01*
X14216190Y-14438762D02*
X14254286Y-14438762D01*
X14254286Y-14438762D02*
X14263809Y-14443524D01*
X14263809Y-14443524D02*
X14268571Y-14448286D01*
X14268571Y-14448286D02*
X14273333Y-14457809D01*
X14273333Y-14457809D02*
X14273333Y-14472095D01*
X14273333Y-14472095D02*
X14268571Y-14481619D01*
X14268571Y-14481619D02*
X14263809Y-14486381D01*
X14263809Y-14486381D02*
X14254286Y-14491143D01*
X14254286Y-14491143D02*
X14216190Y-14491143D01*
X14330476Y-14481619D02*
X14320952Y-14476857D01*
X14320952Y-14476857D02*
X14316190Y-14472095D01*
X14316190Y-14472095D02*
X14311429Y-14462571D01*
X14311429Y-14462571D02*
X14311429Y-14457809D01*
X14311429Y-14457809D02*
X14316190Y-14448286D01*
X14316190Y-14448286D02*
X14320952Y-14443524D01*
X14320952Y-14443524D02*
X14330476Y-14438762D01*
X14330476Y-14438762D02*
X14349524Y-14438762D01*
X14349524Y-14438762D02*
X14359048Y-14443524D01*
X14359048Y-14443524D02*
X14363809Y-14448286D01*
X14363809Y-14448286D02*
X14368571Y-14457809D01*
X14368571Y-14457809D02*
X14368571Y-14462571D01*
X14368571Y-14462571D02*
X14363809Y-14472095D01*
X14363809Y-14472095D02*
X14359048Y-14476857D01*
X14359048Y-14476857D02*
X14349524Y-14481619D01*
X14349524Y-14481619D02*
X14330476Y-14481619D01*
X14330476Y-14481619D02*
X14320952Y-14486381D01*
X14320952Y-14486381D02*
X14316190Y-14491143D01*
X14316190Y-14491143D02*
X14311429Y-14500667D01*
X14311429Y-14500667D02*
X14311429Y-14519714D01*
X14311429Y-14519714D02*
X14316190Y-14529238D01*
X14316190Y-14529238D02*
X14320952Y-14534000D01*
X14320952Y-14534000D02*
X14330476Y-14538762D01*
X14330476Y-14538762D02*
X14349524Y-14538762D01*
X14349524Y-14538762D02*
X14359048Y-14534000D01*
X14359048Y-14534000D02*
X14363809Y-14529238D01*
X14363809Y-14529238D02*
X14368571Y-14519714D01*
X14368571Y-14519714D02*
X14368571Y-14500667D01*
X14368571Y-14500667D02*
X14363809Y-14491143D01*
X14363809Y-14491143D02*
X14359048Y-14486381D01*
X14359048Y-14486381D02*
X14349524Y-14481619D01*
%TO.C,C19*%
X15229238Y-12654286D02*
X15234000Y-12659048D01*
X15234000Y-12659048D02*
X15238762Y-12673333D01*
X15238762Y-12673333D02*
X15238762Y-12682857D01*
X15238762Y-12682857D02*
X15234000Y-12697143D01*
X15234000Y-12697143D02*
X15224476Y-12706667D01*
X15224476Y-12706667D02*
X15214952Y-12711428D01*
X15214952Y-12711428D02*
X15195905Y-12716190D01*
X15195905Y-12716190D02*
X15181619Y-12716190D01*
X15181619Y-12716190D02*
X15162571Y-12711428D01*
X15162571Y-12711428D02*
X15153048Y-12706667D01*
X15153048Y-12706667D02*
X15143524Y-12697143D01*
X15143524Y-12697143D02*
X15138762Y-12682857D01*
X15138762Y-12682857D02*
X15138762Y-12673333D01*
X15138762Y-12673333D02*
X15143524Y-12659048D01*
X15143524Y-12659048D02*
X15148286Y-12654286D01*
X15238762Y-12559048D02*
X15238762Y-12616190D01*
X15238762Y-12587619D02*
X15138762Y-12587619D01*
X15138762Y-12587619D02*
X15153048Y-12597143D01*
X15153048Y-12597143D02*
X15162571Y-12606667D01*
X15162571Y-12606667D02*
X15167333Y-12616190D01*
X15238762Y-12511428D02*
X15238762Y-12492381D01*
X15238762Y-12492381D02*
X15234000Y-12482857D01*
X15234000Y-12482857D02*
X15229238Y-12478095D01*
X15229238Y-12478095D02*
X15214952Y-12468571D01*
X15214952Y-12468571D02*
X15195905Y-12463809D01*
X15195905Y-12463809D02*
X15157809Y-12463809D01*
X15157809Y-12463809D02*
X15148286Y-12468571D01*
X15148286Y-12468571D02*
X15143524Y-12473333D01*
X15143524Y-12473333D02*
X15138762Y-12482857D01*
X15138762Y-12482857D02*
X15138762Y-12501905D01*
X15138762Y-12501905D02*
X15143524Y-12511428D01*
X15143524Y-12511428D02*
X15148286Y-12516190D01*
X15148286Y-12516190D02*
X15157809Y-12520952D01*
X15157809Y-12520952D02*
X15181619Y-12520952D01*
X15181619Y-12520952D02*
X15191143Y-12516190D01*
X15191143Y-12516190D02*
X15195905Y-12511428D01*
X15195905Y-12511428D02*
X15200667Y-12501905D01*
X15200667Y-12501905D02*
X15200667Y-12482857D01*
X15200667Y-12482857D02*
X15195905Y-12473333D01*
X15195905Y-12473333D02*
X15191143Y-12468571D01*
X15191143Y-12468571D02*
X15181619Y-12463809D01*
%TO.C,C14*%
X13926738Y-13194286D02*
X13931500Y-13199048D01*
X13931500Y-13199048D02*
X13936262Y-13213333D01*
X13936262Y-13213333D02*
X13936262Y-13222857D01*
X13936262Y-13222857D02*
X13931500Y-13237143D01*
X13931500Y-13237143D02*
X13921976Y-13246667D01*
X13921976Y-13246667D02*
X13912452Y-13251428D01*
X13912452Y-13251428D02*
X13893405Y-13256190D01*
X13893405Y-13256190D02*
X13879119Y-13256190D01*
X13879119Y-13256190D02*
X13860071Y-13251428D01*
X13860071Y-13251428D02*
X13850548Y-13246667D01*
X13850548Y-13246667D02*
X13841024Y-13237143D01*
X13841024Y-13237143D02*
X13836262Y-13222857D01*
X13836262Y-13222857D02*
X13836262Y-13213333D01*
X13836262Y-13213333D02*
X13841024Y-13199048D01*
X13841024Y-13199048D02*
X13845786Y-13194286D01*
X13936262Y-13099048D02*
X13936262Y-13156190D01*
X13936262Y-13127619D02*
X13836262Y-13127619D01*
X13836262Y-13127619D02*
X13850548Y-13137143D01*
X13850548Y-13137143D02*
X13860071Y-13146667D01*
X13860071Y-13146667D02*
X13864833Y-13156190D01*
X13869595Y-13013333D02*
X13936262Y-13013333D01*
X13831500Y-13037143D02*
X13902928Y-13060952D01*
X13902928Y-13060952D02*
X13902928Y-12999048D01*
%TO.C,C8*%
X15694238Y-9658667D02*
X15699000Y-9663429D01*
X15699000Y-9663429D02*
X15703762Y-9677714D01*
X15703762Y-9677714D02*
X15703762Y-9687238D01*
X15703762Y-9687238D02*
X15699000Y-9701524D01*
X15699000Y-9701524D02*
X15689476Y-9711048D01*
X15689476Y-9711048D02*
X15679952Y-9715809D01*
X15679952Y-9715809D02*
X15660905Y-9720571D01*
X15660905Y-9720571D02*
X15646619Y-9720571D01*
X15646619Y-9720571D02*
X15627571Y-9715809D01*
X15627571Y-9715809D02*
X15618048Y-9711048D01*
X15618048Y-9711048D02*
X15608524Y-9701524D01*
X15608524Y-9701524D02*
X15603762Y-9687238D01*
X15603762Y-9687238D02*
X15603762Y-9677714D01*
X15603762Y-9677714D02*
X15608524Y-9663429D01*
X15608524Y-9663429D02*
X15613286Y-9658667D01*
X15646619Y-9601524D02*
X15641857Y-9611048D01*
X15641857Y-9611048D02*
X15637095Y-9615809D01*
X15637095Y-9615809D02*
X15627571Y-9620571D01*
X15627571Y-9620571D02*
X15622809Y-9620571D01*
X15622809Y-9620571D02*
X15613286Y-9615809D01*
X15613286Y-9615809D02*
X15608524Y-9611048D01*
X15608524Y-9611048D02*
X15603762Y-9601524D01*
X15603762Y-9601524D02*
X15603762Y-9582476D01*
X15603762Y-9582476D02*
X15608524Y-9572952D01*
X15608524Y-9572952D02*
X15613286Y-9568190D01*
X15613286Y-9568190D02*
X15622809Y-9563429D01*
X15622809Y-9563429D02*
X15627571Y-9563429D01*
X15627571Y-9563429D02*
X15637095Y-9568190D01*
X15637095Y-9568190D02*
X15641857Y-9572952D01*
X15641857Y-9572952D02*
X15646619Y-9582476D01*
X15646619Y-9582476D02*
X15646619Y-9601524D01*
X15646619Y-9601524D02*
X15651381Y-9611048D01*
X15651381Y-9611048D02*
X15656143Y-9615809D01*
X15656143Y-9615809D02*
X15665667Y-9620571D01*
X15665667Y-9620571D02*
X15684714Y-9620571D01*
X15684714Y-9620571D02*
X15694238Y-9615809D01*
X15694238Y-9615809D02*
X15699000Y-9611048D01*
X15699000Y-9611048D02*
X15703762Y-9601524D01*
X15703762Y-9601524D02*
X15703762Y-9582476D01*
X15703762Y-9582476D02*
X15699000Y-9572952D01*
X15699000Y-9572952D02*
X15694238Y-9568190D01*
X15694238Y-9568190D02*
X15684714Y-9563429D01*
X15684714Y-9563429D02*
X15665667Y-9563429D01*
X15665667Y-9563429D02*
X15656143Y-9568190D01*
X15656143Y-9568190D02*
X15651381Y-9572952D01*
X15651381Y-9572952D02*
X15646619Y-9582476D01*
%TO.C,J7*%
X14709167Y-12036262D02*
X14709167Y-12107690D01*
X14709167Y-12107690D02*
X14704405Y-12121976D01*
X14704405Y-12121976D02*
X14694881Y-12131500D01*
X14694881Y-12131500D02*
X14680595Y-12136262D01*
X14680595Y-12136262D02*
X14671071Y-12136262D01*
X14747262Y-12036262D02*
X14813928Y-12036262D01*
X14813928Y-12036262D02*
X14771071Y-12136262D01*
%TO.C,U1*%
X13968762Y-10468690D02*
X14049714Y-10468690D01*
X14049714Y-10468690D02*
X14059238Y-10463929D01*
X14059238Y-10463929D02*
X14064000Y-10459167D01*
X14064000Y-10459167D02*
X14068762Y-10449643D01*
X14068762Y-10449643D02*
X14068762Y-10430595D01*
X14068762Y-10430595D02*
X14064000Y-10421071D01*
X14064000Y-10421071D02*
X14059238Y-10416310D01*
X14059238Y-10416310D02*
X14049714Y-10411548D01*
X14049714Y-10411548D02*
X13968762Y-10411548D01*
X14068762Y-10311548D02*
X14068762Y-10368690D01*
X14068762Y-10340119D02*
X13968762Y-10340119D01*
X13968762Y-10340119D02*
X13983048Y-10349643D01*
X13983048Y-10349643D02*
X13992571Y-10359167D01*
X13992571Y-10359167D02*
X13997333Y-10368690D01*
%TO.C,D3*%
X13381690Y-11537762D02*
X13381690Y-11437762D01*
X13381690Y-11437762D02*
X13405500Y-11437762D01*
X13405500Y-11437762D02*
X13419786Y-11442524D01*
X13419786Y-11442524D02*
X13429309Y-11452048D01*
X13429309Y-11452048D02*
X13434071Y-11461571D01*
X13434071Y-11461571D02*
X13438833Y-11480619D01*
X13438833Y-11480619D02*
X13438833Y-11494905D01*
X13438833Y-11494905D02*
X13434071Y-11513952D01*
X13434071Y-11513952D02*
X13429309Y-11523476D01*
X13429309Y-11523476D02*
X13419786Y-11533000D01*
X13419786Y-11533000D02*
X13405500Y-11537762D01*
X13405500Y-11537762D02*
X13381690Y-11537762D01*
X13472167Y-11437762D02*
X13534071Y-11437762D01*
X13534071Y-11437762D02*
X13500738Y-11475857D01*
X13500738Y-11475857D02*
X13515024Y-11475857D01*
X13515024Y-11475857D02*
X13524548Y-11480619D01*
X13524548Y-11480619D02*
X13529309Y-11485381D01*
X13529309Y-11485381D02*
X13534071Y-11494905D01*
X13534071Y-11494905D02*
X13534071Y-11518714D01*
X13534071Y-11518714D02*
X13529309Y-11528238D01*
X13529309Y-11528238D02*
X13524548Y-11533000D01*
X13524548Y-11533000D02*
X13515024Y-11537762D01*
X13515024Y-11537762D02*
X13486452Y-11537762D01*
X13486452Y-11537762D02*
X13476929Y-11533000D01*
X13476929Y-11533000D02*
X13472167Y-11528238D01*
X13141309Y-11471262D02*
X13141309Y-11371262D01*
X13198452Y-11471262D02*
X13155595Y-11414119D01*
X13198452Y-11371262D02*
X13141309Y-11428405D01*
%TO.C,Q1*%
X14272976Y-14170786D02*
X14263452Y-14166024D01*
X14263452Y-14166024D02*
X14253928Y-14156500D01*
X14253928Y-14156500D02*
X14239643Y-14142214D01*
X14239643Y-14142214D02*
X14230119Y-14137452D01*
X14230119Y-14137452D02*
X14220595Y-14137452D01*
X14225357Y-14161262D02*
X14215833Y-14156500D01*
X14215833Y-14156500D02*
X14206309Y-14146976D01*
X14206309Y-14146976D02*
X14201548Y-14127928D01*
X14201548Y-14127928D02*
X14201548Y-14094595D01*
X14201548Y-14094595D02*
X14206309Y-14075548D01*
X14206309Y-14075548D02*
X14215833Y-14066024D01*
X14215833Y-14066024D02*
X14225357Y-14061262D01*
X14225357Y-14061262D02*
X14244405Y-14061262D01*
X14244405Y-14061262D02*
X14253928Y-14066024D01*
X14253928Y-14066024D02*
X14263452Y-14075548D01*
X14263452Y-14075548D02*
X14268214Y-14094595D01*
X14268214Y-14094595D02*
X14268214Y-14127928D01*
X14268214Y-14127928D02*
X14263452Y-14146976D01*
X14263452Y-14146976D02*
X14253928Y-14156500D01*
X14253928Y-14156500D02*
X14244405Y-14161262D01*
X14244405Y-14161262D02*
X14225357Y-14161262D01*
X14363452Y-14161262D02*
X14306309Y-14161262D01*
X14334881Y-14161262D02*
X14334881Y-14061262D01*
X14334881Y-14061262D02*
X14325357Y-14075548D01*
X14325357Y-14075548D02*
X14315833Y-14085071D01*
X14315833Y-14085071D02*
X14306309Y-14089833D01*
%TO.C,L2*%
X12723762Y-10074167D02*
X12723762Y-10121786D01*
X12723762Y-10121786D02*
X12623762Y-10121786D01*
X12633286Y-10045595D02*
X12628524Y-10040833D01*
X12628524Y-10040833D02*
X12623762Y-10031309D01*
X12623762Y-10031309D02*
X12623762Y-10007500D01*
X12623762Y-10007500D02*
X12628524Y-9997976D01*
X12628524Y-9997976D02*
X12633286Y-9993214D01*
X12633286Y-9993214D02*
X12642809Y-9988452D01*
X12642809Y-9988452D02*
X12652333Y-9988452D01*
X12652333Y-9988452D02*
X12666619Y-9993214D01*
X12666619Y-9993214D02*
X12723762Y-10050357D01*
X12723762Y-10050357D02*
X12723762Y-9988452D01*
%TO.C,C17*%
X15518214Y-10886738D02*
X15513452Y-10891500D01*
X15513452Y-10891500D02*
X15499167Y-10896262D01*
X15499167Y-10896262D02*
X15489643Y-10896262D01*
X15489643Y-10896262D02*
X15475357Y-10891500D01*
X15475357Y-10891500D02*
X15465833Y-10881976D01*
X15465833Y-10881976D02*
X15461071Y-10872452D01*
X15461071Y-10872452D02*
X15456309Y-10853405D01*
X15456309Y-10853405D02*
X15456309Y-10839119D01*
X15456309Y-10839119D02*
X15461071Y-10820071D01*
X15461071Y-10820071D02*
X15465833Y-10810548D01*
X15465833Y-10810548D02*
X15475357Y-10801024D01*
X15475357Y-10801024D02*
X15489643Y-10796262D01*
X15489643Y-10796262D02*
X15499167Y-10796262D01*
X15499167Y-10796262D02*
X15513452Y-10801024D01*
X15513452Y-10801024D02*
X15518214Y-10805786D01*
X15613452Y-10896262D02*
X15556309Y-10896262D01*
X15584881Y-10896262D02*
X15584881Y-10796262D01*
X15584881Y-10796262D02*
X15575357Y-10810548D01*
X15575357Y-10810548D02*
X15565833Y-10820071D01*
X15565833Y-10820071D02*
X15556309Y-10824833D01*
X15646786Y-10796262D02*
X15713452Y-10796262D01*
X15713452Y-10796262D02*
X15670595Y-10896262D01*
%TO.C,C5*%
X15686778Y-9104078D02*
X15691540Y-9108840D01*
X15691540Y-9108840D02*
X15696302Y-9123126D01*
X15696302Y-9123126D02*
X15696302Y-9132649D01*
X15696302Y-9132649D02*
X15691540Y-9146935D01*
X15691540Y-9146935D02*
X15682016Y-9156459D01*
X15682016Y-9156459D02*
X15672492Y-9161221D01*
X15672492Y-9161221D02*
X15653445Y-9165983D01*
X15653445Y-9165983D02*
X15639159Y-9165983D01*
X15639159Y-9165983D02*
X15620111Y-9161221D01*
X15620111Y-9161221D02*
X15610588Y-9156459D01*
X15610588Y-9156459D02*
X15601064Y-9146935D01*
X15601064Y-9146935D02*
X15596302Y-9132649D01*
X15596302Y-9132649D02*
X15596302Y-9123126D01*
X15596302Y-9123126D02*
X15601064Y-9108840D01*
X15601064Y-9108840D02*
X15605826Y-9104078D01*
X15596302Y-9013602D02*
X15596302Y-9061221D01*
X15596302Y-9061221D02*
X15643921Y-9065983D01*
X15643921Y-9065983D02*
X15639159Y-9061221D01*
X15639159Y-9061221D02*
X15634397Y-9051697D01*
X15634397Y-9051697D02*
X15634397Y-9027887D01*
X15634397Y-9027887D02*
X15639159Y-9018364D01*
X15639159Y-9018364D02*
X15643921Y-9013602D01*
X15643921Y-9013602D02*
X15653445Y-9008840D01*
X15653445Y-9008840D02*
X15677254Y-9008840D01*
X15677254Y-9008840D02*
X15686778Y-9013602D01*
X15686778Y-9013602D02*
X15691540Y-9018364D01*
X15691540Y-9018364D02*
X15696302Y-9027887D01*
X15696302Y-9027887D02*
X15696302Y-9051697D01*
X15696302Y-9051697D02*
X15691540Y-9061221D01*
X15691540Y-9061221D02*
X15686778Y-9065983D01*
%TO.C,Y1*%
X14048643Y-11422619D02*
X14096262Y-11422619D01*
X13996262Y-11455952D02*
X14048643Y-11422619D01*
X14048643Y-11422619D02*
X13996262Y-11389286D01*
X14096262Y-11303571D02*
X14096262Y-11360714D01*
X14096262Y-11332143D02*
X13996262Y-11332143D01*
X13996262Y-11332143D02*
X14010548Y-11341667D01*
X14010548Y-11341667D02*
X14020071Y-11351190D01*
X14020071Y-11351190D02*
X14024833Y-11360714D01*
%TO.C,D1*%
X13600690Y-8698762D02*
X13600690Y-8598762D01*
X13600690Y-8598762D02*
X13624500Y-8598762D01*
X13624500Y-8598762D02*
X13638786Y-8603524D01*
X13638786Y-8603524D02*
X13648309Y-8613048D01*
X13648309Y-8613048D02*
X13653071Y-8622571D01*
X13653071Y-8622571D02*
X13657833Y-8641619D01*
X13657833Y-8641619D02*
X13657833Y-8655905D01*
X13657833Y-8655905D02*
X13653071Y-8674952D01*
X13653071Y-8674952D02*
X13648309Y-8684476D01*
X13648309Y-8684476D02*
X13638786Y-8694000D01*
X13638786Y-8694000D02*
X13624500Y-8698762D01*
X13624500Y-8698762D02*
X13600690Y-8698762D01*
X13753071Y-8698762D02*
X13695929Y-8698762D01*
X13724500Y-8698762D02*
X13724500Y-8598762D01*
X13724500Y-8598762D02*
X13714976Y-8613048D01*
X13714976Y-8613048D02*
X13705452Y-8622571D01*
X13705452Y-8622571D02*
X13695929Y-8627333D01*
X13909809Y-8633762D02*
X13909809Y-8533762D01*
X13966952Y-8633762D02*
X13924095Y-8576619D01*
X13966952Y-8533762D02*
X13909809Y-8590905D01*
%TO.C,R14*%
X14481262Y-13604286D02*
X14433643Y-13637619D01*
X14481262Y-13661428D02*
X14381262Y-13661428D01*
X14381262Y-13661428D02*
X14381262Y-13623333D01*
X14381262Y-13623333D02*
X14386024Y-13613809D01*
X14386024Y-13613809D02*
X14390786Y-13609048D01*
X14390786Y-13609048D02*
X14400309Y-13604286D01*
X14400309Y-13604286D02*
X14414595Y-13604286D01*
X14414595Y-13604286D02*
X14424119Y-13609048D01*
X14424119Y-13609048D02*
X14428881Y-13613809D01*
X14428881Y-13613809D02*
X14433643Y-13623333D01*
X14433643Y-13623333D02*
X14433643Y-13661428D01*
X14481262Y-13509048D02*
X14481262Y-13566190D01*
X14481262Y-13537619D02*
X14381262Y-13537619D01*
X14381262Y-13537619D02*
X14395548Y-13547143D01*
X14395548Y-13547143D02*
X14405071Y-13556667D01*
X14405071Y-13556667D02*
X14409833Y-13566190D01*
X14414595Y-13423333D02*
X14481262Y-13423333D01*
X14376500Y-13447143D02*
X14447928Y-13470952D01*
X14447928Y-13470952D02*
X14447928Y-13409048D01*
%TO.C,D2*%
X13649690Y-8451262D02*
X13649690Y-8351262D01*
X13649690Y-8351262D02*
X13673500Y-8351262D01*
X13673500Y-8351262D02*
X13687786Y-8356024D01*
X13687786Y-8356024D02*
X13697309Y-8365548D01*
X13697309Y-8365548D02*
X13702071Y-8375071D01*
X13702071Y-8375071D02*
X13706833Y-8394119D01*
X13706833Y-8394119D02*
X13706833Y-8408405D01*
X13706833Y-8408405D02*
X13702071Y-8427452D01*
X13702071Y-8427452D02*
X13697309Y-8436976D01*
X13697309Y-8436976D02*
X13687786Y-8446500D01*
X13687786Y-8446500D02*
X13673500Y-8451262D01*
X13673500Y-8451262D02*
X13649690Y-8451262D01*
X13744929Y-8360786D02*
X13749690Y-8356024D01*
X13749690Y-8356024D02*
X13759214Y-8351262D01*
X13759214Y-8351262D02*
X13783024Y-8351262D01*
X13783024Y-8351262D02*
X13792548Y-8356024D01*
X13792548Y-8356024D02*
X13797309Y-8360786D01*
X13797309Y-8360786D02*
X13802071Y-8370309D01*
X13802071Y-8370309D02*
X13802071Y-8379833D01*
X13802071Y-8379833D02*
X13797309Y-8394119D01*
X13797309Y-8394119D02*
X13740167Y-8451262D01*
X13740167Y-8451262D02*
X13802071Y-8451262D01*
X13406309Y-8376262D02*
X13406309Y-8276262D01*
X13463452Y-8376262D02*
X13420595Y-8319119D01*
X13463452Y-8276262D02*
X13406309Y-8333405D01*
%TO.C,J5*%
X13423762Y-11263333D02*
X13495190Y-11263333D01*
X13495190Y-11263333D02*
X13509476Y-11268095D01*
X13509476Y-11268095D02*
X13519000Y-11277619D01*
X13519000Y-11277619D02*
X13523762Y-11291905D01*
X13523762Y-11291905D02*
X13523762Y-11301428D01*
X13423762Y-11168095D02*
X13423762Y-11215714D01*
X13423762Y-11215714D02*
X13471381Y-11220476D01*
X13471381Y-11220476D02*
X13466619Y-11215714D01*
X13466619Y-11215714D02*
X13461857Y-11206190D01*
X13461857Y-11206190D02*
X13461857Y-11182381D01*
X13461857Y-11182381D02*
X13466619Y-11172857D01*
X13466619Y-11172857D02*
X13471381Y-11168095D01*
X13471381Y-11168095D02*
X13480905Y-11163333D01*
X13480905Y-11163333D02*
X13504714Y-11163333D01*
X13504714Y-11163333D02*
X13514238Y-11168095D01*
X13514238Y-11168095D02*
X13519000Y-11172857D01*
X13519000Y-11172857D02*
X13523762Y-11182381D01*
X13523762Y-11182381D02*
X13523762Y-11206190D01*
X13523762Y-11206190D02*
X13519000Y-11215714D01*
X13519000Y-11215714D02*
X13514238Y-11220476D01*
X13471381Y-11057143D02*
X13471381Y-11090476D01*
X13523762Y-11090476D02*
X13423762Y-11090476D01*
X13423762Y-11090476D02*
X13423762Y-11042857D01*
X13523762Y-11004762D02*
X13423762Y-11004762D01*
X13423762Y-11004762D02*
X13495190Y-10971429D01*
X13495190Y-10971429D02*
X13423762Y-10938095D01*
X13423762Y-10938095D02*
X13523762Y-10938095D01*
X13533286Y-10914286D02*
X13533286Y-10838095D01*
X13523762Y-10814286D02*
X13423762Y-10814286D01*
X13523762Y-10766667D02*
X13423762Y-10766667D01*
X13423762Y-10766667D02*
X13523762Y-10709524D01*
X13523762Y-10709524D02*
X13423762Y-10709524D01*
%TO.C,U5*%
X12987395Y-13069262D02*
X12987395Y-13202186D01*
X12987395Y-13202186D02*
X12995214Y-13217824D01*
X12995214Y-13217824D02*
X13003033Y-13225643D01*
X13003033Y-13225643D02*
X13018671Y-13233462D01*
X13018671Y-13233462D02*
X13049948Y-13233462D01*
X13049948Y-13233462D02*
X13065586Y-13225643D01*
X13065586Y-13225643D02*
X13073405Y-13217824D01*
X13073405Y-13217824D02*
X13081224Y-13202186D01*
X13081224Y-13202186D02*
X13081224Y-13069262D01*
X13237605Y-13069262D02*
X13159414Y-13069262D01*
X13159414Y-13069262D02*
X13151595Y-13147453D01*
X13151595Y-13147453D02*
X13159414Y-13139633D01*
X13159414Y-13139633D02*
X13175052Y-13131814D01*
X13175052Y-13131814D02*
X13214147Y-13131814D01*
X13214147Y-13131814D02*
X13229786Y-13139633D01*
X13229786Y-13139633D02*
X13237605Y-13147453D01*
X13237605Y-13147453D02*
X13245424Y-13163091D01*
X13245424Y-13163091D02*
X13245424Y-13202186D01*
X13245424Y-13202186D02*
X13237605Y-13217824D01*
X13237605Y-13217824D02*
X13229786Y-13225643D01*
X13229786Y-13225643D02*
X13214147Y-13233462D01*
X13214147Y-13233462D02*
X13175052Y-13233462D01*
X13175052Y-13233462D02*
X13159414Y-13225643D01*
X13159414Y-13225643D02*
X13151595Y-13217824D01*
%TO.C,U2*%
X13981262Y-9661190D02*
X14062214Y-9661190D01*
X14062214Y-9661190D02*
X14071738Y-9656429D01*
X14071738Y-9656429D02*
X14076500Y-9651667D01*
X14076500Y-9651667D02*
X14081262Y-9642143D01*
X14081262Y-9642143D02*
X14081262Y-9623095D01*
X14081262Y-9623095D02*
X14076500Y-9613571D01*
X14076500Y-9613571D02*
X14071738Y-9608810D01*
X14071738Y-9608810D02*
X14062214Y-9604048D01*
X14062214Y-9604048D02*
X13981262Y-9604048D01*
X13990786Y-9561190D02*
X13986024Y-9556429D01*
X13986024Y-9556429D02*
X13981262Y-9546905D01*
X13981262Y-9546905D02*
X13981262Y-9523095D01*
X13981262Y-9523095D02*
X13986024Y-9513571D01*
X13986024Y-9513571D02*
X13990786Y-9508810D01*
X13990786Y-9508810D02*
X14000309Y-9504048D01*
X14000309Y-9504048D02*
X14009833Y-9504048D01*
X14009833Y-9504048D02*
X14024119Y-9508810D01*
X14024119Y-9508810D02*
X14081262Y-9565952D01*
X14081262Y-9565952D02*
X14081262Y-9504048D01*
%TO.C,C22*%
X14930714Y-11916738D02*
X14925952Y-11921500D01*
X14925952Y-11921500D02*
X14911667Y-11926262D01*
X14911667Y-11926262D02*
X14902143Y-11926262D01*
X14902143Y-11926262D02*
X14887857Y-11921500D01*
X14887857Y-11921500D02*
X14878333Y-11911976D01*
X14878333Y-11911976D02*
X14873571Y-11902452D01*
X14873571Y-11902452D02*
X14868809Y-11883405D01*
X14868809Y-11883405D02*
X14868809Y-11869119D01*
X14868809Y-11869119D02*
X14873571Y-11850071D01*
X14873571Y-11850071D02*
X14878333Y-11840548D01*
X14878333Y-11840548D02*
X14887857Y-11831024D01*
X14887857Y-11831024D02*
X14902143Y-11826262D01*
X14902143Y-11826262D02*
X14911667Y-11826262D01*
X14911667Y-11826262D02*
X14925952Y-11831024D01*
X14925952Y-11831024D02*
X14930714Y-11835786D01*
X14968809Y-11835786D02*
X14973571Y-11831024D01*
X14973571Y-11831024D02*
X14983095Y-11826262D01*
X14983095Y-11826262D02*
X15006905Y-11826262D01*
X15006905Y-11826262D02*
X15016428Y-11831024D01*
X15016428Y-11831024D02*
X15021190Y-11835786D01*
X15021190Y-11835786D02*
X15025952Y-11845309D01*
X15025952Y-11845309D02*
X15025952Y-11854833D01*
X15025952Y-11854833D02*
X15021190Y-11869119D01*
X15021190Y-11869119D02*
X14964048Y-11926262D01*
X14964048Y-11926262D02*
X15025952Y-11926262D01*
X15064048Y-11835786D02*
X15068809Y-11831024D01*
X15068809Y-11831024D02*
X15078333Y-11826262D01*
X15078333Y-11826262D02*
X15102143Y-11826262D01*
X15102143Y-11826262D02*
X15111667Y-11831024D01*
X15111667Y-11831024D02*
X15116428Y-11835786D01*
X15116428Y-11835786D02*
X15121190Y-11845309D01*
X15121190Y-11845309D02*
X15121190Y-11854833D01*
X15121190Y-11854833D02*
X15116428Y-11869119D01*
X15116428Y-11869119D02*
X15059286Y-11926262D01*
X15059286Y-11926262D02*
X15121190Y-11926262D01*
%TO.C,R15*%
X13956262Y-14384286D02*
X13908643Y-14417619D01*
X13956262Y-14441428D02*
X13856262Y-14441428D01*
X13856262Y-14441428D02*
X13856262Y-14403333D01*
X13856262Y-14403333D02*
X13861024Y-14393809D01*
X13861024Y-14393809D02*
X13865786Y-14389048D01*
X13865786Y-14389048D02*
X13875309Y-14384286D01*
X13875309Y-14384286D02*
X13889595Y-14384286D01*
X13889595Y-14384286D02*
X13899119Y-14389048D01*
X13899119Y-14389048D02*
X13903881Y-14393809D01*
X13903881Y-14393809D02*
X13908643Y-14403333D01*
X13908643Y-14403333D02*
X13908643Y-14441428D01*
X13956262Y-14289048D02*
X13956262Y-14346190D01*
X13956262Y-14317619D02*
X13856262Y-14317619D01*
X13856262Y-14317619D02*
X13870548Y-14327143D01*
X13870548Y-14327143D02*
X13880071Y-14336667D01*
X13880071Y-14336667D02*
X13884833Y-14346190D01*
X13856262Y-14198571D02*
X13856262Y-14246190D01*
X13856262Y-14246190D02*
X13903881Y-14250952D01*
X13903881Y-14250952D02*
X13899119Y-14246190D01*
X13899119Y-14246190D02*
X13894357Y-14236667D01*
X13894357Y-14236667D02*
X13894357Y-14212857D01*
X13894357Y-14212857D02*
X13899119Y-14203333D01*
X13899119Y-14203333D02*
X13903881Y-14198571D01*
X13903881Y-14198571D02*
X13913405Y-14193809D01*
X13913405Y-14193809D02*
X13937214Y-14193809D01*
X13937214Y-14193809D02*
X13946738Y-14198571D01*
X13946738Y-14198571D02*
X13951500Y-14203333D01*
X13951500Y-14203333D02*
X13956262Y-14212857D01*
X13956262Y-14212857D02*
X13956262Y-14236667D01*
X13956262Y-14236667D02*
X13951500Y-14246190D01*
X13951500Y-14246190D02*
X13946738Y-14250952D01*
D10*
%TO.C,L1*%
X13782500Y-9409500D02*
X13782500Y-9630500D01*
X13959500Y-9232500D02*
G75*
G03*
X13959500Y-9232500I-177000J0D01*
G01*
%TO.C,C7*%
X15086511Y-10252500D02*
X15136511Y-10252500D01*
X15111511Y-10227500D02*
X15111511Y-10277500D01*
X15366989Y-10142000D02*
X15366989Y-10296000D01*
X15366989Y-10504000D02*
X15366989Y-10658000D01*
X15370989Y-10142000D02*
X15370989Y-10296000D01*
X15370989Y-10504000D02*
X15370989Y-10658000D01*
X15374989Y-10142100D02*
X15374989Y-10296000D01*
X15374989Y-10504000D02*
X15374989Y-10657900D01*
X15378989Y-10142200D02*
X15378989Y-10296000D01*
X15378989Y-10504000D02*
X15378989Y-10657800D01*
X15382989Y-10142400D02*
X15382989Y-10296000D01*
X15382989Y-10504000D02*
X15382989Y-10657600D01*
X15386989Y-10142700D02*
X15386989Y-10296000D01*
X15386989Y-10504000D02*
X15386989Y-10657300D01*
X15390989Y-10143100D02*
X15390989Y-10296000D01*
X15390989Y-10504000D02*
X15390989Y-10656900D01*
X15394989Y-10143500D02*
X15394989Y-10296000D01*
X15394989Y-10504000D02*
X15394989Y-10656500D01*
X15398989Y-10143900D02*
X15398989Y-10296000D01*
X15398989Y-10504000D02*
X15398989Y-10656100D01*
X15402989Y-10144400D02*
X15402989Y-10296000D01*
X15402989Y-10504000D02*
X15402989Y-10655600D01*
X15406989Y-10145000D02*
X15406989Y-10296000D01*
X15406989Y-10504000D02*
X15406989Y-10655000D01*
X15410989Y-10145700D02*
X15410989Y-10296000D01*
X15410989Y-10504000D02*
X15410989Y-10654300D01*
X15414989Y-10146400D02*
X15414989Y-10296000D01*
X15414989Y-10504000D02*
X15414989Y-10653600D01*
X15418989Y-10147200D02*
X15418989Y-10296000D01*
X15418989Y-10504000D02*
X15418989Y-10652800D01*
X15422989Y-10148000D02*
X15422989Y-10296000D01*
X15422989Y-10504000D02*
X15422989Y-10652000D01*
X15426989Y-10148900D02*
X15426989Y-10296000D01*
X15426989Y-10504000D02*
X15426989Y-10651100D01*
X15430989Y-10149900D02*
X15430989Y-10296000D01*
X15430989Y-10504000D02*
X15430989Y-10650100D01*
X15434989Y-10150900D02*
X15434989Y-10296000D01*
X15434989Y-10504000D02*
X15434989Y-10649100D01*
X15439089Y-10152000D02*
X15439089Y-10296000D01*
X15439089Y-10504000D02*
X15439089Y-10648000D01*
X15443089Y-10153200D02*
X15443089Y-10296000D01*
X15443089Y-10504000D02*
X15443089Y-10646800D01*
X15447089Y-10154500D02*
X15447089Y-10296000D01*
X15447089Y-10504000D02*
X15447089Y-10645500D01*
X15451089Y-10155800D02*
X15451089Y-10296000D01*
X15451089Y-10504000D02*
X15451089Y-10644200D01*
X15455089Y-10157200D02*
X15455089Y-10296000D01*
X15455089Y-10504000D02*
X15455089Y-10642800D01*
X15459089Y-10158600D02*
X15459089Y-10296000D01*
X15459089Y-10504000D02*
X15459089Y-10641400D01*
X15463089Y-10160200D02*
X15463089Y-10296000D01*
X15463089Y-10504000D02*
X15463089Y-10639800D01*
X15467089Y-10161800D02*
X15467089Y-10296000D01*
X15467089Y-10504000D02*
X15467089Y-10638200D01*
X15471089Y-10163500D02*
X15471089Y-10296000D01*
X15471089Y-10504000D02*
X15471089Y-10636500D01*
X15475089Y-10165200D02*
X15475089Y-10296000D01*
X15475089Y-10504000D02*
X15475089Y-10634800D01*
X15479089Y-10167100D02*
X15479089Y-10296000D01*
X15479089Y-10504000D02*
X15479089Y-10632900D01*
X15483089Y-10169000D02*
X15483089Y-10296000D01*
X15483089Y-10504000D02*
X15483089Y-10631000D01*
X15487089Y-10171000D02*
X15487089Y-10296000D01*
X15487089Y-10504000D02*
X15487089Y-10629000D01*
X15491089Y-10173200D02*
X15491089Y-10296000D01*
X15491089Y-10504000D02*
X15491089Y-10626800D01*
X15495089Y-10175300D02*
X15495089Y-10296000D01*
X15495089Y-10504000D02*
X15495089Y-10624700D01*
X15499089Y-10177600D02*
X15499089Y-10296000D01*
X15499089Y-10504000D02*
X15499089Y-10622400D01*
X15503089Y-10180000D02*
X15503089Y-10296000D01*
X15503089Y-10504000D02*
X15503089Y-10620000D01*
X15507089Y-10182500D02*
X15507089Y-10296000D01*
X15507089Y-10504000D02*
X15507089Y-10617500D01*
X15511089Y-10185100D02*
X15511089Y-10296000D01*
X15511089Y-10504000D02*
X15511089Y-10614900D01*
X15515089Y-10187800D02*
X15515089Y-10296000D01*
X15515089Y-10504000D02*
X15515089Y-10612200D01*
X15519089Y-10190500D02*
X15519089Y-10296000D01*
X15519089Y-10504000D02*
X15519089Y-10609500D01*
X15523089Y-10193500D02*
X15523089Y-10296000D01*
X15523089Y-10504000D02*
X15523089Y-10606500D01*
X15527089Y-10196500D02*
X15527089Y-10296000D01*
X15527089Y-10504000D02*
X15527089Y-10603500D01*
X15531089Y-10199600D02*
X15531089Y-10296000D01*
X15531089Y-10504000D02*
X15531089Y-10600400D01*
X15535089Y-10202900D02*
X15535089Y-10296000D01*
X15535089Y-10504000D02*
X15535089Y-10597100D01*
X15539089Y-10206300D02*
X15539089Y-10296000D01*
X15539089Y-10504000D02*
X15539089Y-10593700D01*
X15543089Y-10209900D02*
X15543089Y-10296000D01*
X15543089Y-10504000D02*
X15543089Y-10590100D01*
X15547089Y-10213600D02*
X15547089Y-10296000D01*
X15547089Y-10504000D02*
X15547089Y-10586400D01*
X15551089Y-10217400D02*
X15551089Y-10296000D01*
X15551089Y-10504000D02*
X15551089Y-10582600D01*
X15555089Y-10221500D02*
X15555089Y-10296000D01*
X15555089Y-10504000D02*
X15555089Y-10578500D01*
X15559089Y-10225700D02*
X15559089Y-10296000D01*
X15559089Y-10504000D02*
X15559089Y-10574300D01*
X15563089Y-10230100D02*
X15563089Y-10296000D01*
X15563089Y-10504000D02*
X15563089Y-10569900D01*
X15567089Y-10234700D02*
X15567089Y-10296000D01*
X15567089Y-10504000D02*
X15567089Y-10565300D01*
X15571089Y-10239500D02*
X15571089Y-10560500D01*
X15575089Y-10244600D02*
X15575089Y-10555400D01*
X15579089Y-10250000D02*
X15579089Y-10550000D01*
X15583089Y-10255700D02*
X15583089Y-10544300D01*
X15587089Y-10261700D02*
X15587089Y-10538300D01*
X15591089Y-10268100D02*
X15591089Y-10531900D01*
X15595089Y-10274900D02*
X15595089Y-10525100D01*
X15599089Y-10282200D02*
X15599089Y-10517800D01*
X15603089Y-10290200D02*
X15603089Y-10509800D01*
X15607089Y-10298900D02*
X15607089Y-10501100D01*
X15611089Y-10308500D02*
X15611089Y-10491500D01*
X15615089Y-10319500D02*
X15615089Y-10480500D01*
X15619089Y-10332300D02*
X15619089Y-10467700D01*
X15623089Y-10348200D02*
X15623089Y-10451800D01*
X15627089Y-10371600D02*
X15627089Y-10428400D01*
X15628989Y-10400000D02*
G75*
G03*
X15628989Y-10400000I-262000J0D01*
G01*
%TO.C,Q3*%
X14906250Y-13187000D02*
X14906250Y-12827000D01*
X14461250Y-13007000D02*
G75*
G03*
X14905098Y-13190848I260000J0D01*
G01*
X14905098Y-12823152D02*
G75*
G03*
X14461250Y-13007000I-183848J-183848D01*
G01*
%TO.C,J4*%
X14956800Y-15769210D02*
X15470800Y-15769210D01*
X14956800Y-15769210D02*
X14956800Y-15503210D01*
X15470800Y-15769210D02*
X15470800Y-15503210D01*
X14696800Y-15636210D02*
X14696800Y-15503210D01*
X14696800Y-15503210D02*
X14829800Y-15503210D01*
X14956800Y-15503210D02*
X15470800Y-15503210D01*
%TO.C,D4*%
X13703500Y-11751500D02*
X13638500Y-11751500D01*
X13638500Y-11863500D02*
X13638500Y-11639500D01*
X13638500Y-11639500D02*
X13214500Y-11639500D01*
X13578500Y-11863500D02*
X13578500Y-11639500D01*
X13566500Y-11863500D02*
X13566500Y-11639500D01*
X13554500Y-11863500D02*
X13554500Y-11639500D01*
X13214500Y-11863500D02*
X13638500Y-11863500D01*
X13214500Y-11639500D02*
X13214500Y-11863500D01*
X13149500Y-11751500D02*
X13214500Y-11751500D01*
%TO.C,Q2*%
X15880000Y-13169260D02*
X15880000Y-12809260D01*
X15435000Y-12989260D02*
G75*
G03*
X15878848Y-13173108I260000J0D01*
G01*
X15878848Y-12805412D02*
G75*
G03*
X15435000Y-12989260I-183848J-183848D01*
G01*
%TO.C,J3*%
X12539000Y-9644000D02*
X13359000Y-9644000D01*
X12539000Y-9644000D02*
X12539000Y-8824000D01*
X12999000Y-9644000D02*
X12949000Y-9594000D01*
X13359000Y-9644000D02*
X13359000Y-8824000D01*
X12949000Y-9594000D02*
X12899000Y-9644000D01*
X12539000Y-8824000D02*
X13359000Y-8824000D01*
%TO.C,J2*%
X15210300Y-15860710D02*
X14696300Y-15860710D01*
X15210300Y-15860710D02*
X15210300Y-16126710D01*
X14696300Y-15860710D02*
X14696300Y-16126710D01*
X15470300Y-15993710D02*
X15470300Y-16126710D01*
X15470300Y-16126710D02*
X15337300Y-16126710D01*
X15210300Y-16126710D02*
X14696300Y-16126710D01*
%TO.C,U4*%
X14572480Y-14281100D02*
X15600480Y-14281100D01*
X15600480Y-14281100D02*
X15600480Y-13751100D01*
X14572480Y-14116100D02*
X14572480Y-14281100D01*
X14572480Y-13751100D02*
X14572480Y-13916100D01*
X15600480Y-13751100D02*
X14572480Y-13751100D01*
X14572480Y-14116100D02*
G75*
G03*
X14572480Y-13916100I0J100000D01*
G01*
%TO.C,C21*%
X14982000Y-10938000D02*
X14957500Y-10938000D01*
X14982000Y-10938000D02*
X14982000Y-11302000D01*
X14772500Y-10938000D02*
X14748000Y-10938000D01*
X14748000Y-10938000D02*
X14748000Y-11302000D01*
X14982000Y-11302000D02*
X14957500Y-11302000D01*
X14772500Y-11302000D02*
X14748000Y-11302000D01*
%TO.C,J1*%
X16117920Y-9060180D02*
X16117920Y-11860180D01*
X16117920Y-9060180D02*
X16383920Y-9060180D01*
X16117920Y-11860180D02*
X16383920Y-11860180D01*
X16250920Y-8800180D02*
X16383920Y-8800180D01*
X16383920Y-8800180D02*
X16383920Y-8933180D01*
X16383920Y-9060180D02*
X16383920Y-11860180D01*
%TO.C,C16*%
X13642500Y-15534522D02*
X13642500Y-15584522D01*
X13667500Y-15559522D02*
X13617500Y-15559522D01*
X13753000Y-15815000D02*
X13599000Y-15815000D01*
X13391000Y-15815000D02*
X13237000Y-15815000D01*
X13753000Y-15819000D02*
X13599000Y-15819000D01*
X13391000Y-15819000D02*
X13237000Y-15819000D01*
X13752900Y-15823000D02*
X13599000Y-15823000D01*
X13391000Y-15823000D02*
X13237100Y-15823000D01*
X13752800Y-15827000D02*
X13599000Y-15827000D01*
X13391000Y-15827000D02*
X13237200Y-15827000D01*
X13752600Y-15831000D02*
X13599000Y-15831000D01*
X13391000Y-15831000D02*
X13237400Y-15831000D01*
X13752300Y-15835000D02*
X13599000Y-15835000D01*
X13391000Y-15835000D02*
X13237700Y-15835000D01*
X13751900Y-15839000D02*
X13599000Y-15839000D01*
X13391000Y-15839000D02*
X13238100Y-15839000D01*
X13751500Y-15843000D02*
X13599000Y-15843000D01*
X13391000Y-15843000D02*
X13238500Y-15843000D01*
X13751100Y-15847000D02*
X13599000Y-15847000D01*
X13391000Y-15847000D02*
X13238900Y-15847000D01*
X13750600Y-15851000D02*
X13599000Y-15851000D01*
X13391000Y-15851000D02*
X13239400Y-15851000D01*
X13750000Y-15855000D02*
X13599000Y-15855000D01*
X13391000Y-15855000D02*
X13240000Y-15855000D01*
X13749300Y-15859000D02*
X13599000Y-15859000D01*
X13391000Y-15859000D02*
X13240700Y-15859000D01*
X13748600Y-15863000D02*
X13599000Y-15863000D01*
X13391000Y-15863000D02*
X13241400Y-15863000D01*
X13747800Y-15867000D02*
X13599000Y-15867000D01*
X13391000Y-15867000D02*
X13242200Y-15867000D01*
X13747000Y-15871000D02*
X13599000Y-15871000D01*
X13391000Y-15871000D02*
X13243000Y-15871000D01*
X13746100Y-15875000D02*
X13599000Y-15875000D01*
X13391000Y-15875000D02*
X13243900Y-15875000D01*
X13745100Y-15879000D02*
X13599000Y-15879000D01*
X13391000Y-15879000D02*
X13244900Y-15879000D01*
X13744100Y-15883000D02*
X13599000Y-15883000D01*
X13391000Y-15883000D02*
X13245900Y-15883000D01*
X13743000Y-15887100D02*
X13599000Y-15887100D01*
X13391000Y-15887100D02*
X13247000Y-15887100D01*
X13741800Y-15891100D02*
X13599000Y-15891100D01*
X13391000Y-15891100D02*
X13248200Y-15891100D01*
X13740500Y-15895100D02*
X13599000Y-15895100D01*
X13391000Y-15895100D02*
X13249500Y-15895100D01*
X13739200Y-15899100D02*
X13599000Y-15899100D01*
X13391000Y-15899100D02*
X13250800Y-15899100D01*
X13737800Y-15903100D02*
X13599000Y-15903100D01*
X13391000Y-15903100D02*
X13252200Y-15903100D01*
X13736400Y-15907100D02*
X13599000Y-15907100D01*
X13391000Y-15907100D02*
X13253600Y-15907100D01*
X13734800Y-15911100D02*
X13599000Y-15911100D01*
X13391000Y-15911100D02*
X13255200Y-15911100D01*
X13733200Y-15915100D02*
X13599000Y-15915100D01*
X13391000Y-15915100D02*
X13256800Y-15915100D01*
X13731500Y-15919100D02*
X13599000Y-15919100D01*
X13391000Y-15919100D02*
X13258500Y-15919100D01*
X13729800Y-15923100D02*
X13599000Y-15923100D01*
X13391000Y-15923100D02*
X13260200Y-15923100D01*
X13727900Y-15927100D02*
X13599000Y-15927100D01*
X13391000Y-15927100D02*
X13262100Y-15927100D01*
X13726000Y-15931100D02*
X13599000Y-15931100D01*
X13391000Y-15931100D02*
X13264000Y-15931100D01*
X13724000Y-15935100D02*
X13599000Y-15935100D01*
X13391000Y-15935100D02*
X13266000Y-15935100D01*
X13721800Y-15939100D02*
X13599000Y-15939100D01*
X13391000Y-15939100D02*
X13268200Y-15939100D01*
X13719700Y-15943100D02*
X13599000Y-15943100D01*
X13391000Y-15943100D02*
X13270300Y-15943100D01*
X13717400Y-15947100D02*
X13599000Y-15947100D01*
X13391000Y-15947100D02*
X13272600Y-15947100D01*
X13715000Y-15951100D02*
X13599000Y-15951100D01*
X13391000Y-15951100D02*
X13275000Y-15951100D01*
X13712500Y-15955100D02*
X13599000Y-15955100D01*
X13391000Y-15955100D02*
X13277500Y-15955100D01*
X13709900Y-15959100D02*
X13599000Y-15959100D01*
X13391000Y-15959100D02*
X13280100Y-15959100D01*
X13707200Y-15963100D02*
X13599000Y-15963100D01*
X13391000Y-15963100D02*
X13282800Y-15963100D01*
X13704500Y-15967100D02*
X13599000Y-15967100D01*
X13391000Y-15967100D02*
X13285500Y-15967100D01*
X13701500Y-15971100D02*
X13599000Y-15971100D01*
X13391000Y-15971100D02*
X13288500Y-15971100D01*
X13698500Y-15975100D02*
X13599000Y-15975100D01*
X13391000Y-15975100D02*
X13291500Y-15975100D01*
X13695400Y-15979100D02*
X13599000Y-15979100D01*
X13391000Y-15979100D02*
X13294600Y-15979100D01*
X13692100Y-15983100D02*
X13599000Y-15983100D01*
X13391000Y-15983100D02*
X13297900Y-15983100D01*
X13688700Y-15987100D02*
X13599000Y-15987100D01*
X13391000Y-15987100D02*
X13301300Y-15987100D01*
X13685100Y-15991100D02*
X13599000Y-15991100D01*
X13391000Y-15991100D02*
X13304900Y-15991100D01*
X13681400Y-15995100D02*
X13599000Y-15995100D01*
X13391000Y-15995100D02*
X13308600Y-15995100D01*
X13677600Y-15999100D02*
X13599000Y-15999100D01*
X13391000Y-15999100D02*
X13312400Y-15999100D01*
X13673500Y-16003100D02*
X13599000Y-16003100D01*
X13391000Y-16003100D02*
X13316500Y-16003100D01*
X13669300Y-16007100D02*
X13599000Y-16007100D01*
X13391000Y-16007100D02*
X13320700Y-16007100D01*
X13664900Y-16011100D02*
X13599000Y-16011100D01*
X13391000Y-16011100D02*
X13325100Y-16011100D01*
X13660300Y-16015100D02*
X13599000Y-16015100D01*
X13391000Y-16015100D02*
X13329700Y-16015100D01*
X13655500Y-16019100D02*
X13334500Y-16019100D01*
X13650400Y-16023100D02*
X13339600Y-16023100D01*
X13645000Y-16027100D02*
X13345000Y-16027100D01*
X13639300Y-16031100D02*
X13350700Y-16031100D01*
X13633300Y-16035100D02*
X13356700Y-16035100D01*
X13626900Y-16039100D02*
X13363100Y-16039100D01*
X13620100Y-16043100D02*
X13369900Y-16043100D01*
X13612800Y-16047100D02*
X13377200Y-16047100D01*
X13604800Y-16051100D02*
X13385200Y-16051100D01*
X13596100Y-16055100D02*
X13393900Y-16055100D01*
X13586500Y-16059100D02*
X13403500Y-16059100D01*
X13575500Y-16063100D02*
X13414500Y-16063100D01*
X13562700Y-16067100D02*
X13427300Y-16067100D01*
X13546800Y-16071100D02*
X13443200Y-16071100D01*
X13523400Y-16075100D02*
X13466600Y-16075100D01*
X13757000Y-15815000D02*
G75*
G03*
X13757000Y-15815000I-262000J0D01*
G01*
%TO.C,J10*%
X12460000Y-12747500D02*
X12460000Y-12697500D01*
X12580000Y-12747500D02*
X12580000Y-12947500D01*
X12580000Y-12747500D02*
X12460000Y-12747500D01*
X12840000Y-12747500D02*
X12840000Y-12947500D01*
X13490000Y-12747500D02*
X12840000Y-12747500D01*
X13930000Y-12747500D02*
X13810000Y-12747500D01*
X12210000Y-12697500D02*
X12210000Y-12177500D01*
X12460000Y-12697500D02*
X12210000Y-12697500D01*
X12210000Y-12177500D02*
X12460000Y-12177500D01*
X12460000Y-12177500D02*
X12460000Y-12127500D01*
X12460000Y-12127500D02*
X12780000Y-12127500D01*
X13040000Y-12127500D02*
X13930000Y-12127500D01*
X13930000Y-12127500D02*
X13930000Y-12747500D01*
%TO.C,C1*%
X15230000Y-8555478D02*
X15230000Y-8505478D01*
X15205000Y-8530478D02*
X15255000Y-8530478D01*
X15119500Y-8275000D02*
X15273500Y-8275000D01*
X15481500Y-8275000D02*
X15635500Y-8275000D01*
X15119500Y-8271000D02*
X15273500Y-8271000D01*
X15481500Y-8271000D02*
X15635500Y-8271000D01*
X15119600Y-8267000D02*
X15273500Y-8267000D01*
X15481500Y-8267000D02*
X15635400Y-8267000D01*
X15119700Y-8263000D02*
X15273500Y-8263000D01*
X15481500Y-8263000D02*
X15635300Y-8263000D01*
X15119900Y-8259000D02*
X15273500Y-8259000D01*
X15481500Y-8259000D02*
X15635100Y-8259000D01*
X15120200Y-8255000D02*
X15273500Y-8255000D01*
X15481500Y-8255000D02*
X15634800Y-8255000D01*
X15120600Y-8251000D02*
X15273500Y-8251000D01*
X15481500Y-8251000D02*
X15634400Y-8251000D01*
X15121000Y-8247000D02*
X15273500Y-8247000D01*
X15481500Y-8247000D02*
X15634000Y-8247000D01*
X15121400Y-8243000D02*
X15273500Y-8243000D01*
X15481500Y-8243000D02*
X15633600Y-8243000D01*
X15121900Y-8239000D02*
X15273500Y-8239000D01*
X15481500Y-8239000D02*
X15633100Y-8239000D01*
X15122500Y-8235000D02*
X15273500Y-8235000D01*
X15481500Y-8235000D02*
X15632500Y-8235000D01*
X15123200Y-8231000D02*
X15273500Y-8231000D01*
X15481500Y-8231000D02*
X15631800Y-8231000D01*
X15123900Y-8227000D02*
X15273500Y-8227000D01*
X15481500Y-8227000D02*
X15631100Y-8227000D01*
X15124700Y-8223000D02*
X15273500Y-8223000D01*
X15481500Y-8223000D02*
X15630300Y-8223000D01*
X15125500Y-8219000D02*
X15273500Y-8219000D01*
X15481500Y-8219000D02*
X15629500Y-8219000D01*
X15126400Y-8215000D02*
X15273500Y-8215000D01*
X15481500Y-8215000D02*
X15628600Y-8215000D01*
X15127400Y-8211000D02*
X15273500Y-8211000D01*
X15481500Y-8211000D02*
X15627600Y-8211000D01*
X15128400Y-8207000D02*
X15273500Y-8207000D01*
X15481500Y-8207000D02*
X15626600Y-8207000D01*
X15129500Y-8202900D02*
X15273500Y-8202900D01*
X15481500Y-8202900D02*
X15625500Y-8202900D01*
X15130700Y-8198900D02*
X15273500Y-8198900D01*
X15481500Y-8198900D02*
X15624300Y-8198900D01*
X15132000Y-8194900D02*
X15273500Y-8194900D01*
X15481500Y-8194900D02*
X15623000Y-8194900D01*
X15133300Y-8190900D02*
X15273500Y-8190900D01*
X15481500Y-8190900D02*
X15621700Y-8190900D01*
X15134700Y-8186900D02*
X15273500Y-8186900D01*
X15481500Y-8186900D02*
X15620300Y-8186900D01*
X15136100Y-8182900D02*
X15273500Y-8182900D01*
X15481500Y-8182900D02*
X15618900Y-8182900D01*
X15137700Y-8178900D02*
X15273500Y-8178900D01*
X15481500Y-8178900D02*
X15617300Y-8178900D01*
X15139300Y-8174900D02*
X15273500Y-8174900D01*
X15481500Y-8174900D02*
X15615700Y-8174900D01*
X15141000Y-8170900D02*
X15273500Y-8170900D01*
X15481500Y-8170900D02*
X15614000Y-8170900D01*
X15142700Y-8166900D02*
X15273500Y-8166900D01*
X15481500Y-8166900D02*
X15612300Y-8166900D01*
X15144600Y-8162900D02*
X15273500Y-8162900D01*
X15481500Y-8162900D02*
X15610400Y-8162900D01*
X15146500Y-8158900D02*
X15273500Y-8158900D01*
X15481500Y-8158900D02*
X15608500Y-8158900D01*
X15148500Y-8154900D02*
X15273500Y-8154900D01*
X15481500Y-8154900D02*
X15606500Y-8154900D01*
X15150700Y-8150900D02*
X15273500Y-8150900D01*
X15481500Y-8150900D02*
X15604300Y-8150900D01*
X15152800Y-8146900D02*
X15273500Y-8146900D01*
X15481500Y-8146900D02*
X15602200Y-8146900D01*
X15155100Y-8142900D02*
X15273500Y-8142900D01*
X15481500Y-8142900D02*
X15599900Y-8142900D01*
X15157500Y-8138900D02*
X15273500Y-8138900D01*
X15481500Y-8138900D02*
X15597500Y-8138900D01*
X15160000Y-8134900D02*
X15273500Y-8134900D01*
X15481500Y-8134900D02*
X15595000Y-8134900D01*
X15162600Y-8130900D02*
X15273500Y-8130900D01*
X15481500Y-8130900D02*
X15592400Y-8130900D01*
X15165300Y-8126900D02*
X15273500Y-8126900D01*
X15481500Y-8126900D02*
X15589700Y-8126900D01*
X15168000Y-8122900D02*
X15273500Y-8122900D01*
X15481500Y-8122900D02*
X15587000Y-8122900D01*
X15171000Y-8118900D02*
X15273500Y-8118900D01*
X15481500Y-8118900D02*
X15584000Y-8118900D01*
X15174000Y-8114900D02*
X15273500Y-8114900D01*
X15481500Y-8114900D02*
X15581000Y-8114900D01*
X15177100Y-8110900D02*
X15273500Y-8110900D01*
X15481500Y-8110900D02*
X15577900Y-8110900D01*
X15180400Y-8106900D02*
X15273500Y-8106900D01*
X15481500Y-8106900D02*
X15574600Y-8106900D01*
X15183800Y-8102900D02*
X15273500Y-8102900D01*
X15481500Y-8102900D02*
X15571200Y-8102900D01*
X15187400Y-8098900D02*
X15273500Y-8098900D01*
X15481500Y-8098900D02*
X15567600Y-8098900D01*
X15191100Y-8094900D02*
X15273500Y-8094900D01*
X15481500Y-8094900D02*
X15563900Y-8094900D01*
X15194900Y-8090900D02*
X15273500Y-8090900D01*
X15481500Y-8090900D02*
X15560100Y-8090900D01*
X15199000Y-8086900D02*
X15273500Y-8086900D01*
X15481500Y-8086900D02*
X15556000Y-8086900D01*
X15203200Y-8082900D02*
X15273500Y-8082900D01*
X15481500Y-8082900D02*
X15551800Y-8082900D01*
X15207600Y-8078900D02*
X15273500Y-8078900D01*
X15481500Y-8078900D02*
X15547400Y-8078900D01*
X15212200Y-8074900D02*
X15273500Y-8074900D01*
X15481500Y-8074900D02*
X15542800Y-8074900D01*
X15217000Y-8070900D02*
X15538000Y-8070900D01*
X15222100Y-8066900D02*
X15532900Y-8066900D01*
X15227500Y-8062900D02*
X15527500Y-8062900D01*
X15233200Y-8058900D02*
X15521800Y-8058900D01*
X15239200Y-8054900D02*
X15515800Y-8054900D01*
X15245600Y-8050900D02*
X15509400Y-8050900D01*
X15252400Y-8046900D02*
X15502600Y-8046900D01*
X15259700Y-8042900D02*
X15495300Y-8042900D01*
X15267700Y-8038900D02*
X15487300Y-8038900D01*
X15276400Y-8034900D02*
X15478600Y-8034900D01*
X15286000Y-8030900D02*
X15469000Y-8030900D01*
X15297000Y-8026900D02*
X15458000Y-8026900D01*
X15309800Y-8022900D02*
X15445200Y-8022900D01*
X15325700Y-8018900D02*
X15429300Y-8018900D01*
X15349100Y-8014900D02*
X15405900Y-8014900D01*
X15639500Y-8275000D02*
G75*
G03*
X15639500Y-8275000I-262000J0D01*
G01*
%TO.C,C20*%
X14093000Y-13206980D02*
X14093000Y-13166980D01*
X14073000Y-13186980D02*
X14113000Y-13186980D01*
X14004500Y-12980000D02*
X14420500Y-12980000D01*
X14004500Y-12976000D02*
X14420500Y-12976000D01*
X14004600Y-12972000D02*
X14420400Y-12972000D01*
X14004800Y-12968000D02*
X14420200Y-12968000D01*
X14005100Y-12964000D02*
X14419900Y-12964000D01*
X14005400Y-12960000D02*
X14128500Y-12960000D01*
X14296500Y-12960000D02*
X14419600Y-12960000D01*
X14005800Y-12956000D02*
X14128500Y-12956000D01*
X14296500Y-12956000D02*
X14419200Y-12956000D01*
X14006300Y-12952000D02*
X14128500Y-12952000D01*
X14296500Y-12952000D02*
X14418700Y-12952000D01*
X14006900Y-12948000D02*
X14128500Y-12948000D01*
X14296500Y-12948000D02*
X14418100Y-12948000D01*
X14007500Y-12944000D02*
X14128500Y-12944000D01*
X14296500Y-12944000D02*
X14417500Y-12944000D01*
X14008300Y-12940000D02*
X14128500Y-12940000D01*
X14296500Y-12940000D02*
X14416700Y-12940000D01*
X14009100Y-12936000D02*
X14128500Y-12936000D01*
X14296500Y-12936000D02*
X14415900Y-12936000D01*
X14010000Y-12932000D02*
X14128500Y-12932000D01*
X14296500Y-12932000D02*
X14415000Y-12932000D01*
X14010900Y-12928000D02*
X14128500Y-12928000D01*
X14296500Y-12928000D02*
X14414100Y-12928000D01*
X14012000Y-12924000D02*
X14128500Y-12924000D01*
X14296500Y-12924000D02*
X14413000Y-12924000D01*
X14013100Y-12920000D02*
X14128500Y-12920000D01*
X14296500Y-12920000D02*
X14411900Y-12920000D01*
X14014300Y-12916000D02*
X14128500Y-12916000D01*
X14296500Y-12916000D02*
X14410700Y-12916000D01*
X14015700Y-12912000D02*
X14128500Y-12912000D01*
X14296500Y-12912000D02*
X14409300Y-12912000D01*
X14017100Y-12907900D02*
X14128500Y-12907900D01*
X14296500Y-12907900D02*
X14407900Y-12907900D01*
X14018500Y-12903900D02*
X14128500Y-12903900D01*
X14296500Y-12903900D02*
X14406500Y-12903900D01*
X14020100Y-12899900D02*
X14128500Y-12899900D01*
X14296500Y-12899900D02*
X14404900Y-12899900D01*
X14021800Y-12895900D02*
X14128500Y-12895900D01*
X14296500Y-12895900D02*
X14403200Y-12895900D01*
X14023600Y-12891900D02*
X14128500Y-12891900D01*
X14296500Y-12891900D02*
X14401400Y-12891900D01*
X14025500Y-12887900D02*
X14128500Y-12887900D01*
X14296500Y-12887900D02*
X14399500Y-12887900D01*
X14027400Y-12883900D02*
X14128500Y-12883900D01*
X14296500Y-12883900D02*
X14397600Y-12883900D01*
X14029500Y-12879900D02*
X14128500Y-12879900D01*
X14296500Y-12879900D02*
X14395500Y-12879900D01*
X14031700Y-12875900D02*
X14128500Y-12875900D01*
X14296500Y-12875900D02*
X14393300Y-12875900D01*
X14034000Y-12871900D02*
X14128500Y-12871900D01*
X14296500Y-12871900D02*
X14391000Y-12871900D01*
X14036500Y-12867900D02*
X14128500Y-12867900D01*
X14296500Y-12867900D02*
X14388500Y-12867900D01*
X14039000Y-12863900D02*
X14128500Y-12863900D01*
X14296500Y-12863900D02*
X14386000Y-12863900D01*
X14041700Y-12859900D02*
X14128500Y-12859900D01*
X14296500Y-12859900D02*
X14383300Y-12859900D01*
X14044500Y-12855900D02*
X14128500Y-12855900D01*
X14296500Y-12855900D02*
X14380500Y-12855900D01*
X14047500Y-12851900D02*
X14128500Y-12851900D01*
X14296500Y-12851900D02*
X14377500Y-12851900D01*
X14050600Y-12847900D02*
X14128500Y-12847900D01*
X14296500Y-12847900D02*
X14374400Y-12847900D01*
X14053800Y-12843900D02*
X14128500Y-12843900D01*
X14296500Y-12843900D02*
X14371200Y-12843900D01*
X14057300Y-12839900D02*
X14128500Y-12839900D01*
X14296500Y-12839900D02*
X14367700Y-12839900D01*
X14060900Y-12835900D02*
X14128500Y-12835900D01*
X14296500Y-12835900D02*
X14364100Y-12835900D01*
X14064700Y-12831900D02*
X14128500Y-12831900D01*
X14296500Y-12831900D02*
X14360300Y-12831900D01*
X14068700Y-12827900D02*
X14128500Y-12827900D01*
X14296500Y-12827900D02*
X14356300Y-12827900D01*
X14072900Y-12823900D02*
X14128500Y-12823900D01*
X14296500Y-12823900D02*
X14352100Y-12823900D01*
X14077400Y-12819900D02*
X14128500Y-12819900D01*
X14296500Y-12819900D02*
X14347600Y-12819900D01*
X14082100Y-12815900D02*
X14128500Y-12815900D01*
X14296500Y-12815900D02*
X14342900Y-12815900D01*
X14087100Y-12811900D02*
X14128500Y-12811900D01*
X14296500Y-12811900D02*
X14337900Y-12811900D01*
X14092500Y-12807900D02*
X14128500Y-12807900D01*
X14296500Y-12807900D02*
X14332500Y-12807900D01*
X14098300Y-12803900D02*
X14128500Y-12803900D01*
X14296500Y-12803900D02*
X14326700Y-12803900D01*
X14104500Y-12799900D02*
X14128500Y-12799900D01*
X14296500Y-12799900D02*
X14320500Y-12799900D01*
X14111200Y-12795900D02*
X14313800Y-12795900D01*
X14118500Y-12791900D02*
X14306500Y-12791900D01*
X14126600Y-12787900D02*
X14298400Y-12787900D01*
X14135700Y-12783900D02*
X14289300Y-12783900D01*
X14146100Y-12779900D02*
X14278900Y-12779900D01*
X14158800Y-12775900D02*
X14266200Y-12775900D01*
X14175500Y-12771900D02*
X14249500Y-12771900D01*
X14424500Y-12980000D02*
G75*
G03*
X14424500Y-12980000I-212000J0D01*
G01*
%TO.C,C18*%
X15368000Y-11806980D02*
X15368000Y-11766980D01*
X15348000Y-11786980D02*
X15388000Y-11786980D01*
X15279500Y-11580000D02*
X15695500Y-11580000D01*
X15279500Y-11576000D02*
X15695500Y-11576000D01*
X15279600Y-11572000D02*
X15695400Y-11572000D01*
X15279800Y-11568000D02*
X15695200Y-11568000D01*
X15280100Y-11564000D02*
X15694900Y-11564000D01*
X15280400Y-11560000D02*
X15403500Y-11560000D01*
X15571500Y-11560000D02*
X15694600Y-11560000D01*
X15280800Y-11556000D02*
X15403500Y-11556000D01*
X15571500Y-11556000D02*
X15694200Y-11556000D01*
X15281300Y-11552000D02*
X15403500Y-11552000D01*
X15571500Y-11552000D02*
X15693700Y-11552000D01*
X15281900Y-11548000D02*
X15403500Y-11548000D01*
X15571500Y-11548000D02*
X15693100Y-11548000D01*
X15282500Y-11544000D02*
X15403500Y-11544000D01*
X15571500Y-11544000D02*
X15692500Y-11544000D01*
X15283300Y-11540000D02*
X15403500Y-11540000D01*
X15571500Y-11540000D02*
X15691700Y-11540000D01*
X15284100Y-11536000D02*
X15403500Y-11536000D01*
X15571500Y-11536000D02*
X15690900Y-11536000D01*
X15285000Y-11532000D02*
X15403500Y-11532000D01*
X15571500Y-11532000D02*
X15690000Y-11532000D01*
X15285900Y-11528000D02*
X15403500Y-11528000D01*
X15571500Y-11528000D02*
X15689100Y-11528000D01*
X15287000Y-11524000D02*
X15403500Y-11524000D01*
X15571500Y-11524000D02*
X15688000Y-11524000D01*
X15288100Y-11520000D02*
X15403500Y-11520000D01*
X15571500Y-11520000D02*
X15686900Y-11520000D01*
X15289300Y-11516000D02*
X15403500Y-11516000D01*
X15571500Y-11516000D02*
X15685700Y-11516000D01*
X15290700Y-11512000D02*
X15403500Y-11512000D01*
X15571500Y-11512000D02*
X15684300Y-11512000D01*
X15292100Y-11507900D02*
X15403500Y-11507900D01*
X15571500Y-11507900D02*
X15682900Y-11507900D01*
X15293500Y-11503900D02*
X15403500Y-11503900D01*
X15571500Y-11503900D02*
X15681500Y-11503900D01*
X15295100Y-11499900D02*
X15403500Y-11499900D01*
X15571500Y-11499900D02*
X15679900Y-11499900D01*
X15296800Y-11495900D02*
X15403500Y-11495900D01*
X15571500Y-11495900D02*
X15678200Y-11495900D01*
X15298600Y-11491900D02*
X15403500Y-11491900D01*
X15571500Y-11491900D02*
X15676400Y-11491900D01*
X15300500Y-11487900D02*
X15403500Y-11487900D01*
X15571500Y-11487900D02*
X15674500Y-11487900D01*
X15302400Y-11483900D02*
X15403500Y-11483900D01*
X15571500Y-11483900D02*
X15672600Y-11483900D01*
X15304500Y-11479900D02*
X15403500Y-11479900D01*
X15571500Y-11479900D02*
X15670500Y-11479900D01*
X15306700Y-11475900D02*
X15403500Y-11475900D01*
X15571500Y-11475900D02*
X15668300Y-11475900D01*
X15309000Y-11471900D02*
X15403500Y-11471900D01*
X15571500Y-11471900D02*
X15666000Y-11471900D01*
X15311500Y-11467900D02*
X15403500Y-11467900D01*
X15571500Y-11467900D02*
X15663500Y-11467900D01*
X15314000Y-11463900D02*
X15403500Y-11463900D01*
X15571500Y-11463900D02*
X15661000Y-11463900D01*
X15316700Y-11459900D02*
X15403500Y-11459900D01*
X15571500Y-11459900D02*
X15658300Y-11459900D01*
X15319500Y-11455900D02*
X15403500Y-11455900D01*
X15571500Y-11455900D02*
X15655500Y-11455900D01*
X15322500Y-11451900D02*
X15403500Y-11451900D01*
X15571500Y-11451900D02*
X15652500Y-11451900D01*
X15325600Y-11447900D02*
X15403500Y-11447900D01*
X15571500Y-11447900D02*
X15649400Y-11447900D01*
X15328800Y-11443900D02*
X15403500Y-11443900D01*
X15571500Y-11443900D02*
X15646200Y-11443900D01*
X15332300Y-11439900D02*
X15403500Y-11439900D01*
X15571500Y-11439900D02*
X15642700Y-11439900D01*
X15335900Y-11435900D02*
X15403500Y-11435900D01*
X15571500Y-11435900D02*
X15639100Y-11435900D01*
X15339700Y-11431900D02*
X15403500Y-11431900D01*
X15571500Y-11431900D02*
X15635300Y-11431900D01*
X15343700Y-11427900D02*
X15403500Y-11427900D01*
X15571500Y-11427900D02*
X15631300Y-11427900D01*
X15347900Y-11423900D02*
X15403500Y-11423900D01*
X15571500Y-11423900D02*
X15627100Y-11423900D01*
X15352400Y-11419900D02*
X15403500Y-11419900D01*
X15571500Y-11419900D02*
X15622600Y-11419900D01*
X15357100Y-11415900D02*
X15403500Y-11415900D01*
X15571500Y-11415900D02*
X15617900Y-11415900D01*
X15362100Y-11411900D02*
X15403500Y-11411900D01*
X15571500Y-11411900D02*
X15612900Y-11411900D01*
X15367500Y-11407900D02*
X15403500Y-11407900D01*
X15571500Y-11407900D02*
X15607500Y-11407900D01*
X15373300Y-11403900D02*
X15403500Y-11403900D01*
X15571500Y-11403900D02*
X15601700Y-11403900D01*
X15379500Y-11399900D02*
X15403500Y-11399900D01*
X15571500Y-11399900D02*
X15595500Y-11399900D01*
X15386200Y-11395900D02*
X15588800Y-11395900D01*
X15393500Y-11391900D02*
X15581500Y-11391900D01*
X15401600Y-11387900D02*
X15573400Y-11387900D01*
X15410700Y-11383900D02*
X15564300Y-11383900D01*
X15421100Y-11379900D02*
X15553900Y-11379900D01*
X15433800Y-11375900D02*
X15541200Y-11375900D01*
X15450500Y-11371900D02*
X15524500Y-11371900D01*
X15699500Y-11580000D02*
G75*
G03*
X15699500Y-11580000I-212000J0D01*
G01*
%TO.C,C11*%
X16383470Y-16051500D02*
X16303470Y-16051500D01*
X16343470Y-16091500D02*
X16343470Y-16011500D01*
X15942500Y-16228000D02*
X15942500Y-15412000D01*
X15938500Y-16228000D02*
X15938500Y-15412000D01*
X15934500Y-16228000D02*
X15934500Y-15412000D01*
X15930500Y-16227900D02*
X15930500Y-15412100D01*
X15926500Y-16227700D02*
X15926500Y-15412300D01*
X15922500Y-16227600D02*
X15922500Y-15412400D01*
X15918500Y-16227400D02*
X15918500Y-15412600D01*
X15914500Y-16227100D02*
X15914500Y-15412900D01*
X15910500Y-16226800D02*
X15910500Y-15413200D01*
X15906500Y-16226500D02*
X15906500Y-15413500D01*
X15902500Y-16226100D02*
X15902500Y-15413900D01*
X15898500Y-16225700D02*
X15898500Y-15414300D01*
X15894500Y-16225200D02*
X15894500Y-15414800D01*
X15890500Y-16224800D02*
X15890500Y-15415200D01*
X15886500Y-16224200D02*
X15886500Y-15415800D01*
X15882500Y-16223700D02*
X15882500Y-15416300D01*
X15878500Y-16223000D02*
X15878500Y-15417000D01*
X15874500Y-16222400D02*
X15874500Y-15417600D01*
X15870400Y-16221700D02*
X15870400Y-15418300D01*
X15866400Y-16221000D02*
X15866400Y-15419000D01*
X15862400Y-16220200D02*
X15862400Y-15419800D01*
X15858400Y-16219400D02*
X15858400Y-15420600D01*
X15854400Y-16218500D02*
X15854400Y-15924000D01*
X15854400Y-15716000D02*
X15854400Y-15421500D01*
X15850400Y-16217600D02*
X15850400Y-15924000D01*
X15850400Y-15716000D02*
X15850400Y-15422400D01*
X15846400Y-16216700D02*
X15846400Y-15924000D01*
X15846400Y-15716000D02*
X15846400Y-15423300D01*
X15842400Y-16215700D02*
X15842400Y-15924000D01*
X15842400Y-15716000D02*
X15842400Y-15424300D01*
X15838400Y-16214700D02*
X15838400Y-15924000D01*
X15838400Y-15716000D02*
X15838400Y-15425300D01*
X15834400Y-16213600D02*
X15834400Y-15924000D01*
X15834400Y-15716000D02*
X15834400Y-15426400D01*
X15830400Y-16212500D02*
X15830400Y-15924000D01*
X15830400Y-15716000D02*
X15830400Y-15427500D01*
X15826400Y-16211400D02*
X15826400Y-15924000D01*
X15826400Y-15716000D02*
X15826400Y-15428600D01*
X15822400Y-16210200D02*
X15822400Y-15924000D01*
X15822400Y-15716000D02*
X15822400Y-15429800D01*
X15818400Y-16208900D02*
X15818400Y-15924000D01*
X15818400Y-15716000D02*
X15818400Y-15431100D01*
X15814400Y-16207700D02*
X15814400Y-15924000D01*
X15814400Y-15716000D02*
X15814400Y-15432300D01*
X15810400Y-16206300D02*
X15810400Y-15924000D01*
X15810400Y-15716000D02*
X15810400Y-15433700D01*
X15806400Y-16205000D02*
X15806400Y-15924000D01*
X15806400Y-15716000D02*
X15806400Y-15435000D01*
X15802400Y-16203500D02*
X15802400Y-15924000D01*
X15802400Y-15716000D02*
X15802400Y-15436500D01*
X15798400Y-16202100D02*
X15798400Y-15924000D01*
X15798400Y-15716000D02*
X15798400Y-15437900D01*
X15794400Y-16200500D02*
X15794400Y-15924000D01*
X15794400Y-15716000D02*
X15794400Y-15439500D01*
X15790400Y-16199000D02*
X15790400Y-15924000D01*
X15790400Y-15716000D02*
X15790400Y-15441000D01*
X15786400Y-16197400D02*
X15786400Y-15924000D01*
X15786400Y-15716000D02*
X15786400Y-15442600D01*
X15782400Y-16195700D02*
X15782400Y-15924000D01*
X15782400Y-15716000D02*
X15782400Y-15444300D01*
X15778400Y-16194000D02*
X15778400Y-15924000D01*
X15778400Y-15716000D02*
X15778400Y-15446000D01*
X15774400Y-16192200D02*
X15774400Y-15924000D01*
X15774400Y-15716000D02*
X15774400Y-15447800D01*
X15770400Y-16190400D02*
X15770400Y-15924000D01*
X15770400Y-15716000D02*
X15770400Y-15449600D01*
X15766400Y-16188600D02*
X15766400Y-15924000D01*
X15766400Y-15716000D02*
X15766400Y-15451400D01*
X15762400Y-16186600D02*
X15762400Y-15924000D01*
X15762400Y-15716000D02*
X15762400Y-15453400D01*
X15758400Y-16184700D02*
X15758400Y-15924000D01*
X15758400Y-15716000D02*
X15758400Y-15455300D01*
X15754400Y-16182700D02*
X15754400Y-15924000D01*
X15754400Y-15716000D02*
X15754400Y-15457300D01*
X15750400Y-16180600D02*
X15750400Y-15924000D01*
X15750400Y-15716000D02*
X15750400Y-15459400D01*
X15746400Y-16178400D02*
X15746400Y-15924000D01*
X15746400Y-15716000D02*
X15746400Y-15461600D01*
X15742400Y-16176200D02*
X15742400Y-15924000D01*
X15742400Y-15716000D02*
X15742400Y-15463800D01*
X15738400Y-16174000D02*
X15738400Y-15924000D01*
X15738400Y-15716000D02*
X15738400Y-15466000D01*
X15734400Y-16171700D02*
X15734400Y-15924000D01*
X15734400Y-15716000D02*
X15734400Y-15468300D01*
X15730400Y-16169300D02*
X15730400Y-15924000D01*
X15730400Y-15716000D02*
X15730400Y-15470700D01*
X15726400Y-16166900D02*
X15726400Y-15924000D01*
X15726400Y-15716000D02*
X15726400Y-15473100D01*
X15722400Y-16164400D02*
X15722400Y-15924000D01*
X15722400Y-15716000D02*
X15722400Y-15475600D01*
X15718400Y-16161800D02*
X15718400Y-15924000D01*
X15718400Y-15716000D02*
X15718400Y-15478200D01*
X15714400Y-16159200D02*
X15714400Y-15924000D01*
X15714400Y-15716000D02*
X15714400Y-15480800D01*
X15710400Y-16156500D02*
X15710400Y-15924000D01*
X15710400Y-15716000D02*
X15710400Y-15483500D01*
X15706400Y-16153800D02*
X15706400Y-15924000D01*
X15706400Y-15716000D02*
X15706400Y-15486200D01*
X15702400Y-16150900D02*
X15702400Y-15924000D01*
X15702400Y-15716000D02*
X15702400Y-15489100D01*
X15698400Y-16148000D02*
X15698400Y-15924000D01*
X15698400Y-15716000D02*
X15698400Y-15492000D01*
X15694400Y-16145000D02*
X15694400Y-15924000D01*
X15694400Y-15716000D02*
X15694400Y-15495000D01*
X15690400Y-16142000D02*
X15690400Y-15924000D01*
X15690400Y-15716000D02*
X15690400Y-15498000D01*
X15686400Y-16138900D02*
X15686400Y-15924000D01*
X15686400Y-15716000D02*
X15686400Y-15501100D01*
X15682400Y-16135600D02*
X15682400Y-15924000D01*
X15682400Y-15716000D02*
X15682400Y-15504400D01*
X15678400Y-16132400D02*
X15678400Y-15924000D01*
X15678400Y-15716000D02*
X15678400Y-15507600D01*
X15674400Y-16129000D02*
X15674400Y-15924000D01*
X15674400Y-15716000D02*
X15674400Y-15511000D01*
X15670400Y-16125500D02*
X15670400Y-15924000D01*
X15670400Y-15716000D02*
X15670400Y-15514500D01*
X15666400Y-16121900D02*
X15666400Y-15924000D01*
X15666400Y-15716000D02*
X15666400Y-15518100D01*
X15662400Y-16118300D02*
X15662400Y-15924000D01*
X15662400Y-15716000D02*
X15662400Y-15521700D01*
X15658400Y-16114500D02*
X15658400Y-15924000D01*
X15658400Y-15716000D02*
X15658400Y-15525500D01*
X15654400Y-16110700D02*
X15654400Y-15924000D01*
X15654400Y-15716000D02*
X15654400Y-15529300D01*
X15650400Y-16106700D02*
X15650400Y-15924000D01*
X15650400Y-15716000D02*
X15650400Y-15533300D01*
X15646400Y-16102600D02*
X15646400Y-15537400D01*
X15642400Y-16098400D02*
X15642400Y-15541600D01*
X15638400Y-16094100D02*
X15638400Y-15545900D01*
X15634400Y-16089700D02*
X15634400Y-15550300D01*
X15630400Y-16085100D02*
X15630400Y-15554900D01*
X15626400Y-16080400D02*
X15626400Y-15559600D01*
X15622400Y-16075600D02*
X15622400Y-15564400D01*
X15618400Y-16070500D02*
X15618400Y-15569500D01*
X15614400Y-16065400D02*
X15614400Y-15574600D01*
X15610400Y-16060000D02*
X15610400Y-15580000D01*
X15606400Y-16054500D02*
X15606400Y-15585500D01*
X15602400Y-16048700D02*
X15602400Y-15591300D01*
X15598400Y-16042800D02*
X15598400Y-15597200D01*
X15594400Y-16036600D02*
X15594400Y-15603400D01*
X15590400Y-16030200D02*
X15590400Y-15609800D01*
X15586400Y-16023400D02*
X15586400Y-15616600D01*
X15582400Y-16016400D02*
X15582400Y-15623600D01*
X15578400Y-16009000D02*
X15578400Y-15631000D01*
X15574400Y-16001300D02*
X15574400Y-15638700D01*
X15570400Y-15993100D02*
X15570400Y-15646900D01*
X15566400Y-15984500D02*
X15566400Y-15655500D01*
X15562400Y-15975200D02*
X15562400Y-15664800D01*
X15558400Y-15965300D02*
X15558400Y-15674700D01*
X15554400Y-15954600D02*
X15554400Y-15685400D01*
X15550400Y-15942900D02*
X15550400Y-15697100D01*
X15546400Y-15929800D02*
X15546400Y-15710200D01*
X15542400Y-15914800D02*
X15542400Y-15725200D01*
X15538400Y-15896800D02*
X15538400Y-15743200D01*
X15534400Y-15873300D02*
X15534400Y-15766700D01*
X16354500Y-15820000D02*
G75*
G03*
X16354500Y-15820000I-412000J0D01*
G01*
%TO.C,C12*%
X13774030Y-15588200D02*
X13854030Y-15588200D01*
X13814030Y-15548200D02*
X13814030Y-15628200D01*
X14215000Y-15411700D02*
X14215000Y-16227700D01*
X14219000Y-15411700D02*
X14219000Y-16227700D01*
X14223000Y-15411700D02*
X14223000Y-16227700D01*
X14227000Y-15411800D02*
X14227000Y-16227600D01*
X14231000Y-15412000D02*
X14231000Y-16227400D01*
X14235000Y-15412100D02*
X14235000Y-16227300D01*
X14239000Y-15412300D02*
X14239000Y-16227100D01*
X14243000Y-15412600D02*
X14243000Y-16226800D01*
X14247000Y-15412900D02*
X14247000Y-16226500D01*
X14251000Y-15413200D02*
X14251000Y-16226200D01*
X14255000Y-15413600D02*
X14255000Y-16225800D01*
X14259000Y-15414000D02*
X14259000Y-16225400D01*
X14263000Y-15414500D02*
X14263000Y-16224900D01*
X14267000Y-15414900D02*
X14267000Y-16224500D01*
X14271000Y-15415500D02*
X14271000Y-16223900D01*
X14275000Y-15416000D02*
X14275000Y-16223400D01*
X14279000Y-15416700D02*
X14279000Y-16222700D01*
X14283000Y-15417300D02*
X14283000Y-16222100D01*
X14287100Y-15418000D02*
X14287100Y-16221400D01*
X14291100Y-15418700D02*
X14291100Y-16220700D01*
X14295100Y-15419500D02*
X14295100Y-16219900D01*
X14299100Y-15420300D02*
X14299100Y-16219100D01*
X14303100Y-15421200D02*
X14303100Y-15715700D01*
X14303100Y-15923700D02*
X14303100Y-16218200D01*
X14307100Y-15422100D02*
X14307100Y-15715700D01*
X14307100Y-15923700D02*
X14307100Y-16217300D01*
X14311100Y-15423000D02*
X14311100Y-15715700D01*
X14311100Y-15923700D02*
X14311100Y-16216400D01*
X14315100Y-15424000D02*
X14315100Y-15715700D01*
X14315100Y-15923700D02*
X14315100Y-16215400D01*
X14319100Y-15425000D02*
X14319100Y-15715700D01*
X14319100Y-15923700D02*
X14319100Y-16214400D01*
X14323100Y-15426100D02*
X14323100Y-15715700D01*
X14323100Y-15923700D02*
X14323100Y-16213300D01*
X14327100Y-15427200D02*
X14327100Y-15715700D01*
X14327100Y-15923700D02*
X14327100Y-16212200D01*
X14331100Y-15428300D02*
X14331100Y-15715700D01*
X14331100Y-15923700D02*
X14331100Y-16211100D01*
X14335100Y-15429500D02*
X14335100Y-15715700D01*
X14335100Y-15923700D02*
X14335100Y-16209900D01*
X14339100Y-15430800D02*
X14339100Y-15715700D01*
X14339100Y-15923700D02*
X14339100Y-16208600D01*
X14343100Y-15432000D02*
X14343100Y-15715700D01*
X14343100Y-15923700D02*
X14343100Y-16207400D01*
X14347100Y-15433400D02*
X14347100Y-15715700D01*
X14347100Y-15923700D02*
X14347100Y-16206000D01*
X14351100Y-15434700D02*
X14351100Y-15715700D01*
X14351100Y-15923700D02*
X14351100Y-16204700D01*
X14355100Y-15436200D02*
X14355100Y-15715700D01*
X14355100Y-15923700D02*
X14355100Y-16203200D01*
X14359100Y-15437600D02*
X14359100Y-15715700D01*
X14359100Y-15923700D02*
X14359100Y-16201800D01*
X14363100Y-15439200D02*
X14363100Y-15715700D01*
X14363100Y-15923700D02*
X14363100Y-16200200D01*
X14367100Y-15440700D02*
X14367100Y-15715700D01*
X14367100Y-15923700D02*
X14367100Y-16198700D01*
X14371100Y-15442300D02*
X14371100Y-15715700D01*
X14371100Y-15923700D02*
X14371100Y-16197100D01*
X14375100Y-15444000D02*
X14375100Y-15715700D01*
X14375100Y-15923700D02*
X14375100Y-16195400D01*
X14379100Y-15445700D02*
X14379100Y-15715700D01*
X14379100Y-15923700D02*
X14379100Y-16193700D01*
X14383100Y-15447500D02*
X14383100Y-15715700D01*
X14383100Y-15923700D02*
X14383100Y-16191900D01*
X14387100Y-15449300D02*
X14387100Y-15715700D01*
X14387100Y-15923700D02*
X14387100Y-16190100D01*
X14391100Y-15451100D02*
X14391100Y-15715700D01*
X14391100Y-15923700D02*
X14391100Y-16188300D01*
X14395100Y-15453100D02*
X14395100Y-15715700D01*
X14395100Y-15923700D02*
X14395100Y-16186300D01*
X14399100Y-15455000D02*
X14399100Y-15715700D01*
X14399100Y-15923700D02*
X14399100Y-16184400D01*
X14403100Y-15457000D02*
X14403100Y-15715700D01*
X14403100Y-15923700D02*
X14403100Y-16182400D01*
X14407100Y-15459100D02*
X14407100Y-15715700D01*
X14407100Y-15923700D02*
X14407100Y-16180300D01*
X14411100Y-15461300D02*
X14411100Y-15715700D01*
X14411100Y-15923700D02*
X14411100Y-16178100D01*
X14415100Y-15463500D02*
X14415100Y-15715700D01*
X14415100Y-15923700D02*
X14415100Y-16175900D01*
X14419100Y-15465700D02*
X14419100Y-15715700D01*
X14419100Y-15923700D02*
X14419100Y-16173700D01*
X14423100Y-15468000D02*
X14423100Y-15715700D01*
X14423100Y-15923700D02*
X14423100Y-16171400D01*
X14427100Y-15470400D02*
X14427100Y-15715700D01*
X14427100Y-15923700D02*
X14427100Y-16169000D01*
X14431100Y-15472800D02*
X14431100Y-15715700D01*
X14431100Y-15923700D02*
X14431100Y-16166600D01*
X14435100Y-15475300D02*
X14435100Y-15715700D01*
X14435100Y-15923700D02*
X14435100Y-16164100D01*
X14439100Y-15477900D02*
X14439100Y-15715700D01*
X14439100Y-15923700D02*
X14439100Y-16161500D01*
X14443100Y-15480500D02*
X14443100Y-15715700D01*
X14443100Y-15923700D02*
X14443100Y-16158900D01*
X14447100Y-15483200D02*
X14447100Y-15715700D01*
X14447100Y-15923700D02*
X14447100Y-16156200D01*
X14451100Y-15485900D02*
X14451100Y-15715700D01*
X14451100Y-15923700D02*
X14451100Y-16153500D01*
X14455100Y-15488800D02*
X14455100Y-15715700D01*
X14455100Y-15923700D02*
X14455100Y-16150600D01*
X14459100Y-15491700D02*
X14459100Y-15715700D01*
X14459100Y-15923700D02*
X14459100Y-16147700D01*
X14463100Y-15494700D02*
X14463100Y-15715700D01*
X14463100Y-15923700D02*
X14463100Y-16144700D01*
X14467100Y-15497700D02*
X14467100Y-15715700D01*
X14467100Y-15923700D02*
X14467100Y-16141700D01*
X14471100Y-15500800D02*
X14471100Y-15715700D01*
X14471100Y-15923700D02*
X14471100Y-16138600D01*
X14475100Y-15504100D02*
X14475100Y-15715700D01*
X14475100Y-15923700D02*
X14475100Y-16135300D01*
X14479100Y-15507300D02*
X14479100Y-15715700D01*
X14479100Y-15923700D02*
X14479100Y-16132100D01*
X14483100Y-15510700D02*
X14483100Y-15715700D01*
X14483100Y-15923700D02*
X14483100Y-16128700D01*
X14487100Y-15514200D02*
X14487100Y-15715700D01*
X14487100Y-15923700D02*
X14487100Y-16125200D01*
X14491100Y-15517800D02*
X14491100Y-15715700D01*
X14491100Y-15923700D02*
X14491100Y-16121600D01*
X14495100Y-15521400D02*
X14495100Y-15715700D01*
X14495100Y-15923700D02*
X14495100Y-16118000D01*
X14499100Y-15525200D02*
X14499100Y-15715700D01*
X14499100Y-15923700D02*
X14499100Y-16114200D01*
X14503100Y-15529000D02*
X14503100Y-15715700D01*
X14503100Y-15923700D02*
X14503100Y-16110400D01*
X14507100Y-15533000D02*
X14507100Y-15715700D01*
X14507100Y-15923700D02*
X14507100Y-16106400D01*
X14511100Y-15537100D02*
X14511100Y-16102300D01*
X14515100Y-15541300D02*
X14515100Y-16098100D01*
X14519100Y-15545600D02*
X14519100Y-16093800D01*
X14523100Y-15550000D02*
X14523100Y-16089400D01*
X14527100Y-15554600D02*
X14527100Y-16084800D01*
X14531100Y-15559300D02*
X14531100Y-16080100D01*
X14535100Y-15564100D02*
X14535100Y-16075300D01*
X14539100Y-15569200D02*
X14539100Y-16070200D01*
X14543100Y-15574300D02*
X14543100Y-16065100D01*
X14547100Y-15579700D02*
X14547100Y-16059700D01*
X14551100Y-15585200D02*
X14551100Y-16054200D01*
X14555100Y-15591000D02*
X14555100Y-16048400D01*
X14559100Y-15596900D02*
X14559100Y-16042500D01*
X14563100Y-15603100D02*
X14563100Y-16036300D01*
X14567100Y-15609500D02*
X14567100Y-16029900D01*
X14571100Y-15616300D02*
X14571100Y-16023100D01*
X14575100Y-15623300D02*
X14575100Y-16016100D01*
X14579100Y-15630700D02*
X14579100Y-16008700D01*
X14583100Y-15638400D02*
X14583100Y-16001000D01*
X14587100Y-15646600D02*
X14587100Y-15992800D01*
X14591100Y-15655200D02*
X14591100Y-15984200D01*
X14595100Y-15664500D02*
X14595100Y-15974900D01*
X14599100Y-15674400D02*
X14599100Y-15965000D01*
X14603100Y-15685100D02*
X14603100Y-15954300D01*
X14607100Y-15696800D02*
X14607100Y-15942600D01*
X14611100Y-15709900D02*
X14611100Y-15929500D01*
X14615100Y-15724900D02*
X14615100Y-15914500D01*
X14619100Y-15742900D02*
X14619100Y-15896500D01*
X14623100Y-15766400D02*
X14623100Y-15873000D01*
X14627000Y-15819700D02*
G75*
G03*
X14627000Y-15819700I-412000J0D01*
G01*
%TO.C,R8*%
X14365136Y-14389320D02*
X14219724Y-14389320D01*
X14365136Y-14207320D02*
X14219724Y-14207320D01*
%TO.C,C19*%
X15063000Y-13191740D02*
X15063000Y-13151740D01*
X15043000Y-13171740D02*
X15083000Y-13171740D01*
X14974500Y-12964760D02*
X15390500Y-12964760D01*
X14974500Y-12960760D02*
X15390500Y-12960760D01*
X14974600Y-12956760D02*
X15390400Y-12956760D01*
X14974800Y-12952760D02*
X15390200Y-12952760D01*
X14975100Y-12948760D02*
X15389900Y-12948760D01*
X14975400Y-12944760D02*
X15098500Y-12944760D01*
X15266500Y-12944760D02*
X15389600Y-12944760D01*
X14975800Y-12940760D02*
X15098500Y-12940760D01*
X15266500Y-12940760D02*
X15389200Y-12940760D01*
X14976300Y-12936760D02*
X15098500Y-12936760D01*
X15266500Y-12936760D02*
X15388700Y-12936760D01*
X14976900Y-12932760D02*
X15098500Y-12932760D01*
X15266500Y-12932760D02*
X15388100Y-12932760D01*
X14977500Y-12928760D02*
X15098500Y-12928760D01*
X15266500Y-12928760D02*
X15387500Y-12928760D01*
X14978300Y-12924760D02*
X15098500Y-12924760D01*
X15266500Y-12924760D02*
X15386700Y-12924760D01*
X14979100Y-12920760D02*
X15098500Y-12920760D01*
X15266500Y-12920760D02*
X15385900Y-12920760D01*
X14980000Y-12916760D02*
X15098500Y-12916760D01*
X15266500Y-12916760D02*
X15385000Y-12916760D01*
X14980900Y-12912760D02*
X15098500Y-12912760D01*
X15266500Y-12912760D02*
X15384100Y-12912760D01*
X14982000Y-12908760D02*
X15098500Y-12908760D01*
X15266500Y-12908760D02*
X15383000Y-12908760D01*
X14983100Y-12904760D02*
X15098500Y-12904760D01*
X15266500Y-12904760D02*
X15381900Y-12904760D01*
X14984300Y-12900760D02*
X15098500Y-12900760D01*
X15266500Y-12900760D02*
X15380700Y-12900760D01*
X14985700Y-12896760D02*
X15098500Y-12896760D01*
X15266500Y-12896760D02*
X15379300Y-12896760D01*
X14987100Y-12892660D02*
X15098500Y-12892660D01*
X15266500Y-12892660D02*
X15377900Y-12892660D01*
X14988500Y-12888660D02*
X15098500Y-12888660D01*
X15266500Y-12888660D02*
X15376500Y-12888660D01*
X14990100Y-12884660D02*
X15098500Y-12884660D01*
X15266500Y-12884660D02*
X15374900Y-12884660D01*
X14991800Y-12880660D02*
X15098500Y-12880660D01*
X15266500Y-12880660D02*
X15373200Y-12880660D01*
X14993600Y-12876660D02*
X15098500Y-12876660D01*
X15266500Y-12876660D02*
X15371400Y-12876660D01*
X14995500Y-12872660D02*
X15098500Y-12872660D01*
X15266500Y-12872660D02*
X15369500Y-12872660D01*
X14997400Y-12868660D02*
X15098500Y-12868660D01*
X15266500Y-12868660D02*
X15367600Y-12868660D01*
X14999500Y-12864660D02*
X15098500Y-12864660D01*
X15266500Y-12864660D02*
X15365500Y-12864660D01*
X15001700Y-12860660D02*
X15098500Y-12860660D01*
X15266500Y-12860660D02*
X15363300Y-12860660D01*
X15004000Y-12856660D02*
X15098500Y-12856660D01*
X15266500Y-12856660D02*
X15361000Y-12856660D01*
X15006500Y-12852660D02*
X15098500Y-12852660D01*
X15266500Y-12852660D02*
X15358500Y-12852660D01*
X15009000Y-12848660D02*
X15098500Y-12848660D01*
X15266500Y-12848660D02*
X15356000Y-12848660D01*
X15011700Y-12844660D02*
X15098500Y-12844660D01*
X15266500Y-12844660D02*
X15353300Y-12844660D01*
X15014500Y-12840660D02*
X15098500Y-12840660D01*
X15266500Y-12840660D02*
X15350500Y-12840660D01*
X15017500Y-12836660D02*
X15098500Y-12836660D01*
X15266500Y-12836660D02*
X15347500Y-12836660D01*
X15020600Y-12832660D02*
X15098500Y-12832660D01*
X15266500Y-12832660D02*
X15344400Y-12832660D01*
X15023800Y-12828660D02*
X15098500Y-12828660D01*
X15266500Y-12828660D02*
X15341200Y-12828660D01*
X15027300Y-12824660D02*
X15098500Y-12824660D01*
X15266500Y-12824660D02*
X15337700Y-12824660D01*
X15030900Y-12820660D02*
X15098500Y-12820660D01*
X15266500Y-12820660D02*
X15334100Y-12820660D01*
X15034700Y-12816660D02*
X15098500Y-12816660D01*
X15266500Y-12816660D02*
X15330300Y-12816660D01*
X15038700Y-12812660D02*
X15098500Y-12812660D01*
X15266500Y-12812660D02*
X15326300Y-12812660D01*
X15042900Y-12808660D02*
X15098500Y-12808660D01*
X15266500Y-12808660D02*
X15322100Y-12808660D01*
X15047400Y-12804660D02*
X15098500Y-12804660D01*
X15266500Y-12804660D02*
X15317600Y-12804660D01*
X15052100Y-12800660D02*
X15098500Y-12800660D01*
X15266500Y-12800660D02*
X15312900Y-12800660D01*
X15057100Y-12796660D02*
X15098500Y-12796660D01*
X15266500Y-12796660D02*
X15307900Y-12796660D01*
X15062500Y-12792660D02*
X15098500Y-12792660D01*
X15266500Y-12792660D02*
X15302500Y-12792660D01*
X15068300Y-12788660D02*
X15098500Y-12788660D01*
X15266500Y-12788660D02*
X15296700Y-12788660D01*
X15074500Y-12784660D02*
X15098500Y-12784660D01*
X15266500Y-12784660D02*
X15290500Y-12784660D01*
X15081200Y-12780660D02*
X15283800Y-12780660D01*
X15088500Y-12776660D02*
X15276500Y-12776660D01*
X15096600Y-12772660D02*
X15268400Y-12772660D01*
X15105700Y-12768660D02*
X15259300Y-12768660D01*
X15116100Y-12764660D02*
X15248900Y-12764660D01*
X15128800Y-12760660D02*
X15236200Y-12760660D01*
X15145500Y-12756660D02*
X15219500Y-12756660D01*
X15394500Y-12964760D02*
G75*
G03*
X15394500Y-12964760I-212000J0D01*
G01*
%TO.C,C14*%
X13768000Y-13739100D02*
X13768000Y-13699100D01*
X13748000Y-13719100D02*
X13788000Y-13719100D01*
X13679500Y-13512120D02*
X14095500Y-13512120D01*
X13679500Y-13508120D02*
X14095500Y-13508120D01*
X13679600Y-13504120D02*
X14095400Y-13504120D01*
X13679800Y-13500120D02*
X14095200Y-13500120D01*
X13680100Y-13496120D02*
X14094900Y-13496120D01*
X13680400Y-13492120D02*
X13803500Y-13492120D01*
X13971500Y-13492120D02*
X14094600Y-13492120D01*
X13680800Y-13488120D02*
X13803500Y-13488120D01*
X13971500Y-13488120D02*
X14094200Y-13488120D01*
X13681300Y-13484120D02*
X13803500Y-13484120D01*
X13971500Y-13484120D02*
X14093700Y-13484120D01*
X13681900Y-13480120D02*
X13803500Y-13480120D01*
X13971500Y-13480120D02*
X14093100Y-13480120D01*
X13682500Y-13476120D02*
X13803500Y-13476120D01*
X13971500Y-13476120D02*
X14092500Y-13476120D01*
X13683300Y-13472120D02*
X13803500Y-13472120D01*
X13971500Y-13472120D02*
X14091700Y-13472120D01*
X13684100Y-13468120D02*
X13803500Y-13468120D01*
X13971500Y-13468120D02*
X14090900Y-13468120D01*
X13685000Y-13464120D02*
X13803500Y-13464120D01*
X13971500Y-13464120D02*
X14090000Y-13464120D01*
X13685900Y-13460120D02*
X13803500Y-13460120D01*
X13971500Y-13460120D02*
X14089100Y-13460120D01*
X13687000Y-13456120D02*
X13803500Y-13456120D01*
X13971500Y-13456120D02*
X14088000Y-13456120D01*
X13688100Y-13452120D02*
X13803500Y-13452120D01*
X13971500Y-13452120D02*
X14086900Y-13452120D01*
X13689300Y-13448120D02*
X13803500Y-13448120D01*
X13971500Y-13448120D02*
X14085700Y-13448120D01*
X13690700Y-13444120D02*
X13803500Y-13444120D01*
X13971500Y-13444120D02*
X14084300Y-13444120D01*
X13692100Y-13440020D02*
X13803500Y-13440020D01*
X13971500Y-13440020D02*
X14082900Y-13440020D01*
X13693500Y-13436020D02*
X13803500Y-13436020D01*
X13971500Y-13436020D02*
X14081500Y-13436020D01*
X13695100Y-13432020D02*
X13803500Y-13432020D01*
X13971500Y-13432020D02*
X14079900Y-13432020D01*
X13696800Y-13428020D02*
X13803500Y-13428020D01*
X13971500Y-13428020D02*
X14078200Y-13428020D01*
X13698600Y-13424020D02*
X13803500Y-13424020D01*
X13971500Y-13424020D02*
X14076400Y-13424020D01*
X13700500Y-13420020D02*
X13803500Y-13420020D01*
X13971500Y-13420020D02*
X14074500Y-13420020D01*
X13702400Y-13416020D02*
X13803500Y-13416020D01*
X13971500Y-13416020D02*
X14072600Y-13416020D01*
X13704500Y-13412020D02*
X13803500Y-13412020D01*
X13971500Y-13412020D02*
X14070500Y-13412020D01*
X13706700Y-13408020D02*
X13803500Y-13408020D01*
X13971500Y-13408020D02*
X14068300Y-13408020D01*
X13709000Y-13404020D02*
X13803500Y-13404020D01*
X13971500Y-13404020D02*
X14066000Y-13404020D01*
X13711500Y-13400020D02*
X13803500Y-13400020D01*
X13971500Y-13400020D02*
X14063500Y-13400020D01*
X13714000Y-13396020D02*
X13803500Y-13396020D01*
X13971500Y-13396020D02*
X14061000Y-13396020D01*
X13716700Y-13392020D02*
X13803500Y-13392020D01*
X13971500Y-13392020D02*
X14058300Y-13392020D01*
X13719500Y-13388020D02*
X13803500Y-13388020D01*
X13971500Y-13388020D02*
X14055500Y-13388020D01*
X13722500Y-13384020D02*
X13803500Y-13384020D01*
X13971500Y-13384020D02*
X14052500Y-13384020D01*
X13725600Y-13380020D02*
X13803500Y-13380020D01*
X13971500Y-13380020D02*
X14049400Y-13380020D01*
X13728800Y-13376020D02*
X13803500Y-13376020D01*
X13971500Y-13376020D02*
X14046200Y-13376020D01*
X13732300Y-13372020D02*
X13803500Y-13372020D01*
X13971500Y-13372020D02*
X14042700Y-13372020D01*
X13735900Y-13368020D02*
X13803500Y-13368020D01*
X13971500Y-13368020D02*
X14039100Y-13368020D01*
X13739700Y-13364020D02*
X13803500Y-13364020D01*
X13971500Y-13364020D02*
X14035300Y-13364020D01*
X13743700Y-13360020D02*
X13803500Y-13360020D01*
X13971500Y-13360020D02*
X14031300Y-13360020D01*
X13747900Y-13356020D02*
X13803500Y-13356020D01*
X13971500Y-13356020D02*
X14027100Y-13356020D01*
X13752400Y-13352020D02*
X13803500Y-13352020D01*
X13971500Y-13352020D02*
X14022600Y-13352020D01*
X13757100Y-13348020D02*
X13803500Y-13348020D01*
X13971500Y-13348020D02*
X14017900Y-13348020D01*
X13762100Y-13344020D02*
X13803500Y-13344020D01*
X13971500Y-13344020D02*
X14012900Y-13344020D01*
X13767500Y-13340020D02*
X13803500Y-13340020D01*
X13971500Y-13340020D02*
X14007500Y-13340020D01*
X13773300Y-13336020D02*
X13803500Y-13336020D01*
X13971500Y-13336020D02*
X14001700Y-13336020D01*
X13779500Y-13332020D02*
X13803500Y-13332020D01*
X13971500Y-13332020D02*
X13995500Y-13332020D01*
X13786200Y-13328020D02*
X13988800Y-13328020D01*
X13793500Y-13324020D02*
X13981500Y-13324020D01*
X13801600Y-13320020D02*
X13973400Y-13320020D01*
X13810700Y-13316020D02*
X13964300Y-13316020D01*
X13821100Y-13312020D02*
X13953900Y-13312020D01*
X13833800Y-13308020D02*
X13941200Y-13308020D01*
X13850500Y-13304020D02*
X13924500Y-13304020D01*
X14099500Y-13512120D02*
G75*
G03*
X14099500Y-13512120I-212000J0D01*
G01*
%TO.C,C8*%
X15142500Y-9907478D02*
X15142500Y-9857478D01*
X15117500Y-9882478D02*
X15167500Y-9882478D01*
X15032000Y-9627000D02*
X15186000Y-9627000D01*
X15394000Y-9627000D02*
X15548000Y-9627000D01*
X15032000Y-9623000D02*
X15186000Y-9623000D01*
X15394000Y-9623000D02*
X15548000Y-9623000D01*
X15032100Y-9619000D02*
X15186000Y-9619000D01*
X15394000Y-9619000D02*
X15547900Y-9619000D01*
X15032200Y-9615000D02*
X15186000Y-9615000D01*
X15394000Y-9615000D02*
X15547800Y-9615000D01*
X15032400Y-9611000D02*
X15186000Y-9611000D01*
X15394000Y-9611000D02*
X15547600Y-9611000D01*
X15032700Y-9607000D02*
X15186000Y-9607000D01*
X15394000Y-9607000D02*
X15547300Y-9607000D01*
X15033100Y-9603000D02*
X15186000Y-9603000D01*
X15394000Y-9603000D02*
X15546900Y-9603000D01*
X15033500Y-9599000D02*
X15186000Y-9599000D01*
X15394000Y-9599000D02*
X15546500Y-9599000D01*
X15033900Y-9595000D02*
X15186000Y-9595000D01*
X15394000Y-9595000D02*
X15546100Y-9595000D01*
X15034400Y-9591000D02*
X15186000Y-9591000D01*
X15394000Y-9591000D02*
X15545600Y-9591000D01*
X15035000Y-9587000D02*
X15186000Y-9587000D01*
X15394000Y-9587000D02*
X15545000Y-9587000D01*
X15035700Y-9583000D02*
X15186000Y-9583000D01*
X15394000Y-9583000D02*
X15544300Y-9583000D01*
X15036400Y-9579000D02*
X15186000Y-9579000D01*
X15394000Y-9579000D02*
X15543600Y-9579000D01*
X15037200Y-9575000D02*
X15186000Y-9575000D01*
X15394000Y-9575000D02*
X15542800Y-9575000D01*
X15038000Y-9571000D02*
X15186000Y-9571000D01*
X15394000Y-9571000D02*
X15542000Y-9571000D01*
X15038900Y-9567000D02*
X15186000Y-9567000D01*
X15394000Y-9567000D02*
X15541100Y-9567000D01*
X15039900Y-9563000D02*
X15186000Y-9563000D01*
X15394000Y-9563000D02*
X15540100Y-9563000D01*
X15040900Y-9559000D02*
X15186000Y-9559000D01*
X15394000Y-9559000D02*
X15539100Y-9559000D01*
X15042000Y-9554900D02*
X15186000Y-9554900D01*
X15394000Y-9554900D02*
X15538000Y-9554900D01*
X15043200Y-9550900D02*
X15186000Y-9550900D01*
X15394000Y-9550900D02*
X15536800Y-9550900D01*
X15044500Y-9546900D02*
X15186000Y-9546900D01*
X15394000Y-9546900D02*
X15535500Y-9546900D01*
X15045800Y-9542900D02*
X15186000Y-9542900D01*
X15394000Y-9542900D02*
X15534200Y-9542900D01*
X15047200Y-9538900D02*
X15186000Y-9538900D01*
X15394000Y-9538900D02*
X15532800Y-9538900D01*
X15048600Y-9534900D02*
X15186000Y-9534900D01*
X15394000Y-9534900D02*
X15531400Y-9534900D01*
X15050200Y-9530900D02*
X15186000Y-9530900D01*
X15394000Y-9530900D02*
X15529800Y-9530900D01*
X15051800Y-9526900D02*
X15186000Y-9526900D01*
X15394000Y-9526900D02*
X15528200Y-9526900D01*
X15053500Y-9522900D02*
X15186000Y-9522900D01*
X15394000Y-9522900D02*
X15526500Y-9522900D01*
X15055200Y-9518900D02*
X15186000Y-9518900D01*
X15394000Y-9518900D02*
X15524800Y-9518900D01*
X15057100Y-9514900D02*
X15186000Y-9514900D01*
X15394000Y-9514900D02*
X15522900Y-9514900D01*
X15059000Y-9510900D02*
X15186000Y-9510900D01*
X15394000Y-9510900D02*
X15521000Y-9510900D01*
X15061000Y-9506900D02*
X15186000Y-9506900D01*
X15394000Y-9506900D02*
X15519000Y-9506900D01*
X15063200Y-9502900D02*
X15186000Y-9502900D01*
X15394000Y-9502900D02*
X15516800Y-9502900D01*
X15065300Y-9498900D02*
X15186000Y-9498900D01*
X15394000Y-9498900D02*
X15514700Y-9498900D01*
X15067600Y-9494900D02*
X15186000Y-9494900D01*
X15394000Y-9494900D02*
X15512400Y-9494900D01*
X15070000Y-9490900D02*
X15186000Y-9490900D01*
X15394000Y-9490900D02*
X15510000Y-9490900D01*
X15072500Y-9486900D02*
X15186000Y-9486900D01*
X15394000Y-9486900D02*
X15507500Y-9486900D01*
X15075100Y-9482900D02*
X15186000Y-9482900D01*
X15394000Y-9482900D02*
X15504900Y-9482900D01*
X15077800Y-9478900D02*
X15186000Y-9478900D01*
X15394000Y-9478900D02*
X15502200Y-9478900D01*
X15080500Y-9474900D02*
X15186000Y-9474900D01*
X15394000Y-9474900D02*
X15499500Y-9474900D01*
X15083500Y-9470900D02*
X15186000Y-9470900D01*
X15394000Y-9470900D02*
X15496500Y-9470900D01*
X15086500Y-9466900D02*
X15186000Y-9466900D01*
X15394000Y-9466900D02*
X15493500Y-9466900D01*
X15089600Y-9462900D02*
X15186000Y-9462900D01*
X15394000Y-9462900D02*
X15490400Y-9462900D01*
X15092900Y-9458900D02*
X15186000Y-9458900D01*
X15394000Y-9458900D02*
X15487100Y-9458900D01*
X15096300Y-9454900D02*
X15186000Y-9454900D01*
X15394000Y-9454900D02*
X15483700Y-9454900D01*
X15099900Y-9450900D02*
X15186000Y-9450900D01*
X15394000Y-9450900D02*
X15480100Y-9450900D01*
X15103600Y-9446900D02*
X15186000Y-9446900D01*
X15394000Y-9446900D02*
X15476400Y-9446900D01*
X15107400Y-9442900D02*
X15186000Y-9442900D01*
X15394000Y-9442900D02*
X15472600Y-9442900D01*
X15111500Y-9438900D02*
X15186000Y-9438900D01*
X15394000Y-9438900D02*
X15468500Y-9438900D01*
X15115700Y-9434900D02*
X15186000Y-9434900D01*
X15394000Y-9434900D02*
X15464300Y-9434900D01*
X15120100Y-9430900D02*
X15186000Y-9430900D01*
X15394000Y-9430900D02*
X15459900Y-9430900D01*
X15124700Y-9426900D02*
X15186000Y-9426900D01*
X15394000Y-9426900D02*
X15455300Y-9426900D01*
X15129500Y-9422900D02*
X15450500Y-9422900D01*
X15134600Y-9418900D02*
X15445400Y-9418900D01*
X15140000Y-9414900D02*
X15440000Y-9414900D01*
X15145700Y-9410900D02*
X15434300Y-9410900D01*
X15151700Y-9406900D02*
X15428300Y-9406900D01*
X15158100Y-9402900D02*
X15421900Y-9402900D01*
X15164900Y-9398900D02*
X15415100Y-9398900D01*
X15172200Y-9394900D02*
X15407800Y-9394900D01*
X15180200Y-9390900D02*
X15399800Y-9390900D01*
X15188900Y-9386900D02*
X15391100Y-9386900D01*
X15198500Y-9382900D02*
X15381500Y-9382900D01*
X15209500Y-9378900D02*
X15370500Y-9378900D01*
X15222300Y-9374900D02*
X15357700Y-9374900D01*
X15238200Y-9370900D02*
X15341800Y-9370900D01*
X15261600Y-9366900D02*
X15318400Y-9366900D01*
X15552000Y-9627000D02*
G75*
G03*
X15552000Y-9627000I-262000J0D01*
G01*
%TO.C,J7*%
X15119000Y-12253000D02*
X15633000Y-12253000D01*
X15119000Y-12253000D02*
X15119000Y-11987000D01*
X15633000Y-12253000D02*
X15633000Y-11987000D01*
X14859000Y-12120000D02*
X14859000Y-11987000D01*
X14859000Y-11987000D02*
X14992000Y-11987000D01*
X15119000Y-11987000D02*
X15633000Y-11987000D01*
%TO.C,U1*%
X14952500Y-10731000D02*
X14351500Y-10731000D01*
X14727500Y-10049000D02*
X14351500Y-10049000D01*
X14351500Y-10731000D02*
X14351500Y-10605000D01*
X14351500Y-10049000D02*
X14351500Y-10175000D01*
%TO.C,D3*%
X13148500Y-11499000D02*
X13213500Y-11499000D01*
X13213500Y-11387000D02*
X13213500Y-11611000D01*
X13213500Y-11611000D02*
X13637500Y-11611000D01*
X13273500Y-11387000D02*
X13273500Y-11611000D01*
X13285500Y-11387000D02*
X13285500Y-11611000D01*
X13297500Y-11387000D02*
X13297500Y-11611000D01*
X13637500Y-11387000D02*
X13213500Y-11387000D01*
X13637500Y-11611000D02*
X13637500Y-11387000D01*
X13702500Y-11499000D02*
X13637500Y-11499000D01*
%TO.C,Q1*%
X14453580Y-13752240D02*
X14093580Y-13752240D01*
X14273580Y-14197240D02*
G75*
G03*
X14457428Y-13753392I0J260000D01*
G01*
X14089732Y-13753392D02*
G75*
G03*
X14273580Y-14197240I183848J-183848D01*
G01*
%TO.C,L2*%
X12721500Y-9794574D02*
G75*
G03*
X12721500Y-10365426I126000J-285426D01*
G01*
X12973500Y-10365426D02*
G75*
G03*
X12973500Y-9794574I-126000J285426D01*
G01*
%TO.C,C17*%
X15699500Y-10950500D02*
X15675000Y-10950500D01*
X15699500Y-10950500D02*
X15699500Y-11314500D01*
X15490000Y-10950500D02*
X15465500Y-10950500D01*
X15465500Y-10950500D02*
X15465500Y-11314500D01*
X15699500Y-11314500D02*
X15675000Y-11314500D01*
X15490000Y-11314500D02*
X15465500Y-11314500D01*
%TO.C,C5*%
X15139500Y-9359989D02*
X15139500Y-9309989D01*
X15114500Y-9334989D02*
X15164500Y-9334989D01*
X15029000Y-9079511D02*
X15183000Y-9079511D01*
X15391000Y-9079511D02*
X15545000Y-9079511D01*
X15029000Y-9075511D02*
X15183000Y-9075511D01*
X15391000Y-9075511D02*
X15545000Y-9075511D01*
X15029100Y-9071511D02*
X15183000Y-9071511D01*
X15391000Y-9071511D02*
X15544900Y-9071511D01*
X15029200Y-9067511D02*
X15183000Y-9067511D01*
X15391000Y-9067511D02*
X15544800Y-9067511D01*
X15029400Y-9063511D02*
X15183000Y-9063511D01*
X15391000Y-9063511D02*
X15544600Y-9063511D01*
X15029700Y-9059511D02*
X15183000Y-9059511D01*
X15391000Y-9059511D02*
X15544300Y-9059511D01*
X15030100Y-9055511D02*
X15183000Y-9055511D01*
X15391000Y-9055511D02*
X15543900Y-9055511D01*
X15030500Y-9051511D02*
X15183000Y-9051511D01*
X15391000Y-9051511D02*
X15543500Y-9051511D01*
X15030900Y-9047511D02*
X15183000Y-9047511D01*
X15391000Y-9047511D02*
X15543100Y-9047511D01*
X15031400Y-9043511D02*
X15183000Y-9043511D01*
X15391000Y-9043511D02*
X15542600Y-9043511D01*
X15032000Y-9039511D02*
X15183000Y-9039511D01*
X15391000Y-9039511D02*
X15542000Y-9039511D01*
X15032700Y-9035511D02*
X15183000Y-9035511D01*
X15391000Y-9035511D02*
X15541300Y-9035511D01*
X15033400Y-9031511D02*
X15183000Y-9031511D01*
X15391000Y-9031511D02*
X15540600Y-9031511D01*
X15034200Y-9027511D02*
X15183000Y-9027511D01*
X15391000Y-9027511D02*
X15539800Y-9027511D01*
X15035000Y-9023511D02*
X15183000Y-9023511D01*
X15391000Y-9023511D02*
X15539000Y-9023511D01*
X15035900Y-9019511D02*
X15183000Y-9019511D01*
X15391000Y-9019511D02*
X15538100Y-9019511D01*
X15036900Y-9015511D02*
X15183000Y-9015511D01*
X15391000Y-9015511D02*
X15537100Y-9015511D01*
X15037900Y-9011511D02*
X15183000Y-9011511D01*
X15391000Y-9011511D02*
X15536100Y-9011511D01*
X15039000Y-9007411D02*
X15183000Y-9007411D01*
X15391000Y-9007411D02*
X15535000Y-9007411D01*
X15040200Y-9003411D02*
X15183000Y-9003411D01*
X15391000Y-9003411D02*
X15533800Y-9003411D01*
X15041500Y-8999411D02*
X15183000Y-8999411D01*
X15391000Y-8999411D02*
X15532500Y-8999411D01*
X15042800Y-8995411D02*
X15183000Y-8995411D01*
X15391000Y-8995411D02*
X15531200Y-8995411D01*
X15044200Y-8991411D02*
X15183000Y-8991411D01*
X15391000Y-8991411D02*
X15529800Y-8991411D01*
X15045600Y-8987411D02*
X15183000Y-8987411D01*
X15391000Y-8987411D02*
X15528400Y-8987411D01*
X15047200Y-8983411D02*
X15183000Y-8983411D01*
X15391000Y-8983411D02*
X15526800Y-8983411D01*
X15048800Y-8979411D02*
X15183000Y-8979411D01*
X15391000Y-8979411D02*
X15525200Y-8979411D01*
X15050500Y-8975411D02*
X15183000Y-8975411D01*
X15391000Y-8975411D02*
X15523500Y-8975411D01*
X15052200Y-8971411D02*
X15183000Y-8971411D01*
X15391000Y-8971411D02*
X15521800Y-8971411D01*
X15054100Y-8967411D02*
X15183000Y-8967411D01*
X15391000Y-8967411D02*
X15519900Y-8967411D01*
X15056000Y-8963411D02*
X15183000Y-8963411D01*
X15391000Y-8963411D02*
X15518000Y-8963411D01*
X15058000Y-8959411D02*
X15183000Y-8959411D01*
X15391000Y-8959411D02*
X15516000Y-8959411D01*
X15060200Y-8955411D02*
X15183000Y-8955411D01*
X15391000Y-8955411D02*
X15513800Y-8955411D01*
X15062300Y-8951411D02*
X15183000Y-8951411D01*
X15391000Y-8951411D02*
X15511700Y-8951411D01*
X15064600Y-8947411D02*
X15183000Y-8947411D01*
X15391000Y-8947411D02*
X15509400Y-8947411D01*
X15067000Y-8943411D02*
X15183000Y-8943411D01*
X15391000Y-8943411D02*
X15507000Y-8943411D01*
X15069500Y-8939411D02*
X15183000Y-8939411D01*
X15391000Y-8939411D02*
X15504500Y-8939411D01*
X15072100Y-8935411D02*
X15183000Y-8935411D01*
X15391000Y-8935411D02*
X15501900Y-8935411D01*
X15074800Y-8931411D02*
X15183000Y-8931411D01*
X15391000Y-8931411D02*
X15499200Y-8931411D01*
X15077500Y-8927411D02*
X15183000Y-8927411D01*
X15391000Y-8927411D02*
X15496500Y-8927411D01*
X15080500Y-8923411D02*
X15183000Y-8923411D01*
X15391000Y-8923411D02*
X15493500Y-8923411D01*
X15083500Y-8919411D02*
X15183000Y-8919411D01*
X15391000Y-8919411D02*
X15490500Y-8919411D01*
X15086600Y-8915411D02*
X15183000Y-8915411D01*
X15391000Y-8915411D02*
X15487400Y-8915411D01*
X15089900Y-8911411D02*
X15183000Y-8911411D01*
X15391000Y-8911411D02*
X15484100Y-8911411D01*
X15093300Y-8907411D02*
X15183000Y-8907411D01*
X15391000Y-8907411D02*
X15480700Y-8907411D01*
X15096900Y-8903411D02*
X15183000Y-8903411D01*
X15391000Y-8903411D02*
X15477100Y-8903411D01*
X15100600Y-8899411D02*
X15183000Y-8899411D01*
X15391000Y-8899411D02*
X15473400Y-8899411D01*
X15104400Y-8895411D02*
X15183000Y-8895411D01*
X15391000Y-8895411D02*
X15469600Y-8895411D01*
X15108500Y-8891411D02*
X15183000Y-8891411D01*
X15391000Y-8891411D02*
X15465500Y-8891411D01*
X15112700Y-8887411D02*
X15183000Y-8887411D01*
X15391000Y-8887411D02*
X15461300Y-8887411D01*
X15117100Y-8883411D02*
X15183000Y-8883411D01*
X15391000Y-8883411D02*
X15456900Y-8883411D01*
X15121700Y-8879411D02*
X15183000Y-8879411D01*
X15391000Y-8879411D02*
X15452300Y-8879411D01*
X15126500Y-8875411D02*
X15447500Y-8875411D01*
X15131600Y-8871411D02*
X15442400Y-8871411D01*
X15137000Y-8867411D02*
X15437000Y-8867411D01*
X15142700Y-8863411D02*
X15431300Y-8863411D01*
X15148700Y-8859411D02*
X15425300Y-8859411D01*
X15155100Y-8855411D02*
X15418900Y-8855411D01*
X15161900Y-8851411D02*
X15412100Y-8851411D01*
X15169200Y-8847411D02*
X15404800Y-8847411D01*
X15177200Y-8843411D02*
X15396800Y-8843411D01*
X15185900Y-8839411D02*
X15388100Y-8839411D01*
X15195500Y-8835411D02*
X15378500Y-8835411D01*
X15206500Y-8831411D02*
X15367500Y-8831411D01*
X15219300Y-8827411D02*
X15354700Y-8827411D01*
X15235200Y-8823411D02*
X15338800Y-8823411D01*
X15258600Y-8819411D02*
X15315400Y-8819411D01*
X15549000Y-9079511D02*
G75*
G03*
X15549000Y-9079511I-262000J0D01*
G01*
%TO.C,Y1*%
X14175000Y-11126000D02*
X14175000Y-11966000D01*
X14175000Y-11966000D02*
X14515000Y-11966000D01*
X14250000Y-11011000D02*
X14250000Y-10966000D01*
X14290500Y-11126000D02*
X14250000Y-11011000D01*
X14399500Y-11126000D02*
X14440000Y-11011000D01*
X14440000Y-11011000D02*
X14440000Y-10966000D01*
X14515000Y-11126000D02*
X14175000Y-11126000D01*
X14515000Y-11966000D02*
X14515000Y-11126000D01*
%TO.C,D1*%
X13960500Y-8660000D02*
X13895500Y-8660000D01*
X13895500Y-8772000D02*
X13895500Y-8548000D01*
X13895500Y-8548000D02*
X13471500Y-8548000D01*
X13835500Y-8772000D02*
X13835500Y-8548000D01*
X13823500Y-8772000D02*
X13823500Y-8548000D01*
X13811500Y-8772000D02*
X13811500Y-8548000D01*
X13471500Y-8772000D02*
X13895500Y-8772000D01*
X13471500Y-8548000D02*
X13471500Y-8772000D01*
X13406500Y-8660000D02*
X13471500Y-8660000D01*
%TO.C,J8*%
X14107500Y-11785500D02*
X14119500Y-11785500D01*
X14119500Y-11785500D02*
X14119500Y-11728500D01*
X13974000Y-11652500D02*
X13974000Y-11519500D01*
X14119500Y-11576500D02*
X14119500Y-11519500D01*
X13974000Y-11519500D02*
X14050000Y-11519500D01*
X14107500Y-11519500D02*
X14119500Y-11519500D01*
%TO.C,J9*%
X14747500Y-11783000D02*
X14759500Y-11783000D01*
X14759500Y-11783000D02*
X14759500Y-11726000D01*
X14614000Y-11650000D02*
X14614000Y-11517000D01*
X14759500Y-11574000D02*
X14759500Y-11517000D01*
X14614000Y-11517000D02*
X14690000Y-11517000D01*
X14747500Y-11517000D02*
X14759500Y-11517000D01*
%TO.C,R14*%
X14364580Y-13454124D02*
X14364580Y-13599536D01*
X14182580Y-13454124D02*
X14182580Y-13599536D01*
%TO.C,D2*%
X13408000Y-8410000D02*
X13473000Y-8410000D01*
X13473000Y-8298000D02*
X13473000Y-8522000D01*
X13473000Y-8522000D02*
X13897000Y-8522000D01*
X13533000Y-8298000D02*
X13533000Y-8522000D01*
X13545000Y-8298000D02*
X13545000Y-8522000D01*
X13557000Y-8298000D02*
X13557000Y-8522000D01*
X13897000Y-8298000D02*
X13473000Y-8298000D01*
X13897000Y-8522000D02*
X13897000Y-8298000D01*
X13962000Y-8410000D02*
X13897000Y-8410000D01*
%TO.C,J5*%
X12538500Y-11321000D02*
X13358500Y-11321000D01*
X12538500Y-11321000D02*
X12538500Y-10501000D01*
X12998500Y-11321000D02*
X12948500Y-11271000D01*
X13358500Y-11321000D02*
X13358500Y-10501000D01*
X12948500Y-11271000D02*
X12898500Y-11321000D01*
X12538500Y-10501000D02*
X13358500Y-10501000D01*
D13*
%TO.C,U5*%
X13367820Y-13283800D02*
X12819180Y-13283800D01*
X13123980Y-15468200D02*
X13342420Y-15468200D01*
X13063020Y-15468200D02*
X13123980Y-15468200D01*
X12819180Y-15468200D02*
X13063020Y-15468200D01*
X13123980Y-15468200D02*
G75*
G03*
X13063020Y-15468200I-30480J0D01*
G01*
D10*
%TO.C,U2*%
X14952500Y-9978500D02*
X14351500Y-9978500D01*
X14727500Y-9296500D02*
X14351500Y-9296500D01*
X14351500Y-9978500D02*
X14351500Y-9852500D01*
X14351500Y-9296500D02*
X14351500Y-9422500D01*
%TO.C,C22*%
X14888000Y-11816740D02*
X14888000Y-11776740D01*
X14868000Y-11796740D02*
X14908000Y-11796740D01*
X14799500Y-11589760D02*
X15215500Y-11589760D01*
X14799500Y-11585760D02*
X15215500Y-11585760D01*
X14799600Y-11581760D02*
X15215400Y-11581760D01*
X14799800Y-11577760D02*
X15215200Y-11577760D01*
X14800100Y-11573760D02*
X15214900Y-11573760D01*
X14800400Y-11569760D02*
X14923500Y-11569760D01*
X15091500Y-11569760D02*
X15214600Y-11569760D01*
X14800800Y-11565760D02*
X14923500Y-11565760D01*
X15091500Y-11565760D02*
X15214200Y-11565760D01*
X14801300Y-11561760D02*
X14923500Y-11561760D01*
X15091500Y-11561760D02*
X15213700Y-11561760D01*
X14801900Y-11557760D02*
X14923500Y-11557760D01*
X15091500Y-11557760D02*
X15213100Y-11557760D01*
X14802500Y-11553760D02*
X14923500Y-11553760D01*
X15091500Y-11553760D02*
X15212500Y-11553760D01*
X14803300Y-11549760D02*
X14923500Y-11549760D01*
X15091500Y-11549760D02*
X15211700Y-11549760D01*
X14804100Y-11545760D02*
X14923500Y-11545760D01*
X15091500Y-11545760D02*
X15210900Y-11545760D01*
X14805000Y-11541760D02*
X14923500Y-11541760D01*
X15091500Y-11541760D02*
X15210000Y-11541760D01*
X14805900Y-11537760D02*
X14923500Y-11537760D01*
X15091500Y-11537760D02*
X15209100Y-11537760D01*
X14807000Y-11533760D02*
X14923500Y-11533760D01*
X15091500Y-11533760D02*
X15208000Y-11533760D01*
X14808100Y-11529760D02*
X14923500Y-11529760D01*
X15091500Y-11529760D02*
X15206900Y-11529760D01*
X14809300Y-11525760D02*
X14923500Y-11525760D01*
X15091500Y-11525760D02*
X15205700Y-11525760D01*
X14810700Y-11521760D02*
X14923500Y-11521760D01*
X15091500Y-11521760D02*
X15204300Y-11521760D01*
X14812100Y-11517660D02*
X14923500Y-11517660D01*
X15091500Y-11517660D02*
X15202900Y-11517660D01*
X14813500Y-11513660D02*
X14923500Y-11513660D01*
X15091500Y-11513660D02*
X15201500Y-11513660D01*
X14815100Y-11509660D02*
X14923500Y-11509660D01*
X15091500Y-11509660D02*
X15199900Y-11509660D01*
X14816800Y-11505660D02*
X14923500Y-11505660D01*
X15091500Y-11505660D02*
X15198200Y-11505660D01*
X14818600Y-11501660D02*
X14923500Y-11501660D01*
X15091500Y-11501660D02*
X15196400Y-11501660D01*
X14820500Y-11497660D02*
X14923500Y-11497660D01*
X15091500Y-11497660D02*
X15194500Y-11497660D01*
X14822400Y-11493660D02*
X14923500Y-11493660D01*
X15091500Y-11493660D02*
X15192600Y-11493660D01*
X14824500Y-11489660D02*
X14923500Y-11489660D01*
X15091500Y-11489660D02*
X15190500Y-11489660D01*
X14826700Y-11485660D02*
X14923500Y-11485660D01*
X15091500Y-11485660D02*
X15188300Y-11485660D01*
X14829000Y-11481660D02*
X14923500Y-11481660D01*
X15091500Y-11481660D02*
X15186000Y-11481660D01*
X14831500Y-11477660D02*
X14923500Y-11477660D01*
X15091500Y-11477660D02*
X15183500Y-11477660D01*
X14834000Y-11473660D02*
X14923500Y-11473660D01*
X15091500Y-11473660D02*
X15181000Y-11473660D01*
X14836700Y-11469660D02*
X14923500Y-11469660D01*
X15091500Y-11469660D02*
X15178300Y-11469660D01*
X14839500Y-11465660D02*
X14923500Y-11465660D01*
X15091500Y-11465660D02*
X15175500Y-11465660D01*
X14842500Y-11461660D02*
X14923500Y-11461660D01*
X15091500Y-11461660D02*
X15172500Y-11461660D01*
X14845600Y-11457660D02*
X14923500Y-11457660D01*
X15091500Y-11457660D02*
X15169400Y-11457660D01*
X14848800Y-11453660D02*
X14923500Y-11453660D01*
X15091500Y-11453660D02*
X15166200Y-11453660D01*
X14852300Y-11449660D02*
X14923500Y-11449660D01*
X15091500Y-11449660D02*
X15162700Y-11449660D01*
X14855900Y-11445660D02*
X14923500Y-11445660D01*
X15091500Y-11445660D02*
X15159100Y-11445660D01*
X14859700Y-11441660D02*
X14923500Y-11441660D01*
X15091500Y-11441660D02*
X15155300Y-11441660D01*
X14863700Y-11437660D02*
X14923500Y-11437660D01*
X15091500Y-11437660D02*
X15151300Y-11437660D01*
X14867900Y-11433660D02*
X14923500Y-11433660D01*
X15091500Y-11433660D02*
X15147100Y-11433660D01*
X14872400Y-11429660D02*
X14923500Y-11429660D01*
X15091500Y-11429660D02*
X15142600Y-11429660D01*
X14877100Y-11425660D02*
X14923500Y-11425660D01*
X15091500Y-11425660D02*
X15137900Y-11425660D01*
X14882100Y-11421660D02*
X14923500Y-11421660D01*
X15091500Y-11421660D02*
X15132900Y-11421660D01*
X14887500Y-11417660D02*
X14923500Y-11417660D01*
X15091500Y-11417660D02*
X15127500Y-11417660D01*
X14893300Y-11413660D02*
X14923500Y-11413660D01*
X15091500Y-11413660D02*
X15121700Y-11413660D01*
X14899500Y-11409660D02*
X14923500Y-11409660D01*
X15091500Y-11409660D02*
X15115500Y-11409660D01*
X14906200Y-11405660D02*
X15108800Y-11405660D01*
X14913500Y-11401660D02*
X15101500Y-11401660D01*
X14921600Y-11397660D02*
X15093400Y-11397660D01*
X14930700Y-11393660D02*
X15084300Y-11393660D01*
X14941100Y-11389660D02*
X15073900Y-11389660D01*
X14953800Y-11385660D02*
X15061200Y-11385660D01*
X14970500Y-11381660D02*
X15044500Y-11381660D01*
X15219500Y-11589760D02*
G75*
G03*
X15219500Y-11589760I-212000J0D01*
G01*
%TO.C,R15*%
X13824000Y-14036456D02*
X13824000Y-13891044D01*
X14006000Y-14036456D02*
X14006000Y-13891044D01*
%TD*%
D14*
X16904814Y-8370000D02*
G75*
G03*
X16904814Y-8370000I-184814J0D01*
G01*
X13132314Y-8365000D02*
G75*
G03*
X13132314Y-8365000I-184814J0D01*
G01*
X13137500Y-15880000D02*
G75*
G03*
X13137500Y-15880000I-184814J0D01*
G01*
X16905000Y-8787500D02*
X17070000Y-8787500D01*
X17070000Y-11907500D01*
X16905000Y-11907500D01*
X16905000Y-8787500D01*
X16907314Y-15875000D02*
G75*
G03*
X16907314Y-15875000I-184814J0D01*
G01*
X12496500Y-7931500D02*
X17192500Y-7931500D01*
X17192500Y-16320000D01*
X12496500Y-16320000D01*
X12496500Y-7931500D01*
D15*
%TO.C,J3*%
X12499000Y-8804000D02*
X12499000Y-9664000D01*
%TO.C,J5*%
X12498500Y-10481000D02*
X12498500Y-11341000D01*
%TD*%
M02*
